%TF.GenerationSoftware,KiCad,Pcbnew,(5.1.2)-2*%
%TF.CreationDate,2021-02-26T22:53:36+01:00*%
%TF.ProjectId,NRF52_Basic,4e524635-325f-4426-9173-69632e6b6963,V1*%
%TF.SameCoordinates,Original*%
%TF.FileFunction,Copper,L1,Top*%
%TF.FilePolarity,Positive*%
%FSLAX46Y46*%
G04 Gerber Fmt 4.6, Leading zero omitted, Abs format (unit mm)*
G04 Created by KiCad (PCBNEW (5.1.2)-2) date 2021-02-26 22:53:36*
%MOMM*%
%LPD*%
G04 APERTURE LIST*
%TA.AperFunction,SMDPad,CuDef*%
%ADD10R,1.350000X4.200000*%
%TD*%
%TA.AperFunction,SMDPad,CuDef*%
%ADD11R,1.270000X3.600000*%
%TD*%
%TA.AperFunction,SMDPad,CuDef*%
%ADD12R,1.400000X1.200000*%
%TD*%
%TA.AperFunction,Conductor*%
%ADD13C,0.100000*%
%TD*%
%TA.AperFunction,SMDPad,CuDef*%
%ADD14C,0.400000*%
%TD*%
%TA.AperFunction,ComponentPad*%
%ADD15O,1.700000X1.700000*%
%TD*%
%TA.AperFunction,ComponentPad*%
%ADD16R,1.700000X1.700000*%
%TD*%
%TA.AperFunction,SMDPad,CuDef*%
%ADD17C,0.875000*%
%TD*%
%TA.AperFunction,SMDPad,CuDef*%
%ADD18C,0.590000*%
%TD*%
%TA.AperFunction,SMDPad,CuDef*%
%ADD19C,4.600000*%
%TD*%
%TA.AperFunction,SMDPad,CuDef*%
%ADD20C,0.200000*%
%TD*%
%TA.AperFunction,SMDPad,CuDef*%
%ADD21R,0.600000X1.100000*%
%TD*%
%TA.AperFunction,ViaPad*%
%ADD22C,0.700000*%
%TD*%
%TA.AperFunction,ViaPad*%
%ADD23C,0.800000*%
%TD*%
%TA.AperFunction,Conductor*%
%ADD24C,0.250000*%
%TD*%
%TA.AperFunction,Conductor*%
%ADD25C,0.200000*%
%TD*%
%TA.AperFunction,Conductor*%
%ADD26C,0.293370*%
%TD*%
%TA.AperFunction,Conductor*%
%ADD27C,1.000000*%
%TD*%
%TA.AperFunction,Conductor*%
%ADD28C,0.750000*%
%TD*%
%TA.AperFunction,Conductor*%
%ADD29C,0.500000*%
%TD*%
%TA.AperFunction,Conductor*%
%ADD30C,0.254000*%
%TD*%
G04 APERTURE END LIST*
D10*
%TO.P,J4,2*%
%TO.N,VSS*%
X149429240Y-75016360D03*
X143779240Y-75016360D03*
D11*
%TO.P,J4,1*%
%TO.N,Net-(J4-Pad1)*%
X146604240Y-74816360D03*
%TD*%
D12*
%TO.P,Y1,4*%
%TO.N,VSS*%
X141424840Y-78513040D03*
%TO.P,Y1,3*%
%TO.N,XC2*%
X139224840Y-78513040D03*
%TO.P,Y1,2*%
%TO.N,VSS*%
X139224840Y-76813040D03*
%TO.P,Y1,1*%
%TO.N,XC1*%
X141424840Y-76813040D03*
%TD*%
D13*
%TO.N,VSS*%
%TO.C,C14*%
G36*
X140032922Y-79531082D02*
G01*
X140042629Y-79532521D01*
X140052148Y-79534906D01*
X140061388Y-79538212D01*
X140070260Y-79542408D01*
X140078677Y-79547453D01*
X140086559Y-79553299D01*
X140093831Y-79559889D01*
X140100421Y-79567161D01*
X140106267Y-79575043D01*
X140111312Y-79583460D01*
X140115508Y-79592332D01*
X140118814Y-79601572D01*
X140121199Y-79611091D01*
X140122638Y-79620798D01*
X140123120Y-79630600D01*
X140123120Y-79830600D01*
X140122638Y-79840402D01*
X140121199Y-79850109D01*
X140118814Y-79859628D01*
X140115508Y-79868868D01*
X140111312Y-79877740D01*
X140106267Y-79886157D01*
X140100421Y-79894039D01*
X140093831Y-79901311D01*
X140086559Y-79907901D01*
X140078677Y-79913747D01*
X140070260Y-79918792D01*
X140061388Y-79922988D01*
X140052148Y-79926294D01*
X140042629Y-79928679D01*
X140032922Y-79930118D01*
X140023120Y-79930600D01*
X139763120Y-79930600D01*
X139753318Y-79930118D01*
X139743611Y-79928679D01*
X139734092Y-79926294D01*
X139724852Y-79922988D01*
X139715980Y-79918792D01*
X139707563Y-79913747D01*
X139699681Y-79907901D01*
X139692409Y-79901311D01*
X139685819Y-79894039D01*
X139679973Y-79886157D01*
X139674928Y-79877740D01*
X139670732Y-79868868D01*
X139667426Y-79859628D01*
X139665041Y-79850109D01*
X139663602Y-79840402D01*
X139663120Y-79830600D01*
X139663120Y-79630600D01*
X139663602Y-79620798D01*
X139665041Y-79611091D01*
X139667426Y-79601572D01*
X139670732Y-79592332D01*
X139674928Y-79583460D01*
X139679973Y-79575043D01*
X139685819Y-79567161D01*
X139692409Y-79559889D01*
X139699681Y-79553299D01*
X139707563Y-79547453D01*
X139715980Y-79542408D01*
X139724852Y-79538212D01*
X139734092Y-79534906D01*
X139743611Y-79532521D01*
X139753318Y-79531082D01*
X139763120Y-79530600D01*
X140023120Y-79530600D01*
X140032922Y-79531082D01*
X140032922Y-79531082D01*
G37*
D14*
%TD*%
%TO.P,C14,2*%
%TO.N,VSS*%
X139893120Y-79730600D03*
D13*
%TO.N,XC2*%
%TO.C,C14*%
G36*
X140672922Y-79531082D02*
G01*
X140682629Y-79532521D01*
X140692148Y-79534906D01*
X140701388Y-79538212D01*
X140710260Y-79542408D01*
X140718677Y-79547453D01*
X140726559Y-79553299D01*
X140733831Y-79559889D01*
X140740421Y-79567161D01*
X140746267Y-79575043D01*
X140751312Y-79583460D01*
X140755508Y-79592332D01*
X140758814Y-79601572D01*
X140761199Y-79611091D01*
X140762638Y-79620798D01*
X140763120Y-79630600D01*
X140763120Y-79830600D01*
X140762638Y-79840402D01*
X140761199Y-79850109D01*
X140758814Y-79859628D01*
X140755508Y-79868868D01*
X140751312Y-79877740D01*
X140746267Y-79886157D01*
X140740421Y-79894039D01*
X140733831Y-79901311D01*
X140726559Y-79907901D01*
X140718677Y-79913747D01*
X140710260Y-79918792D01*
X140701388Y-79922988D01*
X140692148Y-79926294D01*
X140682629Y-79928679D01*
X140672922Y-79930118D01*
X140663120Y-79930600D01*
X140403120Y-79930600D01*
X140393318Y-79930118D01*
X140383611Y-79928679D01*
X140374092Y-79926294D01*
X140364852Y-79922988D01*
X140355980Y-79918792D01*
X140347563Y-79913747D01*
X140339681Y-79907901D01*
X140332409Y-79901311D01*
X140325819Y-79894039D01*
X140319973Y-79886157D01*
X140314928Y-79877740D01*
X140310732Y-79868868D01*
X140307426Y-79859628D01*
X140305041Y-79850109D01*
X140303602Y-79840402D01*
X140303120Y-79830600D01*
X140303120Y-79630600D01*
X140303602Y-79620798D01*
X140305041Y-79611091D01*
X140307426Y-79601572D01*
X140310732Y-79592332D01*
X140314928Y-79583460D01*
X140319973Y-79575043D01*
X140325819Y-79567161D01*
X140332409Y-79559889D01*
X140339681Y-79553299D01*
X140347563Y-79547453D01*
X140355980Y-79542408D01*
X140364852Y-79538212D01*
X140374092Y-79534906D01*
X140383611Y-79532521D01*
X140393318Y-79531082D01*
X140403120Y-79530600D01*
X140663120Y-79530600D01*
X140672922Y-79531082D01*
X140672922Y-79531082D01*
G37*
D14*
%TD*%
%TO.P,C14,1*%
%TO.N,XC2*%
X140533120Y-79730600D03*
D13*
%TO.N,VSS*%
%TO.C,C2*%
G36*
X140032922Y-75538202D02*
G01*
X140042629Y-75539641D01*
X140052148Y-75542026D01*
X140061388Y-75545332D01*
X140070260Y-75549528D01*
X140078677Y-75554573D01*
X140086559Y-75560419D01*
X140093831Y-75567009D01*
X140100421Y-75574281D01*
X140106267Y-75582163D01*
X140111312Y-75590580D01*
X140115508Y-75599452D01*
X140118814Y-75608692D01*
X140121199Y-75618211D01*
X140122638Y-75627918D01*
X140123120Y-75637720D01*
X140123120Y-75837720D01*
X140122638Y-75847522D01*
X140121199Y-75857229D01*
X140118814Y-75866748D01*
X140115508Y-75875988D01*
X140111312Y-75884860D01*
X140106267Y-75893277D01*
X140100421Y-75901159D01*
X140093831Y-75908431D01*
X140086559Y-75915021D01*
X140078677Y-75920867D01*
X140070260Y-75925912D01*
X140061388Y-75930108D01*
X140052148Y-75933414D01*
X140042629Y-75935799D01*
X140032922Y-75937238D01*
X140023120Y-75937720D01*
X139763120Y-75937720D01*
X139753318Y-75937238D01*
X139743611Y-75935799D01*
X139734092Y-75933414D01*
X139724852Y-75930108D01*
X139715980Y-75925912D01*
X139707563Y-75920867D01*
X139699681Y-75915021D01*
X139692409Y-75908431D01*
X139685819Y-75901159D01*
X139679973Y-75893277D01*
X139674928Y-75884860D01*
X139670732Y-75875988D01*
X139667426Y-75866748D01*
X139665041Y-75857229D01*
X139663602Y-75847522D01*
X139663120Y-75837720D01*
X139663120Y-75637720D01*
X139663602Y-75627918D01*
X139665041Y-75618211D01*
X139667426Y-75608692D01*
X139670732Y-75599452D01*
X139674928Y-75590580D01*
X139679973Y-75582163D01*
X139685819Y-75574281D01*
X139692409Y-75567009D01*
X139699681Y-75560419D01*
X139707563Y-75554573D01*
X139715980Y-75549528D01*
X139724852Y-75545332D01*
X139734092Y-75542026D01*
X139743611Y-75539641D01*
X139753318Y-75538202D01*
X139763120Y-75537720D01*
X140023120Y-75537720D01*
X140032922Y-75538202D01*
X140032922Y-75538202D01*
G37*
D14*
%TD*%
%TO.P,C2,2*%
%TO.N,VSS*%
X139893120Y-75737720D03*
D13*
%TO.N,XC1*%
%TO.C,C2*%
G36*
X140672922Y-75538202D02*
G01*
X140682629Y-75539641D01*
X140692148Y-75542026D01*
X140701388Y-75545332D01*
X140710260Y-75549528D01*
X140718677Y-75554573D01*
X140726559Y-75560419D01*
X140733831Y-75567009D01*
X140740421Y-75574281D01*
X140746267Y-75582163D01*
X140751312Y-75590580D01*
X140755508Y-75599452D01*
X140758814Y-75608692D01*
X140761199Y-75618211D01*
X140762638Y-75627918D01*
X140763120Y-75637720D01*
X140763120Y-75837720D01*
X140762638Y-75847522D01*
X140761199Y-75857229D01*
X140758814Y-75866748D01*
X140755508Y-75875988D01*
X140751312Y-75884860D01*
X140746267Y-75893277D01*
X140740421Y-75901159D01*
X140733831Y-75908431D01*
X140726559Y-75915021D01*
X140718677Y-75920867D01*
X140710260Y-75925912D01*
X140701388Y-75930108D01*
X140692148Y-75933414D01*
X140682629Y-75935799D01*
X140672922Y-75937238D01*
X140663120Y-75937720D01*
X140403120Y-75937720D01*
X140393318Y-75937238D01*
X140383611Y-75935799D01*
X140374092Y-75933414D01*
X140364852Y-75930108D01*
X140355980Y-75925912D01*
X140347563Y-75920867D01*
X140339681Y-75915021D01*
X140332409Y-75908431D01*
X140325819Y-75901159D01*
X140319973Y-75893277D01*
X140314928Y-75884860D01*
X140310732Y-75875988D01*
X140307426Y-75866748D01*
X140305041Y-75857229D01*
X140303602Y-75847522D01*
X140303120Y-75837720D01*
X140303120Y-75637720D01*
X140303602Y-75627918D01*
X140305041Y-75618211D01*
X140307426Y-75608692D01*
X140310732Y-75599452D01*
X140314928Y-75590580D01*
X140319973Y-75582163D01*
X140325819Y-75574281D01*
X140332409Y-75567009D01*
X140339681Y-75560419D01*
X140347563Y-75554573D01*
X140355980Y-75549528D01*
X140364852Y-75545332D01*
X140374092Y-75542026D01*
X140383611Y-75539641D01*
X140393318Y-75538202D01*
X140403120Y-75537720D01*
X140663120Y-75537720D01*
X140672922Y-75538202D01*
X140672922Y-75538202D01*
G37*
D14*
%TD*%
%TO.P,C2,1*%
%TO.N,XC1*%
X140533120Y-75737720D03*
D15*
%TO.P,J2,7*%
%TO.N,0.27*%
X137139680Y-75285600D03*
%TO.P,J2,6*%
%TO.N,0.28*%
X137139680Y-77825600D03*
%TO.P,J2,5*%
%TO.N,0.29*%
X137139680Y-80365600D03*
%TO.P,J2,4*%
%TO.N,0.30*%
X137139680Y-82905600D03*
%TO.P,J2,3*%
%TO.N,0.05_RTS*%
X137139680Y-85445600D03*
%TO.P,J2,2*%
%TO.N,0.06_TX*%
X137139680Y-87985600D03*
D16*
%TO.P,J2,1*%
%TO.N,VSS*%
X137139680Y-90525600D03*
%TD*%
D15*
%TO.P,J1,7*%
%TO.N,VDD*%
X152379680Y-90525600D03*
%TO.P,J1,6*%
%TO.N,0.07_CTS*%
X152379680Y-87985600D03*
%TO.P,J1,5*%
%TO.N,0.08_RX*%
X152379680Y-85445600D03*
%TO.P,J1,4*%
%TO.N,SWO*%
X152379680Y-82905600D03*
%TO.P,J1,3*%
%TO.N,RESET_0.21*%
X152379680Y-80365600D03*
%TO.P,J1,2*%
%TO.N,SWDCLK*%
X152379680Y-77825600D03*
D16*
%TO.P,J1,1*%
%TO.N,SWDIO*%
X152379680Y-75285600D03*
%TD*%
D13*
%TO.N,D1*%
%TO.C,C1*%
G36*
X143675202Y-86221442D02*
G01*
X143684909Y-86222881D01*
X143694428Y-86225266D01*
X143703668Y-86228572D01*
X143712540Y-86232768D01*
X143720957Y-86237813D01*
X143728839Y-86243659D01*
X143736111Y-86250249D01*
X143742701Y-86257521D01*
X143748547Y-86265403D01*
X143753592Y-86273820D01*
X143757788Y-86282692D01*
X143761094Y-86291932D01*
X143763479Y-86301451D01*
X143764918Y-86311158D01*
X143765400Y-86320960D01*
X143765400Y-86520960D01*
X143764918Y-86530762D01*
X143763479Y-86540469D01*
X143761094Y-86549988D01*
X143757788Y-86559228D01*
X143753592Y-86568100D01*
X143748547Y-86576517D01*
X143742701Y-86584399D01*
X143736111Y-86591671D01*
X143728839Y-86598261D01*
X143720957Y-86604107D01*
X143712540Y-86609152D01*
X143703668Y-86613348D01*
X143694428Y-86616654D01*
X143684909Y-86619039D01*
X143675202Y-86620478D01*
X143665400Y-86620960D01*
X143405400Y-86620960D01*
X143395598Y-86620478D01*
X143385891Y-86619039D01*
X143376372Y-86616654D01*
X143367132Y-86613348D01*
X143358260Y-86609152D01*
X143349843Y-86604107D01*
X143341961Y-86598261D01*
X143334689Y-86591671D01*
X143328099Y-86584399D01*
X143322253Y-86576517D01*
X143317208Y-86568100D01*
X143313012Y-86559228D01*
X143309706Y-86549988D01*
X143307321Y-86540469D01*
X143305882Y-86530762D01*
X143305400Y-86520960D01*
X143305400Y-86320960D01*
X143305882Y-86311158D01*
X143307321Y-86301451D01*
X143309706Y-86291932D01*
X143313012Y-86282692D01*
X143317208Y-86273820D01*
X143322253Y-86265403D01*
X143328099Y-86257521D01*
X143334689Y-86250249D01*
X143341961Y-86243659D01*
X143349843Y-86237813D01*
X143358260Y-86232768D01*
X143367132Y-86228572D01*
X143376372Y-86225266D01*
X143385891Y-86222881D01*
X143395598Y-86221442D01*
X143405400Y-86220960D01*
X143665400Y-86220960D01*
X143675202Y-86221442D01*
X143675202Y-86221442D01*
G37*
D14*
%TD*%
%TO.P,C1,2*%
%TO.N,D1*%
X143535400Y-86420960D03*
D13*
%TO.N,VSS*%
%TO.C,C1*%
G36*
X143035202Y-86221442D02*
G01*
X143044909Y-86222881D01*
X143054428Y-86225266D01*
X143063668Y-86228572D01*
X143072540Y-86232768D01*
X143080957Y-86237813D01*
X143088839Y-86243659D01*
X143096111Y-86250249D01*
X143102701Y-86257521D01*
X143108547Y-86265403D01*
X143113592Y-86273820D01*
X143117788Y-86282692D01*
X143121094Y-86291932D01*
X143123479Y-86301451D01*
X143124918Y-86311158D01*
X143125400Y-86320960D01*
X143125400Y-86520960D01*
X143124918Y-86530762D01*
X143123479Y-86540469D01*
X143121094Y-86549988D01*
X143117788Y-86559228D01*
X143113592Y-86568100D01*
X143108547Y-86576517D01*
X143102701Y-86584399D01*
X143096111Y-86591671D01*
X143088839Y-86598261D01*
X143080957Y-86604107D01*
X143072540Y-86609152D01*
X143063668Y-86613348D01*
X143054428Y-86616654D01*
X143044909Y-86619039D01*
X143035202Y-86620478D01*
X143025400Y-86620960D01*
X142765400Y-86620960D01*
X142755598Y-86620478D01*
X142745891Y-86619039D01*
X142736372Y-86616654D01*
X142727132Y-86613348D01*
X142718260Y-86609152D01*
X142709843Y-86604107D01*
X142701961Y-86598261D01*
X142694689Y-86591671D01*
X142688099Y-86584399D01*
X142682253Y-86576517D01*
X142677208Y-86568100D01*
X142673012Y-86559228D01*
X142669706Y-86549988D01*
X142667321Y-86540469D01*
X142665882Y-86530762D01*
X142665400Y-86520960D01*
X142665400Y-86320960D01*
X142665882Y-86311158D01*
X142667321Y-86301451D01*
X142669706Y-86291932D01*
X142673012Y-86282692D01*
X142677208Y-86273820D01*
X142682253Y-86265403D01*
X142688099Y-86257521D01*
X142694689Y-86250249D01*
X142701961Y-86243659D01*
X142709843Y-86237813D01*
X142718260Y-86232768D01*
X142727132Y-86228572D01*
X142736372Y-86225266D01*
X142745891Y-86222881D01*
X142755598Y-86221442D01*
X142765400Y-86220960D01*
X143025400Y-86220960D01*
X143035202Y-86221442D01*
X143035202Y-86221442D01*
G37*
D14*
%TD*%
%TO.P,C1,1*%
%TO.N,VSS*%
X142895400Y-86420960D03*
D13*
%TO.N,ANT*%
%TO.C,C3*%
G36*
X146692682Y-78779242D02*
G01*
X146702389Y-78780681D01*
X146711908Y-78783066D01*
X146721148Y-78786372D01*
X146730020Y-78790568D01*
X146738437Y-78795613D01*
X146746319Y-78801459D01*
X146753591Y-78808049D01*
X146760181Y-78815321D01*
X146766027Y-78823203D01*
X146771072Y-78831620D01*
X146775268Y-78840492D01*
X146778574Y-78849732D01*
X146780959Y-78859251D01*
X146782398Y-78868958D01*
X146782880Y-78878760D01*
X146782880Y-79078760D01*
X146782398Y-79088562D01*
X146780959Y-79098269D01*
X146778574Y-79107788D01*
X146775268Y-79117028D01*
X146771072Y-79125900D01*
X146766027Y-79134317D01*
X146760181Y-79142199D01*
X146753591Y-79149471D01*
X146746319Y-79156061D01*
X146738437Y-79161907D01*
X146730020Y-79166952D01*
X146721148Y-79171148D01*
X146711908Y-79174454D01*
X146702389Y-79176839D01*
X146692682Y-79178278D01*
X146682880Y-79178760D01*
X146422880Y-79178760D01*
X146413078Y-79178278D01*
X146403371Y-79176839D01*
X146393852Y-79174454D01*
X146384612Y-79171148D01*
X146375740Y-79166952D01*
X146367323Y-79161907D01*
X146359441Y-79156061D01*
X146352169Y-79149471D01*
X146345579Y-79142199D01*
X146339733Y-79134317D01*
X146334688Y-79125900D01*
X146330492Y-79117028D01*
X146327186Y-79107788D01*
X146324801Y-79098269D01*
X146323362Y-79088562D01*
X146322880Y-79078760D01*
X146322880Y-78878760D01*
X146323362Y-78868958D01*
X146324801Y-78859251D01*
X146327186Y-78849732D01*
X146330492Y-78840492D01*
X146334688Y-78831620D01*
X146339733Y-78823203D01*
X146345579Y-78815321D01*
X146352169Y-78808049D01*
X146359441Y-78801459D01*
X146367323Y-78795613D01*
X146375740Y-78790568D01*
X146384612Y-78786372D01*
X146393852Y-78783066D01*
X146403371Y-78780681D01*
X146413078Y-78779242D01*
X146422880Y-78778760D01*
X146682880Y-78778760D01*
X146692682Y-78779242D01*
X146692682Y-78779242D01*
G37*
D14*
%TD*%
%TO.P,C3,2*%
%TO.N,ANT*%
X146552880Y-78978760D03*
D13*
%TO.N,VSS*%
%TO.C,C3*%
G36*
X146052682Y-78779242D02*
G01*
X146062389Y-78780681D01*
X146071908Y-78783066D01*
X146081148Y-78786372D01*
X146090020Y-78790568D01*
X146098437Y-78795613D01*
X146106319Y-78801459D01*
X146113591Y-78808049D01*
X146120181Y-78815321D01*
X146126027Y-78823203D01*
X146131072Y-78831620D01*
X146135268Y-78840492D01*
X146138574Y-78849732D01*
X146140959Y-78859251D01*
X146142398Y-78868958D01*
X146142880Y-78878760D01*
X146142880Y-79078760D01*
X146142398Y-79088562D01*
X146140959Y-79098269D01*
X146138574Y-79107788D01*
X146135268Y-79117028D01*
X146131072Y-79125900D01*
X146126027Y-79134317D01*
X146120181Y-79142199D01*
X146113591Y-79149471D01*
X146106319Y-79156061D01*
X146098437Y-79161907D01*
X146090020Y-79166952D01*
X146081148Y-79171148D01*
X146071908Y-79174454D01*
X146062389Y-79176839D01*
X146052682Y-79178278D01*
X146042880Y-79178760D01*
X145782880Y-79178760D01*
X145773078Y-79178278D01*
X145763371Y-79176839D01*
X145753852Y-79174454D01*
X145744612Y-79171148D01*
X145735740Y-79166952D01*
X145727323Y-79161907D01*
X145719441Y-79156061D01*
X145712169Y-79149471D01*
X145705579Y-79142199D01*
X145699733Y-79134317D01*
X145694688Y-79125900D01*
X145690492Y-79117028D01*
X145687186Y-79107788D01*
X145684801Y-79098269D01*
X145683362Y-79088562D01*
X145682880Y-79078760D01*
X145682880Y-78878760D01*
X145683362Y-78868958D01*
X145684801Y-78859251D01*
X145687186Y-78849732D01*
X145690492Y-78840492D01*
X145694688Y-78831620D01*
X145699733Y-78823203D01*
X145705579Y-78815321D01*
X145712169Y-78808049D01*
X145719441Y-78801459D01*
X145727323Y-78795613D01*
X145735740Y-78790568D01*
X145744612Y-78786372D01*
X145753852Y-78783066D01*
X145763371Y-78780681D01*
X145773078Y-78779242D01*
X145782880Y-78778760D01*
X146042880Y-78778760D01*
X146052682Y-78779242D01*
X146052682Y-78779242D01*
G37*
D14*
%TD*%
%TO.P,C3,1*%
%TO.N,VSS*%
X145912880Y-78978760D03*
D13*
%TO.N,D2*%
%TO.C,C4*%
G36*
X145011722Y-78104002D02*
G01*
X145021429Y-78105441D01*
X145030948Y-78107826D01*
X145040188Y-78111132D01*
X145049060Y-78115328D01*
X145057477Y-78120373D01*
X145065359Y-78126219D01*
X145072631Y-78132809D01*
X145079221Y-78140081D01*
X145085067Y-78147963D01*
X145090112Y-78156380D01*
X145094308Y-78165252D01*
X145097614Y-78174492D01*
X145099999Y-78184011D01*
X145101438Y-78193718D01*
X145101920Y-78203520D01*
X145101920Y-78463520D01*
X145101438Y-78473322D01*
X145099999Y-78483029D01*
X145097614Y-78492548D01*
X145094308Y-78501788D01*
X145090112Y-78510660D01*
X145085067Y-78519077D01*
X145079221Y-78526959D01*
X145072631Y-78534231D01*
X145065359Y-78540821D01*
X145057477Y-78546667D01*
X145049060Y-78551712D01*
X145040188Y-78555908D01*
X145030948Y-78559214D01*
X145021429Y-78561599D01*
X145011722Y-78563038D01*
X145001920Y-78563520D01*
X144801920Y-78563520D01*
X144792118Y-78563038D01*
X144782411Y-78561599D01*
X144772892Y-78559214D01*
X144763652Y-78555908D01*
X144754780Y-78551712D01*
X144746363Y-78546667D01*
X144738481Y-78540821D01*
X144731209Y-78534231D01*
X144724619Y-78526959D01*
X144718773Y-78519077D01*
X144713728Y-78510660D01*
X144709532Y-78501788D01*
X144706226Y-78492548D01*
X144703841Y-78483029D01*
X144702402Y-78473322D01*
X144701920Y-78463520D01*
X144701920Y-78203520D01*
X144702402Y-78193718D01*
X144703841Y-78184011D01*
X144706226Y-78174492D01*
X144709532Y-78165252D01*
X144713728Y-78156380D01*
X144718773Y-78147963D01*
X144724619Y-78140081D01*
X144731209Y-78132809D01*
X144738481Y-78126219D01*
X144746363Y-78120373D01*
X144754780Y-78115328D01*
X144763652Y-78111132D01*
X144772892Y-78107826D01*
X144782411Y-78105441D01*
X144792118Y-78104002D01*
X144801920Y-78103520D01*
X145001920Y-78103520D01*
X145011722Y-78104002D01*
X145011722Y-78104002D01*
G37*
D14*
%TD*%
%TO.P,C4,2*%
%TO.N,D2*%
X144901920Y-78333520D03*
D13*
%TO.N,VSS*%
%TO.C,C4*%
G36*
X145011722Y-77464002D02*
G01*
X145021429Y-77465441D01*
X145030948Y-77467826D01*
X145040188Y-77471132D01*
X145049060Y-77475328D01*
X145057477Y-77480373D01*
X145065359Y-77486219D01*
X145072631Y-77492809D01*
X145079221Y-77500081D01*
X145085067Y-77507963D01*
X145090112Y-77516380D01*
X145094308Y-77525252D01*
X145097614Y-77534492D01*
X145099999Y-77544011D01*
X145101438Y-77553718D01*
X145101920Y-77563520D01*
X145101920Y-77823520D01*
X145101438Y-77833322D01*
X145099999Y-77843029D01*
X145097614Y-77852548D01*
X145094308Y-77861788D01*
X145090112Y-77870660D01*
X145085067Y-77879077D01*
X145079221Y-77886959D01*
X145072631Y-77894231D01*
X145065359Y-77900821D01*
X145057477Y-77906667D01*
X145049060Y-77911712D01*
X145040188Y-77915908D01*
X145030948Y-77919214D01*
X145021429Y-77921599D01*
X145011722Y-77923038D01*
X145001920Y-77923520D01*
X144801920Y-77923520D01*
X144792118Y-77923038D01*
X144782411Y-77921599D01*
X144772892Y-77919214D01*
X144763652Y-77915908D01*
X144754780Y-77911712D01*
X144746363Y-77906667D01*
X144738481Y-77900821D01*
X144731209Y-77894231D01*
X144724619Y-77886959D01*
X144718773Y-77879077D01*
X144713728Y-77870660D01*
X144709532Y-77861788D01*
X144706226Y-77852548D01*
X144703841Y-77843029D01*
X144702402Y-77833322D01*
X144701920Y-77823520D01*
X144701920Y-77563520D01*
X144702402Y-77553718D01*
X144703841Y-77544011D01*
X144706226Y-77534492D01*
X144709532Y-77525252D01*
X144713728Y-77516380D01*
X144718773Y-77507963D01*
X144724619Y-77500081D01*
X144731209Y-77492809D01*
X144738481Y-77486219D01*
X144746363Y-77480373D01*
X144754780Y-77475328D01*
X144763652Y-77471132D01*
X144772892Y-77467826D01*
X144782411Y-77465441D01*
X144792118Y-77464002D01*
X144801920Y-77463520D01*
X145001920Y-77463520D01*
X145011722Y-77464002D01*
X145011722Y-77464002D01*
G37*
D14*
%TD*%
%TO.P,C4,1*%
%TO.N,VSS*%
X144901920Y-77693520D03*
D13*
%TO.N,VSS*%
%TO.C,C7*%
G36*
X144229402Y-77458962D02*
G01*
X144239109Y-77460401D01*
X144248628Y-77462786D01*
X144257868Y-77466092D01*
X144266740Y-77470288D01*
X144275157Y-77475333D01*
X144283039Y-77481179D01*
X144290311Y-77487769D01*
X144296901Y-77495041D01*
X144302747Y-77502923D01*
X144307792Y-77511340D01*
X144311988Y-77520212D01*
X144315294Y-77529452D01*
X144317679Y-77538971D01*
X144319118Y-77548678D01*
X144319600Y-77558480D01*
X144319600Y-77818480D01*
X144319118Y-77828282D01*
X144317679Y-77837989D01*
X144315294Y-77847508D01*
X144311988Y-77856748D01*
X144307792Y-77865620D01*
X144302747Y-77874037D01*
X144296901Y-77881919D01*
X144290311Y-77889191D01*
X144283039Y-77895781D01*
X144275157Y-77901627D01*
X144266740Y-77906672D01*
X144257868Y-77910868D01*
X144248628Y-77914174D01*
X144239109Y-77916559D01*
X144229402Y-77917998D01*
X144219600Y-77918480D01*
X144019600Y-77918480D01*
X144009798Y-77917998D01*
X144000091Y-77916559D01*
X143990572Y-77914174D01*
X143981332Y-77910868D01*
X143972460Y-77906672D01*
X143964043Y-77901627D01*
X143956161Y-77895781D01*
X143948889Y-77889191D01*
X143942299Y-77881919D01*
X143936453Y-77874037D01*
X143931408Y-77865620D01*
X143927212Y-77856748D01*
X143923906Y-77847508D01*
X143921521Y-77837989D01*
X143920082Y-77828282D01*
X143919600Y-77818480D01*
X143919600Y-77558480D01*
X143920082Y-77548678D01*
X143921521Y-77538971D01*
X143923906Y-77529452D01*
X143927212Y-77520212D01*
X143931408Y-77511340D01*
X143936453Y-77502923D01*
X143942299Y-77495041D01*
X143948889Y-77487769D01*
X143956161Y-77481179D01*
X143964043Y-77475333D01*
X143972460Y-77470288D01*
X143981332Y-77466092D01*
X143990572Y-77462786D01*
X144000091Y-77460401D01*
X144009798Y-77458962D01*
X144019600Y-77458480D01*
X144219600Y-77458480D01*
X144229402Y-77458962D01*
X144229402Y-77458962D01*
G37*
D14*
%TD*%
%TO.P,C7,1*%
%TO.N,VSS*%
X144119600Y-77688480D03*
D13*
%TO.N,D3*%
%TO.C,C7*%
G36*
X144229402Y-78098962D02*
G01*
X144239109Y-78100401D01*
X144248628Y-78102786D01*
X144257868Y-78106092D01*
X144266740Y-78110288D01*
X144275157Y-78115333D01*
X144283039Y-78121179D01*
X144290311Y-78127769D01*
X144296901Y-78135041D01*
X144302747Y-78142923D01*
X144307792Y-78151340D01*
X144311988Y-78160212D01*
X144315294Y-78169452D01*
X144317679Y-78178971D01*
X144319118Y-78188678D01*
X144319600Y-78198480D01*
X144319600Y-78458480D01*
X144319118Y-78468282D01*
X144317679Y-78477989D01*
X144315294Y-78487508D01*
X144311988Y-78496748D01*
X144307792Y-78505620D01*
X144302747Y-78514037D01*
X144296901Y-78521919D01*
X144290311Y-78529191D01*
X144283039Y-78535781D01*
X144275157Y-78541627D01*
X144266740Y-78546672D01*
X144257868Y-78550868D01*
X144248628Y-78554174D01*
X144239109Y-78556559D01*
X144229402Y-78557998D01*
X144219600Y-78558480D01*
X144019600Y-78558480D01*
X144009798Y-78557998D01*
X144000091Y-78556559D01*
X143990572Y-78554174D01*
X143981332Y-78550868D01*
X143972460Y-78546672D01*
X143964043Y-78541627D01*
X143956161Y-78535781D01*
X143948889Y-78529191D01*
X143942299Y-78521919D01*
X143936453Y-78514037D01*
X143931408Y-78505620D01*
X143927212Y-78496748D01*
X143923906Y-78487508D01*
X143921521Y-78477989D01*
X143920082Y-78468282D01*
X143919600Y-78458480D01*
X143919600Y-78198480D01*
X143920082Y-78188678D01*
X143921521Y-78178971D01*
X143923906Y-78169452D01*
X143927212Y-78160212D01*
X143931408Y-78151340D01*
X143936453Y-78142923D01*
X143942299Y-78135041D01*
X143948889Y-78127769D01*
X143956161Y-78121179D01*
X143964043Y-78115333D01*
X143972460Y-78110288D01*
X143981332Y-78106092D01*
X143990572Y-78102786D01*
X144000091Y-78100401D01*
X144009798Y-78098962D01*
X144019600Y-78098480D01*
X144219600Y-78098480D01*
X144229402Y-78098962D01*
X144229402Y-78098962D01*
G37*
D14*
%TD*%
%TO.P,C7,2*%
%TO.N,D3*%
X144119600Y-78328480D03*
D13*
%TO.N,VSS*%
%TO.C,C8*%
G36*
X149736371Y-87605233D02*
G01*
X149757606Y-87608383D01*
X149778430Y-87613599D01*
X149798642Y-87620831D01*
X149818048Y-87630010D01*
X149836461Y-87641046D01*
X149853704Y-87653834D01*
X149869610Y-87668250D01*
X149884026Y-87684156D01*
X149896814Y-87701399D01*
X149907850Y-87719812D01*
X149917029Y-87739218D01*
X149924261Y-87759430D01*
X149929477Y-87780254D01*
X149932627Y-87801489D01*
X149933680Y-87822930D01*
X149933680Y-88260430D01*
X149932627Y-88281871D01*
X149929477Y-88303106D01*
X149924261Y-88323930D01*
X149917029Y-88344142D01*
X149907850Y-88363548D01*
X149896814Y-88381961D01*
X149884026Y-88399204D01*
X149869610Y-88415110D01*
X149853704Y-88429526D01*
X149836461Y-88442314D01*
X149818048Y-88453350D01*
X149798642Y-88462529D01*
X149778430Y-88469761D01*
X149757606Y-88474977D01*
X149736371Y-88478127D01*
X149714930Y-88479180D01*
X149202430Y-88479180D01*
X149180989Y-88478127D01*
X149159754Y-88474977D01*
X149138930Y-88469761D01*
X149118718Y-88462529D01*
X149099312Y-88453350D01*
X149080899Y-88442314D01*
X149063656Y-88429526D01*
X149047750Y-88415110D01*
X149033334Y-88399204D01*
X149020546Y-88381961D01*
X149009510Y-88363548D01*
X149000331Y-88344142D01*
X148993099Y-88323930D01*
X148987883Y-88303106D01*
X148984733Y-88281871D01*
X148983680Y-88260430D01*
X148983680Y-87822930D01*
X148984733Y-87801489D01*
X148987883Y-87780254D01*
X148993099Y-87759430D01*
X149000331Y-87739218D01*
X149009510Y-87719812D01*
X149020546Y-87701399D01*
X149033334Y-87684156D01*
X149047750Y-87668250D01*
X149063656Y-87653834D01*
X149080899Y-87641046D01*
X149099312Y-87630010D01*
X149118718Y-87620831D01*
X149138930Y-87613599D01*
X149159754Y-87608383D01*
X149180989Y-87605233D01*
X149202430Y-87604180D01*
X149714930Y-87604180D01*
X149736371Y-87605233D01*
X149736371Y-87605233D01*
G37*
D17*
%TD*%
%TO.P,C8,1*%
%TO.N,VSS*%
X149458680Y-88041680D03*
D13*
%TO.N,VDD*%
%TO.C,C8*%
G36*
X149736371Y-86030233D02*
G01*
X149757606Y-86033383D01*
X149778430Y-86038599D01*
X149798642Y-86045831D01*
X149818048Y-86055010D01*
X149836461Y-86066046D01*
X149853704Y-86078834D01*
X149869610Y-86093250D01*
X149884026Y-86109156D01*
X149896814Y-86126399D01*
X149907850Y-86144812D01*
X149917029Y-86164218D01*
X149924261Y-86184430D01*
X149929477Y-86205254D01*
X149932627Y-86226489D01*
X149933680Y-86247930D01*
X149933680Y-86685430D01*
X149932627Y-86706871D01*
X149929477Y-86728106D01*
X149924261Y-86748930D01*
X149917029Y-86769142D01*
X149907850Y-86788548D01*
X149896814Y-86806961D01*
X149884026Y-86824204D01*
X149869610Y-86840110D01*
X149853704Y-86854526D01*
X149836461Y-86867314D01*
X149818048Y-86878350D01*
X149798642Y-86887529D01*
X149778430Y-86894761D01*
X149757606Y-86899977D01*
X149736371Y-86903127D01*
X149714930Y-86904180D01*
X149202430Y-86904180D01*
X149180989Y-86903127D01*
X149159754Y-86899977D01*
X149138930Y-86894761D01*
X149118718Y-86887529D01*
X149099312Y-86878350D01*
X149080899Y-86867314D01*
X149063656Y-86854526D01*
X149047750Y-86840110D01*
X149033334Y-86824204D01*
X149020546Y-86806961D01*
X149009510Y-86788548D01*
X149000331Y-86769142D01*
X148993099Y-86748930D01*
X148987883Y-86728106D01*
X148984733Y-86706871D01*
X148983680Y-86685430D01*
X148983680Y-86247930D01*
X148984733Y-86226489D01*
X148987883Y-86205254D01*
X148993099Y-86184430D01*
X149000331Y-86164218D01*
X149009510Y-86144812D01*
X149020546Y-86126399D01*
X149033334Y-86109156D01*
X149047750Y-86093250D01*
X149063656Y-86078834D01*
X149080899Y-86066046D01*
X149099312Y-86055010D01*
X149118718Y-86045831D01*
X149138930Y-86038599D01*
X149159754Y-86033383D01*
X149180989Y-86030233D01*
X149202430Y-86029180D01*
X149714930Y-86029180D01*
X149736371Y-86030233D01*
X149736371Y-86030233D01*
G37*
D17*
%TD*%
%TO.P,C8,2*%
%TO.N,VDD*%
X149458680Y-86466680D03*
D13*
%TO.N,VSS*%
%TO.C,C9*%
G36*
X141730998Y-83764750D02*
G01*
X141745316Y-83766874D01*
X141759357Y-83770391D01*
X141772986Y-83775268D01*
X141786071Y-83781457D01*
X141798487Y-83788898D01*
X141810113Y-83797521D01*
X141820838Y-83807242D01*
X141830559Y-83817967D01*
X141839182Y-83829593D01*
X141846623Y-83842009D01*
X141852812Y-83855094D01*
X141857689Y-83868723D01*
X141861206Y-83882764D01*
X141863330Y-83897082D01*
X141864040Y-83911540D01*
X141864040Y-84206540D01*
X141863330Y-84220998D01*
X141861206Y-84235316D01*
X141857689Y-84249357D01*
X141852812Y-84262986D01*
X141846623Y-84276071D01*
X141839182Y-84288487D01*
X141830559Y-84300113D01*
X141820838Y-84310838D01*
X141810113Y-84320559D01*
X141798487Y-84329182D01*
X141786071Y-84336623D01*
X141772986Y-84342812D01*
X141759357Y-84347689D01*
X141745316Y-84351206D01*
X141730998Y-84353330D01*
X141716540Y-84354040D01*
X141371540Y-84354040D01*
X141357082Y-84353330D01*
X141342764Y-84351206D01*
X141328723Y-84347689D01*
X141315094Y-84342812D01*
X141302009Y-84336623D01*
X141289593Y-84329182D01*
X141277967Y-84320559D01*
X141267242Y-84310838D01*
X141257521Y-84300113D01*
X141248898Y-84288487D01*
X141241457Y-84276071D01*
X141235268Y-84262986D01*
X141230391Y-84249357D01*
X141226874Y-84235316D01*
X141224750Y-84220998D01*
X141224040Y-84206540D01*
X141224040Y-83911540D01*
X141224750Y-83897082D01*
X141226874Y-83882764D01*
X141230391Y-83868723D01*
X141235268Y-83855094D01*
X141241457Y-83842009D01*
X141248898Y-83829593D01*
X141257521Y-83817967D01*
X141267242Y-83807242D01*
X141277967Y-83797521D01*
X141289593Y-83788898D01*
X141302009Y-83781457D01*
X141315094Y-83775268D01*
X141328723Y-83770391D01*
X141342764Y-83766874D01*
X141357082Y-83764750D01*
X141371540Y-83764040D01*
X141716540Y-83764040D01*
X141730998Y-83764750D01*
X141730998Y-83764750D01*
G37*
D18*
%TD*%
%TO.P,C9,1*%
%TO.N,VSS*%
X141544040Y-84059040D03*
D13*
%TO.N,D4*%
%TO.C,C9*%
G36*
X141730998Y-84734750D02*
G01*
X141745316Y-84736874D01*
X141759357Y-84740391D01*
X141772986Y-84745268D01*
X141786071Y-84751457D01*
X141798487Y-84758898D01*
X141810113Y-84767521D01*
X141820838Y-84777242D01*
X141830559Y-84787967D01*
X141839182Y-84799593D01*
X141846623Y-84812009D01*
X141852812Y-84825094D01*
X141857689Y-84838723D01*
X141861206Y-84852764D01*
X141863330Y-84867082D01*
X141864040Y-84881540D01*
X141864040Y-85176540D01*
X141863330Y-85190998D01*
X141861206Y-85205316D01*
X141857689Y-85219357D01*
X141852812Y-85232986D01*
X141846623Y-85246071D01*
X141839182Y-85258487D01*
X141830559Y-85270113D01*
X141820838Y-85280838D01*
X141810113Y-85290559D01*
X141798487Y-85299182D01*
X141786071Y-85306623D01*
X141772986Y-85312812D01*
X141759357Y-85317689D01*
X141745316Y-85321206D01*
X141730998Y-85323330D01*
X141716540Y-85324040D01*
X141371540Y-85324040D01*
X141357082Y-85323330D01*
X141342764Y-85321206D01*
X141328723Y-85317689D01*
X141315094Y-85312812D01*
X141302009Y-85306623D01*
X141289593Y-85299182D01*
X141277967Y-85290559D01*
X141267242Y-85280838D01*
X141257521Y-85270113D01*
X141248898Y-85258487D01*
X141241457Y-85246071D01*
X141235268Y-85232986D01*
X141230391Y-85219357D01*
X141226874Y-85205316D01*
X141224750Y-85190998D01*
X141224040Y-85176540D01*
X141224040Y-84881540D01*
X141224750Y-84867082D01*
X141226874Y-84852764D01*
X141230391Y-84838723D01*
X141235268Y-84825094D01*
X141241457Y-84812009D01*
X141248898Y-84799593D01*
X141257521Y-84787967D01*
X141267242Y-84777242D01*
X141277967Y-84767521D01*
X141289593Y-84758898D01*
X141302009Y-84751457D01*
X141315094Y-84745268D01*
X141328723Y-84740391D01*
X141342764Y-84736874D01*
X141357082Y-84734750D01*
X141371540Y-84734040D01*
X141716540Y-84734040D01*
X141730998Y-84734750D01*
X141730998Y-84734750D01*
G37*
D18*
%TD*%
%TO.P,C9,2*%
%TO.N,D4*%
X141544040Y-85029040D03*
D13*
%TO.N,XL1*%
%TO.C,C12*%
G36*
X142029762Y-87491962D02*
G01*
X142039469Y-87493401D01*
X142048988Y-87495786D01*
X142058228Y-87499092D01*
X142067100Y-87503288D01*
X142075517Y-87508333D01*
X142083399Y-87514179D01*
X142090671Y-87520769D01*
X142097261Y-87528041D01*
X142103107Y-87535923D01*
X142108152Y-87544340D01*
X142112348Y-87553212D01*
X142115654Y-87562452D01*
X142118039Y-87571971D01*
X142119478Y-87581678D01*
X142119960Y-87591480D01*
X142119960Y-87851480D01*
X142119478Y-87861282D01*
X142118039Y-87870989D01*
X142115654Y-87880508D01*
X142112348Y-87889748D01*
X142108152Y-87898620D01*
X142103107Y-87907037D01*
X142097261Y-87914919D01*
X142090671Y-87922191D01*
X142083399Y-87928781D01*
X142075517Y-87934627D01*
X142067100Y-87939672D01*
X142058228Y-87943868D01*
X142048988Y-87947174D01*
X142039469Y-87949559D01*
X142029762Y-87950998D01*
X142019960Y-87951480D01*
X141819960Y-87951480D01*
X141810158Y-87950998D01*
X141800451Y-87949559D01*
X141790932Y-87947174D01*
X141781692Y-87943868D01*
X141772820Y-87939672D01*
X141764403Y-87934627D01*
X141756521Y-87928781D01*
X141749249Y-87922191D01*
X141742659Y-87914919D01*
X141736813Y-87907037D01*
X141731768Y-87898620D01*
X141727572Y-87889748D01*
X141724266Y-87880508D01*
X141721881Y-87870989D01*
X141720442Y-87861282D01*
X141719960Y-87851480D01*
X141719960Y-87591480D01*
X141720442Y-87581678D01*
X141721881Y-87571971D01*
X141724266Y-87562452D01*
X141727572Y-87553212D01*
X141731768Y-87544340D01*
X141736813Y-87535923D01*
X141742659Y-87528041D01*
X141749249Y-87520769D01*
X141756521Y-87514179D01*
X141764403Y-87508333D01*
X141772820Y-87503288D01*
X141781692Y-87499092D01*
X141790932Y-87495786D01*
X141800451Y-87493401D01*
X141810158Y-87491962D01*
X141819960Y-87491480D01*
X142019960Y-87491480D01*
X142029762Y-87491962D01*
X142029762Y-87491962D01*
G37*
D14*
%TD*%
%TO.P,C12,1*%
%TO.N,XL1*%
X141919960Y-87721480D03*
D13*
%TO.N,VSS*%
%TO.C,C12*%
G36*
X142029762Y-88131962D02*
G01*
X142039469Y-88133401D01*
X142048988Y-88135786D01*
X142058228Y-88139092D01*
X142067100Y-88143288D01*
X142075517Y-88148333D01*
X142083399Y-88154179D01*
X142090671Y-88160769D01*
X142097261Y-88168041D01*
X142103107Y-88175923D01*
X142108152Y-88184340D01*
X142112348Y-88193212D01*
X142115654Y-88202452D01*
X142118039Y-88211971D01*
X142119478Y-88221678D01*
X142119960Y-88231480D01*
X142119960Y-88491480D01*
X142119478Y-88501282D01*
X142118039Y-88510989D01*
X142115654Y-88520508D01*
X142112348Y-88529748D01*
X142108152Y-88538620D01*
X142103107Y-88547037D01*
X142097261Y-88554919D01*
X142090671Y-88562191D01*
X142083399Y-88568781D01*
X142075517Y-88574627D01*
X142067100Y-88579672D01*
X142058228Y-88583868D01*
X142048988Y-88587174D01*
X142039469Y-88589559D01*
X142029762Y-88590998D01*
X142019960Y-88591480D01*
X141819960Y-88591480D01*
X141810158Y-88590998D01*
X141800451Y-88589559D01*
X141790932Y-88587174D01*
X141781692Y-88583868D01*
X141772820Y-88579672D01*
X141764403Y-88574627D01*
X141756521Y-88568781D01*
X141749249Y-88562191D01*
X141742659Y-88554919D01*
X141736813Y-88547037D01*
X141731768Y-88538620D01*
X141727572Y-88529748D01*
X141724266Y-88520508D01*
X141721881Y-88510989D01*
X141720442Y-88501282D01*
X141719960Y-88491480D01*
X141719960Y-88231480D01*
X141720442Y-88221678D01*
X141721881Y-88211971D01*
X141724266Y-88202452D01*
X141727572Y-88193212D01*
X141731768Y-88184340D01*
X141736813Y-88175923D01*
X141742659Y-88168041D01*
X141749249Y-88160769D01*
X141756521Y-88154179D01*
X141764403Y-88148333D01*
X141772820Y-88143288D01*
X141781692Y-88139092D01*
X141790932Y-88135786D01*
X141800451Y-88133401D01*
X141810158Y-88131962D01*
X141819960Y-88131480D01*
X142019960Y-88131480D01*
X142029762Y-88131962D01*
X142029762Y-88131962D01*
G37*
D14*
%TD*%
%TO.P,C12,2*%
%TO.N,VSS*%
X141919960Y-88361480D03*
D13*
%TO.N,XL2*%
%TO.C,C13*%
G36*
X145413042Y-87471682D02*
G01*
X145422749Y-87473121D01*
X145432268Y-87475506D01*
X145441508Y-87478812D01*
X145450380Y-87483008D01*
X145458797Y-87488053D01*
X145466679Y-87493899D01*
X145473951Y-87500489D01*
X145480541Y-87507761D01*
X145486387Y-87515643D01*
X145491432Y-87524060D01*
X145495628Y-87532932D01*
X145498934Y-87542172D01*
X145501319Y-87551691D01*
X145502758Y-87561398D01*
X145503240Y-87571200D01*
X145503240Y-87831200D01*
X145502758Y-87841002D01*
X145501319Y-87850709D01*
X145498934Y-87860228D01*
X145495628Y-87869468D01*
X145491432Y-87878340D01*
X145486387Y-87886757D01*
X145480541Y-87894639D01*
X145473951Y-87901911D01*
X145466679Y-87908501D01*
X145458797Y-87914347D01*
X145450380Y-87919392D01*
X145441508Y-87923588D01*
X145432268Y-87926894D01*
X145422749Y-87929279D01*
X145413042Y-87930718D01*
X145403240Y-87931200D01*
X145203240Y-87931200D01*
X145193438Y-87930718D01*
X145183731Y-87929279D01*
X145174212Y-87926894D01*
X145164972Y-87923588D01*
X145156100Y-87919392D01*
X145147683Y-87914347D01*
X145139801Y-87908501D01*
X145132529Y-87901911D01*
X145125939Y-87894639D01*
X145120093Y-87886757D01*
X145115048Y-87878340D01*
X145110852Y-87869468D01*
X145107546Y-87860228D01*
X145105161Y-87850709D01*
X145103722Y-87841002D01*
X145103240Y-87831200D01*
X145103240Y-87571200D01*
X145103722Y-87561398D01*
X145105161Y-87551691D01*
X145107546Y-87542172D01*
X145110852Y-87532932D01*
X145115048Y-87524060D01*
X145120093Y-87515643D01*
X145125939Y-87507761D01*
X145132529Y-87500489D01*
X145139801Y-87493899D01*
X145147683Y-87488053D01*
X145156100Y-87483008D01*
X145164972Y-87478812D01*
X145174212Y-87475506D01*
X145183731Y-87473121D01*
X145193438Y-87471682D01*
X145203240Y-87471200D01*
X145403240Y-87471200D01*
X145413042Y-87471682D01*
X145413042Y-87471682D01*
G37*
D14*
%TD*%
%TO.P,C13,1*%
%TO.N,XL2*%
X145303240Y-87701200D03*
D13*
%TO.N,VSS*%
%TO.C,C13*%
G36*
X145413042Y-88111682D02*
G01*
X145422749Y-88113121D01*
X145432268Y-88115506D01*
X145441508Y-88118812D01*
X145450380Y-88123008D01*
X145458797Y-88128053D01*
X145466679Y-88133899D01*
X145473951Y-88140489D01*
X145480541Y-88147761D01*
X145486387Y-88155643D01*
X145491432Y-88164060D01*
X145495628Y-88172932D01*
X145498934Y-88182172D01*
X145501319Y-88191691D01*
X145502758Y-88201398D01*
X145503240Y-88211200D01*
X145503240Y-88471200D01*
X145502758Y-88481002D01*
X145501319Y-88490709D01*
X145498934Y-88500228D01*
X145495628Y-88509468D01*
X145491432Y-88518340D01*
X145486387Y-88526757D01*
X145480541Y-88534639D01*
X145473951Y-88541911D01*
X145466679Y-88548501D01*
X145458797Y-88554347D01*
X145450380Y-88559392D01*
X145441508Y-88563588D01*
X145432268Y-88566894D01*
X145422749Y-88569279D01*
X145413042Y-88570718D01*
X145403240Y-88571200D01*
X145203240Y-88571200D01*
X145193438Y-88570718D01*
X145183731Y-88569279D01*
X145174212Y-88566894D01*
X145164972Y-88563588D01*
X145156100Y-88559392D01*
X145147683Y-88554347D01*
X145139801Y-88548501D01*
X145132529Y-88541911D01*
X145125939Y-88534639D01*
X145120093Y-88526757D01*
X145115048Y-88518340D01*
X145110852Y-88509468D01*
X145107546Y-88500228D01*
X145105161Y-88490709D01*
X145103722Y-88481002D01*
X145103240Y-88471200D01*
X145103240Y-88211200D01*
X145103722Y-88201398D01*
X145105161Y-88191691D01*
X145107546Y-88182172D01*
X145110852Y-88172932D01*
X145115048Y-88164060D01*
X145120093Y-88155643D01*
X145125939Y-88147761D01*
X145132529Y-88140489D01*
X145139801Y-88133899D01*
X145147683Y-88128053D01*
X145156100Y-88123008D01*
X145164972Y-88118812D01*
X145174212Y-88115506D01*
X145183731Y-88113121D01*
X145193438Y-88111682D01*
X145203240Y-88111200D01*
X145403240Y-88111200D01*
X145413042Y-88111682D01*
X145413042Y-88111682D01*
G37*
D14*
%TD*%
%TO.P,C13,2*%
%TO.N,VSS*%
X145303240Y-88341200D03*
D13*
%TO.N,ANT*%
%TO.C,L1*%
G36*
X146647482Y-78063842D02*
G01*
X146657189Y-78065281D01*
X146666708Y-78067666D01*
X146675948Y-78070972D01*
X146684820Y-78075168D01*
X146693237Y-78080213D01*
X146701119Y-78086059D01*
X146708391Y-78092649D01*
X146714981Y-78099921D01*
X146720827Y-78107803D01*
X146725872Y-78116220D01*
X146730068Y-78125092D01*
X146733374Y-78134332D01*
X146735759Y-78143851D01*
X146737198Y-78153558D01*
X146737680Y-78163360D01*
X146737680Y-78423360D01*
X146737198Y-78433162D01*
X146735759Y-78442869D01*
X146733374Y-78452388D01*
X146730068Y-78461628D01*
X146725872Y-78470500D01*
X146720827Y-78478917D01*
X146714981Y-78486799D01*
X146708391Y-78494071D01*
X146701119Y-78500661D01*
X146693237Y-78506507D01*
X146684820Y-78511552D01*
X146675948Y-78515748D01*
X146666708Y-78519054D01*
X146657189Y-78521439D01*
X146647482Y-78522878D01*
X146637680Y-78523360D01*
X146437680Y-78523360D01*
X146427878Y-78522878D01*
X146418171Y-78521439D01*
X146408652Y-78519054D01*
X146399412Y-78515748D01*
X146390540Y-78511552D01*
X146382123Y-78506507D01*
X146374241Y-78500661D01*
X146366969Y-78494071D01*
X146360379Y-78486799D01*
X146354533Y-78478917D01*
X146349488Y-78470500D01*
X146345292Y-78461628D01*
X146341986Y-78452388D01*
X146339601Y-78442869D01*
X146338162Y-78433162D01*
X146337680Y-78423360D01*
X146337680Y-78163360D01*
X146338162Y-78153558D01*
X146339601Y-78143851D01*
X146341986Y-78134332D01*
X146345292Y-78125092D01*
X146349488Y-78116220D01*
X146354533Y-78107803D01*
X146360379Y-78099921D01*
X146366969Y-78092649D01*
X146374241Y-78086059D01*
X146382123Y-78080213D01*
X146390540Y-78075168D01*
X146399412Y-78070972D01*
X146408652Y-78067666D01*
X146418171Y-78065281D01*
X146427878Y-78063842D01*
X146437680Y-78063360D01*
X146637680Y-78063360D01*
X146647482Y-78063842D01*
X146647482Y-78063842D01*
G37*
D14*
%TD*%
%TO.P,L1,1*%
%TO.N,ANT*%
X146537680Y-78293360D03*
D13*
%TO.N,Net-(J4-Pad1)*%
%TO.C,L1*%
G36*
X146647482Y-77423842D02*
G01*
X146657189Y-77425281D01*
X146666708Y-77427666D01*
X146675948Y-77430972D01*
X146684820Y-77435168D01*
X146693237Y-77440213D01*
X146701119Y-77446059D01*
X146708391Y-77452649D01*
X146714981Y-77459921D01*
X146720827Y-77467803D01*
X146725872Y-77476220D01*
X146730068Y-77485092D01*
X146733374Y-77494332D01*
X146735759Y-77503851D01*
X146737198Y-77513558D01*
X146737680Y-77523360D01*
X146737680Y-77783360D01*
X146737198Y-77793162D01*
X146735759Y-77802869D01*
X146733374Y-77812388D01*
X146730068Y-77821628D01*
X146725872Y-77830500D01*
X146720827Y-77838917D01*
X146714981Y-77846799D01*
X146708391Y-77854071D01*
X146701119Y-77860661D01*
X146693237Y-77866507D01*
X146684820Y-77871552D01*
X146675948Y-77875748D01*
X146666708Y-77879054D01*
X146657189Y-77881439D01*
X146647482Y-77882878D01*
X146637680Y-77883360D01*
X146437680Y-77883360D01*
X146427878Y-77882878D01*
X146418171Y-77881439D01*
X146408652Y-77879054D01*
X146399412Y-77875748D01*
X146390540Y-77871552D01*
X146382123Y-77866507D01*
X146374241Y-77860661D01*
X146366969Y-77854071D01*
X146360379Y-77846799D01*
X146354533Y-77838917D01*
X146349488Y-77830500D01*
X146345292Y-77821628D01*
X146341986Y-77812388D01*
X146339601Y-77802869D01*
X146338162Y-77793162D01*
X146337680Y-77783360D01*
X146337680Y-77523360D01*
X146338162Y-77513558D01*
X146339601Y-77503851D01*
X146341986Y-77494332D01*
X146345292Y-77485092D01*
X146349488Y-77476220D01*
X146354533Y-77467803D01*
X146360379Y-77459921D01*
X146366969Y-77452649D01*
X146374241Y-77446059D01*
X146382123Y-77440213D01*
X146390540Y-77435168D01*
X146399412Y-77430972D01*
X146408652Y-77427666D01*
X146418171Y-77425281D01*
X146427878Y-77423842D01*
X146437680Y-77423360D01*
X146637680Y-77423360D01*
X146647482Y-77423842D01*
X146647482Y-77423842D01*
G37*
D14*
%TD*%
%TO.P,L1,2*%
%TO.N,Net-(J4-Pad1)*%
X146537680Y-77653360D03*
D13*
%TO.N,VSS*%
%TO.C,U1*%
G36*
X148444544Y-81119884D02*
G01*
X148468813Y-81123484D01*
X148492611Y-81129445D01*
X148515711Y-81137710D01*
X148537889Y-81148200D01*
X148558933Y-81160813D01*
X148578638Y-81175427D01*
X148596817Y-81191903D01*
X148613293Y-81210082D01*
X148627907Y-81229787D01*
X148640520Y-81250831D01*
X148651010Y-81273009D01*
X148659275Y-81296109D01*
X148665236Y-81319907D01*
X148668836Y-81344176D01*
X148670040Y-81368680D01*
X148670040Y-85468680D01*
X148668836Y-85493184D01*
X148665236Y-85517453D01*
X148659275Y-85541251D01*
X148651010Y-85564351D01*
X148640520Y-85586529D01*
X148627907Y-85607573D01*
X148613293Y-85627278D01*
X148596817Y-85645457D01*
X148578638Y-85661933D01*
X148558933Y-85676547D01*
X148537889Y-85689160D01*
X148515711Y-85699650D01*
X148492611Y-85707915D01*
X148468813Y-85713876D01*
X148444544Y-85717476D01*
X148420040Y-85718680D01*
X144320040Y-85718680D01*
X144295536Y-85717476D01*
X144271267Y-85713876D01*
X144247469Y-85707915D01*
X144224369Y-85699650D01*
X144202191Y-85689160D01*
X144181147Y-85676547D01*
X144161442Y-85661933D01*
X144143263Y-85645457D01*
X144126787Y-85627278D01*
X144112173Y-85607573D01*
X144099560Y-85586529D01*
X144089070Y-85564351D01*
X144080805Y-85541251D01*
X144074844Y-85517453D01*
X144071244Y-85493184D01*
X144070040Y-85468680D01*
X144070040Y-81368680D01*
X144071244Y-81344176D01*
X144074844Y-81319907D01*
X144080805Y-81296109D01*
X144089070Y-81273009D01*
X144099560Y-81250831D01*
X144112173Y-81229787D01*
X144126787Y-81210082D01*
X144143263Y-81191903D01*
X144161442Y-81175427D01*
X144181147Y-81160813D01*
X144202191Y-81148200D01*
X144224369Y-81137710D01*
X144247469Y-81129445D01*
X144271267Y-81123484D01*
X144295536Y-81119884D01*
X144320040Y-81118680D01*
X148420040Y-81118680D01*
X148444544Y-81119884D01*
X148444544Y-81119884D01*
G37*
D19*
%TD*%
%TO.P,U1,49*%
%TO.N,VSS*%
X146370040Y-83418680D03*
D13*
%TO.N,D1*%
%TO.C,U1*%
G36*
X144224941Y-85968921D02*
G01*
X144229795Y-85969641D01*
X144234554Y-85970833D01*
X144239174Y-85972486D01*
X144243610Y-85974584D01*
X144247819Y-85977107D01*
X144251760Y-85980029D01*
X144255395Y-85983325D01*
X144258691Y-85986960D01*
X144261613Y-85990901D01*
X144264136Y-85995110D01*
X144266234Y-85999546D01*
X144267887Y-86004166D01*
X144269079Y-86008925D01*
X144269799Y-86013779D01*
X144270040Y-86018680D01*
X144270040Y-86718680D01*
X144269799Y-86723581D01*
X144269079Y-86728435D01*
X144267887Y-86733194D01*
X144266234Y-86737814D01*
X144264136Y-86742250D01*
X144261613Y-86746459D01*
X144258691Y-86750400D01*
X144255395Y-86754035D01*
X144251760Y-86757331D01*
X144247819Y-86760253D01*
X144243610Y-86762776D01*
X144239174Y-86764874D01*
X144234554Y-86766527D01*
X144229795Y-86767719D01*
X144224941Y-86768439D01*
X144220040Y-86768680D01*
X144120040Y-86768680D01*
X144115139Y-86768439D01*
X144110285Y-86767719D01*
X144105526Y-86766527D01*
X144100906Y-86764874D01*
X144096470Y-86762776D01*
X144092261Y-86760253D01*
X144088320Y-86757331D01*
X144084685Y-86754035D01*
X144081389Y-86750400D01*
X144078467Y-86746459D01*
X144075944Y-86742250D01*
X144073846Y-86737814D01*
X144072193Y-86733194D01*
X144071001Y-86728435D01*
X144070281Y-86723581D01*
X144070040Y-86718680D01*
X144070040Y-86018680D01*
X144070281Y-86013779D01*
X144071001Y-86008925D01*
X144072193Y-86004166D01*
X144073846Y-85999546D01*
X144075944Y-85995110D01*
X144078467Y-85990901D01*
X144081389Y-85986960D01*
X144084685Y-85983325D01*
X144088320Y-85980029D01*
X144092261Y-85977107D01*
X144096470Y-85974584D01*
X144100906Y-85972486D01*
X144105526Y-85970833D01*
X144110285Y-85969641D01*
X144115139Y-85968921D01*
X144120040Y-85968680D01*
X144220040Y-85968680D01*
X144224941Y-85968921D01*
X144224941Y-85968921D01*
G37*
D20*
%TD*%
%TO.P,U1,1*%
%TO.N,D1*%
X144170040Y-86368680D03*
D13*
%TO.N,XL1*%
%TO.C,U1*%
G36*
X144624941Y-85968921D02*
G01*
X144629795Y-85969641D01*
X144634554Y-85970833D01*
X144639174Y-85972486D01*
X144643610Y-85974584D01*
X144647819Y-85977107D01*
X144651760Y-85980029D01*
X144655395Y-85983325D01*
X144658691Y-85986960D01*
X144661613Y-85990901D01*
X144664136Y-85995110D01*
X144666234Y-85999546D01*
X144667887Y-86004166D01*
X144669079Y-86008925D01*
X144669799Y-86013779D01*
X144670040Y-86018680D01*
X144670040Y-86718680D01*
X144669799Y-86723581D01*
X144669079Y-86728435D01*
X144667887Y-86733194D01*
X144666234Y-86737814D01*
X144664136Y-86742250D01*
X144661613Y-86746459D01*
X144658691Y-86750400D01*
X144655395Y-86754035D01*
X144651760Y-86757331D01*
X144647819Y-86760253D01*
X144643610Y-86762776D01*
X144639174Y-86764874D01*
X144634554Y-86766527D01*
X144629795Y-86767719D01*
X144624941Y-86768439D01*
X144620040Y-86768680D01*
X144520040Y-86768680D01*
X144515139Y-86768439D01*
X144510285Y-86767719D01*
X144505526Y-86766527D01*
X144500906Y-86764874D01*
X144496470Y-86762776D01*
X144492261Y-86760253D01*
X144488320Y-86757331D01*
X144484685Y-86754035D01*
X144481389Y-86750400D01*
X144478467Y-86746459D01*
X144475944Y-86742250D01*
X144473846Y-86737814D01*
X144472193Y-86733194D01*
X144471001Y-86728435D01*
X144470281Y-86723581D01*
X144470040Y-86718680D01*
X144470040Y-86018680D01*
X144470281Y-86013779D01*
X144471001Y-86008925D01*
X144472193Y-86004166D01*
X144473846Y-85999546D01*
X144475944Y-85995110D01*
X144478467Y-85990901D01*
X144481389Y-85986960D01*
X144484685Y-85983325D01*
X144488320Y-85980029D01*
X144492261Y-85977107D01*
X144496470Y-85974584D01*
X144500906Y-85972486D01*
X144505526Y-85970833D01*
X144510285Y-85969641D01*
X144515139Y-85968921D01*
X144520040Y-85968680D01*
X144620040Y-85968680D01*
X144624941Y-85968921D01*
X144624941Y-85968921D01*
G37*
D20*
%TD*%
%TO.P,U1,2*%
%TO.N,XL1*%
X144570040Y-86368680D03*
D13*
%TO.N,XL2*%
%TO.C,U1*%
G36*
X145024941Y-85968921D02*
G01*
X145029795Y-85969641D01*
X145034554Y-85970833D01*
X145039174Y-85972486D01*
X145043610Y-85974584D01*
X145047819Y-85977107D01*
X145051760Y-85980029D01*
X145055395Y-85983325D01*
X145058691Y-85986960D01*
X145061613Y-85990901D01*
X145064136Y-85995110D01*
X145066234Y-85999546D01*
X145067887Y-86004166D01*
X145069079Y-86008925D01*
X145069799Y-86013779D01*
X145070040Y-86018680D01*
X145070040Y-86718680D01*
X145069799Y-86723581D01*
X145069079Y-86728435D01*
X145067887Y-86733194D01*
X145066234Y-86737814D01*
X145064136Y-86742250D01*
X145061613Y-86746459D01*
X145058691Y-86750400D01*
X145055395Y-86754035D01*
X145051760Y-86757331D01*
X145047819Y-86760253D01*
X145043610Y-86762776D01*
X145039174Y-86764874D01*
X145034554Y-86766527D01*
X145029795Y-86767719D01*
X145024941Y-86768439D01*
X145020040Y-86768680D01*
X144920040Y-86768680D01*
X144915139Y-86768439D01*
X144910285Y-86767719D01*
X144905526Y-86766527D01*
X144900906Y-86764874D01*
X144896470Y-86762776D01*
X144892261Y-86760253D01*
X144888320Y-86757331D01*
X144884685Y-86754035D01*
X144881389Y-86750400D01*
X144878467Y-86746459D01*
X144875944Y-86742250D01*
X144873846Y-86737814D01*
X144872193Y-86733194D01*
X144871001Y-86728435D01*
X144870281Y-86723581D01*
X144870040Y-86718680D01*
X144870040Y-86018680D01*
X144870281Y-86013779D01*
X144871001Y-86008925D01*
X144872193Y-86004166D01*
X144873846Y-85999546D01*
X144875944Y-85995110D01*
X144878467Y-85990901D01*
X144881389Y-85986960D01*
X144884685Y-85983325D01*
X144888320Y-85980029D01*
X144892261Y-85977107D01*
X144896470Y-85974584D01*
X144900906Y-85972486D01*
X144905526Y-85970833D01*
X144910285Y-85969641D01*
X144915139Y-85968921D01*
X144920040Y-85968680D01*
X145020040Y-85968680D01*
X145024941Y-85968921D01*
X145024941Y-85968921D01*
G37*
D20*
%TD*%
%TO.P,U1,3*%
%TO.N,XL2*%
X144970040Y-86368680D03*
D13*
%TO.N,Net-(U1-Pad4)*%
%TO.C,U1*%
G36*
X145424941Y-85968921D02*
G01*
X145429795Y-85969641D01*
X145434554Y-85970833D01*
X145439174Y-85972486D01*
X145443610Y-85974584D01*
X145447819Y-85977107D01*
X145451760Y-85980029D01*
X145455395Y-85983325D01*
X145458691Y-85986960D01*
X145461613Y-85990901D01*
X145464136Y-85995110D01*
X145466234Y-85999546D01*
X145467887Y-86004166D01*
X145469079Y-86008925D01*
X145469799Y-86013779D01*
X145470040Y-86018680D01*
X145470040Y-86718680D01*
X145469799Y-86723581D01*
X145469079Y-86728435D01*
X145467887Y-86733194D01*
X145466234Y-86737814D01*
X145464136Y-86742250D01*
X145461613Y-86746459D01*
X145458691Y-86750400D01*
X145455395Y-86754035D01*
X145451760Y-86757331D01*
X145447819Y-86760253D01*
X145443610Y-86762776D01*
X145439174Y-86764874D01*
X145434554Y-86766527D01*
X145429795Y-86767719D01*
X145424941Y-86768439D01*
X145420040Y-86768680D01*
X145320040Y-86768680D01*
X145315139Y-86768439D01*
X145310285Y-86767719D01*
X145305526Y-86766527D01*
X145300906Y-86764874D01*
X145296470Y-86762776D01*
X145292261Y-86760253D01*
X145288320Y-86757331D01*
X145284685Y-86754035D01*
X145281389Y-86750400D01*
X145278467Y-86746459D01*
X145275944Y-86742250D01*
X145273846Y-86737814D01*
X145272193Y-86733194D01*
X145271001Y-86728435D01*
X145270281Y-86723581D01*
X145270040Y-86718680D01*
X145270040Y-86018680D01*
X145270281Y-86013779D01*
X145271001Y-86008925D01*
X145272193Y-86004166D01*
X145273846Y-85999546D01*
X145275944Y-85995110D01*
X145278467Y-85990901D01*
X145281389Y-85986960D01*
X145284685Y-85983325D01*
X145288320Y-85980029D01*
X145292261Y-85977107D01*
X145296470Y-85974584D01*
X145300906Y-85972486D01*
X145305526Y-85970833D01*
X145310285Y-85969641D01*
X145315139Y-85968921D01*
X145320040Y-85968680D01*
X145420040Y-85968680D01*
X145424941Y-85968921D01*
X145424941Y-85968921D01*
G37*
D20*
%TD*%
%TO.P,U1,4*%
%TO.N,Net-(U1-Pad4)*%
X145370040Y-86368680D03*
D13*
%TO.N,Net-(U1-Pad5)*%
%TO.C,U1*%
G36*
X145824941Y-85968921D02*
G01*
X145829795Y-85969641D01*
X145834554Y-85970833D01*
X145839174Y-85972486D01*
X145843610Y-85974584D01*
X145847819Y-85977107D01*
X145851760Y-85980029D01*
X145855395Y-85983325D01*
X145858691Y-85986960D01*
X145861613Y-85990901D01*
X145864136Y-85995110D01*
X145866234Y-85999546D01*
X145867887Y-86004166D01*
X145869079Y-86008925D01*
X145869799Y-86013779D01*
X145870040Y-86018680D01*
X145870040Y-86718680D01*
X145869799Y-86723581D01*
X145869079Y-86728435D01*
X145867887Y-86733194D01*
X145866234Y-86737814D01*
X145864136Y-86742250D01*
X145861613Y-86746459D01*
X145858691Y-86750400D01*
X145855395Y-86754035D01*
X145851760Y-86757331D01*
X145847819Y-86760253D01*
X145843610Y-86762776D01*
X145839174Y-86764874D01*
X145834554Y-86766527D01*
X145829795Y-86767719D01*
X145824941Y-86768439D01*
X145820040Y-86768680D01*
X145720040Y-86768680D01*
X145715139Y-86768439D01*
X145710285Y-86767719D01*
X145705526Y-86766527D01*
X145700906Y-86764874D01*
X145696470Y-86762776D01*
X145692261Y-86760253D01*
X145688320Y-86757331D01*
X145684685Y-86754035D01*
X145681389Y-86750400D01*
X145678467Y-86746459D01*
X145675944Y-86742250D01*
X145673846Y-86737814D01*
X145672193Y-86733194D01*
X145671001Y-86728435D01*
X145670281Y-86723581D01*
X145670040Y-86718680D01*
X145670040Y-86018680D01*
X145670281Y-86013779D01*
X145671001Y-86008925D01*
X145672193Y-86004166D01*
X145673846Y-85999546D01*
X145675944Y-85995110D01*
X145678467Y-85990901D01*
X145681389Y-85986960D01*
X145684685Y-85983325D01*
X145688320Y-85980029D01*
X145692261Y-85977107D01*
X145696470Y-85974584D01*
X145700906Y-85972486D01*
X145705526Y-85970833D01*
X145710285Y-85969641D01*
X145715139Y-85968921D01*
X145720040Y-85968680D01*
X145820040Y-85968680D01*
X145824941Y-85968921D01*
X145824941Y-85968921D01*
G37*
D20*
%TD*%
%TO.P,U1,5*%
%TO.N,Net-(U1-Pad5)*%
X145770040Y-86368680D03*
D13*
%TO.N,Net-(U1-Pad6)*%
%TO.C,U1*%
G36*
X146224941Y-85968921D02*
G01*
X146229795Y-85969641D01*
X146234554Y-85970833D01*
X146239174Y-85972486D01*
X146243610Y-85974584D01*
X146247819Y-85977107D01*
X146251760Y-85980029D01*
X146255395Y-85983325D01*
X146258691Y-85986960D01*
X146261613Y-85990901D01*
X146264136Y-85995110D01*
X146266234Y-85999546D01*
X146267887Y-86004166D01*
X146269079Y-86008925D01*
X146269799Y-86013779D01*
X146270040Y-86018680D01*
X146270040Y-86718680D01*
X146269799Y-86723581D01*
X146269079Y-86728435D01*
X146267887Y-86733194D01*
X146266234Y-86737814D01*
X146264136Y-86742250D01*
X146261613Y-86746459D01*
X146258691Y-86750400D01*
X146255395Y-86754035D01*
X146251760Y-86757331D01*
X146247819Y-86760253D01*
X146243610Y-86762776D01*
X146239174Y-86764874D01*
X146234554Y-86766527D01*
X146229795Y-86767719D01*
X146224941Y-86768439D01*
X146220040Y-86768680D01*
X146120040Y-86768680D01*
X146115139Y-86768439D01*
X146110285Y-86767719D01*
X146105526Y-86766527D01*
X146100906Y-86764874D01*
X146096470Y-86762776D01*
X146092261Y-86760253D01*
X146088320Y-86757331D01*
X146084685Y-86754035D01*
X146081389Y-86750400D01*
X146078467Y-86746459D01*
X146075944Y-86742250D01*
X146073846Y-86737814D01*
X146072193Y-86733194D01*
X146071001Y-86728435D01*
X146070281Y-86723581D01*
X146070040Y-86718680D01*
X146070040Y-86018680D01*
X146070281Y-86013779D01*
X146071001Y-86008925D01*
X146072193Y-86004166D01*
X146073846Y-85999546D01*
X146075944Y-85995110D01*
X146078467Y-85990901D01*
X146081389Y-85986960D01*
X146084685Y-85983325D01*
X146088320Y-85980029D01*
X146092261Y-85977107D01*
X146096470Y-85974584D01*
X146100906Y-85972486D01*
X146105526Y-85970833D01*
X146110285Y-85969641D01*
X146115139Y-85968921D01*
X146120040Y-85968680D01*
X146220040Y-85968680D01*
X146224941Y-85968921D01*
X146224941Y-85968921D01*
G37*
D20*
%TD*%
%TO.P,U1,6*%
%TO.N,Net-(U1-Pad6)*%
X146170040Y-86368680D03*
D13*
%TO.N,0.05_RTS*%
%TO.C,U1*%
G36*
X146624941Y-85968921D02*
G01*
X146629795Y-85969641D01*
X146634554Y-85970833D01*
X146639174Y-85972486D01*
X146643610Y-85974584D01*
X146647819Y-85977107D01*
X146651760Y-85980029D01*
X146655395Y-85983325D01*
X146658691Y-85986960D01*
X146661613Y-85990901D01*
X146664136Y-85995110D01*
X146666234Y-85999546D01*
X146667887Y-86004166D01*
X146669079Y-86008925D01*
X146669799Y-86013779D01*
X146670040Y-86018680D01*
X146670040Y-86718680D01*
X146669799Y-86723581D01*
X146669079Y-86728435D01*
X146667887Y-86733194D01*
X146666234Y-86737814D01*
X146664136Y-86742250D01*
X146661613Y-86746459D01*
X146658691Y-86750400D01*
X146655395Y-86754035D01*
X146651760Y-86757331D01*
X146647819Y-86760253D01*
X146643610Y-86762776D01*
X146639174Y-86764874D01*
X146634554Y-86766527D01*
X146629795Y-86767719D01*
X146624941Y-86768439D01*
X146620040Y-86768680D01*
X146520040Y-86768680D01*
X146515139Y-86768439D01*
X146510285Y-86767719D01*
X146505526Y-86766527D01*
X146500906Y-86764874D01*
X146496470Y-86762776D01*
X146492261Y-86760253D01*
X146488320Y-86757331D01*
X146484685Y-86754035D01*
X146481389Y-86750400D01*
X146478467Y-86746459D01*
X146475944Y-86742250D01*
X146473846Y-86737814D01*
X146472193Y-86733194D01*
X146471001Y-86728435D01*
X146470281Y-86723581D01*
X146470040Y-86718680D01*
X146470040Y-86018680D01*
X146470281Y-86013779D01*
X146471001Y-86008925D01*
X146472193Y-86004166D01*
X146473846Y-85999546D01*
X146475944Y-85995110D01*
X146478467Y-85990901D01*
X146481389Y-85986960D01*
X146484685Y-85983325D01*
X146488320Y-85980029D01*
X146492261Y-85977107D01*
X146496470Y-85974584D01*
X146500906Y-85972486D01*
X146505526Y-85970833D01*
X146510285Y-85969641D01*
X146515139Y-85968921D01*
X146520040Y-85968680D01*
X146620040Y-85968680D01*
X146624941Y-85968921D01*
X146624941Y-85968921D01*
G37*
D20*
%TD*%
%TO.P,U1,7*%
%TO.N,0.05_RTS*%
X146570040Y-86368680D03*
D13*
%TO.N,0.06_TX*%
%TO.C,U1*%
G36*
X147024941Y-85968921D02*
G01*
X147029795Y-85969641D01*
X147034554Y-85970833D01*
X147039174Y-85972486D01*
X147043610Y-85974584D01*
X147047819Y-85977107D01*
X147051760Y-85980029D01*
X147055395Y-85983325D01*
X147058691Y-85986960D01*
X147061613Y-85990901D01*
X147064136Y-85995110D01*
X147066234Y-85999546D01*
X147067887Y-86004166D01*
X147069079Y-86008925D01*
X147069799Y-86013779D01*
X147070040Y-86018680D01*
X147070040Y-86718680D01*
X147069799Y-86723581D01*
X147069079Y-86728435D01*
X147067887Y-86733194D01*
X147066234Y-86737814D01*
X147064136Y-86742250D01*
X147061613Y-86746459D01*
X147058691Y-86750400D01*
X147055395Y-86754035D01*
X147051760Y-86757331D01*
X147047819Y-86760253D01*
X147043610Y-86762776D01*
X147039174Y-86764874D01*
X147034554Y-86766527D01*
X147029795Y-86767719D01*
X147024941Y-86768439D01*
X147020040Y-86768680D01*
X146920040Y-86768680D01*
X146915139Y-86768439D01*
X146910285Y-86767719D01*
X146905526Y-86766527D01*
X146900906Y-86764874D01*
X146896470Y-86762776D01*
X146892261Y-86760253D01*
X146888320Y-86757331D01*
X146884685Y-86754035D01*
X146881389Y-86750400D01*
X146878467Y-86746459D01*
X146875944Y-86742250D01*
X146873846Y-86737814D01*
X146872193Y-86733194D01*
X146871001Y-86728435D01*
X146870281Y-86723581D01*
X146870040Y-86718680D01*
X146870040Y-86018680D01*
X146870281Y-86013779D01*
X146871001Y-86008925D01*
X146872193Y-86004166D01*
X146873846Y-85999546D01*
X146875944Y-85995110D01*
X146878467Y-85990901D01*
X146881389Y-85986960D01*
X146884685Y-85983325D01*
X146888320Y-85980029D01*
X146892261Y-85977107D01*
X146896470Y-85974584D01*
X146900906Y-85972486D01*
X146905526Y-85970833D01*
X146910285Y-85969641D01*
X146915139Y-85968921D01*
X146920040Y-85968680D01*
X147020040Y-85968680D01*
X147024941Y-85968921D01*
X147024941Y-85968921D01*
G37*
D20*
%TD*%
%TO.P,U1,8*%
%TO.N,0.06_TX*%
X146970040Y-86368680D03*
D13*
%TO.N,0.07_CTS*%
%TO.C,U1*%
G36*
X147424941Y-85968921D02*
G01*
X147429795Y-85969641D01*
X147434554Y-85970833D01*
X147439174Y-85972486D01*
X147443610Y-85974584D01*
X147447819Y-85977107D01*
X147451760Y-85980029D01*
X147455395Y-85983325D01*
X147458691Y-85986960D01*
X147461613Y-85990901D01*
X147464136Y-85995110D01*
X147466234Y-85999546D01*
X147467887Y-86004166D01*
X147469079Y-86008925D01*
X147469799Y-86013779D01*
X147470040Y-86018680D01*
X147470040Y-86718680D01*
X147469799Y-86723581D01*
X147469079Y-86728435D01*
X147467887Y-86733194D01*
X147466234Y-86737814D01*
X147464136Y-86742250D01*
X147461613Y-86746459D01*
X147458691Y-86750400D01*
X147455395Y-86754035D01*
X147451760Y-86757331D01*
X147447819Y-86760253D01*
X147443610Y-86762776D01*
X147439174Y-86764874D01*
X147434554Y-86766527D01*
X147429795Y-86767719D01*
X147424941Y-86768439D01*
X147420040Y-86768680D01*
X147320040Y-86768680D01*
X147315139Y-86768439D01*
X147310285Y-86767719D01*
X147305526Y-86766527D01*
X147300906Y-86764874D01*
X147296470Y-86762776D01*
X147292261Y-86760253D01*
X147288320Y-86757331D01*
X147284685Y-86754035D01*
X147281389Y-86750400D01*
X147278467Y-86746459D01*
X147275944Y-86742250D01*
X147273846Y-86737814D01*
X147272193Y-86733194D01*
X147271001Y-86728435D01*
X147270281Y-86723581D01*
X147270040Y-86718680D01*
X147270040Y-86018680D01*
X147270281Y-86013779D01*
X147271001Y-86008925D01*
X147272193Y-86004166D01*
X147273846Y-85999546D01*
X147275944Y-85995110D01*
X147278467Y-85990901D01*
X147281389Y-85986960D01*
X147284685Y-85983325D01*
X147288320Y-85980029D01*
X147292261Y-85977107D01*
X147296470Y-85974584D01*
X147300906Y-85972486D01*
X147305526Y-85970833D01*
X147310285Y-85969641D01*
X147315139Y-85968921D01*
X147320040Y-85968680D01*
X147420040Y-85968680D01*
X147424941Y-85968921D01*
X147424941Y-85968921D01*
G37*
D20*
%TD*%
%TO.P,U1,9*%
%TO.N,0.07_CTS*%
X147370040Y-86368680D03*
D13*
%TO.N,0.08_RX*%
%TO.C,U1*%
G36*
X147824941Y-85968921D02*
G01*
X147829795Y-85969641D01*
X147834554Y-85970833D01*
X147839174Y-85972486D01*
X147843610Y-85974584D01*
X147847819Y-85977107D01*
X147851760Y-85980029D01*
X147855395Y-85983325D01*
X147858691Y-85986960D01*
X147861613Y-85990901D01*
X147864136Y-85995110D01*
X147866234Y-85999546D01*
X147867887Y-86004166D01*
X147869079Y-86008925D01*
X147869799Y-86013779D01*
X147870040Y-86018680D01*
X147870040Y-86718680D01*
X147869799Y-86723581D01*
X147869079Y-86728435D01*
X147867887Y-86733194D01*
X147866234Y-86737814D01*
X147864136Y-86742250D01*
X147861613Y-86746459D01*
X147858691Y-86750400D01*
X147855395Y-86754035D01*
X147851760Y-86757331D01*
X147847819Y-86760253D01*
X147843610Y-86762776D01*
X147839174Y-86764874D01*
X147834554Y-86766527D01*
X147829795Y-86767719D01*
X147824941Y-86768439D01*
X147820040Y-86768680D01*
X147720040Y-86768680D01*
X147715139Y-86768439D01*
X147710285Y-86767719D01*
X147705526Y-86766527D01*
X147700906Y-86764874D01*
X147696470Y-86762776D01*
X147692261Y-86760253D01*
X147688320Y-86757331D01*
X147684685Y-86754035D01*
X147681389Y-86750400D01*
X147678467Y-86746459D01*
X147675944Y-86742250D01*
X147673846Y-86737814D01*
X147672193Y-86733194D01*
X147671001Y-86728435D01*
X147670281Y-86723581D01*
X147670040Y-86718680D01*
X147670040Y-86018680D01*
X147670281Y-86013779D01*
X147671001Y-86008925D01*
X147672193Y-86004166D01*
X147673846Y-85999546D01*
X147675944Y-85995110D01*
X147678467Y-85990901D01*
X147681389Y-85986960D01*
X147684685Y-85983325D01*
X147688320Y-85980029D01*
X147692261Y-85977107D01*
X147696470Y-85974584D01*
X147700906Y-85972486D01*
X147705526Y-85970833D01*
X147710285Y-85969641D01*
X147715139Y-85968921D01*
X147720040Y-85968680D01*
X147820040Y-85968680D01*
X147824941Y-85968921D01*
X147824941Y-85968921D01*
G37*
D20*
%TD*%
%TO.P,U1,10*%
%TO.N,0.08_RX*%
X147770040Y-86368680D03*
D13*
%TO.N,Net-(U1-Pad11)*%
%TO.C,U1*%
G36*
X148224941Y-85968921D02*
G01*
X148229795Y-85969641D01*
X148234554Y-85970833D01*
X148239174Y-85972486D01*
X148243610Y-85974584D01*
X148247819Y-85977107D01*
X148251760Y-85980029D01*
X148255395Y-85983325D01*
X148258691Y-85986960D01*
X148261613Y-85990901D01*
X148264136Y-85995110D01*
X148266234Y-85999546D01*
X148267887Y-86004166D01*
X148269079Y-86008925D01*
X148269799Y-86013779D01*
X148270040Y-86018680D01*
X148270040Y-86718680D01*
X148269799Y-86723581D01*
X148269079Y-86728435D01*
X148267887Y-86733194D01*
X148266234Y-86737814D01*
X148264136Y-86742250D01*
X148261613Y-86746459D01*
X148258691Y-86750400D01*
X148255395Y-86754035D01*
X148251760Y-86757331D01*
X148247819Y-86760253D01*
X148243610Y-86762776D01*
X148239174Y-86764874D01*
X148234554Y-86766527D01*
X148229795Y-86767719D01*
X148224941Y-86768439D01*
X148220040Y-86768680D01*
X148120040Y-86768680D01*
X148115139Y-86768439D01*
X148110285Y-86767719D01*
X148105526Y-86766527D01*
X148100906Y-86764874D01*
X148096470Y-86762776D01*
X148092261Y-86760253D01*
X148088320Y-86757331D01*
X148084685Y-86754035D01*
X148081389Y-86750400D01*
X148078467Y-86746459D01*
X148075944Y-86742250D01*
X148073846Y-86737814D01*
X148072193Y-86733194D01*
X148071001Y-86728435D01*
X148070281Y-86723581D01*
X148070040Y-86718680D01*
X148070040Y-86018680D01*
X148070281Y-86013779D01*
X148071001Y-86008925D01*
X148072193Y-86004166D01*
X148073846Y-85999546D01*
X148075944Y-85995110D01*
X148078467Y-85990901D01*
X148081389Y-85986960D01*
X148084685Y-85983325D01*
X148088320Y-85980029D01*
X148092261Y-85977107D01*
X148096470Y-85974584D01*
X148100906Y-85972486D01*
X148105526Y-85970833D01*
X148110285Y-85969641D01*
X148115139Y-85968921D01*
X148120040Y-85968680D01*
X148220040Y-85968680D01*
X148224941Y-85968921D01*
X148224941Y-85968921D01*
G37*
D20*
%TD*%
%TO.P,U1,11*%
%TO.N,Net-(U1-Pad11)*%
X148170040Y-86368680D03*
D13*
%TO.N,Net-(U1-Pad12)*%
%TO.C,U1*%
G36*
X148624941Y-85968921D02*
G01*
X148629795Y-85969641D01*
X148634554Y-85970833D01*
X148639174Y-85972486D01*
X148643610Y-85974584D01*
X148647819Y-85977107D01*
X148651760Y-85980029D01*
X148655395Y-85983325D01*
X148658691Y-85986960D01*
X148661613Y-85990901D01*
X148664136Y-85995110D01*
X148666234Y-85999546D01*
X148667887Y-86004166D01*
X148669079Y-86008925D01*
X148669799Y-86013779D01*
X148670040Y-86018680D01*
X148670040Y-86718680D01*
X148669799Y-86723581D01*
X148669079Y-86728435D01*
X148667887Y-86733194D01*
X148666234Y-86737814D01*
X148664136Y-86742250D01*
X148661613Y-86746459D01*
X148658691Y-86750400D01*
X148655395Y-86754035D01*
X148651760Y-86757331D01*
X148647819Y-86760253D01*
X148643610Y-86762776D01*
X148639174Y-86764874D01*
X148634554Y-86766527D01*
X148629795Y-86767719D01*
X148624941Y-86768439D01*
X148620040Y-86768680D01*
X148520040Y-86768680D01*
X148515139Y-86768439D01*
X148510285Y-86767719D01*
X148505526Y-86766527D01*
X148500906Y-86764874D01*
X148496470Y-86762776D01*
X148492261Y-86760253D01*
X148488320Y-86757331D01*
X148484685Y-86754035D01*
X148481389Y-86750400D01*
X148478467Y-86746459D01*
X148475944Y-86742250D01*
X148473846Y-86737814D01*
X148472193Y-86733194D01*
X148471001Y-86728435D01*
X148470281Y-86723581D01*
X148470040Y-86718680D01*
X148470040Y-86018680D01*
X148470281Y-86013779D01*
X148471001Y-86008925D01*
X148472193Y-86004166D01*
X148473846Y-85999546D01*
X148475944Y-85995110D01*
X148478467Y-85990901D01*
X148481389Y-85986960D01*
X148484685Y-85983325D01*
X148488320Y-85980029D01*
X148492261Y-85977107D01*
X148496470Y-85974584D01*
X148500906Y-85972486D01*
X148505526Y-85970833D01*
X148510285Y-85969641D01*
X148515139Y-85968921D01*
X148520040Y-85968680D01*
X148620040Y-85968680D01*
X148624941Y-85968921D01*
X148624941Y-85968921D01*
G37*
D20*
%TD*%
%TO.P,U1,12*%
%TO.N,Net-(U1-Pad12)*%
X148570040Y-86368680D03*
D13*
%TO.N,VDD*%
%TO.C,U1*%
G36*
X149674941Y-85518921D02*
G01*
X149679795Y-85519641D01*
X149684554Y-85520833D01*
X149689174Y-85522486D01*
X149693610Y-85524584D01*
X149697819Y-85527107D01*
X149701760Y-85530029D01*
X149705395Y-85533325D01*
X149708691Y-85536960D01*
X149711613Y-85540901D01*
X149714136Y-85545110D01*
X149716234Y-85549546D01*
X149717887Y-85554166D01*
X149719079Y-85558925D01*
X149719799Y-85563779D01*
X149720040Y-85568680D01*
X149720040Y-85668680D01*
X149719799Y-85673581D01*
X149719079Y-85678435D01*
X149717887Y-85683194D01*
X149716234Y-85687814D01*
X149714136Y-85692250D01*
X149711613Y-85696459D01*
X149708691Y-85700400D01*
X149705395Y-85704035D01*
X149701760Y-85707331D01*
X149697819Y-85710253D01*
X149693610Y-85712776D01*
X149689174Y-85714874D01*
X149684554Y-85716527D01*
X149679795Y-85717719D01*
X149674941Y-85718439D01*
X149670040Y-85718680D01*
X148970040Y-85718680D01*
X148965139Y-85718439D01*
X148960285Y-85717719D01*
X148955526Y-85716527D01*
X148950906Y-85714874D01*
X148946470Y-85712776D01*
X148942261Y-85710253D01*
X148938320Y-85707331D01*
X148934685Y-85704035D01*
X148931389Y-85700400D01*
X148928467Y-85696459D01*
X148925944Y-85692250D01*
X148923846Y-85687814D01*
X148922193Y-85683194D01*
X148921001Y-85678435D01*
X148920281Y-85673581D01*
X148920040Y-85668680D01*
X148920040Y-85568680D01*
X148920281Y-85563779D01*
X148921001Y-85558925D01*
X148922193Y-85554166D01*
X148923846Y-85549546D01*
X148925944Y-85545110D01*
X148928467Y-85540901D01*
X148931389Y-85536960D01*
X148934685Y-85533325D01*
X148938320Y-85530029D01*
X148942261Y-85527107D01*
X148946470Y-85524584D01*
X148950906Y-85522486D01*
X148955526Y-85520833D01*
X148960285Y-85519641D01*
X148965139Y-85518921D01*
X148970040Y-85518680D01*
X149670040Y-85518680D01*
X149674941Y-85518921D01*
X149674941Y-85518921D01*
G37*
D20*
%TD*%
%TO.P,U1,13*%
%TO.N,VDD*%
X149320040Y-85618680D03*
D13*
%TO.N,Net-(U1-Pad14)*%
%TO.C,U1*%
G36*
X149674941Y-85118921D02*
G01*
X149679795Y-85119641D01*
X149684554Y-85120833D01*
X149689174Y-85122486D01*
X149693610Y-85124584D01*
X149697819Y-85127107D01*
X149701760Y-85130029D01*
X149705395Y-85133325D01*
X149708691Y-85136960D01*
X149711613Y-85140901D01*
X149714136Y-85145110D01*
X149716234Y-85149546D01*
X149717887Y-85154166D01*
X149719079Y-85158925D01*
X149719799Y-85163779D01*
X149720040Y-85168680D01*
X149720040Y-85268680D01*
X149719799Y-85273581D01*
X149719079Y-85278435D01*
X149717887Y-85283194D01*
X149716234Y-85287814D01*
X149714136Y-85292250D01*
X149711613Y-85296459D01*
X149708691Y-85300400D01*
X149705395Y-85304035D01*
X149701760Y-85307331D01*
X149697819Y-85310253D01*
X149693610Y-85312776D01*
X149689174Y-85314874D01*
X149684554Y-85316527D01*
X149679795Y-85317719D01*
X149674941Y-85318439D01*
X149670040Y-85318680D01*
X148970040Y-85318680D01*
X148965139Y-85318439D01*
X148960285Y-85317719D01*
X148955526Y-85316527D01*
X148950906Y-85314874D01*
X148946470Y-85312776D01*
X148942261Y-85310253D01*
X148938320Y-85307331D01*
X148934685Y-85304035D01*
X148931389Y-85300400D01*
X148928467Y-85296459D01*
X148925944Y-85292250D01*
X148923846Y-85287814D01*
X148922193Y-85283194D01*
X148921001Y-85278435D01*
X148920281Y-85273581D01*
X148920040Y-85268680D01*
X148920040Y-85168680D01*
X148920281Y-85163779D01*
X148921001Y-85158925D01*
X148922193Y-85154166D01*
X148923846Y-85149546D01*
X148925944Y-85145110D01*
X148928467Y-85140901D01*
X148931389Y-85136960D01*
X148934685Y-85133325D01*
X148938320Y-85130029D01*
X148942261Y-85127107D01*
X148946470Y-85124584D01*
X148950906Y-85122486D01*
X148955526Y-85120833D01*
X148960285Y-85119641D01*
X148965139Y-85118921D01*
X148970040Y-85118680D01*
X149670040Y-85118680D01*
X149674941Y-85118921D01*
X149674941Y-85118921D01*
G37*
D20*
%TD*%
%TO.P,U1,14*%
%TO.N,Net-(U1-Pad14)*%
X149320040Y-85218680D03*
D13*
%TO.N,Net-(U1-Pad15)*%
%TO.C,U1*%
G36*
X149674941Y-84718921D02*
G01*
X149679795Y-84719641D01*
X149684554Y-84720833D01*
X149689174Y-84722486D01*
X149693610Y-84724584D01*
X149697819Y-84727107D01*
X149701760Y-84730029D01*
X149705395Y-84733325D01*
X149708691Y-84736960D01*
X149711613Y-84740901D01*
X149714136Y-84745110D01*
X149716234Y-84749546D01*
X149717887Y-84754166D01*
X149719079Y-84758925D01*
X149719799Y-84763779D01*
X149720040Y-84768680D01*
X149720040Y-84868680D01*
X149719799Y-84873581D01*
X149719079Y-84878435D01*
X149717887Y-84883194D01*
X149716234Y-84887814D01*
X149714136Y-84892250D01*
X149711613Y-84896459D01*
X149708691Y-84900400D01*
X149705395Y-84904035D01*
X149701760Y-84907331D01*
X149697819Y-84910253D01*
X149693610Y-84912776D01*
X149689174Y-84914874D01*
X149684554Y-84916527D01*
X149679795Y-84917719D01*
X149674941Y-84918439D01*
X149670040Y-84918680D01*
X148970040Y-84918680D01*
X148965139Y-84918439D01*
X148960285Y-84917719D01*
X148955526Y-84916527D01*
X148950906Y-84914874D01*
X148946470Y-84912776D01*
X148942261Y-84910253D01*
X148938320Y-84907331D01*
X148934685Y-84904035D01*
X148931389Y-84900400D01*
X148928467Y-84896459D01*
X148925944Y-84892250D01*
X148923846Y-84887814D01*
X148922193Y-84883194D01*
X148921001Y-84878435D01*
X148920281Y-84873581D01*
X148920040Y-84868680D01*
X148920040Y-84768680D01*
X148920281Y-84763779D01*
X148921001Y-84758925D01*
X148922193Y-84754166D01*
X148923846Y-84749546D01*
X148925944Y-84745110D01*
X148928467Y-84740901D01*
X148931389Y-84736960D01*
X148934685Y-84733325D01*
X148938320Y-84730029D01*
X148942261Y-84727107D01*
X148946470Y-84724584D01*
X148950906Y-84722486D01*
X148955526Y-84720833D01*
X148960285Y-84719641D01*
X148965139Y-84718921D01*
X148970040Y-84718680D01*
X149670040Y-84718680D01*
X149674941Y-84718921D01*
X149674941Y-84718921D01*
G37*
D20*
%TD*%
%TO.P,U1,15*%
%TO.N,Net-(U1-Pad15)*%
X149320040Y-84818680D03*
D13*
%TO.N,Net-(U1-Pad16)*%
%TO.C,U1*%
G36*
X149674941Y-84318921D02*
G01*
X149679795Y-84319641D01*
X149684554Y-84320833D01*
X149689174Y-84322486D01*
X149693610Y-84324584D01*
X149697819Y-84327107D01*
X149701760Y-84330029D01*
X149705395Y-84333325D01*
X149708691Y-84336960D01*
X149711613Y-84340901D01*
X149714136Y-84345110D01*
X149716234Y-84349546D01*
X149717887Y-84354166D01*
X149719079Y-84358925D01*
X149719799Y-84363779D01*
X149720040Y-84368680D01*
X149720040Y-84468680D01*
X149719799Y-84473581D01*
X149719079Y-84478435D01*
X149717887Y-84483194D01*
X149716234Y-84487814D01*
X149714136Y-84492250D01*
X149711613Y-84496459D01*
X149708691Y-84500400D01*
X149705395Y-84504035D01*
X149701760Y-84507331D01*
X149697819Y-84510253D01*
X149693610Y-84512776D01*
X149689174Y-84514874D01*
X149684554Y-84516527D01*
X149679795Y-84517719D01*
X149674941Y-84518439D01*
X149670040Y-84518680D01*
X148970040Y-84518680D01*
X148965139Y-84518439D01*
X148960285Y-84517719D01*
X148955526Y-84516527D01*
X148950906Y-84514874D01*
X148946470Y-84512776D01*
X148942261Y-84510253D01*
X148938320Y-84507331D01*
X148934685Y-84504035D01*
X148931389Y-84500400D01*
X148928467Y-84496459D01*
X148925944Y-84492250D01*
X148923846Y-84487814D01*
X148922193Y-84483194D01*
X148921001Y-84478435D01*
X148920281Y-84473581D01*
X148920040Y-84468680D01*
X148920040Y-84368680D01*
X148920281Y-84363779D01*
X148921001Y-84358925D01*
X148922193Y-84354166D01*
X148923846Y-84349546D01*
X148925944Y-84345110D01*
X148928467Y-84340901D01*
X148931389Y-84336960D01*
X148934685Y-84333325D01*
X148938320Y-84330029D01*
X148942261Y-84327107D01*
X148946470Y-84324584D01*
X148950906Y-84322486D01*
X148955526Y-84320833D01*
X148960285Y-84319641D01*
X148965139Y-84318921D01*
X148970040Y-84318680D01*
X149670040Y-84318680D01*
X149674941Y-84318921D01*
X149674941Y-84318921D01*
G37*
D20*
%TD*%
%TO.P,U1,16*%
%TO.N,Net-(U1-Pad16)*%
X149320040Y-84418680D03*
D13*
%TO.N,Net-(U1-Pad17)*%
%TO.C,U1*%
G36*
X149674941Y-83918921D02*
G01*
X149679795Y-83919641D01*
X149684554Y-83920833D01*
X149689174Y-83922486D01*
X149693610Y-83924584D01*
X149697819Y-83927107D01*
X149701760Y-83930029D01*
X149705395Y-83933325D01*
X149708691Y-83936960D01*
X149711613Y-83940901D01*
X149714136Y-83945110D01*
X149716234Y-83949546D01*
X149717887Y-83954166D01*
X149719079Y-83958925D01*
X149719799Y-83963779D01*
X149720040Y-83968680D01*
X149720040Y-84068680D01*
X149719799Y-84073581D01*
X149719079Y-84078435D01*
X149717887Y-84083194D01*
X149716234Y-84087814D01*
X149714136Y-84092250D01*
X149711613Y-84096459D01*
X149708691Y-84100400D01*
X149705395Y-84104035D01*
X149701760Y-84107331D01*
X149697819Y-84110253D01*
X149693610Y-84112776D01*
X149689174Y-84114874D01*
X149684554Y-84116527D01*
X149679795Y-84117719D01*
X149674941Y-84118439D01*
X149670040Y-84118680D01*
X148970040Y-84118680D01*
X148965139Y-84118439D01*
X148960285Y-84117719D01*
X148955526Y-84116527D01*
X148950906Y-84114874D01*
X148946470Y-84112776D01*
X148942261Y-84110253D01*
X148938320Y-84107331D01*
X148934685Y-84104035D01*
X148931389Y-84100400D01*
X148928467Y-84096459D01*
X148925944Y-84092250D01*
X148923846Y-84087814D01*
X148922193Y-84083194D01*
X148921001Y-84078435D01*
X148920281Y-84073581D01*
X148920040Y-84068680D01*
X148920040Y-83968680D01*
X148920281Y-83963779D01*
X148921001Y-83958925D01*
X148922193Y-83954166D01*
X148923846Y-83949546D01*
X148925944Y-83945110D01*
X148928467Y-83940901D01*
X148931389Y-83936960D01*
X148934685Y-83933325D01*
X148938320Y-83930029D01*
X148942261Y-83927107D01*
X148946470Y-83924584D01*
X148950906Y-83922486D01*
X148955526Y-83920833D01*
X148960285Y-83919641D01*
X148965139Y-83918921D01*
X148970040Y-83918680D01*
X149670040Y-83918680D01*
X149674941Y-83918921D01*
X149674941Y-83918921D01*
G37*
D20*
%TD*%
%TO.P,U1,17*%
%TO.N,Net-(U1-Pad17)*%
X149320040Y-84018680D03*
D13*
%TO.N,Net-(U1-Pad18)*%
%TO.C,U1*%
G36*
X149674941Y-83518921D02*
G01*
X149679795Y-83519641D01*
X149684554Y-83520833D01*
X149689174Y-83522486D01*
X149693610Y-83524584D01*
X149697819Y-83527107D01*
X149701760Y-83530029D01*
X149705395Y-83533325D01*
X149708691Y-83536960D01*
X149711613Y-83540901D01*
X149714136Y-83545110D01*
X149716234Y-83549546D01*
X149717887Y-83554166D01*
X149719079Y-83558925D01*
X149719799Y-83563779D01*
X149720040Y-83568680D01*
X149720040Y-83668680D01*
X149719799Y-83673581D01*
X149719079Y-83678435D01*
X149717887Y-83683194D01*
X149716234Y-83687814D01*
X149714136Y-83692250D01*
X149711613Y-83696459D01*
X149708691Y-83700400D01*
X149705395Y-83704035D01*
X149701760Y-83707331D01*
X149697819Y-83710253D01*
X149693610Y-83712776D01*
X149689174Y-83714874D01*
X149684554Y-83716527D01*
X149679795Y-83717719D01*
X149674941Y-83718439D01*
X149670040Y-83718680D01*
X148970040Y-83718680D01*
X148965139Y-83718439D01*
X148960285Y-83717719D01*
X148955526Y-83716527D01*
X148950906Y-83714874D01*
X148946470Y-83712776D01*
X148942261Y-83710253D01*
X148938320Y-83707331D01*
X148934685Y-83704035D01*
X148931389Y-83700400D01*
X148928467Y-83696459D01*
X148925944Y-83692250D01*
X148923846Y-83687814D01*
X148922193Y-83683194D01*
X148921001Y-83678435D01*
X148920281Y-83673581D01*
X148920040Y-83668680D01*
X148920040Y-83568680D01*
X148920281Y-83563779D01*
X148921001Y-83558925D01*
X148922193Y-83554166D01*
X148923846Y-83549546D01*
X148925944Y-83545110D01*
X148928467Y-83540901D01*
X148931389Y-83536960D01*
X148934685Y-83533325D01*
X148938320Y-83530029D01*
X148942261Y-83527107D01*
X148946470Y-83524584D01*
X148950906Y-83522486D01*
X148955526Y-83520833D01*
X148960285Y-83519641D01*
X148965139Y-83518921D01*
X148970040Y-83518680D01*
X149670040Y-83518680D01*
X149674941Y-83518921D01*
X149674941Y-83518921D01*
G37*
D20*
%TD*%
%TO.P,U1,18*%
%TO.N,Net-(U1-Pad18)*%
X149320040Y-83618680D03*
D13*
%TO.N,Net-(U1-Pad19)*%
%TO.C,U1*%
G36*
X149674941Y-83118921D02*
G01*
X149679795Y-83119641D01*
X149684554Y-83120833D01*
X149689174Y-83122486D01*
X149693610Y-83124584D01*
X149697819Y-83127107D01*
X149701760Y-83130029D01*
X149705395Y-83133325D01*
X149708691Y-83136960D01*
X149711613Y-83140901D01*
X149714136Y-83145110D01*
X149716234Y-83149546D01*
X149717887Y-83154166D01*
X149719079Y-83158925D01*
X149719799Y-83163779D01*
X149720040Y-83168680D01*
X149720040Y-83268680D01*
X149719799Y-83273581D01*
X149719079Y-83278435D01*
X149717887Y-83283194D01*
X149716234Y-83287814D01*
X149714136Y-83292250D01*
X149711613Y-83296459D01*
X149708691Y-83300400D01*
X149705395Y-83304035D01*
X149701760Y-83307331D01*
X149697819Y-83310253D01*
X149693610Y-83312776D01*
X149689174Y-83314874D01*
X149684554Y-83316527D01*
X149679795Y-83317719D01*
X149674941Y-83318439D01*
X149670040Y-83318680D01*
X148970040Y-83318680D01*
X148965139Y-83318439D01*
X148960285Y-83317719D01*
X148955526Y-83316527D01*
X148950906Y-83314874D01*
X148946470Y-83312776D01*
X148942261Y-83310253D01*
X148938320Y-83307331D01*
X148934685Y-83304035D01*
X148931389Y-83300400D01*
X148928467Y-83296459D01*
X148925944Y-83292250D01*
X148923846Y-83287814D01*
X148922193Y-83283194D01*
X148921001Y-83278435D01*
X148920281Y-83273581D01*
X148920040Y-83268680D01*
X148920040Y-83168680D01*
X148920281Y-83163779D01*
X148921001Y-83158925D01*
X148922193Y-83154166D01*
X148923846Y-83149546D01*
X148925944Y-83145110D01*
X148928467Y-83140901D01*
X148931389Y-83136960D01*
X148934685Y-83133325D01*
X148938320Y-83130029D01*
X148942261Y-83127107D01*
X148946470Y-83124584D01*
X148950906Y-83122486D01*
X148955526Y-83120833D01*
X148960285Y-83119641D01*
X148965139Y-83118921D01*
X148970040Y-83118680D01*
X149670040Y-83118680D01*
X149674941Y-83118921D01*
X149674941Y-83118921D01*
G37*
D20*
%TD*%
%TO.P,U1,19*%
%TO.N,Net-(U1-Pad19)*%
X149320040Y-83218680D03*
D13*
%TO.N,Net-(U1-Pad20)*%
%TO.C,U1*%
G36*
X149674941Y-82718921D02*
G01*
X149679795Y-82719641D01*
X149684554Y-82720833D01*
X149689174Y-82722486D01*
X149693610Y-82724584D01*
X149697819Y-82727107D01*
X149701760Y-82730029D01*
X149705395Y-82733325D01*
X149708691Y-82736960D01*
X149711613Y-82740901D01*
X149714136Y-82745110D01*
X149716234Y-82749546D01*
X149717887Y-82754166D01*
X149719079Y-82758925D01*
X149719799Y-82763779D01*
X149720040Y-82768680D01*
X149720040Y-82868680D01*
X149719799Y-82873581D01*
X149719079Y-82878435D01*
X149717887Y-82883194D01*
X149716234Y-82887814D01*
X149714136Y-82892250D01*
X149711613Y-82896459D01*
X149708691Y-82900400D01*
X149705395Y-82904035D01*
X149701760Y-82907331D01*
X149697819Y-82910253D01*
X149693610Y-82912776D01*
X149689174Y-82914874D01*
X149684554Y-82916527D01*
X149679795Y-82917719D01*
X149674941Y-82918439D01*
X149670040Y-82918680D01*
X148970040Y-82918680D01*
X148965139Y-82918439D01*
X148960285Y-82917719D01*
X148955526Y-82916527D01*
X148950906Y-82914874D01*
X148946470Y-82912776D01*
X148942261Y-82910253D01*
X148938320Y-82907331D01*
X148934685Y-82904035D01*
X148931389Y-82900400D01*
X148928467Y-82896459D01*
X148925944Y-82892250D01*
X148923846Y-82887814D01*
X148922193Y-82883194D01*
X148921001Y-82878435D01*
X148920281Y-82873581D01*
X148920040Y-82868680D01*
X148920040Y-82768680D01*
X148920281Y-82763779D01*
X148921001Y-82758925D01*
X148922193Y-82754166D01*
X148923846Y-82749546D01*
X148925944Y-82745110D01*
X148928467Y-82740901D01*
X148931389Y-82736960D01*
X148934685Y-82733325D01*
X148938320Y-82730029D01*
X148942261Y-82727107D01*
X148946470Y-82724584D01*
X148950906Y-82722486D01*
X148955526Y-82720833D01*
X148960285Y-82719641D01*
X148965139Y-82718921D01*
X148970040Y-82718680D01*
X149670040Y-82718680D01*
X149674941Y-82718921D01*
X149674941Y-82718921D01*
G37*
D20*
%TD*%
%TO.P,U1,20*%
%TO.N,Net-(U1-Pad20)*%
X149320040Y-82818680D03*
D13*
%TO.N,SWO*%
%TO.C,U1*%
G36*
X149674941Y-82318921D02*
G01*
X149679795Y-82319641D01*
X149684554Y-82320833D01*
X149689174Y-82322486D01*
X149693610Y-82324584D01*
X149697819Y-82327107D01*
X149701760Y-82330029D01*
X149705395Y-82333325D01*
X149708691Y-82336960D01*
X149711613Y-82340901D01*
X149714136Y-82345110D01*
X149716234Y-82349546D01*
X149717887Y-82354166D01*
X149719079Y-82358925D01*
X149719799Y-82363779D01*
X149720040Y-82368680D01*
X149720040Y-82468680D01*
X149719799Y-82473581D01*
X149719079Y-82478435D01*
X149717887Y-82483194D01*
X149716234Y-82487814D01*
X149714136Y-82492250D01*
X149711613Y-82496459D01*
X149708691Y-82500400D01*
X149705395Y-82504035D01*
X149701760Y-82507331D01*
X149697819Y-82510253D01*
X149693610Y-82512776D01*
X149689174Y-82514874D01*
X149684554Y-82516527D01*
X149679795Y-82517719D01*
X149674941Y-82518439D01*
X149670040Y-82518680D01*
X148970040Y-82518680D01*
X148965139Y-82518439D01*
X148960285Y-82517719D01*
X148955526Y-82516527D01*
X148950906Y-82514874D01*
X148946470Y-82512776D01*
X148942261Y-82510253D01*
X148938320Y-82507331D01*
X148934685Y-82504035D01*
X148931389Y-82500400D01*
X148928467Y-82496459D01*
X148925944Y-82492250D01*
X148923846Y-82487814D01*
X148922193Y-82483194D01*
X148921001Y-82478435D01*
X148920281Y-82473581D01*
X148920040Y-82468680D01*
X148920040Y-82368680D01*
X148920281Y-82363779D01*
X148921001Y-82358925D01*
X148922193Y-82354166D01*
X148923846Y-82349546D01*
X148925944Y-82345110D01*
X148928467Y-82340901D01*
X148931389Y-82336960D01*
X148934685Y-82333325D01*
X148938320Y-82330029D01*
X148942261Y-82327107D01*
X148946470Y-82324584D01*
X148950906Y-82322486D01*
X148955526Y-82320833D01*
X148960285Y-82319641D01*
X148965139Y-82318921D01*
X148970040Y-82318680D01*
X149670040Y-82318680D01*
X149674941Y-82318921D01*
X149674941Y-82318921D01*
G37*
D20*
%TD*%
%TO.P,U1,21*%
%TO.N,SWO*%
X149320040Y-82418680D03*
D13*
%TO.N,Net-(U1-Pad22)*%
%TO.C,U1*%
G36*
X149674941Y-81918921D02*
G01*
X149679795Y-81919641D01*
X149684554Y-81920833D01*
X149689174Y-81922486D01*
X149693610Y-81924584D01*
X149697819Y-81927107D01*
X149701760Y-81930029D01*
X149705395Y-81933325D01*
X149708691Y-81936960D01*
X149711613Y-81940901D01*
X149714136Y-81945110D01*
X149716234Y-81949546D01*
X149717887Y-81954166D01*
X149719079Y-81958925D01*
X149719799Y-81963779D01*
X149720040Y-81968680D01*
X149720040Y-82068680D01*
X149719799Y-82073581D01*
X149719079Y-82078435D01*
X149717887Y-82083194D01*
X149716234Y-82087814D01*
X149714136Y-82092250D01*
X149711613Y-82096459D01*
X149708691Y-82100400D01*
X149705395Y-82104035D01*
X149701760Y-82107331D01*
X149697819Y-82110253D01*
X149693610Y-82112776D01*
X149689174Y-82114874D01*
X149684554Y-82116527D01*
X149679795Y-82117719D01*
X149674941Y-82118439D01*
X149670040Y-82118680D01*
X148970040Y-82118680D01*
X148965139Y-82118439D01*
X148960285Y-82117719D01*
X148955526Y-82116527D01*
X148950906Y-82114874D01*
X148946470Y-82112776D01*
X148942261Y-82110253D01*
X148938320Y-82107331D01*
X148934685Y-82104035D01*
X148931389Y-82100400D01*
X148928467Y-82096459D01*
X148925944Y-82092250D01*
X148923846Y-82087814D01*
X148922193Y-82083194D01*
X148921001Y-82078435D01*
X148920281Y-82073581D01*
X148920040Y-82068680D01*
X148920040Y-81968680D01*
X148920281Y-81963779D01*
X148921001Y-81958925D01*
X148922193Y-81954166D01*
X148923846Y-81949546D01*
X148925944Y-81945110D01*
X148928467Y-81940901D01*
X148931389Y-81936960D01*
X148934685Y-81933325D01*
X148938320Y-81930029D01*
X148942261Y-81927107D01*
X148946470Y-81924584D01*
X148950906Y-81922486D01*
X148955526Y-81920833D01*
X148960285Y-81919641D01*
X148965139Y-81918921D01*
X148970040Y-81918680D01*
X149670040Y-81918680D01*
X149674941Y-81918921D01*
X149674941Y-81918921D01*
G37*
D20*
%TD*%
%TO.P,U1,22*%
%TO.N,Net-(U1-Pad22)*%
X149320040Y-82018680D03*
D13*
%TO.N,Net-(U1-Pad23)*%
%TO.C,U1*%
G36*
X149674941Y-81518921D02*
G01*
X149679795Y-81519641D01*
X149684554Y-81520833D01*
X149689174Y-81522486D01*
X149693610Y-81524584D01*
X149697819Y-81527107D01*
X149701760Y-81530029D01*
X149705395Y-81533325D01*
X149708691Y-81536960D01*
X149711613Y-81540901D01*
X149714136Y-81545110D01*
X149716234Y-81549546D01*
X149717887Y-81554166D01*
X149719079Y-81558925D01*
X149719799Y-81563779D01*
X149720040Y-81568680D01*
X149720040Y-81668680D01*
X149719799Y-81673581D01*
X149719079Y-81678435D01*
X149717887Y-81683194D01*
X149716234Y-81687814D01*
X149714136Y-81692250D01*
X149711613Y-81696459D01*
X149708691Y-81700400D01*
X149705395Y-81704035D01*
X149701760Y-81707331D01*
X149697819Y-81710253D01*
X149693610Y-81712776D01*
X149689174Y-81714874D01*
X149684554Y-81716527D01*
X149679795Y-81717719D01*
X149674941Y-81718439D01*
X149670040Y-81718680D01*
X148970040Y-81718680D01*
X148965139Y-81718439D01*
X148960285Y-81717719D01*
X148955526Y-81716527D01*
X148950906Y-81714874D01*
X148946470Y-81712776D01*
X148942261Y-81710253D01*
X148938320Y-81707331D01*
X148934685Y-81704035D01*
X148931389Y-81700400D01*
X148928467Y-81696459D01*
X148925944Y-81692250D01*
X148923846Y-81687814D01*
X148922193Y-81683194D01*
X148921001Y-81678435D01*
X148920281Y-81673581D01*
X148920040Y-81668680D01*
X148920040Y-81568680D01*
X148920281Y-81563779D01*
X148921001Y-81558925D01*
X148922193Y-81554166D01*
X148923846Y-81549546D01*
X148925944Y-81545110D01*
X148928467Y-81540901D01*
X148931389Y-81536960D01*
X148934685Y-81533325D01*
X148938320Y-81530029D01*
X148942261Y-81527107D01*
X148946470Y-81524584D01*
X148950906Y-81522486D01*
X148955526Y-81520833D01*
X148960285Y-81519641D01*
X148965139Y-81518921D01*
X148970040Y-81518680D01*
X149670040Y-81518680D01*
X149674941Y-81518921D01*
X149674941Y-81518921D01*
G37*
D20*
%TD*%
%TO.P,U1,23*%
%TO.N,Net-(U1-Pad23)*%
X149320040Y-81618680D03*
D13*
%TO.N,RESET_0.21*%
%TO.C,U1*%
G36*
X149674941Y-81118921D02*
G01*
X149679795Y-81119641D01*
X149684554Y-81120833D01*
X149689174Y-81122486D01*
X149693610Y-81124584D01*
X149697819Y-81127107D01*
X149701760Y-81130029D01*
X149705395Y-81133325D01*
X149708691Y-81136960D01*
X149711613Y-81140901D01*
X149714136Y-81145110D01*
X149716234Y-81149546D01*
X149717887Y-81154166D01*
X149719079Y-81158925D01*
X149719799Y-81163779D01*
X149720040Y-81168680D01*
X149720040Y-81268680D01*
X149719799Y-81273581D01*
X149719079Y-81278435D01*
X149717887Y-81283194D01*
X149716234Y-81287814D01*
X149714136Y-81292250D01*
X149711613Y-81296459D01*
X149708691Y-81300400D01*
X149705395Y-81304035D01*
X149701760Y-81307331D01*
X149697819Y-81310253D01*
X149693610Y-81312776D01*
X149689174Y-81314874D01*
X149684554Y-81316527D01*
X149679795Y-81317719D01*
X149674941Y-81318439D01*
X149670040Y-81318680D01*
X148970040Y-81318680D01*
X148965139Y-81318439D01*
X148960285Y-81317719D01*
X148955526Y-81316527D01*
X148950906Y-81314874D01*
X148946470Y-81312776D01*
X148942261Y-81310253D01*
X148938320Y-81307331D01*
X148934685Y-81304035D01*
X148931389Y-81300400D01*
X148928467Y-81296459D01*
X148925944Y-81292250D01*
X148923846Y-81287814D01*
X148922193Y-81283194D01*
X148921001Y-81278435D01*
X148920281Y-81273581D01*
X148920040Y-81268680D01*
X148920040Y-81168680D01*
X148920281Y-81163779D01*
X148921001Y-81158925D01*
X148922193Y-81154166D01*
X148923846Y-81149546D01*
X148925944Y-81145110D01*
X148928467Y-81140901D01*
X148931389Y-81136960D01*
X148934685Y-81133325D01*
X148938320Y-81130029D01*
X148942261Y-81127107D01*
X148946470Y-81124584D01*
X148950906Y-81122486D01*
X148955526Y-81120833D01*
X148960285Y-81119641D01*
X148965139Y-81118921D01*
X148970040Y-81118680D01*
X149670040Y-81118680D01*
X149674941Y-81118921D01*
X149674941Y-81118921D01*
G37*
D20*
%TD*%
%TO.P,U1,24*%
%TO.N,RESET_0.21*%
X149320040Y-81218680D03*
D13*
%TO.N,SWDCLK*%
%TO.C,U1*%
G36*
X148624941Y-80068921D02*
G01*
X148629795Y-80069641D01*
X148634554Y-80070833D01*
X148639174Y-80072486D01*
X148643610Y-80074584D01*
X148647819Y-80077107D01*
X148651760Y-80080029D01*
X148655395Y-80083325D01*
X148658691Y-80086960D01*
X148661613Y-80090901D01*
X148664136Y-80095110D01*
X148666234Y-80099546D01*
X148667887Y-80104166D01*
X148669079Y-80108925D01*
X148669799Y-80113779D01*
X148670040Y-80118680D01*
X148670040Y-80818680D01*
X148669799Y-80823581D01*
X148669079Y-80828435D01*
X148667887Y-80833194D01*
X148666234Y-80837814D01*
X148664136Y-80842250D01*
X148661613Y-80846459D01*
X148658691Y-80850400D01*
X148655395Y-80854035D01*
X148651760Y-80857331D01*
X148647819Y-80860253D01*
X148643610Y-80862776D01*
X148639174Y-80864874D01*
X148634554Y-80866527D01*
X148629795Y-80867719D01*
X148624941Y-80868439D01*
X148620040Y-80868680D01*
X148520040Y-80868680D01*
X148515139Y-80868439D01*
X148510285Y-80867719D01*
X148505526Y-80866527D01*
X148500906Y-80864874D01*
X148496470Y-80862776D01*
X148492261Y-80860253D01*
X148488320Y-80857331D01*
X148484685Y-80854035D01*
X148481389Y-80850400D01*
X148478467Y-80846459D01*
X148475944Y-80842250D01*
X148473846Y-80837814D01*
X148472193Y-80833194D01*
X148471001Y-80828435D01*
X148470281Y-80823581D01*
X148470040Y-80818680D01*
X148470040Y-80118680D01*
X148470281Y-80113779D01*
X148471001Y-80108925D01*
X148472193Y-80104166D01*
X148473846Y-80099546D01*
X148475944Y-80095110D01*
X148478467Y-80090901D01*
X148481389Y-80086960D01*
X148484685Y-80083325D01*
X148488320Y-80080029D01*
X148492261Y-80077107D01*
X148496470Y-80074584D01*
X148500906Y-80072486D01*
X148505526Y-80070833D01*
X148510285Y-80069641D01*
X148515139Y-80068921D01*
X148520040Y-80068680D01*
X148620040Y-80068680D01*
X148624941Y-80068921D01*
X148624941Y-80068921D01*
G37*
D20*
%TD*%
%TO.P,U1,25*%
%TO.N,SWDCLK*%
X148570040Y-80468680D03*
D13*
%TO.N,SWDIO*%
%TO.C,U1*%
G36*
X148224941Y-80068921D02*
G01*
X148229795Y-80069641D01*
X148234554Y-80070833D01*
X148239174Y-80072486D01*
X148243610Y-80074584D01*
X148247819Y-80077107D01*
X148251760Y-80080029D01*
X148255395Y-80083325D01*
X148258691Y-80086960D01*
X148261613Y-80090901D01*
X148264136Y-80095110D01*
X148266234Y-80099546D01*
X148267887Y-80104166D01*
X148269079Y-80108925D01*
X148269799Y-80113779D01*
X148270040Y-80118680D01*
X148270040Y-80818680D01*
X148269799Y-80823581D01*
X148269079Y-80828435D01*
X148267887Y-80833194D01*
X148266234Y-80837814D01*
X148264136Y-80842250D01*
X148261613Y-80846459D01*
X148258691Y-80850400D01*
X148255395Y-80854035D01*
X148251760Y-80857331D01*
X148247819Y-80860253D01*
X148243610Y-80862776D01*
X148239174Y-80864874D01*
X148234554Y-80866527D01*
X148229795Y-80867719D01*
X148224941Y-80868439D01*
X148220040Y-80868680D01*
X148120040Y-80868680D01*
X148115139Y-80868439D01*
X148110285Y-80867719D01*
X148105526Y-80866527D01*
X148100906Y-80864874D01*
X148096470Y-80862776D01*
X148092261Y-80860253D01*
X148088320Y-80857331D01*
X148084685Y-80854035D01*
X148081389Y-80850400D01*
X148078467Y-80846459D01*
X148075944Y-80842250D01*
X148073846Y-80837814D01*
X148072193Y-80833194D01*
X148071001Y-80828435D01*
X148070281Y-80823581D01*
X148070040Y-80818680D01*
X148070040Y-80118680D01*
X148070281Y-80113779D01*
X148071001Y-80108925D01*
X148072193Y-80104166D01*
X148073846Y-80099546D01*
X148075944Y-80095110D01*
X148078467Y-80090901D01*
X148081389Y-80086960D01*
X148084685Y-80083325D01*
X148088320Y-80080029D01*
X148092261Y-80077107D01*
X148096470Y-80074584D01*
X148100906Y-80072486D01*
X148105526Y-80070833D01*
X148110285Y-80069641D01*
X148115139Y-80068921D01*
X148120040Y-80068680D01*
X148220040Y-80068680D01*
X148224941Y-80068921D01*
X148224941Y-80068921D01*
G37*
D20*
%TD*%
%TO.P,U1,26*%
%TO.N,SWDIO*%
X148170040Y-80468680D03*
D13*
%TO.N,Net-(U1-Pad27)*%
%TO.C,U1*%
G36*
X147824941Y-80068921D02*
G01*
X147829795Y-80069641D01*
X147834554Y-80070833D01*
X147839174Y-80072486D01*
X147843610Y-80074584D01*
X147847819Y-80077107D01*
X147851760Y-80080029D01*
X147855395Y-80083325D01*
X147858691Y-80086960D01*
X147861613Y-80090901D01*
X147864136Y-80095110D01*
X147866234Y-80099546D01*
X147867887Y-80104166D01*
X147869079Y-80108925D01*
X147869799Y-80113779D01*
X147870040Y-80118680D01*
X147870040Y-80818680D01*
X147869799Y-80823581D01*
X147869079Y-80828435D01*
X147867887Y-80833194D01*
X147866234Y-80837814D01*
X147864136Y-80842250D01*
X147861613Y-80846459D01*
X147858691Y-80850400D01*
X147855395Y-80854035D01*
X147851760Y-80857331D01*
X147847819Y-80860253D01*
X147843610Y-80862776D01*
X147839174Y-80864874D01*
X147834554Y-80866527D01*
X147829795Y-80867719D01*
X147824941Y-80868439D01*
X147820040Y-80868680D01*
X147720040Y-80868680D01*
X147715139Y-80868439D01*
X147710285Y-80867719D01*
X147705526Y-80866527D01*
X147700906Y-80864874D01*
X147696470Y-80862776D01*
X147692261Y-80860253D01*
X147688320Y-80857331D01*
X147684685Y-80854035D01*
X147681389Y-80850400D01*
X147678467Y-80846459D01*
X147675944Y-80842250D01*
X147673846Y-80837814D01*
X147672193Y-80833194D01*
X147671001Y-80828435D01*
X147670281Y-80823581D01*
X147670040Y-80818680D01*
X147670040Y-80118680D01*
X147670281Y-80113779D01*
X147671001Y-80108925D01*
X147672193Y-80104166D01*
X147673846Y-80099546D01*
X147675944Y-80095110D01*
X147678467Y-80090901D01*
X147681389Y-80086960D01*
X147684685Y-80083325D01*
X147688320Y-80080029D01*
X147692261Y-80077107D01*
X147696470Y-80074584D01*
X147700906Y-80072486D01*
X147705526Y-80070833D01*
X147710285Y-80069641D01*
X147715139Y-80068921D01*
X147720040Y-80068680D01*
X147820040Y-80068680D01*
X147824941Y-80068921D01*
X147824941Y-80068921D01*
G37*
D20*
%TD*%
%TO.P,U1,27*%
%TO.N,Net-(U1-Pad27)*%
X147770040Y-80468680D03*
D13*
%TO.N,Net-(U1-Pad28)*%
%TO.C,U1*%
G36*
X147424941Y-80068921D02*
G01*
X147429795Y-80069641D01*
X147434554Y-80070833D01*
X147439174Y-80072486D01*
X147443610Y-80074584D01*
X147447819Y-80077107D01*
X147451760Y-80080029D01*
X147455395Y-80083325D01*
X147458691Y-80086960D01*
X147461613Y-80090901D01*
X147464136Y-80095110D01*
X147466234Y-80099546D01*
X147467887Y-80104166D01*
X147469079Y-80108925D01*
X147469799Y-80113779D01*
X147470040Y-80118680D01*
X147470040Y-80818680D01*
X147469799Y-80823581D01*
X147469079Y-80828435D01*
X147467887Y-80833194D01*
X147466234Y-80837814D01*
X147464136Y-80842250D01*
X147461613Y-80846459D01*
X147458691Y-80850400D01*
X147455395Y-80854035D01*
X147451760Y-80857331D01*
X147447819Y-80860253D01*
X147443610Y-80862776D01*
X147439174Y-80864874D01*
X147434554Y-80866527D01*
X147429795Y-80867719D01*
X147424941Y-80868439D01*
X147420040Y-80868680D01*
X147320040Y-80868680D01*
X147315139Y-80868439D01*
X147310285Y-80867719D01*
X147305526Y-80866527D01*
X147300906Y-80864874D01*
X147296470Y-80862776D01*
X147292261Y-80860253D01*
X147288320Y-80857331D01*
X147284685Y-80854035D01*
X147281389Y-80850400D01*
X147278467Y-80846459D01*
X147275944Y-80842250D01*
X147273846Y-80837814D01*
X147272193Y-80833194D01*
X147271001Y-80828435D01*
X147270281Y-80823581D01*
X147270040Y-80818680D01*
X147270040Y-80118680D01*
X147270281Y-80113779D01*
X147271001Y-80108925D01*
X147272193Y-80104166D01*
X147273846Y-80099546D01*
X147275944Y-80095110D01*
X147278467Y-80090901D01*
X147281389Y-80086960D01*
X147284685Y-80083325D01*
X147288320Y-80080029D01*
X147292261Y-80077107D01*
X147296470Y-80074584D01*
X147300906Y-80072486D01*
X147305526Y-80070833D01*
X147310285Y-80069641D01*
X147315139Y-80068921D01*
X147320040Y-80068680D01*
X147420040Y-80068680D01*
X147424941Y-80068921D01*
X147424941Y-80068921D01*
G37*
D20*
%TD*%
%TO.P,U1,28*%
%TO.N,Net-(U1-Pad28)*%
X147370040Y-80468680D03*
D13*
%TO.N,Net-(U1-Pad29)*%
%TO.C,U1*%
G36*
X147024941Y-80068921D02*
G01*
X147029795Y-80069641D01*
X147034554Y-80070833D01*
X147039174Y-80072486D01*
X147043610Y-80074584D01*
X147047819Y-80077107D01*
X147051760Y-80080029D01*
X147055395Y-80083325D01*
X147058691Y-80086960D01*
X147061613Y-80090901D01*
X147064136Y-80095110D01*
X147066234Y-80099546D01*
X147067887Y-80104166D01*
X147069079Y-80108925D01*
X147069799Y-80113779D01*
X147070040Y-80118680D01*
X147070040Y-80818680D01*
X147069799Y-80823581D01*
X147069079Y-80828435D01*
X147067887Y-80833194D01*
X147066234Y-80837814D01*
X147064136Y-80842250D01*
X147061613Y-80846459D01*
X147058691Y-80850400D01*
X147055395Y-80854035D01*
X147051760Y-80857331D01*
X147047819Y-80860253D01*
X147043610Y-80862776D01*
X147039174Y-80864874D01*
X147034554Y-80866527D01*
X147029795Y-80867719D01*
X147024941Y-80868439D01*
X147020040Y-80868680D01*
X146920040Y-80868680D01*
X146915139Y-80868439D01*
X146910285Y-80867719D01*
X146905526Y-80866527D01*
X146900906Y-80864874D01*
X146896470Y-80862776D01*
X146892261Y-80860253D01*
X146888320Y-80857331D01*
X146884685Y-80854035D01*
X146881389Y-80850400D01*
X146878467Y-80846459D01*
X146875944Y-80842250D01*
X146873846Y-80837814D01*
X146872193Y-80833194D01*
X146871001Y-80828435D01*
X146870281Y-80823581D01*
X146870040Y-80818680D01*
X146870040Y-80118680D01*
X146870281Y-80113779D01*
X146871001Y-80108925D01*
X146872193Y-80104166D01*
X146873846Y-80099546D01*
X146875944Y-80095110D01*
X146878467Y-80090901D01*
X146881389Y-80086960D01*
X146884685Y-80083325D01*
X146888320Y-80080029D01*
X146892261Y-80077107D01*
X146896470Y-80074584D01*
X146900906Y-80072486D01*
X146905526Y-80070833D01*
X146910285Y-80069641D01*
X146915139Y-80068921D01*
X146920040Y-80068680D01*
X147020040Y-80068680D01*
X147024941Y-80068921D01*
X147024941Y-80068921D01*
G37*
D20*
%TD*%
%TO.P,U1,29*%
%TO.N,Net-(U1-Pad29)*%
X146970040Y-80468680D03*
D13*
%TO.N,ANT*%
%TO.C,U1*%
G36*
X146624941Y-80068921D02*
G01*
X146629795Y-80069641D01*
X146634554Y-80070833D01*
X146639174Y-80072486D01*
X146643610Y-80074584D01*
X146647819Y-80077107D01*
X146651760Y-80080029D01*
X146655395Y-80083325D01*
X146658691Y-80086960D01*
X146661613Y-80090901D01*
X146664136Y-80095110D01*
X146666234Y-80099546D01*
X146667887Y-80104166D01*
X146669079Y-80108925D01*
X146669799Y-80113779D01*
X146670040Y-80118680D01*
X146670040Y-80818680D01*
X146669799Y-80823581D01*
X146669079Y-80828435D01*
X146667887Y-80833194D01*
X146666234Y-80837814D01*
X146664136Y-80842250D01*
X146661613Y-80846459D01*
X146658691Y-80850400D01*
X146655395Y-80854035D01*
X146651760Y-80857331D01*
X146647819Y-80860253D01*
X146643610Y-80862776D01*
X146639174Y-80864874D01*
X146634554Y-80866527D01*
X146629795Y-80867719D01*
X146624941Y-80868439D01*
X146620040Y-80868680D01*
X146520040Y-80868680D01*
X146515139Y-80868439D01*
X146510285Y-80867719D01*
X146505526Y-80866527D01*
X146500906Y-80864874D01*
X146496470Y-80862776D01*
X146492261Y-80860253D01*
X146488320Y-80857331D01*
X146484685Y-80854035D01*
X146481389Y-80850400D01*
X146478467Y-80846459D01*
X146475944Y-80842250D01*
X146473846Y-80837814D01*
X146472193Y-80833194D01*
X146471001Y-80828435D01*
X146470281Y-80823581D01*
X146470040Y-80818680D01*
X146470040Y-80118680D01*
X146470281Y-80113779D01*
X146471001Y-80108925D01*
X146472193Y-80104166D01*
X146473846Y-80099546D01*
X146475944Y-80095110D01*
X146478467Y-80090901D01*
X146481389Y-80086960D01*
X146484685Y-80083325D01*
X146488320Y-80080029D01*
X146492261Y-80077107D01*
X146496470Y-80074584D01*
X146500906Y-80072486D01*
X146505526Y-80070833D01*
X146510285Y-80069641D01*
X146515139Y-80068921D01*
X146520040Y-80068680D01*
X146620040Y-80068680D01*
X146624941Y-80068921D01*
X146624941Y-80068921D01*
G37*
D20*
%TD*%
%TO.P,U1,30*%
%TO.N,ANT*%
X146570040Y-80468680D03*
D13*
%TO.N,VSS*%
%TO.C,U1*%
G36*
X146224941Y-80068921D02*
G01*
X146229795Y-80069641D01*
X146234554Y-80070833D01*
X146239174Y-80072486D01*
X146243610Y-80074584D01*
X146247819Y-80077107D01*
X146251760Y-80080029D01*
X146255395Y-80083325D01*
X146258691Y-80086960D01*
X146261613Y-80090901D01*
X146264136Y-80095110D01*
X146266234Y-80099546D01*
X146267887Y-80104166D01*
X146269079Y-80108925D01*
X146269799Y-80113779D01*
X146270040Y-80118680D01*
X146270040Y-80818680D01*
X146269799Y-80823581D01*
X146269079Y-80828435D01*
X146267887Y-80833194D01*
X146266234Y-80837814D01*
X146264136Y-80842250D01*
X146261613Y-80846459D01*
X146258691Y-80850400D01*
X146255395Y-80854035D01*
X146251760Y-80857331D01*
X146247819Y-80860253D01*
X146243610Y-80862776D01*
X146239174Y-80864874D01*
X146234554Y-80866527D01*
X146229795Y-80867719D01*
X146224941Y-80868439D01*
X146220040Y-80868680D01*
X146120040Y-80868680D01*
X146115139Y-80868439D01*
X146110285Y-80867719D01*
X146105526Y-80866527D01*
X146100906Y-80864874D01*
X146096470Y-80862776D01*
X146092261Y-80860253D01*
X146088320Y-80857331D01*
X146084685Y-80854035D01*
X146081389Y-80850400D01*
X146078467Y-80846459D01*
X146075944Y-80842250D01*
X146073846Y-80837814D01*
X146072193Y-80833194D01*
X146071001Y-80828435D01*
X146070281Y-80823581D01*
X146070040Y-80818680D01*
X146070040Y-80118680D01*
X146070281Y-80113779D01*
X146071001Y-80108925D01*
X146072193Y-80104166D01*
X146073846Y-80099546D01*
X146075944Y-80095110D01*
X146078467Y-80090901D01*
X146081389Y-80086960D01*
X146084685Y-80083325D01*
X146088320Y-80080029D01*
X146092261Y-80077107D01*
X146096470Y-80074584D01*
X146100906Y-80072486D01*
X146105526Y-80070833D01*
X146110285Y-80069641D01*
X146115139Y-80068921D01*
X146120040Y-80068680D01*
X146220040Y-80068680D01*
X146224941Y-80068921D01*
X146224941Y-80068921D01*
G37*
D20*
%TD*%
%TO.P,U1,31*%
%TO.N,VSS*%
X146170040Y-80468680D03*
D13*
%TO.N,D2*%
%TO.C,U1*%
G36*
X145824941Y-80068921D02*
G01*
X145829795Y-80069641D01*
X145834554Y-80070833D01*
X145839174Y-80072486D01*
X145843610Y-80074584D01*
X145847819Y-80077107D01*
X145851760Y-80080029D01*
X145855395Y-80083325D01*
X145858691Y-80086960D01*
X145861613Y-80090901D01*
X145864136Y-80095110D01*
X145866234Y-80099546D01*
X145867887Y-80104166D01*
X145869079Y-80108925D01*
X145869799Y-80113779D01*
X145870040Y-80118680D01*
X145870040Y-80818680D01*
X145869799Y-80823581D01*
X145869079Y-80828435D01*
X145867887Y-80833194D01*
X145866234Y-80837814D01*
X145864136Y-80842250D01*
X145861613Y-80846459D01*
X145858691Y-80850400D01*
X145855395Y-80854035D01*
X145851760Y-80857331D01*
X145847819Y-80860253D01*
X145843610Y-80862776D01*
X145839174Y-80864874D01*
X145834554Y-80866527D01*
X145829795Y-80867719D01*
X145824941Y-80868439D01*
X145820040Y-80868680D01*
X145720040Y-80868680D01*
X145715139Y-80868439D01*
X145710285Y-80867719D01*
X145705526Y-80866527D01*
X145700906Y-80864874D01*
X145696470Y-80862776D01*
X145692261Y-80860253D01*
X145688320Y-80857331D01*
X145684685Y-80854035D01*
X145681389Y-80850400D01*
X145678467Y-80846459D01*
X145675944Y-80842250D01*
X145673846Y-80837814D01*
X145672193Y-80833194D01*
X145671001Y-80828435D01*
X145670281Y-80823581D01*
X145670040Y-80818680D01*
X145670040Y-80118680D01*
X145670281Y-80113779D01*
X145671001Y-80108925D01*
X145672193Y-80104166D01*
X145673846Y-80099546D01*
X145675944Y-80095110D01*
X145678467Y-80090901D01*
X145681389Y-80086960D01*
X145684685Y-80083325D01*
X145688320Y-80080029D01*
X145692261Y-80077107D01*
X145696470Y-80074584D01*
X145700906Y-80072486D01*
X145705526Y-80070833D01*
X145710285Y-80069641D01*
X145715139Y-80068921D01*
X145720040Y-80068680D01*
X145820040Y-80068680D01*
X145824941Y-80068921D01*
X145824941Y-80068921D01*
G37*
D20*
%TD*%
%TO.P,U1,32*%
%TO.N,D2*%
X145770040Y-80468680D03*
D13*
%TO.N,D3*%
%TO.C,U1*%
G36*
X145424941Y-80068921D02*
G01*
X145429795Y-80069641D01*
X145434554Y-80070833D01*
X145439174Y-80072486D01*
X145443610Y-80074584D01*
X145447819Y-80077107D01*
X145451760Y-80080029D01*
X145455395Y-80083325D01*
X145458691Y-80086960D01*
X145461613Y-80090901D01*
X145464136Y-80095110D01*
X145466234Y-80099546D01*
X145467887Y-80104166D01*
X145469079Y-80108925D01*
X145469799Y-80113779D01*
X145470040Y-80118680D01*
X145470040Y-80818680D01*
X145469799Y-80823581D01*
X145469079Y-80828435D01*
X145467887Y-80833194D01*
X145466234Y-80837814D01*
X145464136Y-80842250D01*
X145461613Y-80846459D01*
X145458691Y-80850400D01*
X145455395Y-80854035D01*
X145451760Y-80857331D01*
X145447819Y-80860253D01*
X145443610Y-80862776D01*
X145439174Y-80864874D01*
X145434554Y-80866527D01*
X145429795Y-80867719D01*
X145424941Y-80868439D01*
X145420040Y-80868680D01*
X145320040Y-80868680D01*
X145315139Y-80868439D01*
X145310285Y-80867719D01*
X145305526Y-80866527D01*
X145300906Y-80864874D01*
X145296470Y-80862776D01*
X145292261Y-80860253D01*
X145288320Y-80857331D01*
X145284685Y-80854035D01*
X145281389Y-80850400D01*
X145278467Y-80846459D01*
X145275944Y-80842250D01*
X145273846Y-80837814D01*
X145272193Y-80833194D01*
X145271001Y-80828435D01*
X145270281Y-80823581D01*
X145270040Y-80818680D01*
X145270040Y-80118680D01*
X145270281Y-80113779D01*
X145271001Y-80108925D01*
X145272193Y-80104166D01*
X145273846Y-80099546D01*
X145275944Y-80095110D01*
X145278467Y-80090901D01*
X145281389Y-80086960D01*
X145284685Y-80083325D01*
X145288320Y-80080029D01*
X145292261Y-80077107D01*
X145296470Y-80074584D01*
X145300906Y-80072486D01*
X145305526Y-80070833D01*
X145310285Y-80069641D01*
X145315139Y-80068921D01*
X145320040Y-80068680D01*
X145420040Y-80068680D01*
X145424941Y-80068921D01*
X145424941Y-80068921D01*
G37*
D20*
%TD*%
%TO.P,U1,33*%
%TO.N,D3*%
X145370040Y-80468680D03*
D13*
%TO.N,XC1*%
%TO.C,U1*%
G36*
X145024941Y-80068921D02*
G01*
X145029795Y-80069641D01*
X145034554Y-80070833D01*
X145039174Y-80072486D01*
X145043610Y-80074584D01*
X145047819Y-80077107D01*
X145051760Y-80080029D01*
X145055395Y-80083325D01*
X145058691Y-80086960D01*
X145061613Y-80090901D01*
X145064136Y-80095110D01*
X145066234Y-80099546D01*
X145067887Y-80104166D01*
X145069079Y-80108925D01*
X145069799Y-80113779D01*
X145070040Y-80118680D01*
X145070040Y-80818680D01*
X145069799Y-80823581D01*
X145069079Y-80828435D01*
X145067887Y-80833194D01*
X145066234Y-80837814D01*
X145064136Y-80842250D01*
X145061613Y-80846459D01*
X145058691Y-80850400D01*
X145055395Y-80854035D01*
X145051760Y-80857331D01*
X145047819Y-80860253D01*
X145043610Y-80862776D01*
X145039174Y-80864874D01*
X145034554Y-80866527D01*
X145029795Y-80867719D01*
X145024941Y-80868439D01*
X145020040Y-80868680D01*
X144920040Y-80868680D01*
X144915139Y-80868439D01*
X144910285Y-80867719D01*
X144905526Y-80866527D01*
X144900906Y-80864874D01*
X144896470Y-80862776D01*
X144892261Y-80860253D01*
X144888320Y-80857331D01*
X144884685Y-80854035D01*
X144881389Y-80850400D01*
X144878467Y-80846459D01*
X144875944Y-80842250D01*
X144873846Y-80837814D01*
X144872193Y-80833194D01*
X144871001Y-80828435D01*
X144870281Y-80823581D01*
X144870040Y-80818680D01*
X144870040Y-80118680D01*
X144870281Y-80113779D01*
X144871001Y-80108925D01*
X144872193Y-80104166D01*
X144873846Y-80099546D01*
X144875944Y-80095110D01*
X144878467Y-80090901D01*
X144881389Y-80086960D01*
X144884685Y-80083325D01*
X144888320Y-80080029D01*
X144892261Y-80077107D01*
X144896470Y-80074584D01*
X144900906Y-80072486D01*
X144905526Y-80070833D01*
X144910285Y-80069641D01*
X144915139Y-80068921D01*
X144920040Y-80068680D01*
X145020040Y-80068680D01*
X145024941Y-80068921D01*
X145024941Y-80068921D01*
G37*
D20*
%TD*%
%TO.P,U1,34*%
%TO.N,XC1*%
X144970040Y-80468680D03*
D13*
%TO.N,XC2*%
%TO.C,U1*%
G36*
X144624941Y-80068921D02*
G01*
X144629795Y-80069641D01*
X144634554Y-80070833D01*
X144639174Y-80072486D01*
X144643610Y-80074584D01*
X144647819Y-80077107D01*
X144651760Y-80080029D01*
X144655395Y-80083325D01*
X144658691Y-80086960D01*
X144661613Y-80090901D01*
X144664136Y-80095110D01*
X144666234Y-80099546D01*
X144667887Y-80104166D01*
X144669079Y-80108925D01*
X144669799Y-80113779D01*
X144670040Y-80118680D01*
X144670040Y-80818680D01*
X144669799Y-80823581D01*
X144669079Y-80828435D01*
X144667887Y-80833194D01*
X144666234Y-80837814D01*
X144664136Y-80842250D01*
X144661613Y-80846459D01*
X144658691Y-80850400D01*
X144655395Y-80854035D01*
X144651760Y-80857331D01*
X144647819Y-80860253D01*
X144643610Y-80862776D01*
X144639174Y-80864874D01*
X144634554Y-80866527D01*
X144629795Y-80867719D01*
X144624941Y-80868439D01*
X144620040Y-80868680D01*
X144520040Y-80868680D01*
X144515139Y-80868439D01*
X144510285Y-80867719D01*
X144505526Y-80866527D01*
X144500906Y-80864874D01*
X144496470Y-80862776D01*
X144492261Y-80860253D01*
X144488320Y-80857331D01*
X144484685Y-80854035D01*
X144481389Y-80850400D01*
X144478467Y-80846459D01*
X144475944Y-80842250D01*
X144473846Y-80837814D01*
X144472193Y-80833194D01*
X144471001Y-80828435D01*
X144470281Y-80823581D01*
X144470040Y-80818680D01*
X144470040Y-80118680D01*
X144470281Y-80113779D01*
X144471001Y-80108925D01*
X144472193Y-80104166D01*
X144473846Y-80099546D01*
X144475944Y-80095110D01*
X144478467Y-80090901D01*
X144481389Y-80086960D01*
X144484685Y-80083325D01*
X144488320Y-80080029D01*
X144492261Y-80077107D01*
X144496470Y-80074584D01*
X144500906Y-80072486D01*
X144505526Y-80070833D01*
X144510285Y-80069641D01*
X144515139Y-80068921D01*
X144520040Y-80068680D01*
X144620040Y-80068680D01*
X144624941Y-80068921D01*
X144624941Y-80068921D01*
G37*
D20*
%TD*%
%TO.P,U1,35*%
%TO.N,XC2*%
X144570040Y-80468680D03*
D13*
%TO.N,VDD*%
%TO.C,U1*%
G36*
X144224941Y-80068921D02*
G01*
X144229795Y-80069641D01*
X144234554Y-80070833D01*
X144239174Y-80072486D01*
X144243610Y-80074584D01*
X144247819Y-80077107D01*
X144251760Y-80080029D01*
X144255395Y-80083325D01*
X144258691Y-80086960D01*
X144261613Y-80090901D01*
X144264136Y-80095110D01*
X144266234Y-80099546D01*
X144267887Y-80104166D01*
X144269079Y-80108925D01*
X144269799Y-80113779D01*
X144270040Y-80118680D01*
X144270040Y-80818680D01*
X144269799Y-80823581D01*
X144269079Y-80828435D01*
X144267887Y-80833194D01*
X144266234Y-80837814D01*
X144264136Y-80842250D01*
X144261613Y-80846459D01*
X144258691Y-80850400D01*
X144255395Y-80854035D01*
X144251760Y-80857331D01*
X144247819Y-80860253D01*
X144243610Y-80862776D01*
X144239174Y-80864874D01*
X144234554Y-80866527D01*
X144229795Y-80867719D01*
X144224941Y-80868439D01*
X144220040Y-80868680D01*
X144120040Y-80868680D01*
X144115139Y-80868439D01*
X144110285Y-80867719D01*
X144105526Y-80866527D01*
X144100906Y-80864874D01*
X144096470Y-80862776D01*
X144092261Y-80860253D01*
X144088320Y-80857331D01*
X144084685Y-80854035D01*
X144081389Y-80850400D01*
X144078467Y-80846459D01*
X144075944Y-80842250D01*
X144073846Y-80837814D01*
X144072193Y-80833194D01*
X144071001Y-80828435D01*
X144070281Y-80823581D01*
X144070040Y-80818680D01*
X144070040Y-80118680D01*
X144070281Y-80113779D01*
X144071001Y-80108925D01*
X144072193Y-80104166D01*
X144073846Y-80099546D01*
X144075944Y-80095110D01*
X144078467Y-80090901D01*
X144081389Y-80086960D01*
X144084685Y-80083325D01*
X144088320Y-80080029D01*
X144092261Y-80077107D01*
X144096470Y-80074584D01*
X144100906Y-80072486D01*
X144105526Y-80070833D01*
X144110285Y-80069641D01*
X144115139Y-80068921D01*
X144120040Y-80068680D01*
X144220040Y-80068680D01*
X144224941Y-80068921D01*
X144224941Y-80068921D01*
G37*
D20*
%TD*%
%TO.P,U1,36*%
%TO.N,VDD*%
X144170040Y-80468680D03*
D13*
%TO.N,Net-(U1-Pad37)*%
%TO.C,U1*%
G36*
X143774941Y-81118921D02*
G01*
X143779795Y-81119641D01*
X143784554Y-81120833D01*
X143789174Y-81122486D01*
X143793610Y-81124584D01*
X143797819Y-81127107D01*
X143801760Y-81130029D01*
X143805395Y-81133325D01*
X143808691Y-81136960D01*
X143811613Y-81140901D01*
X143814136Y-81145110D01*
X143816234Y-81149546D01*
X143817887Y-81154166D01*
X143819079Y-81158925D01*
X143819799Y-81163779D01*
X143820040Y-81168680D01*
X143820040Y-81268680D01*
X143819799Y-81273581D01*
X143819079Y-81278435D01*
X143817887Y-81283194D01*
X143816234Y-81287814D01*
X143814136Y-81292250D01*
X143811613Y-81296459D01*
X143808691Y-81300400D01*
X143805395Y-81304035D01*
X143801760Y-81307331D01*
X143797819Y-81310253D01*
X143793610Y-81312776D01*
X143789174Y-81314874D01*
X143784554Y-81316527D01*
X143779795Y-81317719D01*
X143774941Y-81318439D01*
X143770040Y-81318680D01*
X143070040Y-81318680D01*
X143065139Y-81318439D01*
X143060285Y-81317719D01*
X143055526Y-81316527D01*
X143050906Y-81314874D01*
X143046470Y-81312776D01*
X143042261Y-81310253D01*
X143038320Y-81307331D01*
X143034685Y-81304035D01*
X143031389Y-81300400D01*
X143028467Y-81296459D01*
X143025944Y-81292250D01*
X143023846Y-81287814D01*
X143022193Y-81283194D01*
X143021001Y-81278435D01*
X143020281Y-81273581D01*
X143020040Y-81268680D01*
X143020040Y-81168680D01*
X143020281Y-81163779D01*
X143021001Y-81158925D01*
X143022193Y-81154166D01*
X143023846Y-81149546D01*
X143025944Y-81145110D01*
X143028467Y-81140901D01*
X143031389Y-81136960D01*
X143034685Y-81133325D01*
X143038320Y-81130029D01*
X143042261Y-81127107D01*
X143046470Y-81124584D01*
X143050906Y-81122486D01*
X143055526Y-81120833D01*
X143060285Y-81119641D01*
X143065139Y-81118921D01*
X143070040Y-81118680D01*
X143770040Y-81118680D01*
X143774941Y-81118921D01*
X143774941Y-81118921D01*
G37*
D20*
%TD*%
%TO.P,U1,37*%
%TO.N,Net-(U1-Pad37)*%
X143420040Y-81218680D03*
D13*
%TO.N,Net-(U1-Pad38)*%
%TO.C,U1*%
G36*
X143774941Y-81518921D02*
G01*
X143779795Y-81519641D01*
X143784554Y-81520833D01*
X143789174Y-81522486D01*
X143793610Y-81524584D01*
X143797819Y-81527107D01*
X143801760Y-81530029D01*
X143805395Y-81533325D01*
X143808691Y-81536960D01*
X143811613Y-81540901D01*
X143814136Y-81545110D01*
X143816234Y-81549546D01*
X143817887Y-81554166D01*
X143819079Y-81558925D01*
X143819799Y-81563779D01*
X143820040Y-81568680D01*
X143820040Y-81668680D01*
X143819799Y-81673581D01*
X143819079Y-81678435D01*
X143817887Y-81683194D01*
X143816234Y-81687814D01*
X143814136Y-81692250D01*
X143811613Y-81696459D01*
X143808691Y-81700400D01*
X143805395Y-81704035D01*
X143801760Y-81707331D01*
X143797819Y-81710253D01*
X143793610Y-81712776D01*
X143789174Y-81714874D01*
X143784554Y-81716527D01*
X143779795Y-81717719D01*
X143774941Y-81718439D01*
X143770040Y-81718680D01*
X143070040Y-81718680D01*
X143065139Y-81718439D01*
X143060285Y-81717719D01*
X143055526Y-81716527D01*
X143050906Y-81714874D01*
X143046470Y-81712776D01*
X143042261Y-81710253D01*
X143038320Y-81707331D01*
X143034685Y-81704035D01*
X143031389Y-81700400D01*
X143028467Y-81696459D01*
X143025944Y-81692250D01*
X143023846Y-81687814D01*
X143022193Y-81683194D01*
X143021001Y-81678435D01*
X143020281Y-81673581D01*
X143020040Y-81668680D01*
X143020040Y-81568680D01*
X143020281Y-81563779D01*
X143021001Y-81558925D01*
X143022193Y-81554166D01*
X143023846Y-81549546D01*
X143025944Y-81545110D01*
X143028467Y-81540901D01*
X143031389Y-81536960D01*
X143034685Y-81533325D01*
X143038320Y-81530029D01*
X143042261Y-81527107D01*
X143046470Y-81524584D01*
X143050906Y-81522486D01*
X143055526Y-81520833D01*
X143060285Y-81519641D01*
X143065139Y-81518921D01*
X143070040Y-81518680D01*
X143770040Y-81518680D01*
X143774941Y-81518921D01*
X143774941Y-81518921D01*
G37*
D20*
%TD*%
%TO.P,U1,38*%
%TO.N,Net-(U1-Pad38)*%
X143420040Y-81618680D03*
D13*
%TO.N,0.27*%
%TO.C,U1*%
G36*
X143774941Y-81918921D02*
G01*
X143779795Y-81919641D01*
X143784554Y-81920833D01*
X143789174Y-81922486D01*
X143793610Y-81924584D01*
X143797819Y-81927107D01*
X143801760Y-81930029D01*
X143805395Y-81933325D01*
X143808691Y-81936960D01*
X143811613Y-81940901D01*
X143814136Y-81945110D01*
X143816234Y-81949546D01*
X143817887Y-81954166D01*
X143819079Y-81958925D01*
X143819799Y-81963779D01*
X143820040Y-81968680D01*
X143820040Y-82068680D01*
X143819799Y-82073581D01*
X143819079Y-82078435D01*
X143817887Y-82083194D01*
X143816234Y-82087814D01*
X143814136Y-82092250D01*
X143811613Y-82096459D01*
X143808691Y-82100400D01*
X143805395Y-82104035D01*
X143801760Y-82107331D01*
X143797819Y-82110253D01*
X143793610Y-82112776D01*
X143789174Y-82114874D01*
X143784554Y-82116527D01*
X143779795Y-82117719D01*
X143774941Y-82118439D01*
X143770040Y-82118680D01*
X143070040Y-82118680D01*
X143065139Y-82118439D01*
X143060285Y-82117719D01*
X143055526Y-82116527D01*
X143050906Y-82114874D01*
X143046470Y-82112776D01*
X143042261Y-82110253D01*
X143038320Y-82107331D01*
X143034685Y-82104035D01*
X143031389Y-82100400D01*
X143028467Y-82096459D01*
X143025944Y-82092250D01*
X143023846Y-82087814D01*
X143022193Y-82083194D01*
X143021001Y-82078435D01*
X143020281Y-82073581D01*
X143020040Y-82068680D01*
X143020040Y-81968680D01*
X143020281Y-81963779D01*
X143021001Y-81958925D01*
X143022193Y-81954166D01*
X143023846Y-81949546D01*
X143025944Y-81945110D01*
X143028467Y-81940901D01*
X143031389Y-81936960D01*
X143034685Y-81933325D01*
X143038320Y-81930029D01*
X143042261Y-81927107D01*
X143046470Y-81924584D01*
X143050906Y-81922486D01*
X143055526Y-81920833D01*
X143060285Y-81919641D01*
X143065139Y-81918921D01*
X143070040Y-81918680D01*
X143770040Y-81918680D01*
X143774941Y-81918921D01*
X143774941Y-81918921D01*
G37*
D20*
%TD*%
%TO.P,U1,39*%
%TO.N,0.27*%
X143420040Y-82018680D03*
D13*
%TO.N,0.28*%
%TO.C,U1*%
G36*
X143774941Y-82318921D02*
G01*
X143779795Y-82319641D01*
X143784554Y-82320833D01*
X143789174Y-82322486D01*
X143793610Y-82324584D01*
X143797819Y-82327107D01*
X143801760Y-82330029D01*
X143805395Y-82333325D01*
X143808691Y-82336960D01*
X143811613Y-82340901D01*
X143814136Y-82345110D01*
X143816234Y-82349546D01*
X143817887Y-82354166D01*
X143819079Y-82358925D01*
X143819799Y-82363779D01*
X143820040Y-82368680D01*
X143820040Y-82468680D01*
X143819799Y-82473581D01*
X143819079Y-82478435D01*
X143817887Y-82483194D01*
X143816234Y-82487814D01*
X143814136Y-82492250D01*
X143811613Y-82496459D01*
X143808691Y-82500400D01*
X143805395Y-82504035D01*
X143801760Y-82507331D01*
X143797819Y-82510253D01*
X143793610Y-82512776D01*
X143789174Y-82514874D01*
X143784554Y-82516527D01*
X143779795Y-82517719D01*
X143774941Y-82518439D01*
X143770040Y-82518680D01*
X143070040Y-82518680D01*
X143065139Y-82518439D01*
X143060285Y-82517719D01*
X143055526Y-82516527D01*
X143050906Y-82514874D01*
X143046470Y-82512776D01*
X143042261Y-82510253D01*
X143038320Y-82507331D01*
X143034685Y-82504035D01*
X143031389Y-82500400D01*
X143028467Y-82496459D01*
X143025944Y-82492250D01*
X143023846Y-82487814D01*
X143022193Y-82483194D01*
X143021001Y-82478435D01*
X143020281Y-82473581D01*
X143020040Y-82468680D01*
X143020040Y-82368680D01*
X143020281Y-82363779D01*
X143021001Y-82358925D01*
X143022193Y-82354166D01*
X143023846Y-82349546D01*
X143025944Y-82345110D01*
X143028467Y-82340901D01*
X143031389Y-82336960D01*
X143034685Y-82333325D01*
X143038320Y-82330029D01*
X143042261Y-82327107D01*
X143046470Y-82324584D01*
X143050906Y-82322486D01*
X143055526Y-82320833D01*
X143060285Y-82319641D01*
X143065139Y-82318921D01*
X143070040Y-82318680D01*
X143770040Y-82318680D01*
X143774941Y-82318921D01*
X143774941Y-82318921D01*
G37*
D20*
%TD*%
%TO.P,U1,40*%
%TO.N,0.28*%
X143420040Y-82418680D03*
D13*
%TO.N,0.29*%
%TO.C,U1*%
G36*
X143774941Y-82718921D02*
G01*
X143779795Y-82719641D01*
X143784554Y-82720833D01*
X143789174Y-82722486D01*
X143793610Y-82724584D01*
X143797819Y-82727107D01*
X143801760Y-82730029D01*
X143805395Y-82733325D01*
X143808691Y-82736960D01*
X143811613Y-82740901D01*
X143814136Y-82745110D01*
X143816234Y-82749546D01*
X143817887Y-82754166D01*
X143819079Y-82758925D01*
X143819799Y-82763779D01*
X143820040Y-82768680D01*
X143820040Y-82868680D01*
X143819799Y-82873581D01*
X143819079Y-82878435D01*
X143817887Y-82883194D01*
X143816234Y-82887814D01*
X143814136Y-82892250D01*
X143811613Y-82896459D01*
X143808691Y-82900400D01*
X143805395Y-82904035D01*
X143801760Y-82907331D01*
X143797819Y-82910253D01*
X143793610Y-82912776D01*
X143789174Y-82914874D01*
X143784554Y-82916527D01*
X143779795Y-82917719D01*
X143774941Y-82918439D01*
X143770040Y-82918680D01*
X143070040Y-82918680D01*
X143065139Y-82918439D01*
X143060285Y-82917719D01*
X143055526Y-82916527D01*
X143050906Y-82914874D01*
X143046470Y-82912776D01*
X143042261Y-82910253D01*
X143038320Y-82907331D01*
X143034685Y-82904035D01*
X143031389Y-82900400D01*
X143028467Y-82896459D01*
X143025944Y-82892250D01*
X143023846Y-82887814D01*
X143022193Y-82883194D01*
X143021001Y-82878435D01*
X143020281Y-82873581D01*
X143020040Y-82868680D01*
X143020040Y-82768680D01*
X143020281Y-82763779D01*
X143021001Y-82758925D01*
X143022193Y-82754166D01*
X143023846Y-82749546D01*
X143025944Y-82745110D01*
X143028467Y-82740901D01*
X143031389Y-82736960D01*
X143034685Y-82733325D01*
X143038320Y-82730029D01*
X143042261Y-82727107D01*
X143046470Y-82724584D01*
X143050906Y-82722486D01*
X143055526Y-82720833D01*
X143060285Y-82719641D01*
X143065139Y-82718921D01*
X143070040Y-82718680D01*
X143770040Y-82718680D01*
X143774941Y-82718921D01*
X143774941Y-82718921D01*
G37*
D20*
%TD*%
%TO.P,U1,41*%
%TO.N,0.29*%
X143420040Y-82818680D03*
D13*
%TO.N,0.30*%
%TO.C,U1*%
G36*
X143774941Y-83118921D02*
G01*
X143779795Y-83119641D01*
X143784554Y-83120833D01*
X143789174Y-83122486D01*
X143793610Y-83124584D01*
X143797819Y-83127107D01*
X143801760Y-83130029D01*
X143805395Y-83133325D01*
X143808691Y-83136960D01*
X143811613Y-83140901D01*
X143814136Y-83145110D01*
X143816234Y-83149546D01*
X143817887Y-83154166D01*
X143819079Y-83158925D01*
X143819799Y-83163779D01*
X143820040Y-83168680D01*
X143820040Y-83268680D01*
X143819799Y-83273581D01*
X143819079Y-83278435D01*
X143817887Y-83283194D01*
X143816234Y-83287814D01*
X143814136Y-83292250D01*
X143811613Y-83296459D01*
X143808691Y-83300400D01*
X143805395Y-83304035D01*
X143801760Y-83307331D01*
X143797819Y-83310253D01*
X143793610Y-83312776D01*
X143789174Y-83314874D01*
X143784554Y-83316527D01*
X143779795Y-83317719D01*
X143774941Y-83318439D01*
X143770040Y-83318680D01*
X143070040Y-83318680D01*
X143065139Y-83318439D01*
X143060285Y-83317719D01*
X143055526Y-83316527D01*
X143050906Y-83314874D01*
X143046470Y-83312776D01*
X143042261Y-83310253D01*
X143038320Y-83307331D01*
X143034685Y-83304035D01*
X143031389Y-83300400D01*
X143028467Y-83296459D01*
X143025944Y-83292250D01*
X143023846Y-83287814D01*
X143022193Y-83283194D01*
X143021001Y-83278435D01*
X143020281Y-83273581D01*
X143020040Y-83268680D01*
X143020040Y-83168680D01*
X143020281Y-83163779D01*
X143021001Y-83158925D01*
X143022193Y-83154166D01*
X143023846Y-83149546D01*
X143025944Y-83145110D01*
X143028467Y-83140901D01*
X143031389Y-83136960D01*
X143034685Y-83133325D01*
X143038320Y-83130029D01*
X143042261Y-83127107D01*
X143046470Y-83124584D01*
X143050906Y-83122486D01*
X143055526Y-83120833D01*
X143060285Y-83119641D01*
X143065139Y-83118921D01*
X143070040Y-83118680D01*
X143770040Y-83118680D01*
X143774941Y-83118921D01*
X143774941Y-83118921D01*
G37*
D20*
%TD*%
%TO.P,U1,42*%
%TO.N,0.30*%
X143420040Y-83218680D03*
D13*
%TO.N,Net-(U1-Pad43)*%
%TO.C,U1*%
G36*
X143774941Y-83518921D02*
G01*
X143779795Y-83519641D01*
X143784554Y-83520833D01*
X143789174Y-83522486D01*
X143793610Y-83524584D01*
X143797819Y-83527107D01*
X143801760Y-83530029D01*
X143805395Y-83533325D01*
X143808691Y-83536960D01*
X143811613Y-83540901D01*
X143814136Y-83545110D01*
X143816234Y-83549546D01*
X143817887Y-83554166D01*
X143819079Y-83558925D01*
X143819799Y-83563779D01*
X143820040Y-83568680D01*
X143820040Y-83668680D01*
X143819799Y-83673581D01*
X143819079Y-83678435D01*
X143817887Y-83683194D01*
X143816234Y-83687814D01*
X143814136Y-83692250D01*
X143811613Y-83696459D01*
X143808691Y-83700400D01*
X143805395Y-83704035D01*
X143801760Y-83707331D01*
X143797819Y-83710253D01*
X143793610Y-83712776D01*
X143789174Y-83714874D01*
X143784554Y-83716527D01*
X143779795Y-83717719D01*
X143774941Y-83718439D01*
X143770040Y-83718680D01*
X143070040Y-83718680D01*
X143065139Y-83718439D01*
X143060285Y-83717719D01*
X143055526Y-83716527D01*
X143050906Y-83714874D01*
X143046470Y-83712776D01*
X143042261Y-83710253D01*
X143038320Y-83707331D01*
X143034685Y-83704035D01*
X143031389Y-83700400D01*
X143028467Y-83696459D01*
X143025944Y-83692250D01*
X143023846Y-83687814D01*
X143022193Y-83683194D01*
X143021001Y-83678435D01*
X143020281Y-83673581D01*
X143020040Y-83668680D01*
X143020040Y-83568680D01*
X143020281Y-83563779D01*
X143021001Y-83558925D01*
X143022193Y-83554166D01*
X143023846Y-83549546D01*
X143025944Y-83545110D01*
X143028467Y-83540901D01*
X143031389Y-83536960D01*
X143034685Y-83533325D01*
X143038320Y-83530029D01*
X143042261Y-83527107D01*
X143046470Y-83524584D01*
X143050906Y-83522486D01*
X143055526Y-83520833D01*
X143060285Y-83519641D01*
X143065139Y-83518921D01*
X143070040Y-83518680D01*
X143770040Y-83518680D01*
X143774941Y-83518921D01*
X143774941Y-83518921D01*
G37*
D20*
%TD*%
%TO.P,U1,43*%
%TO.N,Net-(U1-Pad43)*%
X143420040Y-83618680D03*
D13*
%TO.N,Net-(U1-Pad44)*%
%TO.C,U1*%
G36*
X143774941Y-83918921D02*
G01*
X143779795Y-83919641D01*
X143784554Y-83920833D01*
X143789174Y-83922486D01*
X143793610Y-83924584D01*
X143797819Y-83927107D01*
X143801760Y-83930029D01*
X143805395Y-83933325D01*
X143808691Y-83936960D01*
X143811613Y-83940901D01*
X143814136Y-83945110D01*
X143816234Y-83949546D01*
X143817887Y-83954166D01*
X143819079Y-83958925D01*
X143819799Y-83963779D01*
X143820040Y-83968680D01*
X143820040Y-84068680D01*
X143819799Y-84073581D01*
X143819079Y-84078435D01*
X143817887Y-84083194D01*
X143816234Y-84087814D01*
X143814136Y-84092250D01*
X143811613Y-84096459D01*
X143808691Y-84100400D01*
X143805395Y-84104035D01*
X143801760Y-84107331D01*
X143797819Y-84110253D01*
X143793610Y-84112776D01*
X143789174Y-84114874D01*
X143784554Y-84116527D01*
X143779795Y-84117719D01*
X143774941Y-84118439D01*
X143770040Y-84118680D01*
X143070040Y-84118680D01*
X143065139Y-84118439D01*
X143060285Y-84117719D01*
X143055526Y-84116527D01*
X143050906Y-84114874D01*
X143046470Y-84112776D01*
X143042261Y-84110253D01*
X143038320Y-84107331D01*
X143034685Y-84104035D01*
X143031389Y-84100400D01*
X143028467Y-84096459D01*
X143025944Y-84092250D01*
X143023846Y-84087814D01*
X143022193Y-84083194D01*
X143021001Y-84078435D01*
X143020281Y-84073581D01*
X143020040Y-84068680D01*
X143020040Y-83968680D01*
X143020281Y-83963779D01*
X143021001Y-83958925D01*
X143022193Y-83954166D01*
X143023846Y-83949546D01*
X143025944Y-83945110D01*
X143028467Y-83940901D01*
X143031389Y-83936960D01*
X143034685Y-83933325D01*
X143038320Y-83930029D01*
X143042261Y-83927107D01*
X143046470Y-83924584D01*
X143050906Y-83922486D01*
X143055526Y-83920833D01*
X143060285Y-83919641D01*
X143065139Y-83918921D01*
X143070040Y-83918680D01*
X143770040Y-83918680D01*
X143774941Y-83918921D01*
X143774941Y-83918921D01*
G37*
D20*
%TD*%
%TO.P,U1,44*%
%TO.N,Net-(U1-Pad44)*%
X143420040Y-84018680D03*
D13*
%TO.N,VSS*%
%TO.C,U1*%
G36*
X143774941Y-84318921D02*
G01*
X143779795Y-84319641D01*
X143784554Y-84320833D01*
X143789174Y-84322486D01*
X143793610Y-84324584D01*
X143797819Y-84327107D01*
X143801760Y-84330029D01*
X143805395Y-84333325D01*
X143808691Y-84336960D01*
X143811613Y-84340901D01*
X143814136Y-84345110D01*
X143816234Y-84349546D01*
X143817887Y-84354166D01*
X143819079Y-84358925D01*
X143819799Y-84363779D01*
X143820040Y-84368680D01*
X143820040Y-84468680D01*
X143819799Y-84473581D01*
X143819079Y-84478435D01*
X143817887Y-84483194D01*
X143816234Y-84487814D01*
X143814136Y-84492250D01*
X143811613Y-84496459D01*
X143808691Y-84500400D01*
X143805395Y-84504035D01*
X143801760Y-84507331D01*
X143797819Y-84510253D01*
X143793610Y-84512776D01*
X143789174Y-84514874D01*
X143784554Y-84516527D01*
X143779795Y-84517719D01*
X143774941Y-84518439D01*
X143770040Y-84518680D01*
X143070040Y-84518680D01*
X143065139Y-84518439D01*
X143060285Y-84517719D01*
X143055526Y-84516527D01*
X143050906Y-84514874D01*
X143046470Y-84512776D01*
X143042261Y-84510253D01*
X143038320Y-84507331D01*
X143034685Y-84504035D01*
X143031389Y-84500400D01*
X143028467Y-84496459D01*
X143025944Y-84492250D01*
X143023846Y-84487814D01*
X143022193Y-84483194D01*
X143021001Y-84478435D01*
X143020281Y-84473581D01*
X143020040Y-84468680D01*
X143020040Y-84368680D01*
X143020281Y-84363779D01*
X143021001Y-84358925D01*
X143022193Y-84354166D01*
X143023846Y-84349546D01*
X143025944Y-84345110D01*
X143028467Y-84340901D01*
X143031389Y-84336960D01*
X143034685Y-84333325D01*
X143038320Y-84330029D01*
X143042261Y-84327107D01*
X143046470Y-84324584D01*
X143050906Y-84322486D01*
X143055526Y-84320833D01*
X143060285Y-84319641D01*
X143065139Y-84318921D01*
X143070040Y-84318680D01*
X143770040Y-84318680D01*
X143774941Y-84318921D01*
X143774941Y-84318921D01*
G37*
D20*
%TD*%
%TO.P,U1,45*%
%TO.N,VSS*%
X143420040Y-84418680D03*
D13*
%TO.N,D4*%
%TO.C,U1*%
G36*
X143774941Y-84718921D02*
G01*
X143779795Y-84719641D01*
X143784554Y-84720833D01*
X143789174Y-84722486D01*
X143793610Y-84724584D01*
X143797819Y-84727107D01*
X143801760Y-84730029D01*
X143805395Y-84733325D01*
X143808691Y-84736960D01*
X143811613Y-84740901D01*
X143814136Y-84745110D01*
X143816234Y-84749546D01*
X143817887Y-84754166D01*
X143819079Y-84758925D01*
X143819799Y-84763779D01*
X143820040Y-84768680D01*
X143820040Y-84868680D01*
X143819799Y-84873581D01*
X143819079Y-84878435D01*
X143817887Y-84883194D01*
X143816234Y-84887814D01*
X143814136Y-84892250D01*
X143811613Y-84896459D01*
X143808691Y-84900400D01*
X143805395Y-84904035D01*
X143801760Y-84907331D01*
X143797819Y-84910253D01*
X143793610Y-84912776D01*
X143789174Y-84914874D01*
X143784554Y-84916527D01*
X143779795Y-84917719D01*
X143774941Y-84918439D01*
X143770040Y-84918680D01*
X143070040Y-84918680D01*
X143065139Y-84918439D01*
X143060285Y-84917719D01*
X143055526Y-84916527D01*
X143050906Y-84914874D01*
X143046470Y-84912776D01*
X143042261Y-84910253D01*
X143038320Y-84907331D01*
X143034685Y-84904035D01*
X143031389Y-84900400D01*
X143028467Y-84896459D01*
X143025944Y-84892250D01*
X143023846Y-84887814D01*
X143022193Y-84883194D01*
X143021001Y-84878435D01*
X143020281Y-84873581D01*
X143020040Y-84868680D01*
X143020040Y-84768680D01*
X143020281Y-84763779D01*
X143021001Y-84758925D01*
X143022193Y-84754166D01*
X143023846Y-84749546D01*
X143025944Y-84745110D01*
X143028467Y-84740901D01*
X143031389Y-84736960D01*
X143034685Y-84733325D01*
X143038320Y-84730029D01*
X143042261Y-84727107D01*
X143046470Y-84724584D01*
X143050906Y-84722486D01*
X143055526Y-84720833D01*
X143060285Y-84719641D01*
X143065139Y-84718921D01*
X143070040Y-84718680D01*
X143770040Y-84718680D01*
X143774941Y-84718921D01*
X143774941Y-84718921D01*
G37*
D20*
%TD*%
%TO.P,U1,46*%
%TO.N,D4*%
X143420040Y-84818680D03*
D13*
%TO.N,Net-(U1-Pad47)*%
%TO.C,U1*%
G36*
X143774941Y-85118921D02*
G01*
X143779795Y-85119641D01*
X143784554Y-85120833D01*
X143789174Y-85122486D01*
X143793610Y-85124584D01*
X143797819Y-85127107D01*
X143801760Y-85130029D01*
X143805395Y-85133325D01*
X143808691Y-85136960D01*
X143811613Y-85140901D01*
X143814136Y-85145110D01*
X143816234Y-85149546D01*
X143817887Y-85154166D01*
X143819079Y-85158925D01*
X143819799Y-85163779D01*
X143820040Y-85168680D01*
X143820040Y-85268680D01*
X143819799Y-85273581D01*
X143819079Y-85278435D01*
X143817887Y-85283194D01*
X143816234Y-85287814D01*
X143814136Y-85292250D01*
X143811613Y-85296459D01*
X143808691Y-85300400D01*
X143805395Y-85304035D01*
X143801760Y-85307331D01*
X143797819Y-85310253D01*
X143793610Y-85312776D01*
X143789174Y-85314874D01*
X143784554Y-85316527D01*
X143779795Y-85317719D01*
X143774941Y-85318439D01*
X143770040Y-85318680D01*
X143070040Y-85318680D01*
X143065139Y-85318439D01*
X143060285Y-85317719D01*
X143055526Y-85316527D01*
X143050906Y-85314874D01*
X143046470Y-85312776D01*
X143042261Y-85310253D01*
X143038320Y-85307331D01*
X143034685Y-85304035D01*
X143031389Y-85300400D01*
X143028467Y-85296459D01*
X143025944Y-85292250D01*
X143023846Y-85287814D01*
X143022193Y-85283194D01*
X143021001Y-85278435D01*
X143020281Y-85273581D01*
X143020040Y-85268680D01*
X143020040Y-85168680D01*
X143020281Y-85163779D01*
X143021001Y-85158925D01*
X143022193Y-85154166D01*
X143023846Y-85149546D01*
X143025944Y-85145110D01*
X143028467Y-85140901D01*
X143031389Y-85136960D01*
X143034685Y-85133325D01*
X143038320Y-85130029D01*
X143042261Y-85127107D01*
X143046470Y-85124584D01*
X143050906Y-85122486D01*
X143055526Y-85120833D01*
X143060285Y-85119641D01*
X143065139Y-85118921D01*
X143070040Y-85118680D01*
X143770040Y-85118680D01*
X143774941Y-85118921D01*
X143774941Y-85118921D01*
G37*
D20*
%TD*%
%TO.P,U1,47*%
%TO.N,Net-(U1-Pad47)*%
X143420040Y-85218680D03*
D13*
%TO.N,VDD*%
%TO.C,U1*%
G36*
X143774941Y-85518921D02*
G01*
X143779795Y-85519641D01*
X143784554Y-85520833D01*
X143789174Y-85522486D01*
X143793610Y-85524584D01*
X143797819Y-85527107D01*
X143801760Y-85530029D01*
X143805395Y-85533325D01*
X143808691Y-85536960D01*
X143811613Y-85540901D01*
X143814136Y-85545110D01*
X143816234Y-85549546D01*
X143817887Y-85554166D01*
X143819079Y-85558925D01*
X143819799Y-85563779D01*
X143820040Y-85568680D01*
X143820040Y-85668680D01*
X143819799Y-85673581D01*
X143819079Y-85678435D01*
X143817887Y-85683194D01*
X143816234Y-85687814D01*
X143814136Y-85692250D01*
X143811613Y-85696459D01*
X143808691Y-85700400D01*
X143805395Y-85704035D01*
X143801760Y-85707331D01*
X143797819Y-85710253D01*
X143793610Y-85712776D01*
X143789174Y-85714874D01*
X143784554Y-85716527D01*
X143779795Y-85717719D01*
X143774941Y-85718439D01*
X143770040Y-85718680D01*
X143070040Y-85718680D01*
X143065139Y-85718439D01*
X143060285Y-85717719D01*
X143055526Y-85716527D01*
X143050906Y-85714874D01*
X143046470Y-85712776D01*
X143042261Y-85710253D01*
X143038320Y-85707331D01*
X143034685Y-85704035D01*
X143031389Y-85700400D01*
X143028467Y-85696459D01*
X143025944Y-85692250D01*
X143023846Y-85687814D01*
X143022193Y-85683194D01*
X143021001Y-85678435D01*
X143020281Y-85673581D01*
X143020040Y-85668680D01*
X143020040Y-85568680D01*
X143020281Y-85563779D01*
X143021001Y-85558925D01*
X143022193Y-85554166D01*
X143023846Y-85549546D01*
X143025944Y-85545110D01*
X143028467Y-85540901D01*
X143031389Y-85536960D01*
X143034685Y-85533325D01*
X143038320Y-85530029D01*
X143042261Y-85527107D01*
X143046470Y-85524584D01*
X143050906Y-85522486D01*
X143055526Y-85520833D01*
X143060285Y-85519641D01*
X143065139Y-85518921D01*
X143070040Y-85518680D01*
X143770040Y-85518680D01*
X143774941Y-85518921D01*
X143774941Y-85518921D01*
G37*
D20*
%TD*%
%TO.P,U1,48*%
%TO.N,VDD*%
X143420040Y-85618680D03*
D21*
%TO.P,Y2,1*%
%TO.N,XL1*%
X142921760Y-88066880D03*
%TO.P,Y2,2*%
%TO.N,XL2*%
X144321760Y-88066880D03*
%TD*%
D22*
%TO.N,VSS*%
X143347440Y-77703680D03*
X142590520Y-75026520D03*
X150591520Y-75016360D03*
X142356840Y-84114640D03*
X146370040Y-83418680D03*
X142123160Y-86400640D03*
X141213840Y-88341200D03*
X139496800Y-90545920D03*
X145689320Y-78160880D03*
D23*
X139227560Y-74696320D03*
D22*
X149443440Y-88991440D03*
X145293080Y-89154000D03*
%TO.N,SWDCLK*%
X149240240Y-80446880D03*
%TO.N,SWDIO*%
X148722080Y-79329280D03*
%TO.N,VDD*%
X142488920Y-85613240D03*
X143565880Y-80472280D03*
X150555960Y-90505280D03*
D23*
X140731240Y-85755480D03*
X150464520Y-86420960D03*
X150281640Y-85613240D03*
X151384000Y-89468960D03*
X150388320Y-89555320D03*
D22*
%TO.N,0.28*%
X139395200Y-81335880D03*
%TO.N,0.27*%
X140446760Y-81346040D03*
%TO.N,0.08_RX*%
X148214080Y-87360760D03*
%TO.N,0.07_CTS*%
X147365720Y-87985600D03*
%TO.N,0.06_TX*%
X146248120Y-88239600D03*
%TO.N,0.05_RTS*%
X146110960Y-87391240D03*
%TD*%
D24*
%TO.N,D1*%
X144117760Y-86420960D02*
X144170040Y-86368680D01*
X143535400Y-86420960D02*
X144117760Y-86420960D01*
D25*
%TO.N,VSS*%
X146170040Y-80468680D02*
X146170040Y-79586480D01*
X145912880Y-79329320D02*
X145912880Y-78978760D01*
X146170040Y-79586480D02*
X145912880Y-79329320D01*
X144896880Y-77688480D02*
X144901920Y-77693520D01*
X144119600Y-77688480D02*
X144896880Y-77688480D01*
X144119600Y-77688480D02*
X143362640Y-77688480D01*
X143362640Y-77688480D02*
X143347440Y-77703680D01*
D26*
X143779240Y-75016360D02*
X142600680Y-75016360D01*
X142600680Y-75016360D02*
X142590520Y-75026520D01*
X149429240Y-75016360D02*
X150591520Y-75016360D01*
X143420040Y-84418680D02*
X142660880Y-84418680D01*
X142660880Y-84418680D02*
X142356840Y-84114640D01*
D24*
X146170040Y-80468680D02*
X146170040Y-83218680D01*
X146170040Y-83218680D02*
X146370040Y-83418680D01*
X142301240Y-84059040D02*
X142356840Y-84114640D01*
X141544040Y-84059040D02*
X142301240Y-84059040D01*
X142895400Y-86420960D02*
X142143480Y-86420960D01*
X142143480Y-86420960D02*
X142123160Y-86400640D01*
X141919960Y-88361480D02*
X141234120Y-88361480D01*
X141234120Y-88361480D02*
X141213840Y-88341200D01*
D27*
X137139680Y-90525600D02*
X139476480Y-90525600D01*
X139476480Y-90525600D02*
X139496800Y-90545920D01*
D25*
X139893120Y-79730600D02*
X139893120Y-79806880D01*
X139224840Y-76406000D02*
X139893120Y-75737720D01*
X139224840Y-76813040D02*
X139224840Y-76406000D01*
D24*
X145912880Y-78978760D02*
X145912880Y-78384440D01*
X145912880Y-78384440D02*
X145689320Y-78160880D01*
X145221960Y-77693520D02*
X145689320Y-78160880D01*
X144901920Y-77693520D02*
X145221960Y-77693520D01*
X139724840Y-76813040D02*
X141424840Y-78513040D01*
X139224840Y-76813040D02*
X139724840Y-76813040D01*
X139893120Y-79730600D02*
X138440160Y-79730600D01*
X138440160Y-79730600D02*
X137789920Y-79080360D01*
X137789920Y-79080360D02*
X136194800Y-79080360D01*
X136194800Y-79080360D02*
X135808720Y-78694280D01*
X135808720Y-78694280D02*
X135808720Y-76682600D01*
X135808720Y-76682600D02*
X135976360Y-76514960D01*
X138926760Y-76514960D02*
X139224840Y-76813040D01*
X135976360Y-76514960D02*
X138926760Y-76514960D01*
D28*
X139224840Y-76813040D02*
X139224840Y-74699040D01*
X139224840Y-74699040D02*
X139227560Y-74696320D01*
D26*
X149458680Y-88041680D02*
X149458680Y-88976200D01*
X149458680Y-88976200D02*
X149443440Y-88991440D01*
D24*
X145303240Y-89143840D02*
X145293080Y-89154000D01*
X145303240Y-88341200D02*
X145303240Y-89143840D01*
D25*
%TO.N,XC1*%
X141424840Y-76629440D02*
X140533120Y-75737720D01*
X141424840Y-76813040D02*
X141424840Y-76629440D01*
X144053560Y-78973680D02*
X143585480Y-78973680D01*
X143585480Y-78973680D02*
X141424840Y-76813040D01*
X144970040Y-79890160D02*
X144053560Y-78973680D01*
X144970040Y-80468680D02*
X144970040Y-79890160D01*
D26*
%TO.N,ANT*%
X146570040Y-78995920D02*
X146552880Y-78978760D01*
X146570040Y-80468680D02*
X146570040Y-78995920D01*
X146552880Y-78308560D02*
X146537680Y-78293360D01*
X146552880Y-78978760D02*
X146552880Y-78308560D01*
D25*
%TO.N,D3*%
X145370040Y-80468680D02*
X145370040Y-79812640D01*
X144119600Y-78562200D02*
X144119600Y-78328480D01*
X145370040Y-79812640D02*
X144119600Y-78562200D01*
D24*
%TO.N,D4*%
X141754400Y-84818680D02*
X141544040Y-85029040D01*
X143420040Y-84818680D02*
X141754400Y-84818680D01*
D25*
%TO.N,XL1*%
X144570040Y-86368680D02*
X144570040Y-87042400D01*
X144570040Y-87042400D02*
X144515840Y-87096600D01*
X143892040Y-87096600D02*
X142921760Y-88066880D01*
X144515840Y-87096600D02*
X143892040Y-87096600D01*
X142576360Y-87721480D02*
X142921760Y-88066880D01*
X141919960Y-87721480D02*
X142576360Y-87721480D01*
%TO.N,XL2*%
X144970040Y-87368000D02*
X145303240Y-87701200D01*
X144970040Y-86368680D02*
X144970040Y-87368000D01*
X144687440Y-87701200D02*
X144321760Y-88066880D01*
X145303240Y-87701200D02*
X144687440Y-87701200D01*
D24*
%TO.N,XC2*%
X144570040Y-80468680D02*
X144570040Y-79998160D01*
X144302480Y-79730600D02*
X140533120Y-79730600D01*
X144570040Y-79998160D02*
X144302480Y-79730600D01*
X140533120Y-79730600D02*
X140533120Y-79430880D01*
X139615280Y-78513040D02*
X139224840Y-78513040D01*
X140533120Y-79430880D02*
X139615280Y-78513040D01*
%TO.N,SWDCLK*%
X148570040Y-80468680D02*
X149218440Y-80468680D01*
X149218440Y-80468680D02*
X149240240Y-80446880D01*
%TO.N,SWDIO*%
X148170040Y-80468680D02*
X148170040Y-79881320D01*
X148170040Y-79881320D02*
X148722080Y-79329280D01*
D25*
%TO.N,D2*%
X145770040Y-80468680D02*
X145770040Y-79679240D01*
X144901920Y-78811120D02*
X144901920Y-78333520D01*
X145770040Y-79679240D02*
X144901920Y-78811120D01*
D26*
%TO.N,VDD*%
X149320040Y-86328040D02*
X149458680Y-86466680D01*
X149320040Y-85618680D02*
X149320040Y-86328040D01*
X143420040Y-85618680D02*
X142494360Y-85618680D01*
X142494360Y-85618680D02*
X142488920Y-85613240D01*
X144170040Y-80468680D02*
X143569480Y-80468680D01*
X143569480Y-80468680D02*
X143565880Y-80472280D01*
D27*
X152379680Y-90525600D02*
X150576280Y-90525600D01*
X150576280Y-90525600D02*
X150555960Y-90505280D01*
D25*
X142488920Y-85613240D02*
X141991080Y-85613240D01*
X141991080Y-85613240D02*
X141848840Y-85755480D01*
X141848840Y-85755480D02*
X140731240Y-85755480D01*
D29*
X150418800Y-86466680D02*
X150464520Y-86420960D01*
X149458680Y-86466680D02*
X150418800Y-86466680D01*
X150464520Y-85796120D02*
X150281640Y-85613240D01*
X150464520Y-86420960D02*
X150464520Y-85796120D01*
D26*
X149325480Y-85613240D02*
X149320040Y-85618680D01*
X150281640Y-85613240D02*
X149325480Y-85613240D01*
X152379680Y-90464640D02*
X151384000Y-89468960D01*
X152379680Y-90525600D02*
X152379680Y-90464640D01*
D27*
X150474680Y-89468960D02*
X150388320Y-89555320D01*
X151384000Y-89468960D02*
X150474680Y-89468960D01*
D24*
%TO.N,RESET_0.21*%
X151526600Y-81218680D02*
X152379680Y-80365600D01*
X149320040Y-81218680D02*
X151526600Y-81218680D01*
%TO.N,SWO*%
X151892760Y-82418680D02*
X152379680Y-82905600D01*
X149320040Y-82418680D02*
X151892760Y-82418680D01*
%TO.N,0.30*%
X137452760Y-83218680D02*
X137139680Y-82905600D01*
X143420040Y-83218680D02*
X137452760Y-83218680D01*
%TO.N,0.29*%
X139592760Y-82818680D02*
X137139680Y-80365600D01*
X143420040Y-82818680D02*
X139592760Y-82818680D01*
%TO.N,0.28*%
X143420040Y-82418680D02*
X140478000Y-82418680D01*
X140478000Y-82418680D02*
X139395200Y-81335880D01*
%TO.N,0.27*%
X143420040Y-82018680D02*
X141119400Y-82018680D01*
X141119400Y-82018680D02*
X140446760Y-81346040D01*
%TO.N,0.08_RX*%
X147770040Y-86368680D02*
X147770040Y-86916720D01*
X147770040Y-86916720D02*
X148214080Y-87360760D01*
%TO.N,0.07_CTS*%
X147370040Y-86368680D02*
X147370040Y-87981280D01*
X147370040Y-87981280D02*
X147365720Y-87985600D01*
%TO.N,0.06_TX*%
X146970040Y-86368680D02*
X146970040Y-87517680D01*
X146970040Y-87517680D02*
X146248120Y-88239600D01*
%TO.N,0.05_RTS*%
X146570040Y-86368680D02*
X146570040Y-86932160D01*
X146570040Y-86932160D02*
X146110960Y-87391240D01*
D26*
%TO.N,Net-(J4-Pad1)*%
X146537680Y-74882920D02*
X146604240Y-74816360D01*
X146537680Y-77653360D02*
X146537680Y-74882920D01*
%TD*%
D30*
%TO.N,VSS*%
G36*
X136310666Y-81606306D02*
G01*
X136365471Y-81635600D01*
X136310666Y-81664894D01*
X136084546Y-81850466D01*
X135898974Y-82076586D01*
X135761081Y-82334566D01*
X135676167Y-82614489D01*
X135647495Y-82905600D01*
X135676167Y-83196711D01*
X135761081Y-83476634D01*
X135898974Y-83734614D01*
X136084546Y-83960734D01*
X136310666Y-84146306D01*
X136365471Y-84175600D01*
X136310666Y-84204894D01*
X136084546Y-84390466D01*
X135898974Y-84616586D01*
X135761081Y-84874566D01*
X135676167Y-85154489D01*
X135647495Y-85445600D01*
X135676167Y-85736711D01*
X135761081Y-86016634D01*
X135898974Y-86274614D01*
X136084546Y-86500734D01*
X136310666Y-86686306D01*
X136365471Y-86715600D01*
X136310666Y-86744894D01*
X136084546Y-86930466D01*
X135898974Y-87156586D01*
X135761081Y-87414566D01*
X135676167Y-87694489D01*
X135647495Y-87985600D01*
X135676167Y-88276711D01*
X135761081Y-88556634D01*
X135898974Y-88814614D01*
X136084546Y-89040734D01*
X136114367Y-89065207D01*
X136045500Y-89086098D01*
X135935186Y-89145063D01*
X135838495Y-89224415D01*
X135759143Y-89321106D01*
X135700178Y-89431420D01*
X135663868Y-89551118D01*
X135651608Y-89675600D01*
X135654680Y-90239850D01*
X135813430Y-90398600D01*
X137012680Y-90398600D01*
X137012680Y-90378600D01*
X137266680Y-90378600D01*
X137266680Y-90398600D01*
X138465930Y-90398600D01*
X138624680Y-90239850D01*
X138627752Y-89675600D01*
X138615492Y-89551118D01*
X138579182Y-89431420D01*
X138520217Y-89321106D01*
X138440865Y-89224415D01*
X138344174Y-89145063D01*
X138233860Y-89086098D01*
X138164993Y-89065207D01*
X138194814Y-89040734D01*
X138380386Y-88814614D01*
X138518279Y-88556634D01*
X138603193Y-88276711D01*
X138631865Y-87985600D01*
X138603193Y-87694489D01*
X138518279Y-87414566D01*
X138380386Y-87156586D01*
X138194814Y-86930466D01*
X137968694Y-86744894D01*
X137913889Y-86715600D01*
X137968694Y-86686306D01*
X138194814Y-86500734D01*
X138380386Y-86274614D01*
X138518279Y-86016634D01*
X138603193Y-85736711D01*
X138631865Y-85445600D01*
X138603193Y-85154489D01*
X138518279Y-84874566D01*
X138380386Y-84616586D01*
X138194814Y-84390466D01*
X137968694Y-84204894D01*
X137913889Y-84175600D01*
X137968694Y-84146306D01*
X138172947Y-83978680D01*
X141691040Y-83978680D01*
X141691040Y-84061243D01*
X141605414Y-84069677D01*
X141518743Y-84095968D01*
X141371540Y-84095968D01*
X141218283Y-84111063D01*
X141070915Y-84155766D01*
X141014277Y-84186040D01*
X140747790Y-84186040D01*
X140589040Y-84344790D01*
X140585968Y-84354040D01*
X140598228Y-84478522D01*
X140634538Y-84598220D01*
X140638352Y-84605356D01*
X140601769Y-84725956D01*
X140429342Y-84760254D01*
X140240984Y-84838275D01*
X140071466Y-84951543D01*
X139927303Y-85095706D01*
X139814035Y-85265224D01*
X139736014Y-85453582D01*
X139696240Y-85653541D01*
X139696240Y-85857419D01*
X139736014Y-86057378D01*
X139814035Y-86245736D01*
X139927303Y-86415254D01*
X140071466Y-86559417D01*
X140240984Y-86672685D01*
X140429342Y-86750706D01*
X140629301Y-86790480D01*
X140833179Y-86790480D01*
X141033138Y-86750706D01*
X141221496Y-86672685D01*
X141391014Y-86559417D01*
X141459951Y-86490480D01*
X141812735Y-86490480D01*
X141848840Y-86494036D01*
X141884945Y-86490480D01*
X141992925Y-86479845D01*
X142006686Y-86475671D01*
X142022348Y-86486136D01*
X142030400Y-86489471D01*
X142030400Y-86547962D01*
X142135148Y-86547962D01*
X142030400Y-86652710D01*
X142043459Y-86763527D01*
X142075427Y-86858871D01*
X142019960Y-86853408D01*
X141819960Y-86853408D01*
X141675969Y-86867590D01*
X141537512Y-86909590D01*
X141409909Y-86977796D01*
X141298064Y-87069584D01*
X141206276Y-87181429D01*
X141138070Y-87309032D01*
X141096070Y-87447489D01*
X141081888Y-87591480D01*
X141081888Y-87851480D01*
X141096070Y-87995471D01*
X141097554Y-88000364D01*
X141090803Y-88025189D01*
X141084960Y-88099730D01*
X141159787Y-88174557D01*
X141206276Y-88261531D01*
X141298064Y-88373376D01*
X141409076Y-88464480D01*
X141243710Y-88464480D01*
X141084960Y-88623230D01*
X141090803Y-88697771D01*
X141123629Y-88818471D01*
X141179371Y-88930448D01*
X141255888Y-89029399D01*
X141350238Y-89111520D01*
X141458797Y-89173657D01*
X141577393Y-89213421D01*
X141688210Y-89226480D01*
X141846960Y-89067730D01*
X141846960Y-88589552D01*
X141983688Y-88589552D01*
X141983688Y-88616880D01*
X141992960Y-88711023D01*
X141992960Y-89067730D01*
X142151710Y-89226480D01*
X142262527Y-89213421D01*
X142341323Y-89187002D01*
X142377580Y-89206382D01*
X142497278Y-89242692D01*
X142621760Y-89254952D01*
X143221760Y-89254952D01*
X143346242Y-89242692D01*
X143465940Y-89206382D01*
X143576254Y-89147417D01*
X143621760Y-89110071D01*
X143667266Y-89147417D01*
X143777580Y-89206382D01*
X143897278Y-89242692D01*
X144021760Y-89254952D01*
X144621760Y-89254952D01*
X144746242Y-89242692D01*
X144865940Y-89206382D01*
X144917680Y-89178726D01*
X144960673Y-89193141D01*
X145071490Y-89206200D01*
X145230240Y-89047450D01*
X145230240Y-88798498D01*
X145247572Y-88741362D01*
X145259832Y-88616880D01*
X145259832Y-88569272D01*
X145318518Y-88569272D01*
X145375224Y-88706172D01*
X145376240Y-88707693D01*
X145376240Y-89047450D01*
X145534990Y-89206200D01*
X145645807Y-89193141D01*
X145764403Y-89153377D01*
X145813038Y-89125539D01*
X145960806Y-89186747D01*
X146151106Y-89224600D01*
X146345134Y-89224600D01*
X146535434Y-89186747D01*
X146714692Y-89112496D01*
X146876021Y-89004699D01*
X146986176Y-88894544D01*
X147078406Y-88932747D01*
X147268706Y-88970600D01*
X147462734Y-88970600D01*
X147653034Y-88932747D01*
X147832292Y-88858496D01*
X147993621Y-88750699D01*
X148130819Y-88613501D01*
X148238616Y-88452172D01*
X148282693Y-88345760D01*
X148311094Y-88345760D01*
X148348459Y-88338328D01*
X148345608Y-88479180D01*
X148357868Y-88603662D01*
X148394178Y-88723360D01*
X148453143Y-88833674D01*
X148532495Y-88930365D01*
X148629186Y-89009717D01*
X148739500Y-89068682D01*
X148859198Y-89104992D01*
X148983680Y-89117252D01*
X149172930Y-89114180D01*
X149331678Y-88955432D01*
X149331678Y-89114180D01*
X149337153Y-89114180D01*
X149334644Y-89118874D01*
X149270172Y-89331407D01*
X149266277Y-89330270D01*
X149205934Y-89324965D01*
X149178054Y-89322137D01*
X149173623Y-89322124D01*
X149136769Y-89318884D01*
X149108790Y-89321936D01*
X140420831Y-89296724D01*
X140384017Y-89293483D01*
X140323731Y-89300051D01*
X140263386Y-89305818D01*
X140259163Y-89307086D01*
X140254773Y-89307564D01*
X140196898Y-89325777D01*
X140138867Y-89343197D01*
X140134971Y-89345265D01*
X140130760Y-89346590D01*
X140077555Y-89375740D01*
X140024032Y-89404149D01*
X140020615Y-89406936D01*
X140016743Y-89409058D01*
X139970251Y-89448026D01*
X139923295Y-89486334D01*
X139920487Y-89489736D01*
X139917104Y-89492571D01*
X139879124Y-89539839D01*
X139840527Y-89586592D01*
X139838436Y-89590477D01*
X139835672Y-89593917D01*
X139807637Y-89647698D01*
X139778910Y-89701071D01*
X139777618Y-89705287D01*
X139775577Y-89709202D01*
X139758567Y-89767438D01*
X139740809Y-89825371D01*
X139740364Y-89829757D01*
X139739126Y-89833996D01*
X139733806Y-89894418D01*
X139727690Y-89954716D01*
X139731206Y-89991504D01*
X139745772Y-91398895D01*
X139734620Y-91523968D01*
X139708343Y-91613856D01*
X139665109Y-91696926D01*
X139606562Y-91770016D01*
X139534935Y-91830342D01*
X139452950Y-91875609D01*
X139363742Y-91904087D01*
X139241853Y-91917985D01*
X138316512Y-91920923D01*
X138344174Y-91906137D01*
X138440865Y-91826785D01*
X138520217Y-91730094D01*
X138579182Y-91619780D01*
X138615492Y-91500082D01*
X138627752Y-91375600D01*
X138624680Y-90811350D01*
X138465930Y-90652600D01*
X137266680Y-90652600D01*
X137266680Y-90672600D01*
X137012680Y-90672600D01*
X137012680Y-90652600D01*
X135813430Y-90652600D01*
X135654680Y-90811350D01*
X135651608Y-91375600D01*
X135663868Y-91500082D01*
X135700178Y-91619780D01*
X135759143Y-91730094D01*
X135838495Y-91826785D01*
X135935186Y-91906137D01*
X135943272Y-91910459D01*
X135874474Y-91890347D01*
X135791404Y-91847113D01*
X135718314Y-91788566D01*
X135657988Y-91716939D01*
X135612721Y-91634954D01*
X135584243Y-91545746D01*
X135570471Y-91424958D01*
X135599332Y-81513680D01*
X136197801Y-81513680D01*
X136310666Y-81606306D01*
X136310666Y-81606306D01*
G37*
X136310666Y-81606306D02*
X136365471Y-81635600D01*
X136310666Y-81664894D01*
X136084546Y-81850466D01*
X135898974Y-82076586D01*
X135761081Y-82334566D01*
X135676167Y-82614489D01*
X135647495Y-82905600D01*
X135676167Y-83196711D01*
X135761081Y-83476634D01*
X135898974Y-83734614D01*
X136084546Y-83960734D01*
X136310666Y-84146306D01*
X136365471Y-84175600D01*
X136310666Y-84204894D01*
X136084546Y-84390466D01*
X135898974Y-84616586D01*
X135761081Y-84874566D01*
X135676167Y-85154489D01*
X135647495Y-85445600D01*
X135676167Y-85736711D01*
X135761081Y-86016634D01*
X135898974Y-86274614D01*
X136084546Y-86500734D01*
X136310666Y-86686306D01*
X136365471Y-86715600D01*
X136310666Y-86744894D01*
X136084546Y-86930466D01*
X135898974Y-87156586D01*
X135761081Y-87414566D01*
X135676167Y-87694489D01*
X135647495Y-87985600D01*
X135676167Y-88276711D01*
X135761081Y-88556634D01*
X135898974Y-88814614D01*
X136084546Y-89040734D01*
X136114367Y-89065207D01*
X136045500Y-89086098D01*
X135935186Y-89145063D01*
X135838495Y-89224415D01*
X135759143Y-89321106D01*
X135700178Y-89431420D01*
X135663868Y-89551118D01*
X135651608Y-89675600D01*
X135654680Y-90239850D01*
X135813430Y-90398600D01*
X137012680Y-90398600D01*
X137012680Y-90378600D01*
X137266680Y-90378600D01*
X137266680Y-90398600D01*
X138465930Y-90398600D01*
X138624680Y-90239850D01*
X138627752Y-89675600D01*
X138615492Y-89551118D01*
X138579182Y-89431420D01*
X138520217Y-89321106D01*
X138440865Y-89224415D01*
X138344174Y-89145063D01*
X138233860Y-89086098D01*
X138164993Y-89065207D01*
X138194814Y-89040734D01*
X138380386Y-88814614D01*
X138518279Y-88556634D01*
X138603193Y-88276711D01*
X138631865Y-87985600D01*
X138603193Y-87694489D01*
X138518279Y-87414566D01*
X138380386Y-87156586D01*
X138194814Y-86930466D01*
X137968694Y-86744894D01*
X137913889Y-86715600D01*
X137968694Y-86686306D01*
X138194814Y-86500734D01*
X138380386Y-86274614D01*
X138518279Y-86016634D01*
X138603193Y-85736711D01*
X138631865Y-85445600D01*
X138603193Y-85154489D01*
X138518279Y-84874566D01*
X138380386Y-84616586D01*
X138194814Y-84390466D01*
X137968694Y-84204894D01*
X137913889Y-84175600D01*
X137968694Y-84146306D01*
X138172947Y-83978680D01*
X141691040Y-83978680D01*
X141691040Y-84061243D01*
X141605414Y-84069677D01*
X141518743Y-84095968D01*
X141371540Y-84095968D01*
X141218283Y-84111063D01*
X141070915Y-84155766D01*
X141014277Y-84186040D01*
X140747790Y-84186040D01*
X140589040Y-84344790D01*
X140585968Y-84354040D01*
X140598228Y-84478522D01*
X140634538Y-84598220D01*
X140638352Y-84605356D01*
X140601769Y-84725956D01*
X140429342Y-84760254D01*
X140240984Y-84838275D01*
X140071466Y-84951543D01*
X139927303Y-85095706D01*
X139814035Y-85265224D01*
X139736014Y-85453582D01*
X139696240Y-85653541D01*
X139696240Y-85857419D01*
X139736014Y-86057378D01*
X139814035Y-86245736D01*
X139927303Y-86415254D01*
X140071466Y-86559417D01*
X140240984Y-86672685D01*
X140429342Y-86750706D01*
X140629301Y-86790480D01*
X140833179Y-86790480D01*
X141033138Y-86750706D01*
X141221496Y-86672685D01*
X141391014Y-86559417D01*
X141459951Y-86490480D01*
X141812735Y-86490480D01*
X141848840Y-86494036D01*
X141884945Y-86490480D01*
X141992925Y-86479845D01*
X142006686Y-86475671D01*
X142022348Y-86486136D01*
X142030400Y-86489471D01*
X142030400Y-86547962D01*
X142135148Y-86547962D01*
X142030400Y-86652710D01*
X142043459Y-86763527D01*
X142075427Y-86858871D01*
X142019960Y-86853408D01*
X141819960Y-86853408D01*
X141675969Y-86867590D01*
X141537512Y-86909590D01*
X141409909Y-86977796D01*
X141298064Y-87069584D01*
X141206276Y-87181429D01*
X141138070Y-87309032D01*
X141096070Y-87447489D01*
X141081888Y-87591480D01*
X141081888Y-87851480D01*
X141096070Y-87995471D01*
X141097554Y-88000364D01*
X141090803Y-88025189D01*
X141084960Y-88099730D01*
X141159787Y-88174557D01*
X141206276Y-88261531D01*
X141298064Y-88373376D01*
X141409076Y-88464480D01*
X141243710Y-88464480D01*
X141084960Y-88623230D01*
X141090803Y-88697771D01*
X141123629Y-88818471D01*
X141179371Y-88930448D01*
X141255888Y-89029399D01*
X141350238Y-89111520D01*
X141458797Y-89173657D01*
X141577393Y-89213421D01*
X141688210Y-89226480D01*
X141846960Y-89067730D01*
X141846960Y-88589552D01*
X141983688Y-88589552D01*
X141983688Y-88616880D01*
X141992960Y-88711023D01*
X141992960Y-89067730D01*
X142151710Y-89226480D01*
X142262527Y-89213421D01*
X142341323Y-89187002D01*
X142377580Y-89206382D01*
X142497278Y-89242692D01*
X142621760Y-89254952D01*
X143221760Y-89254952D01*
X143346242Y-89242692D01*
X143465940Y-89206382D01*
X143576254Y-89147417D01*
X143621760Y-89110071D01*
X143667266Y-89147417D01*
X143777580Y-89206382D01*
X143897278Y-89242692D01*
X144021760Y-89254952D01*
X144621760Y-89254952D01*
X144746242Y-89242692D01*
X144865940Y-89206382D01*
X144917680Y-89178726D01*
X144960673Y-89193141D01*
X145071490Y-89206200D01*
X145230240Y-89047450D01*
X145230240Y-88798498D01*
X145247572Y-88741362D01*
X145259832Y-88616880D01*
X145259832Y-88569272D01*
X145318518Y-88569272D01*
X145375224Y-88706172D01*
X145376240Y-88707693D01*
X145376240Y-89047450D01*
X145534990Y-89206200D01*
X145645807Y-89193141D01*
X145764403Y-89153377D01*
X145813038Y-89125539D01*
X145960806Y-89186747D01*
X146151106Y-89224600D01*
X146345134Y-89224600D01*
X146535434Y-89186747D01*
X146714692Y-89112496D01*
X146876021Y-89004699D01*
X146986176Y-88894544D01*
X147078406Y-88932747D01*
X147268706Y-88970600D01*
X147462734Y-88970600D01*
X147653034Y-88932747D01*
X147832292Y-88858496D01*
X147993621Y-88750699D01*
X148130819Y-88613501D01*
X148238616Y-88452172D01*
X148282693Y-88345760D01*
X148311094Y-88345760D01*
X148348459Y-88338328D01*
X148345608Y-88479180D01*
X148357868Y-88603662D01*
X148394178Y-88723360D01*
X148453143Y-88833674D01*
X148532495Y-88930365D01*
X148629186Y-89009717D01*
X148739500Y-89068682D01*
X148859198Y-89104992D01*
X148983680Y-89117252D01*
X149172930Y-89114180D01*
X149331678Y-88955432D01*
X149331678Y-89114180D01*
X149337153Y-89114180D01*
X149334644Y-89118874D01*
X149270172Y-89331407D01*
X149266277Y-89330270D01*
X149205934Y-89324965D01*
X149178054Y-89322137D01*
X149173623Y-89322124D01*
X149136769Y-89318884D01*
X149108790Y-89321936D01*
X140420831Y-89296724D01*
X140384017Y-89293483D01*
X140323731Y-89300051D01*
X140263386Y-89305818D01*
X140259163Y-89307086D01*
X140254773Y-89307564D01*
X140196898Y-89325777D01*
X140138867Y-89343197D01*
X140134971Y-89345265D01*
X140130760Y-89346590D01*
X140077555Y-89375740D01*
X140024032Y-89404149D01*
X140020615Y-89406936D01*
X140016743Y-89409058D01*
X139970251Y-89448026D01*
X139923295Y-89486334D01*
X139920487Y-89489736D01*
X139917104Y-89492571D01*
X139879124Y-89539839D01*
X139840527Y-89586592D01*
X139838436Y-89590477D01*
X139835672Y-89593917D01*
X139807637Y-89647698D01*
X139778910Y-89701071D01*
X139777618Y-89705287D01*
X139775577Y-89709202D01*
X139758567Y-89767438D01*
X139740809Y-89825371D01*
X139740364Y-89829757D01*
X139739126Y-89833996D01*
X139733806Y-89894418D01*
X139727690Y-89954716D01*
X139731206Y-89991504D01*
X139745772Y-91398895D01*
X139734620Y-91523968D01*
X139708343Y-91613856D01*
X139665109Y-91696926D01*
X139606562Y-91770016D01*
X139534935Y-91830342D01*
X139452950Y-91875609D01*
X139363742Y-91904087D01*
X139241853Y-91917985D01*
X138316512Y-91920923D01*
X138344174Y-91906137D01*
X138440865Y-91826785D01*
X138520217Y-91730094D01*
X138579182Y-91619780D01*
X138615492Y-91500082D01*
X138627752Y-91375600D01*
X138624680Y-90811350D01*
X138465930Y-90652600D01*
X137266680Y-90652600D01*
X137266680Y-90672600D01*
X137012680Y-90672600D01*
X137012680Y-90652600D01*
X135813430Y-90652600D01*
X135654680Y-90811350D01*
X135651608Y-91375600D01*
X135663868Y-91500082D01*
X135700178Y-91619780D01*
X135759143Y-91730094D01*
X135838495Y-91826785D01*
X135935186Y-91906137D01*
X135943272Y-91910459D01*
X135874474Y-91890347D01*
X135791404Y-91847113D01*
X135718314Y-91788566D01*
X135657988Y-91716939D01*
X135612721Y-91634954D01*
X135584243Y-91545746D01*
X135570471Y-91424958D01*
X135599332Y-81513680D01*
X136197801Y-81513680D01*
X136310666Y-81606306D01*
G36*
X151001081Y-87414566D02*
G01*
X150916167Y-87694489D01*
X150887495Y-87985600D01*
X150916167Y-88276711D01*
X150933533Y-88333960D01*
X150568812Y-88333960D01*
X150568680Y-88327430D01*
X150409930Y-88168680D01*
X149585680Y-88168680D01*
X149585680Y-88188680D01*
X149331680Y-88188680D01*
X149331680Y-88168680D01*
X149311680Y-88168680D01*
X149311680Y-87914680D01*
X149331680Y-87914680D01*
X149331680Y-87894680D01*
X149585680Y-87894680D01*
X149585680Y-87914680D01*
X150409930Y-87914680D01*
X150568680Y-87755930D01*
X150571752Y-87604180D01*
X150559492Y-87479698D01*
X150552291Y-87455960D01*
X150566459Y-87455960D01*
X150766418Y-87416186D01*
X150954776Y-87338165D01*
X151090331Y-87247590D01*
X151001081Y-87414566D01*
X151001081Y-87414566D01*
G37*
X151001081Y-87414566D02*
X150916167Y-87694489D01*
X150887495Y-87985600D01*
X150916167Y-88276711D01*
X150933533Y-88333960D01*
X150568812Y-88333960D01*
X150568680Y-88327430D01*
X150409930Y-88168680D01*
X149585680Y-88168680D01*
X149585680Y-88188680D01*
X149331680Y-88188680D01*
X149331680Y-88168680D01*
X149311680Y-88168680D01*
X149311680Y-87914680D01*
X149331680Y-87914680D01*
X149331680Y-87894680D01*
X149585680Y-87894680D01*
X149585680Y-87914680D01*
X150409930Y-87914680D01*
X150568680Y-87755930D01*
X150571752Y-87604180D01*
X150559492Y-87479698D01*
X150552291Y-87455960D01*
X150566459Y-87455960D01*
X150766418Y-87416186D01*
X150954776Y-87338165D01*
X151090331Y-87247590D01*
X151001081Y-87414566D01*
G36*
X146497040Y-83291680D02*
G01*
X146517040Y-83291680D01*
X146517040Y-83545680D01*
X146497040Y-83545680D01*
X146497040Y-83565680D01*
X146243040Y-83565680D01*
X146243040Y-83545680D01*
X146223040Y-83545680D01*
X146223040Y-83291680D01*
X146243040Y-83291680D01*
X146243040Y-83271680D01*
X146497040Y-83271680D01*
X146497040Y-83291680D01*
X146497040Y-83291680D01*
G37*
X146497040Y-83291680D02*
X146517040Y-83291680D01*
X146517040Y-83545680D01*
X146497040Y-83545680D01*
X146497040Y-83565680D01*
X146243040Y-83565680D01*
X146243040Y-83545680D01*
X146223040Y-83545680D01*
X146223040Y-83291680D01*
X146243040Y-83291680D01*
X146243040Y-83271680D01*
X146497040Y-83271680D01*
X146497040Y-83291680D01*
%TD*%
M02*
