%TF.GenerationSoftware,KiCad,Pcbnew,(5.1.2)-2*%
%TF.CreationDate,2021-02-26T22:53:36+01:00*%
%TF.ProjectId,NRF52_Basic,4e524635-325f-4426-9173-69632e6b6963,V1*%
%TF.SameCoordinates,Original*%
%TF.FileFunction,Copper,L4,Bot*%
%TF.FilePolarity,Positive*%
%FSLAX46Y46*%
G04 Gerber Fmt 4.6, Leading zero omitted, Abs format (unit mm)*
G04 Created by KiCad (PCBNEW (5.1.2)-2) date 2021-02-26 22:53:36*
%MOMM*%
%LPD*%
G04 APERTURE LIST*
%TA.AperFunction,SMDPad,CuDef*%
%ADD10R,1.350000X4.200000*%
%TD*%
%TA.AperFunction,ComponentPad*%
%ADD11O,1.700000X1.700000*%
%TD*%
%TA.AperFunction,ComponentPad*%
%ADD12R,1.700000X1.700000*%
%TD*%
%TA.AperFunction,ViaPad*%
%ADD13C,0.700000*%
%TD*%
%TA.AperFunction,ViaPad*%
%ADD14C,0.800000*%
%TD*%
%TA.AperFunction,Conductor*%
%ADD15C,0.250000*%
%TD*%
%TA.AperFunction,Conductor*%
%ADD16C,0.254000*%
%TD*%
G04 APERTURE END LIST*
D10*
%TO.P,J4,2*%
%TO.N,VSS*%
X149429240Y-75016360D03*
X143779240Y-75016360D03*
%TD*%
D11*
%TO.P,J2,7*%
%TO.N,0.27*%
X137139680Y-75285600D03*
%TO.P,J2,6*%
%TO.N,0.28*%
X137139680Y-77825600D03*
%TO.P,J2,5*%
%TO.N,0.29*%
X137139680Y-80365600D03*
%TO.P,J2,4*%
%TO.N,0.30*%
X137139680Y-82905600D03*
%TO.P,J2,3*%
%TO.N,0.05_RTS*%
X137139680Y-85445600D03*
%TO.P,J2,2*%
%TO.N,0.06_TX*%
X137139680Y-87985600D03*
D12*
%TO.P,J2,1*%
%TO.N,VSS*%
X137139680Y-90525600D03*
%TD*%
D11*
%TO.P,J1,7*%
%TO.N,VDD*%
X152379680Y-90525600D03*
%TO.P,J1,6*%
%TO.N,0.07_CTS*%
X152379680Y-87985600D03*
%TO.P,J1,5*%
%TO.N,0.08_RX*%
X152379680Y-85445600D03*
%TO.P,J1,4*%
%TO.N,SWO*%
X152379680Y-82905600D03*
%TO.P,J1,3*%
%TO.N,RESET_0.21*%
X152379680Y-80365600D03*
%TO.P,J1,2*%
%TO.N,SWDCLK*%
X152379680Y-77825600D03*
D12*
%TO.P,J1,1*%
%TO.N,SWDIO*%
X152379680Y-75285600D03*
%TD*%
D13*
%TO.N,VSS*%
X143347440Y-77703680D03*
X142590520Y-75026520D03*
X150591520Y-75016360D03*
X142356840Y-84114640D03*
X146370040Y-83418680D03*
X142123160Y-86400640D03*
X141213840Y-88341200D03*
X139496800Y-90545920D03*
X145689320Y-78160880D03*
D14*
X139227560Y-74696320D03*
D13*
X149443440Y-88991440D03*
X145293080Y-89154000D03*
%TO.N,SWDCLK*%
X149240240Y-80446880D03*
%TO.N,SWDIO*%
X148722080Y-79329280D03*
%TO.N,VDD*%
X142488920Y-85613240D03*
X143565880Y-80472280D03*
X150555960Y-90505280D03*
D14*
X140731240Y-85755480D03*
X150464520Y-86420960D03*
X150281640Y-85613240D03*
X151384000Y-89468960D03*
X150388320Y-89555320D03*
D13*
%TO.N,0.28*%
X139395200Y-81335880D03*
%TO.N,0.27*%
X140446760Y-81346040D03*
%TO.N,0.08_RX*%
X148214080Y-87360760D03*
%TO.N,0.07_CTS*%
X147365720Y-87985600D03*
%TO.N,0.06_TX*%
X146248120Y-88239600D03*
%TO.N,0.05_RTS*%
X146110960Y-87391240D03*
%TD*%
D15*
%TO.N,SWDCLK*%
X151861520Y-77825600D02*
X152379680Y-77825600D01*
X149240240Y-80446880D02*
X151861520Y-77825600D01*
%TO.N,SWDIO*%
X148722080Y-79329280D02*
X149138640Y-78912720D01*
X149138640Y-78912720D02*
X150114000Y-78912720D01*
X150114000Y-78912720D02*
X151124920Y-77901800D01*
X151124920Y-77901800D02*
X151124920Y-77322680D01*
X152393360Y-76054240D02*
X152393360Y-75343710D01*
X151124920Y-77322680D02*
X152393360Y-76054240D01*
%TO.N,0.28*%
X139395200Y-81335880D02*
X138582400Y-80523080D01*
X138582400Y-79268320D02*
X137139680Y-77825600D01*
X138582400Y-80523080D02*
X138582400Y-79268320D01*
%TO.N,0.27*%
X140446760Y-81346040D02*
X139115800Y-80015080D01*
X139115800Y-80015080D02*
X139115800Y-77972920D01*
X137133494Y-75990614D02*
X137133494Y-75311591D01*
X139115800Y-77972920D02*
X137133494Y-75990614D01*
%TO.N,0.08_RX*%
X148214080Y-87360760D02*
X148224240Y-87370920D01*
X150454360Y-87370920D02*
X152379680Y-85445600D01*
X148224240Y-87370920D02*
X150454360Y-87370920D01*
%TO.N,0.07_CTS*%
X147365720Y-87985600D02*
X152379680Y-87985600D01*
%TO.N,0.06_TX*%
X146248120Y-88239600D02*
X146121120Y-88366600D01*
X146121120Y-88366600D02*
X142234920Y-88366600D01*
X142234920Y-88366600D02*
X141290040Y-89311480D01*
X138465560Y-89311480D02*
X137139680Y-87985600D01*
X141290040Y-89311480D02*
X138465560Y-89311480D01*
%TO.N,0.05_RTS*%
X146110960Y-87391240D02*
X145745200Y-87025480D01*
X138719560Y-87025480D02*
X137139680Y-85445600D01*
X145745200Y-87025480D02*
X138719560Y-87025480D01*
%TD*%
D16*
%TO.N,VDD*%
G36*
X153671928Y-73452660D02*
G01*
X153761815Y-73478936D01*
X153844887Y-73522172D01*
X153917975Y-73580716D01*
X153978302Y-73652345D01*
X154023568Y-73734329D01*
X154052047Y-73823538D01*
X154065825Y-73944376D01*
X154020193Y-91404781D01*
X154008660Y-91534128D01*
X153982383Y-91624016D01*
X153939149Y-91707086D01*
X153880602Y-91780176D01*
X153808975Y-91840502D01*
X153726990Y-91885769D01*
X153637782Y-91914247D01*
X153516179Y-91928112D01*
X152843448Y-91929169D01*
X153010932Y-91869757D01*
X153261035Y-91720778D01*
X153477268Y-91525869D01*
X153651321Y-91292520D01*
X153776505Y-91029699D01*
X153821156Y-90882490D01*
X153699835Y-90652600D01*
X152506680Y-90652600D01*
X152506680Y-90672600D01*
X152252680Y-90672600D01*
X152252680Y-90652600D01*
X151059525Y-90652600D01*
X150938204Y-90882490D01*
X150982855Y-91029699D01*
X151108039Y-91292520D01*
X151282092Y-91525869D01*
X151498325Y-91720778D01*
X151748428Y-91869757D01*
X151920000Y-91930619D01*
X150333723Y-91933110D01*
X150208758Y-91920857D01*
X150119112Y-91893791D01*
X150036424Y-91849825D01*
X149963852Y-91790637D01*
X149904159Y-91718480D01*
X149859619Y-91636106D01*
X149831926Y-91546644D01*
X149818853Y-91422262D01*
X149804069Y-90011973D01*
X149806910Y-89983964D01*
X149803389Y-89947124D01*
X149803343Y-89942705D01*
X149800308Y-89914878D01*
X149799839Y-89909971D01*
X149910012Y-89864336D01*
X150071341Y-89756539D01*
X150208539Y-89619341D01*
X150316336Y-89458012D01*
X150390587Y-89278754D01*
X150428440Y-89088454D01*
X150428440Y-88894426D01*
X150398837Y-88745600D01*
X151102085Y-88745600D01*
X151138974Y-88814614D01*
X151324546Y-89040734D01*
X151550666Y-89226306D01*
X151615203Y-89260801D01*
X151498325Y-89330422D01*
X151282092Y-89525331D01*
X151108039Y-89758680D01*
X150982855Y-90021501D01*
X150938204Y-90168710D01*
X151059525Y-90398600D01*
X152252680Y-90398600D01*
X152252680Y-90378600D01*
X152506680Y-90378600D01*
X152506680Y-90398600D01*
X153699835Y-90398600D01*
X153821156Y-90168710D01*
X153776505Y-90021501D01*
X153651321Y-89758680D01*
X153477268Y-89525331D01*
X153261035Y-89330422D01*
X153144157Y-89260801D01*
X153208694Y-89226306D01*
X153434814Y-89040734D01*
X153620386Y-88814614D01*
X153758279Y-88556634D01*
X153843193Y-88276711D01*
X153871865Y-87985600D01*
X153843193Y-87694489D01*
X153758279Y-87414566D01*
X153620386Y-87156586D01*
X153434814Y-86930466D01*
X153208694Y-86744894D01*
X153153889Y-86715600D01*
X153208694Y-86686306D01*
X153434814Y-86500734D01*
X153620386Y-86274614D01*
X153758279Y-86016634D01*
X153843193Y-85736711D01*
X153871865Y-85445600D01*
X153843193Y-85154489D01*
X153758279Y-84874566D01*
X153620386Y-84616586D01*
X153434814Y-84390466D01*
X153208694Y-84204894D01*
X153153889Y-84175600D01*
X153208694Y-84146306D01*
X153434814Y-83960734D01*
X153620386Y-83734614D01*
X153758279Y-83476634D01*
X153843193Y-83196711D01*
X153871865Y-82905600D01*
X153843193Y-82614489D01*
X153758279Y-82334566D01*
X153620386Y-82076586D01*
X153434814Y-81850466D01*
X153208694Y-81664894D01*
X153153889Y-81635600D01*
X153208694Y-81606306D01*
X153434814Y-81420734D01*
X153620386Y-81194614D01*
X153758279Y-80936634D01*
X153843193Y-80656711D01*
X153871865Y-80365600D01*
X153843193Y-80074489D01*
X153758279Y-79794566D01*
X153620386Y-79536586D01*
X153434814Y-79310466D01*
X153208694Y-79124894D01*
X153153889Y-79095600D01*
X153208694Y-79066306D01*
X153434814Y-78880734D01*
X153620386Y-78654614D01*
X153758279Y-78396634D01*
X153843193Y-78116711D01*
X153871865Y-77825600D01*
X153843193Y-77534489D01*
X153758279Y-77254566D01*
X153620386Y-76996586D01*
X153434814Y-76770466D01*
X153404993Y-76745993D01*
X153473860Y-76725102D01*
X153584174Y-76666137D01*
X153680865Y-76586785D01*
X153760217Y-76490094D01*
X153819182Y-76379780D01*
X153855492Y-76260082D01*
X153867752Y-76135600D01*
X153867752Y-74435600D01*
X153855492Y-74311118D01*
X153819182Y-74191420D01*
X153760217Y-74081106D01*
X153680865Y-73984415D01*
X153584174Y-73905063D01*
X153473860Y-73846098D01*
X153354162Y-73809788D01*
X153229680Y-73797528D01*
X151529680Y-73797528D01*
X151405198Y-73809788D01*
X151285500Y-73846098D01*
X151175186Y-73905063D01*
X151078495Y-73984415D01*
X150999143Y-74081106D01*
X150982539Y-74112169D01*
X150878834Y-74069213D01*
X150742312Y-74042057D01*
X150742312Y-73454374D01*
X153544977Y-73441340D01*
X153671928Y-73452660D01*
X153671928Y-73452660D01*
G37*
X153671928Y-73452660D02*
X153761815Y-73478936D01*
X153844887Y-73522172D01*
X153917975Y-73580716D01*
X153978302Y-73652345D01*
X154023568Y-73734329D01*
X154052047Y-73823538D01*
X154065825Y-73944376D01*
X154020193Y-91404781D01*
X154008660Y-91534128D01*
X153982383Y-91624016D01*
X153939149Y-91707086D01*
X153880602Y-91780176D01*
X153808975Y-91840502D01*
X153726990Y-91885769D01*
X153637782Y-91914247D01*
X153516179Y-91928112D01*
X152843448Y-91929169D01*
X153010932Y-91869757D01*
X153261035Y-91720778D01*
X153477268Y-91525869D01*
X153651321Y-91292520D01*
X153776505Y-91029699D01*
X153821156Y-90882490D01*
X153699835Y-90652600D01*
X152506680Y-90652600D01*
X152506680Y-90672600D01*
X152252680Y-90672600D01*
X152252680Y-90652600D01*
X151059525Y-90652600D01*
X150938204Y-90882490D01*
X150982855Y-91029699D01*
X151108039Y-91292520D01*
X151282092Y-91525869D01*
X151498325Y-91720778D01*
X151748428Y-91869757D01*
X151920000Y-91930619D01*
X150333723Y-91933110D01*
X150208758Y-91920857D01*
X150119112Y-91893791D01*
X150036424Y-91849825D01*
X149963852Y-91790637D01*
X149904159Y-91718480D01*
X149859619Y-91636106D01*
X149831926Y-91546644D01*
X149818853Y-91422262D01*
X149804069Y-90011973D01*
X149806910Y-89983964D01*
X149803389Y-89947124D01*
X149803343Y-89942705D01*
X149800308Y-89914878D01*
X149799839Y-89909971D01*
X149910012Y-89864336D01*
X150071341Y-89756539D01*
X150208539Y-89619341D01*
X150316336Y-89458012D01*
X150390587Y-89278754D01*
X150428440Y-89088454D01*
X150428440Y-88894426D01*
X150398837Y-88745600D01*
X151102085Y-88745600D01*
X151138974Y-88814614D01*
X151324546Y-89040734D01*
X151550666Y-89226306D01*
X151615203Y-89260801D01*
X151498325Y-89330422D01*
X151282092Y-89525331D01*
X151108039Y-89758680D01*
X150982855Y-90021501D01*
X150938204Y-90168710D01*
X151059525Y-90398600D01*
X152252680Y-90398600D01*
X152252680Y-90378600D01*
X152506680Y-90378600D01*
X152506680Y-90398600D01*
X153699835Y-90398600D01*
X153821156Y-90168710D01*
X153776505Y-90021501D01*
X153651321Y-89758680D01*
X153477268Y-89525331D01*
X153261035Y-89330422D01*
X153144157Y-89260801D01*
X153208694Y-89226306D01*
X153434814Y-89040734D01*
X153620386Y-88814614D01*
X153758279Y-88556634D01*
X153843193Y-88276711D01*
X153871865Y-87985600D01*
X153843193Y-87694489D01*
X153758279Y-87414566D01*
X153620386Y-87156586D01*
X153434814Y-86930466D01*
X153208694Y-86744894D01*
X153153889Y-86715600D01*
X153208694Y-86686306D01*
X153434814Y-86500734D01*
X153620386Y-86274614D01*
X153758279Y-86016634D01*
X153843193Y-85736711D01*
X153871865Y-85445600D01*
X153843193Y-85154489D01*
X153758279Y-84874566D01*
X153620386Y-84616586D01*
X153434814Y-84390466D01*
X153208694Y-84204894D01*
X153153889Y-84175600D01*
X153208694Y-84146306D01*
X153434814Y-83960734D01*
X153620386Y-83734614D01*
X153758279Y-83476634D01*
X153843193Y-83196711D01*
X153871865Y-82905600D01*
X153843193Y-82614489D01*
X153758279Y-82334566D01*
X153620386Y-82076586D01*
X153434814Y-81850466D01*
X153208694Y-81664894D01*
X153153889Y-81635600D01*
X153208694Y-81606306D01*
X153434814Y-81420734D01*
X153620386Y-81194614D01*
X153758279Y-80936634D01*
X153843193Y-80656711D01*
X153871865Y-80365600D01*
X153843193Y-80074489D01*
X153758279Y-79794566D01*
X153620386Y-79536586D01*
X153434814Y-79310466D01*
X153208694Y-79124894D01*
X153153889Y-79095600D01*
X153208694Y-79066306D01*
X153434814Y-78880734D01*
X153620386Y-78654614D01*
X153758279Y-78396634D01*
X153843193Y-78116711D01*
X153871865Y-77825600D01*
X153843193Y-77534489D01*
X153758279Y-77254566D01*
X153620386Y-76996586D01*
X153434814Y-76770466D01*
X153404993Y-76745993D01*
X153473860Y-76725102D01*
X153584174Y-76666137D01*
X153680865Y-76586785D01*
X153760217Y-76490094D01*
X153819182Y-76379780D01*
X153855492Y-76260082D01*
X153867752Y-76135600D01*
X153867752Y-74435600D01*
X153855492Y-74311118D01*
X153819182Y-74191420D01*
X153760217Y-74081106D01*
X153680865Y-73984415D01*
X153584174Y-73905063D01*
X153473860Y-73846098D01*
X153354162Y-73809788D01*
X153229680Y-73797528D01*
X151529680Y-73797528D01*
X151405198Y-73809788D01*
X151285500Y-73846098D01*
X151175186Y-73905063D01*
X151078495Y-73984415D01*
X150999143Y-74081106D01*
X150982539Y-74112169D01*
X150878834Y-74069213D01*
X150742312Y-74042057D01*
X150742312Y-73454374D01*
X153544977Y-73441340D01*
X153671928Y-73452660D01*
G36*
X148116168Y-77116360D02*
G01*
X148128428Y-77240842D01*
X148164738Y-77360540D01*
X148223703Y-77470854D01*
X148303055Y-77567545D01*
X148399746Y-77646897D01*
X148510060Y-77705862D01*
X148629758Y-77742172D01*
X148754240Y-77754432D01*
X150104240Y-77754432D01*
X150207673Y-77744245D01*
X149799199Y-78152720D01*
X149175963Y-78152720D01*
X149138640Y-78149044D01*
X149101317Y-78152720D01*
X149101307Y-78152720D01*
X148989654Y-78163717D01*
X148846393Y-78207174D01*
X148714364Y-78277746D01*
X148633292Y-78344280D01*
X148625066Y-78344280D01*
X148434766Y-78382133D01*
X148255508Y-78456384D01*
X148094179Y-78564181D01*
X147956981Y-78701379D01*
X147849184Y-78862708D01*
X147774933Y-79041966D01*
X147737080Y-79232266D01*
X147737080Y-79426294D01*
X147774933Y-79616594D01*
X147849184Y-79795852D01*
X147956981Y-79957181D01*
X148094179Y-80094379D01*
X148255508Y-80202176D01*
X148282402Y-80213316D01*
X148255240Y-80349866D01*
X148255240Y-80543894D01*
X148293093Y-80734194D01*
X148367344Y-80913452D01*
X148475141Y-81074781D01*
X148612339Y-81211979D01*
X148773668Y-81319776D01*
X148952926Y-81394027D01*
X149143226Y-81431880D01*
X149337254Y-81431880D01*
X149527554Y-81394027D01*
X149706812Y-81319776D01*
X149868141Y-81211979D01*
X150005339Y-81074781D01*
X150113136Y-80913452D01*
X150187387Y-80734194D01*
X150225240Y-80543894D01*
X150225240Y-80536681D01*
X151039807Y-79722114D01*
X151001081Y-79794566D01*
X150916167Y-80074489D01*
X150887495Y-80365600D01*
X150916167Y-80656711D01*
X151001081Y-80936634D01*
X151138974Y-81194614D01*
X151324546Y-81420734D01*
X151550666Y-81606306D01*
X151605471Y-81635600D01*
X151550666Y-81664894D01*
X151324546Y-81850466D01*
X151138974Y-82076586D01*
X151001081Y-82334566D01*
X150916167Y-82614489D01*
X150887495Y-82905600D01*
X150916167Y-83196711D01*
X151001081Y-83476634D01*
X151138974Y-83734614D01*
X151324546Y-83960734D01*
X151550666Y-84146306D01*
X151605471Y-84175600D01*
X151550666Y-84204894D01*
X151324546Y-84390466D01*
X151138974Y-84616586D01*
X151001081Y-84874566D01*
X150916167Y-85154489D01*
X150887495Y-85445600D01*
X150916167Y-85736711D01*
X150938883Y-85811595D01*
X150139559Y-86610920D01*
X148857240Y-86610920D01*
X148841981Y-86595661D01*
X148680652Y-86487864D01*
X148501394Y-86413613D01*
X148311094Y-86375760D01*
X148117066Y-86375760D01*
X147926766Y-86413613D01*
X147747508Y-86487864D01*
X147586179Y-86595661D01*
X147448981Y-86732859D01*
X147341184Y-86894188D01*
X147297107Y-87000600D01*
X147268706Y-87000600D01*
X147078406Y-87038453D01*
X147037932Y-87055218D01*
X146983856Y-86924668D01*
X146876059Y-86763339D01*
X146738861Y-86626141D01*
X146577532Y-86518344D01*
X146398274Y-86444093D01*
X146207974Y-86406240D01*
X146188648Y-86406240D01*
X146169476Y-86390506D01*
X146037447Y-86319934D01*
X145894186Y-86276477D01*
X145782533Y-86265480D01*
X145782522Y-86265480D01*
X145745200Y-86261804D01*
X145707878Y-86265480D01*
X143100572Y-86265480D01*
X143070307Y-86113326D01*
X142996056Y-85934068D01*
X142888259Y-85772739D01*
X142751061Y-85635541D01*
X142589732Y-85527744D01*
X142410474Y-85453493D01*
X142220174Y-85415640D01*
X142026146Y-85415640D01*
X141835846Y-85453493D01*
X141656588Y-85527744D01*
X141495259Y-85635541D01*
X141358061Y-85772739D01*
X141250264Y-85934068D01*
X141176013Y-86113326D01*
X141145748Y-86265480D01*
X139034362Y-86265480D01*
X138580477Y-85811595D01*
X138603193Y-85736711D01*
X138631865Y-85445600D01*
X138603193Y-85154489D01*
X138518279Y-84874566D01*
X138380386Y-84616586D01*
X138194814Y-84390466D01*
X137968694Y-84204894D01*
X137913889Y-84175600D01*
X137968694Y-84146306D01*
X138125490Y-84017626D01*
X141371840Y-84017626D01*
X141371840Y-84211654D01*
X141409693Y-84401954D01*
X141483944Y-84581212D01*
X141591741Y-84742541D01*
X141728939Y-84879739D01*
X141890268Y-84987536D01*
X142069526Y-85061787D01*
X142259826Y-85099640D01*
X142453854Y-85099640D01*
X142644154Y-85061787D01*
X142823412Y-84987536D01*
X142984741Y-84879739D01*
X143121939Y-84742541D01*
X143229736Y-84581212D01*
X143303987Y-84401954D01*
X143341840Y-84211654D01*
X143341840Y-84017626D01*
X143303987Y-83827326D01*
X143229736Y-83648068D01*
X143121939Y-83486739D01*
X142984741Y-83349541D01*
X142943024Y-83321666D01*
X145385040Y-83321666D01*
X145385040Y-83515694D01*
X145422893Y-83705994D01*
X145497144Y-83885252D01*
X145604941Y-84046581D01*
X145742139Y-84183779D01*
X145903468Y-84291576D01*
X146082726Y-84365827D01*
X146273026Y-84403680D01*
X146467054Y-84403680D01*
X146657354Y-84365827D01*
X146836612Y-84291576D01*
X146997941Y-84183779D01*
X147135139Y-84046581D01*
X147242936Y-83885252D01*
X147317187Y-83705994D01*
X147355040Y-83515694D01*
X147355040Y-83321666D01*
X147317187Y-83131366D01*
X147242936Y-82952108D01*
X147135139Y-82790779D01*
X146997941Y-82653581D01*
X146836612Y-82545784D01*
X146657354Y-82471533D01*
X146467054Y-82433680D01*
X146273026Y-82433680D01*
X146082726Y-82471533D01*
X145903468Y-82545784D01*
X145742139Y-82653581D01*
X145604941Y-82790779D01*
X145497144Y-82952108D01*
X145422893Y-83131366D01*
X145385040Y-83321666D01*
X142943024Y-83321666D01*
X142823412Y-83241744D01*
X142644154Y-83167493D01*
X142453854Y-83129640D01*
X142259826Y-83129640D01*
X142069526Y-83167493D01*
X141890268Y-83241744D01*
X141728939Y-83349541D01*
X141591741Y-83486739D01*
X141483944Y-83648068D01*
X141409693Y-83827326D01*
X141371840Y-84017626D01*
X138125490Y-84017626D01*
X138194814Y-83960734D01*
X138380386Y-83734614D01*
X138518279Y-83476634D01*
X138603193Y-83196711D01*
X138631865Y-82905600D01*
X138603193Y-82614489D01*
X138518279Y-82334566D01*
X138380386Y-82076586D01*
X138194814Y-81850466D01*
X137968694Y-81664894D01*
X137913889Y-81635600D01*
X137968694Y-81606306D01*
X138194814Y-81420734D01*
X138289670Y-81305151D01*
X138410200Y-81425681D01*
X138410200Y-81432894D01*
X138448053Y-81623194D01*
X138522304Y-81802452D01*
X138630101Y-81963781D01*
X138767299Y-82100979D01*
X138928628Y-82208776D01*
X139107886Y-82283027D01*
X139298186Y-82320880D01*
X139492214Y-82320880D01*
X139682514Y-82283027D01*
X139861772Y-82208776D01*
X139913377Y-82174294D01*
X139980188Y-82218936D01*
X140159446Y-82293187D01*
X140349746Y-82331040D01*
X140543774Y-82331040D01*
X140734074Y-82293187D01*
X140913332Y-82218936D01*
X141074661Y-82111139D01*
X141211859Y-81973941D01*
X141319656Y-81812612D01*
X141393907Y-81633354D01*
X141431760Y-81443054D01*
X141431760Y-81249026D01*
X141393907Y-81058726D01*
X141319656Y-80879468D01*
X141308760Y-80863161D01*
X142774257Y-80853277D01*
X142799016Y-80850670D01*
X142822791Y-80843282D01*
X142844668Y-80831398D01*
X142863806Y-80815475D01*
X142879470Y-80796124D01*
X142891058Y-80774088D01*
X142898124Y-80750216D01*
X142900399Y-80725886D01*
X142893741Y-78581908D01*
X143060126Y-78650827D01*
X143250426Y-78688680D01*
X143444454Y-78688680D01*
X143634754Y-78650827D01*
X143814012Y-78576576D01*
X143975341Y-78468779D01*
X144112539Y-78331581D01*
X144220336Y-78170252D01*
X144294587Y-77990994D01*
X144332440Y-77800694D01*
X144332440Y-77754432D01*
X144454240Y-77754432D01*
X144578722Y-77742172D01*
X144698420Y-77705862D01*
X144808734Y-77646897D01*
X144895903Y-77575359D01*
X144816424Y-77694308D01*
X144742173Y-77873566D01*
X144704320Y-78063866D01*
X144704320Y-78257894D01*
X144742173Y-78448194D01*
X144816424Y-78627452D01*
X144924221Y-78788781D01*
X145061419Y-78925979D01*
X145222748Y-79033776D01*
X145402006Y-79108027D01*
X145592306Y-79145880D01*
X145786334Y-79145880D01*
X145976634Y-79108027D01*
X146155892Y-79033776D01*
X146317221Y-78925979D01*
X146454419Y-78788781D01*
X146562216Y-78627452D01*
X146636467Y-78448194D01*
X146674320Y-78257894D01*
X146674320Y-78063866D01*
X146636467Y-77873566D01*
X146562216Y-77694308D01*
X146454419Y-77532979D01*
X146317221Y-77395781D01*
X146155892Y-77287984D01*
X145976634Y-77213733D01*
X145786334Y-77175880D01*
X145592306Y-77175880D01*
X145402006Y-77213733D01*
X145222748Y-77287984D01*
X145061419Y-77395781D01*
X144977596Y-77479604D01*
X144984777Y-77470854D01*
X145043742Y-77360540D01*
X145080052Y-77240842D01*
X145092312Y-77116360D01*
X145092312Y-73480648D01*
X148116168Y-73466586D01*
X148116168Y-77116360D01*
X148116168Y-77116360D01*
G37*
X148116168Y-77116360D02*
X148128428Y-77240842D01*
X148164738Y-77360540D01*
X148223703Y-77470854D01*
X148303055Y-77567545D01*
X148399746Y-77646897D01*
X148510060Y-77705862D01*
X148629758Y-77742172D01*
X148754240Y-77754432D01*
X150104240Y-77754432D01*
X150207673Y-77744245D01*
X149799199Y-78152720D01*
X149175963Y-78152720D01*
X149138640Y-78149044D01*
X149101317Y-78152720D01*
X149101307Y-78152720D01*
X148989654Y-78163717D01*
X148846393Y-78207174D01*
X148714364Y-78277746D01*
X148633292Y-78344280D01*
X148625066Y-78344280D01*
X148434766Y-78382133D01*
X148255508Y-78456384D01*
X148094179Y-78564181D01*
X147956981Y-78701379D01*
X147849184Y-78862708D01*
X147774933Y-79041966D01*
X147737080Y-79232266D01*
X147737080Y-79426294D01*
X147774933Y-79616594D01*
X147849184Y-79795852D01*
X147956981Y-79957181D01*
X148094179Y-80094379D01*
X148255508Y-80202176D01*
X148282402Y-80213316D01*
X148255240Y-80349866D01*
X148255240Y-80543894D01*
X148293093Y-80734194D01*
X148367344Y-80913452D01*
X148475141Y-81074781D01*
X148612339Y-81211979D01*
X148773668Y-81319776D01*
X148952926Y-81394027D01*
X149143226Y-81431880D01*
X149337254Y-81431880D01*
X149527554Y-81394027D01*
X149706812Y-81319776D01*
X149868141Y-81211979D01*
X150005339Y-81074781D01*
X150113136Y-80913452D01*
X150187387Y-80734194D01*
X150225240Y-80543894D01*
X150225240Y-80536681D01*
X151039807Y-79722114D01*
X151001081Y-79794566D01*
X150916167Y-80074489D01*
X150887495Y-80365600D01*
X150916167Y-80656711D01*
X151001081Y-80936634D01*
X151138974Y-81194614D01*
X151324546Y-81420734D01*
X151550666Y-81606306D01*
X151605471Y-81635600D01*
X151550666Y-81664894D01*
X151324546Y-81850466D01*
X151138974Y-82076586D01*
X151001081Y-82334566D01*
X150916167Y-82614489D01*
X150887495Y-82905600D01*
X150916167Y-83196711D01*
X151001081Y-83476634D01*
X151138974Y-83734614D01*
X151324546Y-83960734D01*
X151550666Y-84146306D01*
X151605471Y-84175600D01*
X151550666Y-84204894D01*
X151324546Y-84390466D01*
X151138974Y-84616586D01*
X151001081Y-84874566D01*
X150916167Y-85154489D01*
X150887495Y-85445600D01*
X150916167Y-85736711D01*
X150938883Y-85811595D01*
X150139559Y-86610920D01*
X148857240Y-86610920D01*
X148841981Y-86595661D01*
X148680652Y-86487864D01*
X148501394Y-86413613D01*
X148311094Y-86375760D01*
X148117066Y-86375760D01*
X147926766Y-86413613D01*
X147747508Y-86487864D01*
X147586179Y-86595661D01*
X147448981Y-86732859D01*
X147341184Y-86894188D01*
X147297107Y-87000600D01*
X147268706Y-87000600D01*
X147078406Y-87038453D01*
X147037932Y-87055218D01*
X146983856Y-86924668D01*
X146876059Y-86763339D01*
X146738861Y-86626141D01*
X146577532Y-86518344D01*
X146398274Y-86444093D01*
X146207974Y-86406240D01*
X146188648Y-86406240D01*
X146169476Y-86390506D01*
X146037447Y-86319934D01*
X145894186Y-86276477D01*
X145782533Y-86265480D01*
X145782522Y-86265480D01*
X145745200Y-86261804D01*
X145707878Y-86265480D01*
X143100572Y-86265480D01*
X143070307Y-86113326D01*
X142996056Y-85934068D01*
X142888259Y-85772739D01*
X142751061Y-85635541D01*
X142589732Y-85527744D01*
X142410474Y-85453493D01*
X142220174Y-85415640D01*
X142026146Y-85415640D01*
X141835846Y-85453493D01*
X141656588Y-85527744D01*
X141495259Y-85635541D01*
X141358061Y-85772739D01*
X141250264Y-85934068D01*
X141176013Y-86113326D01*
X141145748Y-86265480D01*
X139034362Y-86265480D01*
X138580477Y-85811595D01*
X138603193Y-85736711D01*
X138631865Y-85445600D01*
X138603193Y-85154489D01*
X138518279Y-84874566D01*
X138380386Y-84616586D01*
X138194814Y-84390466D01*
X137968694Y-84204894D01*
X137913889Y-84175600D01*
X137968694Y-84146306D01*
X138125490Y-84017626D01*
X141371840Y-84017626D01*
X141371840Y-84211654D01*
X141409693Y-84401954D01*
X141483944Y-84581212D01*
X141591741Y-84742541D01*
X141728939Y-84879739D01*
X141890268Y-84987536D01*
X142069526Y-85061787D01*
X142259826Y-85099640D01*
X142453854Y-85099640D01*
X142644154Y-85061787D01*
X142823412Y-84987536D01*
X142984741Y-84879739D01*
X143121939Y-84742541D01*
X143229736Y-84581212D01*
X143303987Y-84401954D01*
X143341840Y-84211654D01*
X143341840Y-84017626D01*
X143303987Y-83827326D01*
X143229736Y-83648068D01*
X143121939Y-83486739D01*
X142984741Y-83349541D01*
X142943024Y-83321666D01*
X145385040Y-83321666D01*
X145385040Y-83515694D01*
X145422893Y-83705994D01*
X145497144Y-83885252D01*
X145604941Y-84046581D01*
X145742139Y-84183779D01*
X145903468Y-84291576D01*
X146082726Y-84365827D01*
X146273026Y-84403680D01*
X146467054Y-84403680D01*
X146657354Y-84365827D01*
X146836612Y-84291576D01*
X146997941Y-84183779D01*
X147135139Y-84046581D01*
X147242936Y-83885252D01*
X147317187Y-83705994D01*
X147355040Y-83515694D01*
X147355040Y-83321666D01*
X147317187Y-83131366D01*
X147242936Y-82952108D01*
X147135139Y-82790779D01*
X146997941Y-82653581D01*
X146836612Y-82545784D01*
X146657354Y-82471533D01*
X146467054Y-82433680D01*
X146273026Y-82433680D01*
X146082726Y-82471533D01*
X145903468Y-82545784D01*
X145742139Y-82653581D01*
X145604941Y-82790779D01*
X145497144Y-82952108D01*
X145422893Y-83131366D01*
X145385040Y-83321666D01*
X142943024Y-83321666D01*
X142823412Y-83241744D01*
X142644154Y-83167493D01*
X142453854Y-83129640D01*
X142259826Y-83129640D01*
X142069526Y-83167493D01*
X141890268Y-83241744D01*
X141728939Y-83349541D01*
X141591741Y-83486739D01*
X141483944Y-83648068D01*
X141409693Y-83827326D01*
X141371840Y-84017626D01*
X138125490Y-84017626D01*
X138194814Y-83960734D01*
X138380386Y-83734614D01*
X138518279Y-83476634D01*
X138603193Y-83196711D01*
X138631865Y-82905600D01*
X138603193Y-82614489D01*
X138518279Y-82334566D01*
X138380386Y-82076586D01*
X138194814Y-81850466D01*
X137968694Y-81664894D01*
X137913889Y-81635600D01*
X137968694Y-81606306D01*
X138194814Y-81420734D01*
X138289670Y-81305151D01*
X138410200Y-81425681D01*
X138410200Y-81432894D01*
X138448053Y-81623194D01*
X138522304Y-81802452D01*
X138630101Y-81963781D01*
X138767299Y-82100979D01*
X138928628Y-82208776D01*
X139107886Y-82283027D01*
X139298186Y-82320880D01*
X139492214Y-82320880D01*
X139682514Y-82283027D01*
X139861772Y-82208776D01*
X139913377Y-82174294D01*
X139980188Y-82218936D01*
X140159446Y-82293187D01*
X140349746Y-82331040D01*
X140543774Y-82331040D01*
X140734074Y-82293187D01*
X140913332Y-82218936D01*
X141074661Y-82111139D01*
X141211859Y-81973941D01*
X141319656Y-81812612D01*
X141393907Y-81633354D01*
X141431760Y-81443054D01*
X141431760Y-81249026D01*
X141393907Y-81058726D01*
X141319656Y-80879468D01*
X141308760Y-80863161D01*
X142774257Y-80853277D01*
X142799016Y-80850670D01*
X142822791Y-80843282D01*
X142844668Y-80831398D01*
X142863806Y-80815475D01*
X142879470Y-80796124D01*
X142891058Y-80774088D01*
X142898124Y-80750216D01*
X142900399Y-80725886D01*
X142893741Y-78581908D01*
X143060126Y-78650827D01*
X143250426Y-78688680D01*
X143444454Y-78688680D01*
X143634754Y-78650827D01*
X143814012Y-78576576D01*
X143975341Y-78468779D01*
X144112539Y-78331581D01*
X144220336Y-78170252D01*
X144294587Y-77990994D01*
X144332440Y-77800694D01*
X144332440Y-77754432D01*
X144454240Y-77754432D01*
X144578722Y-77742172D01*
X144698420Y-77705862D01*
X144808734Y-77646897D01*
X144895903Y-77575359D01*
X144816424Y-77694308D01*
X144742173Y-77873566D01*
X144704320Y-78063866D01*
X144704320Y-78257894D01*
X144742173Y-78448194D01*
X144816424Y-78627452D01*
X144924221Y-78788781D01*
X145061419Y-78925979D01*
X145222748Y-79033776D01*
X145402006Y-79108027D01*
X145592306Y-79145880D01*
X145786334Y-79145880D01*
X145976634Y-79108027D01*
X146155892Y-79033776D01*
X146317221Y-78925979D01*
X146454419Y-78788781D01*
X146562216Y-78627452D01*
X146636467Y-78448194D01*
X146674320Y-78257894D01*
X146674320Y-78063866D01*
X146636467Y-77873566D01*
X146562216Y-77694308D01*
X146454419Y-77532979D01*
X146317221Y-77395781D01*
X146155892Y-77287984D01*
X145976634Y-77213733D01*
X145786334Y-77175880D01*
X145592306Y-77175880D01*
X145402006Y-77213733D01*
X145222748Y-77287984D01*
X145061419Y-77395781D01*
X144977596Y-77479604D01*
X144984777Y-77470854D01*
X145043742Y-77360540D01*
X145080052Y-77240842D01*
X145092312Y-77116360D01*
X145092312Y-73480648D01*
X148116168Y-73466586D01*
X148116168Y-77116360D01*
%TD*%
M02*
