M48
; DRILL file {KiCad (5.1.2)-2} date 03/02/21 00:00:59
; FORMAT={3:3/ absolute / metric / suppress leading zeros}
; #@! TF.CreationDate,2021-03-02T00:00:59+01:00
; #@! TF.GenerationSoftware,Kicad,Pcbnew,(5.1.2)-2
FMAT,2
METRIC,TZ
T1C0.400
T2C1.000
%
G90
G05
T1
X138654Y-81097
X138659Y-80152
X139497Y-90546
X140660Y-83861
X140665Y-86431
X140757Y-82164
X140762Y-73447
X140985Y-87696
X141752Y-74864
X141823Y-87701
X141956Y-81783
X143038Y-89372
X143393Y-80421
X144221Y-89164
X145903Y-87630
X146370Y-83419
X146969Y-89230
X148209Y-78603
X148245Y-87701
X149235Y-78999
X150211Y-86350
X150266Y-87320
X150302Y-85689
X150388Y-89555
X150556Y-90505
X150632Y-74996
X151384Y-89469
T2
X137140Y-75286
X137140Y-77826
X137140Y-80366
X137140Y-82906
X137140Y-85446
X137140Y-87986
X137140Y-90526
X152380Y-75286
X152380Y-77826
X152380Y-80366
X152380Y-82906
X152380Y-85446
X152380Y-87986
X152380Y-90526
T0
M30
