%TF.GenerationSoftware,KiCad,Pcbnew,(5.1.2)-2*%
%TF.CreationDate,2021-03-02T00:01:01+01:00*%
%TF.ProjectId,NRF52_Basic,4e524635-325f-4426-9173-69632e6b6963,V1*%
%TF.SameCoordinates,Original*%
%TF.FileFunction,Copper,L2,Inr*%
%TF.FilePolarity,Positive*%
%FSLAX46Y46*%
G04 Gerber Fmt 4.6, Leading zero omitted, Abs format (unit mm)*
G04 Created by KiCad (PCBNEW (5.1.2)-2) date 2021-03-02 00:01:01*
%MOMM*%
%LPD*%
G04 APERTURE LIST*
%TA.AperFunction,ViaPad*%
%ADD10O,1.700000X1.700000*%
%TD*%
%TA.AperFunction,ViaPad*%
%ADD11R,1.700000X1.700000*%
%TD*%
%TA.AperFunction,ViaPad*%
%ADD12C,0.700000*%
%TD*%
%TA.AperFunction,ViaPad*%
%ADD13C,0.800000*%
%TD*%
%TA.AperFunction,Conductor*%
%ADD14C,0.254000*%
%TD*%
G04 APERTURE END LIST*
D10*
%TO.N,VDD*%
%TO.C,J1*%
X152379680Y-90525600D03*
%TO.N,0.07_CTS*%
X152379680Y-87985600D03*
%TO.N,0.08_RX*%
X152379680Y-85445600D03*
%TO.N,SWO*%
X152379680Y-82905600D03*
%TO.N,RESET_0.21*%
X152379680Y-80365600D03*
%TO.N,SWDCLK*%
X152379680Y-77825600D03*
D11*
%TO.N,SWDIO*%
X152379680Y-75285600D03*
%TD*%
D10*
%TO.N,0.27*%
%TO.C,J2*%
X137139680Y-75285600D03*
%TO.N,0.28*%
X137139680Y-77825600D03*
%TO.N,0.29*%
X137139680Y-80365600D03*
%TO.N,0.30*%
X137139680Y-82905600D03*
%TO.N,0.05_RTS*%
X137139680Y-85445600D03*
%TO.N,0.06_TX*%
X137139680Y-87985600D03*
D11*
%TO.N,VSS*%
X137139680Y-90525600D03*
%TD*%
D12*
%TO.N,VSS*%
X146370040Y-83418680D03*
X139496800Y-90545920D03*
D13*
X143037560Y-89372440D03*
X144221200Y-89164160D03*
X140665200Y-86431120D03*
X150266400Y-87320120D03*
X150632160Y-74996040D03*
X140660120Y-83860640D03*
X138653520Y-81097120D03*
X138658600Y-80152240D03*
X140761720Y-73446640D03*
X141752320Y-74863960D03*
X148209000Y-78602840D03*
%TO.N,SWDIO*%
X149235160Y-78999080D03*
D12*
%TO.N,VDD*%
X150555960Y-90505280D03*
D13*
X151384000Y-89468960D03*
X150388320Y-89555320D03*
X140985240Y-87696040D03*
X141823440Y-87701120D03*
X150210520Y-86349840D03*
X150301960Y-85689440D03*
X143393160Y-80421480D03*
%TO.N,0.28*%
X140756640Y-82163920D03*
%TO.N,0.27*%
X141955520Y-81782920D03*
%TO.N,0.08_RX*%
X148244560Y-87701120D03*
%TO.N,0.06_TX*%
X146969480Y-89230200D03*
%TO.N,0.05_RTS*%
X145902680Y-87630000D03*
%TD*%
D14*
%TO.N,VSS*%
G36*
X153671928Y-73452660D02*
G01*
X153761815Y-73478936D01*
X153844887Y-73522172D01*
X153917975Y-73580716D01*
X153978302Y-73652345D01*
X154023568Y-73734329D01*
X154052047Y-73823538D01*
X154065825Y-73944376D01*
X154020193Y-91404781D01*
X154008660Y-91534128D01*
X153982383Y-91624016D01*
X153939149Y-91707086D01*
X153880602Y-91780176D01*
X153808975Y-91840502D01*
X153726990Y-91885769D01*
X153637782Y-91914247D01*
X153516179Y-91928112D01*
X152868530Y-91929129D01*
X152950714Y-91904199D01*
X153208694Y-91766306D01*
X153434814Y-91580734D01*
X153620386Y-91354614D01*
X153758279Y-91096634D01*
X153843193Y-90816711D01*
X153871865Y-90525600D01*
X153843193Y-90234489D01*
X153758279Y-89954566D01*
X153620386Y-89696586D01*
X153434814Y-89470466D01*
X153208694Y-89284894D01*
X153153889Y-89255600D01*
X153208694Y-89226306D01*
X153434814Y-89040734D01*
X153620386Y-88814614D01*
X153758279Y-88556634D01*
X153843193Y-88276711D01*
X153871865Y-87985600D01*
X153843193Y-87694489D01*
X153758279Y-87414566D01*
X153620386Y-87156586D01*
X153434814Y-86930466D01*
X153208694Y-86744894D01*
X153153889Y-86715600D01*
X153208694Y-86686306D01*
X153434814Y-86500734D01*
X153620386Y-86274614D01*
X153758279Y-86016634D01*
X153843193Y-85736711D01*
X153871865Y-85445600D01*
X153843193Y-85154489D01*
X153758279Y-84874566D01*
X153620386Y-84616586D01*
X153434814Y-84390466D01*
X153208694Y-84204894D01*
X153153889Y-84175600D01*
X153208694Y-84146306D01*
X153434814Y-83960734D01*
X153620386Y-83734614D01*
X153758279Y-83476634D01*
X153843193Y-83196711D01*
X153871865Y-82905600D01*
X153843193Y-82614489D01*
X153758279Y-82334566D01*
X153620386Y-82076586D01*
X153434814Y-81850466D01*
X153208694Y-81664894D01*
X153153889Y-81635600D01*
X153208694Y-81606306D01*
X153434814Y-81420734D01*
X153620386Y-81194614D01*
X153758279Y-80936634D01*
X153843193Y-80656711D01*
X153871865Y-80365600D01*
X153843193Y-80074489D01*
X153758279Y-79794566D01*
X153620386Y-79536586D01*
X153434814Y-79310466D01*
X153208694Y-79124894D01*
X153153889Y-79095600D01*
X153208694Y-79066306D01*
X153434814Y-78880734D01*
X153620386Y-78654614D01*
X153758279Y-78396634D01*
X153843193Y-78116711D01*
X153871865Y-77825600D01*
X153843193Y-77534489D01*
X153758279Y-77254566D01*
X153620386Y-76996586D01*
X153434814Y-76770466D01*
X153404993Y-76745993D01*
X153473860Y-76725102D01*
X153584174Y-76666137D01*
X153680865Y-76586785D01*
X153760217Y-76490094D01*
X153819182Y-76379780D01*
X153855492Y-76260082D01*
X153867752Y-76135600D01*
X153867752Y-74435600D01*
X153855492Y-74311118D01*
X153819182Y-74191420D01*
X153760217Y-74081106D01*
X153680865Y-73984415D01*
X153584174Y-73905063D01*
X153473860Y-73846098D01*
X153354162Y-73809788D01*
X153229680Y-73797528D01*
X151529680Y-73797528D01*
X151405198Y-73809788D01*
X151285500Y-73846098D01*
X151175186Y-73905063D01*
X151078495Y-73984415D01*
X150999143Y-74081106D01*
X150940178Y-74191420D01*
X150903868Y-74311118D01*
X150891608Y-74435600D01*
X150891608Y-76135600D01*
X150903868Y-76260082D01*
X150940178Y-76379780D01*
X150999143Y-76490094D01*
X151078495Y-76586785D01*
X151175186Y-76666137D01*
X151285500Y-76725102D01*
X151354367Y-76745993D01*
X151324546Y-76770466D01*
X151138974Y-76996586D01*
X151001081Y-77254566D01*
X150916167Y-77534489D01*
X150887495Y-77825600D01*
X150916167Y-78116711D01*
X151001081Y-78396634D01*
X151138974Y-78654614D01*
X151324546Y-78880734D01*
X151550666Y-79066306D01*
X151605471Y-79095600D01*
X151550666Y-79124894D01*
X151324546Y-79310466D01*
X151138974Y-79536586D01*
X151001081Y-79794566D01*
X150916167Y-80074489D01*
X150887495Y-80365600D01*
X150916167Y-80656711D01*
X151001081Y-80936634D01*
X151138974Y-81194614D01*
X151324546Y-81420734D01*
X151550666Y-81606306D01*
X151605471Y-81635600D01*
X151550666Y-81664894D01*
X151324546Y-81850466D01*
X151138974Y-82076586D01*
X151001081Y-82334566D01*
X150916167Y-82614489D01*
X150887495Y-82905600D01*
X150916167Y-83196711D01*
X151001081Y-83476634D01*
X151138974Y-83734614D01*
X151324546Y-83960734D01*
X151550666Y-84146306D01*
X151605471Y-84175600D01*
X151550666Y-84204894D01*
X151324546Y-84390466D01*
X151138974Y-84616586D01*
X151001081Y-84874566D01*
X150989378Y-84913147D01*
X150961734Y-84885503D01*
X150792216Y-84772235D01*
X150603858Y-84694214D01*
X150403899Y-84654440D01*
X150200021Y-84654440D01*
X150000062Y-84694214D01*
X149811704Y-84772235D01*
X149642186Y-84885503D01*
X149498023Y-85029666D01*
X149384755Y-85199184D01*
X149306734Y-85387542D01*
X149266960Y-85587501D01*
X149266960Y-85791379D01*
X149284675Y-85880441D01*
X149215294Y-86047942D01*
X149175520Y-86247901D01*
X149175520Y-86451779D01*
X149215294Y-86651738D01*
X149293315Y-86840096D01*
X149406583Y-87009614D01*
X149550746Y-87153777D01*
X149720264Y-87267045D01*
X149908622Y-87345066D01*
X150108581Y-87384840D01*
X150312459Y-87384840D01*
X150512418Y-87345066D01*
X150700776Y-87267045D01*
X150870294Y-87153777D01*
X151014457Y-87009614D01*
X151127725Y-86840096D01*
X151205746Y-86651738D01*
X151245520Y-86451779D01*
X151245520Y-86404441D01*
X151324546Y-86500734D01*
X151550666Y-86686306D01*
X151605471Y-86715600D01*
X151550666Y-86744894D01*
X151324546Y-86930466D01*
X151138974Y-87156586D01*
X151001081Y-87414566D01*
X150916167Y-87694489D01*
X150887495Y-87985600D01*
X150916167Y-88276711D01*
X150987785Y-88512802D01*
X150893744Y-88551755D01*
X150808153Y-88608945D01*
X150690218Y-88560094D01*
X150490259Y-88520320D01*
X150286381Y-88520320D01*
X150086422Y-88560094D01*
X149898064Y-88638115D01*
X149728546Y-88751383D01*
X149584383Y-88895546D01*
X149471115Y-89065064D01*
X149393094Y-89253422D01*
X149371687Y-89361044D01*
X149332912Y-89349724D01*
X149274990Y-89331969D01*
X149270556Y-89331519D01*
X149266277Y-89330270D01*
X149205934Y-89324965D01*
X149178054Y-89322137D01*
X149173623Y-89322124D01*
X149136769Y-89318884D01*
X149108790Y-89321936D01*
X148004480Y-89318731D01*
X148004480Y-89128261D01*
X147964706Y-88928302D01*
X147886685Y-88739944D01*
X147824984Y-88647602D01*
X147942662Y-88696346D01*
X148142621Y-88736120D01*
X148346499Y-88736120D01*
X148546458Y-88696346D01*
X148734816Y-88618325D01*
X148904334Y-88505057D01*
X149048497Y-88360894D01*
X149161765Y-88191376D01*
X149239786Y-88003018D01*
X149279560Y-87803059D01*
X149279560Y-87599181D01*
X149239786Y-87399222D01*
X149161765Y-87210864D01*
X149048497Y-87041346D01*
X148904334Y-86897183D01*
X148734816Y-86783915D01*
X148546458Y-86705894D01*
X148346499Y-86666120D01*
X148142621Y-86666120D01*
X147942662Y-86705894D01*
X147754304Y-86783915D01*
X147584786Y-86897183D01*
X147440623Y-87041346D01*
X147327355Y-87210864D01*
X147249334Y-87399222D01*
X147209560Y-87599181D01*
X147209560Y-87803059D01*
X147249334Y-88003018D01*
X147327355Y-88191376D01*
X147389056Y-88283718D01*
X147271378Y-88234974D01*
X147071419Y-88195200D01*
X146867541Y-88195200D01*
X146754829Y-88217620D01*
X146819885Y-88120256D01*
X146897906Y-87931898D01*
X146937680Y-87731939D01*
X146937680Y-87528061D01*
X146897906Y-87328102D01*
X146819885Y-87139744D01*
X146706617Y-86970226D01*
X146562454Y-86826063D01*
X146392936Y-86712795D01*
X146204578Y-86634774D01*
X146004619Y-86595000D01*
X145800741Y-86595000D01*
X145600782Y-86634774D01*
X145412424Y-86712795D01*
X145242906Y-86826063D01*
X145098743Y-86970226D01*
X144985475Y-87139744D01*
X144907454Y-87328102D01*
X144867680Y-87528061D01*
X144867680Y-87731939D01*
X144907454Y-87931898D01*
X144985475Y-88120256D01*
X145098743Y-88289774D01*
X145242906Y-88433937D01*
X145412424Y-88547205D01*
X145600782Y-88625226D01*
X145800741Y-88665000D01*
X146004619Y-88665000D01*
X146117331Y-88642580D01*
X146052275Y-88739944D01*
X145974254Y-88928302D01*
X145934480Y-89128261D01*
X145934480Y-89312724D01*
X140420831Y-89296724D01*
X140384017Y-89293483D01*
X140323731Y-89300051D01*
X140263386Y-89305818D01*
X140259163Y-89307086D01*
X140254773Y-89307564D01*
X140196898Y-89325777D01*
X140138867Y-89343197D01*
X140134971Y-89345265D01*
X140130760Y-89346590D01*
X140077555Y-89375740D01*
X140024032Y-89404149D01*
X140020615Y-89406936D01*
X140016743Y-89409058D01*
X139970251Y-89448026D01*
X139923295Y-89486334D01*
X139920487Y-89489736D01*
X139917104Y-89492571D01*
X139879124Y-89539839D01*
X139840527Y-89586592D01*
X139838436Y-89590477D01*
X139835672Y-89593917D01*
X139807637Y-89647698D01*
X139778910Y-89701071D01*
X139777618Y-89705287D01*
X139775577Y-89709202D01*
X139758567Y-89767438D01*
X139740809Y-89825371D01*
X139740364Y-89829757D01*
X139739126Y-89833996D01*
X139733806Y-89894418D01*
X139727690Y-89954716D01*
X139731206Y-89991504D01*
X139745772Y-91398895D01*
X139734620Y-91523968D01*
X139708343Y-91613856D01*
X139665109Y-91696926D01*
X139606562Y-91770016D01*
X139534935Y-91830342D01*
X139452950Y-91875609D01*
X139363742Y-91904087D01*
X139241853Y-91917985D01*
X138316512Y-91920923D01*
X138344174Y-91906137D01*
X138440865Y-91826785D01*
X138520217Y-91730094D01*
X138579182Y-91619780D01*
X138615492Y-91500082D01*
X138627752Y-91375600D01*
X138624680Y-90811350D01*
X138465930Y-90652600D01*
X137266680Y-90652600D01*
X137266680Y-90672600D01*
X137012680Y-90672600D01*
X137012680Y-90652600D01*
X135813430Y-90652600D01*
X135654680Y-90811350D01*
X135651608Y-91375600D01*
X135663868Y-91500082D01*
X135700178Y-91619780D01*
X135759143Y-91730094D01*
X135838495Y-91826785D01*
X135935186Y-91906137D01*
X135943272Y-91910459D01*
X135874474Y-91890347D01*
X135791404Y-91847113D01*
X135718314Y-91788566D01*
X135657988Y-91716939D01*
X135612721Y-91634954D01*
X135584243Y-91545746D01*
X135570471Y-91424958D01*
X135598010Y-81967552D01*
X135990488Y-81965076D01*
X135898974Y-82076586D01*
X135761081Y-82334566D01*
X135676167Y-82614489D01*
X135647495Y-82905600D01*
X135676167Y-83196711D01*
X135761081Y-83476634D01*
X135898974Y-83734614D01*
X136084546Y-83960734D01*
X136310666Y-84146306D01*
X136365471Y-84175600D01*
X136310666Y-84204894D01*
X136084546Y-84390466D01*
X135898974Y-84616586D01*
X135761081Y-84874566D01*
X135676167Y-85154489D01*
X135647495Y-85445600D01*
X135676167Y-85736711D01*
X135761081Y-86016634D01*
X135898974Y-86274614D01*
X136084546Y-86500734D01*
X136310666Y-86686306D01*
X136365471Y-86715600D01*
X136310666Y-86744894D01*
X136084546Y-86930466D01*
X135898974Y-87156586D01*
X135761081Y-87414566D01*
X135676167Y-87694489D01*
X135647495Y-87985600D01*
X135676167Y-88276711D01*
X135761081Y-88556634D01*
X135898974Y-88814614D01*
X136084546Y-89040734D01*
X136114367Y-89065207D01*
X136045500Y-89086098D01*
X135935186Y-89145063D01*
X135838495Y-89224415D01*
X135759143Y-89321106D01*
X135700178Y-89431420D01*
X135663868Y-89551118D01*
X135651608Y-89675600D01*
X135654680Y-90239850D01*
X135813430Y-90398600D01*
X137012680Y-90398600D01*
X137012680Y-90378600D01*
X137266680Y-90378600D01*
X137266680Y-90398600D01*
X138465930Y-90398600D01*
X138624680Y-90239850D01*
X138627752Y-89675600D01*
X138615492Y-89551118D01*
X138579182Y-89431420D01*
X138520217Y-89321106D01*
X138440865Y-89224415D01*
X138344174Y-89145063D01*
X138233860Y-89086098D01*
X138164993Y-89065207D01*
X138194814Y-89040734D01*
X138380386Y-88814614D01*
X138518279Y-88556634D01*
X138603193Y-88276711D01*
X138631865Y-87985600D01*
X138603193Y-87694489D01*
X138572741Y-87594101D01*
X139950240Y-87594101D01*
X139950240Y-87797979D01*
X139990014Y-87997938D01*
X140068035Y-88186296D01*
X140181303Y-88355814D01*
X140325466Y-88499977D01*
X140494984Y-88613245D01*
X140683342Y-88691266D01*
X140883301Y-88731040D01*
X141087179Y-88731040D01*
X141287138Y-88691266D01*
X141398208Y-88645259D01*
X141521542Y-88696346D01*
X141721501Y-88736120D01*
X141925379Y-88736120D01*
X142125338Y-88696346D01*
X142313696Y-88618325D01*
X142483214Y-88505057D01*
X142627377Y-88360894D01*
X142740645Y-88191376D01*
X142818666Y-88003018D01*
X142858440Y-87803059D01*
X142858440Y-87599181D01*
X142818666Y-87399222D01*
X142740645Y-87210864D01*
X142627377Y-87041346D01*
X142483214Y-86897183D01*
X142313696Y-86783915D01*
X142125338Y-86705894D01*
X141925379Y-86666120D01*
X141721501Y-86666120D01*
X141521542Y-86705894D01*
X141410472Y-86751901D01*
X141287138Y-86700814D01*
X141087179Y-86661040D01*
X140883301Y-86661040D01*
X140683342Y-86700814D01*
X140494984Y-86778835D01*
X140325466Y-86892103D01*
X140181303Y-87036266D01*
X140068035Y-87205784D01*
X139990014Y-87394142D01*
X139950240Y-87594101D01*
X138572741Y-87594101D01*
X138518279Y-87414566D01*
X138380386Y-87156586D01*
X138194814Y-86930466D01*
X137968694Y-86744894D01*
X137913889Y-86715600D01*
X137968694Y-86686306D01*
X138194814Y-86500734D01*
X138380386Y-86274614D01*
X138518279Y-86016634D01*
X138603193Y-85736711D01*
X138631865Y-85445600D01*
X138603193Y-85154489D01*
X138518279Y-84874566D01*
X138380386Y-84616586D01*
X138194814Y-84390466D01*
X137968694Y-84204894D01*
X137913889Y-84175600D01*
X137968694Y-84146306D01*
X138194814Y-83960734D01*
X138380386Y-83734614D01*
X138518279Y-83476634D01*
X138603193Y-83196711D01*
X138631865Y-82905600D01*
X138603193Y-82614489D01*
X138518279Y-82334566D01*
X138380386Y-82076586D01*
X138277038Y-81950656D01*
X139745626Y-81941394D01*
X139721640Y-82061981D01*
X139721640Y-82265859D01*
X139761414Y-82465818D01*
X139839435Y-82654176D01*
X139952703Y-82823694D01*
X140096866Y-82967857D01*
X140266384Y-83081125D01*
X140454742Y-83159146D01*
X140654701Y-83198920D01*
X140858579Y-83198920D01*
X141058538Y-83159146D01*
X141246896Y-83081125D01*
X141416414Y-82967857D01*
X141560577Y-82823694D01*
X141604583Y-82757833D01*
X141653622Y-82778146D01*
X141853581Y-82817920D01*
X142057459Y-82817920D01*
X142257418Y-82778146D01*
X142445776Y-82700125D01*
X142615294Y-82586857D01*
X142759457Y-82442694D01*
X142872725Y-82273176D01*
X142950746Y-82084818D01*
X142983336Y-81920975D01*
X147153161Y-81894677D01*
X147177922Y-81892081D01*
X147201700Y-81884704D01*
X147223582Y-81872830D01*
X147242727Y-81856914D01*
X147258400Y-81837570D01*
X147269997Y-81815540D01*
X147277074Y-81791670D01*
X147279334Y-81770238D01*
X147337204Y-78897141D01*
X148200160Y-78897141D01*
X148200160Y-79101019D01*
X148239934Y-79300978D01*
X148317955Y-79489336D01*
X148431223Y-79658854D01*
X148575386Y-79803017D01*
X148744904Y-79916285D01*
X148933262Y-79994306D01*
X149133221Y-80034080D01*
X149337099Y-80034080D01*
X149537058Y-79994306D01*
X149725416Y-79916285D01*
X149894934Y-79803017D01*
X150039097Y-79658854D01*
X150152365Y-79489336D01*
X150230386Y-79300978D01*
X150270160Y-79101019D01*
X150270160Y-78897141D01*
X150230386Y-78697182D01*
X150152365Y-78508824D01*
X150039097Y-78339306D01*
X149894934Y-78195143D01*
X149725416Y-78081875D01*
X149537058Y-78003854D01*
X149337099Y-77964080D01*
X149133221Y-77964080D01*
X148933262Y-78003854D01*
X148744904Y-78081875D01*
X148575386Y-78195143D01*
X148431223Y-78339306D01*
X148317955Y-78508824D01*
X148239934Y-78697182D01*
X148200160Y-78897141D01*
X147337204Y-78897141D01*
X147363169Y-77608093D01*
X150298471Y-77630016D01*
X150323265Y-77627761D01*
X150347143Y-77620712D01*
X150369187Y-77609141D01*
X150388549Y-77593491D01*
X150404487Y-77574364D01*
X150416386Y-77552496D01*
X150423791Y-77528726D01*
X150426412Y-77504465D01*
X150472469Y-73455628D01*
X153544977Y-73441340D01*
X153671928Y-73452660D01*
X153671928Y-73452660D01*
G37*
X153671928Y-73452660D02*
X153761815Y-73478936D01*
X153844887Y-73522172D01*
X153917975Y-73580716D01*
X153978302Y-73652345D01*
X154023568Y-73734329D01*
X154052047Y-73823538D01*
X154065825Y-73944376D01*
X154020193Y-91404781D01*
X154008660Y-91534128D01*
X153982383Y-91624016D01*
X153939149Y-91707086D01*
X153880602Y-91780176D01*
X153808975Y-91840502D01*
X153726990Y-91885769D01*
X153637782Y-91914247D01*
X153516179Y-91928112D01*
X152868530Y-91929129D01*
X152950714Y-91904199D01*
X153208694Y-91766306D01*
X153434814Y-91580734D01*
X153620386Y-91354614D01*
X153758279Y-91096634D01*
X153843193Y-90816711D01*
X153871865Y-90525600D01*
X153843193Y-90234489D01*
X153758279Y-89954566D01*
X153620386Y-89696586D01*
X153434814Y-89470466D01*
X153208694Y-89284894D01*
X153153889Y-89255600D01*
X153208694Y-89226306D01*
X153434814Y-89040734D01*
X153620386Y-88814614D01*
X153758279Y-88556634D01*
X153843193Y-88276711D01*
X153871865Y-87985600D01*
X153843193Y-87694489D01*
X153758279Y-87414566D01*
X153620386Y-87156586D01*
X153434814Y-86930466D01*
X153208694Y-86744894D01*
X153153889Y-86715600D01*
X153208694Y-86686306D01*
X153434814Y-86500734D01*
X153620386Y-86274614D01*
X153758279Y-86016634D01*
X153843193Y-85736711D01*
X153871865Y-85445600D01*
X153843193Y-85154489D01*
X153758279Y-84874566D01*
X153620386Y-84616586D01*
X153434814Y-84390466D01*
X153208694Y-84204894D01*
X153153889Y-84175600D01*
X153208694Y-84146306D01*
X153434814Y-83960734D01*
X153620386Y-83734614D01*
X153758279Y-83476634D01*
X153843193Y-83196711D01*
X153871865Y-82905600D01*
X153843193Y-82614489D01*
X153758279Y-82334566D01*
X153620386Y-82076586D01*
X153434814Y-81850466D01*
X153208694Y-81664894D01*
X153153889Y-81635600D01*
X153208694Y-81606306D01*
X153434814Y-81420734D01*
X153620386Y-81194614D01*
X153758279Y-80936634D01*
X153843193Y-80656711D01*
X153871865Y-80365600D01*
X153843193Y-80074489D01*
X153758279Y-79794566D01*
X153620386Y-79536586D01*
X153434814Y-79310466D01*
X153208694Y-79124894D01*
X153153889Y-79095600D01*
X153208694Y-79066306D01*
X153434814Y-78880734D01*
X153620386Y-78654614D01*
X153758279Y-78396634D01*
X153843193Y-78116711D01*
X153871865Y-77825600D01*
X153843193Y-77534489D01*
X153758279Y-77254566D01*
X153620386Y-76996586D01*
X153434814Y-76770466D01*
X153404993Y-76745993D01*
X153473860Y-76725102D01*
X153584174Y-76666137D01*
X153680865Y-76586785D01*
X153760217Y-76490094D01*
X153819182Y-76379780D01*
X153855492Y-76260082D01*
X153867752Y-76135600D01*
X153867752Y-74435600D01*
X153855492Y-74311118D01*
X153819182Y-74191420D01*
X153760217Y-74081106D01*
X153680865Y-73984415D01*
X153584174Y-73905063D01*
X153473860Y-73846098D01*
X153354162Y-73809788D01*
X153229680Y-73797528D01*
X151529680Y-73797528D01*
X151405198Y-73809788D01*
X151285500Y-73846098D01*
X151175186Y-73905063D01*
X151078495Y-73984415D01*
X150999143Y-74081106D01*
X150940178Y-74191420D01*
X150903868Y-74311118D01*
X150891608Y-74435600D01*
X150891608Y-76135600D01*
X150903868Y-76260082D01*
X150940178Y-76379780D01*
X150999143Y-76490094D01*
X151078495Y-76586785D01*
X151175186Y-76666137D01*
X151285500Y-76725102D01*
X151354367Y-76745993D01*
X151324546Y-76770466D01*
X151138974Y-76996586D01*
X151001081Y-77254566D01*
X150916167Y-77534489D01*
X150887495Y-77825600D01*
X150916167Y-78116711D01*
X151001081Y-78396634D01*
X151138974Y-78654614D01*
X151324546Y-78880734D01*
X151550666Y-79066306D01*
X151605471Y-79095600D01*
X151550666Y-79124894D01*
X151324546Y-79310466D01*
X151138974Y-79536586D01*
X151001081Y-79794566D01*
X150916167Y-80074489D01*
X150887495Y-80365600D01*
X150916167Y-80656711D01*
X151001081Y-80936634D01*
X151138974Y-81194614D01*
X151324546Y-81420734D01*
X151550666Y-81606306D01*
X151605471Y-81635600D01*
X151550666Y-81664894D01*
X151324546Y-81850466D01*
X151138974Y-82076586D01*
X151001081Y-82334566D01*
X150916167Y-82614489D01*
X150887495Y-82905600D01*
X150916167Y-83196711D01*
X151001081Y-83476634D01*
X151138974Y-83734614D01*
X151324546Y-83960734D01*
X151550666Y-84146306D01*
X151605471Y-84175600D01*
X151550666Y-84204894D01*
X151324546Y-84390466D01*
X151138974Y-84616586D01*
X151001081Y-84874566D01*
X150989378Y-84913147D01*
X150961734Y-84885503D01*
X150792216Y-84772235D01*
X150603858Y-84694214D01*
X150403899Y-84654440D01*
X150200021Y-84654440D01*
X150000062Y-84694214D01*
X149811704Y-84772235D01*
X149642186Y-84885503D01*
X149498023Y-85029666D01*
X149384755Y-85199184D01*
X149306734Y-85387542D01*
X149266960Y-85587501D01*
X149266960Y-85791379D01*
X149284675Y-85880441D01*
X149215294Y-86047942D01*
X149175520Y-86247901D01*
X149175520Y-86451779D01*
X149215294Y-86651738D01*
X149293315Y-86840096D01*
X149406583Y-87009614D01*
X149550746Y-87153777D01*
X149720264Y-87267045D01*
X149908622Y-87345066D01*
X150108581Y-87384840D01*
X150312459Y-87384840D01*
X150512418Y-87345066D01*
X150700776Y-87267045D01*
X150870294Y-87153777D01*
X151014457Y-87009614D01*
X151127725Y-86840096D01*
X151205746Y-86651738D01*
X151245520Y-86451779D01*
X151245520Y-86404441D01*
X151324546Y-86500734D01*
X151550666Y-86686306D01*
X151605471Y-86715600D01*
X151550666Y-86744894D01*
X151324546Y-86930466D01*
X151138974Y-87156586D01*
X151001081Y-87414566D01*
X150916167Y-87694489D01*
X150887495Y-87985600D01*
X150916167Y-88276711D01*
X150987785Y-88512802D01*
X150893744Y-88551755D01*
X150808153Y-88608945D01*
X150690218Y-88560094D01*
X150490259Y-88520320D01*
X150286381Y-88520320D01*
X150086422Y-88560094D01*
X149898064Y-88638115D01*
X149728546Y-88751383D01*
X149584383Y-88895546D01*
X149471115Y-89065064D01*
X149393094Y-89253422D01*
X149371687Y-89361044D01*
X149332912Y-89349724D01*
X149274990Y-89331969D01*
X149270556Y-89331519D01*
X149266277Y-89330270D01*
X149205934Y-89324965D01*
X149178054Y-89322137D01*
X149173623Y-89322124D01*
X149136769Y-89318884D01*
X149108790Y-89321936D01*
X148004480Y-89318731D01*
X148004480Y-89128261D01*
X147964706Y-88928302D01*
X147886685Y-88739944D01*
X147824984Y-88647602D01*
X147942662Y-88696346D01*
X148142621Y-88736120D01*
X148346499Y-88736120D01*
X148546458Y-88696346D01*
X148734816Y-88618325D01*
X148904334Y-88505057D01*
X149048497Y-88360894D01*
X149161765Y-88191376D01*
X149239786Y-88003018D01*
X149279560Y-87803059D01*
X149279560Y-87599181D01*
X149239786Y-87399222D01*
X149161765Y-87210864D01*
X149048497Y-87041346D01*
X148904334Y-86897183D01*
X148734816Y-86783915D01*
X148546458Y-86705894D01*
X148346499Y-86666120D01*
X148142621Y-86666120D01*
X147942662Y-86705894D01*
X147754304Y-86783915D01*
X147584786Y-86897183D01*
X147440623Y-87041346D01*
X147327355Y-87210864D01*
X147249334Y-87399222D01*
X147209560Y-87599181D01*
X147209560Y-87803059D01*
X147249334Y-88003018D01*
X147327355Y-88191376D01*
X147389056Y-88283718D01*
X147271378Y-88234974D01*
X147071419Y-88195200D01*
X146867541Y-88195200D01*
X146754829Y-88217620D01*
X146819885Y-88120256D01*
X146897906Y-87931898D01*
X146937680Y-87731939D01*
X146937680Y-87528061D01*
X146897906Y-87328102D01*
X146819885Y-87139744D01*
X146706617Y-86970226D01*
X146562454Y-86826063D01*
X146392936Y-86712795D01*
X146204578Y-86634774D01*
X146004619Y-86595000D01*
X145800741Y-86595000D01*
X145600782Y-86634774D01*
X145412424Y-86712795D01*
X145242906Y-86826063D01*
X145098743Y-86970226D01*
X144985475Y-87139744D01*
X144907454Y-87328102D01*
X144867680Y-87528061D01*
X144867680Y-87731939D01*
X144907454Y-87931898D01*
X144985475Y-88120256D01*
X145098743Y-88289774D01*
X145242906Y-88433937D01*
X145412424Y-88547205D01*
X145600782Y-88625226D01*
X145800741Y-88665000D01*
X146004619Y-88665000D01*
X146117331Y-88642580D01*
X146052275Y-88739944D01*
X145974254Y-88928302D01*
X145934480Y-89128261D01*
X145934480Y-89312724D01*
X140420831Y-89296724D01*
X140384017Y-89293483D01*
X140323731Y-89300051D01*
X140263386Y-89305818D01*
X140259163Y-89307086D01*
X140254773Y-89307564D01*
X140196898Y-89325777D01*
X140138867Y-89343197D01*
X140134971Y-89345265D01*
X140130760Y-89346590D01*
X140077555Y-89375740D01*
X140024032Y-89404149D01*
X140020615Y-89406936D01*
X140016743Y-89409058D01*
X139970251Y-89448026D01*
X139923295Y-89486334D01*
X139920487Y-89489736D01*
X139917104Y-89492571D01*
X139879124Y-89539839D01*
X139840527Y-89586592D01*
X139838436Y-89590477D01*
X139835672Y-89593917D01*
X139807637Y-89647698D01*
X139778910Y-89701071D01*
X139777618Y-89705287D01*
X139775577Y-89709202D01*
X139758567Y-89767438D01*
X139740809Y-89825371D01*
X139740364Y-89829757D01*
X139739126Y-89833996D01*
X139733806Y-89894418D01*
X139727690Y-89954716D01*
X139731206Y-89991504D01*
X139745772Y-91398895D01*
X139734620Y-91523968D01*
X139708343Y-91613856D01*
X139665109Y-91696926D01*
X139606562Y-91770016D01*
X139534935Y-91830342D01*
X139452950Y-91875609D01*
X139363742Y-91904087D01*
X139241853Y-91917985D01*
X138316512Y-91920923D01*
X138344174Y-91906137D01*
X138440865Y-91826785D01*
X138520217Y-91730094D01*
X138579182Y-91619780D01*
X138615492Y-91500082D01*
X138627752Y-91375600D01*
X138624680Y-90811350D01*
X138465930Y-90652600D01*
X137266680Y-90652600D01*
X137266680Y-90672600D01*
X137012680Y-90672600D01*
X137012680Y-90652600D01*
X135813430Y-90652600D01*
X135654680Y-90811350D01*
X135651608Y-91375600D01*
X135663868Y-91500082D01*
X135700178Y-91619780D01*
X135759143Y-91730094D01*
X135838495Y-91826785D01*
X135935186Y-91906137D01*
X135943272Y-91910459D01*
X135874474Y-91890347D01*
X135791404Y-91847113D01*
X135718314Y-91788566D01*
X135657988Y-91716939D01*
X135612721Y-91634954D01*
X135584243Y-91545746D01*
X135570471Y-91424958D01*
X135598010Y-81967552D01*
X135990488Y-81965076D01*
X135898974Y-82076586D01*
X135761081Y-82334566D01*
X135676167Y-82614489D01*
X135647495Y-82905600D01*
X135676167Y-83196711D01*
X135761081Y-83476634D01*
X135898974Y-83734614D01*
X136084546Y-83960734D01*
X136310666Y-84146306D01*
X136365471Y-84175600D01*
X136310666Y-84204894D01*
X136084546Y-84390466D01*
X135898974Y-84616586D01*
X135761081Y-84874566D01*
X135676167Y-85154489D01*
X135647495Y-85445600D01*
X135676167Y-85736711D01*
X135761081Y-86016634D01*
X135898974Y-86274614D01*
X136084546Y-86500734D01*
X136310666Y-86686306D01*
X136365471Y-86715600D01*
X136310666Y-86744894D01*
X136084546Y-86930466D01*
X135898974Y-87156586D01*
X135761081Y-87414566D01*
X135676167Y-87694489D01*
X135647495Y-87985600D01*
X135676167Y-88276711D01*
X135761081Y-88556634D01*
X135898974Y-88814614D01*
X136084546Y-89040734D01*
X136114367Y-89065207D01*
X136045500Y-89086098D01*
X135935186Y-89145063D01*
X135838495Y-89224415D01*
X135759143Y-89321106D01*
X135700178Y-89431420D01*
X135663868Y-89551118D01*
X135651608Y-89675600D01*
X135654680Y-90239850D01*
X135813430Y-90398600D01*
X137012680Y-90398600D01*
X137012680Y-90378600D01*
X137266680Y-90378600D01*
X137266680Y-90398600D01*
X138465930Y-90398600D01*
X138624680Y-90239850D01*
X138627752Y-89675600D01*
X138615492Y-89551118D01*
X138579182Y-89431420D01*
X138520217Y-89321106D01*
X138440865Y-89224415D01*
X138344174Y-89145063D01*
X138233860Y-89086098D01*
X138164993Y-89065207D01*
X138194814Y-89040734D01*
X138380386Y-88814614D01*
X138518279Y-88556634D01*
X138603193Y-88276711D01*
X138631865Y-87985600D01*
X138603193Y-87694489D01*
X138572741Y-87594101D01*
X139950240Y-87594101D01*
X139950240Y-87797979D01*
X139990014Y-87997938D01*
X140068035Y-88186296D01*
X140181303Y-88355814D01*
X140325466Y-88499977D01*
X140494984Y-88613245D01*
X140683342Y-88691266D01*
X140883301Y-88731040D01*
X141087179Y-88731040D01*
X141287138Y-88691266D01*
X141398208Y-88645259D01*
X141521542Y-88696346D01*
X141721501Y-88736120D01*
X141925379Y-88736120D01*
X142125338Y-88696346D01*
X142313696Y-88618325D01*
X142483214Y-88505057D01*
X142627377Y-88360894D01*
X142740645Y-88191376D01*
X142818666Y-88003018D01*
X142858440Y-87803059D01*
X142858440Y-87599181D01*
X142818666Y-87399222D01*
X142740645Y-87210864D01*
X142627377Y-87041346D01*
X142483214Y-86897183D01*
X142313696Y-86783915D01*
X142125338Y-86705894D01*
X141925379Y-86666120D01*
X141721501Y-86666120D01*
X141521542Y-86705894D01*
X141410472Y-86751901D01*
X141287138Y-86700814D01*
X141087179Y-86661040D01*
X140883301Y-86661040D01*
X140683342Y-86700814D01*
X140494984Y-86778835D01*
X140325466Y-86892103D01*
X140181303Y-87036266D01*
X140068035Y-87205784D01*
X139990014Y-87394142D01*
X139950240Y-87594101D01*
X138572741Y-87594101D01*
X138518279Y-87414566D01*
X138380386Y-87156586D01*
X138194814Y-86930466D01*
X137968694Y-86744894D01*
X137913889Y-86715600D01*
X137968694Y-86686306D01*
X138194814Y-86500734D01*
X138380386Y-86274614D01*
X138518279Y-86016634D01*
X138603193Y-85736711D01*
X138631865Y-85445600D01*
X138603193Y-85154489D01*
X138518279Y-84874566D01*
X138380386Y-84616586D01*
X138194814Y-84390466D01*
X137968694Y-84204894D01*
X137913889Y-84175600D01*
X137968694Y-84146306D01*
X138194814Y-83960734D01*
X138380386Y-83734614D01*
X138518279Y-83476634D01*
X138603193Y-83196711D01*
X138631865Y-82905600D01*
X138603193Y-82614489D01*
X138518279Y-82334566D01*
X138380386Y-82076586D01*
X138277038Y-81950656D01*
X139745626Y-81941394D01*
X139721640Y-82061981D01*
X139721640Y-82265859D01*
X139761414Y-82465818D01*
X139839435Y-82654176D01*
X139952703Y-82823694D01*
X140096866Y-82967857D01*
X140266384Y-83081125D01*
X140454742Y-83159146D01*
X140654701Y-83198920D01*
X140858579Y-83198920D01*
X141058538Y-83159146D01*
X141246896Y-83081125D01*
X141416414Y-82967857D01*
X141560577Y-82823694D01*
X141604583Y-82757833D01*
X141653622Y-82778146D01*
X141853581Y-82817920D01*
X142057459Y-82817920D01*
X142257418Y-82778146D01*
X142445776Y-82700125D01*
X142615294Y-82586857D01*
X142759457Y-82442694D01*
X142872725Y-82273176D01*
X142950746Y-82084818D01*
X142983336Y-81920975D01*
X147153161Y-81894677D01*
X147177922Y-81892081D01*
X147201700Y-81884704D01*
X147223582Y-81872830D01*
X147242727Y-81856914D01*
X147258400Y-81837570D01*
X147269997Y-81815540D01*
X147277074Y-81791670D01*
X147279334Y-81770238D01*
X147337204Y-78897141D01*
X148200160Y-78897141D01*
X148200160Y-79101019D01*
X148239934Y-79300978D01*
X148317955Y-79489336D01*
X148431223Y-79658854D01*
X148575386Y-79803017D01*
X148744904Y-79916285D01*
X148933262Y-79994306D01*
X149133221Y-80034080D01*
X149337099Y-80034080D01*
X149537058Y-79994306D01*
X149725416Y-79916285D01*
X149894934Y-79803017D01*
X150039097Y-79658854D01*
X150152365Y-79489336D01*
X150230386Y-79300978D01*
X150270160Y-79101019D01*
X150270160Y-78897141D01*
X150230386Y-78697182D01*
X150152365Y-78508824D01*
X150039097Y-78339306D01*
X149894934Y-78195143D01*
X149725416Y-78081875D01*
X149537058Y-78003854D01*
X149337099Y-77964080D01*
X149133221Y-77964080D01*
X148933262Y-78003854D01*
X148744904Y-78081875D01*
X148575386Y-78195143D01*
X148431223Y-78339306D01*
X148317955Y-78508824D01*
X148239934Y-78697182D01*
X148200160Y-78897141D01*
X147337204Y-78897141D01*
X147363169Y-77608093D01*
X150298471Y-77630016D01*
X150323265Y-77627761D01*
X150347143Y-77620712D01*
X150369187Y-77609141D01*
X150388549Y-77593491D01*
X150404487Y-77574364D01*
X150416386Y-77552496D01*
X150423791Y-77528726D01*
X150426412Y-77504465D01*
X150472469Y-73455628D01*
X153544977Y-73441340D01*
X153671928Y-73452660D01*
G36*
X142498864Y-74728021D02*
G01*
X142419952Y-76322046D01*
X142407629Y-75385529D01*
X142404863Y-75360787D01*
X142397323Y-75337060D01*
X142385299Y-75315259D01*
X142369253Y-75296224D01*
X142349802Y-75280684D01*
X142327693Y-75269238D01*
X142303776Y-75262325D01*
X142286640Y-75260342D01*
X141658032Y-75230611D01*
X141676099Y-74241439D01*
X141674111Y-74216622D01*
X141667321Y-74192670D01*
X141655988Y-74170503D01*
X141640548Y-74150972D01*
X141621594Y-74134829D01*
X141599855Y-74122694D01*
X141576167Y-74115034D01*
X141548275Y-74112123D01*
X138495195Y-74132443D01*
X138470435Y-74135048D01*
X138446659Y-74142433D01*
X138424781Y-74154315D01*
X138405642Y-74170237D01*
X138389976Y-74189587D01*
X138378386Y-74211621D01*
X138371318Y-74235493D01*
X138369073Y-74256541D01*
X138364936Y-74437760D01*
X138194814Y-74230466D01*
X137968694Y-74044894D01*
X137710714Y-73907001D01*
X137430791Y-73822087D01*
X137212630Y-73800600D01*
X137066730Y-73800600D01*
X136848569Y-73822087D01*
X136568646Y-73907001D01*
X136310666Y-74044894D01*
X136084546Y-74230466D01*
X135898974Y-74456586D01*
X135761081Y-74714566D01*
X135676167Y-74994489D01*
X135647495Y-75285600D01*
X135676167Y-75576711D01*
X135761081Y-75856634D01*
X135898974Y-76114614D01*
X136084546Y-76340734D01*
X136310666Y-76526306D01*
X136365471Y-76555600D01*
X136310666Y-76584894D01*
X136084546Y-76770466D01*
X135898974Y-76996586D01*
X135761081Y-77254566D01*
X135676167Y-77534489D01*
X135647495Y-77825600D01*
X135676167Y-78116711D01*
X135761081Y-78396634D01*
X135898974Y-78654614D01*
X136084546Y-78880734D01*
X136310666Y-79066306D01*
X136365471Y-79095600D01*
X136310666Y-79124894D01*
X136084546Y-79310466D01*
X135898974Y-79536586D01*
X135761081Y-79794566D01*
X135676167Y-80074489D01*
X135647495Y-80365600D01*
X135676167Y-80656711D01*
X135761081Y-80936634D01*
X135898974Y-81194614D01*
X136016917Y-81338328D01*
X135599838Y-81340039D01*
X135621078Y-74045840D01*
X135632620Y-73916392D01*
X135658896Y-73826505D01*
X135702132Y-73743433D01*
X135760676Y-73670345D01*
X135832305Y-73610018D01*
X135914289Y-73564752D01*
X136003498Y-73536273D01*
X136125639Y-73522346D01*
X142413860Y-73493104D01*
X142498864Y-74728021D01*
X142498864Y-74728021D01*
G37*
X142498864Y-74728021D02*
X142419952Y-76322046D01*
X142407629Y-75385529D01*
X142404863Y-75360787D01*
X142397323Y-75337060D01*
X142385299Y-75315259D01*
X142369253Y-75296224D01*
X142349802Y-75280684D01*
X142327693Y-75269238D01*
X142303776Y-75262325D01*
X142286640Y-75260342D01*
X141658032Y-75230611D01*
X141676099Y-74241439D01*
X141674111Y-74216622D01*
X141667321Y-74192670D01*
X141655988Y-74170503D01*
X141640548Y-74150972D01*
X141621594Y-74134829D01*
X141599855Y-74122694D01*
X141576167Y-74115034D01*
X141548275Y-74112123D01*
X138495195Y-74132443D01*
X138470435Y-74135048D01*
X138446659Y-74142433D01*
X138424781Y-74154315D01*
X138405642Y-74170237D01*
X138389976Y-74189587D01*
X138378386Y-74211621D01*
X138371318Y-74235493D01*
X138369073Y-74256541D01*
X138364936Y-74437760D01*
X138194814Y-74230466D01*
X137968694Y-74044894D01*
X137710714Y-73907001D01*
X137430791Y-73822087D01*
X137212630Y-73800600D01*
X137066730Y-73800600D01*
X136848569Y-73822087D01*
X136568646Y-73907001D01*
X136310666Y-74044894D01*
X136084546Y-74230466D01*
X135898974Y-74456586D01*
X135761081Y-74714566D01*
X135676167Y-74994489D01*
X135647495Y-75285600D01*
X135676167Y-75576711D01*
X135761081Y-75856634D01*
X135898974Y-76114614D01*
X136084546Y-76340734D01*
X136310666Y-76526306D01*
X136365471Y-76555600D01*
X136310666Y-76584894D01*
X136084546Y-76770466D01*
X135898974Y-76996586D01*
X135761081Y-77254566D01*
X135676167Y-77534489D01*
X135647495Y-77825600D01*
X135676167Y-78116711D01*
X135761081Y-78396634D01*
X135898974Y-78654614D01*
X136084546Y-78880734D01*
X136310666Y-79066306D01*
X136365471Y-79095600D01*
X136310666Y-79124894D01*
X136084546Y-79310466D01*
X135898974Y-79536586D01*
X135761081Y-79794566D01*
X135676167Y-80074489D01*
X135647495Y-80365600D01*
X135676167Y-80656711D01*
X135761081Y-80936634D01*
X135898974Y-81194614D01*
X136016917Y-81338328D01*
X135599838Y-81340039D01*
X135621078Y-74045840D01*
X135632620Y-73916392D01*
X135658896Y-73826505D01*
X135702132Y-73743433D01*
X135760676Y-73670345D01*
X135832305Y-73610018D01*
X135914289Y-73564752D01*
X136003498Y-73536273D01*
X136125639Y-73522346D01*
X142413860Y-73493104D01*
X142498864Y-74728021D01*
G36*
X138911613Y-79990828D02*
G01*
X138958847Y-81326259D01*
X138270029Y-81329085D01*
X138380386Y-81194614D01*
X138518279Y-80936634D01*
X138603193Y-80656711D01*
X138631865Y-80365600D01*
X138603193Y-80074489D01*
X138569902Y-79964743D01*
X138911613Y-79990828D01*
X138911613Y-79990828D01*
G37*
X138911613Y-79990828D02*
X138958847Y-81326259D01*
X138270029Y-81329085D01*
X138380386Y-81194614D01*
X138518279Y-80936634D01*
X138603193Y-80656711D01*
X138631865Y-80365600D01*
X138603193Y-80074489D01*
X138569902Y-79964743D01*
X138911613Y-79990828D01*
%TD*%
M02*
