M48
; DRILL file {KiCad (5.1.2)-2} date 02/26/21 22:53:18
; FORMAT={3:3/ absolute / metric / suppress leading zeros}
; #@! TF.CreationDate,2021-02-26T22:53:18+01:00
; #@! TF.GenerationSoftware,Kicad,Pcbnew,(5.1.2)-2
FMAT,2
METRIC,TZ
T1C0.400
T2C1.000
%
G90
G05
T1
X139228Y-74696
X139395Y-81336
X139497Y-90546
X140447Y-81346
X140731Y-85755
X141214Y-88341
X142123Y-86401
X142357Y-84115
X142489Y-85613
X142591Y-75027
X143347Y-77704
X143566Y-80472
X145293Y-89154
X145689Y-78161
X146111Y-87391
X146248Y-88240
X146370Y-83419
X147366Y-87986
X148214Y-87361
X148722Y-79329
X149240Y-80447
X149443Y-88991
X150282Y-85613
X150388Y-89555
X150465Y-86421
X150556Y-90505
X150592Y-75016
X151384Y-89469
T2
X152380Y-75286
X152380Y-77826
X152380Y-80366
X152380Y-82906
X152380Y-85446
X152380Y-87986
X152380Y-90526
X137140Y-75286
X137140Y-77826
X137140Y-80366
X137140Y-82906
X137140Y-85446
X137140Y-87986
X137140Y-90526
T0
M30
