%TF.GenerationSoftware,KiCad,Pcbnew,(5.1.2)-2*%
%TF.CreationDate,2021-02-26T22:53:36+01:00*%
%TF.ProjectId,NRF52_Basic,4e524635-325f-4426-9173-69632e6b6963,V1*%
%TF.SameCoordinates,Original*%
%TF.FileFunction,Paste,Top*%
%TF.FilePolarity,Positive*%
%FSLAX46Y46*%
G04 Gerber Fmt 4.6, Leading zero omitted, Abs format (unit mm)*
G04 Created by KiCad (PCBNEW (5.1.2)-2) date 2021-02-26 22:53:36*
%MOMM*%
%LPD*%
G04 APERTURE LIST*
%ADD10R,1.350000X4.200000*%
%ADD11R,1.270000X3.600000*%
%ADD12R,1.400000X1.200000*%
%ADD13C,0.100000*%
%ADD14C,0.318000*%
%ADD15C,0.875000*%
%ADD16C,0.590000*%
%ADD17C,1.240000*%
%ADD18C,0.200000*%
%ADD19R,0.600000X1.100000*%
G04 APERTURE END LIST*
D10*
%TO.C,J4*%
X149429240Y-75016360D03*
X143779240Y-75016360D03*
D11*
X146604240Y-74816360D03*
%TD*%
D12*
%TO.C,Y1*%
X141424840Y-78513040D03*
X139224840Y-78513040D03*
X139224840Y-76813040D03*
X141424840Y-76813040D03*
%TD*%
D13*
%TO.C,C14*%
G36*
X139955412Y-79550983D02*
G01*
X139963130Y-79552128D01*
X139970698Y-79554023D01*
X139978043Y-79556652D01*
X139985096Y-79559987D01*
X139991788Y-79563998D01*
X139998054Y-79568646D01*
X140003835Y-79573885D01*
X140009074Y-79579666D01*
X140013722Y-79585932D01*
X140017733Y-79592624D01*
X140021068Y-79599677D01*
X140023697Y-79607022D01*
X140025592Y-79614590D01*
X140026737Y-79622308D01*
X140027120Y-79630100D01*
X140027120Y-79831100D01*
X140026737Y-79838892D01*
X140025592Y-79846610D01*
X140023697Y-79854178D01*
X140021068Y-79861523D01*
X140017733Y-79868576D01*
X140013722Y-79875268D01*
X140009074Y-79881534D01*
X140003835Y-79887315D01*
X139998054Y-79892554D01*
X139991788Y-79897202D01*
X139985096Y-79901213D01*
X139978043Y-79904548D01*
X139970698Y-79907177D01*
X139963130Y-79909072D01*
X139955412Y-79910217D01*
X139947620Y-79910600D01*
X139788620Y-79910600D01*
X139780828Y-79910217D01*
X139773110Y-79909072D01*
X139765542Y-79907177D01*
X139758197Y-79904548D01*
X139751144Y-79901213D01*
X139744452Y-79897202D01*
X139738186Y-79892554D01*
X139732405Y-79887315D01*
X139727166Y-79881534D01*
X139722518Y-79875268D01*
X139718507Y-79868576D01*
X139715172Y-79861523D01*
X139712543Y-79854178D01*
X139710648Y-79846610D01*
X139709503Y-79838892D01*
X139709120Y-79831100D01*
X139709120Y-79630100D01*
X139709503Y-79622308D01*
X139710648Y-79614590D01*
X139712543Y-79607022D01*
X139715172Y-79599677D01*
X139718507Y-79592624D01*
X139722518Y-79585932D01*
X139727166Y-79579666D01*
X139732405Y-79573885D01*
X139738186Y-79568646D01*
X139744452Y-79563998D01*
X139751144Y-79559987D01*
X139758197Y-79556652D01*
X139765542Y-79554023D01*
X139773110Y-79552128D01*
X139780828Y-79550983D01*
X139788620Y-79550600D01*
X139947620Y-79550600D01*
X139955412Y-79550983D01*
X139955412Y-79550983D01*
G37*
D14*
X139868120Y-79730600D03*
D13*
G36*
X140645412Y-79550983D02*
G01*
X140653130Y-79552128D01*
X140660698Y-79554023D01*
X140668043Y-79556652D01*
X140675096Y-79559987D01*
X140681788Y-79563998D01*
X140688054Y-79568646D01*
X140693835Y-79573885D01*
X140699074Y-79579666D01*
X140703722Y-79585932D01*
X140707733Y-79592624D01*
X140711068Y-79599677D01*
X140713697Y-79607022D01*
X140715592Y-79614590D01*
X140716737Y-79622308D01*
X140717120Y-79630100D01*
X140717120Y-79831100D01*
X140716737Y-79838892D01*
X140715592Y-79846610D01*
X140713697Y-79854178D01*
X140711068Y-79861523D01*
X140707733Y-79868576D01*
X140703722Y-79875268D01*
X140699074Y-79881534D01*
X140693835Y-79887315D01*
X140688054Y-79892554D01*
X140681788Y-79897202D01*
X140675096Y-79901213D01*
X140668043Y-79904548D01*
X140660698Y-79907177D01*
X140653130Y-79909072D01*
X140645412Y-79910217D01*
X140637620Y-79910600D01*
X140478620Y-79910600D01*
X140470828Y-79910217D01*
X140463110Y-79909072D01*
X140455542Y-79907177D01*
X140448197Y-79904548D01*
X140441144Y-79901213D01*
X140434452Y-79897202D01*
X140428186Y-79892554D01*
X140422405Y-79887315D01*
X140417166Y-79881534D01*
X140412518Y-79875268D01*
X140408507Y-79868576D01*
X140405172Y-79861523D01*
X140402543Y-79854178D01*
X140400648Y-79846610D01*
X140399503Y-79838892D01*
X140399120Y-79831100D01*
X140399120Y-79630100D01*
X140399503Y-79622308D01*
X140400648Y-79614590D01*
X140402543Y-79607022D01*
X140405172Y-79599677D01*
X140408507Y-79592624D01*
X140412518Y-79585932D01*
X140417166Y-79579666D01*
X140422405Y-79573885D01*
X140428186Y-79568646D01*
X140434452Y-79563998D01*
X140441144Y-79559987D01*
X140448197Y-79556652D01*
X140455542Y-79554023D01*
X140463110Y-79552128D01*
X140470828Y-79550983D01*
X140478620Y-79550600D01*
X140637620Y-79550600D01*
X140645412Y-79550983D01*
X140645412Y-79550983D01*
G37*
D14*
X140558120Y-79730600D03*
%TD*%
D13*
%TO.C,C2*%
G36*
X139955412Y-75558103D02*
G01*
X139963130Y-75559248D01*
X139970698Y-75561143D01*
X139978043Y-75563772D01*
X139985096Y-75567107D01*
X139991788Y-75571118D01*
X139998054Y-75575766D01*
X140003835Y-75581005D01*
X140009074Y-75586786D01*
X140013722Y-75593052D01*
X140017733Y-75599744D01*
X140021068Y-75606797D01*
X140023697Y-75614142D01*
X140025592Y-75621710D01*
X140026737Y-75629428D01*
X140027120Y-75637220D01*
X140027120Y-75838220D01*
X140026737Y-75846012D01*
X140025592Y-75853730D01*
X140023697Y-75861298D01*
X140021068Y-75868643D01*
X140017733Y-75875696D01*
X140013722Y-75882388D01*
X140009074Y-75888654D01*
X140003835Y-75894435D01*
X139998054Y-75899674D01*
X139991788Y-75904322D01*
X139985096Y-75908333D01*
X139978043Y-75911668D01*
X139970698Y-75914297D01*
X139963130Y-75916192D01*
X139955412Y-75917337D01*
X139947620Y-75917720D01*
X139788620Y-75917720D01*
X139780828Y-75917337D01*
X139773110Y-75916192D01*
X139765542Y-75914297D01*
X139758197Y-75911668D01*
X139751144Y-75908333D01*
X139744452Y-75904322D01*
X139738186Y-75899674D01*
X139732405Y-75894435D01*
X139727166Y-75888654D01*
X139722518Y-75882388D01*
X139718507Y-75875696D01*
X139715172Y-75868643D01*
X139712543Y-75861298D01*
X139710648Y-75853730D01*
X139709503Y-75846012D01*
X139709120Y-75838220D01*
X139709120Y-75637220D01*
X139709503Y-75629428D01*
X139710648Y-75621710D01*
X139712543Y-75614142D01*
X139715172Y-75606797D01*
X139718507Y-75599744D01*
X139722518Y-75593052D01*
X139727166Y-75586786D01*
X139732405Y-75581005D01*
X139738186Y-75575766D01*
X139744452Y-75571118D01*
X139751144Y-75567107D01*
X139758197Y-75563772D01*
X139765542Y-75561143D01*
X139773110Y-75559248D01*
X139780828Y-75558103D01*
X139788620Y-75557720D01*
X139947620Y-75557720D01*
X139955412Y-75558103D01*
X139955412Y-75558103D01*
G37*
D14*
X139868120Y-75737720D03*
D13*
G36*
X140645412Y-75558103D02*
G01*
X140653130Y-75559248D01*
X140660698Y-75561143D01*
X140668043Y-75563772D01*
X140675096Y-75567107D01*
X140681788Y-75571118D01*
X140688054Y-75575766D01*
X140693835Y-75581005D01*
X140699074Y-75586786D01*
X140703722Y-75593052D01*
X140707733Y-75599744D01*
X140711068Y-75606797D01*
X140713697Y-75614142D01*
X140715592Y-75621710D01*
X140716737Y-75629428D01*
X140717120Y-75637220D01*
X140717120Y-75838220D01*
X140716737Y-75846012D01*
X140715592Y-75853730D01*
X140713697Y-75861298D01*
X140711068Y-75868643D01*
X140707733Y-75875696D01*
X140703722Y-75882388D01*
X140699074Y-75888654D01*
X140693835Y-75894435D01*
X140688054Y-75899674D01*
X140681788Y-75904322D01*
X140675096Y-75908333D01*
X140668043Y-75911668D01*
X140660698Y-75914297D01*
X140653130Y-75916192D01*
X140645412Y-75917337D01*
X140637620Y-75917720D01*
X140478620Y-75917720D01*
X140470828Y-75917337D01*
X140463110Y-75916192D01*
X140455542Y-75914297D01*
X140448197Y-75911668D01*
X140441144Y-75908333D01*
X140434452Y-75904322D01*
X140428186Y-75899674D01*
X140422405Y-75894435D01*
X140417166Y-75888654D01*
X140412518Y-75882388D01*
X140408507Y-75875696D01*
X140405172Y-75868643D01*
X140402543Y-75861298D01*
X140400648Y-75853730D01*
X140399503Y-75846012D01*
X140399120Y-75838220D01*
X140399120Y-75637220D01*
X140399503Y-75629428D01*
X140400648Y-75621710D01*
X140402543Y-75614142D01*
X140405172Y-75606797D01*
X140408507Y-75599744D01*
X140412518Y-75593052D01*
X140417166Y-75586786D01*
X140422405Y-75581005D01*
X140428186Y-75575766D01*
X140434452Y-75571118D01*
X140441144Y-75567107D01*
X140448197Y-75563772D01*
X140455542Y-75561143D01*
X140463110Y-75559248D01*
X140470828Y-75558103D01*
X140478620Y-75557720D01*
X140637620Y-75557720D01*
X140645412Y-75558103D01*
X140645412Y-75558103D01*
G37*
D14*
X140558120Y-75737720D03*
%TD*%
D13*
%TO.C,C1*%
G36*
X143647692Y-86241343D02*
G01*
X143655410Y-86242488D01*
X143662978Y-86244383D01*
X143670323Y-86247012D01*
X143677376Y-86250347D01*
X143684068Y-86254358D01*
X143690334Y-86259006D01*
X143696115Y-86264245D01*
X143701354Y-86270026D01*
X143706002Y-86276292D01*
X143710013Y-86282984D01*
X143713348Y-86290037D01*
X143715977Y-86297382D01*
X143717872Y-86304950D01*
X143719017Y-86312668D01*
X143719400Y-86320460D01*
X143719400Y-86521460D01*
X143719017Y-86529252D01*
X143717872Y-86536970D01*
X143715977Y-86544538D01*
X143713348Y-86551883D01*
X143710013Y-86558936D01*
X143706002Y-86565628D01*
X143701354Y-86571894D01*
X143696115Y-86577675D01*
X143690334Y-86582914D01*
X143684068Y-86587562D01*
X143677376Y-86591573D01*
X143670323Y-86594908D01*
X143662978Y-86597537D01*
X143655410Y-86599432D01*
X143647692Y-86600577D01*
X143639900Y-86600960D01*
X143480900Y-86600960D01*
X143473108Y-86600577D01*
X143465390Y-86599432D01*
X143457822Y-86597537D01*
X143450477Y-86594908D01*
X143443424Y-86591573D01*
X143436732Y-86587562D01*
X143430466Y-86582914D01*
X143424685Y-86577675D01*
X143419446Y-86571894D01*
X143414798Y-86565628D01*
X143410787Y-86558936D01*
X143407452Y-86551883D01*
X143404823Y-86544538D01*
X143402928Y-86536970D01*
X143401783Y-86529252D01*
X143401400Y-86521460D01*
X143401400Y-86320460D01*
X143401783Y-86312668D01*
X143402928Y-86304950D01*
X143404823Y-86297382D01*
X143407452Y-86290037D01*
X143410787Y-86282984D01*
X143414798Y-86276292D01*
X143419446Y-86270026D01*
X143424685Y-86264245D01*
X143430466Y-86259006D01*
X143436732Y-86254358D01*
X143443424Y-86250347D01*
X143450477Y-86247012D01*
X143457822Y-86244383D01*
X143465390Y-86242488D01*
X143473108Y-86241343D01*
X143480900Y-86240960D01*
X143639900Y-86240960D01*
X143647692Y-86241343D01*
X143647692Y-86241343D01*
G37*
D14*
X143560400Y-86420960D03*
D13*
G36*
X142957692Y-86241343D02*
G01*
X142965410Y-86242488D01*
X142972978Y-86244383D01*
X142980323Y-86247012D01*
X142987376Y-86250347D01*
X142994068Y-86254358D01*
X143000334Y-86259006D01*
X143006115Y-86264245D01*
X143011354Y-86270026D01*
X143016002Y-86276292D01*
X143020013Y-86282984D01*
X143023348Y-86290037D01*
X143025977Y-86297382D01*
X143027872Y-86304950D01*
X143029017Y-86312668D01*
X143029400Y-86320460D01*
X143029400Y-86521460D01*
X143029017Y-86529252D01*
X143027872Y-86536970D01*
X143025977Y-86544538D01*
X143023348Y-86551883D01*
X143020013Y-86558936D01*
X143016002Y-86565628D01*
X143011354Y-86571894D01*
X143006115Y-86577675D01*
X143000334Y-86582914D01*
X142994068Y-86587562D01*
X142987376Y-86591573D01*
X142980323Y-86594908D01*
X142972978Y-86597537D01*
X142965410Y-86599432D01*
X142957692Y-86600577D01*
X142949900Y-86600960D01*
X142790900Y-86600960D01*
X142783108Y-86600577D01*
X142775390Y-86599432D01*
X142767822Y-86597537D01*
X142760477Y-86594908D01*
X142753424Y-86591573D01*
X142746732Y-86587562D01*
X142740466Y-86582914D01*
X142734685Y-86577675D01*
X142729446Y-86571894D01*
X142724798Y-86565628D01*
X142720787Y-86558936D01*
X142717452Y-86551883D01*
X142714823Y-86544538D01*
X142712928Y-86536970D01*
X142711783Y-86529252D01*
X142711400Y-86521460D01*
X142711400Y-86320460D01*
X142711783Y-86312668D01*
X142712928Y-86304950D01*
X142714823Y-86297382D01*
X142717452Y-86290037D01*
X142720787Y-86282984D01*
X142724798Y-86276292D01*
X142729446Y-86270026D01*
X142734685Y-86264245D01*
X142740466Y-86259006D01*
X142746732Y-86254358D01*
X142753424Y-86250347D01*
X142760477Y-86247012D01*
X142767822Y-86244383D01*
X142775390Y-86242488D01*
X142783108Y-86241343D01*
X142790900Y-86240960D01*
X142949900Y-86240960D01*
X142957692Y-86241343D01*
X142957692Y-86241343D01*
G37*
D14*
X142870400Y-86420960D03*
%TD*%
D13*
%TO.C,C3*%
G36*
X146665172Y-78799143D02*
G01*
X146672890Y-78800288D01*
X146680458Y-78802183D01*
X146687803Y-78804812D01*
X146694856Y-78808147D01*
X146701548Y-78812158D01*
X146707814Y-78816806D01*
X146713595Y-78822045D01*
X146718834Y-78827826D01*
X146723482Y-78834092D01*
X146727493Y-78840784D01*
X146730828Y-78847837D01*
X146733457Y-78855182D01*
X146735352Y-78862750D01*
X146736497Y-78870468D01*
X146736880Y-78878260D01*
X146736880Y-79079260D01*
X146736497Y-79087052D01*
X146735352Y-79094770D01*
X146733457Y-79102338D01*
X146730828Y-79109683D01*
X146727493Y-79116736D01*
X146723482Y-79123428D01*
X146718834Y-79129694D01*
X146713595Y-79135475D01*
X146707814Y-79140714D01*
X146701548Y-79145362D01*
X146694856Y-79149373D01*
X146687803Y-79152708D01*
X146680458Y-79155337D01*
X146672890Y-79157232D01*
X146665172Y-79158377D01*
X146657380Y-79158760D01*
X146498380Y-79158760D01*
X146490588Y-79158377D01*
X146482870Y-79157232D01*
X146475302Y-79155337D01*
X146467957Y-79152708D01*
X146460904Y-79149373D01*
X146454212Y-79145362D01*
X146447946Y-79140714D01*
X146442165Y-79135475D01*
X146436926Y-79129694D01*
X146432278Y-79123428D01*
X146428267Y-79116736D01*
X146424932Y-79109683D01*
X146422303Y-79102338D01*
X146420408Y-79094770D01*
X146419263Y-79087052D01*
X146418880Y-79079260D01*
X146418880Y-78878260D01*
X146419263Y-78870468D01*
X146420408Y-78862750D01*
X146422303Y-78855182D01*
X146424932Y-78847837D01*
X146428267Y-78840784D01*
X146432278Y-78834092D01*
X146436926Y-78827826D01*
X146442165Y-78822045D01*
X146447946Y-78816806D01*
X146454212Y-78812158D01*
X146460904Y-78808147D01*
X146467957Y-78804812D01*
X146475302Y-78802183D01*
X146482870Y-78800288D01*
X146490588Y-78799143D01*
X146498380Y-78798760D01*
X146657380Y-78798760D01*
X146665172Y-78799143D01*
X146665172Y-78799143D01*
G37*
D14*
X146577880Y-78978760D03*
D13*
G36*
X145975172Y-78799143D02*
G01*
X145982890Y-78800288D01*
X145990458Y-78802183D01*
X145997803Y-78804812D01*
X146004856Y-78808147D01*
X146011548Y-78812158D01*
X146017814Y-78816806D01*
X146023595Y-78822045D01*
X146028834Y-78827826D01*
X146033482Y-78834092D01*
X146037493Y-78840784D01*
X146040828Y-78847837D01*
X146043457Y-78855182D01*
X146045352Y-78862750D01*
X146046497Y-78870468D01*
X146046880Y-78878260D01*
X146046880Y-79079260D01*
X146046497Y-79087052D01*
X146045352Y-79094770D01*
X146043457Y-79102338D01*
X146040828Y-79109683D01*
X146037493Y-79116736D01*
X146033482Y-79123428D01*
X146028834Y-79129694D01*
X146023595Y-79135475D01*
X146017814Y-79140714D01*
X146011548Y-79145362D01*
X146004856Y-79149373D01*
X145997803Y-79152708D01*
X145990458Y-79155337D01*
X145982890Y-79157232D01*
X145975172Y-79158377D01*
X145967380Y-79158760D01*
X145808380Y-79158760D01*
X145800588Y-79158377D01*
X145792870Y-79157232D01*
X145785302Y-79155337D01*
X145777957Y-79152708D01*
X145770904Y-79149373D01*
X145764212Y-79145362D01*
X145757946Y-79140714D01*
X145752165Y-79135475D01*
X145746926Y-79129694D01*
X145742278Y-79123428D01*
X145738267Y-79116736D01*
X145734932Y-79109683D01*
X145732303Y-79102338D01*
X145730408Y-79094770D01*
X145729263Y-79087052D01*
X145728880Y-79079260D01*
X145728880Y-78878260D01*
X145729263Y-78870468D01*
X145730408Y-78862750D01*
X145732303Y-78855182D01*
X145734932Y-78847837D01*
X145738267Y-78840784D01*
X145742278Y-78834092D01*
X145746926Y-78827826D01*
X145752165Y-78822045D01*
X145757946Y-78816806D01*
X145764212Y-78812158D01*
X145770904Y-78808147D01*
X145777957Y-78804812D01*
X145785302Y-78802183D01*
X145792870Y-78800288D01*
X145800588Y-78799143D01*
X145808380Y-78798760D01*
X145967380Y-78798760D01*
X145975172Y-78799143D01*
X145975172Y-78799143D01*
G37*
D14*
X145887880Y-78978760D03*
%TD*%
D13*
%TO.C,C4*%
G36*
X145010212Y-78199903D02*
G01*
X145017930Y-78201048D01*
X145025498Y-78202943D01*
X145032843Y-78205572D01*
X145039896Y-78208907D01*
X145046588Y-78212918D01*
X145052854Y-78217566D01*
X145058635Y-78222805D01*
X145063874Y-78228586D01*
X145068522Y-78234852D01*
X145072533Y-78241544D01*
X145075868Y-78248597D01*
X145078497Y-78255942D01*
X145080392Y-78263510D01*
X145081537Y-78271228D01*
X145081920Y-78279020D01*
X145081920Y-78438020D01*
X145081537Y-78445812D01*
X145080392Y-78453530D01*
X145078497Y-78461098D01*
X145075868Y-78468443D01*
X145072533Y-78475496D01*
X145068522Y-78482188D01*
X145063874Y-78488454D01*
X145058635Y-78494235D01*
X145052854Y-78499474D01*
X145046588Y-78504122D01*
X145039896Y-78508133D01*
X145032843Y-78511468D01*
X145025498Y-78514097D01*
X145017930Y-78515992D01*
X145010212Y-78517137D01*
X145002420Y-78517520D01*
X144801420Y-78517520D01*
X144793628Y-78517137D01*
X144785910Y-78515992D01*
X144778342Y-78514097D01*
X144770997Y-78511468D01*
X144763944Y-78508133D01*
X144757252Y-78504122D01*
X144750986Y-78499474D01*
X144745205Y-78494235D01*
X144739966Y-78488454D01*
X144735318Y-78482188D01*
X144731307Y-78475496D01*
X144727972Y-78468443D01*
X144725343Y-78461098D01*
X144723448Y-78453530D01*
X144722303Y-78445812D01*
X144721920Y-78438020D01*
X144721920Y-78279020D01*
X144722303Y-78271228D01*
X144723448Y-78263510D01*
X144725343Y-78255942D01*
X144727972Y-78248597D01*
X144731307Y-78241544D01*
X144735318Y-78234852D01*
X144739966Y-78228586D01*
X144745205Y-78222805D01*
X144750986Y-78217566D01*
X144757252Y-78212918D01*
X144763944Y-78208907D01*
X144770997Y-78205572D01*
X144778342Y-78202943D01*
X144785910Y-78201048D01*
X144793628Y-78199903D01*
X144801420Y-78199520D01*
X145002420Y-78199520D01*
X145010212Y-78199903D01*
X145010212Y-78199903D01*
G37*
D14*
X144901920Y-78358520D03*
D13*
G36*
X145010212Y-77509903D02*
G01*
X145017930Y-77511048D01*
X145025498Y-77512943D01*
X145032843Y-77515572D01*
X145039896Y-77518907D01*
X145046588Y-77522918D01*
X145052854Y-77527566D01*
X145058635Y-77532805D01*
X145063874Y-77538586D01*
X145068522Y-77544852D01*
X145072533Y-77551544D01*
X145075868Y-77558597D01*
X145078497Y-77565942D01*
X145080392Y-77573510D01*
X145081537Y-77581228D01*
X145081920Y-77589020D01*
X145081920Y-77748020D01*
X145081537Y-77755812D01*
X145080392Y-77763530D01*
X145078497Y-77771098D01*
X145075868Y-77778443D01*
X145072533Y-77785496D01*
X145068522Y-77792188D01*
X145063874Y-77798454D01*
X145058635Y-77804235D01*
X145052854Y-77809474D01*
X145046588Y-77814122D01*
X145039896Y-77818133D01*
X145032843Y-77821468D01*
X145025498Y-77824097D01*
X145017930Y-77825992D01*
X145010212Y-77827137D01*
X145002420Y-77827520D01*
X144801420Y-77827520D01*
X144793628Y-77827137D01*
X144785910Y-77825992D01*
X144778342Y-77824097D01*
X144770997Y-77821468D01*
X144763944Y-77818133D01*
X144757252Y-77814122D01*
X144750986Y-77809474D01*
X144745205Y-77804235D01*
X144739966Y-77798454D01*
X144735318Y-77792188D01*
X144731307Y-77785496D01*
X144727972Y-77778443D01*
X144725343Y-77771098D01*
X144723448Y-77763530D01*
X144722303Y-77755812D01*
X144721920Y-77748020D01*
X144721920Y-77589020D01*
X144722303Y-77581228D01*
X144723448Y-77573510D01*
X144725343Y-77565942D01*
X144727972Y-77558597D01*
X144731307Y-77551544D01*
X144735318Y-77544852D01*
X144739966Y-77538586D01*
X144745205Y-77532805D01*
X144750986Y-77527566D01*
X144757252Y-77522918D01*
X144763944Y-77518907D01*
X144770997Y-77515572D01*
X144778342Y-77512943D01*
X144785910Y-77511048D01*
X144793628Y-77509903D01*
X144801420Y-77509520D01*
X145002420Y-77509520D01*
X145010212Y-77509903D01*
X145010212Y-77509903D01*
G37*
D14*
X144901920Y-77668520D03*
%TD*%
D13*
%TO.C,C7*%
G36*
X144227892Y-77504863D02*
G01*
X144235610Y-77506008D01*
X144243178Y-77507903D01*
X144250523Y-77510532D01*
X144257576Y-77513867D01*
X144264268Y-77517878D01*
X144270534Y-77522526D01*
X144276315Y-77527765D01*
X144281554Y-77533546D01*
X144286202Y-77539812D01*
X144290213Y-77546504D01*
X144293548Y-77553557D01*
X144296177Y-77560902D01*
X144298072Y-77568470D01*
X144299217Y-77576188D01*
X144299600Y-77583980D01*
X144299600Y-77742980D01*
X144299217Y-77750772D01*
X144298072Y-77758490D01*
X144296177Y-77766058D01*
X144293548Y-77773403D01*
X144290213Y-77780456D01*
X144286202Y-77787148D01*
X144281554Y-77793414D01*
X144276315Y-77799195D01*
X144270534Y-77804434D01*
X144264268Y-77809082D01*
X144257576Y-77813093D01*
X144250523Y-77816428D01*
X144243178Y-77819057D01*
X144235610Y-77820952D01*
X144227892Y-77822097D01*
X144220100Y-77822480D01*
X144019100Y-77822480D01*
X144011308Y-77822097D01*
X144003590Y-77820952D01*
X143996022Y-77819057D01*
X143988677Y-77816428D01*
X143981624Y-77813093D01*
X143974932Y-77809082D01*
X143968666Y-77804434D01*
X143962885Y-77799195D01*
X143957646Y-77793414D01*
X143952998Y-77787148D01*
X143948987Y-77780456D01*
X143945652Y-77773403D01*
X143943023Y-77766058D01*
X143941128Y-77758490D01*
X143939983Y-77750772D01*
X143939600Y-77742980D01*
X143939600Y-77583980D01*
X143939983Y-77576188D01*
X143941128Y-77568470D01*
X143943023Y-77560902D01*
X143945652Y-77553557D01*
X143948987Y-77546504D01*
X143952998Y-77539812D01*
X143957646Y-77533546D01*
X143962885Y-77527765D01*
X143968666Y-77522526D01*
X143974932Y-77517878D01*
X143981624Y-77513867D01*
X143988677Y-77510532D01*
X143996022Y-77507903D01*
X144003590Y-77506008D01*
X144011308Y-77504863D01*
X144019100Y-77504480D01*
X144220100Y-77504480D01*
X144227892Y-77504863D01*
X144227892Y-77504863D01*
G37*
D14*
X144119600Y-77663480D03*
D13*
G36*
X144227892Y-78194863D02*
G01*
X144235610Y-78196008D01*
X144243178Y-78197903D01*
X144250523Y-78200532D01*
X144257576Y-78203867D01*
X144264268Y-78207878D01*
X144270534Y-78212526D01*
X144276315Y-78217765D01*
X144281554Y-78223546D01*
X144286202Y-78229812D01*
X144290213Y-78236504D01*
X144293548Y-78243557D01*
X144296177Y-78250902D01*
X144298072Y-78258470D01*
X144299217Y-78266188D01*
X144299600Y-78273980D01*
X144299600Y-78432980D01*
X144299217Y-78440772D01*
X144298072Y-78448490D01*
X144296177Y-78456058D01*
X144293548Y-78463403D01*
X144290213Y-78470456D01*
X144286202Y-78477148D01*
X144281554Y-78483414D01*
X144276315Y-78489195D01*
X144270534Y-78494434D01*
X144264268Y-78499082D01*
X144257576Y-78503093D01*
X144250523Y-78506428D01*
X144243178Y-78509057D01*
X144235610Y-78510952D01*
X144227892Y-78512097D01*
X144220100Y-78512480D01*
X144019100Y-78512480D01*
X144011308Y-78512097D01*
X144003590Y-78510952D01*
X143996022Y-78509057D01*
X143988677Y-78506428D01*
X143981624Y-78503093D01*
X143974932Y-78499082D01*
X143968666Y-78494434D01*
X143962885Y-78489195D01*
X143957646Y-78483414D01*
X143952998Y-78477148D01*
X143948987Y-78470456D01*
X143945652Y-78463403D01*
X143943023Y-78456058D01*
X143941128Y-78448490D01*
X143939983Y-78440772D01*
X143939600Y-78432980D01*
X143939600Y-78273980D01*
X143939983Y-78266188D01*
X143941128Y-78258470D01*
X143943023Y-78250902D01*
X143945652Y-78243557D01*
X143948987Y-78236504D01*
X143952998Y-78229812D01*
X143957646Y-78223546D01*
X143962885Y-78217765D01*
X143968666Y-78212526D01*
X143974932Y-78207878D01*
X143981624Y-78203867D01*
X143988677Y-78200532D01*
X143996022Y-78197903D01*
X144003590Y-78196008D01*
X144011308Y-78194863D01*
X144019100Y-78194480D01*
X144220100Y-78194480D01*
X144227892Y-78194863D01*
X144227892Y-78194863D01*
G37*
D14*
X144119600Y-78353480D03*
%TD*%
D13*
%TO.C,C8*%
G36*
X149736371Y-87605233D02*
G01*
X149757606Y-87608383D01*
X149778430Y-87613599D01*
X149798642Y-87620831D01*
X149818048Y-87630010D01*
X149836461Y-87641046D01*
X149853704Y-87653834D01*
X149869610Y-87668250D01*
X149884026Y-87684156D01*
X149896814Y-87701399D01*
X149907850Y-87719812D01*
X149917029Y-87739218D01*
X149924261Y-87759430D01*
X149929477Y-87780254D01*
X149932627Y-87801489D01*
X149933680Y-87822930D01*
X149933680Y-88260430D01*
X149932627Y-88281871D01*
X149929477Y-88303106D01*
X149924261Y-88323930D01*
X149917029Y-88344142D01*
X149907850Y-88363548D01*
X149896814Y-88381961D01*
X149884026Y-88399204D01*
X149869610Y-88415110D01*
X149853704Y-88429526D01*
X149836461Y-88442314D01*
X149818048Y-88453350D01*
X149798642Y-88462529D01*
X149778430Y-88469761D01*
X149757606Y-88474977D01*
X149736371Y-88478127D01*
X149714930Y-88479180D01*
X149202430Y-88479180D01*
X149180989Y-88478127D01*
X149159754Y-88474977D01*
X149138930Y-88469761D01*
X149118718Y-88462529D01*
X149099312Y-88453350D01*
X149080899Y-88442314D01*
X149063656Y-88429526D01*
X149047750Y-88415110D01*
X149033334Y-88399204D01*
X149020546Y-88381961D01*
X149009510Y-88363548D01*
X149000331Y-88344142D01*
X148993099Y-88323930D01*
X148987883Y-88303106D01*
X148984733Y-88281871D01*
X148983680Y-88260430D01*
X148983680Y-87822930D01*
X148984733Y-87801489D01*
X148987883Y-87780254D01*
X148993099Y-87759430D01*
X149000331Y-87739218D01*
X149009510Y-87719812D01*
X149020546Y-87701399D01*
X149033334Y-87684156D01*
X149047750Y-87668250D01*
X149063656Y-87653834D01*
X149080899Y-87641046D01*
X149099312Y-87630010D01*
X149118718Y-87620831D01*
X149138930Y-87613599D01*
X149159754Y-87608383D01*
X149180989Y-87605233D01*
X149202430Y-87604180D01*
X149714930Y-87604180D01*
X149736371Y-87605233D01*
X149736371Y-87605233D01*
G37*
D15*
X149458680Y-88041680D03*
D13*
G36*
X149736371Y-86030233D02*
G01*
X149757606Y-86033383D01*
X149778430Y-86038599D01*
X149798642Y-86045831D01*
X149818048Y-86055010D01*
X149836461Y-86066046D01*
X149853704Y-86078834D01*
X149869610Y-86093250D01*
X149884026Y-86109156D01*
X149896814Y-86126399D01*
X149907850Y-86144812D01*
X149917029Y-86164218D01*
X149924261Y-86184430D01*
X149929477Y-86205254D01*
X149932627Y-86226489D01*
X149933680Y-86247930D01*
X149933680Y-86685430D01*
X149932627Y-86706871D01*
X149929477Y-86728106D01*
X149924261Y-86748930D01*
X149917029Y-86769142D01*
X149907850Y-86788548D01*
X149896814Y-86806961D01*
X149884026Y-86824204D01*
X149869610Y-86840110D01*
X149853704Y-86854526D01*
X149836461Y-86867314D01*
X149818048Y-86878350D01*
X149798642Y-86887529D01*
X149778430Y-86894761D01*
X149757606Y-86899977D01*
X149736371Y-86903127D01*
X149714930Y-86904180D01*
X149202430Y-86904180D01*
X149180989Y-86903127D01*
X149159754Y-86899977D01*
X149138930Y-86894761D01*
X149118718Y-86887529D01*
X149099312Y-86878350D01*
X149080899Y-86867314D01*
X149063656Y-86854526D01*
X149047750Y-86840110D01*
X149033334Y-86824204D01*
X149020546Y-86806961D01*
X149009510Y-86788548D01*
X149000331Y-86769142D01*
X148993099Y-86748930D01*
X148987883Y-86728106D01*
X148984733Y-86706871D01*
X148983680Y-86685430D01*
X148983680Y-86247930D01*
X148984733Y-86226489D01*
X148987883Y-86205254D01*
X148993099Y-86184430D01*
X149000331Y-86164218D01*
X149009510Y-86144812D01*
X149020546Y-86126399D01*
X149033334Y-86109156D01*
X149047750Y-86093250D01*
X149063656Y-86078834D01*
X149080899Y-86066046D01*
X149099312Y-86055010D01*
X149118718Y-86045831D01*
X149138930Y-86038599D01*
X149159754Y-86033383D01*
X149180989Y-86030233D01*
X149202430Y-86029180D01*
X149714930Y-86029180D01*
X149736371Y-86030233D01*
X149736371Y-86030233D01*
G37*
D15*
X149458680Y-86466680D03*
%TD*%
D13*
%TO.C,C9*%
G36*
X141730998Y-83764750D02*
G01*
X141745316Y-83766874D01*
X141759357Y-83770391D01*
X141772986Y-83775268D01*
X141786071Y-83781457D01*
X141798487Y-83788898D01*
X141810113Y-83797521D01*
X141820838Y-83807242D01*
X141830559Y-83817967D01*
X141839182Y-83829593D01*
X141846623Y-83842009D01*
X141852812Y-83855094D01*
X141857689Y-83868723D01*
X141861206Y-83882764D01*
X141863330Y-83897082D01*
X141864040Y-83911540D01*
X141864040Y-84206540D01*
X141863330Y-84220998D01*
X141861206Y-84235316D01*
X141857689Y-84249357D01*
X141852812Y-84262986D01*
X141846623Y-84276071D01*
X141839182Y-84288487D01*
X141830559Y-84300113D01*
X141820838Y-84310838D01*
X141810113Y-84320559D01*
X141798487Y-84329182D01*
X141786071Y-84336623D01*
X141772986Y-84342812D01*
X141759357Y-84347689D01*
X141745316Y-84351206D01*
X141730998Y-84353330D01*
X141716540Y-84354040D01*
X141371540Y-84354040D01*
X141357082Y-84353330D01*
X141342764Y-84351206D01*
X141328723Y-84347689D01*
X141315094Y-84342812D01*
X141302009Y-84336623D01*
X141289593Y-84329182D01*
X141277967Y-84320559D01*
X141267242Y-84310838D01*
X141257521Y-84300113D01*
X141248898Y-84288487D01*
X141241457Y-84276071D01*
X141235268Y-84262986D01*
X141230391Y-84249357D01*
X141226874Y-84235316D01*
X141224750Y-84220998D01*
X141224040Y-84206540D01*
X141224040Y-83911540D01*
X141224750Y-83897082D01*
X141226874Y-83882764D01*
X141230391Y-83868723D01*
X141235268Y-83855094D01*
X141241457Y-83842009D01*
X141248898Y-83829593D01*
X141257521Y-83817967D01*
X141267242Y-83807242D01*
X141277967Y-83797521D01*
X141289593Y-83788898D01*
X141302009Y-83781457D01*
X141315094Y-83775268D01*
X141328723Y-83770391D01*
X141342764Y-83766874D01*
X141357082Y-83764750D01*
X141371540Y-83764040D01*
X141716540Y-83764040D01*
X141730998Y-83764750D01*
X141730998Y-83764750D01*
G37*
D16*
X141544040Y-84059040D03*
D13*
G36*
X141730998Y-84734750D02*
G01*
X141745316Y-84736874D01*
X141759357Y-84740391D01*
X141772986Y-84745268D01*
X141786071Y-84751457D01*
X141798487Y-84758898D01*
X141810113Y-84767521D01*
X141820838Y-84777242D01*
X141830559Y-84787967D01*
X141839182Y-84799593D01*
X141846623Y-84812009D01*
X141852812Y-84825094D01*
X141857689Y-84838723D01*
X141861206Y-84852764D01*
X141863330Y-84867082D01*
X141864040Y-84881540D01*
X141864040Y-85176540D01*
X141863330Y-85190998D01*
X141861206Y-85205316D01*
X141857689Y-85219357D01*
X141852812Y-85232986D01*
X141846623Y-85246071D01*
X141839182Y-85258487D01*
X141830559Y-85270113D01*
X141820838Y-85280838D01*
X141810113Y-85290559D01*
X141798487Y-85299182D01*
X141786071Y-85306623D01*
X141772986Y-85312812D01*
X141759357Y-85317689D01*
X141745316Y-85321206D01*
X141730998Y-85323330D01*
X141716540Y-85324040D01*
X141371540Y-85324040D01*
X141357082Y-85323330D01*
X141342764Y-85321206D01*
X141328723Y-85317689D01*
X141315094Y-85312812D01*
X141302009Y-85306623D01*
X141289593Y-85299182D01*
X141277967Y-85290559D01*
X141267242Y-85280838D01*
X141257521Y-85270113D01*
X141248898Y-85258487D01*
X141241457Y-85246071D01*
X141235268Y-85232986D01*
X141230391Y-85219357D01*
X141226874Y-85205316D01*
X141224750Y-85190998D01*
X141224040Y-85176540D01*
X141224040Y-84881540D01*
X141224750Y-84867082D01*
X141226874Y-84852764D01*
X141230391Y-84838723D01*
X141235268Y-84825094D01*
X141241457Y-84812009D01*
X141248898Y-84799593D01*
X141257521Y-84787967D01*
X141267242Y-84777242D01*
X141277967Y-84767521D01*
X141289593Y-84758898D01*
X141302009Y-84751457D01*
X141315094Y-84745268D01*
X141328723Y-84740391D01*
X141342764Y-84736874D01*
X141357082Y-84734750D01*
X141371540Y-84734040D01*
X141716540Y-84734040D01*
X141730998Y-84734750D01*
X141730998Y-84734750D01*
G37*
D16*
X141544040Y-85029040D03*
%TD*%
D13*
%TO.C,C12*%
G36*
X142028252Y-87537863D02*
G01*
X142035970Y-87539008D01*
X142043538Y-87540903D01*
X142050883Y-87543532D01*
X142057936Y-87546867D01*
X142064628Y-87550878D01*
X142070894Y-87555526D01*
X142076675Y-87560765D01*
X142081914Y-87566546D01*
X142086562Y-87572812D01*
X142090573Y-87579504D01*
X142093908Y-87586557D01*
X142096537Y-87593902D01*
X142098432Y-87601470D01*
X142099577Y-87609188D01*
X142099960Y-87616980D01*
X142099960Y-87775980D01*
X142099577Y-87783772D01*
X142098432Y-87791490D01*
X142096537Y-87799058D01*
X142093908Y-87806403D01*
X142090573Y-87813456D01*
X142086562Y-87820148D01*
X142081914Y-87826414D01*
X142076675Y-87832195D01*
X142070894Y-87837434D01*
X142064628Y-87842082D01*
X142057936Y-87846093D01*
X142050883Y-87849428D01*
X142043538Y-87852057D01*
X142035970Y-87853952D01*
X142028252Y-87855097D01*
X142020460Y-87855480D01*
X141819460Y-87855480D01*
X141811668Y-87855097D01*
X141803950Y-87853952D01*
X141796382Y-87852057D01*
X141789037Y-87849428D01*
X141781984Y-87846093D01*
X141775292Y-87842082D01*
X141769026Y-87837434D01*
X141763245Y-87832195D01*
X141758006Y-87826414D01*
X141753358Y-87820148D01*
X141749347Y-87813456D01*
X141746012Y-87806403D01*
X141743383Y-87799058D01*
X141741488Y-87791490D01*
X141740343Y-87783772D01*
X141739960Y-87775980D01*
X141739960Y-87616980D01*
X141740343Y-87609188D01*
X141741488Y-87601470D01*
X141743383Y-87593902D01*
X141746012Y-87586557D01*
X141749347Y-87579504D01*
X141753358Y-87572812D01*
X141758006Y-87566546D01*
X141763245Y-87560765D01*
X141769026Y-87555526D01*
X141775292Y-87550878D01*
X141781984Y-87546867D01*
X141789037Y-87543532D01*
X141796382Y-87540903D01*
X141803950Y-87539008D01*
X141811668Y-87537863D01*
X141819460Y-87537480D01*
X142020460Y-87537480D01*
X142028252Y-87537863D01*
X142028252Y-87537863D01*
G37*
D14*
X141919960Y-87696480D03*
D13*
G36*
X142028252Y-88227863D02*
G01*
X142035970Y-88229008D01*
X142043538Y-88230903D01*
X142050883Y-88233532D01*
X142057936Y-88236867D01*
X142064628Y-88240878D01*
X142070894Y-88245526D01*
X142076675Y-88250765D01*
X142081914Y-88256546D01*
X142086562Y-88262812D01*
X142090573Y-88269504D01*
X142093908Y-88276557D01*
X142096537Y-88283902D01*
X142098432Y-88291470D01*
X142099577Y-88299188D01*
X142099960Y-88306980D01*
X142099960Y-88465980D01*
X142099577Y-88473772D01*
X142098432Y-88481490D01*
X142096537Y-88489058D01*
X142093908Y-88496403D01*
X142090573Y-88503456D01*
X142086562Y-88510148D01*
X142081914Y-88516414D01*
X142076675Y-88522195D01*
X142070894Y-88527434D01*
X142064628Y-88532082D01*
X142057936Y-88536093D01*
X142050883Y-88539428D01*
X142043538Y-88542057D01*
X142035970Y-88543952D01*
X142028252Y-88545097D01*
X142020460Y-88545480D01*
X141819460Y-88545480D01*
X141811668Y-88545097D01*
X141803950Y-88543952D01*
X141796382Y-88542057D01*
X141789037Y-88539428D01*
X141781984Y-88536093D01*
X141775292Y-88532082D01*
X141769026Y-88527434D01*
X141763245Y-88522195D01*
X141758006Y-88516414D01*
X141753358Y-88510148D01*
X141749347Y-88503456D01*
X141746012Y-88496403D01*
X141743383Y-88489058D01*
X141741488Y-88481490D01*
X141740343Y-88473772D01*
X141739960Y-88465980D01*
X141739960Y-88306980D01*
X141740343Y-88299188D01*
X141741488Y-88291470D01*
X141743383Y-88283902D01*
X141746012Y-88276557D01*
X141749347Y-88269504D01*
X141753358Y-88262812D01*
X141758006Y-88256546D01*
X141763245Y-88250765D01*
X141769026Y-88245526D01*
X141775292Y-88240878D01*
X141781984Y-88236867D01*
X141789037Y-88233532D01*
X141796382Y-88230903D01*
X141803950Y-88229008D01*
X141811668Y-88227863D01*
X141819460Y-88227480D01*
X142020460Y-88227480D01*
X142028252Y-88227863D01*
X142028252Y-88227863D01*
G37*
D14*
X141919960Y-88386480D03*
%TD*%
D13*
%TO.C,C13*%
G36*
X145411532Y-87517583D02*
G01*
X145419250Y-87518728D01*
X145426818Y-87520623D01*
X145434163Y-87523252D01*
X145441216Y-87526587D01*
X145447908Y-87530598D01*
X145454174Y-87535246D01*
X145459955Y-87540485D01*
X145465194Y-87546266D01*
X145469842Y-87552532D01*
X145473853Y-87559224D01*
X145477188Y-87566277D01*
X145479817Y-87573622D01*
X145481712Y-87581190D01*
X145482857Y-87588908D01*
X145483240Y-87596700D01*
X145483240Y-87755700D01*
X145482857Y-87763492D01*
X145481712Y-87771210D01*
X145479817Y-87778778D01*
X145477188Y-87786123D01*
X145473853Y-87793176D01*
X145469842Y-87799868D01*
X145465194Y-87806134D01*
X145459955Y-87811915D01*
X145454174Y-87817154D01*
X145447908Y-87821802D01*
X145441216Y-87825813D01*
X145434163Y-87829148D01*
X145426818Y-87831777D01*
X145419250Y-87833672D01*
X145411532Y-87834817D01*
X145403740Y-87835200D01*
X145202740Y-87835200D01*
X145194948Y-87834817D01*
X145187230Y-87833672D01*
X145179662Y-87831777D01*
X145172317Y-87829148D01*
X145165264Y-87825813D01*
X145158572Y-87821802D01*
X145152306Y-87817154D01*
X145146525Y-87811915D01*
X145141286Y-87806134D01*
X145136638Y-87799868D01*
X145132627Y-87793176D01*
X145129292Y-87786123D01*
X145126663Y-87778778D01*
X145124768Y-87771210D01*
X145123623Y-87763492D01*
X145123240Y-87755700D01*
X145123240Y-87596700D01*
X145123623Y-87588908D01*
X145124768Y-87581190D01*
X145126663Y-87573622D01*
X145129292Y-87566277D01*
X145132627Y-87559224D01*
X145136638Y-87552532D01*
X145141286Y-87546266D01*
X145146525Y-87540485D01*
X145152306Y-87535246D01*
X145158572Y-87530598D01*
X145165264Y-87526587D01*
X145172317Y-87523252D01*
X145179662Y-87520623D01*
X145187230Y-87518728D01*
X145194948Y-87517583D01*
X145202740Y-87517200D01*
X145403740Y-87517200D01*
X145411532Y-87517583D01*
X145411532Y-87517583D01*
G37*
D14*
X145303240Y-87676200D03*
D13*
G36*
X145411532Y-88207583D02*
G01*
X145419250Y-88208728D01*
X145426818Y-88210623D01*
X145434163Y-88213252D01*
X145441216Y-88216587D01*
X145447908Y-88220598D01*
X145454174Y-88225246D01*
X145459955Y-88230485D01*
X145465194Y-88236266D01*
X145469842Y-88242532D01*
X145473853Y-88249224D01*
X145477188Y-88256277D01*
X145479817Y-88263622D01*
X145481712Y-88271190D01*
X145482857Y-88278908D01*
X145483240Y-88286700D01*
X145483240Y-88445700D01*
X145482857Y-88453492D01*
X145481712Y-88461210D01*
X145479817Y-88468778D01*
X145477188Y-88476123D01*
X145473853Y-88483176D01*
X145469842Y-88489868D01*
X145465194Y-88496134D01*
X145459955Y-88501915D01*
X145454174Y-88507154D01*
X145447908Y-88511802D01*
X145441216Y-88515813D01*
X145434163Y-88519148D01*
X145426818Y-88521777D01*
X145419250Y-88523672D01*
X145411532Y-88524817D01*
X145403740Y-88525200D01*
X145202740Y-88525200D01*
X145194948Y-88524817D01*
X145187230Y-88523672D01*
X145179662Y-88521777D01*
X145172317Y-88519148D01*
X145165264Y-88515813D01*
X145158572Y-88511802D01*
X145152306Y-88507154D01*
X145146525Y-88501915D01*
X145141286Y-88496134D01*
X145136638Y-88489868D01*
X145132627Y-88483176D01*
X145129292Y-88476123D01*
X145126663Y-88468778D01*
X145124768Y-88461210D01*
X145123623Y-88453492D01*
X145123240Y-88445700D01*
X145123240Y-88286700D01*
X145123623Y-88278908D01*
X145124768Y-88271190D01*
X145126663Y-88263622D01*
X145129292Y-88256277D01*
X145132627Y-88249224D01*
X145136638Y-88242532D01*
X145141286Y-88236266D01*
X145146525Y-88230485D01*
X145152306Y-88225246D01*
X145158572Y-88220598D01*
X145165264Y-88216587D01*
X145172317Y-88213252D01*
X145179662Y-88210623D01*
X145187230Y-88208728D01*
X145194948Y-88207583D01*
X145202740Y-88207200D01*
X145403740Y-88207200D01*
X145411532Y-88207583D01*
X145411532Y-88207583D01*
G37*
D14*
X145303240Y-88366200D03*
%TD*%
D13*
%TO.C,L1*%
G36*
X146645972Y-78159743D02*
G01*
X146653690Y-78160888D01*
X146661258Y-78162783D01*
X146668603Y-78165412D01*
X146675656Y-78168747D01*
X146682348Y-78172758D01*
X146688614Y-78177406D01*
X146694395Y-78182645D01*
X146699634Y-78188426D01*
X146704282Y-78194692D01*
X146708293Y-78201384D01*
X146711628Y-78208437D01*
X146714257Y-78215782D01*
X146716152Y-78223350D01*
X146717297Y-78231068D01*
X146717680Y-78238860D01*
X146717680Y-78397860D01*
X146717297Y-78405652D01*
X146716152Y-78413370D01*
X146714257Y-78420938D01*
X146711628Y-78428283D01*
X146708293Y-78435336D01*
X146704282Y-78442028D01*
X146699634Y-78448294D01*
X146694395Y-78454075D01*
X146688614Y-78459314D01*
X146682348Y-78463962D01*
X146675656Y-78467973D01*
X146668603Y-78471308D01*
X146661258Y-78473937D01*
X146653690Y-78475832D01*
X146645972Y-78476977D01*
X146638180Y-78477360D01*
X146437180Y-78477360D01*
X146429388Y-78476977D01*
X146421670Y-78475832D01*
X146414102Y-78473937D01*
X146406757Y-78471308D01*
X146399704Y-78467973D01*
X146393012Y-78463962D01*
X146386746Y-78459314D01*
X146380965Y-78454075D01*
X146375726Y-78448294D01*
X146371078Y-78442028D01*
X146367067Y-78435336D01*
X146363732Y-78428283D01*
X146361103Y-78420938D01*
X146359208Y-78413370D01*
X146358063Y-78405652D01*
X146357680Y-78397860D01*
X146357680Y-78238860D01*
X146358063Y-78231068D01*
X146359208Y-78223350D01*
X146361103Y-78215782D01*
X146363732Y-78208437D01*
X146367067Y-78201384D01*
X146371078Y-78194692D01*
X146375726Y-78188426D01*
X146380965Y-78182645D01*
X146386746Y-78177406D01*
X146393012Y-78172758D01*
X146399704Y-78168747D01*
X146406757Y-78165412D01*
X146414102Y-78162783D01*
X146421670Y-78160888D01*
X146429388Y-78159743D01*
X146437180Y-78159360D01*
X146638180Y-78159360D01*
X146645972Y-78159743D01*
X146645972Y-78159743D01*
G37*
D14*
X146537680Y-78318360D03*
D13*
G36*
X146645972Y-77469743D02*
G01*
X146653690Y-77470888D01*
X146661258Y-77472783D01*
X146668603Y-77475412D01*
X146675656Y-77478747D01*
X146682348Y-77482758D01*
X146688614Y-77487406D01*
X146694395Y-77492645D01*
X146699634Y-77498426D01*
X146704282Y-77504692D01*
X146708293Y-77511384D01*
X146711628Y-77518437D01*
X146714257Y-77525782D01*
X146716152Y-77533350D01*
X146717297Y-77541068D01*
X146717680Y-77548860D01*
X146717680Y-77707860D01*
X146717297Y-77715652D01*
X146716152Y-77723370D01*
X146714257Y-77730938D01*
X146711628Y-77738283D01*
X146708293Y-77745336D01*
X146704282Y-77752028D01*
X146699634Y-77758294D01*
X146694395Y-77764075D01*
X146688614Y-77769314D01*
X146682348Y-77773962D01*
X146675656Y-77777973D01*
X146668603Y-77781308D01*
X146661258Y-77783937D01*
X146653690Y-77785832D01*
X146645972Y-77786977D01*
X146638180Y-77787360D01*
X146437180Y-77787360D01*
X146429388Y-77786977D01*
X146421670Y-77785832D01*
X146414102Y-77783937D01*
X146406757Y-77781308D01*
X146399704Y-77777973D01*
X146393012Y-77773962D01*
X146386746Y-77769314D01*
X146380965Y-77764075D01*
X146375726Y-77758294D01*
X146371078Y-77752028D01*
X146367067Y-77745336D01*
X146363732Y-77738283D01*
X146361103Y-77730938D01*
X146359208Y-77723370D01*
X146358063Y-77715652D01*
X146357680Y-77707860D01*
X146357680Y-77548860D01*
X146358063Y-77541068D01*
X146359208Y-77533350D01*
X146361103Y-77525782D01*
X146363732Y-77518437D01*
X146367067Y-77511384D01*
X146371078Y-77504692D01*
X146375726Y-77498426D01*
X146380965Y-77492645D01*
X146386746Y-77487406D01*
X146393012Y-77482758D01*
X146399704Y-77478747D01*
X146406757Y-77475412D01*
X146414102Y-77472783D01*
X146421670Y-77470888D01*
X146429388Y-77469743D01*
X146437180Y-77469360D01*
X146638180Y-77469360D01*
X146645972Y-77469743D01*
X146645972Y-77469743D01*
G37*
D14*
X146537680Y-77628360D03*
%TD*%
D13*
%TO.C,U1*%
G36*
X145234544Y-84329884D02*
G01*
X145258813Y-84333484D01*
X145282611Y-84339445D01*
X145305711Y-84347710D01*
X145327889Y-84358200D01*
X145348933Y-84370813D01*
X145368638Y-84385427D01*
X145386817Y-84401903D01*
X145403293Y-84420082D01*
X145417907Y-84439787D01*
X145430520Y-84460831D01*
X145441010Y-84483009D01*
X145449275Y-84506109D01*
X145455236Y-84529907D01*
X145458836Y-84554176D01*
X145460040Y-84578680D01*
X145460040Y-85318680D01*
X145458836Y-85343184D01*
X145455236Y-85367453D01*
X145449275Y-85391251D01*
X145441010Y-85414351D01*
X145430520Y-85436529D01*
X145417907Y-85457573D01*
X145403293Y-85477278D01*
X145386817Y-85495457D01*
X145368638Y-85511933D01*
X145348933Y-85526547D01*
X145327889Y-85539160D01*
X145305711Y-85549650D01*
X145282611Y-85557915D01*
X145258813Y-85563876D01*
X145234544Y-85567476D01*
X145210040Y-85568680D01*
X144470040Y-85568680D01*
X144445536Y-85567476D01*
X144421267Y-85563876D01*
X144397469Y-85557915D01*
X144374369Y-85549650D01*
X144352191Y-85539160D01*
X144331147Y-85526547D01*
X144311442Y-85511933D01*
X144293263Y-85495457D01*
X144276787Y-85477278D01*
X144262173Y-85457573D01*
X144249560Y-85436529D01*
X144239070Y-85414351D01*
X144230805Y-85391251D01*
X144224844Y-85367453D01*
X144221244Y-85343184D01*
X144220040Y-85318680D01*
X144220040Y-84578680D01*
X144221244Y-84554176D01*
X144224844Y-84529907D01*
X144230805Y-84506109D01*
X144239070Y-84483009D01*
X144249560Y-84460831D01*
X144262173Y-84439787D01*
X144276787Y-84420082D01*
X144293263Y-84401903D01*
X144311442Y-84385427D01*
X144331147Y-84370813D01*
X144352191Y-84358200D01*
X144374369Y-84347710D01*
X144397469Y-84339445D01*
X144421267Y-84333484D01*
X144445536Y-84329884D01*
X144470040Y-84328680D01*
X145210040Y-84328680D01*
X145234544Y-84329884D01*
X145234544Y-84329884D01*
G37*
D17*
X144840040Y-84948680D03*
D13*
G36*
X146764544Y-84329884D02*
G01*
X146788813Y-84333484D01*
X146812611Y-84339445D01*
X146835711Y-84347710D01*
X146857889Y-84358200D01*
X146878933Y-84370813D01*
X146898638Y-84385427D01*
X146916817Y-84401903D01*
X146933293Y-84420082D01*
X146947907Y-84439787D01*
X146960520Y-84460831D01*
X146971010Y-84483009D01*
X146979275Y-84506109D01*
X146985236Y-84529907D01*
X146988836Y-84554176D01*
X146990040Y-84578680D01*
X146990040Y-85318680D01*
X146988836Y-85343184D01*
X146985236Y-85367453D01*
X146979275Y-85391251D01*
X146971010Y-85414351D01*
X146960520Y-85436529D01*
X146947907Y-85457573D01*
X146933293Y-85477278D01*
X146916817Y-85495457D01*
X146898638Y-85511933D01*
X146878933Y-85526547D01*
X146857889Y-85539160D01*
X146835711Y-85549650D01*
X146812611Y-85557915D01*
X146788813Y-85563876D01*
X146764544Y-85567476D01*
X146740040Y-85568680D01*
X146000040Y-85568680D01*
X145975536Y-85567476D01*
X145951267Y-85563876D01*
X145927469Y-85557915D01*
X145904369Y-85549650D01*
X145882191Y-85539160D01*
X145861147Y-85526547D01*
X145841442Y-85511933D01*
X145823263Y-85495457D01*
X145806787Y-85477278D01*
X145792173Y-85457573D01*
X145779560Y-85436529D01*
X145769070Y-85414351D01*
X145760805Y-85391251D01*
X145754844Y-85367453D01*
X145751244Y-85343184D01*
X145750040Y-85318680D01*
X145750040Y-84578680D01*
X145751244Y-84554176D01*
X145754844Y-84529907D01*
X145760805Y-84506109D01*
X145769070Y-84483009D01*
X145779560Y-84460831D01*
X145792173Y-84439787D01*
X145806787Y-84420082D01*
X145823263Y-84401903D01*
X145841442Y-84385427D01*
X145861147Y-84370813D01*
X145882191Y-84358200D01*
X145904369Y-84347710D01*
X145927469Y-84339445D01*
X145951267Y-84333484D01*
X145975536Y-84329884D01*
X146000040Y-84328680D01*
X146740040Y-84328680D01*
X146764544Y-84329884D01*
X146764544Y-84329884D01*
G37*
D17*
X146370040Y-84948680D03*
D13*
G36*
X148294544Y-84329884D02*
G01*
X148318813Y-84333484D01*
X148342611Y-84339445D01*
X148365711Y-84347710D01*
X148387889Y-84358200D01*
X148408933Y-84370813D01*
X148428638Y-84385427D01*
X148446817Y-84401903D01*
X148463293Y-84420082D01*
X148477907Y-84439787D01*
X148490520Y-84460831D01*
X148501010Y-84483009D01*
X148509275Y-84506109D01*
X148515236Y-84529907D01*
X148518836Y-84554176D01*
X148520040Y-84578680D01*
X148520040Y-85318680D01*
X148518836Y-85343184D01*
X148515236Y-85367453D01*
X148509275Y-85391251D01*
X148501010Y-85414351D01*
X148490520Y-85436529D01*
X148477907Y-85457573D01*
X148463293Y-85477278D01*
X148446817Y-85495457D01*
X148428638Y-85511933D01*
X148408933Y-85526547D01*
X148387889Y-85539160D01*
X148365711Y-85549650D01*
X148342611Y-85557915D01*
X148318813Y-85563876D01*
X148294544Y-85567476D01*
X148270040Y-85568680D01*
X147530040Y-85568680D01*
X147505536Y-85567476D01*
X147481267Y-85563876D01*
X147457469Y-85557915D01*
X147434369Y-85549650D01*
X147412191Y-85539160D01*
X147391147Y-85526547D01*
X147371442Y-85511933D01*
X147353263Y-85495457D01*
X147336787Y-85477278D01*
X147322173Y-85457573D01*
X147309560Y-85436529D01*
X147299070Y-85414351D01*
X147290805Y-85391251D01*
X147284844Y-85367453D01*
X147281244Y-85343184D01*
X147280040Y-85318680D01*
X147280040Y-84578680D01*
X147281244Y-84554176D01*
X147284844Y-84529907D01*
X147290805Y-84506109D01*
X147299070Y-84483009D01*
X147309560Y-84460831D01*
X147322173Y-84439787D01*
X147336787Y-84420082D01*
X147353263Y-84401903D01*
X147371442Y-84385427D01*
X147391147Y-84370813D01*
X147412191Y-84358200D01*
X147434369Y-84347710D01*
X147457469Y-84339445D01*
X147481267Y-84333484D01*
X147505536Y-84329884D01*
X147530040Y-84328680D01*
X148270040Y-84328680D01*
X148294544Y-84329884D01*
X148294544Y-84329884D01*
G37*
D17*
X147900040Y-84948680D03*
D13*
G36*
X145234544Y-82799884D02*
G01*
X145258813Y-82803484D01*
X145282611Y-82809445D01*
X145305711Y-82817710D01*
X145327889Y-82828200D01*
X145348933Y-82840813D01*
X145368638Y-82855427D01*
X145386817Y-82871903D01*
X145403293Y-82890082D01*
X145417907Y-82909787D01*
X145430520Y-82930831D01*
X145441010Y-82953009D01*
X145449275Y-82976109D01*
X145455236Y-82999907D01*
X145458836Y-83024176D01*
X145460040Y-83048680D01*
X145460040Y-83788680D01*
X145458836Y-83813184D01*
X145455236Y-83837453D01*
X145449275Y-83861251D01*
X145441010Y-83884351D01*
X145430520Y-83906529D01*
X145417907Y-83927573D01*
X145403293Y-83947278D01*
X145386817Y-83965457D01*
X145368638Y-83981933D01*
X145348933Y-83996547D01*
X145327889Y-84009160D01*
X145305711Y-84019650D01*
X145282611Y-84027915D01*
X145258813Y-84033876D01*
X145234544Y-84037476D01*
X145210040Y-84038680D01*
X144470040Y-84038680D01*
X144445536Y-84037476D01*
X144421267Y-84033876D01*
X144397469Y-84027915D01*
X144374369Y-84019650D01*
X144352191Y-84009160D01*
X144331147Y-83996547D01*
X144311442Y-83981933D01*
X144293263Y-83965457D01*
X144276787Y-83947278D01*
X144262173Y-83927573D01*
X144249560Y-83906529D01*
X144239070Y-83884351D01*
X144230805Y-83861251D01*
X144224844Y-83837453D01*
X144221244Y-83813184D01*
X144220040Y-83788680D01*
X144220040Y-83048680D01*
X144221244Y-83024176D01*
X144224844Y-82999907D01*
X144230805Y-82976109D01*
X144239070Y-82953009D01*
X144249560Y-82930831D01*
X144262173Y-82909787D01*
X144276787Y-82890082D01*
X144293263Y-82871903D01*
X144311442Y-82855427D01*
X144331147Y-82840813D01*
X144352191Y-82828200D01*
X144374369Y-82817710D01*
X144397469Y-82809445D01*
X144421267Y-82803484D01*
X144445536Y-82799884D01*
X144470040Y-82798680D01*
X145210040Y-82798680D01*
X145234544Y-82799884D01*
X145234544Y-82799884D01*
G37*
D17*
X144840040Y-83418680D03*
D13*
G36*
X146764544Y-82799884D02*
G01*
X146788813Y-82803484D01*
X146812611Y-82809445D01*
X146835711Y-82817710D01*
X146857889Y-82828200D01*
X146878933Y-82840813D01*
X146898638Y-82855427D01*
X146916817Y-82871903D01*
X146933293Y-82890082D01*
X146947907Y-82909787D01*
X146960520Y-82930831D01*
X146971010Y-82953009D01*
X146979275Y-82976109D01*
X146985236Y-82999907D01*
X146988836Y-83024176D01*
X146990040Y-83048680D01*
X146990040Y-83788680D01*
X146988836Y-83813184D01*
X146985236Y-83837453D01*
X146979275Y-83861251D01*
X146971010Y-83884351D01*
X146960520Y-83906529D01*
X146947907Y-83927573D01*
X146933293Y-83947278D01*
X146916817Y-83965457D01*
X146898638Y-83981933D01*
X146878933Y-83996547D01*
X146857889Y-84009160D01*
X146835711Y-84019650D01*
X146812611Y-84027915D01*
X146788813Y-84033876D01*
X146764544Y-84037476D01*
X146740040Y-84038680D01*
X146000040Y-84038680D01*
X145975536Y-84037476D01*
X145951267Y-84033876D01*
X145927469Y-84027915D01*
X145904369Y-84019650D01*
X145882191Y-84009160D01*
X145861147Y-83996547D01*
X145841442Y-83981933D01*
X145823263Y-83965457D01*
X145806787Y-83947278D01*
X145792173Y-83927573D01*
X145779560Y-83906529D01*
X145769070Y-83884351D01*
X145760805Y-83861251D01*
X145754844Y-83837453D01*
X145751244Y-83813184D01*
X145750040Y-83788680D01*
X145750040Y-83048680D01*
X145751244Y-83024176D01*
X145754844Y-82999907D01*
X145760805Y-82976109D01*
X145769070Y-82953009D01*
X145779560Y-82930831D01*
X145792173Y-82909787D01*
X145806787Y-82890082D01*
X145823263Y-82871903D01*
X145841442Y-82855427D01*
X145861147Y-82840813D01*
X145882191Y-82828200D01*
X145904369Y-82817710D01*
X145927469Y-82809445D01*
X145951267Y-82803484D01*
X145975536Y-82799884D01*
X146000040Y-82798680D01*
X146740040Y-82798680D01*
X146764544Y-82799884D01*
X146764544Y-82799884D01*
G37*
D17*
X146370040Y-83418680D03*
D13*
G36*
X148294544Y-82799884D02*
G01*
X148318813Y-82803484D01*
X148342611Y-82809445D01*
X148365711Y-82817710D01*
X148387889Y-82828200D01*
X148408933Y-82840813D01*
X148428638Y-82855427D01*
X148446817Y-82871903D01*
X148463293Y-82890082D01*
X148477907Y-82909787D01*
X148490520Y-82930831D01*
X148501010Y-82953009D01*
X148509275Y-82976109D01*
X148515236Y-82999907D01*
X148518836Y-83024176D01*
X148520040Y-83048680D01*
X148520040Y-83788680D01*
X148518836Y-83813184D01*
X148515236Y-83837453D01*
X148509275Y-83861251D01*
X148501010Y-83884351D01*
X148490520Y-83906529D01*
X148477907Y-83927573D01*
X148463293Y-83947278D01*
X148446817Y-83965457D01*
X148428638Y-83981933D01*
X148408933Y-83996547D01*
X148387889Y-84009160D01*
X148365711Y-84019650D01*
X148342611Y-84027915D01*
X148318813Y-84033876D01*
X148294544Y-84037476D01*
X148270040Y-84038680D01*
X147530040Y-84038680D01*
X147505536Y-84037476D01*
X147481267Y-84033876D01*
X147457469Y-84027915D01*
X147434369Y-84019650D01*
X147412191Y-84009160D01*
X147391147Y-83996547D01*
X147371442Y-83981933D01*
X147353263Y-83965457D01*
X147336787Y-83947278D01*
X147322173Y-83927573D01*
X147309560Y-83906529D01*
X147299070Y-83884351D01*
X147290805Y-83861251D01*
X147284844Y-83837453D01*
X147281244Y-83813184D01*
X147280040Y-83788680D01*
X147280040Y-83048680D01*
X147281244Y-83024176D01*
X147284844Y-82999907D01*
X147290805Y-82976109D01*
X147299070Y-82953009D01*
X147309560Y-82930831D01*
X147322173Y-82909787D01*
X147336787Y-82890082D01*
X147353263Y-82871903D01*
X147371442Y-82855427D01*
X147391147Y-82840813D01*
X147412191Y-82828200D01*
X147434369Y-82817710D01*
X147457469Y-82809445D01*
X147481267Y-82803484D01*
X147505536Y-82799884D01*
X147530040Y-82798680D01*
X148270040Y-82798680D01*
X148294544Y-82799884D01*
X148294544Y-82799884D01*
G37*
D17*
X147900040Y-83418680D03*
D13*
G36*
X145234544Y-81269884D02*
G01*
X145258813Y-81273484D01*
X145282611Y-81279445D01*
X145305711Y-81287710D01*
X145327889Y-81298200D01*
X145348933Y-81310813D01*
X145368638Y-81325427D01*
X145386817Y-81341903D01*
X145403293Y-81360082D01*
X145417907Y-81379787D01*
X145430520Y-81400831D01*
X145441010Y-81423009D01*
X145449275Y-81446109D01*
X145455236Y-81469907D01*
X145458836Y-81494176D01*
X145460040Y-81518680D01*
X145460040Y-82258680D01*
X145458836Y-82283184D01*
X145455236Y-82307453D01*
X145449275Y-82331251D01*
X145441010Y-82354351D01*
X145430520Y-82376529D01*
X145417907Y-82397573D01*
X145403293Y-82417278D01*
X145386817Y-82435457D01*
X145368638Y-82451933D01*
X145348933Y-82466547D01*
X145327889Y-82479160D01*
X145305711Y-82489650D01*
X145282611Y-82497915D01*
X145258813Y-82503876D01*
X145234544Y-82507476D01*
X145210040Y-82508680D01*
X144470040Y-82508680D01*
X144445536Y-82507476D01*
X144421267Y-82503876D01*
X144397469Y-82497915D01*
X144374369Y-82489650D01*
X144352191Y-82479160D01*
X144331147Y-82466547D01*
X144311442Y-82451933D01*
X144293263Y-82435457D01*
X144276787Y-82417278D01*
X144262173Y-82397573D01*
X144249560Y-82376529D01*
X144239070Y-82354351D01*
X144230805Y-82331251D01*
X144224844Y-82307453D01*
X144221244Y-82283184D01*
X144220040Y-82258680D01*
X144220040Y-81518680D01*
X144221244Y-81494176D01*
X144224844Y-81469907D01*
X144230805Y-81446109D01*
X144239070Y-81423009D01*
X144249560Y-81400831D01*
X144262173Y-81379787D01*
X144276787Y-81360082D01*
X144293263Y-81341903D01*
X144311442Y-81325427D01*
X144331147Y-81310813D01*
X144352191Y-81298200D01*
X144374369Y-81287710D01*
X144397469Y-81279445D01*
X144421267Y-81273484D01*
X144445536Y-81269884D01*
X144470040Y-81268680D01*
X145210040Y-81268680D01*
X145234544Y-81269884D01*
X145234544Y-81269884D01*
G37*
D17*
X144840040Y-81888680D03*
D13*
G36*
X146764544Y-81269884D02*
G01*
X146788813Y-81273484D01*
X146812611Y-81279445D01*
X146835711Y-81287710D01*
X146857889Y-81298200D01*
X146878933Y-81310813D01*
X146898638Y-81325427D01*
X146916817Y-81341903D01*
X146933293Y-81360082D01*
X146947907Y-81379787D01*
X146960520Y-81400831D01*
X146971010Y-81423009D01*
X146979275Y-81446109D01*
X146985236Y-81469907D01*
X146988836Y-81494176D01*
X146990040Y-81518680D01*
X146990040Y-82258680D01*
X146988836Y-82283184D01*
X146985236Y-82307453D01*
X146979275Y-82331251D01*
X146971010Y-82354351D01*
X146960520Y-82376529D01*
X146947907Y-82397573D01*
X146933293Y-82417278D01*
X146916817Y-82435457D01*
X146898638Y-82451933D01*
X146878933Y-82466547D01*
X146857889Y-82479160D01*
X146835711Y-82489650D01*
X146812611Y-82497915D01*
X146788813Y-82503876D01*
X146764544Y-82507476D01*
X146740040Y-82508680D01*
X146000040Y-82508680D01*
X145975536Y-82507476D01*
X145951267Y-82503876D01*
X145927469Y-82497915D01*
X145904369Y-82489650D01*
X145882191Y-82479160D01*
X145861147Y-82466547D01*
X145841442Y-82451933D01*
X145823263Y-82435457D01*
X145806787Y-82417278D01*
X145792173Y-82397573D01*
X145779560Y-82376529D01*
X145769070Y-82354351D01*
X145760805Y-82331251D01*
X145754844Y-82307453D01*
X145751244Y-82283184D01*
X145750040Y-82258680D01*
X145750040Y-81518680D01*
X145751244Y-81494176D01*
X145754844Y-81469907D01*
X145760805Y-81446109D01*
X145769070Y-81423009D01*
X145779560Y-81400831D01*
X145792173Y-81379787D01*
X145806787Y-81360082D01*
X145823263Y-81341903D01*
X145841442Y-81325427D01*
X145861147Y-81310813D01*
X145882191Y-81298200D01*
X145904369Y-81287710D01*
X145927469Y-81279445D01*
X145951267Y-81273484D01*
X145975536Y-81269884D01*
X146000040Y-81268680D01*
X146740040Y-81268680D01*
X146764544Y-81269884D01*
X146764544Y-81269884D01*
G37*
D17*
X146370040Y-81888680D03*
D13*
G36*
X148294544Y-81269884D02*
G01*
X148318813Y-81273484D01*
X148342611Y-81279445D01*
X148365711Y-81287710D01*
X148387889Y-81298200D01*
X148408933Y-81310813D01*
X148428638Y-81325427D01*
X148446817Y-81341903D01*
X148463293Y-81360082D01*
X148477907Y-81379787D01*
X148490520Y-81400831D01*
X148501010Y-81423009D01*
X148509275Y-81446109D01*
X148515236Y-81469907D01*
X148518836Y-81494176D01*
X148520040Y-81518680D01*
X148520040Y-82258680D01*
X148518836Y-82283184D01*
X148515236Y-82307453D01*
X148509275Y-82331251D01*
X148501010Y-82354351D01*
X148490520Y-82376529D01*
X148477907Y-82397573D01*
X148463293Y-82417278D01*
X148446817Y-82435457D01*
X148428638Y-82451933D01*
X148408933Y-82466547D01*
X148387889Y-82479160D01*
X148365711Y-82489650D01*
X148342611Y-82497915D01*
X148318813Y-82503876D01*
X148294544Y-82507476D01*
X148270040Y-82508680D01*
X147530040Y-82508680D01*
X147505536Y-82507476D01*
X147481267Y-82503876D01*
X147457469Y-82497915D01*
X147434369Y-82489650D01*
X147412191Y-82479160D01*
X147391147Y-82466547D01*
X147371442Y-82451933D01*
X147353263Y-82435457D01*
X147336787Y-82417278D01*
X147322173Y-82397573D01*
X147309560Y-82376529D01*
X147299070Y-82354351D01*
X147290805Y-82331251D01*
X147284844Y-82307453D01*
X147281244Y-82283184D01*
X147280040Y-82258680D01*
X147280040Y-81518680D01*
X147281244Y-81494176D01*
X147284844Y-81469907D01*
X147290805Y-81446109D01*
X147299070Y-81423009D01*
X147309560Y-81400831D01*
X147322173Y-81379787D01*
X147336787Y-81360082D01*
X147353263Y-81341903D01*
X147371442Y-81325427D01*
X147391147Y-81310813D01*
X147412191Y-81298200D01*
X147434369Y-81287710D01*
X147457469Y-81279445D01*
X147481267Y-81273484D01*
X147505536Y-81269884D01*
X147530040Y-81268680D01*
X148270040Y-81268680D01*
X148294544Y-81269884D01*
X148294544Y-81269884D01*
G37*
D17*
X147900040Y-81888680D03*
D13*
G36*
X144224941Y-85968921D02*
G01*
X144229795Y-85969641D01*
X144234554Y-85970833D01*
X144239174Y-85972486D01*
X144243610Y-85974584D01*
X144247819Y-85977107D01*
X144251760Y-85980029D01*
X144255395Y-85983325D01*
X144258691Y-85986960D01*
X144261613Y-85990901D01*
X144264136Y-85995110D01*
X144266234Y-85999546D01*
X144267887Y-86004166D01*
X144269079Y-86008925D01*
X144269799Y-86013779D01*
X144270040Y-86018680D01*
X144270040Y-86718680D01*
X144269799Y-86723581D01*
X144269079Y-86728435D01*
X144267887Y-86733194D01*
X144266234Y-86737814D01*
X144264136Y-86742250D01*
X144261613Y-86746459D01*
X144258691Y-86750400D01*
X144255395Y-86754035D01*
X144251760Y-86757331D01*
X144247819Y-86760253D01*
X144243610Y-86762776D01*
X144239174Y-86764874D01*
X144234554Y-86766527D01*
X144229795Y-86767719D01*
X144224941Y-86768439D01*
X144220040Y-86768680D01*
X144120040Y-86768680D01*
X144115139Y-86768439D01*
X144110285Y-86767719D01*
X144105526Y-86766527D01*
X144100906Y-86764874D01*
X144096470Y-86762776D01*
X144092261Y-86760253D01*
X144088320Y-86757331D01*
X144084685Y-86754035D01*
X144081389Y-86750400D01*
X144078467Y-86746459D01*
X144075944Y-86742250D01*
X144073846Y-86737814D01*
X144072193Y-86733194D01*
X144071001Y-86728435D01*
X144070281Y-86723581D01*
X144070040Y-86718680D01*
X144070040Y-86018680D01*
X144070281Y-86013779D01*
X144071001Y-86008925D01*
X144072193Y-86004166D01*
X144073846Y-85999546D01*
X144075944Y-85995110D01*
X144078467Y-85990901D01*
X144081389Y-85986960D01*
X144084685Y-85983325D01*
X144088320Y-85980029D01*
X144092261Y-85977107D01*
X144096470Y-85974584D01*
X144100906Y-85972486D01*
X144105526Y-85970833D01*
X144110285Y-85969641D01*
X144115139Y-85968921D01*
X144120040Y-85968680D01*
X144220040Y-85968680D01*
X144224941Y-85968921D01*
X144224941Y-85968921D01*
G37*
D18*
X144170040Y-86368680D03*
D13*
G36*
X144624941Y-85968921D02*
G01*
X144629795Y-85969641D01*
X144634554Y-85970833D01*
X144639174Y-85972486D01*
X144643610Y-85974584D01*
X144647819Y-85977107D01*
X144651760Y-85980029D01*
X144655395Y-85983325D01*
X144658691Y-85986960D01*
X144661613Y-85990901D01*
X144664136Y-85995110D01*
X144666234Y-85999546D01*
X144667887Y-86004166D01*
X144669079Y-86008925D01*
X144669799Y-86013779D01*
X144670040Y-86018680D01*
X144670040Y-86718680D01*
X144669799Y-86723581D01*
X144669079Y-86728435D01*
X144667887Y-86733194D01*
X144666234Y-86737814D01*
X144664136Y-86742250D01*
X144661613Y-86746459D01*
X144658691Y-86750400D01*
X144655395Y-86754035D01*
X144651760Y-86757331D01*
X144647819Y-86760253D01*
X144643610Y-86762776D01*
X144639174Y-86764874D01*
X144634554Y-86766527D01*
X144629795Y-86767719D01*
X144624941Y-86768439D01*
X144620040Y-86768680D01*
X144520040Y-86768680D01*
X144515139Y-86768439D01*
X144510285Y-86767719D01*
X144505526Y-86766527D01*
X144500906Y-86764874D01*
X144496470Y-86762776D01*
X144492261Y-86760253D01*
X144488320Y-86757331D01*
X144484685Y-86754035D01*
X144481389Y-86750400D01*
X144478467Y-86746459D01*
X144475944Y-86742250D01*
X144473846Y-86737814D01*
X144472193Y-86733194D01*
X144471001Y-86728435D01*
X144470281Y-86723581D01*
X144470040Y-86718680D01*
X144470040Y-86018680D01*
X144470281Y-86013779D01*
X144471001Y-86008925D01*
X144472193Y-86004166D01*
X144473846Y-85999546D01*
X144475944Y-85995110D01*
X144478467Y-85990901D01*
X144481389Y-85986960D01*
X144484685Y-85983325D01*
X144488320Y-85980029D01*
X144492261Y-85977107D01*
X144496470Y-85974584D01*
X144500906Y-85972486D01*
X144505526Y-85970833D01*
X144510285Y-85969641D01*
X144515139Y-85968921D01*
X144520040Y-85968680D01*
X144620040Y-85968680D01*
X144624941Y-85968921D01*
X144624941Y-85968921D01*
G37*
D18*
X144570040Y-86368680D03*
D13*
G36*
X145024941Y-85968921D02*
G01*
X145029795Y-85969641D01*
X145034554Y-85970833D01*
X145039174Y-85972486D01*
X145043610Y-85974584D01*
X145047819Y-85977107D01*
X145051760Y-85980029D01*
X145055395Y-85983325D01*
X145058691Y-85986960D01*
X145061613Y-85990901D01*
X145064136Y-85995110D01*
X145066234Y-85999546D01*
X145067887Y-86004166D01*
X145069079Y-86008925D01*
X145069799Y-86013779D01*
X145070040Y-86018680D01*
X145070040Y-86718680D01*
X145069799Y-86723581D01*
X145069079Y-86728435D01*
X145067887Y-86733194D01*
X145066234Y-86737814D01*
X145064136Y-86742250D01*
X145061613Y-86746459D01*
X145058691Y-86750400D01*
X145055395Y-86754035D01*
X145051760Y-86757331D01*
X145047819Y-86760253D01*
X145043610Y-86762776D01*
X145039174Y-86764874D01*
X145034554Y-86766527D01*
X145029795Y-86767719D01*
X145024941Y-86768439D01*
X145020040Y-86768680D01*
X144920040Y-86768680D01*
X144915139Y-86768439D01*
X144910285Y-86767719D01*
X144905526Y-86766527D01*
X144900906Y-86764874D01*
X144896470Y-86762776D01*
X144892261Y-86760253D01*
X144888320Y-86757331D01*
X144884685Y-86754035D01*
X144881389Y-86750400D01*
X144878467Y-86746459D01*
X144875944Y-86742250D01*
X144873846Y-86737814D01*
X144872193Y-86733194D01*
X144871001Y-86728435D01*
X144870281Y-86723581D01*
X144870040Y-86718680D01*
X144870040Y-86018680D01*
X144870281Y-86013779D01*
X144871001Y-86008925D01*
X144872193Y-86004166D01*
X144873846Y-85999546D01*
X144875944Y-85995110D01*
X144878467Y-85990901D01*
X144881389Y-85986960D01*
X144884685Y-85983325D01*
X144888320Y-85980029D01*
X144892261Y-85977107D01*
X144896470Y-85974584D01*
X144900906Y-85972486D01*
X144905526Y-85970833D01*
X144910285Y-85969641D01*
X144915139Y-85968921D01*
X144920040Y-85968680D01*
X145020040Y-85968680D01*
X145024941Y-85968921D01*
X145024941Y-85968921D01*
G37*
D18*
X144970040Y-86368680D03*
D13*
G36*
X145424941Y-85968921D02*
G01*
X145429795Y-85969641D01*
X145434554Y-85970833D01*
X145439174Y-85972486D01*
X145443610Y-85974584D01*
X145447819Y-85977107D01*
X145451760Y-85980029D01*
X145455395Y-85983325D01*
X145458691Y-85986960D01*
X145461613Y-85990901D01*
X145464136Y-85995110D01*
X145466234Y-85999546D01*
X145467887Y-86004166D01*
X145469079Y-86008925D01*
X145469799Y-86013779D01*
X145470040Y-86018680D01*
X145470040Y-86718680D01*
X145469799Y-86723581D01*
X145469079Y-86728435D01*
X145467887Y-86733194D01*
X145466234Y-86737814D01*
X145464136Y-86742250D01*
X145461613Y-86746459D01*
X145458691Y-86750400D01*
X145455395Y-86754035D01*
X145451760Y-86757331D01*
X145447819Y-86760253D01*
X145443610Y-86762776D01*
X145439174Y-86764874D01*
X145434554Y-86766527D01*
X145429795Y-86767719D01*
X145424941Y-86768439D01*
X145420040Y-86768680D01*
X145320040Y-86768680D01*
X145315139Y-86768439D01*
X145310285Y-86767719D01*
X145305526Y-86766527D01*
X145300906Y-86764874D01*
X145296470Y-86762776D01*
X145292261Y-86760253D01*
X145288320Y-86757331D01*
X145284685Y-86754035D01*
X145281389Y-86750400D01*
X145278467Y-86746459D01*
X145275944Y-86742250D01*
X145273846Y-86737814D01*
X145272193Y-86733194D01*
X145271001Y-86728435D01*
X145270281Y-86723581D01*
X145270040Y-86718680D01*
X145270040Y-86018680D01*
X145270281Y-86013779D01*
X145271001Y-86008925D01*
X145272193Y-86004166D01*
X145273846Y-85999546D01*
X145275944Y-85995110D01*
X145278467Y-85990901D01*
X145281389Y-85986960D01*
X145284685Y-85983325D01*
X145288320Y-85980029D01*
X145292261Y-85977107D01*
X145296470Y-85974584D01*
X145300906Y-85972486D01*
X145305526Y-85970833D01*
X145310285Y-85969641D01*
X145315139Y-85968921D01*
X145320040Y-85968680D01*
X145420040Y-85968680D01*
X145424941Y-85968921D01*
X145424941Y-85968921D01*
G37*
D18*
X145370040Y-86368680D03*
D13*
G36*
X145824941Y-85968921D02*
G01*
X145829795Y-85969641D01*
X145834554Y-85970833D01*
X145839174Y-85972486D01*
X145843610Y-85974584D01*
X145847819Y-85977107D01*
X145851760Y-85980029D01*
X145855395Y-85983325D01*
X145858691Y-85986960D01*
X145861613Y-85990901D01*
X145864136Y-85995110D01*
X145866234Y-85999546D01*
X145867887Y-86004166D01*
X145869079Y-86008925D01*
X145869799Y-86013779D01*
X145870040Y-86018680D01*
X145870040Y-86718680D01*
X145869799Y-86723581D01*
X145869079Y-86728435D01*
X145867887Y-86733194D01*
X145866234Y-86737814D01*
X145864136Y-86742250D01*
X145861613Y-86746459D01*
X145858691Y-86750400D01*
X145855395Y-86754035D01*
X145851760Y-86757331D01*
X145847819Y-86760253D01*
X145843610Y-86762776D01*
X145839174Y-86764874D01*
X145834554Y-86766527D01*
X145829795Y-86767719D01*
X145824941Y-86768439D01*
X145820040Y-86768680D01*
X145720040Y-86768680D01*
X145715139Y-86768439D01*
X145710285Y-86767719D01*
X145705526Y-86766527D01*
X145700906Y-86764874D01*
X145696470Y-86762776D01*
X145692261Y-86760253D01*
X145688320Y-86757331D01*
X145684685Y-86754035D01*
X145681389Y-86750400D01*
X145678467Y-86746459D01*
X145675944Y-86742250D01*
X145673846Y-86737814D01*
X145672193Y-86733194D01*
X145671001Y-86728435D01*
X145670281Y-86723581D01*
X145670040Y-86718680D01*
X145670040Y-86018680D01*
X145670281Y-86013779D01*
X145671001Y-86008925D01*
X145672193Y-86004166D01*
X145673846Y-85999546D01*
X145675944Y-85995110D01*
X145678467Y-85990901D01*
X145681389Y-85986960D01*
X145684685Y-85983325D01*
X145688320Y-85980029D01*
X145692261Y-85977107D01*
X145696470Y-85974584D01*
X145700906Y-85972486D01*
X145705526Y-85970833D01*
X145710285Y-85969641D01*
X145715139Y-85968921D01*
X145720040Y-85968680D01*
X145820040Y-85968680D01*
X145824941Y-85968921D01*
X145824941Y-85968921D01*
G37*
D18*
X145770040Y-86368680D03*
D13*
G36*
X146224941Y-85968921D02*
G01*
X146229795Y-85969641D01*
X146234554Y-85970833D01*
X146239174Y-85972486D01*
X146243610Y-85974584D01*
X146247819Y-85977107D01*
X146251760Y-85980029D01*
X146255395Y-85983325D01*
X146258691Y-85986960D01*
X146261613Y-85990901D01*
X146264136Y-85995110D01*
X146266234Y-85999546D01*
X146267887Y-86004166D01*
X146269079Y-86008925D01*
X146269799Y-86013779D01*
X146270040Y-86018680D01*
X146270040Y-86718680D01*
X146269799Y-86723581D01*
X146269079Y-86728435D01*
X146267887Y-86733194D01*
X146266234Y-86737814D01*
X146264136Y-86742250D01*
X146261613Y-86746459D01*
X146258691Y-86750400D01*
X146255395Y-86754035D01*
X146251760Y-86757331D01*
X146247819Y-86760253D01*
X146243610Y-86762776D01*
X146239174Y-86764874D01*
X146234554Y-86766527D01*
X146229795Y-86767719D01*
X146224941Y-86768439D01*
X146220040Y-86768680D01*
X146120040Y-86768680D01*
X146115139Y-86768439D01*
X146110285Y-86767719D01*
X146105526Y-86766527D01*
X146100906Y-86764874D01*
X146096470Y-86762776D01*
X146092261Y-86760253D01*
X146088320Y-86757331D01*
X146084685Y-86754035D01*
X146081389Y-86750400D01*
X146078467Y-86746459D01*
X146075944Y-86742250D01*
X146073846Y-86737814D01*
X146072193Y-86733194D01*
X146071001Y-86728435D01*
X146070281Y-86723581D01*
X146070040Y-86718680D01*
X146070040Y-86018680D01*
X146070281Y-86013779D01*
X146071001Y-86008925D01*
X146072193Y-86004166D01*
X146073846Y-85999546D01*
X146075944Y-85995110D01*
X146078467Y-85990901D01*
X146081389Y-85986960D01*
X146084685Y-85983325D01*
X146088320Y-85980029D01*
X146092261Y-85977107D01*
X146096470Y-85974584D01*
X146100906Y-85972486D01*
X146105526Y-85970833D01*
X146110285Y-85969641D01*
X146115139Y-85968921D01*
X146120040Y-85968680D01*
X146220040Y-85968680D01*
X146224941Y-85968921D01*
X146224941Y-85968921D01*
G37*
D18*
X146170040Y-86368680D03*
D13*
G36*
X146624941Y-85968921D02*
G01*
X146629795Y-85969641D01*
X146634554Y-85970833D01*
X146639174Y-85972486D01*
X146643610Y-85974584D01*
X146647819Y-85977107D01*
X146651760Y-85980029D01*
X146655395Y-85983325D01*
X146658691Y-85986960D01*
X146661613Y-85990901D01*
X146664136Y-85995110D01*
X146666234Y-85999546D01*
X146667887Y-86004166D01*
X146669079Y-86008925D01*
X146669799Y-86013779D01*
X146670040Y-86018680D01*
X146670040Y-86718680D01*
X146669799Y-86723581D01*
X146669079Y-86728435D01*
X146667887Y-86733194D01*
X146666234Y-86737814D01*
X146664136Y-86742250D01*
X146661613Y-86746459D01*
X146658691Y-86750400D01*
X146655395Y-86754035D01*
X146651760Y-86757331D01*
X146647819Y-86760253D01*
X146643610Y-86762776D01*
X146639174Y-86764874D01*
X146634554Y-86766527D01*
X146629795Y-86767719D01*
X146624941Y-86768439D01*
X146620040Y-86768680D01*
X146520040Y-86768680D01*
X146515139Y-86768439D01*
X146510285Y-86767719D01*
X146505526Y-86766527D01*
X146500906Y-86764874D01*
X146496470Y-86762776D01*
X146492261Y-86760253D01*
X146488320Y-86757331D01*
X146484685Y-86754035D01*
X146481389Y-86750400D01*
X146478467Y-86746459D01*
X146475944Y-86742250D01*
X146473846Y-86737814D01*
X146472193Y-86733194D01*
X146471001Y-86728435D01*
X146470281Y-86723581D01*
X146470040Y-86718680D01*
X146470040Y-86018680D01*
X146470281Y-86013779D01*
X146471001Y-86008925D01*
X146472193Y-86004166D01*
X146473846Y-85999546D01*
X146475944Y-85995110D01*
X146478467Y-85990901D01*
X146481389Y-85986960D01*
X146484685Y-85983325D01*
X146488320Y-85980029D01*
X146492261Y-85977107D01*
X146496470Y-85974584D01*
X146500906Y-85972486D01*
X146505526Y-85970833D01*
X146510285Y-85969641D01*
X146515139Y-85968921D01*
X146520040Y-85968680D01*
X146620040Y-85968680D01*
X146624941Y-85968921D01*
X146624941Y-85968921D01*
G37*
D18*
X146570040Y-86368680D03*
D13*
G36*
X147024941Y-85968921D02*
G01*
X147029795Y-85969641D01*
X147034554Y-85970833D01*
X147039174Y-85972486D01*
X147043610Y-85974584D01*
X147047819Y-85977107D01*
X147051760Y-85980029D01*
X147055395Y-85983325D01*
X147058691Y-85986960D01*
X147061613Y-85990901D01*
X147064136Y-85995110D01*
X147066234Y-85999546D01*
X147067887Y-86004166D01*
X147069079Y-86008925D01*
X147069799Y-86013779D01*
X147070040Y-86018680D01*
X147070040Y-86718680D01*
X147069799Y-86723581D01*
X147069079Y-86728435D01*
X147067887Y-86733194D01*
X147066234Y-86737814D01*
X147064136Y-86742250D01*
X147061613Y-86746459D01*
X147058691Y-86750400D01*
X147055395Y-86754035D01*
X147051760Y-86757331D01*
X147047819Y-86760253D01*
X147043610Y-86762776D01*
X147039174Y-86764874D01*
X147034554Y-86766527D01*
X147029795Y-86767719D01*
X147024941Y-86768439D01*
X147020040Y-86768680D01*
X146920040Y-86768680D01*
X146915139Y-86768439D01*
X146910285Y-86767719D01*
X146905526Y-86766527D01*
X146900906Y-86764874D01*
X146896470Y-86762776D01*
X146892261Y-86760253D01*
X146888320Y-86757331D01*
X146884685Y-86754035D01*
X146881389Y-86750400D01*
X146878467Y-86746459D01*
X146875944Y-86742250D01*
X146873846Y-86737814D01*
X146872193Y-86733194D01*
X146871001Y-86728435D01*
X146870281Y-86723581D01*
X146870040Y-86718680D01*
X146870040Y-86018680D01*
X146870281Y-86013779D01*
X146871001Y-86008925D01*
X146872193Y-86004166D01*
X146873846Y-85999546D01*
X146875944Y-85995110D01*
X146878467Y-85990901D01*
X146881389Y-85986960D01*
X146884685Y-85983325D01*
X146888320Y-85980029D01*
X146892261Y-85977107D01*
X146896470Y-85974584D01*
X146900906Y-85972486D01*
X146905526Y-85970833D01*
X146910285Y-85969641D01*
X146915139Y-85968921D01*
X146920040Y-85968680D01*
X147020040Y-85968680D01*
X147024941Y-85968921D01*
X147024941Y-85968921D01*
G37*
D18*
X146970040Y-86368680D03*
D13*
G36*
X147424941Y-85968921D02*
G01*
X147429795Y-85969641D01*
X147434554Y-85970833D01*
X147439174Y-85972486D01*
X147443610Y-85974584D01*
X147447819Y-85977107D01*
X147451760Y-85980029D01*
X147455395Y-85983325D01*
X147458691Y-85986960D01*
X147461613Y-85990901D01*
X147464136Y-85995110D01*
X147466234Y-85999546D01*
X147467887Y-86004166D01*
X147469079Y-86008925D01*
X147469799Y-86013779D01*
X147470040Y-86018680D01*
X147470040Y-86718680D01*
X147469799Y-86723581D01*
X147469079Y-86728435D01*
X147467887Y-86733194D01*
X147466234Y-86737814D01*
X147464136Y-86742250D01*
X147461613Y-86746459D01*
X147458691Y-86750400D01*
X147455395Y-86754035D01*
X147451760Y-86757331D01*
X147447819Y-86760253D01*
X147443610Y-86762776D01*
X147439174Y-86764874D01*
X147434554Y-86766527D01*
X147429795Y-86767719D01*
X147424941Y-86768439D01*
X147420040Y-86768680D01*
X147320040Y-86768680D01*
X147315139Y-86768439D01*
X147310285Y-86767719D01*
X147305526Y-86766527D01*
X147300906Y-86764874D01*
X147296470Y-86762776D01*
X147292261Y-86760253D01*
X147288320Y-86757331D01*
X147284685Y-86754035D01*
X147281389Y-86750400D01*
X147278467Y-86746459D01*
X147275944Y-86742250D01*
X147273846Y-86737814D01*
X147272193Y-86733194D01*
X147271001Y-86728435D01*
X147270281Y-86723581D01*
X147270040Y-86718680D01*
X147270040Y-86018680D01*
X147270281Y-86013779D01*
X147271001Y-86008925D01*
X147272193Y-86004166D01*
X147273846Y-85999546D01*
X147275944Y-85995110D01*
X147278467Y-85990901D01*
X147281389Y-85986960D01*
X147284685Y-85983325D01*
X147288320Y-85980029D01*
X147292261Y-85977107D01*
X147296470Y-85974584D01*
X147300906Y-85972486D01*
X147305526Y-85970833D01*
X147310285Y-85969641D01*
X147315139Y-85968921D01*
X147320040Y-85968680D01*
X147420040Y-85968680D01*
X147424941Y-85968921D01*
X147424941Y-85968921D01*
G37*
D18*
X147370040Y-86368680D03*
D13*
G36*
X147824941Y-85968921D02*
G01*
X147829795Y-85969641D01*
X147834554Y-85970833D01*
X147839174Y-85972486D01*
X147843610Y-85974584D01*
X147847819Y-85977107D01*
X147851760Y-85980029D01*
X147855395Y-85983325D01*
X147858691Y-85986960D01*
X147861613Y-85990901D01*
X147864136Y-85995110D01*
X147866234Y-85999546D01*
X147867887Y-86004166D01*
X147869079Y-86008925D01*
X147869799Y-86013779D01*
X147870040Y-86018680D01*
X147870040Y-86718680D01*
X147869799Y-86723581D01*
X147869079Y-86728435D01*
X147867887Y-86733194D01*
X147866234Y-86737814D01*
X147864136Y-86742250D01*
X147861613Y-86746459D01*
X147858691Y-86750400D01*
X147855395Y-86754035D01*
X147851760Y-86757331D01*
X147847819Y-86760253D01*
X147843610Y-86762776D01*
X147839174Y-86764874D01*
X147834554Y-86766527D01*
X147829795Y-86767719D01*
X147824941Y-86768439D01*
X147820040Y-86768680D01*
X147720040Y-86768680D01*
X147715139Y-86768439D01*
X147710285Y-86767719D01*
X147705526Y-86766527D01*
X147700906Y-86764874D01*
X147696470Y-86762776D01*
X147692261Y-86760253D01*
X147688320Y-86757331D01*
X147684685Y-86754035D01*
X147681389Y-86750400D01*
X147678467Y-86746459D01*
X147675944Y-86742250D01*
X147673846Y-86737814D01*
X147672193Y-86733194D01*
X147671001Y-86728435D01*
X147670281Y-86723581D01*
X147670040Y-86718680D01*
X147670040Y-86018680D01*
X147670281Y-86013779D01*
X147671001Y-86008925D01*
X147672193Y-86004166D01*
X147673846Y-85999546D01*
X147675944Y-85995110D01*
X147678467Y-85990901D01*
X147681389Y-85986960D01*
X147684685Y-85983325D01*
X147688320Y-85980029D01*
X147692261Y-85977107D01*
X147696470Y-85974584D01*
X147700906Y-85972486D01*
X147705526Y-85970833D01*
X147710285Y-85969641D01*
X147715139Y-85968921D01*
X147720040Y-85968680D01*
X147820040Y-85968680D01*
X147824941Y-85968921D01*
X147824941Y-85968921D01*
G37*
D18*
X147770040Y-86368680D03*
D13*
G36*
X148224941Y-85968921D02*
G01*
X148229795Y-85969641D01*
X148234554Y-85970833D01*
X148239174Y-85972486D01*
X148243610Y-85974584D01*
X148247819Y-85977107D01*
X148251760Y-85980029D01*
X148255395Y-85983325D01*
X148258691Y-85986960D01*
X148261613Y-85990901D01*
X148264136Y-85995110D01*
X148266234Y-85999546D01*
X148267887Y-86004166D01*
X148269079Y-86008925D01*
X148269799Y-86013779D01*
X148270040Y-86018680D01*
X148270040Y-86718680D01*
X148269799Y-86723581D01*
X148269079Y-86728435D01*
X148267887Y-86733194D01*
X148266234Y-86737814D01*
X148264136Y-86742250D01*
X148261613Y-86746459D01*
X148258691Y-86750400D01*
X148255395Y-86754035D01*
X148251760Y-86757331D01*
X148247819Y-86760253D01*
X148243610Y-86762776D01*
X148239174Y-86764874D01*
X148234554Y-86766527D01*
X148229795Y-86767719D01*
X148224941Y-86768439D01*
X148220040Y-86768680D01*
X148120040Y-86768680D01*
X148115139Y-86768439D01*
X148110285Y-86767719D01*
X148105526Y-86766527D01*
X148100906Y-86764874D01*
X148096470Y-86762776D01*
X148092261Y-86760253D01*
X148088320Y-86757331D01*
X148084685Y-86754035D01*
X148081389Y-86750400D01*
X148078467Y-86746459D01*
X148075944Y-86742250D01*
X148073846Y-86737814D01*
X148072193Y-86733194D01*
X148071001Y-86728435D01*
X148070281Y-86723581D01*
X148070040Y-86718680D01*
X148070040Y-86018680D01*
X148070281Y-86013779D01*
X148071001Y-86008925D01*
X148072193Y-86004166D01*
X148073846Y-85999546D01*
X148075944Y-85995110D01*
X148078467Y-85990901D01*
X148081389Y-85986960D01*
X148084685Y-85983325D01*
X148088320Y-85980029D01*
X148092261Y-85977107D01*
X148096470Y-85974584D01*
X148100906Y-85972486D01*
X148105526Y-85970833D01*
X148110285Y-85969641D01*
X148115139Y-85968921D01*
X148120040Y-85968680D01*
X148220040Y-85968680D01*
X148224941Y-85968921D01*
X148224941Y-85968921D01*
G37*
D18*
X148170040Y-86368680D03*
D13*
G36*
X148624941Y-85968921D02*
G01*
X148629795Y-85969641D01*
X148634554Y-85970833D01*
X148639174Y-85972486D01*
X148643610Y-85974584D01*
X148647819Y-85977107D01*
X148651760Y-85980029D01*
X148655395Y-85983325D01*
X148658691Y-85986960D01*
X148661613Y-85990901D01*
X148664136Y-85995110D01*
X148666234Y-85999546D01*
X148667887Y-86004166D01*
X148669079Y-86008925D01*
X148669799Y-86013779D01*
X148670040Y-86018680D01*
X148670040Y-86718680D01*
X148669799Y-86723581D01*
X148669079Y-86728435D01*
X148667887Y-86733194D01*
X148666234Y-86737814D01*
X148664136Y-86742250D01*
X148661613Y-86746459D01*
X148658691Y-86750400D01*
X148655395Y-86754035D01*
X148651760Y-86757331D01*
X148647819Y-86760253D01*
X148643610Y-86762776D01*
X148639174Y-86764874D01*
X148634554Y-86766527D01*
X148629795Y-86767719D01*
X148624941Y-86768439D01*
X148620040Y-86768680D01*
X148520040Y-86768680D01*
X148515139Y-86768439D01*
X148510285Y-86767719D01*
X148505526Y-86766527D01*
X148500906Y-86764874D01*
X148496470Y-86762776D01*
X148492261Y-86760253D01*
X148488320Y-86757331D01*
X148484685Y-86754035D01*
X148481389Y-86750400D01*
X148478467Y-86746459D01*
X148475944Y-86742250D01*
X148473846Y-86737814D01*
X148472193Y-86733194D01*
X148471001Y-86728435D01*
X148470281Y-86723581D01*
X148470040Y-86718680D01*
X148470040Y-86018680D01*
X148470281Y-86013779D01*
X148471001Y-86008925D01*
X148472193Y-86004166D01*
X148473846Y-85999546D01*
X148475944Y-85995110D01*
X148478467Y-85990901D01*
X148481389Y-85986960D01*
X148484685Y-85983325D01*
X148488320Y-85980029D01*
X148492261Y-85977107D01*
X148496470Y-85974584D01*
X148500906Y-85972486D01*
X148505526Y-85970833D01*
X148510285Y-85969641D01*
X148515139Y-85968921D01*
X148520040Y-85968680D01*
X148620040Y-85968680D01*
X148624941Y-85968921D01*
X148624941Y-85968921D01*
G37*
D18*
X148570040Y-86368680D03*
D13*
G36*
X149674941Y-85518921D02*
G01*
X149679795Y-85519641D01*
X149684554Y-85520833D01*
X149689174Y-85522486D01*
X149693610Y-85524584D01*
X149697819Y-85527107D01*
X149701760Y-85530029D01*
X149705395Y-85533325D01*
X149708691Y-85536960D01*
X149711613Y-85540901D01*
X149714136Y-85545110D01*
X149716234Y-85549546D01*
X149717887Y-85554166D01*
X149719079Y-85558925D01*
X149719799Y-85563779D01*
X149720040Y-85568680D01*
X149720040Y-85668680D01*
X149719799Y-85673581D01*
X149719079Y-85678435D01*
X149717887Y-85683194D01*
X149716234Y-85687814D01*
X149714136Y-85692250D01*
X149711613Y-85696459D01*
X149708691Y-85700400D01*
X149705395Y-85704035D01*
X149701760Y-85707331D01*
X149697819Y-85710253D01*
X149693610Y-85712776D01*
X149689174Y-85714874D01*
X149684554Y-85716527D01*
X149679795Y-85717719D01*
X149674941Y-85718439D01*
X149670040Y-85718680D01*
X148970040Y-85718680D01*
X148965139Y-85718439D01*
X148960285Y-85717719D01*
X148955526Y-85716527D01*
X148950906Y-85714874D01*
X148946470Y-85712776D01*
X148942261Y-85710253D01*
X148938320Y-85707331D01*
X148934685Y-85704035D01*
X148931389Y-85700400D01*
X148928467Y-85696459D01*
X148925944Y-85692250D01*
X148923846Y-85687814D01*
X148922193Y-85683194D01*
X148921001Y-85678435D01*
X148920281Y-85673581D01*
X148920040Y-85668680D01*
X148920040Y-85568680D01*
X148920281Y-85563779D01*
X148921001Y-85558925D01*
X148922193Y-85554166D01*
X148923846Y-85549546D01*
X148925944Y-85545110D01*
X148928467Y-85540901D01*
X148931389Y-85536960D01*
X148934685Y-85533325D01*
X148938320Y-85530029D01*
X148942261Y-85527107D01*
X148946470Y-85524584D01*
X148950906Y-85522486D01*
X148955526Y-85520833D01*
X148960285Y-85519641D01*
X148965139Y-85518921D01*
X148970040Y-85518680D01*
X149670040Y-85518680D01*
X149674941Y-85518921D01*
X149674941Y-85518921D01*
G37*
D18*
X149320040Y-85618680D03*
D13*
G36*
X149674941Y-85118921D02*
G01*
X149679795Y-85119641D01*
X149684554Y-85120833D01*
X149689174Y-85122486D01*
X149693610Y-85124584D01*
X149697819Y-85127107D01*
X149701760Y-85130029D01*
X149705395Y-85133325D01*
X149708691Y-85136960D01*
X149711613Y-85140901D01*
X149714136Y-85145110D01*
X149716234Y-85149546D01*
X149717887Y-85154166D01*
X149719079Y-85158925D01*
X149719799Y-85163779D01*
X149720040Y-85168680D01*
X149720040Y-85268680D01*
X149719799Y-85273581D01*
X149719079Y-85278435D01*
X149717887Y-85283194D01*
X149716234Y-85287814D01*
X149714136Y-85292250D01*
X149711613Y-85296459D01*
X149708691Y-85300400D01*
X149705395Y-85304035D01*
X149701760Y-85307331D01*
X149697819Y-85310253D01*
X149693610Y-85312776D01*
X149689174Y-85314874D01*
X149684554Y-85316527D01*
X149679795Y-85317719D01*
X149674941Y-85318439D01*
X149670040Y-85318680D01*
X148970040Y-85318680D01*
X148965139Y-85318439D01*
X148960285Y-85317719D01*
X148955526Y-85316527D01*
X148950906Y-85314874D01*
X148946470Y-85312776D01*
X148942261Y-85310253D01*
X148938320Y-85307331D01*
X148934685Y-85304035D01*
X148931389Y-85300400D01*
X148928467Y-85296459D01*
X148925944Y-85292250D01*
X148923846Y-85287814D01*
X148922193Y-85283194D01*
X148921001Y-85278435D01*
X148920281Y-85273581D01*
X148920040Y-85268680D01*
X148920040Y-85168680D01*
X148920281Y-85163779D01*
X148921001Y-85158925D01*
X148922193Y-85154166D01*
X148923846Y-85149546D01*
X148925944Y-85145110D01*
X148928467Y-85140901D01*
X148931389Y-85136960D01*
X148934685Y-85133325D01*
X148938320Y-85130029D01*
X148942261Y-85127107D01*
X148946470Y-85124584D01*
X148950906Y-85122486D01*
X148955526Y-85120833D01*
X148960285Y-85119641D01*
X148965139Y-85118921D01*
X148970040Y-85118680D01*
X149670040Y-85118680D01*
X149674941Y-85118921D01*
X149674941Y-85118921D01*
G37*
D18*
X149320040Y-85218680D03*
D13*
G36*
X149674941Y-84718921D02*
G01*
X149679795Y-84719641D01*
X149684554Y-84720833D01*
X149689174Y-84722486D01*
X149693610Y-84724584D01*
X149697819Y-84727107D01*
X149701760Y-84730029D01*
X149705395Y-84733325D01*
X149708691Y-84736960D01*
X149711613Y-84740901D01*
X149714136Y-84745110D01*
X149716234Y-84749546D01*
X149717887Y-84754166D01*
X149719079Y-84758925D01*
X149719799Y-84763779D01*
X149720040Y-84768680D01*
X149720040Y-84868680D01*
X149719799Y-84873581D01*
X149719079Y-84878435D01*
X149717887Y-84883194D01*
X149716234Y-84887814D01*
X149714136Y-84892250D01*
X149711613Y-84896459D01*
X149708691Y-84900400D01*
X149705395Y-84904035D01*
X149701760Y-84907331D01*
X149697819Y-84910253D01*
X149693610Y-84912776D01*
X149689174Y-84914874D01*
X149684554Y-84916527D01*
X149679795Y-84917719D01*
X149674941Y-84918439D01*
X149670040Y-84918680D01*
X148970040Y-84918680D01*
X148965139Y-84918439D01*
X148960285Y-84917719D01*
X148955526Y-84916527D01*
X148950906Y-84914874D01*
X148946470Y-84912776D01*
X148942261Y-84910253D01*
X148938320Y-84907331D01*
X148934685Y-84904035D01*
X148931389Y-84900400D01*
X148928467Y-84896459D01*
X148925944Y-84892250D01*
X148923846Y-84887814D01*
X148922193Y-84883194D01*
X148921001Y-84878435D01*
X148920281Y-84873581D01*
X148920040Y-84868680D01*
X148920040Y-84768680D01*
X148920281Y-84763779D01*
X148921001Y-84758925D01*
X148922193Y-84754166D01*
X148923846Y-84749546D01*
X148925944Y-84745110D01*
X148928467Y-84740901D01*
X148931389Y-84736960D01*
X148934685Y-84733325D01*
X148938320Y-84730029D01*
X148942261Y-84727107D01*
X148946470Y-84724584D01*
X148950906Y-84722486D01*
X148955526Y-84720833D01*
X148960285Y-84719641D01*
X148965139Y-84718921D01*
X148970040Y-84718680D01*
X149670040Y-84718680D01*
X149674941Y-84718921D01*
X149674941Y-84718921D01*
G37*
D18*
X149320040Y-84818680D03*
D13*
G36*
X149674941Y-84318921D02*
G01*
X149679795Y-84319641D01*
X149684554Y-84320833D01*
X149689174Y-84322486D01*
X149693610Y-84324584D01*
X149697819Y-84327107D01*
X149701760Y-84330029D01*
X149705395Y-84333325D01*
X149708691Y-84336960D01*
X149711613Y-84340901D01*
X149714136Y-84345110D01*
X149716234Y-84349546D01*
X149717887Y-84354166D01*
X149719079Y-84358925D01*
X149719799Y-84363779D01*
X149720040Y-84368680D01*
X149720040Y-84468680D01*
X149719799Y-84473581D01*
X149719079Y-84478435D01*
X149717887Y-84483194D01*
X149716234Y-84487814D01*
X149714136Y-84492250D01*
X149711613Y-84496459D01*
X149708691Y-84500400D01*
X149705395Y-84504035D01*
X149701760Y-84507331D01*
X149697819Y-84510253D01*
X149693610Y-84512776D01*
X149689174Y-84514874D01*
X149684554Y-84516527D01*
X149679795Y-84517719D01*
X149674941Y-84518439D01*
X149670040Y-84518680D01*
X148970040Y-84518680D01*
X148965139Y-84518439D01*
X148960285Y-84517719D01*
X148955526Y-84516527D01*
X148950906Y-84514874D01*
X148946470Y-84512776D01*
X148942261Y-84510253D01*
X148938320Y-84507331D01*
X148934685Y-84504035D01*
X148931389Y-84500400D01*
X148928467Y-84496459D01*
X148925944Y-84492250D01*
X148923846Y-84487814D01*
X148922193Y-84483194D01*
X148921001Y-84478435D01*
X148920281Y-84473581D01*
X148920040Y-84468680D01*
X148920040Y-84368680D01*
X148920281Y-84363779D01*
X148921001Y-84358925D01*
X148922193Y-84354166D01*
X148923846Y-84349546D01*
X148925944Y-84345110D01*
X148928467Y-84340901D01*
X148931389Y-84336960D01*
X148934685Y-84333325D01*
X148938320Y-84330029D01*
X148942261Y-84327107D01*
X148946470Y-84324584D01*
X148950906Y-84322486D01*
X148955526Y-84320833D01*
X148960285Y-84319641D01*
X148965139Y-84318921D01*
X148970040Y-84318680D01*
X149670040Y-84318680D01*
X149674941Y-84318921D01*
X149674941Y-84318921D01*
G37*
D18*
X149320040Y-84418680D03*
D13*
G36*
X149674941Y-83918921D02*
G01*
X149679795Y-83919641D01*
X149684554Y-83920833D01*
X149689174Y-83922486D01*
X149693610Y-83924584D01*
X149697819Y-83927107D01*
X149701760Y-83930029D01*
X149705395Y-83933325D01*
X149708691Y-83936960D01*
X149711613Y-83940901D01*
X149714136Y-83945110D01*
X149716234Y-83949546D01*
X149717887Y-83954166D01*
X149719079Y-83958925D01*
X149719799Y-83963779D01*
X149720040Y-83968680D01*
X149720040Y-84068680D01*
X149719799Y-84073581D01*
X149719079Y-84078435D01*
X149717887Y-84083194D01*
X149716234Y-84087814D01*
X149714136Y-84092250D01*
X149711613Y-84096459D01*
X149708691Y-84100400D01*
X149705395Y-84104035D01*
X149701760Y-84107331D01*
X149697819Y-84110253D01*
X149693610Y-84112776D01*
X149689174Y-84114874D01*
X149684554Y-84116527D01*
X149679795Y-84117719D01*
X149674941Y-84118439D01*
X149670040Y-84118680D01*
X148970040Y-84118680D01*
X148965139Y-84118439D01*
X148960285Y-84117719D01*
X148955526Y-84116527D01*
X148950906Y-84114874D01*
X148946470Y-84112776D01*
X148942261Y-84110253D01*
X148938320Y-84107331D01*
X148934685Y-84104035D01*
X148931389Y-84100400D01*
X148928467Y-84096459D01*
X148925944Y-84092250D01*
X148923846Y-84087814D01*
X148922193Y-84083194D01*
X148921001Y-84078435D01*
X148920281Y-84073581D01*
X148920040Y-84068680D01*
X148920040Y-83968680D01*
X148920281Y-83963779D01*
X148921001Y-83958925D01*
X148922193Y-83954166D01*
X148923846Y-83949546D01*
X148925944Y-83945110D01*
X148928467Y-83940901D01*
X148931389Y-83936960D01*
X148934685Y-83933325D01*
X148938320Y-83930029D01*
X148942261Y-83927107D01*
X148946470Y-83924584D01*
X148950906Y-83922486D01*
X148955526Y-83920833D01*
X148960285Y-83919641D01*
X148965139Y-83918921D01*
X148970040Y-83918680D01*
X149670040Y-83918680D01*
X149674941Y-83918921D01*
X149674941Y-83918921D01*
G37*
D18*
X149320040Y-84018680D03*
D13*
G36*
X149674941Y-83518921D02*
G01*
X149679795Y-83519641D01*
X149684554Y-83520833D01*
X149689174Y-83522486D01*
X149693610Y-83524584D01*
X149697819Y-83527107D01*
X149701760Y-83530029D01*
X149705395Y-83533325D01*
X149708691Y-83536960D01*
X149711613Y-83540901D01*
X149714136Y-83545110D01*
X149716234Y-83549546D01*
X149717887Y-83554166D01*
X149719079Y-83558925D01*
X149719799Y-83563779D01*
X149720040Y-83568680D01*
X149720040Y-83668680D01*
X149719799Y-83673581D01*
X149719079Y-83678435D01*
X149717887Y-83683194D01*
X149716234Y-83687814D01*
X149714136Y-83692250D01*
X149711613Y-83696459D01*
X149708691Y-83700400D01*
X149705395Y-83704035D01*
X149701760Y-83707331D01*
X149697819Y-83710253D01*
X149693610Y-83712776D01*
X149689174Y-83714874D01*
X149684554Y-83716527D01*
X149679795Y-83717719D01*
X149674941Y-83718439D01*
X149670040Y-83718680D01*
X148970040Y-83718680D01*
X148965139Y-83718439D01*
X148960285Y-83717719D01*
X148955526Y-83716527D01*
X148950906Y-83714874D01*
X148946470Y-83712776D01*
X148942261Y-83710253D01*
X148938320Y-83707331D01*
X148934685Y-83704035D01*
X148931389Y-83700400D01*
X148928467Y-83696459D01*
X148925944Y-83692250D01*
X148923846Y-83687814D01*
X148922193Y-83683194D01*
X148921001Y-83678435D01*
X148920281Y-83673581D01*
X148920040Y-83668680D01*
X148920040Y-83568680D01*
X148920281Y-83563779D01*
X148921001Y-83558925D01*
X148922193Y-83554166D01*
X148923846Y-83549546D01*
X148925944Y-83545110D01*
X148928467Y-83540901D01*
X148931389Y-83536960D01*
X148934685Y-83533325D01*
X148938320Y-83530029D01*
X148942261Y-83527107D01*
X148946470Y-83524584D01*
X148950906Y-83522486D01*
X148955526Y-83520833D01*
X148960285Y-83519641D01*
X148965139Y-83518921D01*
X148970040Y-83518680D01*
X149670040Y-83518680D01*
X149674941Y-83518921D01*
X149674941Y-83518921D01*
G37*
D18*
X149320040Y-83618680D03*
D13*
G36*
X149674941Y-83118921D02*
G01*
X149679795Y-83119641D01*
X149684554Y-83120833D01*
X149689174Y-83122486D01*
X149693610Y-83124584D01*
X149697819Y-83127107D01*
X149701760Y-83130029D01*
X149705395Y-83133325D01*
X149708691Y-83136960D01*
X149711613Y-83140901D01*
X149714136Y-83145110D01*
X149716234Y-83149546D01*
X149717887Y-83154166D01*
X149719079Y-83158925D01*
X149719799Y-83163779D01*
X149720040Y-83168680D01*
X149720040Y-83268680D01*
X149719799Y-83273581D01*
X149719079Y-83278435D01*
X149717887Y-83283194D01*
X149716234Y-83287814D01*
X149714136Y-83292250D01*
X149711613Y-83296459D01*
X149708691Y-83300400D01*
X149705395Y-83304035D01*
X149701760Y-83307331D01*
X149697819Y-83310253D01*
X149693610Y-83312776D01*
X149689174Y-83314874D01*
X149684554Y-83316527D01*
X149679795Y-83317719D01*
X149674941Y-83318439D01*
X149670040Y-83318680D01*
X148970040Y-83318680D01*
X148965139Y-83318439D01*
X148960285Y-83317719D01*
X148955526Y-83316527D01*
X148950906Y-83314874D01*
X148946470Y-83312776D01*
X148942261Y-83310253D01*
X148938320Y-83307331D01*
X148934685Y-83304035D01*
X148931389Y-83300400D01*
X148928467Y-83296459D01*
X148925944Y-83292250D01*
X148923846Y-83287814D01*
X148922193Y-83283194D01*
X148921001Y-83278435D01*
X148920281Y-83273581D01*
X148920040Y-83268680D01*
X148920040Y-83168680D01*
X148920281Y-83163779D01*
X148921001Y-83158925D01*
X148922193Y-83154166D01*
X148923846Y-83149546D01*
X148925944Y-83145110D01*
X148928467Y-83140901D01*
X148931389Y-83136960D01*
X148934685Y-83133325D01*
X148938320Y-83130029D01*
X148942261Y-83127107D01*
X148946470Y-83124584D01*
X148950906Y-83122486D01*
X148955526Y-83120833D01*
X148960285Y-83119641D01*
X148965139Y-83118921D01*
X148970040Y-83118680D01*
X149670040Y-83118680D01*
X149674941Y-83118921D01*
X149674941Y-83118921D01*
G37*
D18*
X149320040Y-83218680D03*
D13*
G36*
X149674941Y-82718921D02*
G01*
X149679795Y-82719641D01*
X149684554Y-82720833D01*
X149689174Y-82722486D01*
X149693610Y-82724584D01*
X149697819Y-82727107D01*
X149701760Y-82730029D01*
X149705395Y-82733325D01*
X149708691Y-82736960D01*
X149711613Y-82740901D01*
X149714136Y-82745110D01*
X149716234Y-82749546D01*
X149717887Y-82754166D01*
X149719079Y-82758925D01*
X149719799Y-82763779D01*
X149720040Y-82768680D01*
X149720040Y-82868680D01*
X149719799Y-82873581D01*
X149719079Y-82878435D01*
X149717887Y-82883194D01*
X149716234Y-82887814D01*
X149714136Y-82892250D01*
X149711613Y-82896459D01*
X149708691Y-82900400D01*
X149705395Y-82904035D01*
X149701760Y-82907331D01*
X149697819Y-82910253D01*
X149693610Y-82912776D01*
X149689174Y-82914874D01*
X149684554Y-82916527D01*
X149679795Y-82917719D01*
X149674941Y-82918439D01*
X149670040Y-82918680D01*
X148970040Y-82918680D01*
X148965139Y-82918439D01*
X148960285Y-82917719D01*
X148955526Y-82916527D01*
X148950906Y-82914874D01*
X148946470Y-82912776D01*
X148942261Y-82910253D01*
X148938320Y-82907331D01*
X148934685Y-82904035D01*
X148931389Y-82900400D01*
X148928467Y-82896459D01*
X148925944Y-82892250D01*
X148923846Y-82887814D01*
X148922193Y-82883194D01*
X148921001Y-82878435D01*
X148920281Y-82873581D01*
X148920040Y-82868680D01*
X148920040Y-82768680D01*
X148920281Y-82763779D01*
X148921001Y-82758925D01*
X148922193Y-82754166D01*
X148923846Y-82749546D01*
X148925944Y-82745110D01*
X148928467Y-82740901D01*
X148931389Y-82736960D01*
X148934685Y-82733325D01*
X148938320Y-82730029D01*
X148942261Y-82727107D01*
X148946470Y-82724584D01*
X148950906Y-82722486D01*
X148955526Y-82720833D01*
X148960285Y-82719641D01*
X148965139Y-82718921D01*
X148970040Y-82718680D01*
X149670040Y-82718680D01*
X149674941Y-82718921D01*
X149674941Y-82718921D01*
G37*
D18*
X149320040Y-82818680D03*
D13*
G36*
X149674941Y-82318921D02*
G01*
X149679795Y-82319641D01*
X149684554Y-82320833D01*
X149689174Y-82322486D01*
X149693610Y-82324584D01*
X149697819Y-82327107D01*
X149701760Y-82330029D01*
X149705395Y-82333325D01*
X149708691Y-82336960D01*
X149711613Y-82340901D01*
X149714136Y-82345110D01*
X149716234Y-82349546D01*
X149717887Y-82354166D01*
X149719079Y-82358925D01*
X149719799Y-82363779D01*
X149720040Y-82368680D01*
X149720040Y-82468680D01*
X149719799Y-82473581D01*
X149719079Y-82478435D01*
X149717887Y-82483194D01*
X149716234Y-82487814D01*
X149714136Y-82492250D01*
X149711613Y-82496459D01*
X149708691Y-82500400D01*
X149705395Y-82504035D01*
X149701760Y-82507331D01*
X149697819Y-82510253D01*
X149693610Y-82512776D01*
X149689174Y-82514874D01*
X149684554Y-82516527D01*
X149679795Y-82517719D01*
X149674941Y-82518439D01*
X149670040Y-82518680D01*
X148970040Y-82518680D01*
X148965139Y-82518439D01*
X148960285Y-82517719D01*
X148955526Y-82516527D01*
X148950906Y-82514874D01*
X148946470Y-82512776D01*
X148942261Y-82510253D01*
X148938320Y-82507331D01*
X148934685Y-82504035D01*
X148931389Y-82500400D01*
X148928467Y-82496459D01*
X148925944Y-82492250D01*
X148923846Y-82487814D01*
X148922193Y-82483194D01*
X148921001Y-82478435D01*
X148920281Y-82473581D01*
X148920040Y-82468680D01*
X148920040Y-82368680D01*
X148920281Y-82363779D01*
X148921001Y-82358925D01*
X148922193Y-82354166D01*
X148923846Y-82349546D01*
X148925944Y-82345110D01*
X148928467Y-82340901D01*
X148931389Y-82336960D01*
X148934685Y-82333325D01*
X148938320Y-82330029D01*
X148942261Y-82327107D01*
X148946470Y-82324584D01*
X148950906Y-82322486D01*
X148955526Y-82320833D01*
X148960285Y-82319641D01*
X148965139Y-82318921D01*
X148970040Y-82318680D01*
X149670040Y-82318680D01*
X149674941Y-82318921D01*
X149674941Y-82318921D01*
G37*
D18*
X149320040Y-82418680D03*
D13*
G36*
X149674941Y-81918921D02*
G01*
X149679795Y-81919641D01*
X149684554Y-81920833D01*
X149689174Y-81922486D01*
X149693610Y-81924584D01*
X149697819Y-81927107D01*
X149701760Y-81930029D01*
X149705395Y-81933325D01*
X149708691Y-81936960D01*
X149711613Y-81940901D01*
X149714136Y-81945110D01*
X149716234Y-81949546D01*
X149717887Y-81954166D01*
X149719079Y-81958925D01*
X149719799Y-81963779D01*
X149720040Y-81968680D01*
X149720040Y-82068680D01*
X149719799Y-82073581D01*
X149719079Y-82078435D01*
X149717887Y-82083194D01*
X149716234Y-82087814D01*
X149714136Y-82092250D01*
X149711613Y-82096459D01*
X149708691Y-82100400D01*
X149705395Y-82104035D01*
X149701760Y-82107331D01*
X149697819Y-82110253D01*
X149693610Y-82112776D01*
X149689174Y-82114874D01*
X149684554Y-82116527D01*
X149679795Y-82117719D01*
X149674941Y-82118439D01*
X149670040Y-82118680D01*
X148970040Y-82118680D01*
X148965139Y-82118439D01*
X148960285Y-82117719D01*
X148955526Y-82116527D01*
X148950906Y-82114874D01*
X148946470Y-82112776D01*
X148942261Y-82110253D01*
X148938320Y-82107331D01*
X148934685Y-82104035D01*
X148931389Y-82100400D01*
X148928467Y-82096459D01*
X148925944Y-82092250D01*
X148923846Y-82087814D01*
X148922193Y-82083194D01*
X148921001Y-82078435D01*
X148920281Y-82073581D01*
X148920040Y-82068680D01*
X148920040Y-81968680D01*
X148920281Y-81963779D01*
X148921001Y-81958925D01*
X148922193Y-81954166D01*
X148923846Y-81949546D01*
X148925944Y-81945110D01*
X148928467Y-81940901D01*
X148931389Y-81936960D01*
X148934685Y-81933325D01*
X148938320Y-81930029D01*
X148942261Y-81927107D01*
X148946470Y-81924584D01*
X148950906Y-81922486D01*
X148955526Y-81920833D01*
X148960285Y-81919641D01*
X148965139Y-81918921D01*
X148970040Y-81918680D01*
X149670040Y-81918680D01*
X149674941Y-81918921D01*
X149674941Y-81918921D01*
G37*
D18*
X149320040Y-82018680D03*
D13*
G36*
X149674941Y-81518921D02*
G01*
X149679795Y-81519641D01*
X149684554Y-81520833D01*
X149689174Y-81522486D01*
X149693610Y-81524584D01*
X149697819Y-81527107D01*
X149701760Y-81530029D01*
X149705395Y-81533325D01*
X149708691Y-81536960D01*
X149711613Y-81540901D01*
X149714136Y-81545110D01*
X149716234Y-81549546D01*
X149717887Y-81554166D01*
X149719079Y-81558925D01*
X149719799Y-81563779D01*
X149720040Y-81568680D01*
X149720040Y-81668680D01*
X149719799Y-81673581D01*
X149719079Y-81678435D01*
X149717887Y-81683194D01*
X149716234Y-81687814D01*
X149714136Y-81692250D01*
X149711613Y-81696459D01*
X149708691Y-81700400D01*
X149705395Y-81704035D01*
X149701760Y-81707331D01*
X149697819Y-81710253D01*
X149693610Y-81712776D01*
X149689174Y-81714874D01*
X149684554Y-81716527D01*
X149679795Y-81717719D01*
X149674941Y-81718439D01*
X149670040Y-81718680D01*
X148970040Y-81718680D01*
X148965139Y-81718439D01*
X148960285Y-81717719D01*
X148955526Y-81716527D01*
X148950906Y-81714874D01*
X148946470Y-81712776D01*
X148942261Y-81710253D01*
X148938320Y-81707331D01*
X148934685Y-81704035D01*
X148931389Y-81700400D01*
X148928467Y-81696459D01*
X148925944Y-81692250D01*
X148923846Y-81687814D01*
X148922193Y-81683194D01*
X148921001Y-81678435D01*
X148920281Y-81673581D01*
X148920040Y-81668680D01*
X148920040Y-81568680D01*
X148920281Y-81563779D01*
X148921001Y-81558925D01*
X148922193Y-81554166D01*
X148923846Y-81549546D01*
X148925944Y-81545110D01*
X148928467Y-81540901D01*
X148931389Y-81536960D01*
X148934685Y-81533325D01*
X148938320Y-81530029D01*
X148942261Y-81527107D01*
X148946470Y-81524584D01*
X148950906Y-81522486D01*
X148955526Y-81520833D01*
X148960285Y-81519641D01*
X148965139Y-81518921D01*
X148970040Y-81518680D01*
X149670040Y-81518680D01*
X149674941Y-81518921D01*
X149674941Y-81518921D01*
G37*
D18*
X149320040Y-81618680D03*
D13*
G36*
X149674941Y-81118921D02*
G01*
X149679795Y-81119641D01*
X149684554Y-81120833D01*
X149689174Y-81122486D01*
X149693610Y-81124584D01*
X149697819Y-81127107D01*
X149701760Y-81130029D01*
X149705395Y-81133325D01*
X149708691Y-81136960D01*
X149711613Y-81140901D01*
X149714136Y-81145110D01*
X149716234Y-81149546D01*
X149717887Y-81154166D01*
X149719079Y-81158925D01*
X149719799Y-81163779D01*
X149720040Y-81168680D01*
X149720040Y-81268680D01*
X149719799Y-81273581D01*
X149719079Y-81278435D01*
X149717887Y-81283194D01*
X149716234Y-81287814D01*
X149714136Y-81292250D01*
X149711613Y-81296459D01*
X149708691Y-81300400D01*
X149705395Y-81304035D01*
X149701760Y-81307331D01*
X149697819Y-81310253D01*
X149693610Y-81312776D01*
X149689174Y-81314874D01*
X149684554Y-81316527D01*
X149679795Y-81317719D01*
X149674941Y-81318439D01*
X149670040Y-81318680D01*
X148970040Y-81318680D01*
X148965139Y-81318439D01*
X148960285Y-81317719D01*
X148955526Y-81316527D01*
X148950906Y-81314874D01*
X148946470Y-81312776D01*
X148942261Y-81310253D01*
X148938320Y-81307331D01*
X148934685Y-81304035D01*
X148931389Y-81300400D01*
X148928467Y-81296459D01*
X148925944Y-81292250D01*
X148923846Y-81287814D01*
X148922193Y-81283194D01*
X148921001Y-81278435D01*
X148920281Y-81273581D01*
X148920040Y-81268680D01*
X148920040Y-81168680D01*
X148920281Y-81163779D01*
X148921001Y-81158925D01*
X148922193Y-81154166D01*
X148923846Y-81149546D01*
X148925944Y-81145110D01*
X148928467Y-81140901D01*
X148931389Y-81136960D01*
X148934685Y-81133325D01*
X148938320Y-81130029D01*
X148942261Y-81127107D01*
X148946470Y-81124584D01*
X148950906Y-81122486D01*
X148955526Y-81120833D01*
X148960285Y-81119641D01*
X148965139Y-81118921D01*
X148970040Y-81118680D01*
X149670040Y-81118680D01*
X149674941Y-81118921D01*
X149674941Y-81118921D01*
G37*
D18*
X149320040Y-81218680D03*
D13*
G36*
X148624941Y-80068921D02*
G01*
X148629795Y-80069641D01*
X148634554Y-80070833D01*
X148639174Y-80072486D01*
X148643610Y-80074584D01*
X148647819Y-80077107D01*
X148651760Y-80080029D01*
X148655395Y-80083325D01*
X148658691Y-80086960D01*
X148661613Y-80090901D01*
X148664136Y-80095110D01*
X148666234Y-80099546D01*
X148667887Y-80104166D01*
X148669079Y-80108925D01*
X148669799Y-80113779D01*
X148670040Y-80118680D01*
X148670040Y-80818680D01*
X148669799Y-80823581D01*
X148669079Y-80828435D01*
X148667887Y-80833194D01*
X148666234Y-80837814D01*
X148664136Y-80842250D01*
X148661613Y-80846459D01*
X148658691Y-80850400D01*
X148655395Y-80854035D01*
X148651760Y-80857331D01*
X148647819Y-80860253D01*
X148643610Y-80862776D01*
X148639174Y-80864874D01*
X148634554Y-80866527D01*
X148629795Y-80867719D01*
X148624941Y-80868439D01*
X148620040Y-80868680D01*
X148520040Y-80868680D01*
X148515139Y-80868439D01*
X148510285Y-80867719D01*
X148505526Y-80866527D01*
X148500906Y-80864874D01*
X148496470Y-80862776D01*
X148492261Y-80860253D01*
X148488320Y-80857331D01*
X148484685Y-80854035D01*
X148481389Y-80850400D01*
X148478467Y-80846459D01*
X148475944Y-80842250D01*
X148473846Y-80837814D01*
X148472193Y-80833194D01*
X148471001Y-80828435D01*
X148470281Y-80823581D01*
X148470040Y-80818680D01*
X148470040Y-80118680D01*
X148470281Y-80113779D01*
X148471001Y-80108925D01*
X148472193Y-80104166D01*
X148473846Y-80099546D01*
X148475944Y-80095110D01*
X148478467Y-80090901D01*
X148481389Y-80086960D01*
X148484685Y-80083325D01*
X148488320Y-80080029D01*
X148492261Y-80077107D01*
X148496470Y-80074584D01*
X148500906Y-80072486D01*
X148505526Y-80070833D01*
X148510285Y-80069641D01*
X148515139Y-80068921D01*
X148520040Y-80068680D01*
X148620040Y-80068680D01*
X148624941Y-80068921D01*
X148624941Y-80068921D01*
G37*
D18*
X148570040Y-80468680D03*
D13*
G36*
X148224941Y-80068921D02*
G01*
X148229795Y-80069641D01*
X148234554Y-80070833D01*
X148239174Y-80072486D01*
X148243610Y-80074584D01*
X148247819Y-80077107D01*
X148251760Y-80080029D01*
X148255395Y-80083325D01*
X148258691Y-80086960D01*
X148261613Y-80090901D01*
X148264136Y-80095110D01*
X148266234Y-80099546D01*
X148267887Y-80104166D01*
X148269079Y-80108925D01*
X148269799Y-80113779D01*
X148270040Y-80118680D01*
X148270040Y-80818680D01*
X148269799Y-80823581D01*
X148269079Y-80828435D01*
X148267887Y-80833194D01*
X148266234Y-80837814D01*
X148264136Y-80842250D01*
X148261613Y-80846459D01*
X148258691Y-80850400D01*
X148255395Y-80854035D01*
X148251760Y-80857331D01*
X148247819Y-80860253D01*
X148243610Y-80862776D01*
X148239174Y-80864874D01*
X148234554Y-80866527D01*
X148229795Y-80867719D01*
X148224941Y-80868439D01*
X148220040Y-80868680D01*
X148120040Y-80868680D01*
X148115139Y-80868439D01*
X148110285Y-80867719D01*
X148105526Y-80866527D01*
X148100906Y-80864874D01*
X148096470Y-80862776D01*
X148092261Y-80860253D01*
X148088320Y-80857331D01*
X148084685Y-80854035D01*
X148081389Y-80850400D01*
X148078467Y-80846459D01*
X148075944Y-80842250D01*
X148073846Y-80837814D01*
X148072193Y-80833194D01*
X148071001Y-80828435D01*
X148070281Y-80823581D01*
X148070040Y-80818680D01*
X148070040Y-80118680D01*
X148070281Y-80113779D01*
X148071001Y-80108925D01*
X148072193Y-80104166D01*
X148073846Y-80099546D01*
X148075944Y-80095110D01*
X148078467Y-80090901D01*
X148081389Y-80086960D01*
X148084685Y-80083325D01*
X148088320Y-80080029D01*
X148092261Y-80077107D01*
X148096470Y-80074584D01*
X148100906Y-80072486D01*
X148105526Y-80070833D01*
X148110285Y-80069641D01*
X148115139Y-80068921D01*
X148120040Y-80068680D01*
X148220040Y-80068680D01*
X148224941Y-80068921D01*
X148224941Y-80068921D01*
G37*
D18*
X148170040Y-80468680D03*
D13*
G36*
X147824941Y-80068921D02*
G01*
X147829795Y-80069641D01*
X147834554Y-80070833D01*
X147839174Y-80072486D01*
X147843610Y-80074584D01*
X147847819Y-80077107D01*
X147851760Y-80080029D01*
X147855395Y-80083325D01*
X147858691Y-80086960D01*
X147861613Y-80090901D01*
X147864136Y-80095110D01*
X147866234Y-80099546D01*
X147867887Y-80104166D01*
X147869079Y-80108925D01*
X147869799Y-80113779D01*
X147870040Y-80118680D01*
X147870040Y-80818680D01*
X147869799Y-80823581D01*
X147869079Y-80828435D01*
X147867887Y-80833194D01*
X147866234Y-80837814D01*
X147864136Y-80842250D01*
X147861613Y-80846459D01*
X147858691Y-80850400D01*
X147855395Y-80854035D01*
X147851760Y-80857331D01*
X147847819Y-80860253D01*
X147843610Y-80862776D01*
X147839174Y-80864874D01*
X147834554Y-80866527D01*
X147829795Y-80867719D01*
X147824941Y-80868439D01*
X147820040Y-80868680D01*
X147720040Y-80868680D01*
X147715139Y-80868439D01*
X147710285Y-80867719D01*
X147705526Y-80866527D01*
X147700906Y-80864874D01*
X147696470Y-80862776D01*
X147692261Y-80860253D01*
X147688320Y-80857331D01*
X147684685Y-80854035D01*
X147681389Y-80850400D01*
X147678467Y-80846459D01*
X147675944Y-80842250D01*
X147673846Y-80837814D01*
X147672193Y-80833194D01*
X147671001Y-80828435D01*
X147670281Y-80823581D01*
X147670040Y-80818680D01*
X147670040Y-80118680D01*
X147670281Y-80113779D01*
X147671001Y-80108925D01*
X147672193Y-80104166D01*
X147673846Y-80099546D01*
X147675944Y-80095110D01*
X147678467Y-80090901D01*
X147681389Y-80086960D01*
X147684685Y-80083325D01*
X147688320Y-80080029D01*
X147692261Y-80077107D01*
X147696470Y-80074584D01*
X147700906Y-80072486D01*
X147705526Y-80070833D01*
X147710285Y-80069641D01*
X147715139Y-80068921D01*
X147720040Y-80068680D01*
X147820040Y-80068680D01*
X147824941Y-80068921D01*
X147824941Y-80068921D01*
G37*
D18*
X147770040Y-80468680D03*
D13*
G36*
X147424941Y-80068921D02*
G01*
X147429795Y-80069641D01*
X147434554Y-80070833D01*
X147439174Y-80072486D01*
X147443610Y-80074584D01*
X147447819Y-80077107D01*
X147451760Y-80080029D01*
X147455395Y-80083325D01*
X147458691Y-80086960D01*
X147461613Y-80090901D01*
X147464136Y-80095110D01*
X147466234Y-80099546D01*
X147467887Y-80104166D01*
X147469079Y-80108925D01*
X147469799Y-80113779D01*
X147470040Y-80118680D01*
X147470040Y-80818680D01*
X147469799Y-80823581D01*
X147469079Y-80828435D01*
X147467887Y-80833194D01*
X147466234Y-80837814D01*
X147464136Y-80842250D01*
X147461613Y-80846459D01*
X147458691Y-80850400D01*
X147455395Y-80854035D01*
X147451760Y-80857331D01*
X147447819Y-80860253D01*
X147443610Y-80862776D01*
X147439174Y-80864874D01*
X147434554Y-80866527D01*
X147429795Y-80867719D01*
X147424941Y-80868439D01*
X147420040Y-80868680D01*
X147320040Y-80868680D01*
X147315139Y-80868439D01*
X147310285Y-80867719D01*
X147305526Y-80866527D01*
X147300906Y-80864874D01*
X147296470Y-80862776D01*
X147292261Y-80860253D01*
X147288320Y-80857331D01*
X147284685Y-80854035D01*
X147281389Y-80850400D01*
X147278467Y-80846459D01*
X147275944Y-80842250D01*
X147273846Y-80837814D01*
X147272193Y-80833194D01*
X147271001Y-80828435D01*
X147270281Y-80823581D01*
X147270040Y-80818680D01*
X147270040Y-80118680D01*
X147270281Y-80113779D01*
X147271001Y-80108925D01*
X147272193Y-80104166D01*
X147273846Y-80099546D01*
X147275944Y-80095110D01*
X147278467Y-80090901D01*
X147281389Y-80086960D01*
X147284685Y-80083325D01*
X147288320Y-80080029D01*
X147292261Y-80077107D01*
X147296470Y-80074584D01*
X147300906Y-80072486D01*
X147305526Y-80070833D01*
X147310285Y-80069641D01*
X147315139Y-80068921D01*
X147320040Y-80068680D01*
X147420040Y-80068680D01*
X147424941Y-80068921D01*
X147424941Y-80068921D01*
G37*
D18*
X147370040Y-80468680D03*
D13*
G36*
X147024941Y-80068921D02*
G01*
X147029795Y-80069641D01*
X147034554Y-80070833D01*
X147039174Y-80072486D01*
X147043610Y-80074584D01*
X147047819Y-80077107D01*
X147051760Y-80080029D01*
X147055395Y-80083325D01*
X147058691Y-80086960D01*
X147061613Y-80090901D01*
X147064136Y-80095110D01*
X147066234Y-80099546D01*
X147067887Y-80104166D01*
X147069079Y-80108925D01*
X147069799Y-80113779D01*
X147070040Y-80118680D01*
X147070040Y-80818680D01*
X147069799Y-80823581D01*
X147069079Y-80828435D01*
X147067887Y-80833194D01*
X147066234Y-80837814D01*
X147064136Y-80842250D01*
X147061613Y-80846459D01*
X147058691Y-80850400D01*
X147055395Y-80854035D01*
X147051760Y-80857331D01*
X147047819Y-80860253D01*
X147043610Y-80862776D01*
X147039174Y-80864874D01*
X147034554Y-80866527D01*
X147029795Y-80867719D01*
X147024941Y-80868439D01*
X147020040Y-80868680D01*
X146920040Y-80868680D01*
X146915139Y-80868439D01*
X146910285Y-80867719D01*
X146905526Y-80866527D01*
X146900906Y-80864874D01*
X146896470Y-80862776D01*
X146892261Y-80860253D01*
X146888320Y-80857331D01*
X146884685Y-80854035D01*
X146881389Y-80850400D01*
X146878467Y-80846459D01*
X146875944Y-80842250D01*
X146873846Y-80837814D01*
X146872193Y-80833194D01*
X146871001Y-80828435D01*
X146870281Y-80823581D01*
X146870040Y-80818680D01*
X146870040Y-80118680D01*
X146870281Y-80113779D01*
X146871001Y-80108925D01*
X146872193Y-80104166D01*
X146873846Y-80099546D01*
X146875944Y-80095110D01*
X146878467Y-80090901D01*
X146881389Y-80086960D01*
X146884685Y-80083325D01*
X146888320Y-80080029D01*
X146892261Y-80077107D01*
X146896470Y-80074584D01*
X146900906Y-80072486D01*
X146905526Y-80070833D01*
X146910285Y-80069641D01*
X146915139Y-80068921D01*
X146920040Y-80068680D01*
X147020040Y-80068680D01*
X147024941Y-80068921D01*
X147024941Y-80068921D01*
G37*
D18*
X146970040Y-80468680D03*
D13*
G36*
X146624941Y-80068921D02*
G01*
X146629795Y-80069641D01*
X146634554Y-80070833D01*
X146639174Y-80072486D01*
X146643610Y-80074584D01*
X146647819Y-80077107D01*
X146651760Y-80080029D01*
X146655395Y-80083325D01*
X146658691Y-80086960D01*
X146661613Y-80090901D01*
X146664136Y-80095110D01*
X146666234Y-80099546D01*
X146667887Y-80104166D01*
X146669079Y-80108925D01*
X146669799Y-80113779D01*
X146670040Y-80118680D01*
X146670040Y-80818680D01*
X146669799Y-80823581D01*
X146669079Y-80828435D01*
X146667887Y-80833194D01*
X146666234Y-80837814D01*
X146664136Y-80842250D01*
X146661613Y-80846459D01*
X146658691Y-80850400D01*
X146655395Y-80854035D01*
X146651760Y-80857331D01*
X146647819Y-80860253D01*
X146643610Y-80862776D01*
X146639174Y-80864874D01*
X146634554Y-80866527D01*
X146629795Y-80867719D01*
X146624941Y-80868439D01*
X146620040Y-80868680D01*
X146520040Y-80868680D01*
X146515139Y-80868439D01*
X146510285Y-80867719D01*
X146505526Y-80866527D01*
X146500906Y-80864874D01*
X146496470Y-80862776D01*
X146492261Y-80860253D01*
X146488320Y-80857331D01*
X146484685Y-80854035D01*
X146481389Y-80850400D01*
X146478467Y-80846459D01*
X146475944Y-80842250D01*
X146473846Y-80837814D01*
X146472193Y-80833194D01*
X146471001Y-80828435D01*
X146470281Y-80823581D01*
X146470040Y-80818680D01*
X146470040Y-80118680D01*
X146470281Y-80113779D01*
X146471001Y-80108925D01*
X146472193Y-80104166D01*
X146473846Y-80099546D01*
X146475944Y-80095110D01*
X146478467Y-80090901D01*
X146481389Y-80086960D01*
X146484685Y-80083325D01*
X146488320Y-80080029D01*
X146492261Y-80077107D01*
X146496470Y-80074584D01*
X146500906Y-80072486D01*
X146505526Y-80070833D01*
X146510285Y-80069641D01*
X146515139Y-80068921D01*
X146520040Y-80068680D01*
X146620040Y-80068680D01*
X146624941Y-80068921D01*
X146624941Y-80068921D01*
G37*
D18*
X146570040Y-80468680D03*
D13*
G36*
X146224941Y-80068921D02*
G01*
X146229795Y-80069641D01*
X146234554Y-80070833D01*
X146239174Y-80072486D01*
X146243610Y-80074584D01*
X146247819Y-80077107D01*
X146251760Y-80080029D01*
X146255395Y-80083325D01*
X146258691Y-80086960D01*
X146261613Y-80090901D01*
X146264136Y-80095110D01*
X146266234Y-80099546D01*
X146267887Y-80104166D01*
X146269079Y-80108925D01*
X146269799Y-80113779D01*
X146270040Y-80118680D01*
X146270040Y-80818680D01*
X146269799Y-80823581D01*
X146269079Y-80828435D01*
X146267887Y-80833194D01*
X146266234Y-80837814D01*
X146264136Y-80842250D01*
X146261613Y-80846459D01*
X146258691Y-80850400D01*
X146255395Y-80854035D01*
X146251760Y-80857331D01*
X146247819Y-80860253D01*
X146243610Y-80862776D01*
X146239174Y-80864874D01*
X146234554Y-80866527D01*
X146229795Y-80867719D01*
X146224941Y-80868439D01*
X146220040Y-80868680D01*
X146120040Y-80868680D01*
X146115139Y-80868439D01*
X146110285Y-80867719D01*
X146105526Y-80866527D01*
X146100906Y-80864874D01*
X146096470Y-80862776D01*
X146092261Y-80860253D01*
X146088320Y-80857331D01*
X146084685Y-80854035D01*
X146081389Y-80850400D01*
X146078467Y-80846459D01*
X146075944Y-80842250D01*
X146073846Y-80837814D01*
X146072193Y-80833194D01*
X146071001Y-80828435D01*
X146070281Y-80823581D01*
X146070040Y-80818680D01*
X146070040Y-80118680D01*
X146070281Y-80113779D01*
X146071001Y-80108925D01*
X146072193Y-80104166D01*
X146073846Y-80099546D01*
X146075944Y-80095110D01*
X146078467Y-80090901D01*
X146081389Y-80086960D01*
X146084685Y-80083325D01*
X146088320Y-80080029D01*
X146092261Y-80077107D01*
X146096470Y-80074584D01*
X146100906Y-80072486D01*
X146105526Y-80070833D01*
X146110285Y-80069641D01*
X146115139Y-80068921D01*
X146120040Y-80068680D01*
X146220040Y-80068680D01*
X146224941Y-80068921D01*
X146224941Y-80068921D01*
G37*
D18*
X146170040Y-80468680D03*
D13*
G36*
X145824941Y-80068921D02*
G01*
X145829795Y-80069641D01*
X145834554Y-80070833D01*
X145839174Y-80072486D01*
X145843610Y-80074584D01*
X145847819Y-80077107D01*
X145851760Y-80080029D01*
X145855395Y-80083325D01*
X145858691Y-80086960D01*
X145861613Y-80090901D01*
X145864136Y-80095110D01*
X145866234Y-80099546D01*
X145867887Y-80104166D01*
X145869079Y-80108925D01*
X145869799Y-80113779D01*
X145870040Y-80118680D01*
X145870040Y-80818680D01*
X145869799Y-80823581D01*
X145869079Y-80828435D01*
X145867887Y-80833194D01*
X145866234Y-80837814D01*
X145864136Y-80842250D01*
X145861613Y-80846459D01*
X145858691Y-80850400D01*
X145855395Y-80854035D01*
X145851760Y-80857331D01*
X145847819Y-80860253D01*
X145843610Y-80862776D01*
X145839174Y-80864874D01*
X145834554Y-80866527D01*
X145829795Y-80867719D01*
X145824941Y-80868439D01*
X145820040Y-80868680D01*
X145720040Y-80868680D01*
X145715139Y-80868439D01*
X145710285Y-80867719D01*
X145705526Y-80866527D01*
X145700906Y-80864874D01*
X145696470Y-80862776D01*
X145692261Y-80860253D01*
X145688320Y-80857331D01*
X145684685Y-80854035D01*
X145681389Y-80850400D01*
X145678467Y-80846459D01*
X145675944Y-80842250D01*
X145673846Y-80837814D01*
X145672193Y-80833194D01*
X145671001Y-80828435D01*
X145670281Y-80823581D01*
X145670040Y-80818680D01*
X145670040Y-80118680D01*
X145670281Y-80113779D01*
X145671001Y-80108925D01*
X145672193Y-80104166D01*
X145673846Y-80099546D01*
X145675944Y-80095110D01*
X145678467Y-80090901D01*
X145681389Y-80086960D01*
X145684685Y-80083325D01*
X145688320Y-80080029D01*
X145692261Y-80077107D01*
X145696470Y-80074584D01*
X145700906Y-80072486D01*
X145705526Y-80070833D01*
X145710285Y-80069641D01*
X145715139Y-80068921D01*
X145720040Y-80068680D01*
X145820040Y-80068680D01*
X145824941Y-80068921D01*
X145824941Y-80068921D01*
G37*
D18*
X145770040Y-80468680D03*
D13*
G36*
X145424941Y-80068921D02*
G01*
X145429795Y-80069641D01*
X145434554Y-80070833D01*
X145439174Y-80072486D01*
X145443610Y-80074584D01*
X145447819Y-80077107D01*
X145451760Y-80080029D01*
X145455395Y-80083325D01*
X145458691Y-80086960D01*
X145461613Y-80090901D01*
X145464136Y-80095110D01*
X145466234Y-80099546D01*
X145467887Y-80104166D01*
X145469079Y-80108925D01*
X145469799Y-80113779D01*
X145470040Y-80118680D01*
X145470040Y-80818680D01*
X145469799Y-80823581D01*
X145469079Y-80828435D01*
X145467887Y-80833194D01*
X145466234Y-80837814D01*
X145464136Y-80842250D01*
X145461613Y-80846459D01*
X145458691Y-80850400D01*
X145455395Y-80854035D01*
X145451760Y-80857331D01*
X145447819Y-80860253D01*
X145443610Y-80862776D01*
X145439174Y-80864874D01*
X145434554Y-80866527D01*
X145429795Y-80867719D01*
X145424941Y-80868439D01*
X145420040Y-80868680D01*
X145320040Y-80868680D01*
X145315139Y-80868439D01*
X145310285Y-80867719D01*
X145305526Y-80866527D01*
X145300906Y-80864874D01*
X145296470Y-80862776D01*
X145292261Y-80860253D01*
X145288320Y-80857331D01*
X145284685Y-80854035D01*
X145281389Y-80850400D01*
X145278467Y-80846459D01*
X145275944Y-80842250D01*
X145273846Y-80837814D01*
X145272193Y-80833194D01*
X145271001Y-80828435D01*
X145270281Y-80823581D01*
X145270040Y-80818680D01*
X145270040Y-80118680D01*
X145270281Y-80113779D01*
X145271001Y-80108925D01*
X145272193Y-80104166D01*
X145273846Y-80099546D01*
X145275944Y-80095110D01*
X145278467Y-80090901D01*
X145281389Y-80086960D01*
X145284685Y-80083325D01*
X145288320Y-80080029D01*
X145292261Y-80077107D01*
X145296470Y-80074584D01*
X145300906Y-80072486D01*
X145305526Y-80070833D01*
X145310285Y-80069641D01*
X145315139Y-80068921D01*
X145320040Y-80068680D01*
X145420040Y-80068680D01*
X145424941Y-80068921D01*
X145424941Y-80068921D01*
G37*
D18*
X145370040Y-80468680D03*
D13*
G36*
X145024941Y-80068921D02*
G01*
X145029795Y-80069641D01*
X145034554Y-80070833D01*
X145039174Y-80072486D01*
X145043610Y-80074584D01*
X145047819Y-80077107D01*
X145051760Y-80080029D01*
X145055395Y-80083325D01*
X145058691Y-80086960D01*
X145061613Y-80090901D01*
X145064136Y-80095110D01*
X145066234Y-80099546D01*
X145067887Y-80104166D01*
X145069079Y-80108925D01*
X145069799Y-80113779D01*
X145070040Y-80118680D01*
X145070040Y-80818680D01*
X145069799Y-80823581D01*
X145069079Y-80828435D01*
X145067887Y-80833194D01*
X145066234Y-80837814D01*
X145064136Y-80842250D01*
X145061613Y-80846459D01*
X145058691Y-80850400D01*
X145055395Y-80854035D01*
X145051760Y-80857331D01*
X145047819Y-80860253D01*
X145043610Y-80862776D01*
X145039174Y-80864874D01*
X145034554Y-80866527D01*
X145029795Y-80867719D01*
X145024941Y-80868439D01*
X145020040Y-80868680D01*
X144920040Y-80868680D01*
X144915139Y-80868439D01*
X144910285Y-80867719D01*
X144905526Y-80866527D01*
X144900906Y-80864874D01*
X144896470Y-80862776D01*
X144892261Y-80860253D01*
X144888320Y-80857331D01*
X144884685Y-80854035D01*
X144881389Y-80850400D01*
X144878467Y-80846459D01*
X144875944Y-80842250D01*
X144873846Y-80837814D01*
X144872193Y-80833194D01*
X144871001Y-80828435D01*
X144870281Y-80823581D01*
X144870040Y-80818680D01*
X144870040Y-80118680D01*
X144870281Y-80113779D01*
X144871001Y-80108925D01*
X144872193Y-80104166D01*
X144873846Y-80099546D01*
X144875944Y-80095110D01*
X144878467Y-80090901D01*
X144881389Y-80086960D01*
X144884685Y-80083325D01*
X144888320Y-80080029D01*
X144892261Y-80077107D01*
X144896470Y-80074584D01*
X144900906Y-80072486D01*
X144905526Y-80070833D01*
X144910285Y-80069641D01*
X144915139Y-80068921D01*
X144920040Y-80068680D01*
X145020040Y-80068680D01*
X145024941Y-80068921D01*
X145024941Y-80068921D01*
G37*
D18*
X144970040Y-80468680D03*
D13*
G36*
X144624941Y-80068921D02*
G01*
X144629795Y-80069641D01*
X144634554Y-80070833D01*
X144639174Y-80072486D01*
X144643610Y-80074584D01*
X144647819Y-80077107D01*
X144651760Y-80080029D01*
X144655395Y-80083325D01*
X144658691Y-80086960D01*
X144661613Y-80090901D01*
X144664136Y-80095110D01*
X144666234Y-80099546D01*
X144667887Y-80104166D01*
X144669079Y-80108925D01*
X144669799Y-80113779D01*
X144670040Y-80118680D01*
X144670040Y-80818680D01*
X144669799Y-80823581D01*
X144669079Y-80828435D01*
X144667887Y-80833194D01*
X144666234Y-80837814D01*
X144664136Y-80842250D01*
X144661613Y-80846459D01*
X144658691Y-80850400D01*
X144655395Y-80854035D01*
X144651760Y-80857331D01*
X144647819Y-80860253D01*
X144643610Y-80862776D01*
X144639174Y-80864874D01*
X144634554Y-80866527D01*
X144629795Y-80867719D01*
X144624941Y-80868439D01*
X144620040Y-80868680D01*
X144520040Y-80868680D01*
X144515139Y-80868439D01*
X144510285Y-80867719D01*
X144505526Y-80866527D01*
X144500906Y-80864874D01*
X144496470Y-80862776D01*
X144492261Y-80860253D01*
X144488320Y-80857331D01*
X144484685Y-80854035D01*
X144481389Y-80850400D01*
X144478467Y-80846459D01*
X144475944Y-80842250D01*
X144473846Y-80837814D01*
X144472193Y-80833194D01*
X144471001Y-80828435D01*
X144470281Y-80823581D01*
X144470040Y-80818680D01*
X144470040Y-80118680D01*
X144470281Y-80113779D01*
X144471001Y-80108925D01*
X144472193Y-80104166D01*
X144473846Y-80099546D01*
X144475944Y-80095110D01*
X144478467Y-80090901D01*
X144481389Y-80086960D01*
X144484685Y-80083325D01*
X144488320Y-80080029D01*
X144492261Y-80077107D01*
X144496470Y-80074584D01*
X144500906Y-80072486D01*
X144505526Y-80070833D01*
X144510285Y-80069641D01*
X144515139Y-80068921D01*
X144520040Y-80068680D01*
X144620040Y-80068680D01*
X144624941Y-80068921D01*
X144624941Y-80068921D01*
G37*
D18*
X144570040Y-80468680D03*
D13*
G36*
X144224941Y-80068921D02*
G01*
X144229795Y-80069641D01*
X144234554Y-80070833D01*
X144239174Y-80072486D01*
X144243610Y-80074584D01*
X144247819Y-80077107D01*
X144251760Y-80080029D01*
X144255395Y-80083325D01*
X144258691Y-80086960D01*
X144261613Y-80090901D01*
X144264136Y-80095110D01*
X144266234Y-80099546D01*
X144267887Y-80104166D01*
X144269079Y-80108925D01*
X144269799Y-80113779D01*
X144270040Y-80118680D01*
X144270040Y-80818680D01*
X144269799Y-80823581D01*
X144269079Y-80828435D01*
X144267887Y-80833194D01*
X144266234Y-80837814D01*
X144264136Y-80842250D01*
X144261613Y-80846459D01*
X144258691Y-80850400D01*
X144255395Y-80854035D01*
X144251760Y-80857331D01*
X144247819Y-80860253D01*
X144243610Y-80862776D01*
X144239174Y-80864874D01*
X144234554Y-80866527D01*
X144229795Y-80867719D01*
X144224941Y-80868439D01*
X144220040Y-80868680D01*
X144120040Y-80868680D01*
X144115139Y-80868439D01*
X144110285Y-80867719D01*
X144105526Y-80866527D01*
X144100906Y-80864874D01*
X144096470Y-80862776D01*
X144092261Y-80860253D01*
X144088320Y-80857331D01*
X144084685Y-80854035D01*
X144081389Y-80850400D01*
X144078467Y-80846459D01*
X144075944Y-80842250D01*
X144073846Y-80837814D01*
X144072193Y-80833194D01*
X144071001Y-80828435D01*
X144070281Y-80823581D01*
X144070040Y-80818680D01*
X144070040Y-80118680D01*
X144070281Y-80113779D01*
X144071001Y-80108925D01*
X144072193Y-80104166D01*
X144073846Y-80099546D01*
X144075944Y-80095110D01*
X144078467Y-80090901D01*
X144081389Y-80086960D01*
X144084685Y-80083325D01*
X144088320Y-80080029D01*
X144092261Y-80077107D01*
X144096470Y-80074584D01*
X144100906Y-80072486D01*
X144105526Y-80070833D01*
X144110285Y-80069641D01*
X144115139Y-80068921D01*
X144120040Y-80068680D01*
X144220040Y-80068680D01*
X144224941Y-80068921D01*
X144224941Y-80068921D01*
G37*
D18*
X144170040Y-80468680D03*
D13*
G36*
X143774941Y-81118921D02*
G01*
X143779795Y-81119641D01*
X143784554Y-81120833D01*
X143789174Y-81122486D01*
X143793610Y-81124584D01*
X143797819Y-81127107D01*
X143801760Y-81130029D01*
X143805395Y-81133325D01*
X143808691Y-81136960D01*
X143811613Y-81140901D01*
X143814136Y-81145110D01*
X143816234Y-81149546D01*
X143817887Y-81154166D01*
X143819079Y-81158925D01*
X143819799Y-81163779D01*
X143820040Y-81168680D01*
X143820040Y-81268680D01*
X143819799Y-81273581D01*
X143819079Y-81278435D01*
X143817887Y-81283194D01*
X143816234Y-81287814D01*
X143814136Y-81292250D01*
X143811613Y-81296459D01*
X143808691Y-81300400D01*
X143805395Y-81304035D01*
X143801760Y-81307331D01*
X143797819Y-81310253D01*
X143793610Y-81312776D01*
X143789174Y-81314874D01*
X143784554Y-81316527D01*
X143779795Y-81317719D01*
X143774941Y-81318439D01*
X143770040Y-81318680D01*
X143070040Y-81318680D01*
X143065139Y-81318439D01*
X143060285Y-81317719D01*
X143055526Y-81316527D01*
X143050906Y-81314874D01*
X143046470Y-81312776D01*
X143042261Y-81310253D01*
X143038320Y-81307331D01*
X143034685Y-81304035D01*
X143031389Y-81300400D01*
X143028467Y-81296459D01*
X143025944Y-81292250D01*
X143023846Y-81287814D01*
X143022193Y-81283194D01*
X143021001Y-81278435D01*
X143020281Y-81273581D01*
X143020040Y-81268680D01*
X143020040Y-81168680D01*
X143020281Y-81163779D01*
X143021001Y-81158925D01*
X143022193Y-81154166D01*
X143023846Y-81149546D01*
X143025944Y-81145110D01*
X143028467Y-81140901D01*
X143031389Y-81136960D01*
X143034685Y-81133325D01*
X143038320Y-81130029D01*
X143042261Y-81127107D01*
X143046470Y-81124584D01*
X143050906Y-81122486D01*
X143055526Y-81120833D01*
X143060285Y-81119641D01*
X143065139Y-81118921D01*
X143070040Y-81118680D01*
X143770040Y-81118680D01*
X143774941Y-81118921D01*
X143774941Y-81118921D01*
G37*
D18*
X143420040Y-81218680D03*
D13*
G36*
X143774941Y-81518921D02*
G01*
X143779795Y-81519641D01*
X143784554Y-81520833D01*
X143789174Y-81522486D01*
X143793610Y-81524584D01*
X143797819Y-81527107D01*
X143801760Y-81530029D01*
X143805395Y-81533325D01*
X143808691Y-81536960D01*
X143811613Y-81540901D01*
X143814136Y-81545110D01*
X143816234Y-81549546D01*
X143817887Y-81554166D01*
X143819079Y-81558925D01*
X143819799Y-81563779D01*
X143820040Y-81568680D01*
X143820040Y-81668680D01*
X143819799Y-81673581D01*
X143819079Y-81678435D01*
X143817887Y-81683194D01*
X143816234Y-81687814D01*
X143814136Y-81692250D01*
X143811613Y-81696459D01*
X143808691Y-81700400D01*
X143805395Y-81704035D01*
X143801760Y-81707331D01*
X143797819Y-81710253D01*
X143793610Y-81712776D01*
X143789174Y-81714874D01*
X143784554Y-81716527D01*
X143779795Y-81717719D01*
X143774941Y-81718439D01*
X143770040Y-81718680D01*
X143070040Y-81718680D01*
X143065139Y-81718439D01*
X143060285Y-81717719D01*
X143055526Y-81716527D01*
X143050906Y-81714874D01*
X143046470Y-81712776D01*
X143042261Y-81710253D01*
X143038320Y-81707331D01*
X143034685Y-81704035D01*
X143031389Y-81700400D01*
X143028467Y-81696459D01*
X143025944Y-81692250D01*
X143023846Y-81687814D01*
X143022193Y-81683194D01*
X143021001Y-81678435D01*
X143020281Y-81673581D01*
X143020040Y-81668680D01*
X143020040Y-81568680D01*
X143020281Y-81563779D01*
X143021001Y-81558925D01*
X143022193Y-81554166D01*
X143023846Y-81549546D01*
X143025944Y-81545110D01*
X143028467Y-81540901D01*
X143031389Y-81536960D01*
X143034685Y-81533325D01*
X143038320Y-81530029D01*
X143042261Y-81527107D01*
X143046470Y-81524584D01*
X143050906Y-81522486D01*
X143055526Y-81520833D01*
X143060285Y-81519641D01*
X143065139Y-81518921D01*
X143070040Y-81518680D01*
X143770040Y-81518680D01*
X143774941Y-81518921D01*
X143774941Y-81518921D01*
G37*
D18*
X143420040Y-81618680D03*
D13*
G36*
X143774941Y-81918921D02*
G01*
X143779795Y-81919641D01*
X143784554Y-81920833D01*
X143789174Y-81922486D01*
X143793610Y-81924584D01*
X143797819Y-81927107D01*
X143801760Y-81930029D01*
X143805395Y-81933325D01*
X143808691Y-81936960D01*
X143811613Y-81940901D01*
X143814136Y-81945110D01*
X143816234Y-81949546D01*
X143817887Y-81954166D01*
X143819079Y-81958925D01*
X143819799Y-81963779D01*
X143820040Y-81968680D01*
X143820040Y-82068680D01*
X143819799Y-82073581D01*
X143819079Y-82078435D01*
X143817887Y-82083194D01*
X143816234Y-82087814D01*
X143814136Y-82092250D01*
X143811613Y-82096459D01*
X143808691Y-82100400D01*
X143805395Y-82104035D01*
X143801760Y-82107331D01*
X143797819Y-82110253D01*
X143793610Y-82112776D01*
X143789174Y-82114874D01*
X143784554Y-82116527D01*
X143779795Y-82117719D01*
X143774941Y-82118439D01*
X143770040Y-82118680D01*
X143070040Y-82118680D01*
X143065139Y-82118439D01*
X143060285Y-82117719D01*
X143055526Y-82116527D01*
X143050906Y-82114874D01*
X143046470Y-82112776D01*
X143042261Y-82110253D01*
X143038320Y-82107331D01*
X143034685Y-82104035D01*
X143031389Y-82100400D01*
X143028467Y-82096459D01*
X143025944Y-82092250D01*
X143023846Y-82087814D01*
X143022193Y-82083194D01*
X143021001Y-82078435D01*
X143020281Y-82073581D01*
X143020040Y-82068680D01*
X143020040Y-81968680D01*
X143020281Y-81963779D01*
X143021001Y-81958925D01*
X143022193Y-81954166D01*
X143023846Y-81949546D01*
X143025944Y-81945110D01*
X143028467Y-81940901D01*
X143031389Y-81936960D01*
X143034685Y-81933325D01*
X143038320Y-81930029D01*
X143042261Y-81927107D01*
X143046470Y-81924584D01*
X143050906Y-81922486D01*
X143055526Y-81920833D01*
X143060285Y-81919641D01*
X143065139Y-81918921D01*
X143070040Y-81918680D01*
X143770040Y-81918680D01*
X143774941Y-81918921D01*
X143774941Y-81918921D01*
G37*
D18*
X143420040Y-82018680D03*
D13*
G36*
X143774941Y-82318921D02*
G01*
X143779795Y-82319641D01*
X143784554Y-82320833D01*
X143789174Y-82322486D01*
X143793610Y-82324584D01*
X143797819Y-82327107D01*
X143801760Y-82330029D01*
X143805395Y-82333325D01*
X143808691Y-82336960D01*
X143811613Y-82340901D01*
X143814136Y-82345110D01*
X143816234Y-82349546D01*
X143817887Y-82354166D01*
X143819079Y-82358925D01*
X143819799Y-82363779D01*
X143820040Y-82368680D01*
X143820040Y-82468680D01*
X143819799Y-82473581D01*
X143819079Y-82478435D01*
X143817887Y-82483194D01*
X143816234Y-82487814D01*
X143814136Y-82492250D01*
X143811613Y-82496459D01*
X143808691Y-82500400D01*
X143805395Y-82504035D01*
X143801760Y-82507331D01*
X143797819Y-82510253D01*
X143793610Y-82512776D01*
X143789174Y-82514874D01*
X143784554Y-82516527D01*
X143779795Y-82517719D01*
X143774941Y-82518439D01*
X143770040Y-82518680D01*
X143070040Y-82518680D01*
X143065139Y-82518439D01*
X143060285Y-82517719D01*
X143055526Y-82516527D01*
X143050906Y-82514874D01*
X143046470Y-82512776D01*
X143042261Y-82510253D01*
X143038320Y-82507331D01*
X143034685Y-82504035D01*
X143031389Y-82500400D01*
X143028467Y-82496459D01*
X143025944Y-82492250D01*
X143023846Y-82487814D01*
X143022193Y-82483194D01*
X143021001Y-82478435D01*
X143020281Y-82473581D01*
X143020040Y-82468680D01*
X143020040Y-82368680D01*
X143020281Y-82363779D01*
X143021001Y-82358925D01*
X143022193Y-82354166D01*
X143023846Y-82349546D01*
X143025944Y-82345110D01*
X143028467Y-82340901D01*
X143031389Y-82336960D01*
X143034685Y-82333325D01*
X143038320Y-82330029D01*
X143042261Y-82327107D01*
X143046470Y-82324584D01*
X143050906Y-82322486D01*
X143055526Y-82320833D01*
X143060285Y-82319641D01*
X143065139Y-82318921D01*
X143070040Y-82318680D01*
X143770040Y-82318680D01*
X143774941Y-82318921D01*
X143774941Y-82318921D01*
G37*
D18*
X143420040Y-82418680D03*
D13*
G36*
X143774941Y-82718921D02*
G01*
X143779795Y-82719641D01*
X143784554Y-82720833D01*
X143789174Y-82722486D01*
X143793610Y-82724584D01*
X143797819Y-82727107D01*
X143801760Y-82730029D01*
X143805395Y-82733325D01*
X143808691Y-82736960D01*
X143811613Y-82740901D01*
X143814136Y-82745110D01*
X143816234Y-82749546D01*
X143817887Y-82754166D01*
X143819079Y-82758925D01*
X143819799Y-82763779D01*
X143820040Y-82768680D01*
X143820040Y-82868680D01*
X143819799Y-82873581D01*
X143819079Y-82878435D01*
X143817887Y-82883194D01*
X143816234Y-82887814D01*
X143814136Y-82892250D01*
X143811613Y-82896459D01*
X143808691Y-82900400D01*
X143805395Y-82904035D01*
X143801760Y-82907331D01*
X143797819Y-82910253D01*
X143793610Y-82912776D01*
X143789174Y-82914874D01*
X143784554Y-82916527D01*
X143779795Y-82917719D01*
X143774941Y-82918439D01*
X143770040Y-82918680D01*
X143070040Y-82918680D01*
X143065139Y-82918439D01*
X143060285Y-82917719D01*
X143055526Y-82916527D01*
X143050906Y-82914874D01*
X143046470Y-82912776D01*
X143042261Y-82910253D01*
X143038320Y-82907331D01*
X143034685Y-82904035D01*
X143031389Y-82900400D01*
X143028467Y-82896459D01*
X143025944Y-82892250D01*
X143023846Y-82887814D01*
X143022193Y-82883194D01*
X143021001Y-82878435D01*
X143020281Y-82873581D01*
X143020040Y-82868680D01*
X143020040Y-82768680D01*
X143020281Y-82763779D01*
X143021001Y-82758925D01*
X143022193Y-82754166D01*
X143023846Y-82749546D01*
X143025944Y-82745110D01*
X143028467Y-82740901D01*
X143031389Y-82736960D01*
X143034685Y-82733325D01*
X143038320Y-82730029D01*
X143042261Y-82727107D01*
X143046470Y-82724584D01*
X143050906Y-82722486D01*
X143055526Y-82720833D01*
X143060285Y-82719641D01*
X143065139Y-82718921D01*
X143070040Y-82718680D01*
X143770040Y-82718680D01*
X143774941Y-82718921D01*
X143774941Y-82718921D01*
G37*
D18*
X143420040Y-82818680D03*
D13*
G36*
X143774941Y-83118921D02*
G01*
X143779795Y-83119641D01*
X143784554Y-83120833D01*
X143789174Y-83122486D01*
X143793610Y-83124584D01*
X143797819Y-83127107D01*
X143801760Y-83130029D01*
X143805395Y-83133325D01*
X143808691Y-83136960D01*
X143811613Y-83140901D01*
X143814136Y-83145110D01*
X143816234Y-83149546D01*
X143817887Y-83154166D01*
X143819079Y-83158925D01*
X143819799Y-83163779D01*
X143820040Y-83168680D01*
X143820040Y-83268680D01*
X143819799Y-83273581D01*
X143819079Y-83278435D01*
X143817887Y-83283194D01*
X143816234Y-83287814D01*
X143814136Y-83292250D01*
X143811613Y-83296459D01*
X143808691Y-83300400D01*
X143805395Y-83304035D01*
X143801760Y-83307331D01*
X143797819Y-83310253D01*
X143793610Y-83312776D01*
X143789174Y-83314874D01*
X143784554Y-83316527D01*
X143779795Y-83317719D01*
X143774941Y-83318439D01*
X143770040Y-83318680D01*
X143070040Y-83318680D01*
X143065139Y-83318439D01*
X143060285Y-83317719D01*
X143055526Y-83316527D01*
X143050906Y-83314874D01*
X143046470Y-83312776D01*
X143042261Y-83310253D01*
X143038320Y-83307331D01*
X143034685Y-83304035D01*
X143031389Y-83300400D01*
X143028467Y-83296459D01*
X143025944Y-83292250D01*
X143023846Y-83287814D01*
X143022193Y-83283194D01*
X143021001Y-83278435D01*
X143020281Y-83273581D01*
X143020040Y-83268680D01*
X143020040Y-83168680D01*
X143020281Y-83163779D01*
X143021001Y-83158925D01*
X143022193Y-83154166D01*
X143023846Y-83149546D01*
X143025944Y-83145110D01*
X143028467Y-83140901D01*
X143031389Y-83136960D01*
X143034685Y-83133325D01*
X143038320Y-83130029D01*
X143042261Y-83127107D01*
X143046470Y-83124584D01*
X143050906Y-83122486D01*
X143055526Y-83120833D01*
X143060285Y-83119641D01*
X143065139Y-83118921D01*
X143070040Y-83118680D01*
X143770040Y-83118680D01*
X143774941Y-83118921D01*
X143774941Y-83118921D01*
G37*
D18*
X143420040Y-83218680D03*
D13*
G36*
X143774941Y-83518921D02*
G01*
X143779795Y-83519641D01*
X143784554Y-83520833D01*
X143789174Y-83522486D01*
X143793610Y-83524584D01*
X143797819Y-83527107D01*
X143801760Y-83530029D01*
X143805395Y-83533325D01*
X143808691Y-83536960D01*
X143811613Y-83540901D01*
X143814136Y-83545110D01*
X143816234Y-83549546D01*
X143817887Y-83554166D01*
X143819079Y-83558925D01*
X143819799Y-83563779D01*
X143820040Y-83568680D01*
X143820040Y-83668680D01*
X143819799Y-83673581D01*
X143819079Y-83678435D01*
X143817887Y-83683194D01*
X143816234Y-83687814D01*
X143814136Y-83692250D01*
X143811613Y-83696459D01*
X143808691Y-83700400D01*
X143805395Y-83704035D01*
X143801760Y-83707331D01*
X143797819Y-83710253D01*
X143793610Y-83712776D01*
X143789174Y-83714874D01*
X143784554Y-83716527D01*
X143779795Y-83717719D01*
X143774941Y-83718439D01*
X143770040Y-83718680D01*
X143070040Y-83718680D01*
X143065139Y-83718439D01*
X143060285Y-83717719D01*
X143055526Y-83716527D01*
X143050906Y-83714874D01*
X143046470Y-83712776D01*
X143042261Y-83710253D01*
X143038320Y-83707331D01*
X143034685Y-83704035D01*
X143031389Y-83700400D01*
X143028467Y-83696459D01*
X143025944Y-83692250D01*
X143023846Y-83687814D01*
X143022193Y-83683194D01*
X143021001Y-83678435D01*
X143020281Y-83673581D01*
X143020040Y-83668680D01*
X143020040Y-83568680D01*
X143020281Y-83563779D01*
X143021001Y-83558925D01*
X143022193Y-83554166D01*
X143023846Y-83549546D01*
X143025944Y-83545110D01*
X143028467Y-83540901D01*
X143031389Y-83536960D01*
X143034685Y-83533325D01*
X143038320Y-83530029D01*
X143042261Y-83527107D01*
X143046470Y-83524584D01*
X143050906Y-83522486D01*
X143055526Y-83520833D01*
X143060285Y-83519641D01*
X143065139Y-83518921D01*
X143070040Y-83518680D01*
X143770040Y-83518680D01*
X143774941Y-83518921D01*
X143774941Y-83518921D01*
G37*
D18*
X143420040Y-83618680D03*
D13*
G36*
X143774941Y-83918921D02*
G01*
X143779795Y-83919641D01*
X143784554Y-83920833D01*
X143789174Y-83922486D01*
X143793610Y-83924584D01*
X143797819Y-83927107D01*
X143801760Y-83930029D01*
X143805395Y-83933325D01*
X143808691Y-83936960D01*
X143811613Y-83940901D01*
X143814136Y-83945110D01*
X143816234Y-83949546D01*
X143817887Y-83954166D01*
X143819079Y-83958925D01*
X143819799Y-83963779D01*
X143820040Y-83968680D01*
X143820040Y-84068680D01*
X143819799Y-84073581D01*
X143819079Y-84078435D01*
X143817887Y-84083194D01*
X143816234Y-84087814D01*
X143814136Y-84092250D01*
X143811613Y-84096459D01*
X143808691Y-84100400D01*
X143805395Y-84104035D01*
X143801760Y-84107331D01*
X143797819Y-84110253D01*
X143793610Y-84112776D01*
X143789174Y-84114874D01*
X143784554Y-84116527D01*
X143779795Y-84117719D01*
X143774941Y-84118439D01*
X143770040Y-84118680D01*
X143070040Y-84118680D01*
X143065139Y-84118439D01*
X143060285Y-84117719D01*
X143055526Y-84116527D01*
X143050906Y-84114874D01*
X143046470Y-84112776D01*
X143042261Y-84110253D01*
X143038320Y-84107331D01*
X143034685Y-84104035D01*
X143031389Y-84100400D01*
X143028467Y-84096459D01*
X143025944Y-84092250D01*
X143023846Y-84087814D01*
X143022193Y-84083194D01*
X143021001Y-84078435D01*
X143020281Y-84073581D01*
X143020040Y-84068680D01*
X143020040Y-83968680D01*
X143020281Y-83963779D01*
X143021001Y-83958925D01*
X143022193Y-83954166D01*
X143023846Y-83949546D01*
X143025944Y-83945110D01*
X143028467Y-83940901D01*
X143031389Y-83936960D01*
X143034685Y-83933325D01*
X143038320Y-83930029D01*
X143042261Y-83927107D01*
X143046470Y-83924584D01*
X143050906Y-83922486D01*
X143055526Y-83920833D01*
X143060285Y-83919641D01*
X143065139Y-83918921D01*
X143070040Y-83918680D01*
X143770040Y-83918680D01*
X143774941Y-83918921D01*
X143774941Y-83918921D01*
G37*
D18*
X143420040Y-84018680D03*
D13*
G36*
X143774941Y-84318921D02*
G01*
X143779795Y-84319641D01*
X143784554Y-84320833D01*
X143789174Y-84322486D01*
X143793610Y-84324584D01*
X143797819Y-84327107D01*
X143801760Y-84330029D01*
X143805395Y-84333325D01*
X143808691Y-84336960D01*
X143811613Y-84340901D01*
X143814136Y-84345110D01*
X143816234Y-84349546D01*
X143817887Y-84354166D01*
X143819079Y-84358925D01*
X143819799Y-84363779D01*
X143820040Y-84368680D01*
X143820040Y-84468680D01*
X143819799Y-84473581D01*
X143819079Y-84478435D01*
X143817887Y-84483194D01*
X143816234Y-84487814D01*
X143814136Y-84492250D01*
X143811613Y-84496459D01*
X143808691Y-84500400D01*
X143805395Y-84504035D01*
X143801760Y-84507331D01*
X143797819Y-84510253D01*
X143793610Y-84512776D01*
X143789174Y-84514874D01*
X143784554Y-84516527D01*
X143779795Y-84517719D01*
X143774941Y-84518439D01*
X143770040Y-84518680D01*
X143070040Y-84518680D01*
X143065139Y-84518439D01*
X143060285Y-84517719D01*
X143055526Y-84516527D01*
X143050906Y-84514874D01*
X143046470Y-84512776D01*
X143042261Y-84510253D01*
X143038320Y-84507331D01*
X143034685Y-84504035D01*
X143031389Y-84500400D01*
X143028467Y-84496459D01*
X143025944Y-84492250D01*
X143023846Y-84487814D01*
X143022193Y-84483194D01*
X143021001Y-84478435D01*
X143020281Y-84473581D01*
X143020040Y-84468680D01*
X143020040Y-84368680D01*
X143020281Y-84363779D01*
X143021001Y-84358925D01*
X143022193Y-84354166D01*
X143023846Y-84349546D01*
X143025944Y-84345110D01*
X143028467Y-84340901D01*
X143031389Y-84336960D01*
X143034685Y-84333325D01*
X143038320Y-84330029D01*
X143042261Y-84327107D01*
X143046470Y-84324584D01*
X143050906Y-84322486D01*
X143055526Y-84320833D01*
X143060285Y-84319641D01*
X143065139Y-84318921D01*
X143070040Y-84318680D01*
X143770040Y-84318680D01*
X143774941Y-84318921D01*
X143774941Y-84318921D01*
G37*
D18*
X143420040Y-84418680D03*
D13*
G36*
X143774941Y-84718921D02*
G01*
X143779795Y-84719641D01*
X143784554Y-84720833D01*
X143789174Y-84722486D01*
X143793610Y-84724584D01*
X143797819Y-84727107D01*
X143801760Y-84730029D01*
X143805395Y-84733325D01*
X143808691Y-84736960D01*
X143811613Y-84740901D01*
X143814136Y-84745110D01*
X143816234Y-84749546D01*
X143817887Y-84754166D01*
X143819079Y-84758925D01*
X143819799Y-84763779D01*
X143820040Y-84768680D01*
X143820040Y-84868680D01*
X143819799Y-84873581D01*
X143819079Y-84878435D01*
X143817887Y-84883194D01*
X143816234Y-84887814D01*
X143814136Y-84892250D01*
X143811613Y-84896459D01*
X143808691Y-84900400D01*
X143805395Y-84904035D01*
X143801760Y-84907331D01*
X143797819Y-84910253D01*
X143793610Y-84912776D01*
X143789174Y-84914874D01*
X143784554Y-84916527D01*
X143779795Y-84917719D01*
X143774941Y-84918439D01*
X143770040Y-84918680D01*
X143070040Y-84918680D01*
X143065139Y-84918439D01*
X143060285Y-84917719D01*
X143055526Y-84916527D01*
X143050906Y-84914874D01*
X143046470Y-84912776D01*
X143042261Y-84910253D01*
X143038320Y-84907331D01*
X143034685Y-84904035D01*
X143031389Y-84900400D01*
X143028467Y-84896459D01*
X143025944Y-84892250D01*
X143023846Y-84887814D01*
X143022193Y-84883194D01*
X143021001Y-84878435D01*
X143020281Y-84873581D01*
X143020040Y-84868680D01*
X143020040Y-84768680D01*
X143020281Y-84763779D01*
X143021001Y-84758925D01*
X143022193Y-84754166D01*
X143023846Y-84749546D01*
X143025944Y-84745110D01*
X143028467Y-84740901D01*
X143031389Y-84736960D01*
X143034685Y-84733325D01*
X143038320Y-84730029D01*
X143042261Y-84727107D01*
X143046470Y-84724584D01*
X143050906Y-84722486D01*
X143055526Y-84720833D01*
X143060285Y-84719641D01*
X143065139Y-84718921D01*
X143070040Y-84718680D01*
X143770040Y-84718680D01*
X143774941Y-84718921D01*
X143774941Y-84718921D01*
G37*
D18*
X143420040Y-84818680D03*
D13*
G36*
X143774941Y-85118921D02*
G01*
X143779795Y-85119641D01*
X143784554Y-85120833D01*
X143789174Y-85122486D01*
X143793610Y-85124584D01*
X143797819Y-85127107D01*
X143801760Y-85130029D01*
X143805395Y-85133325D01*
X143808691Y-85136960D01*
X143811613Y-85140901D01*
X143814136Y-85145110D01*
X143816234Y-85149546D01*
X143817887Y-85154166D01*
X143819079Y-85158925D01*
X143819799Y-85163779D01*
X143820040Y-85168680D01*
X143820040Y-85268680D01*
X143819799Y-85273581D01*
X143819079Y-85278435D01*
X143817887Y-85283194D01*
X143816234Y-85287814D01*
X143814136Y-85292250D01*
X143811613Y-85296459D01*
X143808691Y-85300400D01*
X143805395Y-85304035D01*
X143801760Y-85307331D01*
X143797819Y-85310253D01*
X143793610Y-85312776D01*
X143789174Y-85314874D01*
X143784554Y-85316527D01*
X143779795Y-85317719D01*
X143774941Y-85318439D01*
X143770040Y-85318680D01*
X143070040Y-85318680D01*
X143065139Y-85318439D01*
X143060285Y-85317719D01*
X143055526Y-85316527D01*
X143050906Y-85314874D01*
X143046470Y-85312776D01*
X143042261Y-85310253D01*
X143038320Y-85307331D01*
X143034685Y-85304035D01*
X143031389Y-85300400D01*
X143028467Y-85296459D01*
X143025944Y-85292250D01*
X143023846Y-85287814D01*
X143022193Y-85283194D01*
X143021001Y-85278435D01*
X143020281Y-85273581D01*
X143020040Y-85268680D01*
X143020040Y-85168680D01*
X143020281Y-85163779D01*
X143021001Y-85158925D01*
X143022193Y-85154166D01*
X143023846Y-85149546D01*
X143025944Y-85145110D01*
X143028467Y-85140901D01*
X143031389Y-85136960D01*
X143034685Y-85133325D01*
X143038320Y-85130029D01*
X143042261Y-85127107D01*
X143046470Y-85124584D01*
X143050906Y-85122486D01*
X143055526Y-85120833D01*
X143060285Y-85119641D01*
X143065139Y-85118921D01*
X143070040Y-85118680D01*
X143770040Y-85118680D01*
X143774941Y-85118921D01*
X143774941Y-85118921D01*
G37*
D18*
X143420040Y-85218680D03*
D13*
G36*
X143774941Y-85518921D02*
G01*
X143779795Y-85519641D01*
X143784554Y-85520833D01*
X143789174Y-85522486D01*
X143793610Y-85524584D01*
X143797819Y-85527107D01*
X143801760Y-85530029D01*
X143805395Y-85533325D01*
X143808691Y-85536960D01*
X143811613Y-85540901D01*
X143814136Y-85545110D01*
X143816234Y-85549546D01*
X143817887Y-85554166D01*
X143819079Y-85558925D01*
X143819799Y-85563779D01*
X143820040Y-85568680D01*
X143820040Y-85668680D01*
X143819799Y-85673581D01*
X143819079Y-85678435D01*
X143817887Y-85683194D01*
X143816234Y-85687814D01*
X143814136Y-85692250D01*
X143811613Y-85696459D01*
X143808691Y-85700400D01*
X143805395Y-85704035D01*
X143801760Y-85707331D01*
X143797819Y-85710253D01*
X143793610Y-85712776D01*
X143789174Y-85714874D01*
X143784554Y-85716527D01*
X143779795Y-85717719D01*
X143774941Y-85718439D01*
X143770040Y-85718680D01*
X143070040Y-85718680D01*
X143065139Y-85718439D01*
X143060285Y-85717719D01*
X143055526Y-85716527D01*
X143050906Y-85714874D01*
X143046470Y-85712776D01*
X143042261Y-85710253D01*
X143038320Y-85707331D01*
X143034685Y-85704035D01*
X143031389Y-85700400D01*
X143028467Y-85696459D01*
X143025944Y-85692250D01*
X143023846Y-85687814D01*
X143022193Y-85683194D01*
X143021001Y-85678435D01*
X143020281Y-85673581D01*
X143020040Y-85668680D01*
X143020040Y-85568680D01*
X143020281Y-85563779D01*
X143021001Y-85558925D01*
X143022193Y-85554166D01*
X143023846Y-85549546D01*
X143025944Y-85545110D01*
X143028467Y-85540901D01*
X143031389Y-85536960D01*
X143034685Y-85533325D01*
X143038320Y-85530029D01*
X143042261Y-85527107D01*
X143046470Y-85524584D01*
X143050906Y-85522486D01*
X143055526Y-85520833D01*
X143060285Y-85519641D01*
X143065139Y-85518921D01*
X143070040Y-85518680D01*
X143770040Y-85518680D01*
X143774941Y-85518921D01*
X143774941Y-85518921D01*
G37*
D18*
X143420040Y-85618680D03*
%TD*%
D19*
%TO.C,Y2*%
X142921760Y-88066880D03*
X144321760Y-88066880D03*
%TD*%
M02*
