%TF.GenerationSoftware,KiCad,Pcbnew,(5.1.2)-2*%
%TF.CreationDate,2021-03-02T00:01:01+01:00*%
%TF.ProjectId,NRF52_Basic,4e524635-325f-4426-9173-69632e6b6963,V1*%
%TF.SameCoordinates,Original*%
%TF.FileFunction,Soldermask,Top*%
%TF.FilePolarity,Negative*%
%FSLAX46Y46*%
G04 Gerber Fmt 4.6, Leading zero omitted, Abs format (unit mm)*
G04 Created by KiCad (PCBNEW (5.1.2)-2) date 2021-03-02 00:01:01*
%MOMM*%
%LPD*%
G04 APERTURE LIST*
%ADD10C,0.100000*%
G04 APERTURE END LIST*
D10*
G36*
X152490122Y-89631118D02*
G01*
X152556307Y-89637637D01*
X152726146Y-89689157D01*
X152882671Y-89772822D01*
X152918409Y-89802152D01*
X153019866Y-89885414D01*
X153103128Y-89986871D01*
X153132458Y-90022609D01*
X153216123Y-90179134D01*
X153267643Y-90348973D01*
X153285039Y-90525600D01*
X153267643Y-90702227D01*
X153216123Y-90872066D01*
X153132458Y-91028591D01*
X153103128Y-91064329D01*
X153019866Y-91165786D01*
X152918409Y-91249048D01*
X152882671Y-91278378D01*
X152726146Y-91362043D01*
X152556307Y-91413563D01*
X152490123Y-91420081D01*
X152423940Y-91426600D01*
X152335420Y-91426600D01*
X152269238Y-91420082D01*
X152203053Y-91413563D01*
X152033214Y-91362043D01*
X151876689Y-91278378D01*
X151840951Y-91249048D01*
X151739494Y-91165786D01*
X151656232Y-91064329D01*
X151626902Y-91028591D01*
X151543237Y-90872066D01*
X151491717Y-90702227D01*
X151474321Y-90525600D01*
X151491717Y-90348973D01*
X151543237Y-90179134D01*
X151626902Y-90022609D01*
X151656232Y-89986871D01*
X151739494Y-89885414D01*
X151840951Y-89802152D01*
X151876689Y-89772822D01*
X152033214Y-89689157D01*
X152203053Y-89637637D01*
X152269238Y-89631118D01*
X152335420Y-89624600D01*
X152423940Y-89624600D01*
X152490122Y-89631118D01*
X152490122Y-89631118D01*
G37*
G36*
X138040680Y-91426600D02*
G01*
X136238680Y-91426600D01*
X136238680Y-89624600D01*
X138040680Y-89624600D01*
X138040680Y-91426600D01*
X138040680Y-91426600D01*
G37*
G36*
X143422231Y-88055105D02*
G01*
X143456209Y-88065413D01*
X143487530Y-88082154D01*
X143514979Y-88104681D01*
X143537506Y-88132130D01*
X143554247Y-88163451D01*
X143564555Y-88197429D01*
X143568640Y-88238910D01*
X143568640Y-88840130D01*
X143564555Y-88881611D01*
X143554247Y-88915589D01*
X143537506Y-88946910D01*
X143514979Y-88974359D01*
X143487530Y-88996886D01*
X143456209Y-89013627D01*
X143422231Y-89023935D01*
X143380750Y-89028020D01*
X142704530Y-89028020D01*
X142663049Y-89023935D01*
X142629071Y-89013627D01*
X142597750Y-88996886D01*
X142570301Y-88974359D01*
X142547774Y-88946910D01*
X142531033Y-88915589D01*
X142520725Y-88881611D01*
X142516640Y-88840130D01*
X142516640Y-88238910D01*
X142520725Y-88197429D01*
X142531033Y-88163451D01*
X142547774Y-88132130D01*
X142570301Y-88104681D01*
X142597750Y-88082154D01*
X142629071Y-88065413D01*
X142663049Y-88055105D01*
X142704530Y-88051020D01*
X143380750Y-88051020D01*
X143422231Y-88055105D01*
X143422231Y-88055105D01*
G37*
G36*
X137250123Y-87091119D02*
G01*
X137316307Y-87097637D01*
X137486146Y-87149157D01*
X137642671Y-87232822D01*
X137646738Y-87236160D01*
X137779866Y-87345414D01*
X137842624Y-87421886D01*
X137892458Y-87482609D01*
X137976123Y-87639134D01*
X138027643Y-87808973D01*
X138045039Y-87985600D01*
X138027643Y-88162227D01*
X137976123Y-88332066D01*
X137892458Y-88488591D01*
X137863128Y-88524329D01*
X137779866Y-88625786D01*
X137698734Y-88692368D01*
X137642671Y-88738378D01*
X137486146Y-88822043D01*
X137316307Y-88873563D01*
X137250122Y-88880082D01*
X137183940Y-88886600D01*
X137095420Y-88886600D01*
X137029238Y-88880082D01*
X136963053Y-88873563D01*
X136793214Y-88822043D01*
X136636689Y-88738378D01*
X136580626Y-88692368D01*
X136499494Y-88625786D01*
X136416232Y-88524329D01*
X136386902Y-88488591D01*
X136303237Y-88332066D01*
X136251717Y-88162227D01*
X136234321Y-87985600D01*
X136251717Y-87808973D01*
X136303237Y-87639134D01*
X136386902Y-87482609D01*
X136436736Y-87421886D01*
X136499494Y-87345414D01*
X136632622Y-87236160D01*
X136636689Y-87232822D01*
X136793214Y-87149157D01*
X136963053Y-87097637D01*
X137029237Y-87091119D01*
X137095420Y-87084600D01*
X137183940Y-87084600D01*
X137250123Y-87091119D01*
X137250123Y-87091119D01*
G37*
G36*
X152490123Y-87091119D02*
G01*
X152556307Y-87097637D01*
X152726146Y-87149157D01*
X152882671Y-87232822D01*
X152886738Y-87236160D01*
X153019866Y-87345414D01*
X153082624Y-87421886D01*
X153132458Y-87482609D01*
X153216123Y-87639134D01*
X153267643Y-87808973D01*
X153285039Y-87985600D01*
X153267643Y-88162227D01*
X153216123Y-88332066D01*
X153132458Y-88488591D01*
X153103128Y-88524329D01*
X153019866Y-88625786D01*
X152938734Y-88692368D01*
X152882671Y-88738378D01*
X152726146Y-88822043D01*
X152556307Y-88873563D01*
X152490122Y-88880082D01*
X152423940Y-88886600D01*
X152335420Y-88886600D01*
X152269238Y-88880082D01*
X152203053Y-88873563D01*
X152033214Y-88822043D01*
X151876689Y-88738378D01*
X151820626Y-88692368D01*
X151739494Y-88625786D01*
X151656232Y-88524329D01*
X151626902Y-88488591D01*
X151543237Y-88332066D01*
X151491717Y-88162227D01*
X151474321Y-87985600D01*
X151491717Y-87808973D01*
X151543237Y-87639134D01*
X151626902Y-87482609D01*
X151676736Y-87421886D01*
X151739494Y-87345414D01*
X151872622Y-87236160D01*
X151876689Y-87232822D01*
X152033214Y-87149157D01*
X152203053Y-87097637D01*
X152269237Y-87091119D01*
X152335420Y-87084600D01*
X152423940Y-87084600D01*
X152490123Y-87091119D01*
X152490123Y-87091119D01*
G37*
G36*
X144477738Y-88035876D02*
G01*
X144498357Y-88042131D01*
X144517353Y-88052284D01*
X144534008Y-88065952D01*
X144547676Y-88082607D01*
X144557829Y-88101603D01*
X144564084Y-88122222D01*
X144566800Y-88149800D01*
X144566800Y-88608520D01*
X144564084Y-88636098D01*
X144557829Y-88656717D01*
X144547676Y-88675713D01*
X144534008Y-88692368D01*
X144517353Y-88706036D01*
X144498357Y-88716189D01*
X144477738Y-88722444D01*
X144450160Y-88725160D01*
X143941440Y-88725160D01*
X143913862Y-88722444D01*
X143893243Y-88716189D01*
X143874247Y-88706036D01*
X143857592Y-88692368D01*
X143843924Y-88675713D01*
X143833771Y-88656717D01*
X143827516Y-88636098D01*
X143824800Y-88608520D01*
X143824800Y-88149800D01*
X143827516Y-88122222D01*
X143833771Y-88101603D01*
X143843924Y-88082607D01*
X143857592Y-88065952D01*
X143874247Y-88052284D01*
X143893243Y-88042131D01*
X143913862Y-88035876D01*
X143941440Y-88033160D01*
X144450160Y-88033160D01*
X144477738Y-88035876D01*
X144477738Y-88035876D01*
G37*
G36*
X144310456Y-80018523D02*
G01*
X144314596Y-80019779D01*
X144333756Y-80027715D01*
X144357790Y-80032495D01*
X144382294Y-80032495D01*
X144406327Y-80027714D01*
X144425485Y-80019779D01*
X144429624Y-80018523D01*
X144438183Y-80017680D01*
X144701897Y-80017680D01*
X144710456Y-80018523D01*
X144714596Y-80019779D01*
X144733756Y-80027715D01*
X144757790Y-80032495D01*
X144782294Y-80032495D01*
X144806327Y-80027714D01*
X144825485Y-80019779D01*
X144829624Y-80018523D01*
X144838183Y-80017680D01*
X145101897Y-80017680D01*
X145110456Y-80018523D01*
X145114596Y-80019779D01*
X145133756Y-80027715D01*
X145157790Y-80032495D01*
X145182294Y-80032495D01*
X145206327Y-80027714D01*
X145225485Y-80019779D01*
X145229624Y-80018523D01*
X145238183Y-80017680D01*
X145501897Y-80017680D01*
X145510456Y-80018523D01*
X145514596Y-80019779D01*
X145533756Y-80027715D01*
X145557790Y-80032495D01*
X145582294Y-80032495D01*
X145606327Y-80027714D01*
X145625485Y-80019779D01*
X145629624Y-80018523D01*
X145638183Y-80017680D01*
X145901897Y-80017680D01*
X145910456Y-80018523D01*
X145914596Y-80019779D01*
X145933756Y-80027715D01*
X145957790Y-80032495D01*
X145982294Y-80032495D01*
X146006327Y-80027714D01*
X146025485Y-80019779D01*
X146029624Y-80018523D01*
X146038183Y-80017680D01*
X146301897Y-80017680D01*
X146310456Y-80018523D01*
X146314596Y-80019779D01*
X146333756Y-80027715D01*
X146357790Y-80032495D01*
X146382294Y-80032495D01*
X146406327Y-80027714D01*
X146425485Y-80019779D01*
X146429624Y-80018523D01*
X146438183Y-80017680D01*
X146701897Y-80017680D01*
X146710456Y-80018523D01*
X146714596Y-80019779D01*
X146733756Y-80027715D01*
X146757790Y-80032495D01*
X146782294Y-80032495D01*
X146806327Y-80027714D01*
X146825485Y-80019779D01*
X146829624Y-80018523D01*
X146838183Y-80017680D01*
X147101897Y-80017680D01*
X147110456Y-80018523D01*
X147114596Y-80019779D01*
X147133756Y-80027715D01*
X147157790Y-80032495D01*
X147182294Y-80032495D01*
X147206327Y-80027714D01*
X147225485Y-80019779D01*
X147229624Y-80018523D01*
X147238183Y-80017680D01*
X147501897Y-80017680D01*
X147510456Y-80018523D01*
X147514596Y-80019779D01*
X147533756Y-80027715D01*
X147557790Y-80032495D01*
X147582294Y-80032495D01*
X147606327Y-80027714D01*
X147625485Y-80019779D01*
X147629624Y-80018523D01*
X147638183Y-80017680D01*
X147901897Y-80017680D01*
X147910456Y-80018523D01*
X147914596Y-80019779D01*
X147933756Y-80027715D01*
X147957790Y-80032495D01*
X147982294Y-80032495D01*
X148006327Y-80027714D01*
X148025485Y-80019779D01*
X148029624Y-80018523D01*
X148038183Y-80017680D01*
X148301897Y-80017680D01*
X148310456Y-80018523D01*
X148314596Y-80019779D01*
X148333756Y-80027715D01*
X148357790Y-80032495D01*
X148382294Y-80032495D01*
X148406327Y-80027714D01*
X148425485Y-80019779D01*
X148429624Y-80018523D01*
X148438183Y-80017680D01*
X148701897Y-80017680D01*
X148710456Y-80018523D01*
X148712785Y-80019230D01*
X148714927Y-80020375D01*
X148716805Y-80021915D01*
X148718345Y-80023793D01*
X148719490Y-80025935D01*
X148720197Y-80028264D01*
X148721040Y-80036823D01*
X148721040Y-80900537D01*
X148720197Y-80909096D01*
X148718662Y-80914156D01*
X148713882Y-80938189D01*
X148713882Y-80962693D01*
X148718663Y-80986727D01*
X148728040Y-81009365D01*
X148741654Y-81029740D01*
X148758981Y-81047067D01*
X148779355Y-81060680D01*
X148801994Y-81070058D01*
X148826027Y-81074838D01*
X148850531Y-81074838D01*
X148874564Y-81070058D01*
X148879624Y-81068523D01*
X148888183Y-81067680D01*
X149751897Y-81067680D01*
X149760456Y-81068523D01*
X149762785Y-81069230D01*
X149764927Y-81070375D01*
X149766805Y-81071915D01*
X149768345Y-81073793D01*
X149769490Y-81075935D01*
X149770197Y-81078264D01*
X149771040Y-81086823D01*
X149771040Y-81350537D01*
X149770197Y-81359096D01*
X149768941Y-81363236D01*
X149761005Y-81382396D01*
X149756225Y-81406430D01*
X149756225Y-81430934D01*
X149761006Y-81454967D01*
X149768941Y-81474125D01*
X149770197Y-81478264D01*
X149771040Y-81486823D01*
X149771040Y-81750537D01*
X149770197Y-81759096D01*
X149768941Y-81763236D01*
X149761005Y-81782396D01*
X149756225Y-81806430D01*
X149756225Y-81830934D01*
X149761006Y-81854967D01*
X149768941Y-81874125D01*
X149770197Y-81878264D01*
X149771040Y-81886823D01*
X149771040Y-82150537D01*
X149770197Y-82159096D01*
X149768941Y-82163236D01*
X149761005Y-82182396D01*
X149756225Y-82206430D01*
X149756225Y-82230934D01*
X149761006Y-82254967D01*
X149768941Y-82274125D01*
X149770197Y-82278264D01*
X149771040Y-82286823D01*
X149771040Y-82550537D01*
X149770197Y-82559096D01*
X149768941Y-82563236D01*
X149761005Y-82582396D01*
X149756225Y-82606430D01*
X149756225Y-82630934D01*
X149761006Y-82654967D01*
X149768941Y-82674125D01*
X149770197Y-82678264D01*
X149771040Y-82686823D01*
X149771040Y-82950537D01*
X149770197Y-82959096D01*
X149768941Y-82963236D01*
X149761005Y-82982396D01*
X149756225Y-83006430D01*
X149756225Y-83030934D01*
X149761006Y-83054967D01*
X149768941Y-83074125D01*
X149770197Y-83078264D01*
X149771040Y-83086823D01*
X149771040Y-83350537D01*
X149770197Y-83359096D01*
X149768941Y-83363236D01*
X149761005Y-83382396D01*
X149756225Y-83406430D01*
X149756225Y-83430934D01*
X149761006Y-83454967D01*
X149768941Y-83474125D01*
X149770197Y-83478264D01*
X149771040Y-83486823D01*
X149771040Y-83750537D01*
X149770197Y-83759096D01*
X149768941Y-83763236D01*
X149761005Y-83782396D01*
X149756225Y-83806430D01*
X149756225Y-83830934D01*
X149761006Y-83854967D01*
X149768941Y-83874125D01*
X149770197Y-83878264D01*
X149771040Y-83886823D01*
X149771040Y-84150537D01*
X149770197Y-84159096D01*
X149768941Y-84163236D01*
X149761005Y-84182396D01*
X149756225Y-84206430D01*
X149756225Y-84230934D01*
X149761006Y-84254967D01*
X149768941Y-84274125D01*
X149770197Y-84278264D01*
X149771040Y-84286823D01*
X149771040Y-84550537D01*
X149770197Y-84559096D01*
X149768941Y-84563236D01*
X149761005Y-84582396D01*
X149756225Y-84606430D01*
X149756225Y-84630934D01*
X149761006Y-84654967D01*
X149768941Y-84674125D01*
X149770197Y-84678264D01*
X149771040Y-84686823D01*
X149771040Y-84950537D01*
X149770197Y-84959096D01*
X149768941Y-84963236D01*
X149761005Y-84982396D01*
X149756225Y-85006430D01*
X149756225Y-85030934D01*
X149761006Y-85054967D01*
X149768941Y-85074125D01*
X149770197Y-85078264D01*
X149771040Y-85086823D01*
X149771040Y-85350537D01*
X149770197Y-85359096D01*
X149768941Y-85363236D01*
X149761005Y-85382396D01*
X149756225Y-85406430D01*
X149756225Y-85430934D01*
X149761006Y-85454967D01*
X149768941Y-85474125D01*
X149770197Y-85478264D01*
X149771040Y-85486823D01*
X149771040Y-85750537D01*
X149770197Y-85759096D01*
X149769490Y-85761425D01*
X149768345Y-85763567D01*
X149766805Y-85765445D01*
X149764927Y-85766985D01*
X149762785Y-85768130D01*
X149760456Y-85768837D01*
X149751897Y-85769680D01*
X149693309Y-85769680D01*
X149668923Y-85772082D01*
X149645474Y-85779195D01*
X149623863Y-85790746D01*
X149604921Y-85806291D01*
X149589376Y-85825233D01*
X149577825Y-85846844D01*
X149570712Y-85870293D01*
X149568310Y-85894679D01*
X149570712Y-85919065D01*
X149577825Y-85942514D01*
X149589376Y-85964125D01*
X149604921Y-85983067D01*
X149623863Y-85998612D01*
X149645474Y-86010163D01*
X149657024Y-86014296D01*
X149669797Y-86018171D01*
X149688793Y-86028324D01*
X149705448Y-86041992D01*
X149719116Y-86058647D01*
X149729269Y-86077643D01*
X149735524Y-86098262D01*
X149738240Y-86125840D01*
X149738240Y-86584560D01*
X149735524Y-86612138D01*
X149729269Y-86632757D01*
X149719116Y-86651753D01*
X149705448Y-86668408D01*
X149688793Y-86682076D01*
X149669797Y-86692229D01*
X149649178Y-86698484D01*
X149621600Y-86701200D01*
X149112880Y-86701200D01*
X149085302Y-86698484D01*
X149064683Y-86692229D01*
X149045687Y-86682076D01*
X149029032Y-86668408D01*
X149015364Y-86651753D01*
X149005211Y-86632757D01*
X148998956Y-86612138D01*
X148996240Y-86584560D01*
X148996240Y-86125840D01*
X148998956Y-86098262D01*
X149005211Y-86077643D01*
X149015364Y-86058647D01*
X149029032Y-86041992D01*
X149045687Y-86028324D01*
X149064683Y-86018171D01*
X149077456Y-86014296D01*
X149100095Y-86004918D01*
X149120469Y-85991305D01*
X149137796Y-85973978D01*
X149151410Y-85953603D01*
X149160787Y-85930965D01*
X149165568Y-85906931D01*
X149165568Y-85882427D01*
X149160788Y-85858394D01*
X149151410Y-85835755D01*
X149137797Y-85815381D01*
X149120470Y-85798054D01*
X149100095Y-85784440D01*
X149077457Y-85775063D01*
X149053423Y-85770282D01*
X149041171Y-85769680D01*
X148888183Y-85769680D01*
X148879624Y-85768837D01*
X148874564Y-85767302D01*
X148850531Y-85762522D01*
X148826027Y-85762522D01*
X148801993Y-85767303D01*
X148779355Y-85776680D01*
X148758980Y-85790294D01*
X148741653Y-85807621D01*
X148728040Y-85827995D01*
X148718662Y-85850634D01*
X148713882Y-85874667D01*
X148713882Y-85899171D01*
X148718662Y-85923204D01*
X148720197Y-85928264D01*
X148721040Y-85936823D01*
X148721040Y-86800537D01*
X148720197Y-86809096D01*
X148719490Y-86811425D01*
X148718345Y-86813567D01*
X148716805Y-86815445D01*
X148714927Y-86816985D01*
X148712785Y-86818130D01*
X148710456Y-86818837D01*
X148701897Y-86819680D01*
X148438183Y-86819680D01*
X148429624Y-86818837D01*
X148425484Y-86817581D01*
X148406324Y-86809645D01*
X148382290Y-86804865D01*
X148357786Y-86804865D01*
X148333753Y-86809646D01*
X148314595Y-86817581D01*
X148310456Y-86818837D01*
X148301897Y-86819680D01*
X148038183Y-86819680D01*
X148029624Y-86818837D01*
X148025484Y-86817581D01*
X148006324Y-86809645D01*
X147982290Y-86804865D01*
X147957786Y-86804865D01*
X147933753Y-86809646D01*
X147914595Y-86817581D01*
X147910456Y-86818837D01*
X147901897Y-86819680D01*
X147638183Y-86819680D01*
X147629624Y-86818837D01*
X147625484Y-86817581D01*
X147606324Y-86809645D01*
X147582290Y-86804865D01*
X147557786Y-86804865D01*
X147533753Y-86809646D01*
X147514595Y-86817581D01*
X147510456Y-86818837D01*
X147501897Y-86819680D01*
X147238183Y-86819680D01*
X147229624Y-86818837D01*
X147225484Y-86817581D01*
X147206324Y-86809645D01*
X147182290Y-86804865D01*
X147157786Y-86804865D01*
X147133753Y-86809646D01*
X147114595Y-86817581D01*
X147110456Y-86818837D01*
X147101897Y-86819680D01*
X146838183Y-86819680D01*
X146829624Y-86818837D01*
X146825484Y-86817581D01*
X146806324Y-86809645D01*
X146782290Y-86804865D01*
X146757786Y-86804865D01*
X146733753Y-86809646D01*
X146714595Y-86817581D01*
X146710456Y-86818837D01*
X146701897Y-86819680D01*
X146438183Y-86819680D01*
X146429624Y-86818837D01*
X146425484Y-86817581D01*
X146406324Y-86809645D01*
X146382290Y-86804865D01*
X146357786Y-86804865D01*
X146333753Y-86809646D01*
X146314595Y-86817581D01*
X146310456Y-86818837D01*
X146301897Y-86819680D01*
X146038183Y-86819680D01*
X146029624Y-86818837D01*
X146025484Y-86817581D01*
X146006324Y-86809645D01*
X145982290Y-86804865D01*
X145957786Y-86804865D01*
X145933753Y-86809646D01*
X145914595Y-86817581D01*
X145910456Y-86818837D01*
X145901897Y-86819680D01*
X145638183Y-86819680D01*
X145629624Y-86818837D01*
X145625484Y-86817581D01*
X145606324Y-86809645D01*
X145582290Y-86804865D01*
X145557786Y-86804865D01*
X145533753Y-86809646D01*
X145514595Y-86817581D01*
X145510456Y-86818837D01*
X145501897Y-86819680D01*
X145238183Y-86819680D01*
X145229624Y-86818837D01*
X145225484Y-86817581D01*
X145206324Y-86809645D01*
X145182290Y-86804865D01*
X145157786Y-86804865D01*
X145133753Y-86809646D01*
X145114595Y-86817581D01*
X145110456Y-86818837D01*
X145101897Y-86819680D01*
X144838183Y-86819680D01*
X144829624Y-86818837D01*
X144825484Y-86817581D01*
X144806324Y-86809645D01*
X144782290Y-86804865D01*
X144757786Y-86804865D01*
X144733753Y-86809646D01*
X144714595Y-86817581D01*
X144710456Y-86818837D01*
X144701897Y-86819680D01*
X144508814Y-86819680D01*
X144484428Y-86822082D01*
X144460979Y-86829195D01*
X144456378Y-86831654D01*
X144428659Y-86818545D01*
X144425492Y-86817584D01*
X144406324Y-86809645D01*
X144382290Y-86804865D01*
X144357786Y-86804865D01*
X144333753Y-86809646D01*
X144314588Y-86817584D01*
X144311421Y-86818545D01*
X144288782Y-86827922D01*
X144268408Y-86841536D01*
X144251081Y-86858863D01*
X144237467Y-86879238D01*
X144228090Y-86901877D01*
X144223310Y-86925910D01*
X144223310Y-86950414D01*
X144228091Y-86974447D01*
X144237468Y-86997086D01*
X144251082Y-87017460D01*
X144268409Y-87034787D01*
X144288784Y-87048401D01*
X144311423Y-87057778D01*
X144347707Y-87063160D01*
X144392373Y-87063160D01*
X144416759Y-87060758D01*
X144440208Y-87053645D01*
X144444496Y-87051353D01*
X144460979Y-87060163D01*
X144472529Y-87064296D01*
X144498357Y-87072131D01*
X144517353Y-87082284D01*
X144534008Y-87095952D01*
X144547676Y-87112607D01*
X144557829Y-87131603D01*
X144564084Y-87152222D01*
X144566800Y-87179800D01*
X144566800Y-87638520D01*
X144564084Y-87666098D01*
X144557829Y-87686717D01*
X144547676Y-87705713D01*
X144534008Y-87722368D01*
X144517353Y-87736036D01*
X144498357Y-87746189D01*
X144477738Y-87752444D01*
X144450160Y-87755160D01*
X143941440Y-87755160D01*
X143913862Y-87752444D01*
X143893243Y-87746189D01*
X143874247Y-87736036D01*
X143857592Y-87722368D01*
X143843924Y-87705713D01*
X143833771Y-87686717D01*
X143827516Y-87666098D01*
X143824800Y-87638520D01*
X143824800Y-87179800D01*
X143827516Y-87152222D01*
X143833771Y-87131603D01*
X143843924Y-87112607D01*
X143857592Y-87095952D01*
X143874247Y-87082284D01*
X143893243Y-87072131D01*
X143913862Y-87065876D01*
X143941440Y-87063160D01*
X143992373Y-87063160D01*
X144016759Y-87060758D01*
X144040208Y-87053645D01*
X144061819Y-87042094D01*
X144080761Y-87026549D01*
X144096306Y-87007607D01*
X144107857Y-86985996D01*
X144114970Y-86962547D01*
X144117372Y-86938161D01*
X144114970Y-86913775D01*
X144107857Y-86890326D01*
X144096306Y-86868715D01*
X144080761Y-86849773D01*
X144061819Y-86834228D01*
X144028659Y-86818545D01*
X144027298Y-86818132D01*
X144025153Y-86816985D01*
X144023275Y-86815445D01*
X144021735Y-86813567D01*
X144020590Y-86811425D01*
X144019883Y-86809096D01*
X144019040Y-86800537D01*
X144019040Y-85936823D01*
X144019883Y-85928264D01*
X144021418Y-85923204D01*
X144026198Y-85899171D01*
X144026198Y-85874667D01*
X144021417Y-85850633D01*
X144012040Y-85827995D01*
X143998426Y-85807620D01*
X143981099Y-85790293D01*
X143960725Y-85776680D01*
X143938086Y-85767302D01*
X143914053Y-85762522D01*
X143889549Y-85762522D01*
X143865516Y-85767302D01*
X143860456Y-85768837D01*
X143851897Y-85769680D01*
X142988183Y-85769680D01*
X142979624Y-85768837D01*
X142977295Y-85768130D01*
X142975153Y-85766985D01*
X142973275Y-85765445D01*
X142971735Y-85763567D01*
X142970590Y-85761425D01*
X142969883Y-85759096D01*
X142969040Y-85750537D01*
X142969040Y-85486823D01*
X142969883Y-85478264D01*
X142971139Y-85474124D01*
X142979075Y-85454964D01*
X142983855Y-85430930D01*
X142983855Y-85406426D01*
X142979074Y-85382393D01*
X142971139Y-85363235D01*
X142969883Y-85359096D01*
X142969040Y-85350537D01*
X142969040Y-85086823D01*
X142969883Y-85078264D01*
X142971139Y-85074124D01*
X142979075Y-85054964D01*
X142983855Y-85030930D01*
X142983855Y-85006426D01*
X142979074Y-84982393D01*
X142971139Y-84963235D01*
X142969883Y-84959096D01*
X142969040Y-84950537D01*
X142969040Y-84686823D01*
X142969883Y-84678264D01*
X142971139Y-84674124D01*
X142979075Y-84654964D01*
X142983855Y-84630930D01*
X142983855Y-84606426D01*
X142979074Y-84582393D01*
X142971139Y-84563235D01*
X142969883Y-84559096D01*
X142969040Y-84550537D01*
X142969040Y-84286823D01*
X142969883Y-84278264D01*
X142971139Y-84274124D01*
X142979075Y-84254964D01*
X142983855Y-84230930D01*
X142983855Y-84206426D01*
X142979074Y-84182393D01*
X142971139Y-84163235D01*
X142969883Y-84159096D01*
X142969040Y-84150537D01*
X142969040Y-83886823D01*
X142969883Y-83878264D01*
X142971139Y-83874124D01*
X142979075Y-83854964D01*
X142983855Y-83830930D01*
X142983855Y-83806426D01*
X142979074Y-83782393D01*
X142971139Y-83763235D01*
X142969883Y-83759096D01*
X142969040Y-83750537D01*
X142969040Y-83486823D01*
X142969883Y-83478264D01*
X142971139Y-83474124D01*
X142979075Y-83454964D01*
X142983855Y-83430930D01*
X142983855Y-83406426D01*
X142979074Y-83382393D01*
X142971139Y-83363235D01*
X142969883Y-83359096D01*
X142969040Y-83350537D01*
X142969040Y-83086823D01*
X142969883Y-83078264D01*
X142971139Y-83074124D01*
X142979075Y-83054964D01*
X142983855Y-83030930D01*
X142983855Y-83006426D01*
X142979074Y-82982393D01*
X142971139Y-82963235D01*
X142969883Y-82959096D01*
X142969040Y-82950537D01*
X142969040Y-82686823D01*
X142969883Y-82678264D01*
X142971139Y-82674124D01*
X142979075Y-82654964D01*
X142983855Y-82630930D01*
X142983855Y-82606426D01*
X142979074Y-82582393D01*
X142971139Y-82563235D01*
X142969883Y-82559096D01*
X142969040Y-82550537D01*
X142969040Y-82286823D01*
X142969883Y-82278264D01*
X142971139Y-82274124D01*
X142979075Y-82254964D01*
X142983855Y-82230930D01*
X142983855Y-82206426D01*
X142979074Y-82182393D01*
X142971139Y-82163235D01*
X142969883Y-82159096D01*
X142969040Y-82150537D01*
X142969040Y-81886823D01*
X142969883Y-81878264D01*
X142971139Y-81874124D01*
X142979075Y-81854964D01*
X142983855Y-81830930D01*
X142983855Y-81806426D01*
X142979074Y-81782393D01*
X142971139Y-81763235D01*
X142969883Y-81759096D01*
X142969040Y-81750537D01*
X142969040Y-81486823D01*
X142969883Y-81478264D01*
X142971139Y-81474124D01*
X142979075Y-81454964D01*
X142983855Y-81430930D01*
X142983855Y-81406426D01*
X142979074Y-81382393D01*
X142971139Y-81363235D01*
X142969883Y-81359096D01*
X142969040Y-81350537D01*
X142969040Y-81086823D01*
X142969883Y-81078264D01*
X142970590Y-81075935D01*
X142971735Y-81073793D01*
X142973275Y-81071915D01*
X142975153Y-81070375D01*
X142977295Y-81069230D01*
X142979624Y-81068523D01*
X142988183Y-81067680D01*
X143851897Y-81067680D01*
X143860456Y-81068523D01*
X143865516Y-81070058D01*
X143889549Y-81074838D01*
X143914053Y-81074838D01*
X143938087Y-81070057D01*
X143960725Y-81060680D01*
X143981100Y-81047066D01*
X143998427Y-81029739D01*
X144012040Y-81009365D01*
X144021418Y-80986726D01*
X144026198Y-80962693D01*
X144026198Y-80938189D01*
X144021418Y-80914156D01*
X144019883Y-80909096D01*
X144019040Y-80900537D01*
X144019040Y-80036823D01*
X144019883Y-80028264D01*
X144020590Y-80025935D01*
X144021735Y-80023793D01*
X144023275Y-80021915D01*
X144025153Y-80020375D01*
X144027295Y-80019230D01*
X144029624Y-80018523D01*
X144038183Y-80017680D01*
X144301897Y-80017680D01*
X144310456Y-80018523D01*
X144310456Y-80018523D01*
G37*
G36*
X149649178Y-86981916D02*
G01*
X149669797Y-86988171D01*
X149688793Y-86998324D01*
X149705448Y-87011992D01*
X149719116Y-87028647D01*
X149729269Y-87047643D01*
X149735524Y-87068262D01*
X149738240Y-87095840D01*
X149738240Y-87554560D01*
X149735524Y-87582138D01*
X149729269Y-87602757D01*
X149719116Y-87621753D01*
X149705448Y-87638408D01*
X149688793Y-87652076D01*
X149669797Y-87662229D01*
X149649178Y-87668484D01*
X149621600Y-87671200D01*
X149112880Y-87671200D01*
X149085302Y-87668484D01*
X149064683Y-87662229D01*
X149045687Y-87652076D01*
X149029032Y-87638408D01*
X149015364Y-87621753D01*
X149005211Y-87602757D01*
X148998956Y-87582138D01*
X148996240Y-87554560D01*
X148996240Y-87095840D01*
X148998956Y-87068262D01*
X149005211Y-87047643D01*
X149015364Y-87028647D01*
X149029032Y-87011992D01*
X149045687Y-86998324D01*
X149064683Y-86988171D01*
X149085302Y-86981916D01*
X149112880Y-86979200D01*
X149621600Y-86979200D01*
X149649178Y-86981916D01*
X149649178Y-86981916D01*
G37*
G36*
X143422231Y-86480105D02*
G01*
X143456209Y-86490413D01*
X143487530Y-86507154D01*
X143514979Y-86529681D01*
X143537506Y-86557130D01*
X143554247Y-86588451D01*
X143564555Y-86622429D01*
X143568640Y-86663910D01*
X143568640Y-87265130D01*
X143564555Y-87306611D01*
X143554247Y-87340589D01*
X143537506Y-87371910D01*
X143514979Y-87399359D01*
X143487530Y-87421886D01*
X143456209Y-87438627D01*
X143422231Y-87448935D01*
X143380750Y-87453020D01*
X142704530Y-87453020D01*
X142663049Y-87448935D01*
X142629071Y-87438627D01*
X142597750Y-87421886D01*
X142570301Y-87399359D01*
X142547774Y-87371910D01*
X142531033Y-87340589D01*
X142520725Y-87306611D01*
X142516640Y-87265130D01*
X142516640Y-86663910D01*
X142520725Y-86622429D01*
X142531033Y-86588451D01*
X142547774Y-86557130D01*
X142570301Y-86529681D01*
X142597750Y-86507154D01*
X142629071Y-86490413D01*
X142663049Y-86480105D01*
X142704530Y-86476020D01*
X143380750Y-86476020D01*
X143422231Y-86480105D01*
X143422231Y-86480105D01*
G37*
G36*
X142035391Y-85931665D02*
G01*
X142069369Y-85941973D01*
X142100690Y-85958714D01*
X142128139Y-85981241D01*
X142150666Y-86008690D01*
X142167407Y-86040011D01*
X142177715Y-86073989D01*
X142181800Y-86115470D01*
X142181800Y-86716690D01*
X142177715Y-86758171D01*
X142167407Y-86792149D01*
X142150666Y-86823470D01*
X142128139Y-86850919D01*
X142100690Y-86873446D01*
X142069369Y-86890187D01*
X142035391Y-86900495D01*
X141993910Y-86904580D01*
X141317690Y-86904580D01*
X141276209Y-86900495D01*
X141242231Y-86890187D01*
X141210910Y-86873446D01*
X141183461Y-86850919D01*
X141160934Y-86823470D01*
X141144193Y-86792149D01*
X141133885Y-86758171D01*
X141129800Y-86716690D01*
X141129800Y-86115470D01*
X141133885Y-86073989D01*
X141144193Y-86040011D01*
X141160934Y-86008690D01*
X141183461Y-85981241D01*
X141210910Y-85958714D01*
X141242231Y-85941973D01*
X141276209Y-85931665D01*
X141317690Y-85927580D01*
X141993910Y-85927580D01*
X142035391Y-85931665D01*
X142035391Y-85931665D01*
G37*
G36*
X137250122Y-84551118D02*
G01*
X137316307Y-84557637D01*
X137486146Y-84609157D01*
X137642671Y-84692822D01*
X137668826Y-84714287D01*
X137779866Y-84805414D01*
X137852713Y-84894180D01*
X137892458Y-84942609D01*
X137976123Y-85099134D01*
X138027643Y-85268973D01*
X138045039Y-85445600D01*
X138027643Y-85622227D01*
X137976123Y-85792066D01*
X137892458Y-85948591D01*
X137871623Y-85973978D01*
X137779866Y-86085786D01*
X137678409Y-86169048D01*
X137642671Y-86198378D01*
X137486146Y-86282043D01*
X137316307Y-86333563D01*
X137250123Y-86340081D01*
X137183940Y-86346600D01*
X137095420Y-86346600D01*
X137029237Y-86340081D01*
X136963053Y-86333563D01*
X136793214Y-86282043D01*
X136636689Y-86198378D01*
X136600951Y-86169048D01*
X136499494Y-86085786D01*
X136407737Y-85973978D01*
X136386902Y-85948591D01*
X136303237Y-85792066D01*
X136251717Y-85622227D01*
X136234321Y-85445600D01*
X136251717Y-85268973D01*
X136303237Y-85099134D01*
X136386902Y-84942609D01*
X136426647Y-84894180D01*
X136499494Y-84805414D01*
X136610534Y-84714287D01*
X136636689Y-84692822D01*
X136793214Y-84609157D01*
X136963053Y-84557637D01*
X137029238Y-84551118D01*
X137095420Y-84544600D01*
X137183940Y-84544600D01*
X137250122Y-84551118D01*
X137250122Y-84551118D01*
G37*
G36*
X152490122Y-84551118D02*
G01*
X152556307Y-84557637D01*
X152726146Y-84609157D01*
X152882671Y-84692822D01*
X152908826Y-84714287D01*
X153019866Y-84805414D01*
X153092713Y-84894180D01*
X153132458Y-84942609D01*
X153216123Y-85099134D01*
X153267643Y-85268973D01*
X153285039Y-85445600D01*
X153267643Y-85622227D01*
X153216123Y-85792066D01*
X153132458Y-85948591D01*
X153111623Y-85973978D01*
X153019866Y-86085786D01*
X152918409Y-86169048D01*
X152882671Y-86198378D01*
X152726146Y-86282043D01*
X152556307Y-86333563D01*
X152490123Y-86340081D01*
X152423940Y-86346600D01*
X152335420Y-86346600D01*
X152269237Y-86340081D01*
X152203053Y-86333563D01*
X152033214Y-86282043D01*
X151876689Y-86198378D01*
X151840951Y-86169048D01*
X151739494Y-86085786D01*
X151647737Y-85973978D01*
X151626902Y-85948591D01*
X151543237Y-85792066D01*
X151491717Y-85622227D01*
X151474321Y-85445600D01*
X151491717Y-85268973D01*
X151543237Y-85099134D01*
X151626902Y-84942609D01*
X151666647Y-84894180D01*
X151739494Y-84805414D01*
X151850534Y-84714287D01*
X151876689Y-84692822D01*
X152033214Y-84609157D01*
X152203053Y-84557637D01*
X152269238Y-84551118D01*
X152335420Y-84544600D01*
X152423940Y-84544600D01*
X152490122Y-84551118D01*
X152490122Y-84551118D01*
G37*
G36*
X142035391Y-84356665D02*
G01*
X142069369Y-84366973D01*
X142100690Y-84383714D01*
X142128139Y-84406241D01*
X142150666Y-84433690D01*
X142167407Y-84465011D01*
X142177715Y-84498989D01*
X142181800Y-84540470D01*
X142181800Y-85141690D01*
X142177715Y-85183171D01*
X142167407Y-85217149D01*
X142150666Y-85248470D01*
X142128139Y-85275919D01*
X142100690Y-85298446D01*
X142069369Y-85315187D01*
X142035391Y-85325495D01*
X141993910Y-85329580D01*
X141317690Y-85329580D01*
X141276209Y-85325495D01*
X141242231Y-85315187D01*
X141210910Y-85298446D01*
X141183461Y-85275919D01*
X141160934Y-85248470D01*
X141144193Y-85217149D01*
X141133885Y-85183171D01*
X141129800Y-85141690D01*
X141129800Y-84540470D01*
X141133885Y-84498989D01*
X141144193Y-84465011D01*
X141160934Y-84433690D01*
X141183461Y-84406241D01*
X141210910Y-84383714D01*
X141242231Y-84366973D01*
X141276209Y-84356665D01*
X141317690Y-84352580D01*
X141993910Y-84352580D01*
X142035391Y-84356665D01*
X142035391Y-84356665D01*
G37*
G36*
X137250123Y-82011119D02*
G01*
X137316307Y-82017637D01*
X137486146Y-82069157D01*
X137642671Y-82152822D01*
X137661444Y-82168229D01*
X137779866Y-82265414D01*
X137831598Y-82328451D01*
X137892458Y-82402609D01*
X137976123Y-82559134D01*
X138027643Y-82728973D01*
X138045039Y-82905600D01*
X138027643Y-83082227D01*
X137976123Y-83252066D01*
X137892458Y-83408591D01*
X137874121Y-83430934D01*
X137779866Y-83545786D01*
X137678409Y-83629048D01*
X137642671Y-83658378D01*
X137486146Y-83742043D01*
X137316307Y-83793563D01*
X137250123Y-83800081D01*
X137183940Y-83806600D01*
X137095420Y-83806600D01*
X137029237Y-83800081D01*
X136963053Y-83793563D01*
X136793214Y-83742043D01*
X136636689Y-83658378D01*
X136600951Y-83629048D01*
X136499494Y-83545786D01*
X136405239Y-83430934D01*
X136386902Y-83408591D01*
X136303237Y-83252066D01*
X136251717Y-83082227D01*
X136234321Y-82905600D01*
X136251717Y-82728973D01*
X136303237Y-82559134D01*
X136386902Y-82402609D01*
X136447762Y-82328451D01*
X136499494Y-82265414D01*
X136617916Y-82168229D01*
X136636689Y-82152822D01*
X136793214Y-82069157D01*
X136963053Y-82017637D01*
X137029237Y-82011119D01*
X137095420Y-82004600D01*
X137183940Y-82004600D01*
X137250123Y-82011119D01*
X137250123Y-82011119D01*
G37*
G36*
X152490123Y-82011119D02*
G01*
X152556307Y-82017637D01*
X152726146Y-82069157D01*
X152882671Y-82152822D01*
X152901444Y-82168229D01*
X153019866Y-82265414D01*
X153071598Y-82328451D01*
X153132458Y-82402609D01*
X153216123Y-82559134D01*
X153267643Y-82728973D01*
X153285039Y-82905600D01*
X153267643Y-83082227D01*
X153216123Y-83252066D01*
X153132458Y-83408591D01*
X153114121Y-83430934D01*
X153019866Y-83545786D01*
X152918409Y-83629048D01*
X152882671Y-83658378D01*
X152726146Y-83742043D01*
X152556307Y-83793563D01*
X152490123Y-83800081D01*
X152423940Y-83806600D01*
X152335420Y-83806600D01*
X152269237Y-83800081D01*
X152203053Y-83793563D01*
X152033214Y-83742043D01*
X151876689Y-83658378D01*
X151840951Y-83629048D01*
X151739494Y-83545786D01*
X151645239Y-83430934D01*
X151626902Y-83408591D01*
X151543237Y-83252066D01*
X151491717Y-83082227D01*
X151474321Y-82905600D01*
X151491717Y-82728973D01*
X151543237Y-82559134D01*
X151626902Y-82402609D01*
X151687762Y-82328451D01*
X151739494Y-82265414D01*
X151857916Y-82168229D01*
X151876689Y-82152822D01*
X152033214Y-82069157D01*
X152203053Y-82017637D01*
X152269237Y-82011119D01*
X152335420Y-82004600D01*
X152423940Y-82004600D01*
X152490123Y-82011119D01*
X152490123Y-82011119D01*
G37*
G36*
X140988178Y-79783956D02*
G01*
X141008797Y-79790211D01*
X141027793Y-79800364D01*
X141044448Y-79814032D01*
X141058116Y-79830687D01*
X141068269Y-79849683D01*
X141074524Y-79870302D01*
X141077240Y-79897880D01*
X141077240Y-80406600D01*
X141074524Y-80434178D01*
X141068269Y-80454797D01*
X141058116Y-80473793D01*
X141044448Y-80490448D01*
X141027793Y-80504115D01*
X141000714Y-80518590D01*
X140980340Y-80532204D01*
X140963013Y-80549531D01*
X140949400Y-80569906D01*
X140940023Y-80592545D01*
X140935243Y-80616578D01*
X140935243Y-80641082D01*
X140940024Y-80665115D01*
X140949402Y-80687754D01*
X140963016Y-80708128D01*
X140980343Y-80725455D01*
X141000714Y-80739066D01*
X141012273Y-80745245D01*
X141028928Y-80758912D01*
X141042596Y-80775567D01*
X141052749Y-80794563D01*
X141059004Y-80815182D01*
X141061720Y-80842760D01*
X141061720Y-81351480D01*
X141059004Y-81379058D01*
X141052749Y-81399677D01*
X141042596Y-81418673D01*
X141028928Y-81435328D01*
X141012273Y-81448996D01*
X140993277Y-81459149D01*
X140972658Y-81465404D01*
X140945080Y-81468120D01*
X140486360Y-81468120D01*
X140458782Y-81465404D01*
X140438163Y-81459149D01*
X140419167Y-81448996D01*
X140402512Y-81435328D01*
X140388844Y-81418673D01*
X140378691Y-81399677D01*
X140372436Y-81379058D01*
X140369720Y-81351480D01*
X140369720Y-80842760D01*
X140372436Y-80815182D01*
X140378691Y-80794563D01*
X140388844Y-80775567D01*
X140402512Y-80758912D01*
X140419167Y-80745245D01*
X140446246Y-80730770D01*
X140466620Y-80717156D01*
X140483947Y-80699829D01*
X140497560Y-80679454D01*
X140506937Y-80656815D01*
X140511717Y-80632782D01*
X140511717Y-80608278D01*
X140506936Y-80584245D01*
X140497558Y-80561606D01*
X140483944Y-80541232D01*
X140466617Y-80523905D01*
X140446246Y-80510294D01*
X140434687Y-80504115D01*
X140418032Y-80490448D01*
X140404364Y-80473793D01*
X140394211Y-80454797D01*
X140387956Y-80434178D01*
X140385240Y-80406600D01*
X140385240Y-79897880D01*
X140387956Y-79870302D01*
X140394211Y-79849683D01*
X140404364Y-79830687D01*
X140418032Y-79814032D01*
X140434687Y-79800364D01*
X140453683Y-79790211D01*
X140474302Y-79783956D01*
X140501880Y-79781240D01*
X140960600Y-79781240D01*
X140988178Y-79783956D01*
X140988178Y-79783956D01*
G37*
G36*
X140018178Y-79783956D02*
G01*
X140038797Y-79790211D01*
X140057793Y-79800364D01*
X140074448Y-79814032D01*
X140088116Y-79830687D01*
X140098269Y-79849683D01*
X140104524Y-79870302D01*
X140107240Y-79897880D01*
X140107240Y-80406600D01*
X140104524Y-80434178D01*
X140098269Y-80454797D01*
X140088116Y-80473793D01*
X140074448Y-80490448D01*
X140057793Y-80504115D01*
X140030714Y-80518590D01*
X140010340Y-80532204D01*
X139993013Y-80549531D01*
X139979400Y-80569906D01*
X139970023Y-80592545D01*
X139965243Y-80616578D01*
X139965243Y-80641082D01*
X139970024Y-80665115D01*
X139979402Y-80687754D01*
X139993016Y-80708128D01*
X140010343Y-80725455D01*
X140030714Y-80739066D01*
X140042273Y-80745245D01*
X140058928Y-80758912D01*
X140072596Y-80775567D01*
X140082749Y-80794563D01*
X140089004Y-80815182D01*
X140091720Y-80842760D01*
X140091720Y-81351480D01*
X140089004Y-81379058D01*
X140082749Y-81399677D01*
X140072596Y-81418673D01*
X140058928Y-81435328D01*
X140042273Y-81448996D01*
X140023277Y-81459149D01*
X140002658Y-81465404D01*
X139975080Y-81468120D01*
X139516360Y-81468120D01*
X139488782Y-81465404D01*
X139468163Y-81459149D01*
X139449167Y-81448996D01*
X139432512Y-81435328D01*
X139418844Y-81418673D01*
X139408691Y-81399677D01*
X139402436Y-81379058D01*
X139399720Y-81351480D01*
X139399720Y-80842760D01*
X139402436Y-80815182D01*
X139408691Y-80794563D01*
X139418844Y-80775567D01*
X139432512Y-80758912D01*
X139449167Y-80745245D01*
X139476246Y-80730770D01*
X139496620Y-80717156D01*
X139513947Y-80699829D01*
X139527560Y-80679454D01*
X139536937Y-80656815D01*
X139541717Y-80632782D01*
X139541717Y-80608278D01*
X139536936Y-80584245D01*
X139527558Y-80561606D01*
X139513944Y-80541232D01*
X139496617Y-80523905D01*
X139476246Y-80510294D01*
X139464687Y-80504115D01*
X139448032Y-80490448D01*
X139434364Y-80473793D01*
X139424211Y-80454797D01*
X139417956Y-80434178D01*
X139415240Y-80406600D01*
X139415240Y-79897880D01*
X139417956Y-79870302D01*
X139424211Y-79849683D01*
X139434364Y-79830687D01*
X139448032Y-79814032D01*
X139464687Y-79800364D01*
X139483683Y-79790211D01*
X139504302Y-79783956D01*
X139531880Y-79781240D01*
X139990600Y-79781240D01*
X140018178Y-79783956D01*
X140018178Y-79783956D01*
G37*
G36*
X152490122Y-79471118D02*
G01*
X152556307Y-79477637D01*
X152726146Y-79529157D01*
X152726148Y-79529158D01*
X152794694Y-79565797D01*
X152882671Y-79612822D01*
X152904718Y-79630916D01*
X153019866Y-79725414D01*
X153089608Y-79810396D01*
X153132458Y-79862609D01*
X153216123Y-80019134D01*
X153267643Y-80188973D01*
X153285039Y-80365600D01*
X153267643Y-80542227D01*
X153216123Y-80712066D01*
X153132458Y-80868591D01*
X153118067Y-80886126D01*
X153019866Y-81005786D01*
X152934388Y-81075935D01*
X152882671Y-81118378D01*
X152726146Y-81202043D01*
X152556307Y-81253563D01*
X152490122Y-81260082D01*
X152423940Y-81266600D01*
X152335420Y-81266600D01*
X152269238Y-81260082D01*
X152203053Y-81253563D01*
X152033214Y-81202043D01*
X151876689Y-81118378D01*
X151824972Y-81075935D01*
X151739494Y-81005786D01*
X151641293Y-80886126D01*
X151626902Y-80868591D01*
X151543237Y-80712066D01*
X151491717Y-80542227D01*
X151474321Y-80365600D01*
X151491717Y-80188973D01*
X151543237Y-80019134D01*
X151626902Y-79862609D01*
X151669752Y-79810396D01*
X151739494Y-79725414D01*
X151854642Y-79630916D01*
X151876689Y-79612822D01*
X151964666Y-79565797D01*
X152033212Y-79529158D01*
X152033214Y-79529157D01*
X152203053Y-79477637D01*
X152269238Y-79471118D01*
X152335420Y-79464600D01*
X152423940Y-79464600D01*
X152490122Y-79471118D01*
X152490122Y-79471118D01*
G37*
G36*
X137250122Y-79471118D02*
G01*
X137316307Y-79477637D01*
X137486146Y-79529157D01*
X137486148Y-79529158D01*
X137554694Y-79565797D01*
X137642671Y-79612822D01*
X137664718Y-79630916D01*
X137779866Y-79725414D01*
X137849608Y-79810396D01*
X137892458Y-79862609D01*
X137976123Y-80019134D01*
X138027643Y-80188973D01*
X138045039Y-80365600D01*
X138027643Y-80542227D01*
X137976123Y-80712066D01*
X137892458Y-80868591D01*
X137878067Y-80886126D01*
X137779866Y-81005786D01*
X137694388Y-81075935D01*
X137642671Y-81118378D01*
X137486146Y-81202043D01*
X137316307Y-81253563D01*
X137250122Y-81260082D01*
X137183940Y-81266600D01*
X137095420Y-81266600D01*
X137029238Y-81260082D01*
X136963053Y-81253563D01*
X136793214Y-81202043D01*
X136636689Y-81118378D01*
X136584972Y-81075935D01*
X136499494Y-81005786D01*
X136401293Y-80886126D01*
X136386902Y-80868591D01*
X136303237Y-80712066D01*
X136251717Y-80542227D01*
X136234321Y-80365600D01*
X136251717Y-80188973D01*
X136303237Y-80019134D01*
X136386902Y-79862609D01*
X136429752Y-79810396D01*
X136499494Y-79725414D01*
X136614642Y-79630916D01*
X136636689Y-79612822D01*
X136724666Y-79565797D01*
X136793212Y-79529158D01*
X136793214Y-79529157D01*
X136963053Y-79477637D01*
X137029238Y-79471118D01*
X137095420Y-79464600D01*
X137183940Y-79464600D01*
X137250122Y-79471118D01*
X137250122Y-79471118D01*
G37*
G36*
X146820018Y-78894956D02*
G01*
X146840637Y-78901211D01*
X146859633Y-78911364D01*
X146876288Y-78925032D01*
X146889956Y-78941687D01*
X146900109Y-78960683D01*
X146906364Y-78981302D01*
X146909080Y-79008880D01*
X146909080Y-79517600D01*
X146906364Y-79545178D01*
X146900109Y-79565797D01*
X146889956Y-79584793D01*
X146876288Y-79601448D01*
X146859633Y-79615116D01*
X146840637Y-79625269D01*
X146820018Y-79631524D01*
X146792440Y-79634240D01*
X146333720Y-79634240D01*
X146306142Y-79631524D01*
X146285523Y-79625269D01*
X146266527Y-79615116D01*
X146249872Y-79601448D01*
X146236204Y-79584793D01*
X146226051Y-79565797D01*
X146219796Y-79545178D01*
X146217080Y-79517600D01*
X146217080Y-79008880D01*
X146219796Y-78981302D01*
X146226051Y-78960683D01*
X146236204Y-78941687D01*
X146249872Y-78925032D01*
X146266527Y-78911364D01*
X146285523Y-78901211D01*
X146306142Y-78894956D01*
X146333720Y-78892240D01*
X146792440Y-78892240D01*
X146820018Y-78894956D01*
X146820018Y-78894956D01*
G37*
G36*
X147790018Y-78894956D02*
G01*
X147810637Y-78901211D01*
X147829633Y-78911364D01*
X147846288Y-78925032D01*
X147859956Y-78941687D01*
X147870109Y-78960683D01*
X147876364Y-78981302D01*
X147879080Y-79008880D01*
X147879080Y-79517600D01*
X147876364Y-79545178D01*
X147870109Y-79565797D01*
X147859956Y-79584793D01*
X147846288Y-79601448D01*
X147829633Y-79615116D01*
X147810637Y-79625269D01*
X147790018Y-79631524D01*
X147762440Y-79634240D01*
X147303720Y-79634240D01*
X147276142Y-79631524D01*
X147255523Y-79625269D01*
X147236527Y-79615116D01*
X147219872Y-79601448D01*
X147206204Y-79584793D01*
X147196051Y-79565797D01*
X147189796Y-79545178D01*
X147187080Y-79517600D01*
X147187080Y-79008880D01*
X147189796Y-78981302D01*
X147196051Y-78960683D01*
X147206204Y-78941687D01*
X147219872Y-78925032D01*
X147236527Y-78911364D01*
X147255523Y-78901211D01*
X147276142Y-78894956D01*
X147303720Y-78892240D01*
X147762440Y-78892240D01*
X147790018Y-78894956D01*
X147790018Y-78894956D01*
G37*
G36*
X140125840Y-79514040D02*
G01*
X138823840Y-79514040D01*
X138823840Y-78012040D01*
X140125840Y-78012040D01*
X140125840Y-79514040D01*
X140125840Y-79514040D01*
G37*
G36*
X141825840Y-79514040D02*
G01*
X140523840Y-79514040D01*
X140523840Y-78012040D01*
X141825840Y-78012040D01*
X141825840Y-79514040D01*
X141825840Y-79514040D01*
G37*
G36*
X137250122Y-76931118D02*
G01*
X137316307Y-76937637D01*
X137486146Y-76989157D01*
X137642671Y-77072822D01*
X137678409Y-77102152D01*
X137779866Y-77185414D01*
X137863128Y-77286871D01*
X137892458Y-77322609D01*
X137976123Y-77479134D01*
X138027643Y-77648973D01*
X138045039Y-77825600D01*
X138027643Y-78002227D01*
X137976123Y-78172066D01*
X137892458Y-78328591D01*
X137863128Y-78364329D01*
X137779866Y-78465786D01*
X137689877Y-78539637D01*
X137642671Y-78578378D01*
X137486146Y-78662043D01*
X137316307Y-78713563D01*
X137250122Y-78720082D01*
X137183940Y-78726600D01*
X137095420Y-78726600D01*
X137029238Y-78720082D01*
X136963053Y-78713563D01*
X136793214Y-78662043D01*
X136636689Y-78578378D01*
X136589483Y-78539637D01*
X136499494Y-78465786D01*
X136416232Y-78364329D01*
X136386902Y-78328591D01*
X136303237Y-78172066D01*
X136251717Y-78002227D01*
X136234321Y-77825600D01*
X136251717Y-77648973D01*
X136303237Y-77479134D01*
X136386902Y-77322609D01*
X136416232Y-77286871D01*
X136499494Y-77185414D01*
X136600951Y-77102152D01*
X136636689Y-77072822D01*
X136793214Y-76989157D01*
X136963053Y-76937637D01*
X137029238Y-76931118D01*
X137095420Y-76924600D01*
X137183940Y-76924600D01*
X137250122Y-76931118D01*
X137250122Y-76931118D01*
G37*
G36*
X152490122Y-76931118D02*
G01*
X152556307Y-76937637D01*
X152726146Y-76989157D01*
X152882671Y-77072822D01*
X152918409Y-77102152D01*
X153019866Y-77185414D01*
X153103128Y-77286871D01*
X153132458Y-77322609D01*
X153216123Y-77479134D01*
X153267643Y-77648973D01*
X153285039Y-77825600D01*
X153267643Y-78002227D01*
X153216123Y-78172066D01*
X153132458Y-78328591D01*
X153103128Y-78364329D01*
X153019866Y-78465786D01*
X152929877Y-78539637D01*
X152882671Y-78578378D01*
X152726146Y-78662043D01*
X152556307Y-78713563D01*
X152490122Y-78720082D01*
X152423940Y-78726600D01*
X152335420Y-78726600D01*
X152269238Y-78720082D01*
X152203053Y-78713563D01*
X152033214Y-78662043D01*
X151876689Y-78578378D01*
X151829483Y-78539637D01*
X151739494Y-78465786D01*
X151656232Y-78364329D01*
X151626902Y-78328591D01*
X151543237Y-78172066D01*
X151491717Y-78002227D01*
X151474321Y-77825600D01*
X151491717Y-77648973D01*
X151543237Y-77479134D01*
X151626902Y-77322609D01*
X151656232Y-77286871D01*
X151739494Y-77185414D01*
X151840951Y-77102152D01*
X151876689Y-77072822D01*
X152033214Y-76989157D01*
X152203053Y-76937637D01*
X152269238Y-76931118D01*
X152335420Y-76924600D01*
X152423940Y-76924600D01*
X152490122Y-76931118D01*
X152490122Y-76931118D01*
G37*
G36*
X146855178Y-77939516D02*
G01*
X146875797Y-77945771D01*
X146894793Y-77955924D01*
X146911448Y-77969592D01*
X146925116Y-77986247D01*
X146935269Y-78005243D01*
X146941524Y-78025862D01*
X146944240Y-78053440D01*
X146944240Y-78512160D01*
X146941524Y-78539738D01*
X146935269Y-78560357D01*
X146925116Y-78579353D01*
X146911448Y-78596008D01*
X146894793Y-78609676D01*
X146875797Y-78619829D01*
X146855178Y-78626084D01*
X146827600Y-78628800D01*
X146318880Y-78628800D01*
X146291302Y-78626084D01*
X146270683Y-78619829D01*
X146251687Y-78609676D01*
X146235032Y-78596008D01*
X146221364Y-78579353D01*
X146211211Y-78560357D01*
X146204956Y-78539738D01*
X146202240Y-78512160D01*
X146202240Y-78053440D01*
X146204956Y-78025862D01*
X146211211Y-78005243D01*
X146221364Y-77986247D01*
X146235032Y-77969592D01*
X146251687Y-77955924D01*
X146270683Y-77945771D01*
X146291302Y-77939516D01*
X146318880Y-77936800D01*
X146827600Y-77936800D01*
X146855178Y-77939516D01*
X146855178Y-77939516D01*
G37*
G36*
X145158858Y-77868796D02*
G01*
X145179477Y-77875051D01*
X145198473Y-77885204D01*
X145215128Y-77898872D01*
X145228796Y-77915527D01*
X145238949Y-77934523D01*
X145245204Y-77955142D01*
X145247920Y-77982720D01*
X145247920Y-78491440D01*
X145245204Y-78519018D01*
X145238949Y-78539637D01*
X145228796Y-78558633D01*
X145215128Y-78575288D01*
X145198473Y-78588956D01*
X145179477Y-78599109D01*
X145158858Y-78605364D01*
X145131280Y-78608080D01*
X144672560Y-78608080D01*
X144644982Y-78605364D01*
X144624363Y-78599109D01*
X144605367Y-78588956D01*
X144588712Y-78575288D01*
X144575044Y-78558633D01*
X144564891Y-78539637D01*
X144558636Y-78519018D01*
X144555920Y-78491440D01*
X144555920Y-77982720D01*
X144558636Y-77955142D01*
X144564891Y-77934523D01*
X144575044Y-77915527D01*
X144588712Y-77898872D01*
X144605367Y-77885204D01*
X144624363Y-77875051D01*
X144644982Y-77868796D01*
X144672560Y-77866080D01*
X145131280Y-77866080D01*
X145158858Y-77868796D01*
X145158858Y-77868796D01*
G37*
G36*
X144188858Y-77868796D02*
G01*
X144209477Y-77875051D01*
X144228473Y-77885204D01*
X144245128Y-77898872D01*
X144258796Y-77915527D01*
X144268949Y-77934523D01*
X144275204Y-77955142D01*
X144277920Y-77982720D01*
X144277920Y-78491440D01*
X144275204Y-78519018D01*
X144268949Y-78539637D01*
X144258796Y-78558633D01*
X144245128Y-78575288D01*
X144228473Y-78588956D01*
X144209477Y-78599109D01*
X144188858Y-78605364D01*
X144161280Y-78608080D01*
X143702560Y-78608080D01*
X143674982Y-78605364D01*
X143654363Y-78599109D01*
X143635367Y-78588956D01*
X143618712Y-78575288D01*
X143605044Y-78558633D01*
X143594891Y-78539637D01*
X143588636Y-78519018D01*
X143585920Y-78491440D01*
X143585920Y-77982720D01*
X143588636Y-77955142D01*
X143594891Y-77934523D01*
X143605044Y-77915527D01*
X143618712Y-77898872D01*
X143635367Y-77885204D01*
X143654363Y-77875051D01*
X143674982Y-77868796D01*
X143702560Y-77866080D01*
X144161280Y-77866080D01*
X144188858Y-77868796D01*
X144188858Y-77868796D01*
G37*
G36*
X146855178Y-76969516D02*
G01*
X146875797Y-76975771D01*
X146894793Y-76985924D01*
X146911448Y-76999592D01*
X146925116Y-77016247D01*
X146935269Y-77035243D01*
X146941524Y-77055862D01*
X146944240Y-77083440D01*
X146944240Y-77542160D01*
X146941524Y-77569738D01*
X146935269Y-77590357D01*
X146925116Y-77609353D01*
X146911448Y-77626008D01*
X146894793Y-77639676D01*
X146875797Y-77649829D01*
X146855178Y-77656084D01*
X146827600Y-77658800D01*
X146318880Y-77658800D01*
X146291302Y-77656084D01*
X146270683Y-77649829D01*
X146251687Y-77639676D01*
X146235032Y-77626008D01*
X146221364Y-77609353D01*
X146211211Y-77590357D01*
X146204956Y-77569738D01*
X146202240Y-77542160D01*
X146202240Y-77083440D01*
X146204956Y-77055862D01*
X146211211Y-77035243D01*
X146221364Y-77016247D01*
X146235032Y-76999592D01*
X146251687Y-76985924D01*
X146270683Y-76975771D01*
X146291302Y-76969516D01*
X146318880Y-76966800D01*
X146827600Y-76966800D01*
X146855178Y-76969516D01*
X146855178Y-76969516D01*
G37*
G36*
X140048658Y-74846196D02*
G01*
X140069277Y-74852451D01*
X140088273Y-74862604D01*
X140104928Y-74876272D01*
X140118596Y-74892927D01*
X140128749Y-74911923D01*
X140135004Y-74932542D01*
X140137720Y-74960120D01*
X140137720Y-75468840D01*
X140135004Y-75496418D01*
X140128749Y-75517037D01*
X140118596Y-75536033D01*
X140104928Y-75552688D01*
X140088273Y-75566356D01*
X140068728Y-75576803D01*
X140048354Y-75590417D01*
X140031027Y-75607744D01*
X140017414Y-75628119D01*
X140008037Y-75650758D01*
X140003257Y-75674791D01*
X140003257Y-75699296D01*
X140008038Y-75723329D01*
X140017416Y-75745967D01*
X140031030Y-75766341D01*
X140048357Y-75783668D01*
X140068732Y-75797281D01*
X140091371Y-75806658D01*
X140125840Y-75811771D01*
X140125840Y-77314040D01*
X138823840Y-77314040D01*
X138823840Y-75812040D01*
X139455786Y-75812040D01*
X139480172Y-75809638D01*
X139503621Y-75802525D01*
X139525232Y-75790974D01*
X139544174Y-75775429D01*
X139559719Y-75756487D01*
X139571270Y-75734876D01*
X139578383Y-75711427D01*
X139580785Y-75687041D01*
X139578383Y-75662655D01*
X139571270Y-75639206D01*
X139559719Y-75617595D01*
X139544174Y-75598653D01*
X139514712Y-75576803D01*
X139495167Y-75566356D01*
X139478512Y-75552688D01*
X139464844Y-75536033D01*
X139454691Y-75517037D01*
X139448436Y-75496418D01*
X139445720Y-75468840D01*
X139445720Y-74960120D01*
X139448436Y-74932542D01*
X139454691Y-74911923D01*
X139464844Y-74892927D01*
X139478512Y-74876272D01*
X139495167Y-74862604D01*
X139514163Y-74852451D01*
X139534782Y-74846196D01*
X139562360Y-74843480D01*
X140021080Y-74843480D01*
X140048658Y-74846196D01*
X140048658Y-74846196D01*
G37*
G36*
X141018658Y-74846196D02*
G01*
X141039277Y-74852451D01*
X141058273Y-74862604D01*
X141074928Y-74876272D01*
X141088596Y-74892927D01*
X141098749Y-74911923D01*
X141105004Y-74932542D01*
X141107720Y-74960120D01*
X141107720Y-75468840D01*
X141105004Y-75496418D01*
X141098749Y-75517037D01*
X141088596Y-75536033D01*
X141074928Y-75552688D01*
X141058273Y-75566356D01*
X141038728Y-75576803D01*
X141018354Y-75590417D01*
X141001027Y-75607744D01*
X140987414Y-75628119D01*
X140978037Y-75650758D01*
X140973257Y-75674791D01*
X140973257Y-75699296D01*
X140978038Y-75723329D01*
X140987416Y-75745967D01*
X141001030Y-75766341D01*
X141018357Y-75783668D01*
X141038732Y-75797281D01*
X141061371Y-75806658D01*
X141097654Y-75812040D01*
X141825840Y-75812040D01*
X141825840Y-77314040D01*
X140523840Y-77314040D01*
X140523840Y-75763651D01*
X140529719Y-75756487D01*
X140541270Y-75734876D01*
X140548383Y-75711427D01*
X140550785Y-75687041D01*
X140548383Y-75662655D01*
X140541270Y-75639206D01*
X140529719Y-75617595D01*
X140514174Y-75598653D01*
X140484712Y-75576803D01*
X140465167Y-75566356D01*
X140448512Y-75552688D01*
X140434844Y-75536033D01*
X140424691Y-75517037D01*
X140418436Y-75496418D01*
X140415720Y-75468840D01*
X140415720Y-74960120D01*
X140418436Y-74932542D01*
X140424691Y-74911923D01*
X140434844Y-74892927D01*
X140448512Y-74876272D01*
X140465167Y-74862604D01*
X140484163Y-74852451D01*
X140504782Y-74846196D01*
X140532360Y-74843480D01*
X140991080Y-74843480D01*
X141018658Y-74846196D01*
X141018658Y-74846196D01*
G37*
G36*
X150155240Y-77167360D02*
G01*
X148703240Y-77167360D01*
X148703240Y-72865360D01*
X150155240Y-72865360D01*
X150155240Y-77167360D01*
X150155240Y-77167360D01*
G37*
G36*
X144505240Y-77167360D02*
G01*
X143053240Y-77167360D01*
X143053240Y-72865360D01*
X144505240Y-72865360D01*
X144505240Y-77167360D01*
X144505240Y-77167360D01*
G37*
G36*
X147290240Y-76667360D02*
G01*
X145918240Y-76667360D01*
X145918240Y-72965360D01*
X147290240Y-72965360D01*
X147290240Y-76667360D01*
X147290240Y-76667360D01*
G37*
G36*
X153280680Y-76186600D02*
G01*
X151478680Y-76186600D01*
X151478680Y-74384600D01*
X153280680Y-74384600D01*
X153280680Y-76186600D01*
X153280680Y-76186600D01*
G37*
G36*
X137250122Y-74391118D02*
G01*
X137316307Y-74397637D01*
X137486146Y-74449157D01*
X137642671Y-74532822D01*
X137678409Y-74562152D01*
X137779866Y-74645414D01*
X137863128Y-74746871D01*
X137892458Y-74782609D01*
X137892459Y-74782611D01*
X137972600Y-74932542D01*
X137976123Y-74939134D01*
X138027643Y-75108973D01*
X138045039Y-75285600D01*
X138027643Y-75462227D01*
X137976123Y-75632066D01*
X137892458Y-75788591D01*
X137873214Y-75812040D01*
X137779866Y-75925786D01*
X137678409Y-76009048D01*
X137642671Y-76038378D01*
X137486146Y-76122043D01*
X137316307Y-76173563D01*
X137250123Y-76180081D01*
X137183940Y-76186600D01*
X137095420Y-76186600D01*
X137029237Y-76180081D01*
X136963053Y-76173563D01*
X136793214Y-76122043D01*
X136636689Y-76038378D01*
X136600951Y-76009048D01*
X136499494Y-75925786D01*
X136406146Y-75812040D01*
X136386902Y-75788591D01*
X136303237Y-75632066D01*
X136251717Y-75462227D01*
X136234321Y-75285600D01*
X136251717Y-75108973D01*
X136303237Y-74939134D01*
X136306761Y-74932542D01*
X136386901Y-74782611D01*
X136386902Y-74782609D01*
X136416232Y-74746871D01*
X136499494Y-74645414D01*
X136600951Y-74562152D01*
X136636689Y-74532822D01*
X136793214Y-74449157D01*
X136963053Y-74397637D01*
X137029238Y-74391118D01*
X137095420Y-74384600D01*
X137183940Y-74384600D01*
X137250122Y-74391118D01*
X137250122Y-74391118D01*
G37*
M02*
