%TF.GenerationSoftware,KiCad,Pcbnew,(5.1.2)-2*%
%TF.CreationDate,2021-03-02T00:01:01+01:00*%
%TF.ProjectId,NRF52_Basic,4e524635-325f-4426-9173-69632e6b6963,V1*%
%TF.SameCoordinates,Original*%
%TF.FileFunction,Copper,L1,Top*%
%TF.FilePolarity,Positive*%
%FSLAX46Y46*%
G04 Gerber Fmt 4.6, Leading zero omitted, Abs format (unit mm)*
G04 Created by KiCad (PCBNEW (5.1.2)-2) date 2021-03-02 00:01:01*
%MOMM*%
%LPD*%
G04 APERTURE LIST*
%TA.AperFunction,ComponentPad*%
%ADD10O,1.700000X1.700000*%
%TD*%
%TA.AperFunction,ComponentPad*%
%ADD11R,1.700000X1.700000*%
%TD*%
%TA.AperFunction,Conductor*%
%ADD12C,0.100000*%
%TD*%
%TA.AperFunction,SMDPad,CuDef*%
%ADD13C,0.590000*%
%TD*%
%TA.AperFunction,SMDPad,CuDef*%
%ADD14C,0.875000*%
%TD*%
%TA.AperFunction,SMDPad,CuDef*%
%ADD15R,1.350000X4.200000*%
%TD*%
%TA.AperFunction,SMDPad,CuDef*%
%ADD16R,1.270000X3.600000*%
%TD*%
%TA.AperFunction,SMDPad,CuDef*%
%ADD17R,1.200000X1.400000*%
%TD*%
%TA.AperFunction,SMDPad,CuDef*%
%ADD18C,4.600000*%
%TD*%
%TA.AperFunction,SMDPad,CuDef*%
%ADD19C,0.200000*%
%TD*%
%TA.AperFunction,ViaPad*%
%ADD20C,0.700000*%
%TD*%
%TA.AperFunction,ViaPad*%
%ADD21C,0.800000*%
%TD*%
%TA.AperFunction,Conductor*%
%ADD22C,0.200000*%
%TD*%
%TA.AperFunction,Conductor*%
%ADD23C,0.250000*%
%TD*%
%TA.AperFunction,Conductor*%
%ADD24C,1.000000*%
%TD*%
%TA.AperFunction,Conductor*%
%ADD25C,0.293370*%
%TD*%
%TA.AperFunction,Conductor*%
%ADD26C,0.254000*%
%TD*%
G04 APERTURE END LIST*
D10*
%TO.P,J1,7*%
%TO.N,VDD*%
X152379680Y-90525600D03*
%TO.P,J1,6*%
%TO.N,0.07_CTS*%
X152379680Y-87985600D03*
%TO.P,J1,5*%
%TO.N,0.08_RX*%
X152379680Y-85445600D03*
%TO.P,J1,4*%
%TO.N,SWO*%
X152379680Y-82905600D03*
%TO.P,J1,3*%
%TO.N,RESET_0.21*%
X152379680Y-80365600D03*
%TO.P,J1,2*%
%TO.N,SWDCLK*%
X152379680Y-77825600D03*
D11*
%TO.P,J1,1*%
%TO.N,SWDIO*%
X152379680Y-75285600D03*
%TD*%
D12*
%TO.N,Net-(J4-Pad1)*%
%TO.C,L1*%
G36*
X146760198Y-77018510D02*
G01*
X146774516Y-77020634D01*
X146788557Y-77024151D01*
X146802186Y-77029028D01*
X146815271Y-77035217D01*
X146827687Y-77042658D01*
X146839313Y-77051281D01*
X146850038Y-77061002D01*
X146859759Y-77071727D01*
X146868382Y-77083353D01*
X146875823Y-77095769D01*
X146882012Y-77108854D01*
X146886889Y-77122483D01*
X146890406Y-77136524D01*
X146892530Y-77150842D01*
X146893240Y-77165300D01*
X146893240Y-77460300D01*
X146892530Y-77474758D01*
X146890406Y-77489076D01*
X146886889Y-77503117D01*
X146882012Y-77516746D01*
X146875823Y-77529831D01*
X146868382Y-77542247D01*
X146859759Y-77553873D01*
X146850038Y-77564598D01*
X146839313Y-77574319D01*
X146827687Y-77582942D01*
X146815271Y-77590383D01*
X146802186Y-77596572D01*
X146788557Y-77601449D01*
X146774516Y-77604966D01*
X146760198Y-77607090D01*
X146745740Y-77607800D01*
X146400740Y-77607800D01*
X146386282Y-77607090D01*
X146371964Y-77604966D01*
X146357923Y-77601449D01*
X146344294Y-77596572D01*
X146331209Y-77590383D01*
X146318793Y-77582942D01*
X146307167Y-77574319D01*
X146296442Y-77564598D01*
X146286721Y-77553873D01*
X146278098Y-77542247D01*
X146270657Y-77529831D01*
X146264468Y-77516746D01*
X146259591Y-77503117D01*
X146256074Y-77489076D01*
X146253950Y-77474758D01*
X146253240Y-77460300D01*
X146253240Y-77165300D01*
X146253950Y-77150842D01*
X146256074Y-77136524D01*
X146259591Y-77122483D01*
X146264468Y-77108854D01*
X146270657Y-77095769D01*
X146278098Y-77083353D01*
X146286721Y-77071727D01*
X146296442Y-77061002D01*
X146307167Y-77051281D01*
X146318793Y-77042658D01*
X146331209Y-77035217D01*
X146344294Y-77029028D01*
X146357923Y-77024151D01*
X146371964Y-77020634D01*
X146386282Y-77018510D01*
X146400740Y-77017800D01*
X146745740Y-77017800D01*
X146760198Y-77018510D01*
X146760198Y-77018510D01*
G37*
D13*
%TD*%
%TO.P,L1,2*%
%TO.N,Net-(J4-Pad1)*%
X146573240Y-77312800D03*
D12*
%TO.N,ANT*%
%TO.C,L1*%
G36*
X146760198Y-77988510D02*
G01*
X146774516Y-77990634D01*
X146788557Y-77994151D01*
X146802186Y-77999028D01*
X146815271Y-78005217D01*
X146827687Y-78012658D01*
X146839313Y-78021281D01*
X146850038Y-78031002D01*
X146859759Y-78041727D01*
X146868382Y-78053353D01*
X146875823Y-78065769D01*
X146882012Y-78078854D01*
X146886889Y-78092483D01*
X146890406Y-78106524D01*
X146892530Y-78120842D01*
X146893240Y-78135300D01*
X146893240Y-78430300D01*
X146892530Y-78444758D01*
X146890406Y-78459076D01*
X146886889Y-78473117D01*
X146882012Y-78486746D01*
X146875823Y-78499831D01*
X146868382Y-78512247D01*
X146859759Y-78523873D01*
X146850038Y-78534598D01*
X146839313Y-78544319D01*
X146827687Y-78552942D01*
X146815271Y-78560383D01*
X146802186Y-78566572D01*
X146788557Y-78571449D01*
X146774516Y-78574966D01*
X146760198Y-78577090D01*
X146745740Y-78577800D01*
X146400740Y-78577800D01*
X146386282Y-78577090D01*
X146371964Y-78574966D01*
X146357923Y-78571449D01*
X146344294Y-78566572D01*
X146331209Y-78560383D01*
X146318793Y-78552942D01*
X146307167Y-78544319D01*
X146296442Y-78534598D01*
X146286721Y-78523873D01*
X146278098Y-78512247D01*
X146270657Y-78499831D01*
X146264468Y-78486746D01*
X146259591Y-78473117D01*
X146256074Y-78459076D01*
X146253950Y-78444758D01*
X146253240Y-78430300D01*
X146253240Y-78135300D01*
X146253950Y-78120842D01*
X146256074Y-78106524D01*
X146259591Y-78092483D01*
X146264468Y-78078854D01*
X146270657Y-78065769D01*
X146278098Y-78053353D01*
X146286721Y-78041727D01*
X146296442Y-78031002D01*
X146307167Y-78021281D01*
X146318793Y-78012658D01*
X146331209Y-78005217D01*
X146344294Y-77999028D01*
X146357923Y-77994151D01*
X146371964Y-77990634D01*
X146386282Y-77988510D01*
X146400740Y-77987800D01*
X146745740Y-77987800D01*
X146760198Y-77988510D01*
X146760198Y-77988510D01*
G37*
D13*
%TD*%
%TO.P,L1,1*%
%TO.N,ANT*%
X146573240Y-78282800D03*
D12*
%TO.N,VSS*%
%TO.C,C14*%
G36*
X139923198Y-79832950D02*
G01*
X139937516Y-79835074D01*
X139951557Y-79838591D01*
X139965186Y-79843468D01*
X139978271Y-79849657D01*
X139990687Y-79857098D01*
X140002313Y-79865721D01*
X140013038Y-79875442D01*
X140022759Y-79886167D01*
X140031382Y-79897793D01*
X140038823Y-79910209D01*
X140045012Y-79923294D01*
X140049889Y-79936923D01*
X140053406Y-79950964D01*
X140055530Y-79965282D01*
X140056240Y-79979740D01*
X140056240Y-80324740D01*
X140055530Y-80339198D01*
X140053406Y-80353516D01*
X140049889Y-80367557D01*
X140045012Y-80381186D01*
X140038823Y-80394271D01*
X140031382Y-80406687D01*
X140022759Y-80418313D01*
X140013038Y-80429038D01*
X140002313Y-80438759D01*
X139990687Y-80447382D01*
X139978271Y-80454823D01*
X139965186Y-80461012D01*
X139951557Y-80465889D01*
X139937516Y-80469406D01*
X139923198Y-80471530D01*
X139908740Y-80472240D01*
X139613740Y-80472240D01*
X139599282Y-80471530D01*
X139584964Y-80469406D01*
X139570923Y-80465889D01*
X139557294Y-80461012D01*
X139544209Y-80454823D01*
X139531793Y-80447382D01*
X139520167Y-80438759D01*
X139509442Y-80429038D01*
X139499721Y-80418313D01*
X139491098Y-80406687D01*
X139483657Y-80394271D01*
X139477468Y-80381186D01*
X139472591Y-80367557D01*
X139469074Y-80353516D01*
X139466950Y-80339198D01*
X139466240Y-80324740D01*
X139466240Y-79979740D01*
X139466950Y-79965282D01*
X139469074Y-79950964D01*
X139472591Y-79936923D01*
X139477468Y-79923294D01*
X139483657Y-79910209D01*
X139491098Y-79897793D01*
X139499721Y-79886167D01*
X139509442Y-79875442D01*
X139520167Y-79865721D01*
X139531793Y-79857098D01*
X139544209Y-79849657D01*
X139557294Y-79843468D01*
X139570923Y-79838591D01*
X139584964Y-79835074D01*
X139599282Y-79832950D01*
X139613740Y-79832240D01*
X139908740Y-79832240D01*
X139923198Y-79832950D01*
X139923198Y-79832950D01*
G37*
D13*
%TD*%
%TO.P,C14,2*%
%TO.N,VSS*%
X139761240Y-80152240D03*
D12*
%TO.N,XC2*%
%TO.C,C14*%
G36*
X140893198Y-79832950D02*
G01*
X140907516Y-79835074D01*
X140921557Y-79838591D01*
X140935186Y-79843468D01*
X140948271Y-79849657D01*
X140960687Y-79857098D01*
X140972313Y-79865721D01*
X140983038Y-79875442D01*
X140992759Y-79886167D01*
X141001382Y-79897793D01*
X141008823Y-79910209D01*
X141015012Y-79923294D01*
X141019889Y-79936923D01*
X141023406Y-79950964D01*
X141025530Y-79965282D01*
X141026240Y-79979740D01*
X141026240Y-80324740D01*
X141025530Y-80339198D01*
X141023406Y-80353516D01*
X141019889Y-80367557D01*
X141015012Y-80381186D01*
X141008823Y-80394271D01*
X141001382Y-80406687D01*
X140992759Y-80418313D01*
X140983038Y-80429038D01*
X140972313Y-80438759D01*
X140960687Y-80447382D01*
X140948271Y-80454823D01*
X140935186Y-80461012D01*
X140921557Y-80465889D01*
X140907516Y-80469406D01*
X140893198Y-80471530D01*
X140878740Y-80472240D01*
X140583740Y-80472240D01*
X140569282Y-80471530D01*
X140554964Y-80469406D01*
X140540923Y-80465889D01*
X140527294Y-80461012D01*
X140514209Y-80454823D01*
X140501793Y-80447382D01*
X140490167Y-80438759D01*
X140479442Y-80429038D01*
X140469721Y-80418313D01*
X140461098Y-80406687D01*
X140453657Y-80394271D01*
X140447468Y-80381186D01*
X140442591Y-80367557D01*
X140439074Y-80353516D01*
X140436950Y-80339198D01*
X140436240Y-80324740D01*
X140436240Y-79979740D01*
X140436950Y-79965282D01*
X140439074Y-79950964D01*
X140442591Y-79936923D01*
X140447468Y-79923294D01*
X140453657Y-79910209D01*
X140461098Y-79897793D01*
X140469721Y-79886167D01*
X140479442Y-79875442D01*
X140490167Y-79865721D01*
X140501793Y-79857098D01*
X140514209Y-79849657D01*
X140527294Y-79843468D01*
X140540923Y-79838591D01*
X140554964Y-79835074D01*
X140569282Y-79832950D01*
X140583740Y-79832240D01*
X140878740Y-79832240D01*
X140893198Y-79832950D01*
X140893198Y-79832950D01*
G37*
D13*
%TD*%
%TO.P,C14,1*%
%TO.N,XC2*%
X140731240Y-80152240D03*
D12*
%TO.N,D4*%
%TO.C,C9*%
G36*
X141933491Y-84404633D02*
G01*
X141954726Y-84407783D01*
X141975550Y-84412999D01*
X141995762Y-84420231D01*
X142015168Y-84429410D01*
X142033581Y-84440446D01*
X142050824Y-84453234D01*
X142066730Y-84467650D01*
X142081146Y-84483556D01*
X142093934Y-84500799D01*
X142104970Y-84519212D01*
X142114149Y-84538618D01*
X142121381Y-84558830D01*
X142126597Y-84579654D01*
X142129747Y-84600889D01*
X142130800Y-84622330D01*
X142130800Y-85059830D01*
X142129747Y-85081271D01*
X142126597Y-85102506D01*
X142121381Y-85123330D01*
X142114149Y-85143542D01*
X142104970Y-85162948D01*
X142093934Y-85181361D01*
X142081146Y-85198604D01*
X142066730Y-85214510D01*
X142050824Y-85228926D01*
X142033581Y-85241714D01*
X142015168Y-85252750D01*
X141995762Y-85261929D01*
X141975550Y-85269161D01*
X141954726Y-85274377D01*
X141933491Y-85277527D01*
X141912050Y-85278580D01*
X141399550Y-85278580D01*
X141378109Y-85277527D01*
X141356874Y-85274377D01*
X141336050Y-85269161D01*
X141315838Y-85261929D01*
X141296432Y-85252750D01*
X141278019Y-85241714D01*
X141260776Y-85228926D01*
X141244870Y-85214510D01*
X141230454Y-85198604D01*
X141217666Y-85181361D01*
X141206630Y-85162948D01*
X141197451Y-85143542D01*
X141190219Y-85123330D01*
X141185003Y-85102506D01*
X141181853Y-85081271D01*
X141180800Y-85059830D01*
X141180800Y-84622330D01*
X141181853Y-84600889D01*
X141185003Y-84579654D01*
X141190219Y-84558830D01*
X141197451Y-84538618D01*
X141206630Y-84519212D01*
X141217666Y-84500799D01*
X141230454Y-84483556D01*
X141244870Y-84467650D01*
X141260776Y-84453234D01*
X141278019Y-84440446D01*
X141296432Y-84429410D01*
X141315838Y-84420231D01*
X141336050Y-84412999D01*
X141356874Y-84407783D01*
X141378109Y-84404633D01*
X141399550Y-84403580D01*
X141912050Y-84403580D01*
X141933491Y-84404633D01*
X141933491Y-84404633D01*
G37*
D14*
%TD*%
%TO.P,C9,2*%
%TO.N,D4*%
X141655800Y-84841080D03*
D12*
%TO.N,VSS*%
%TO.C,C9*%
G36*
X141933491Y-85979633D02*
G01*
X141954726Y-85982783D01*
X141975550Y-85987999D01*
X141995762Y-85995231D01*
X142015168Y-86004410D01*
X142033581Y-86015446D01*
X142050824Y-86028234D01*
X142066730Y-86042650D01*
X142081146Y-86058556D01*
X142093934Y-86075799D01*
X142104970Y-86094212D01*
X142114149Y-86113618D01*
X142121381Y-86133830D01*
X142126597Y-86154654D01*
X142129747Y-86175889D01*
X142130800Y-86197330D01*
X142130800Y-86634830D01*
X142129747Y-86656271D01*
X142126597Y-86677506D01*
X142121381Y-86698330D01*
X142114149Y-86718542D01*
X142104970Y-86737948D01*
X142093934Y-86756361D01*
X142081146Y-86773604D01*
X142066730Y-86789510D01*
X142050824Y-86803926D01*
X142033581Y-86816714D01*
X142015168Y-86827750D01*
X141995762Y-86836929D01*
X141975550Y-86844161D01*
X141954726Y-86849377D01*
X141933491Y-86852527D01*
X141912050Y-86853580D01*
X141399550Y-86853580D01*
X141378109Y-86852527D01*
X141356874Y-86849377D01*
X141336050Y-86844161D01*
X141315838Y-86836929D01*
X141296432Y-86827750D01*
X141278019Y-86816714D01*
X141260776Y-86803926D01*
X141244870Y-86789510D01*
X141230454Y-86773604D01*
X141217666Y-86756361D01*
X141206630Y-86737948D01*
X141197451Y-86718542D01*
X141190219Y-86698330D01*
X141185003Y-86677506D01*
X141181853Y-86656271D01*
X141180800Y-86634830D01*
X141180800Y-86197330D01*
X141181853Y-86175889D01*
X141185003Y-86154654D01*
X141190219Y-86133830D01*
X141197451Y-86113618D01*
X141206630Y-86094212D01*
X141217666Y-86075799D01*
X141230454Y-86058556D01*
X141244870Y-86042650D01*
X141260776Y-86028234D01*
X141278019Y-86015446D01*
X141296432Y-86004410D01*
X141315838Y-85995231D01*
X141336050Y-85987999D01*
X141356874Y-85982783D01*
X141378109Y-85979633D01*
X141399550Y-85978580D01*
X141912050Y-85978580D01*
X141933491Y-85979633D01*
X141933491Y-85979633D01*
G37*
D14*
%TD*%
%TO.P,C9,1*%
%TO.N,VSS*%
X141655800Y-86416080D03*
D12*
%TO.N,D3*%
%TO.C,C7*%
G36*
X145063878Y-77917790D02*
G01*
X145078196Y-77919914D01*
X145092237Y-77923431D01*
X145105866Y-77928308D01*
X145118951Y-77934497D01*
X145131367Y-77941938D01*
X145142993Y-77950561D01*
X145153718Y-77960282D01*
X145163439Y-77971007D01*
X145172062Y-77982633D01*
X145179503Y-77995049D01*
X145185692Y-78008134D01*
X145190569Y-78021763D01*
X145194086Y-78035804D01*
X145196210Y-78050122D01*
X145196920Y-78064580D01*
X145196920Y-78409580D01*
X145196210Y-78424038D01*
X145194086Y-78438356D01*
X145190569Y-78452397D01*
X145185692Y-78466026D01*
X145179503Y-78479111D01*
X145172062Y-78491527D01*
X145163439Y-78503153D01*
X145153718Y-78513878D01*
X145142993Y-78523599D01*
X145131367Y-78532222D01*
X145118951Y-78539663D01*
X145105866Y-78545852D01*
X145092237Y-78550729D01*
X145078196Y-78554246D01*
X145063878Y-78556370D01*
X145049420Y-78557080D01*
X144754420Y-78557080D01*
X144739962Y-78556370D01*
X144725644Y-78554246D01*
X144711603Y-78550729D01*
X144697974Y-78545852D01*
X144684889Y-78539663D01*
X144672473Y-78532222D01*
X144660847Y-78523599D01*
X144650122Y-78513878D01*
X144640401Y-78503153D01*
X144631778Y-78491527D01*
X144624337Y-78479111D01*
X144618148Y-78466026D01*
X144613271Y-78452397D01*
X144609754Y-78438356D01*
X144607630Y-78424038D01*
X144606920Y-78409580D01*
X144606920Y-78064580D01*
X144607630Y-78050122D01*
X144609754Y-78035804D01*
X144613271Y-78021763D01*
X144618148Y-78008134D01*
X144624337Y-77995049D01*
X144631778Y-77982633D01*
X144640401Y-77971007D01*
X144650122Y-77960282D01*
X144660847Y-77950561D01*
X144672473Y-77941938D01*
X144684889Y-77934497D01*
X144697974Y-77928308D01*
X144711603Y-77923431D01*
X144725644Y-77919914D01*
X144739962Y-77917790D01*
X144754420Y-77917080D01*
X145049420Y-77917080D01*
X145063878Y-77917790D01*
X145063878Y-77917790D01*
G37*
D13*
%TD*%
%TO.P,C7,2*%
%TO.N,D3*%
X144901920Y-78237080D03*
D12*
%TO.N,VSS*%
%TO.C,C7*%
G36*
X144093878Y-77917790D02*
G01*
X144108196Y-77919914D01*
X144122237Y-77923431D01*
X144135866Y-77928308D01*
X144148951Y-77934497D01*
X144161367Y-77941938D01*
X144172993Y-77950561D01*
X144183718Y-77960282D01*
X144193439Y-77971007D01*
X144202062Y-77982633D01*
X144209503Y-77995049D01*
X144215692Y-78008134D01*
X144220569Y-78021763D01*
X144224086Y-78035804D01*
X144226210Y-78050122D01*
X144226920Y-78064580D01*
X144226920Y-78409580D01*
X144226210Y-78424038D01*
X144224086Y-78438356D01*
X144220569Y-78452397D01*
X144215692Y-78466026D01*
X144209503Y-78479111D01*
X144202062Y-78491527D01*
X144193439Y-78503153D01*
X144183718Y-78513878D01*
X144172993Y-78523599D01*
X144161367Y-78532222D01*
X144148951Y-78539663D01*
X144135866Y-78545852D01*
X144122237Y-78550729D01*
X144108196Y-78554246D01*
X144093878Y-78556370D01*
X144079420Y-78557080D01*
X143784420Y-78557080D01*
X143769962Y-78556370D01*
X143755644Y-78554246D01*
X143741603Y-78550729D01*
X143727974Y-78545852D01*
X143714889Y-78539663D01*
X143702473Y-78532222D01*
X143690847Y-78523599D01*
X143680122Y-78513878D01*
X143670401Y-78503153D01*
X143661778Y-78491527D01*
X143654337Y-78479111D01*
X143648148Y-78466026D01*
X143643271Y-78452397D01*
X143639754Y-78438356D01*
X143637630Y-78424038D01*
X143636920Y-78409580D01*
X143636920Y-78064580D01*
X143637630Y-78050122D01*
X143639754Y-78035804D01*
X143643271Y-78021763D01*
X143648148Y-78008134D01*
X143654337Y-77995049D01*
X143661778Y-77982633D01*
X143670401Y-77971007D01*
X143680122Y-77960282D01*
X143690847Y-77950561D01*
X143702473Y-77941938D01*
X143714889Y-77934497D01*
X143727974Y-77928308D01*
X143741603Y-77923431D01*
X143755644Y-77919914D01*
X143769962Y-77917790D01*
X143784420Y-77917080D01*
X144079420Y-77917080D01*
X144093878Y-77917790D01*
X144093878Y-77917790D01*
G37*
D13*
%TD*%
%TO.P,C7,1*%
%TO.N,VSS*%
X143931920Y-78237080D03*
D12*
%TO.N,VDD*%
%TO.C,C5*%
G36*
X140877678Y-80777830D02*
G01*
X140891996Y-80779954D01*
X140906037Y-80783471D01*
X140919666Y-80788348D01*
X140932751Y-80794537D01*
X140945167Y-80801978D01*
X140956793Y-80810601D01*
X140967518Y-80820322D01*
X140977239Y-80831047D01*
X140985862Y-80842673D01*
X140993303Y-80855089D01*
X140999492Y-80868174D01*
X141004369Y-80881803D01*
X141007886Y-80895844D01*
X141010010Y-80910162D01*
X141010720Y-80924620D01*
X141010720Y-81269620D01*
X141010010Y-81284078D01*
X141007886Y-81298396D01*
X141004369Y-81312437D01*
X140999492Y-81326066D01*
X140993303Y-81339151D01*
X140985862Y-81351567D01*
X140977239Y-81363193D01*
X140967518Y-81373918D01*
X140956793Y-81383639D01*
X140945167Y-81392262D01*
X140932751Y-81399703D01*
X140919666Y-81405892D01*
X140906037Y-81410769D01*
X140891996Y-81414286D01*
X140877678Y-81416410D01*
X140863220Y-81417120D01*
X140568220Y-81417120D01*
X140553762Y-81416410D01*
X140539444Y-81414286D01*
X140525403Y-81410769D01*
X140511774Y-81405892D01*
X140498689Y-81399703D01*
X140486273Y-81392262D01*
X140474647Y-81383639D01*
X140463922Y-81373918D01*
X140454201Y-81363193D01*
X140445578Y-81351567D01*
X140438137Y-81339151D01*
X140431948Y-81326066D01*
X140427071Y-81312437D01*
X140423554Y-81298396D01*
X140421430Y-81284078D01*
X140420720Y-81269620D01*
X140420720Y-80924620D01*
X140421430Y-80910162D01*
X140423554Y-80895844D01*
X140427071Y-80881803D01*
X140431948Y-80868174D01*
X140438137Y-80855089D01*
X140445578Y-80842673D01*
X140454201Y-80831047D01*
X140463922Y-80820322D01*
X140474647Y-80810601D01*
X140486273Y-80801978D01*
X140498689Y-80794537D01*
X140511774Y-80788348D01*
X140525403Y-80783471D01*
X140539444Y-80779954D01*
X140553762Y-80777830D01*
X140568220Y-80777120D01*
X140863220Y-80777120D01*
X140877678Y-80777830D01*
X140877678Y-80777830D01*
G37*
D13*
%TD*%
%TO.P,C5,2*%
%TO.N,VDD*%
X140715720Y-81097120D03*
D12*
%TO.N,VSS*%
%TO.C,C5*%
G36*
X139907678Y-80777830D02*
G01*
X139921996Y-80779954D01*
X139936037Y-80783471D01*
X139949666Y-80788348D01*
X139962751Y-80794537D01*
X139975167Y-80801978D01*
X139986793Y-80810601D01*
X139997518Y-80820322D01*
X140007239Y-80831047D01*
X140015862Y-80842673D01*
X140023303Y-80855089D01*
X140029492Y-80868174D01*
X140034369Y-80881803D01*
X140037886Y-80895844D01*
X140040010Y-80910162D01*
X140040720Y-80924620D01*
X140040720Y-81269620D01*
X140040010Y-81284078D01*
X140037886Y-81298396D01*
X140034369Y-81312437D01*
X140029492Y-81326066D01*
X140023303Y-81339151D01*
X140015862Y-81351567D01*
X140007239Y-81363193D01*
X139997518Y-81373918D01*
X139986793Y-81383639D01*
X139975167Y-81392262D01*
X139962751Y-81399703D01*
X139949666Y-81405892D01*
X139936037Y-81410769D01*
X139921996Y-81414286D01*
X139907678Y-81416410D01*
X139893220Y-81417120D01*
X139598220Y-81417120D01*
X139583762Y-81416410D01*
X139569444Y-81414286D01*
X139555403Y-81410769D01*
X139541774Y-81405892D01*
X139528689Y-81399703D01*
X139516273Y-81392262D01*
X139504647Y-81383639D01*
X139493922Y-81373918D01*
X139484201Y-81363193D01*
X139475578Y-81351567D01*
X139468137Y-81339151D01*
X139461948Y-81326066D01*
X139457071Y-81312437D01*
X139453554Y-81298396D01*
X139451430Y-81284078D01*
X139450720Y-81269620D01*
X139450720Y-80924620D01*
X139451430Y-80910162D01*
X139453554Y-80895844D01*
X139457071Y-80881803D01*
X139461948Y-80868174D01*
X139468137Y-80855089D01*
X139475578Y-80842673D01*
X139484201Y-80831047D01*
X139493922Y-80820322D01*
X139504647Y-80810601D01*
X139516273Y-80801978D01*
X139528689Y-80794537D01*
X139541774Y-80788348D01*
X139555403Y-80783471D01*
X139569444Y-80779954D01*
X139583762Y-80777830D01*
X139598220Y-80777120D01*
X139893220Y-80777120D01*
X139907678Y-80777830D01*
X139907678Y-80777830D01*
G37*
D13*
%TD*%
%TO.P,C5,1*%
%TO.N,VSS*%
X139745720Y-81097120D03*
D12*
%TO.N,VDD*%
%TO.C,C4*%
G36*
X149554198Y-86060910D02*
G01*
X149568516Y-86063034D01*
X149582557Y-86066551D01*
X149596186Y-86071428D01*
X149609271Y-86077617D01*
X149621687Y-86085058D01*
X149633313Y-86093681D01*
X149644038Y-86103402D01*
X149653759Y-86114127D01*
X149662382Y-86125753D01*
X149669823Y-86138169D01*
X149676012Y-86151254D01*
X149680889Y-86164883D01*
X149684406Y-86178924D01*
X149686530Y-86193242D01*
X149687240Y-86207700D01*
X149687240Y-86502700D01*
X149686530Y-86517158D01*
X149684406Y-86531476D01*
X149680889Y-86545517D01*
X149676012Y-86559146D01*
X149669823Y-86572231D01*
X149662382Y-86584647D01*
X149653759Y-86596273D01*
X149644038Y-86606998D01*
X149633313Y-86616719D01*
X149621687Y-86625342D01*
X149609271Y-86632783D01*
X149596186Y-86638972D01*
X149582557Y-86643849D01*
X149568516Y-86647366D01*
X149554198Y-86649490D01*
X149539740Y-86650200D01*
X149194740Y-86650200D01*
X149180282Y-86649490D01*
X149165964Y-86647366D01*
X149151923Y-86643849D01*
X149138294Y-86638972D01*
X149125209Y-86632783D01*
X149112793Y-86625342D01*
X149101167Y-86616719D01*
X149090442Y-86606998D01*
X149080721Y-86596273D01*
X149072098Y-86584647D01*
X149064657Y-86572231D01*
X149058468Y-86559146D01*
X149053591Y-86545517D01*
X149050074Y-86531476D01*
X149047950Y-86517158D01*
X149047240Y-86502700D01*
X149047240Y-86207700D01*
X149047950Y-86193242D01*
X149050074Y-86178924D01*
X149053591Y-86164883D01*
X149058468Y-86151254D01*
X149064657Y-86138169D01*
X149072098Y-86125753D01*
X149080721Y-86114127D01*
X149090442Y-86103402D01*
X149101167Y-86093681D01*
X149112793Y-86085058D01*
X149125209Y-86077617D01*
X149138294Y-86071428D01*
X149151923Y-86066551D01*
X149165964Y-86063034D01*
X149180282Y-86060910D01*
X149194740Y-86060200D01*
X149539740Y-86060200D01*
X149554198Y-86060910D01*
X149554198Y-86060910D01*
G37*
D13*
%TD*%
%TO.P,C4,2*%
%TO.N,VDD*%
X149367240Y-86355200D03*
D12*
%TO.N,VSS*%
%TO.C,C4*%
G36*
X149554198Y-87030910D02*
G01*
X149568516Y-87033034D01*
X149582557Y-87036551D01*
X149596186Y-87041428D01*
X149609271Y-87047617D01*
X149621687Y-87055058D01*
X149633313Y-87063681D01*
X149644038Y-87073402D01*
X149653759Y-87084127D01*
X149662382Y-87095753D01*
X149669823Y-87108169D01*
X149676012Y-87121254D01*
X149680889Y-87134883D01*
X149684406Y-87148924D01*
X149686530Y-87163242D01*
X149687240Y-87177700D01*
X149687240Y-87472700D01*
X149686530Y-87487158D01*
X149684406Y-87501476D01*
X149680889Y-87515517D01*
X149676012Y-87529146D01*
X149669823Y-87542231D01*
X149662382Y-87554647D01*
X149653759Y-87566273D01*
X149644038Y-87576998D01*
X149633313Y-87586719D01*
X149621687Y-87595342D01*
X149609271Y-87602783D01*
X149596186Y-87608972D01*
X149582557Y-87613849D01*
X149568516Y-87617366D01*
X149554198Y-87619490D01*
X149539740Y-87620200D01*
X149194740Y-87620200D01*
X149180282Y-87619490D01*
X149165964Y-87617366D01*
X149151923Y-87613849D01*
X149138294Y-87608972D01*
X149125209Y-87602783D01*
X149112793Y-87595342D01*
X149101167Y-87586719D01*
X149090442Y-87576998D01*
X149080721Y-87566273D01*
X149072098Y-87554647D01*
X149064657Y-87542231D01*
X149058468Y-87529146D01*
X149053591Y-87515517D01*
X149050074Y-87501476D01*
X149047950Y-87487158D01*
X149047240Y-87472700D01*
X149047240Y-87177700D01*
X149047950Y-87163242D01*
X149050074Y-87148924D01*
X149053591Y-87134883D01*
X149058468Y-87121254D01*
X149064657Y-87108169D01*
X149072098Y-87095753D01*
X149080721Y-87084127D01*
X149090442Y-87073402D01*
X149101167Y-87063681D01*
X149112793Y-87055058D01*
X149125209Y-87047617D01*
X149138294Y-87041428D01*
X149151923Y-87036551D01*
X149165964Y-87033034D01*
X149180282Y-87030910D01*
X149194740Y-87030200D01*
X149539740Y-87030200D01*
X149554198Y-87030910D01*
X149554198Y-87030910D01*
G37*
D13*
%TD*%
%TO.P,C4,1*%
%TO.N,VSS*%
X149367240Y-87325200D03*
D12*
%TO.N,ANT*%
%TO.C,C3*%
G36*
X146725038Y-78943950D02*
G01*
X146739356Y-78946074D01*
X146753397Y-78949591D01*
X146767026Y-78954468D01*
X146780111Y-78960657D01*
X146792527Y-78968098D01*
X146804153Y-78976721D01*
X146814878Y-78986442D01*
X146824599Y-78997167D01*
X146833222Y-79008793D01*
X146840663Y-79021209D01*
X146846852Y-79034294D01*
X146851729Y-79047923D01*
X146855246Y-79061964D01*
X146857370Y-79076282D01*
X146858080Y-79090740D01*
X146858080Y-79435740D01*
X146857370Y-79450198D01*
X146855246Y-79464516D01*
X146851729Y-79478557D01*
X146846852Y-79492186D01*
X146840663Y-79505271D01*
X146833222Y-79517687D01*
X146824599Y-79529313D01*
X146814878Y-79540038D01*
X146804153Y-79549759D01*
X146792527Y-79558382D01*
X146780111Y-79565823D01*
X146767026Y-79572012D01*
X146753397Y-79576889D01*
X146739356Y-79580406D01*
X146725038Y-79582530D01*
X146710580Y-79583240D01*
X146415580Y-79583240D01*
X146401122Y-79582530D01*
X146386804Y-79580406D01*
X146372763Y-79576889D01*
X146359134Y-79572012D01*
X146346049Y-79565823D01*
X146333633Y-79558382D01*
X146322007Y-79549759D01*
X146311282Y-79540038D01*
X146301561Y-79529313D01*
X146292938Y-79517687D01*
X146285497Y-79505271D01*
X146279308Y-79492186D01*
X146274431Y-79478557D01*
X146270914Y-79464516D01*
X146268790Y-79450198D01*
X146268080Y-79435740D01*
X146268080Y-79090740D01*
X146268790Y-79076282D01*
X146270914Y-79061964D01*
X146274431Y-79047923D01*
X146279308Y-79034294D01*
X146285497Y-79021209D01*
X146292938Y-79008793D01*
X146301561Y-78997167D01*
X146311282Y-78986442D01*
X146322007Y-78976721D01*
X146333633Y-78968098D01*
X146346049Y-78960657D01*
X146359134Y-78954468D01*
X146372763Y-78949591D01*
X146386804Y-78946074D01*
X146401122Y-78943950D01*
X146415580Y-78943240D01*
X146710580Y-78943240D01*
X146725038Y-78943950D01*
X146725038Y-78943950D01*
G37*
D13*
%TD*%
%TO.P,C3,2*%
%TO.N,ANT*%
X146563080Y-79263240D03*
D12*
%TO.N,VSS*%
%TO.C,C3*%
G36*
X147695038Y-78943950D02*
G01*
X147709356Y-78946074D01*
X147723397Y-78949591D01*
X147737026Y-78954468D01*
X147750111Y-78960657D01*
X147762527Y-78968098D01*
X147774153Y-78976721D01*
X147784878Y-78986442D01*
X147794599Y-78997167D01*
X147803222Y-79008793D01*
X147810663Y-79021209D01*
X147816852Y-79034294D01*
X147821729Y-79047923D01*
X147825246Y-79061964D01*
X147827370Y-79076282D01*
X147828080Y-79090740D01*
X147828080Y-79435740D01*
X147827370Y-79450198D01*
X147825246Y-79464516D01*
X147821729Y-79478557D01*
X147816852Y-79492186D01*
X147810663Y-79505271D01*
X147803222Y-79517687D01*
X147794599Y-79529313D01*
X147784878Y-79540038D01*
X147774153Y-79549759D01*
X147762527Y-79558382D01*
X147750111Y-79565823D01*
X147737026Y-79572012D01*
X147723397Y-79576889D01*
X147709356Y-79580406D01*
X147695038Y-79582530D01*
X147680580Y-79583240D01*
X147385580Y-79583240D01*
X147371122Y-79582530D01*
X147356804Y-79580406D01*
X147342763Y-79576889D01*
X147329134Y-79572012D01*
X147316049Y-79565823D01*
X147303633Y-79558382D01*
X147292007Y-79549759D01*
X147281282Y-79540038D01*
X147271561Y-79529313D01*
X147262938Y-79517687D01*
X147255497Y-79505271D01*
X147249308Y-79492186D01*
X147244431Y-79478557D01*
X147240914Y-79464516D01*
X147238790Y-79450198D01*
X147238080Y-79435740D01*
X147238080Y-79090740D01*
X147238790Y-79076282D01*
X147240914Y-79061964D01*
X147244431Y-79047923D01*
X147249308Y-79034294D01*
X147255497Y-79021209D01*
X147262938Y-79008793D01*
X147271561Y-78997167D01*
X147281282Y-78986442D01*
X147292007Y-78976721D01*
X147303633Y-78968098D01*
X147316049Y-78960657D01*
X147329134Y-78954468D01*
X147342763Y-78949591D01*
X147356804Y-78946074D01*
X147371122Y-78943950D01*
X147385580Y-78943240D01*
X147680580Y-78943240D01*
X147695038Y-78943950D01*
X147695038Y-78943950D01*
G37*
D13*
%TD*%
%TO.P,C3,1*%
%TO.N,VSS*%
X147533080Y-79263240D03*
D12*
%TO.N,VSS*%
%TO.C,C2*%
G36*
X140923678Y-74895190D02*
G01*
X140937996Y-74897314D01*
X140952037Y-74900831D01*
X140965666Y-74905708D01*
X140978751Y-74911897D01*
X140991167Y-74919338D01*
X141002793Y-74927961D01*
X141013518Y-74937682D01*
X141023239Y-74948407D01*
X141031862Y-74960033D01*
X141039303Y-74972449D01*
X141045492Y-74985534D01*
X141050369Y-74999163D01*
X141053886Y-75013204D01*
X141056010Y-75027522D01*
X141056720Y-75041980D01*
X141056720Y-75386980D01*
X141056010Y-75401438D01*
X141053886Y-75415756D01*
X141050369Y-75429797D01*
X141045492Y-75443426D01*
X141039303Y-75456511D01*
X141031862Y-75468927D01*
X141023239Y-75480553D01*
X141013518Y-75491278D01*
X141002793Y-75500999D01*
X140991167Y-75509622D01*
X140978751Y-75517063D01*
X140965666Y-75523252D01*
X140952037Y-75528129D01*
X140937996Y-75531646D01*
X140923678Y-75533770D01*
X140909220Y-75534480D01*
X140614220Y-75534480D01*
X140599762Y-75533770D01*
X140585444Y-75531646D01*
X140571403Y-75528129D01*
X140557774Y-75523252D01*
X140544689Y-75517063D01*
X140532273Y-75509622D01*
X140520647Y-75500999D01*
X140509922Y-75491278D01*
X140500201Y-75480553D01*
X140491578Y-75468927D01*
X140484137Y-75456511D01*
X140477948Y-75443426D01*
X140473071Y-75429797D01*
X140469554Y-75415756D01*
X140467430Y-75401438D01*
X140466720Y-75386980D01*
X140466720Y-75041980D01*
X140467430Y-75027522D01*
X140469554Y-75013204D01*
X140473071Y-74999163D01*
X140477948Y-74985534D01*
X140484137Y-74972449D01*
X140491578Y-74960033D01*
X140500201Y-74948407D01*
X140509922Y-74937682D01*
X140520647Y-74927961D01*
X140532273Y-74919338D01*
X140544689Y-74911897D01*
X140557774Y-74905708D01*
X140571403Y-74900831D01*
X140585444Y-74897314D01*
X140599762Y-74895190D01*
X140614220Y-74894480D01*
X140909220Y-74894480D01*
X140923678Y-74895190D01*
X140923678Y-74895190D01*
G37*
D13*
%TD*%
%TO.P,C2,2*%
%TO.N,VSS*%
X140761720Y-75214480D03*
D12*
%TO.N,XC1*%
%TO.C,C2*%
G36*
X139953678Y-74895190D02*
G01*
X139967996Y-74897314D01*
X139982037Y-74900831D01*
X139995666Y-74905708D01*
X140008751Y-74911897D01*
X140021167Y-74919338D01*
X140032793Y-74927961D01*
X140043518Y-74937682D01*
X140053239Y-74948407D01*
X140061862Y-74960033D01*
X140069303Y-74972449D01*
X140075492Y-74985534D01*
X140080369Y-74999163D01*
X140083886Y-75013204D01*
X140086010Y-75027522D01*
X140086720Y-75041980D01*
X140086720Y-75386980D01*
X140086010Y-75401438D01*
X140083886Y-75415756D01*
X140080369Y-75429797D01*
X140075492Y-75443426D01*
X140069303Y-75456511D01*
X140061862Y-75468927D01*
X140053239Y-75480553D01*
X140043518Y-75491278D01*
X140032793Y-75500999D01*
X140021167Y-75509622D01*
X140008751Y-75517063D01*
X139995666Y-75523252D01*
X139982037Y-75528129D01*
X139967996Y-75531646D01*
X139953678Y-75533770D01*
X139939220Y-75534480D01*
X139644220Y-75534480D01*
X139629762Y-75533770D01*
X139615444Y-75531646D01*
X139601403Y-75528129D01*
X139587774Y-75523252D01*
X139574689Y-75517063D01*
X139562273Y-75509622D01*
X139550647Y-75500999D01*
X139539922Y-75491278D01*
X139530201Y-75480553D01*
X139521578Y-75468927D01*
X139514137Y-75456511D01*
X139507948Y-75443426D01*
X139503071Y-75429797D01*
X139499554Y-75415756D01*
X139497430Y-75401438D01*
X139496720Y-75386980D01*
X139496720Y-75041980D01*
X139497430Y-75027522D01*
X139499554Y-75013204D01*
X139503071Y-74999163D01*
X139507948Y-74985534D01*
X139514137Y-74972449D01*
X139521578Y-74960033D01*
X139530201Y-74948407D01*
X139539922Y-74937682D01*
X139550647Y-74927961D01*
X139562273Y-74919338D01*
X139574689Y-74911897D01*
X139587774Y-74905708D01*
X139601403Y-74900831D01*
X139615444Y-74897314D01*
X139629762Y-74895190D01*
X139644220Y-74894480D01*
X139939220Y-74894480D01*
X139953678Y-74895190D01*
X139953678Y-74895190D01*
G37*
D13*
%TD*%
%TO.P,C2,1*%
%TO.N,XC1*%
X139791720Y-75214480D03*
D12*
%TO.N,D1*%
%TO.C,C1*%
G36*
X144382758Y-87114870D02*
G01*
X144397076Y-87116994D01*
X144411117Y-87120511D01*
X144424746Y-87125388D01*
X144437831Y-87131577D01*
X144450247Y-87139018D01*
X144461873Y-87147641D01*
X144472598Y-87157362D01*
X144482319Y-87168087D01*
X144490942Y-87179713D01*
X144498383Y-87192129D01*
X144504572Y-87205214D01*
X144509449Y-87218843D01*
X144512966Y-87232884D01*
X144515090Y-87247202D01*
X144515800Y-87261660D01*
X144515800Y-87556660D01*
X144515090Y-87571118D01*
X144512966Y-87585436D01*
X144509449Y-87599477D01*
X144504572Y-87613106D01*
X144498383Y-87626191D01*
X144490942Y-87638607D01*
X144482319Y-87650233D01*
X144472598Y-87660958D01*
X144461873Y-87670679D01*
X144450247Y-87679302D01*
X144437831Y-87686743D01*
X144424746Y-87692932D01*
X144411117Y-87697809D01*
X144397076Y-87701326D01*
X144382758Y-87703450D01*
X144368300Y-87704160D01*
X144023300Y-87704160D01*
X144008842Y-87703450D01*
X143994524Y-87701326D01*
X143980483Y-87697809D01*
X143966854Y-87692932D01*
X143953769Y-87686743D01*
X143941353Y-87679302D01*
X143929727Y-87670679D01*
X143919002Y-87660958D01*
X143909281Y-87650233D01*
X143900658Y-87638607D01*
X143893217Y-87626191D01*
X143887028Y-87613106D01*
X143882151Y-87599477D01*
X143878634Y-87585436D01*
X143876510Y-87571118D01*
X143875800Y-87556660D01*
X143875800Y-87261660D01*
X143876510Y-87247202D01*
X143878634Y-87232884D01*
X143882151Y-87218843D01*
X143887028Y-87205214D01*
X143893217Y-87192129D01*
X143900658Y-87179713D01*
X143909281Y-87168087D01*
X143919002Y-87157362D01*
X143929727Y-87147641D01*
X143941353Y-87139018D01*
X143953769Y-87131577D01*
X143966854Y-87125388D01*
X143980483Y-87120511D01*
X143994524Y-87116994D01*
X144008842Y-87114870D01*
X144023300Y-87114160D01*
X144368300Y-87114160D01*
X144382758Y-87114870D01*
X144382758Y-87114870D01*
G37*
D13*
%TD*%
%TO.P,C1,2*%
%TO.N,D1*%
X144195800Y-87409160D03*
D12*
%TO.N,VSS*%
%TO.C,C1*%
G36*
X144382758Y-88084870D02*
G01*
X144397076Y-88086994D01*
X144411117Y-88090511D01*
X144424746Y-88095388D01*
X144437831Y-88101577D01*
X144450247Y-88109018D01*
X144461873Y-88117641D01*
X144472598Y-88127362D01*
X144482319Y-88138087D01*
X144490942Y-88149713D01*
X144498383Y-88162129D01*
X144504572Y-88175214D01*
X144509449Y-88188843D01*
X144512966Y-88202884D01*
X144515090Y-88217202D01*
X144515800Y-88231660D01*
X144515800Y-88526660D01*
X144515090Y-88541118D01*
X144512966Y-88555436D01*
X144509449Y-88569477D01*
X144504572Y-88583106D01*
X144498383Y-88596191D01*
X144490942Y-88608607D01*
X144482319Y-88620233D01*
X144472598Y-88630958D01*
X144461873Y-88640679D01*
X144450247Y-88649302D01*
X144437831Y-88656743D01*
X144424746Y-88662932D01*
X144411117Y-88667809D01*
X144397076Y-88671326D01*
X144382758Y-88673450D01*
X144368300Y-88674160D01*
X144023300Y-88674160D01*
X144008842Y-88673450D01*
X143994524Y-88671326D01*
X143980483Y-88667809D01*
X143966854Y-88662932D01*
X143953769Y-88656743D01*
X143941353Y-88649302D01*
X143929727Y-88640679D01*
X143919002Y-88630958D01*
X143909281Y-88620233D01*
X143900658Y-88608607D01*
X143893217Y-88596191D01*
X143887028Y-88583106D01*
X143882151Y-88569477D01*
X143878634Y-88555436D01*
X143876510Y-88541118D01*
X143875800Y-88526660D01*
X143875800Y-88231660D01*
X143876510Y-88217202D01*
X143878634Y-88202884D01*
X143882151Y-88188843D01*
X143887028Y-88175214D01*
X143893217Y-88162129D01*
X143900658Y-88149713D01*
X143909281Y-88138087D01*
X143919002Y-88127362D01*
X143929727Y-88117641D01*
X143941353Y-88109018D01*
X143953769Y-88101577D01*
X143966854Y-88095388D01*
X143980483Y-88090511D01*
X143994524Y-88086994D01*
X144008842Y-88084870D01*
X144023300Y-88084160D01*
X144368300Y-88084160D01*
X144382758Y-88084870D01*
X144382758Y-88084870D01*
G37*
D13*
%TD*%
%TO.P,C1,1*%
%TO.N,VSS*%
X144195800Y-88379160D03*
D15*
%TO.P,J4,2*%
%TO.N,VSS*%
X149429240Y-75016360D03*
X143779240Y-75016360D03*
D16*
%TO.P,J4,1*%
%TO.N,Net-(J4-Pad1)*%
X146604240Y-74816360D03*
%TD*%
D17*
%TO.P,Y1,4*%
%TO.N,VSS*%
X141174840Y-76563040D03*
%TO.P,Y1,3*%
%TO.N,XC2*%
X141174840Y-78763040D03*
%TO.P,Y1,2*%
%TO.N,VSS*%
X139474840Y-78763040D03*
%TO.P,Y1,1*%
%TO.N,XC1*%
X139474840Y-76563040D03*
%TD*%
D10*
%TO.P,J2,7*%
%TO.N,0.27*%
X137139680Y-75285600D03*
%TO.P,J2,6*%
%TO.N,0.28*%
X137139680Y-77825600D03*
%TO.P,J2,5*%
%TO.N,0.29*%
X137139680Y-80365600D03*
%TO.P,J2,4*%
%TO.N,0.30*%
X137139680Y-82905600D03*
%TO.P,J2,3*%
%TO.N,0.05_RTS*%
X137139680Y-85445600D03*
%TO.P,J2,2*%
%TO.N,0.06_TX*%
X137139680Y-87985600D03*
D11*
%TO.P,J2,1*%
%TO.N,VSS*%
X137139680Y-90525600D03*
%TD*%
D12*
%TO.N,VSS*%
%TO.C,C8*%
G36*
X143320331Y-88103073D02*
G01*
X143341566Y-88106223D01*
X143362390Y-88111439D01*
X143382602Y-88118671D01*
X143402008Y-88127850D01*
X143420421Y-88138886D01*
X143437664Y-88151674D01*
X143453570Y-88166090D01*
X143467986Y-88181996D01*
X143480774Y-88199239D01*
X143491810Y-88217652D01*
X143500989Y-88237058D01*
X143508221Y-88257270D01*
X143513437Y-88278094D01*
X143516587Y-88299329D01*
X143517640Y-88320770D01*
X143517640Y-88758270D01*
X143516587Y-88779711D01*
X143513437Y-88800946D01*
X143508221Y-88821770D01*
X143500989Y-88841982D01*
X143491810Y-88861388D01*
X143480774Y-88879801D01*
X143467986Y-88897044D01*
X143453570Y-88912950D01*
X143437664Y-88927366D01*
X143420421Y-88940154D01*
X143402008Y-88951190D01*
X143382602Y-88960369D01*
X143362390Y-88967601D01*
X143341566Y-88972817D01*
X143320331Y-88975967D01*
X143298890Y-88977020D01*
X142786390Y-88977020D01*
X142764949Y-88975967D01*
X142743714Y-88972817D01*
X142722890Y-88967601D01*
X142702678Y-88960369D01*
X142683272Y-88951190D01*
X142664859Y-88940154D01*
X142647616Y-88927366D01*
X142631710Y-88912950D01*
X142617294Y-88897044D01*
X142604506Y-88879801D01*
X142593470Y-88861388D01*
X142584291Y-88841982D01*
X142577059Y-88821770D01*
X142571843Y-88800946D01*
X142568693Y-88779711D01*
X142567640Y-88758270D01*
X142567640Y-88320770D01*
X142568693Y-88299329D01*
X142571843Y-88278094D01*
X142577059Y-88257270D01*
X142584291Y-88237058D01*
X142593470Y-88217652D01*
X142604506Y-88199239D01*
X142617294Y-88181996D01*
X142631710Y-88166090D01*
X142647616Y-88151674D01*
X142664859Y-88138886D01*
X142683272Y-88127850D01*
X142702678Y-88118671D01*
X142722890Y-88111439D01*
X142743714Y-88106223D01*
X142764949Y-88103073D01*
X142786390Y-88102020D01*
X143298890Y-88102020D01*
X143320331Y-88103073D01*
X143320331Y-88103073D01*
G37*
D14*
%TD*%
%TO.P,C8,1*%
%TO.N,VSS*%
X143042640Y-88539520D03*
D12*
%TO.N,VDD*%
%TO.C,C8*%
G36*
X143320331Y-86528073D02*
G01*
X143341566Y-86531223D01*
X143362390Y-86536439D01*
X143382602Y-86543671D01*
X143402008Y-86552850D01*
X143420421Y-86563886D01*
X143437664Y-86576674D01*
X143453570Y-86591090D01*
X143467986Y-86606996D01*
X143480774Y-86624239D01*
X143491810Y-86642652D01*
X143500989Y-86662058D01*
X143508221Y-86682270D01*
X143513437Y-86703094D01*
X143516587Y-86724329D01*
X143517640Y-86745770D01*
X143517640Y-87183270D01*
X143516587Y-87204711D01*
X143513437Y-87225946D01*
X143508221Y-87246770D01*
X143500989Y-87266982D01*
X143491810Y-87286388D01*
X143480774Y-87304801D01*
X143467986Y-87322044D01*
X143453570Y-87337950D01*
X143437664Y-87352366D01*
X143420421Y-87365154D01*
X143402008Y-87376190D01*
X143382602Y-87385369D01*
X143362390Y-87392601D01*
X143341566Y-87397817D01*
X143320331Y-87400967D01*
X143298890Y-87402020D01*
X142786390Y-87402020D01*
X142764949Y-87400967D01*
X142743714Y-87397817D01*
X142722890Y-87392601D01*
X142702678Y-87385369D01*
X142683272Y-87376190D01*
X142664859Y-87365154D01*
X142647616Y-87352366D01*
X142631710Y-87337950D01*
X142617294Y-87322044D01*
X142604506Y-87304801D01*
X142593470Y-87286388D01*
X142584291Y-87266982D01*
X142577059Y-87246770D01*
X142571843Y-87225946D01*
X142568693Y-87204711D01*
X142567640Y-87183270D01*
X142567640Y-86745770D01*
X142568693Y-86724329D01*
X142571843Y-86703094D01*
X142577059Y-86682270D01*
X142584291Y-86662058D01*
X142593470Y-86642652D01*
X142604506Y-86624239D01*
X142617294Y-86606996D01*
X142631710Y-86591090D01*
X142647616Y-86576674D01*
X142664859Y-86563886D01*
X142683272Y-86552850D01*
X142702678Y-86543671D01*
X142722890Y-86536439D01*
X142743714Y-86531223D01*
X142764949Y-86528073D01*
X142786390Y-86527020D01*
X143298890Y-86527020D01*
X143320331Y-86528073D01*
X143320331Y-86528073D01*
G37*
D14*
%TD*%
%TO.P,C8,2*%
%TO.N,VDD*%
X143042640Y-86964520D03*
D12*
%TO.N,VSS*%
%TO.C,U1*%
G36*
X148444544Y-81119884D02*
G01*
X148468813Y-81123484D01*
X148492611Y-81129445D01*
X148515711Y-81137710D01*
X148537889Y-81148200D01*
X148558933Y-81160813D01*
X148578638Y-81175427D01*
X148596817Y-81191903D01*
X148613293Y-81210082D01*
X148627907Y-81229787D01*
X148640520Y-81250831D01*
X148651010Y-81273009D01*
X148659275Y-81296109D01*
X148665236Y-81319907D01*
X148668836Y-81344176D01*
X148670040Y-81368680D01*
X148670040Y-85468680D01*
X148668836Y-85493184D01*
X148665236Y-85517453D01*
X148659275Y-85541251D01*
X148651010Y-85564351D01*
X148640520Y-85586529D01*
X148627907Y-85607573D01*
X148613293Y-85627278D01*
X148596817Y-85645457D01*
X148578638Y-85661933D01*
X148558933Y-85676547D01*
X148537889Y-85689160D01*
X148515711Y-85699650D01*
X148492611Y-85707915D01*
X148468813Y-85713876D01*
X148444544Y-85717476D01*
X148420040Y-85718680D01*
X144320040Y-85718680D01*
X144295536Y-85717476D01*
X144271267Y-85713876D01*
X144247469Y-85707915D01*
X144224369Y-85699650D01*
X144202191Y-85689160D01*
X144181147Y-85676547D01*
X144161442Y-85661933D01*
X144143263Y-85645457D01*
X144126787Y-85627278D01*
X144112173Y-85607573D01*
X144099560Y-85586529D01*
X144089070Y-85564351D01*
X144080805Y-85541251D01*
X144074844Y-85517453D01*
X144071244Y-85493184D01*
X144070040Y-85468680D01*
X144070040Y-81368680D01*
X144071244Y-81344176D01*
X144074844Y-81319907D01*
X144080805Y-81296109D01*
X144089070Y-81273009D01*
X144099560Y-81250831D01*
X144112173Y-81229787D01*
X144126787Y-81210082D01*
X144143263Y-81191903D01*
X144161442Y-81175427D01*
X144181147Y-81160813D01*
X144202191Y-81148200D01*
X144224369Y-81137710D01*
X144247469Y-81129445D01*
X144271267Y-81123484D01*
X144295536Y-81119884D01*
X144320040Y-81118680D01*
X148420040Y-81118680D01*
X148444544Y-81119884D01*
X148444544Y-81119884D01*
G37*
D18*
%TD*%
%TO.P,U1,49*%
%TO.N,VSS*%
X146370040Y-83418680D03*
D12*
%TO.N,D1*%
%TO.C,U1*%
G36*
X144224941Y-85968921D02*
G01*
X144229795Y-85969641D01*
X144234554Y-85970833D01*
X144239174Y-85972486D01*
X144243610Y-85974584D01*
X144247819Y-85977107D01*
X144251760Y-85980029D01*
X144255395Y-85983325D01*
X144258691Y-85986960D01*
X144261613Y-85990901D01*
X144264136Y-85995110D01*
X144266234Y-85999546D01*
X144267887Y-86004166D01*
X144269079Y-86008925D01*
X144269799Y-86013779D01*
X144270040Y-86018680D01*
X144270040Y-86718680D01*
X144269799Y-86723581D01*
X144269079Y-86728435D01*
X144267887Y-86733194D01*
X144266234Y-86737814D01*
X144264136Y-86742250D01*
X144261613Y-86746459D01*
X144258691Y-86750400D01*
X144255395Y-86754035D01*
X144251760Y-86757331D01*
X144247819Y-86760253D01*
X144243610Y-86762776D01*
X144239174Y-86764874D01*
X144234554Y-86766527D01*
X144229795Y-86767719D01*
X144224941Y-86768439D01*
X144220040Y-86768680D01*
X144120040Y-86768680D01*
X144115139Y-86768439D01*
X144110285Y-86767719D01*
X144105526Y-86766527D01*
X144100906Y-86764874D01*
X144096470Y-86762776D01*
X144092261Y-86760253D01*
X144088320Y-86757331D01*
X144084685Y-86754035D01*
X144081389Y-86750400D01*
X144078467Y-86746459D01*
X144075944Y-86742250D01*
X144073846Y-86737814D01*
X144072193Y-86733194D01*
X144071001Y-86728435D01*
X144070281Y-86723581D01*
X144070040Y-86718680D01*
X144070040Y-86018680D01*
X144070281Y-86013779D01*
X144071001Y-86008925D01*
X144072193Y-86004166D01*
X144073846Y-85999546D01*
X144075944Y-85995110D01*
X144078467Y-85990901D01*
X144081389Y-85986960D01*
X144084685Y-85983325D01*
X144088320Y-85980029D01*
X144092261Y-85977107D01*
X144096470Y-85974584D01*
X144100906Y-85972486D01*
X144105526Y-85970833D01*
X144110285Y-85969641D01*
X144115139Y-85968921D01*
X144120040Y-85968680D01*
X144220040Y-85968680D01*
X144224941Y-85968921D01*
X144224941Y-85968921D01*
G37*
D19*
%TD*%
%TO.P,U1,1*%
%TO.N,D1*%
X144170040Y-86368680D03*
D12*
%TO.N,Net-(U1-Pad2)*%
%TO.C,U1*%
G36*
X144624941Y-85968921D02*
G01*
X144629795Y-85969641D01*
X144634554Y-85970833D01*
X144639174Y-85972486D01*
X144643610Y-85974584D01*
X144647819Y-85977107D01*
X144651760Y-85980029D01*
X144655395Y-85983325D01*
X144658691Y-85986960D01*
X144661613Y-85990901D01*
X144664136Y-85995110D01*
X144666234Y-85999546D01*
X144667887Y-86004166D01*
X144669079Y-86008925D01*
X144669799Y-86013779D01*
X144670040Y-86018680D01*
X144670040Y-86718680D01*
X144669799Y-86723581D01*
X144669079Y-86728435D01*
X144667887Y-86733194D01*
X144666234Y-86737814D01*
X144664136Y-86742250D01*
X144661613Y-86746459D01*
X144658691Y-86750400D01*
X144655395Y-86754035D01*
X144651760Y-86757331D01*
X144647819Y-86760253D01*
X144643610Y-86762776D01*
X144639174Y-86764874D01*
X144634554Y-86766527D01*
X144629795Y-86767719D01*
X144624941Y-86768439D01*
X144620040Y-86768680D01*
X144520040Y-86768680D01*
X144515139Y-86768439D01*
X144510285Y-86767719D01*
X144505526Y-86766527D01*
X144500906Y-86764874D01*
X144496470Y-86762776D01*
X144492261Y-86760253D01*
X144488320Y-86757331D01*
X144484685Y-86754035D01*
X144481389Y-86750400D01*
X144478467Y-86746459D01*
X144475944Y-86742250D01*
X144473846Y-86737814D01*
X144472193Y-86733194D01*
X144471001Y-86728435D01*
X144470281Y-86723581D01*
X144470040Y-86718680D01*
X144470040Y-86018680D01*
X144470281Y-86013779D01*
X144471001Y-86008925D01*
X144472193Y-86004166D01*
X144473846Y-85999546D01*
X144475944Y-85995110D01*
X144478467Y-85990901D01*
X144481389Y-85986960D01*
X144484685Y-85983325D01*
X144488320Y-85980029D01*
X144492261Y-85977107D01*
X144496470Y-85974584D01*
X144500906Y-85972486D01*
X144505526Y-85970833D01*
X144510285Y-85969641D01*
X144515139Y-85968921D01*
X144520040Y-85968680D01*
X144620040Y-85968680D01*
X144624941Y-85968921D01*
X144624941Y-85968921D01*
G37*
D19*
%TD*%
%TO.P,U1,2*%
%TO.N,Net-(U1-Pad2)*%
X144570040Y-86368680D03*
D12*
%TO.N,Net-(U1-Pad3)*%
%TO.C,U1*%
G36*
X145024941Y-85968921D02*
G01*
X145029795Y-85969641D01*
X145034554Y-85970833D01*
X145039174Y-85972486D01*
X145043610Y-85974584D01*
X145047819Y-85977107D01*
X145051760Y-85980029D01*
X145055395Y-85983325D01*
X145058691Y-85986960D01*
X145061613Y-85990901D01*
X145064136Y-85995110D01*
X145066234Y-85999546D01*
X145067887Y-86004166D01*
X145069079Y-86008925D01*
X145069799Y-86013779D01*
X145070040Y-86018680D01*
X145070040Y-86718680D01*
X145069799Y-86723581D01*
X145069079Y-86728435D01*
X145067887Y-86733194D01*
X145066234Y-86737814D01*
X145064136Y-86742250D01*
X145061613Y-86746459D01*
X145058691Y-86750400D01*
X145055395Y-86754035D01*
X145051760Y-86757331D01*
X145047819Y-86760253D01*
X145043610Y-86762776D01*
X145039174Y-86764874D01*
X145034554Y-86766527D01*
X145029795Y-86767719D01*
X145024941Y-86768439D01*
X145020040Y-86768680D01*
X144920040Y-86768680D01*
X144915139Y-86768439D01*
X144910285Y-86767719D01*
X144905526Y-86766527D01*
X144900906Y-86764874D01*
X144896470Y-86762776D01*
X144892261Y-86760253D01*
X144888320Y-86757331D01*
X144884685Y-86754035D01*
X144881389Y-86750400D01*
X144878467Y-86746459D01*
X144875944Y-86742250D01*
X144873846Y-86737814D01*
X144872193Y-86733194D01*
X144871001Y-86728435D01*
X144870281Y-86723581D01*
X144870040Y-86718680D01*
X144870040Y-86018680D01*
X144870281Y-86013779D01*
X144871001Y-86008925D01*
X144872193Y-86004166D01*
X144873846Y-85999546D01*
X144875944Y-85995110D01*
X144878467Y-85990901D01*
X144881389Y-85986960D01*
X144884685Y-85983325D01*
X144888320Y-85980029D01*
X144892261Y-85977107D01*
X144896470Y-85974584D01*
X144900906Y-85972486D01*
X144905526Y-85970833D01*
X144910285Y-85969641D01*
X144915139Y-85968921D01*
X144920040Y-85968680D01*
X145020040Y-85968680D01*
X145024941Y-85968921D01*
X145024941Y-85968921D01*
G37*
D19*
%TD*%
%TO.P,U1,3*%
%TO.N,Net-(U1-Pad3)*%
X144970040Y-86368680D03*
D12*
%TO.N,Net-(U1-Pad4)*%
%TO.C,U1*%
G36*
X145424941Y-85968921D02*
G01*
X145429795Y-85969641D01*
X145434554Y-85970833D01*
X145439174Y-85972486D01*
X145443610Y-85974584D01*
X145447819Y-85977107D01*
X145451760Y-85980029D01*
X145455395Y-85983325D01*
X145458691Y-85986960D01*
X145461613Y-85990901D01*
X145464136Y-85995110D01*
X145466234Y-85999546D01*
X145467887Y-86004166D01*
X145469079Y-86008925D01*
X145469799Y-86013779D01*
X145470040Y-86018680D01*
X145470040Y-86718680D01*
X145469799Y-86723581D01*
X145469079Y-86728435D01*
X145467887Y-86733194D01*
X145466234Y-86737814D01*
X145464136Y-86742250D01*
X145461613Y-86746459D01*
X145458691Y-86750400D01*
X145455395Y-86754035D01*
X145451760Y-86757331D01*
X145447819Y-86760253D01*
X145443610Y-86762776D01*
X145439174Y-86764874D01*
X145434554Y-86766527D01*
X145429795Y-86767719D01*
X145424941Y-86768439D01*
X145420040Y-86768680D01*
X145320040Y-86768680D01*
X145315139Y-86768439D01*
X145310285Y-86767719D01*
X145305526Y-86766527D01*
X145300906Y-86764874D01*
X145296470Y-86762776D01*
X145292261Y-86760253D01*
X145288320Y-86757331D01*
X145284685Y-86754035D01*
X145281389Y-86750400D01*
X145278467Y-86746459D01*
X145275944Y-86742250D01*
X145273846Y-86737814D01*
X145272193Y-86733194D01*
X145271001Y-86728435D01*
X145270281Y-86723581D01*
X145270040Y-86718680D01*
X145270040Y-86018680D01*
X145270281Y-86013779D01*
X145271001Y-86008925D01*
X145272193Y-86004166D01*
X145273846Y-85999546D01*
X145275944Y-85995110D01*
X145278467Y-85990901D01*
X145281389Y-85986960D01*
X145284685Y-85983325D01*
X145288320Y-85980029D01*
X145292261Y-85977107D01*
X145296470Y-85974584D01*
X145300906Y-85972486D01*
X145305526Y-85970833D01*
X145310285Y-85969641D01*
X145315139Y-85968921D01*
X145320040Y-85968680D01*
X145420040Y-85968680D01*
X145424941Y-85968921D01*
X145424941Y-85968921D01*
G37*
D19*
%TD*%
%TO.P,U1,4*%
%TO.N,Net-(U1-Pad4)*%
X145370040Y-86368680D03*
D12*
%TO.N,Net-(U1-Pad5)*%
%TO.C,U1*%
G36*
X145824941Y-85968921D02*
G01*
X145829795Y-85969641D01*
X145834554Y-85970833D01*
X145839174Y-85972486D01*
X145843610Y-85974584D01*
X145847819Y-85977107D01*
X145851760Y-85980029D01*
X145855395Y-85983325D01*
X145858691Y-85986960D01*
X145861613Y-85990901D01*
X145864136Y-85995110D01*
X145866234Y-85999546D01*
X145867887Y-86004166D01*
X145869079Y-86008925D01*
X145869799Y-86013779D01*
X145870040Y-86018680D01*
X145870040Y-86718680D01*
X145869799Y-86723581D01*
X145869079Y-86728435D01*
X145867887Y-86733194D01*
X145866234Y-86737814D01*
X145864136Y-86742250D01*
X145861613Y-86746459D01*
X145858691Y-86750400D01*
X145855395Y-86754035D01*
X145851760Y-86757331D01*
X145847819Y-86760253D01*
X145843610Y-86762776D01*
X145839174Y-86764874D01*
X145834554Y-86766527D01*
X145829795Y-86767719D01*
X145824941Y-86768439D01*
X145820040Y-86768680D01*
X145720040Y-86768680D01*
X145715139Y-86768439D01*
X145710285Y-86767719D01*
X145705526Y-86766527D01*
X145700906Y-86764874D01*
X145696470Y-86762776D01*
X145692261Y-86760253D01*
X145688320Y-86757331D01*
X145684685Y-86754035D01*
X145681389Y-86750400D01*
X145678467Y-86746459D01*
X145675944Y-86742250D01*
X145673846Y-86737814D01*
X145672193Y-86733194D01*
X145671001Y-86728435D01*
X145670281Y-86723581D01*
X145670040Y-86718680D01*
X145670040Y-86018680D01*
X145670281Y-86013779D01*
X145671001Y-86008925D01*
X145672193Y-86004166D01*
X145673846Y-85999546D01*
X145675944Y-85995110D01*
X145678467Y-85990901D01*
X145681389Y-85986960D01*
X145684685Y-85983325D01*
X145688320Y-85980029D01*
X145692261Y-85977107D01*
X145696470Y-85974584D01*
X145700906Y-85972486D01*
X145705526Y-85970833D01*
X145710285Y-85969641D01*
X145715139Y-85968921D01*
X145720040Y-85968680D01*
X145820040Y-85968680D01*
X145824941Y-85968921D01*
X145824941Y-85968921D01*
G37*
D19*
%TD*%
%TO.P,U1,5*%
%TO.N,Net-(U1-Pad5)*%
X145770040Y-86368680D03*
D12*
%TO.N,Net-(U1-Pad6)*%
%TO.C,U1*%
G36*
X146224941Y-85968921D02*
G01*
X146229795Y-85969641D01*
X146234554Y-85970833D01*
X146239174Y-85972486D01*
X146243610Y-85974584D01*
X146247819Y-85977107D01*
X146251760Y-85980029D01*
X146255395Y-85983325D01*
X146258691Y-85986960D01*
X146261613Y-85990901D01*
X146264136Y-85995110D01*
X146266234Y-85999546D01*
X146267887Y-86004166D01*
X146269079Y-86008925D01*
X146269799Y-86013779D01*
X146270040Y-86018680D01*
X146270040Y-86718680D01*
X146269799Y-86723581D01*
X146269079Y-86728435D01*
X146267887Y-86733194D01*
X146266234Y-86737814D01*
X146264136Y-86742250D01*
X146261613Y-86746459D01*
X146258691Y-86750400D01*
X146255395Y-86754035D01*
X146251760Y-86757331D01*
X146247819Y-86760253D01*
X146243610Y-86762776D01*
X146239174Y-86764874D01*
X146234554Y-86766527D01*
X146229795Y-86767719D01*
X146224941Y-86768439D01*
X146220040Y-86768680D01*
X146120040Y-86768680D01*
X146115139Y-86768439D01*
X146110285Y-86767719D01*
X146105526Y-86766527D01*
X146100906Y-86764874D01*
X146096470Y-86762776D01*
X146092261Y-86760253D01*
X146088320Y-86757331D01*
X146084685Y-86754035D01*
X146081389Y-86750400D01*
X146078467Y-86746459D01*
X146075944Y-86742250D01*
X146073846Y-86737814D01*
X146072193Y-86733194D01*
X146071001Y-86728435D01*
X146070281Y-86723581D01*
X146070040Y-86718680D01*
X146070040Y-86018680D01*
X146070281Y-86013779D01*
X146071001Y-86008925D01*
X146072193Y-86004166D01*
X146073846Y-85999546D01*
X146075944Y-85995110D01*
X146078467Y-85990901D01*
X146081389Y-85986960D01*
X146084685Y-85983325D01*
X146088320Y-85980029D01*
X146092261Y-85977107D01*
X146096470Y-85974584D01*
X146100906Y-85972486D01*
X146105526Y-85970833D01*
X146110285Y-85969641D01*
X146115139Y-85968921D01*
X146120040Y-85968680D01*
X146220040Y-85968680D01*
X146224941Y-85968921D01*
X146224941Y-85968921D01*
G37*
D19*
%TD*%
%TO.P,U1,6*%
%TO.N,Net-(U1-Pad6)*%
X146170040Y-86368680D03*
D12*
%TO.N,0.05_RTS*%
%TO.C,U1*%
G36*
X146624941Y-85968921D02*
G01*
X146629795Y-85969641D01*
X146634554Y-85970833D01*
X146639174Y-85972486D01*
X146643610Y-85974584D01*
X146647819Y-85977107D01*
X146651760Y-85980029D01*
X146655395Y-85983325D01*
X146658691Y-85986960D01*
X146661613Y-85990901D01*
X146664136Y-85995110D01*
X146666234Y-85999546D01*
X146667887Y-86004166D01*
X146669079Y-86008925D01*
X146669799Y-86013779D01*
X146670040Y-86018680D01*
X146670040Y-86718680D01*
X146669799Y-86723581D01*
X146669079Y-86728435D01*
X146667887Y-86733194D01*
X146666234Y-86737814D01*
X146664136Y-86742250D01*
X146661613Y-86746459D01*
X146658691Y-86750400D01*
X146655395Y-86754035D01*
X146651760Y-86757331D01*
X146647819Y-86760253D01*
X146643610Y-86762776D01*
X146639174Y-86764874D01*
X146634554Y-86766527D01*
X146629795Y-86767719D01*
X146624941Y-86768439D01*
X146620040Y-86768680D01*
X146520040Y-86768680D01*
X146515139Y-86768439D01*
X146510285Y-86767719D01*
X146505526Y-86766527D01*
X146500906Y-86764874D01*
X146496470Y-86762776D01*
X146492261Y-86760253D01*
X146488320Y-86757331D01*
X146484685Y-86754035D01*
X146481389Y-86750400D01*
X146478467Y-86746459D01*
X146475944Y-86742250D01*
X146473846Y-86737814D01*
X146472193Y-86733194D01*
X146471001Y-86728435D01*
X146470281Y-86723581D01*
X146470040Y-86718680D01*
X146470040Y-86018680D01*
X146470281Y-86013779D01*
X146471001Y-86008925D01*
X146472193Y-86004166D01*
X146473846Y-85999546D01*
X146475944Y-85995110D01*
X146478467Y-85990901D01*
X146481389Y-85986960D01*
X146484685Y-85983325D01*
X146488320Y-85980029D01*
X146492261Y-85977107D01*
X146496470Y-85974584D01*
X146500906Y-85972486D01*
X146505526Y-85970833D01*
X146510285Y-85969641D01*
X146515139Y-85968921D01*
X146520040Y-85968680D01*
X146620040Y-85968680D01*
X146624941Y-85968921D01*
X146624941Y-85968921D01*
G37*
D19*
%TD*%
%TO.P,U1,7*%
%TO.N,0.05_RTS*%
X146570040Y-86368680D03*
D12*
%TO.N,0.06_TX*%
%TO.C,U1*%
G36*
X147024941Y-85968921D02*
G01*
X147029795Y-85969641D01*
X147034554Y-85970833D01*
X147039174Y-85972486D01*
X147043610Y-85974584D01*
X147047819Y-85977107D01*
X147051760Y-85980029D01*
X147055395Y-85983325D01*
X147058691Y-85986960D01*
X147061613Y-85990901D01*
X147064136Y-85995110D01*
X147066234Y-85999546D01*
X147067887Y-86004166D01*
X147069079Y-86008925D01*
X147069799Y-86013779D01*
X147070040Y-86018680D01*
X147070040Y-86718680D01*
X147069799Y-86723581D01*
X147069079Y-86728435D01*
X147067887Y-86733194D01*
X147066234Y-86737814D01*
X147064136Y-86742250D01*
X147061613Y-86746459D01*
X147058691Y-86750400D01*
X147055395Y-86754035D01*
X147051760Y-86757331D01*
X147047819Y-86760253D01*
X147043610Y-86762776D01*
X147039174Y-86764874D01*
X147034554Y-86766527D01*
X147029795Y-86767719D01*
X147024941Y-86768439D01*
X147020040Y-86768680D01*
X146920040Y-86768680D01*
X146915139Y-86768439D01*
X146910285Y-86767719D01*
X146905526Y-86766527D01*
X146900906Y-86764874D01*
X146896470Y-86762776D01*
X146892261Y-86760253D01*
X146888320Y-86757331D01*
X146884685Y-86754035D01*
X146881389Y-86750400D01*
X146878467Y-86746459D01*
X146875944Y-86742250D01*
X146873846Y-86737814D01*
X146872193Y-86733194D01*
X146871001Y-86728435D01*
X146870281Y-86723581D01*
X146870040Y-86718680D01*
X146870040Y-86018680D01*
X146870281Y-86013779D01*
X146871001Y-86008925D01*
X146872193Y-86004166D01*
X146873846Y-85999546D01*
X146875944Y-85995110D01*
X146878467Y-85990901D01*
X146881389Y-85986960D01*
X146884685Y-85983325D01*
X146888320Y-85980029D01*
X146892261Y-85977107D01*
X146896470Y-85974584D01*
X146900906Y-85972486D01*
X146905526Y-85970833D01*
X146910285Y-85969641D01*
X146915139Y-85968921D01*
X146920040Y-85968680D01*
X147020040Y-85968680D01*
X147024941Y-85968921D01*
X147024941Y-85968921D01*
G37*
D19*
%TD*%
%TO.P,U1,8*%
%TO.N,0.06_TX*%
X146970040Y-86368680D03*
D12*
%TO.N,0.07_CTS*%
%TO.C,U1*%
G36*
X147424941Y-85968921D02*
G01*
X147429795Y-85969641D01*
X147434554Y-85970833D01*
X147439174Y-85972486D01*
X147443610Y-85974584D01*
X147447819Y-85977107D01*
X147451760Y-85980029D01*
X147455395Y-85983325D01*
X147458691Y-85986960D01*
X147461613Y-85990901D01*
X147464136Y-85995110D01*
X147466234Y-85999546D01*
X147467887Y-86004166D01*
X147469079Y-86008925D01*
X147469799Y-86013779D01*
X147470040Y-86018680D01*
X147470040Y-86718680D01*
X147469799Y-86723581D01*
X147469079Y-86728435D01*
X147467887Y-86733194D01*
X147466234Y-86737814D01*
X147464136Y-86742250D01*
X147461613Y-86746459D01*
X147458691Y-86750400D01*
X147455395Y-86754035D01*
X147451760Y-86757331D01*
X147447819Y-86760253D01*
X147443610Y-86762776D01*
X147439174Y-86764874D01*
X147434554Y-86766527D01*
X147429795Y-86767719D01*
X147424941Y-86768439D01*
X147420040Y-86768680D01*
X147320040Y-86768680D01*
X147315139Y-86768439D01*
X147310285Y-86767719D01*
X147305526Y-86766527D01*
X147300906Y-86764874D01*
X147296470Y-86762776D01*
X147292261Y-86760253D01*
X147288320Y-86757331D01*
X147284685Y-86754035D01*
X147281389Y-86750400D01*
X147278467Y-86746459D01*
X147275944Y-86742250D01*
X147273846Y-86737814D01*
X147272193Y-86733194D01*
X147271001Y-86728435D01*
X147270281Y-86723581D01*
X147270040Y-86718680D01*
X147270040Y-86018680D01*
X147270281Y-86013779D01*
X147271001Y-86008925D01*
X147272193Y-86004166D01*
X147273846Y-85999546D01*
X147275944Y-85995110D01*
X147278467Y-85990901D01*
X147281389Y-85986960D01*
X147284685Y-85983325D01*
X147288320Y-85980029D01*
X147292261Y-85977107D01*
X147296470Y-85974584D01*
X147300906Y-85972486D01*
X147305526Y-85970833D01*
X147310285Y-85969641D01*
X147315139Y-85968921D01*
X147320040Y-85968680D01*
X147420040Y-85968680D01*
X147424941Y-85968921D01*
X147424941Y-85968921D01*
G37*
D19*
%TD*%
%TO.P,U1,9*%
%TO.N,0.07_CTS*%
X147370040Y-86368680D03*
D12*
%TO.N,0.08_RX*%
%TO.C,U1*%
G36*
X147824941Y-85968921D02*
G01*
X147829795Y-85969641D01*
X147834554Y-85970833D01*
X147839174Y-85972486D01*
X147843610Y-85974584D01*
X147847819Y-85977107D01*
X147851760Y-85980029D01*
X147855395Y-85983325D01*
X147858691Y-85986960D01*
X147861613Y-85990901D01*
X147864136Y-85995110D01*
X147866234Y-85999546D01*
X147867887Y-86004166D01*
X147869079Y-86008925D01*
X147869799Y-86013779D01*
X147870040Y-86018680D01*
X147870040Y-86718680D01*
X147869799Y-86723581D01*
X147869079Y-86728435D01*
X147867887Y-86733194D01*
X147866234Y-86737814D01*
X147864136Y-86742250D01*
X147861613Y-86746459D01*
X147858691Y-86750400D01*
X147855395Y-86754035D01*
X147851760Y-86757331D01*
X147847819Y-86760253D01*
X147843610Y-86762776D01*
X147839174Y-86764874D01*
X147834554Y-86766527D01*
X147829795Y-86767719D01*
X147824941Y-86768439D01*
X147820040Y-86768680D01*
X147720040Y-86768680D01*
X147715139Y-86768439D01*
X147710285Y-86767719D01*
X147705526Y-86766527D01*
X147700906Y-86764874D01*
X147696470Y-86762776D01*
X147692261Y-86760253D01*
X147688320Y-86757331D01*
X147684685Y-86754035D01*
X147681389Y-86750400D01*
X147678467Y-86746459D01*
X147675944Y-86742250D01*
X147673846Y-86737814D01*
X147672193Y-86733194D01*
X147671001Y-86728435D01*
X147670281Y-86723581D01*
X147670040Y-86718680D01*
X147670040Y-86018680D01*
X147670281Y-86013779D01*
X147671001Y-86008925D01*
X147672193Y-86004166D01*
X147673846Y-85999546D01*
X147675944Y-85995110D01*
X147678467Y-85990901D01*
X147681389Y-85986960D01*
X147684685Y-85983325D01*
X147688320Y-85980029D01*
X147692261Y-85977107D01*
X147696470Y-85974584D01*
X147700906Y-85972486D01*
X147705526Y-85970833D01*
X147710285Y-85969641D01*
X147715139Y-85968921D01*
X147720040Y-85968680D01*
X147820040Y-85968680D01*
X147824941Y-85968921D01*
X147824941Y-85968921D01*
G37*
D19*
%TD*%
%TO.P,U1,10*%
%TO.N,0.08_RX*%
X147770040Y-86368680D03*
D12*
%TO.N,Net-(U1-Pad11)*%
%TO.C,U1*%
G36*
X148224941Y-85968921D02*
G01*
X148229795Y-85969641D01*
X148234554Y-85970833D01*
X148239174Y-85972486D01*
X148243610Y-85974584D01*
X148247819Y-85977107D01*
X148251760Y-85980029D01*
X148255395Y-85983325D01*
X148258691Y-85986960D01*
X148261613Y-85990901D01*
X148264136Y-85995110D01*
X148266234Y-85999546D01*
X148267887Y-86004166D01*
X148269079Y-86008925D01*
X148269799Y-86013779D01*
X148270040Y-86018680D01*
X148270040Y-86718680D01*
X148269799Y-86723581D01*
X148269079Y-86728435D01*
X148267887Y-86733194D01*
X148266234Y-86737814D01*
X148264136Y-86742250D01*
X148261613Y-86746459D01*
X148258691Y-86750400D01*
X148255395Y-86754035D01*
X148251760Y-86757331D01*
X148247819Y-86760253D01*
X148243610Y-86762776D01*
X148239174Y-86764874D01*
X148234554Y-86766527D01*
X148229795Y-86767719D01*
X148224941Y-86768439D01*
X148220040Y-86768680D01*
X148120040Y-86768680D01*
X148115139Y-86768439D01*
X148110285Y-86767719D01*
X148105526Y-86766527D01*
X148100906Y-86764874D01*
X148096470Y-86762776D01*
X148092261Y-86760253D01*
X148088320Y-86757331D01*
X148084685Y-86754035D01*
X148081389Y-86750400D01*
X148078467Y-86746459D01*
X148075944Y-86742250D01*
X148073846Y-86737814D01*
X148072193Y-86733194D01*
X148071001Y-86728435D01*
X148070281Y-86723581D01*
X148070040Y-86718680D01*
X148070040Y-86018680D01*
X148070281Y-86013779D01*
X148071001Y-86008925D01*
X148072193Y-86004166D01*
X148073846Y-85999546D01*
X148075944Y-85995110D01*
X148078467Y-85990901D01*
X148081389Y-85986960D01*
X148084685Y-85983325D01*
X148088320Y-85980029D01*
X148092261Y-85977107D01*
X148096470Y-85974584D01*
X148100906Y-85972486D01*
X148105526Y-85970833D01*
X148110285Y-85969641D01*
X148115139Y-85968921D01*
X148120040Y-85968680D01*
X148220040Y-85968680D01*
X148224941Y-85968921D01*
X148224941Y-85968921D01*
G37*
D19*
%TD*%
%TO.P,U1,11*%
%TO.N,Net-(U1-Pad11)*%
X148170040Y-86368680D03*
D12*
%TO.N,Net-(U1-Pad12)*%
%TO.C,U1*%
G36*
X148624941Y-85968921D02*
G01*
X148629795Y-85969641D01*
X148634554Y-85970833D01*
X148639174Y-85972486D01*
X148643610Y-85974584D01*
X148647819Y-85977107D01*
X148651760Y-85980029D01*
X148655395Y-85983325D01*
X148658691Y-85986960D01*
X148661613Y-85990901D01*
X148664136Y-85995110D01*
X148666234Y-85999546D01*
X148667887Y-86004166D01*
X148669079Y-86008925D01*
X148669799Y-86013779D01*
X148670040Y-86018680D01*
X148670040Y-86718680D01*
X148669799Y-86723581D01*
X148669079Y-86728435D01*
X148667887Y-86733194D01*
X148666234Y-86737814D01*
X148664136Y-86742250D01*
X148661613Y-86746459D01*
X148658691Y-86750400D01*
X148655395Y-86754035D01*
X148651760Y-86757331D01*
X148647819Y-86760253D01*
X148643610Y-86762776D01*
X148639174Y-86764874D01*
X148634554Y-86766527D01*
X148629795Y-86767719D01*
X148624941Y-86768439D01*
X148620040Y-86768680D01*
X148520040Y-86768680D01*
X148515139Y-86768439D01*
X148510285Y-86767719D01*
X148505526Y-86766527D01*
X148500906Y-86764874D01*
X148496470Y-86762776D01*
X148492261Y-86760253D01*
X148488320Y-86757331D01*
X148484685Y-86754035D01*
X148481389Y-86750400D01*
X148478467Y-86746459D01*
X148475944Y-86742250D01*
X148473846Y-86737814D01*
X148472193Y-86733194D01*
X148471001Y-86728435D01*
X148470281Y-86723581D01*
X148470040Y-86718680D01*
X148470040Y-86018680D01*
X148470281Y-86013779D01*
X148471001Y-86008925D01*
X148472193Y-86004166D01*
X148473846Y-85999546D01*
X148475944Y-85995110D01*
X148478467Y-85990901D01*
X148481389Y-85986960D01*
X148484685Y-85983325D01*
X148488320Y-85980029D01*
X148492261Y-85977107D01*
X148496470Y-85974584D01*
X148500906Y-85972486D01*
X148505526Y-85970833D01*
X148510285Y-85969641D01*
X148515139Y-85968921D01*
X148520040Y-85968680D01*
X148620040Y-85968680D01*
X148624941Y-85968921D01*
X148624941Y-85968921D01*
G37*
D19*
%TD*%
%TO.P,U1,12*%
%TO.N,Net-(U1-Pad12)*%
X148570040Y-86368680D03*
D12*
%TO.N,VDD*%
%TO.C,U1*%
G36*
X149674941Y-85518921D02*
G01*
X149679795Y-85519641D01*
X149684554Y-85520833D01*
X149689174Y-85522486D01*
X149693610Y-85524584D01*
X149697819Y-85527107D01*
X149701760Y-85530029D01*
X149705395Y-85533325D01*
X149708691Y-85536960D01*
X149711613Y-85540901D01*
X149714136Y-85545110D01*
X149716234Y-85549546D01*
X149717887Y-85554166D01*
X149719079Y-85558925D01*
X149719799Y-85563779D01*
X149720040Y-85568680D01*
X149720040Y-85668680D01*
X149719799Y-85673581D01*
X149719079Y-85678435D01*
X149717887Y-85683194D01*
X149716234Y-85687814D01*
X149714136Y-85692250D01*
X149711613Y-85696459D01*
X149708691Y-85700400D01*
X149705395Y-85704035D01*
X149701760Y-85707331D01*
X149697819Y-85710253D01*
X149693610Y-85712776D01*
X149689174Y-85714874D01*
X149684554Y-85716527D01*
X149679795Y-85717719D01*
X149674941Y-85718439D01*
X149670040Y-85718680D01*
X148970040Y-85718680D01*
X148965139Y-85718439D01*
X148960285Y-85717719D01*
X148955526Y-85716527D01*
X148950906Y-85714874D01*
X148946470Y-85712776D01*
X148942261Y-85710253D01*
X148938320Y-85707331D01*
X148934685Y-85704035D01*
X148931389Y-85700400D01*
X148928467Y-85696459D01*
X148925944Y-85692250D01*
X148923846Y-85687814D01*
X148922193Y-85683194D01*
X148921001Y-85678435D01*
X148920281Y-85673581D01*
X148920040Y-85668680D01*
X148920040Y-85568680D01*
X148920281Y-85563779D01*
X148921001Y-85558925D01*
X148922193Y-85554166D01*
X148923846Y-85549546D01*
X148925944Y-85545110D01*
X148928467Y-85540901D01*
X148931389Y-85536960D01*
X148934685Y-85533325D01*
X148938320Y-85530029D01*
X148942261Y-85527107D01*
X148946470Y-85524584D01*
X148950906Y-85522486D01*
X148955526Y-85520833D01*
X148960285Y-85519641D01*
X148965139Y-85518921D01*
X148970040Y-85518680D01*
X149670040Y-85518680D01*
X149674941Y-85518921D01*
X149674941Y-85518921D01*
G37*
D19*
%TD*%
%TO.P,U1,13*%
%TO.N,VDD*%
X149320040Y-85618680D03*
D12*
%TO.N,Net-(U1-Pad14)*%
%TO.C,U1*%
G36*
X149674941Y-85118921D02*
G01*
X149679795Y-85119641D01*
X149684554Y-85120833D01*
X149689174Y-85122486D01*
X149693610Y-85124584D01*
X149697819Y-85127107D01*
X149701760Y-85130029D01*
X149705395Y-85133325D01*
X149708691Y-85136960D01*
X149711613Y-85140901D01*
X149714136Y-85145110D01*
X149716234Y-85149546D01*
X149717887Y-85154166D01*
X149719079Y-85158925D01*
X149719799Y-85163779D01*
X149720040Y-85168680D01*
X149720040Y-85268680D01*
X149719799Y-85273581D01*
X149719079Y-85278435D01*
X149717887Y-85283194D01*
X149716234Y-85287814D01*
X149714136Y-85292250D01*
X149711613Y-85296459D01*
X149708691Y-85300400D01*
X149705395Y-85304035D01*
X149701760Y-85307331D01*
X149697819Y-85310253D01*
X149693610Y-85312776D01*
X149689174Y-85314874D01*
X149684554Y-85316527D01*
X149679795Y-85317719D01*
X149674941Y-85318439D01*
X149670040Y-85318680D01*
X148970040Y-85318680D01*
X148965139Y-85318439D01*
X148960285Y-85317719D01*
X148955526Y-85316527D01*
X148950906Y-85314874D01*
X148946470Y-85312776D01*
X148942261Y-85310253D01*
X148938320Y-85307331D01*
X148934685Y-85304035D01*
X148931389Y-85300400D01*
X148928467Y-85296459D01*
X148925944Y-85292250D01*
X148923846Y-85287814D01*
X148922193Y-85283194D01*
X148921001Y-85278435D01*
X148920281Y-85273581D01*
X148920040Y-85268680D01*
X148920040Y-85168680D01*
X148920281Y-85163779D01*
X148921001Y-85158925D01*
X148922193Y-85154166D01*
X148923846Y-85149546D01*
X148925944Y-85145110D01*
X148928467Y-85140901D01*
X148931389Y-85136960D01*
X148934685Y-85133325D01*
X148938320Y-85130029D01*
X148942261Y-85127107D01*
X148946470Y-85124584D01*
X148950906Y-85122486D01*
X148955526Y-85120833D01*
X148960285Y-85119641D01*
X148965139Y-85118921D01*
X148970040Y-85118680D01*
X149670040Y-85118680D01*
X149674941Y-85118921D01*
X149674941Y-85118921D01*
G37*
D19*
%TD*%
%TO.P,U1,14*%
%TO.N,Net-(U1-Pad14)*%
X149320040Y-85218680D03*
D12*
%TO.N,Net-(U1-Pad15)*%
%TO.C,U1*%
G36*
X149674941Y-84718921D02*
G01*
X149679795Y-84719641D01*
X149684554Y-84720833D01*
X149689174Y-84722486D01*
X149693610Y-84724584D01*
X149697819Y-84727107D01*
X149701760Y-84730029D01*
X149705395Y-84733325D01*
X149708691Y-84736960D01*
X149711613Y-84740901D01*
X149714136Y-84745110D01*
X149716234Y-84749546D01*
X149717887Y-84754166D01*
X149719079Y-84758925D01*
X149719799Y-84763779D01*
X149720040Y-84768680D01*
X149720040Y-84868680D01*
X149719799Y-84873581D01*
X149719079Y-84878435D01*
X149717887Y-84883194D01*
X149716234Y-84887814D01*
X149714136Y-84892250D01*
X149711613Y-84896459D01*
X149708691Y-84900400D01*
X149705395Y-84904035D01*
X149701760Y-84907331D01*
X149697819Y-84910253D01*
X149693610Y-84912776D01*
X149689174Y-84914874D01*
X149684554Y-84916527D01*
X149679795Y-84917719D01*
X149674941Y-84918439D01*
X149670040Y-84918680D01*
X148970040Y-84918680D01*
X148965139Y-84918439D01*
X148960285Y-84917719D01*
X148955526Y-84916527D01*
X148950906Y-84914874D01*
X148946470Y-84912776D01*
X148942261Y-84910253D01*
X148938320Y-84907331D01*
X148934685Y-84904035D01*
X148931389Y-84900400D01*
X148928467Y-84896459D01*
X148925944Y-84892250D01*
X148923846Y-84887814D01*
X148922193Y-84883194D01*
X148921001Y-84878435D01*
X148920281Y-84873581D01*
X148920040Y-84868680D01*
X148920040Y-84768680D01*
X148920281Y-84763779D01*
X148921001Y-84758925D01*
X148922193Y-84754166D01*
X148923846Y-84749546D01*
X148925944Y-84745110D01*
X148928467Y-84740901D01*
X148931389Y-84736960D01*
X148934685Y-84733325D01*
X148938320Y-84730029D01*
X148942261Y-84727107D01*
X148946470Y-84724584D01*
X148950906Y-84722486D01*
X148955526Y-84720833D01*
X148960285Y-84719641D01*
X148965139Y-84718921D01*
X148970040Y-84718680D01*
X149670040Y-84718680D01*
X149674941Y-84718921D01*
X149674941Y-84718921D01*
G37*
D19*
%TD*%
%TO.P,U1,15*%
%TO.N,Net-(U1-Pad15)*%
X149320040Y-84818680D03*
D12*
%TO.N,Net-(U1-Pad16)*%
%TO.C,U1*%
G36*
X149674941Y-84318921D02*
G01*
X149679795Y-84319641D01*
X149684554Y-84320833D01*
X149689174Y-84322486D01*
X149693610Y-84324584D01*
X149697819Y-84327107D01*
X149701760Y-84330029D01*
X149705395Y-84333325D01*
X149708691Y-84336960D01*
X149711613Y-84340901D01*
X149714136Y-84345110D01*
X149716234Y-84349546D01*
X149717887Y-84354166D01*
X149719079Y-84358925D01*
X149719799Y-84363779D01*
X149720040Y-84368680D01*
X149720040Y-84468680D01*
X149719799Y-84473581D01*
X149719079Y-84478435D01*
X149717887Y-84483194D01*
X149716234Y-84487814D01*
X149714136Y-84492250D01*
X149711613Y-84496459D01*
X149708691Y-84500400D01*
X149705395Y-84504035D01*
X149701760Y-84507331D01*
X149697819Y-84510253D01*
X149693610Y-84512776D01*
X149689174Y-84514874D01*
X149684554Y-84516527D01*
X149679795Y-84517719D01*
X149674941Y-84518439D01*
X149670040Y-84518680D01*
X148970040Y-84518680D01*
X148965139Y-84518439D01*
X148960285Y-84517719D01*
X148955526Y-84516527D01*
X148950906Y-84514874D01*
X148946470Y-84512776D01*
X148942261Y-84510253D01*
X148938320Y-84507331D01*
X148934685Y-84504035D01*
X148931389Y-84500400D01*
X148928467Y-84496459D01*
X148925944Y-84492250D01*
X148923846Y-84487814D01*
X148922193Y-84483194D01*
X148921001Y-84478435D01*
X148920281Y-84473581D01*
X148920040Y-84468680D01*
X148920040Y-84368680D01*
X148920281Y-84363779D01*
X148921001Y-84358925D01*
X148922193Y-84354166D01*
X148923846Y-84349546D01*
X148925944Y-84345110D01*
X148928467Y-84340901D01*
X148931389Y-84336960D01*
X148934685Y-84333325D01*
X148938320Y-84330029D01*
X148942261Y-84327107D01*
X148946470Y-84324584D01*
X148950906Y-84322486D01*
X148955526Y-84320833D01*
X148960285Y-84319641D01*
X148965139Y-84318921D01*
X148970040Y-84318680D01*
X149670040Y-84318680D01*
X149674941Y-84318921D01*
X149674941Y-84318921D01*
G37*
D19*
%TD*%
%TO.P,U1,16*%
%TO.N,Net-(U1-Pad16)*%
X149320040Y-84418680D03*
D12*
%TO.N,Net-(U1-Pad17)*%
%TO.C,U1*%
G36*
X149674941Y-83918921D02*
G01*
X149679795Y-83919641D01*
X149684554Y-83920833D01*
X149689174Y-83922486D01*
X149693610Y-83924584D01*
X149697819Y-83927107D01*
X149701760Y-83930029D01*
X149705395Y-83933325D01*
X149708691Y-83936960D01*
X149711613Y-83940901D01*
X149714136Y-83945110D01*
X149716234Y-83949546D01*
X149717887Y-83954166D01*
X149719079Y-83958925D01*
X149719799Y-83963779D01*
X149720040Y-83968680D01*
X149720040Y-84068680D01*
X149719799Y-84073581D01*
X149719079Y-84078435D01*
X149717887Y-84083194D01*
X149716234Y-84087814D01*
X149714136Y-84092250D01*
X149711613Y-84096459D01*
X149708691Y-84100400D01*
X149705395Y-84104035D01*
X149701760Y-84107331D01*
X149697819Y-84110253D01*
X149693610Y-84112776D01*
X149689174Y-84114874D01*
X149684554Y-84116527D01*
X149679795Y-84117719D01*
X149674941Y-84118439D01*
X149670040Y-84118680D01*
X148970040Y-84118680D01*
X148965139Y-84118439D01*
X148960285Y-84117719D01*
X148955526Y-84116527D01*
X148950906Y-84114874D01*
X148946470Y-84112776D01*
X148942261Y-84110253D01*
X148938320Y-84107331D01*
X148934685Y-84104035D01*
X148931389Y-84100400D01*
X148928467Y-84096459D01*
X148925944Y-84092250D01*
X148923846Y-84087814D01*
X148922193Y-84083194D01*
X148921001Y-84078435D01*
X148920281Y-84073581D01*
X148920040Y-84068680D01*
X148920040Y-83968680D01*
X148920281Y-83963779D01*
X148921001Y-83958925D01*
X148922193Y-83954166D01*
X148923846Y-83949546D01*
X148925944Y-83945110D01*
X148928467Y-83940901D01*
X148931389Y-83936960D01*
X148934685Y-83933325D01*
X148938320Y-83930029D01*
X148942261Y-83927107D01*
X148946470Y-83924584D01*
X148950906Y-83922486D01*
X148955526Y-83920833D01*
X148960285Y-83919641D01*
X148965139Y-83918921D01*
X148970040Y-83918680D01*
X149670040Y-83918680D01*
X149674941Y-83918921D01*
X149674941Y-83918921D01*
G37*
D19*
%TD*%
%TO.P,U1,17*%
%TO.N,Net-(U1-Pad17)*%
X149320040Y-84018680D03*
D12*
%TO.N,Net-(U1-Pad18)*%
%TO.C,U1*%
G36*
X149674941Y-83518921D02*
G01*
X149679795Y-83519641D01*
X149684554Y-83520833D01*
X149689174Y-83522486D01*
X149693610Y-83524584D01*
X149697819Y-83527107D01*
X149701760Y-83530029D01*
X149705395Y-83533325D01*
X149708691Y-83536960D01*
X149711613Y-83540901D01*
X149714136Y-83545110D01*
X149716234Y-83549546D01*
X149717887Y-83554166D01*
X149719079Y-83558925D01*
X149719799Y-83563779D01*
X149720040Y-83568680D01*
X149720040Y-83668680D01*
X149719799Y-83673581D01*
X149719079Y-83678435D01*
X149717887Y-83683194D01*
X149716234Y-83687814D01*
X149714136Y-83692250D01*
X149711613Y-83696459D01*
X149708691Y-83700400D01*
X149705395Y-83704035D01*
X149701760Y-83707331D01*
X149697819Y-83710253D01*
X149693610Y-83712776D01*
X149689174Y-83714874D01*
X149684554Y-83716527D01*
X149679795Y-83717719D01*
X149674941Y-83718439D01*
X149670040Y-83718680D01*
X148970040Y-83718680D01*
X148965139Y-83718439D01*
X148960285Y-83717719D01*
X148955526Y-83716527D01*
X148950906Y-83714874D01*
X148946470Y-83712776D01*
X148942261Y-83710253D01*
X148938320Y-83707331D01*
X148934685Y-83704035D01*
X148931389Y-83700400D01*
X148928467Y-83696459D01*
X148925944Y-83692250D01*
X148923846Y-83687814D01*
X148922193Y-83683194D01*
X148921001Y-83678435D01*
X148920281Y-83673581D01*
X148920040Y-83668680D01*
X148920040Y-83568680D01*
X148920281Y-83563779D01*
X148921001Y-83558925D01*
X148922193Y-83554166D01*
X148923846Y-83549546D01*
X148925944Y-83545110D01*
X148928467Y-83540901D01*
X148931389Y-83536960D01*
X148934685Y-83533325D01*
X148938320Y-83530029D01*
X148942261Y-83527107D01*
X148946470Y-83524584D01*
X148950906Y-83522486D01*
X148955526Y-83520833D01*
X148960285Y-83519641D01*
X148965139Y-83518921D01*
X148970040Y-83518680D01*
X149670040Y-83518680D01*
X149674941Y-83518921D01*
X149674941Y-83518921D01*
G37*
D19*
%TD*%
%TO.P,U1,18*%
%TO.N,Net-(U1-Pad18)*%
X149320040Y-83618680D03*
D12*
%TO.N,Net-(U1-Pad19)*%
%TO.C,U1*%
G36*
X149674941Y-83118921D02*
G01*
X149679795Y-83119641D01*
X149684554Y-83120833D01*
X149689174Y-83122486D01*
X149693610Y-83124584D01*
X149697819Y-83127107D01*
X149701760Y-83130029D01*
X149705395Y-83133325D01*
X149708691Y-83136960D01*
X149711613Y-83140901D01*
X149714136Y-83145110D01*
X149716234Y-83149546D01*
X149717887Y-83154166D01*
X149719079Y-83158925D01*
X149719799Y-83163779D01*
X149720040Y-83168680D01*
X149720040Y-83268680D01*
X149719799Y-83273581D01*
X149719079Y-83278435D01*
X149717887Y-83283194D01*
X149716234Y-83287814D01*
X149714136Y-83292250D01*
X149711613Y-83296459D01*
X149708691Y-83300400D01*
X149705395Y-83304035D01*
X149701760Y-83307331D01*
X149697819Y-83310253D01*
X149693610Y-83312776D01*
X149689174Y-83314874D01*
X149684554Y-83316527D01*
X149679795Y-83317719D01*
X149674941Y-83318439D01*
X149670040Y-83318680D01*
X148970040Y-83318680D01*
X148965139Y-83318439D01*
X148960285Y-83317719D01*
X148955526Y-83316527D01*
X148950906Y-83314874D01*
X148946470Y-83312776D01*
X148942261Y-83310253D01*
X148938320Y-83307331D01*
X148934685Y-83304035D01*
X148931389Y-83300400D01*
X148928467Y-83296459D01*
X148925944Y-83292250D01*
X148923846Y-83287814D01*
X148922193Y-83283194D01*
X148921001Y-83278435D01*
X148920281Y-83273581D01*
X148920040Y-83268680D01*
X148920040Y-83168680D01*
X148920281Y-83163779D01*
X148921001Y-83158925D01*
X148922193Y-83154166D01*
X148923846Y-83149546D01*
X148925944Y-83145110D01*
X148928467Y-83140901D01*
X148931389Y-83136960D01*
X148934685Y-83133325D01*
X148938320Y-83130029D01*
X148942261Y-83127107D01*
X148946470Y-83124584D01*
X148950906Y-83122486D01*
X148955526Y-83120833D01*
X148960285Y-83119641D01*
X148965139Y-83118921D01*
X148970040Y-83118680D01*
X149670040Y-83118680D01*
X149674941Y-83118921D01*
X149674941Y-83118921D01*
G37*
D19*
%TD*%
%TO.P,U1,19*%
%TO.N,Net-(U1-Pad19)*%
X149320040Y-83218680D03*
D12*
%TO.N,Net-(U1-Pad20)*%
%TO.C,U1*%
G36*
X149674941Y-82718921D02*
G01*
X149679795Y-82719641D01*
X149684554Y-82720833D01*
X149689174Y-82722486D01*
X149693610Y-82724584D01*
X149697819Y-82727107D01*
X149701760Y-82730029D01*
X149705395Y-82733325D01*
X149708691Y-82736960D01*
X149711613Y-82740901D01*
X149714136Y-82745110D01*
X149716234Y-82749546D01*
X149717887Y-82754166D01*
X149719079Y-82758925D01*
X149719799Y-82763779D01*
X149720040Y-82768680D01*
X149720040Y-82868680D01*
X149719799Y-82873581D01*
X149719079Y-82878435D01*
X149717887Y-82883194D01*
X149716234Y-82887814D01*
X149714136Y-82892250D01*
X149711613Y-82896459D01*
X149708691Y-82900400D01*
X149705395Y-82904035D01*
X149701760Y-82907331D01*
X149697819Y-82910253D01*
X149693610Y-82912776D01*
X149689174Y-82914874D01*
X149684554Y-82916527D01*
X149679795Y-82917719D01*
X149674941Y-82918439D01*
X149670040Y-82918680D01*
X148970040Y-82918680D01*
X148965139Y-82918439D01*
X148960285Y-82917719D01*
X148955526Y-82916527D01*
X148950906Y-82914874D01*
X148946470Y-82912776D01*
X148942261Y-82910253D01*
X148938320Y-82907331D01*
X148934685Y-82904035D01*
X148931389Y-82900400D01*
X148928467Y-82896459D01*
X148925944Y-82892250D01*
X148923846Y-82887814D01*
X148922193Y-82883194D01*
X148921001Y-82878435D01*
X148920281Y-82873581D01*
X148920040Y-82868680D01*
X148920040Y-82768680D01*
X148920281Y-82763779D01*
X148921001Y-82758925D01*
X148922193Y-82754166D01*
X148923846Y-82749546D01*
X148925944Y-82745110D01*
X148928467Y-82740901D01*
X148931389Y-82736960D01*
X148934685Y-82733325D01*
X148938320Y-82730029D01*
X148942261Y-82727107D01*
X148946470Y-82724584D01*
X148950906Y-82722486D01*
X148955526Y-82720833D01*
X148960285Y-82719641D01*
X148965139Y-82718921D01*
X148970040Y-82718680D01*
X149670040Y-82718680D01*
X149674941Y-82718921D01*
X149674941Y-82718921D01*
G37*
D19*
%TD*%
%TO.P,U1,20*%
%TO.N,Net-(U1-Pad20)*%
X149320040Y-82818680D03*
D12*
%TO.N,SWO*%
%TO.C,U1*%
G36*
X149674941Y-82318921D02*
G01*
X149679795Y-82319641D01*
X149684554Y-82320833D01*
X149689174Y-82322486D01*
X149693610Y-82324584D01*
X149697819Y-82327107D01*
X149701760Y-82330029D01*
X149705395Y-82333325D01*
X149708691Y-82336960D01*
X149711613Y-82340901D01*
X149714136Y-82345110D01*
X149716234Y-82349546D01*
X149717887Y-82354166D01*
X149719079Y-82358925D01*
X149719799Y-82363779D01*
X149720040Y-82368680D01*
X149720040Y-82468680D01*
X149719799Y-82473581D01*
X149719079Y-82478435D01*
X149717887Y-82483194D01*
X149716234Y-82487814D01*
X149714136Y-82492250D01*
X149711613Y-82496459D01*
X149708691Y-82500400D01*
X149705395Y-82504035D01*
X149701760Y-82507331D01*
X149697819Y-82510253D01*
X149693610Y-82512776D01*
X149689174Y-82514874D01*
X149684554Y-82516527D01*
X149679795Y-82517719D01*
X149674941Y-82518439D01*
X149670040Y-82518680D01*
X148970040Y-82518680D01*
X148965139Y-82518439D01*
X148960285Y-82517719D01*
X148955526Y-82516527D01*
X148950906Y-82514874D01*
X148946470Y-82512776D01*
X148942261Y-82510253D01*
X148938320Y-82507331D01*
X148934685Y-82504035D01*
X148931389Y-82500400D01*
X148928467Y-82496459D01*
X148925944Y-82492250D01*
X148923846Y-82487814D01*
X148922193Y-82483194D01*
X148921001Y-82478435D01*
X148920281Y-82473581D01*
X148920040Y-82468680D01*
X148920040Y-82368680D01*
X148920281Y-82363779D01*
X148921001Y-82358925D01*
X148922193Y-82354166D01*
X148923846Y-82349546D01*
X148925944Y-82345110D01*
X148928467Y-82340901D01*
X148931389Y-82336960D01*
X148934685Y-82333325D01*
X148938320Y-82330029D01*
X148942261Y-82327107D01*
X148946470Y-82324584D01*
X148950906Y-82322486D01*
X148955526Y-82320833D01*
X148960285Y-82319641D01*
X148965139Y-82318921D01*
X148970040Y-82318680D01*
X149670040Y-82318680D01*
X149674941Y-82318921D01*
X149674941Y-82318921D01*
G37*
D19*
%TD*%
%TO.P,U1,21*%
%TO.N,SWO*%
X149320040Y-82418680D03*
D12*
%TO.N,Net-(U1-Pad22)*%
%TO.C,U1*%
G36*
X149674941Y-81918921D02*
G01*
X149679795Y-81919641D01*
X149684554Y-81920833D01*
X149689174Y-81922486D01*
X149693610Y-81924584D01*
X149697819Y-81927107D01*
X149701760Y-81930029D01*
X149705395Y-81933325D01*
X149708691Y-81936960D01*
X149711613Y-81940901D01*
X149714136Y-81945110D01*
X149716234Y-81949546D01*
X149717887Y-81954166D01*
X149719079Y-81958925D01*
X149719799Y-81963779D01*
X149720040Y-81968680D01*
X149720040Y-82068680D01*
X149719799Y-82073581D01*
X149719079Y-82078435D01*
X149717887Y-82083194D01*
X149716234Y-82087814D01*
X149714136Y-82092250D01*
X149711613Y-82096459D01*
X149708691Y-82100400D01*
X149705395Y-82104035D01*
X149701760Y-82107331D01*
X149697819Y-82110253D01*
X149693610Y-82112776D01*
X149689174Y-82114874D01*
X149684554Y-82116527D01*
X149679795Y-82117719D01*
X149674941Y-82118439D01*
X149670040Y-82118680D01*
X148970040Y-82118680D01*
X148965139Y-82118439D01*
X148960285Y-82117719D01*
X148955526Y-82116527D01*
X148950906Y-82114874D01*
X148946470Y-82112776D01*
X148942261Y-82110253D01*
X148938320Y-82107331D01*
X148934685Y-82104035D01*
X148931389Y-82100400D01*
X148928467Y-82096459D01*
X148925944Y-82092250D01*
X148923846Y-82087814D01*
X148922193Y-82083194D01*
X148921001Y-82078435D01*
X148920281Y-82073581D01*
X148920040Y-82068680D01*
X148920040Y-81968680D01*
X148920281Y-81963779D01*
X148921001Y-81958925D01*
X148922193Y-81954166D01*
X148923846Y-81949546D01*
X148925944Y-81945110D01*
X148928467Y-81940901D01*
X148931389Y-81936960D01*
X148934685Y-81933325D01*
X148938320Y-81930029D01*
X148942261Y-81927107D01*
X148946470Y-81924584D01*
X148950906Y-81922486D01*
X148955526Y-81920833D01*
X148960285Y-81919641D01*
X148965139Y-81918921D01*
X148970040Y-81918680D01*
X149670040Y-81918680D01*
X149674941Y-81918921D01*
X149674941Y-81918921D01*
G37*
D19*
%TD*%
%TO.P,U1,22*%
%TO.N,Net-(U1-Pad22)*%
X149320040Y-82018680D03*
D12*
%TO.N,Net-(U1-Pad23)*%
%TO.C,U1*%
G36*
X149674941Y-81518921D02*
G01*
X149679795Y-81519641D01*
X149684554Y-81520833D01*
X149689174Y-81522486D01*
X149693610Y-81524584D01*
X149697819Y-81527107D01*
X149701760Y-81530029D01*
X149705395Y-81533325D01*
X149708691Y-81536960D01*
X149711613Y-81540901D01*
X149714136Y-81545110D01*
X149716234Y-81549546D01*
X149717887Y-81554166D01*
X149719079Y-81558925D01*
X149719799Y-81563779D01*
X149720040Y-81568680D01*
X149720040Y-81668680D01*
X149719799Y-81673581D01*
X149719079Y-81678435D01*
X149717887Y-81683194D01*
X149716234Y-81687814D01*
X149714136Y-81692250D01*
X149711613Y-81696459D01*
X149708691Y-81700400D01*
X149705395Y-81704035D01*
X149701760Y-81707331D01*
X149697819Y-81710253D01*
X149693610Y-81712776D01*
X149689174Y-81714874D01*
X149684554Y-81716527D01*
X149679795Y-81717719D01*
X149674941Y-81718439D01*
X149670040Y-81718680D01*
X148970040Y-81718680D01*
X148965139Y-81718439D01*
X148960285Y-81717719D01*
X148955526Y-81716527D01*
X148950906Y-81714874D01*
X148946470Y-81712776D01*
X148942261Y-81710253D01*
X148938320Y-81707331D01*
X148934685Y-81704035D01*
X148931389Y-81700400D01*
X148928467Y-81696459D01*
X148925944Y-81692250D01*
X148923846Y-81687814D01*
X148922193Y-81683194D01*
X148921001Y-81678435D01*
X148920281Y-81673581D01*
X148920040Y-81668680D01*
X148920040Y-81568680D01*
X148920281Y-81563779D01*
X148921001Y-81558925D01*
X148922193Y-81554166D01*
X148923846Y-81549546D01*
X148925944Y-81545110D01*
X148928467Y-81540901D01*
X148931389Y-81536960D01*
X148934685Y-81533325D01*
X148938320Y-81530029D01*
X148942261Y-81527107D01*
X148946470Y-81524584D01*
X148950906Y-81522486D01*
X148955526Y-81520833D01*
X148960285Y-81519641D01*
X148965139Y-81518921D01*
X148970040Y-81518680D01*
X149670040Y-81518680D01*
X149674941Y-81518921D01*
X149674941Y-81518921D01*
G37*
D19*
%TD*%
%TO.P,U1,23*%
%TO.N,Net-(U1-Pad23)*%
X149320040Y-81618680D03*
D12*
%TO.N,RESET_0.21*%
%TO.C,U1*%
G36*
X149674941Y-81118921D02*
G01*
X149679795Y-81119641D01*
X149684554Y-81120833D01*
X149689174Y-81122486D01*
X149693610Y-81124584D01*
X149697819Y-81127107D01*
X149701760Y-81130029D01*
X149705395Y-81133325D01*
X149708691Y-81136960D01*
X149711613Y-81140901D01*
X149714136Y-81145110D01*
X149716234Y-81149546D01*
X149717887Y-81154166D01*
X149719079Y-81158925D01*
X149719799Y-81163779D01*
X149720040Y-81168680D01*
X149720040Y-81268680D01*
X149719799Y-81273581D01*
X149719079Y-81278435D01*
X149717887Y-81283194D01*
X149716234Y-81287814D01*
X149714136Y-81292250D01*
X149711613Y-81296459D01*
X149708691Y-81300400D01*
X149705395Y-81304035D01*
X149701760Y-81307331D01*
X149697819Y-81310253D01*
X149693610Y-81312776D01*
X149689174Y-81314874D01*
X149684554Y-81316527D01*
X149679795Y-81317719D01*
X149674941Y-81318439D01*
X149670040Y-81318680D01*
X148970040Y-81318680D01*
X148965139Y-81318439D01*
X148960285Y-81317719D01*
X148955526Y-81316527D01*
X148950906Y-81314874D01*
X148946470Y-81312776D01*
X148942261Y-81310253D01*
X148938320Y-81307331D01*
X148934685Y-81304035D01*
X148931389Y-81300400D01*
X148928467Y-81296459D01*
X148925944Y-81292250D01*
X148923846Y-81287814D01*
X148922193Y-81283194D01*
X148921001Y-81278435D01*
X148920281Y-81273581D01*
X148920040Y-81268680D01*
X148920040Y-81168680D01*
X148920281Y-81163779D01*
X148921001Y-81158925D01*
X148922193Y-81154166D01*
X148923846Y-81149546D01*
X148925944Y-81145110D01*
X148928467Y-81140901D01*
X148931389Y-81136960D01*
X148934685Y-81133325D01*
X148938320Y-81130029D01*
X148942261Y-81127107D01*
X148946470Y-81124584D01*
X148950906Y-81122486D01*
X148955526Y-81120833D01*
X148960285Y-81119641D01*
X148965139Y-81118921D01*
X148970040Y-81118680D01*
X149670040Y-81118680D01*
X149674941Y-81118921D01*
X149674941Y-81118921D01*
G37*
D19*
%TD*%
%TO.P,U1,24*%
%TO.N,RESET_0.21*%
X149320040Y-81218680D03*
D12*
%TO.N,SWDCLK*%
%TO.C,U1*%
G36*
X148624941Y-80068921D02*
G01*
X148629795Y-80069641D01*
X148634554Y-80070833D01*
X148639174Y-80072486D01*
X148643610Y-80074584D01*
X148647819Y-80077107D01*
X148651760Y-80080029D01*
X148655395Y-80083325D01*
X148658691Y-80086960D01*
X148661613Y-80090901D01*
X148664136Y-80095110D01*
X148666234Y-80099546D01*
X148667887Y-80104166D01*
X148669079Y-80108925D01*
X148669799Y-80113779D01*
X148670040Y-80118680D01*
X148670040Y-80818680D01*
X148669799Y-80823581D01*
X148669079Y-80828435D01*
X148667887Y-80833194D01*
X148666234Y-80837814D01*
X148664136Y-80842250D01*
X148661613Y-80846459D01*
X148658691Y-80850400D01*
X148655395Y-80854035D01*
X148651760Y-80857331D01*
X148647819Y-80860253D01*
X148643610Y-80862776D01*
X148639174Y-80864874D01*
X148634554Y-80866527D01*
X148629795Y-80867719D01*
X148624941Y-80868439D01*
X148620040Y-80868680D01*
X148520040Y-80868680D01*
X148515139Y-80868439D01*
X148510285Y-80867719D01*
X148505526Y-80866527D01*
X148500906Y-80864874D01*
X148496470Y-80862776D01*
X148492261Y-80860253D01*
X148488320Y-80857331D01*
X148484685Y-80854035D01*
X148481389Y-80850400D01*
X148478467Y-80846459D01*
X148475944Y-80842250D01*
X148473846Y-80837814D01*
X148472193Y-80833194D01*
X148471001Y-80828435D01*
X148470281Y-80823581D01*
X148470040Y-80818680D01*
X148470040Y-80118680D01*
X148470281Y-80113779D01*
X148471001Y-80108925D01*
X148472193Y-80104166D01*
X148473846Y-80099546D01*
X148475944Y-80095110D01*
X148478467Y-80090901D01*
X148481389Y-80086960D01*
X148484685Y-80083325D01*
X148488320Y-80080029D01*
X148492261Y-80077107D01*
X148496470Y-80074584D01*
X148500906Y-80072486D01*
X148505526Y-80070833D01*
X148510285Y-80069641D01*
X148515139Y-80068921D01*
X148520040Y-80068680D01*
X148620040Y-80068680D01*
X148624941Y-80068921D01*
X148624941Y-80068921D01*
G37*
D19*
%TD*%
%TO.P,U1,25*%
%TO.N,SWDCLK*%
X148570040Y-80468680D03*
D12*
%TO.N,SWDIO*%
%TO.C,U1*%
G36*
X148224941Y-80068921D02*
G01*
X148229795Y-80069641D01*
X148234554Y-80070833D01*
X148239174Y-80072486D01*
X148243610Y-80074584D01*
X148247819Y-80077107D01*
X148251760Y-80080029D01*
X148255395Y-80083325D01*
X148258691Y-80086960D01*
X148261613Y-80090901D01*
X148264136Y-80095110D01*
X148266234Y-80099546D01*
X148267887Y-80104166D01*
X148269079Y-80108925D01*
X148269799Y-80113779D01*
X148270040Y-80118680D01*
X148270040Y-80818680D01*
X148269799Y-80823581D01*
X148269079Y-80828435D01*
X148267887Y-80833194D01*
X148266234Y-80837814D01*
X148264136Y-80842250D01*
X148261613Y-80846459D01*
X148258691Y-80850400D01*
X148255395Y-80854035D01*
X148251760Y-80857331D01*
X148247819Y-80860253D01*
X148243610Y-80862776D01*
X148239174Y-80864874D01*
X148234554Y-80866527D01*
X148229795Y-80867719D01*
X148224941Y-80868439D01*
X148220040Y-80868680D01*
X148120040Y-80868680D01*
X148115139Y-80868439D01*
X148110285Y-80867719D01*
X148105526Y-80866527D01*
X148100906Y-80864874D01*
X148096470Y-80862776D01*
X148092261Y-80860253D01*
X148088320Y-80857331D01*
X148084685Y-80854035D01*
X148081389Y-80850400D01*
X148078467Y-80846459D01*
X148075944Y-80842250D01*
X148073846Y-80837814D01*
X148072193Y-80833194D01*
X148071001Y-80828435D01*
X148070281Y-80823581D01*
X148070040Y-80818680D01*
X148070040Y-80118680D01*
X148070281Y-80113779D01*
X148071001Y-80108925D01*
X148072193Y-80104166D01*
X148073846Y-80099546D01*
X148075944Y-80095110D01*
X148078467Y-80090901D01*
X148081389Y-80086960D01*
X148084685Y-80083325D01*
X148088320Y-80080029D01*
X148092261Y-80077107D01*
X148096470Y-80074584D01*
X148100906Y-80072486D01*
X148105526Y-80070833D01*
X148110285Y-80069641D01*
X148115139Y-80068921D01*
X148120040Y-80068680D01*
X148220040Y-80068680D01*
X148224941Y-80068921D01*
X148224941Y-80068921D01*
G37*
D19*
%TD*%
%TO.P,U1,26*%
%TO.N,SWDIO*%
X148170040Y-80468680D03*
D12*
%TO.N,Net-(U1-Pad27)*%
%TO.C,U1*%
G36*
X147824941Y-80068921D02*
G01*
X147829795Y-80069641D01*
X147834554Y-80070833D01*
X147839174Y-80072486D01*
X147843610Y-80074584D01*
X147847819Y-80077107D01*
X147851760Y-80080029D01*
X147855395Y-80083325D01*
X147858691Y-80086960D01*
X147861613Y-80090901D01*
X147864136Y-80095110D01*
X147866234Y-80099546D01*
X147867887Y-80104166D01*
X147869079Y-80108925D01*
X147869799Y-80113779D01*
X147870040Y-80118680D01*
X147870040Y-80818680D01*
X147869799Y-80823581D01*
X147869079Y-80828435D01*
X147867887Y-80833194D01*
X147866234Y-80837814D01*
X147864136Y-80842250D01*
X147861613Y-80846459D01*
X147858691Y-80850400D01*
X147855395Y-80854035D01*
X147851760Y-80857331D01*
X147847819Y-80860253D01*
X147843610Y-80862776D01*
X147839174Y-80864874D01*
X147834554Y-80866527D01*
X147829795Y-80867719D01*
X147824941Y-80868439D01*
X147820040Y-80868680D01*
X147720040Y-80868680D01*
X147715139Y-80868439D01*
X147710285Y-80867719D01*
X147705526Y-80866527D01*
X147700906Y-80864874D01*
X147696470Y-80862776D01*
X147692261Y-80860253D01*
X147688320Y-80857331D01*
X147684685Y-80854035D01*
X147681389Y-80850400D01*
X147678467Y-80846459D01*
X147675944Y-80842250D01*
X147673846Y-80837814D01*
X147672193Y-80833194D01*
X147671001Y-80828435D01*
X147670281Y-80823581D01*
X147670040Y-80818680D01*
X147670040Y-80118680D01*
X147670281Y-80113779D01*
X147671001Y-80108925D01*
X147672193Y-80104166D01*
X147673846Y-80099546D01*
X147675944Y-80095110D01*
X147678467Y-80090901D01*
X147681389Y-80086960D01*
X147684685Y-80083325D01*
X147688320Y-80080029D01*
X147692261Y-80077107D01*
X147696470Y-80074584D01*
X147700906Y-80072486D01*
X147705526Y-80070833D01*
X147710285Y-80069641D01*
X147715139Y-80068921D01*
X147720040Y-80068680D01*
X147820040Y-80068680D01*
X147824941Y-80068921D01*
X147824941Y-80068921D01*
G37*
D19*
%TD*%
%TO.P,U1,27*%
%TO.N,Net-(U1-Pad27)*%
X147770040Y-80468680D03*
D12*
%TO.N,Net-(U1-Pad28)*%
%TO.C,U1*%
G36*
X147424941Y-80068921D02*
G01*
X147429795Y-80069641D01*
X147434554Y-80070833D01*
X147439174Y-80072486D01*
X147443610Y-80074584D01*
X147447819Y-80077107D01*
X147451760Y-80080029D01*
X147455395Y-80083325D01*
X147458691Y-80086960D01*
X147461613Y-80090901D01*
X147464136Y-80095110D01*
X147466234Y-80099546D01*
X147467887Y-80104166D01*
X147469079Y-80108925D01*
X147469799Y-80113779D01*
X147470040Y-80118680D01*
X147470040Y-80818680D01*
X147469799Y-80823581D01*
X147469079Y-80828435D01*
X147467887Y-80833194D01*
X147466234Y-80837814D01*
X147464136Y-80842250D01*
X147461613Y-80846459D01*
X147458691Y-80850400D01*
X147455395Y-80854035D01*
X147451760Y-80857331D01*
X147447819Y-80860253D01*
X147443610Y-80862776D01*
X147439174Y-80864874D01*
X147434554Y-80866527D01*
X147429795Y-80867719D01*
X147424941Y-80868439D01*
X147420040Y-80868680D01*
X147320040Y-80868680D01*
X147315139Y-80868439D01*
X147310285Y-80867719D01*
X147305526Y-80866527D01*
X147300906Y-80864874D01*
X147296470Y-80862776D01*
X147292261Y-80860253D01*
X147288320Y-80857331D01*
X147284685Y-80854035D01*
X147281389Y-80850400D01*
X147278467Y-80846459D01*
X147275944Y-80842250D01*
X147273846Y-80837814D01*
X147272193Y-80833194D01*
X147271001Y-80828435D01*
X147270281Y-80823581D01*
X147270040Y-80818680D01*
X147270040Y-80118680D01*
X147270281Y-80113779D01*
X147271001Y-80108925D01*
X147272193Y-80104166D01*
X147273846Y-80099546D01*
X147275944Y-80095110D01*
X147278467Y-80090901D01*
X147281389Y-80086960D01*
X147284685Y-80083325D01*
X147288320Y-80080029D01*
X147292261Y-80077107D01*
X147296470Y-80074584D01*
X147300906Y-80072486D01*
X147305526Y-80070833D01*
X147310285Y-80069641D01*
X147315139Y-80068921D01*
X147320040Y-80068680D01*
X147420040Y-80068680D01*
X147424941Y-80068921D01*
X147424941Y-80068921D01*
G37*
D19*
%TD*%
%TO.P,U1,28*%
%TO.N,Net-(U1-Pad28)*%
X147370040Y-80468680D03*
D12*
%TO.N,Net-(U1-Pad29)*%
%TO.C,U1*%
G36*
X147024941Y-80068921D02*
G01*
X147029795Y-80069641D01*
X147034554Y-80070833D01*
X147039174Y-80072486D01*
X147043610Y-80074584D01*
X147047819Y-80077107D01*
X147051760Y-80080029D01*
X147055395Y-80083325D01*
X147058691Y-80086960D01*
X147061613Y-80090901D01*
X147064136Y-80095110D01*
X147066234Y-80099546D01*
X147067887Y-80104166D01*
X147069079Y-80108925D01*
X147069799Y-80113779D01*
X147070040Y-80118680D01*
X147070040Y-80818680D01*
X147069799Y-80823581D01*
X147069079Y-80828435D01*
X147067887Y-80833194D01*
X147066234Y-80837814D01*
X147064136Y-80842250D01*
X147061613Y-80846459D01*
X147058691Y-80850400D01*
X147055395Y-80854035D01*
X147051760Y-80857331D01*
X147047819Y-80860253D01*
X147043610Y-80862776D01*
X147039174Y-80864874D01*
X147034554Y-80866527D01*
X147029795Y-80867719D01*
X147024941Y-80868439D01*
X147020040Y-80868680D01*
X146920040Y-80868680D01*
X146915139Y-80868439D01*
X146910285Y-80867719D01*
X146905526Y-80866527D01*
X146900906Y-80864874D01*
X146896470Y-80862776D01*
X146892261Y-80860253D01*
X146888320Y-80857331D01*
X146884685Y-80854035D01*
X146881389Y-80850400D01*
X146878467Y-80846459D01*
X146875944Y-80842250D01*
X146873846Y-80837814D01*
X146872193Y-80833194D01*
X146871001Y-80828435D01*
X146870281Y-80823581D01*
X146870040Y-80818680D01*
X146870040Y-80118680D01*
X146870281Y-80113779D01*
X146871001Y-80108925D01*
X146872193Y-80104166D01*
X146873846Y-80099546D01*
X146875944Y-80095110D01*
X146878467Y-80090901D01*
X146881389Y-80086960D01*
X146884685Y-80083325D01*
X146888320Y-80080029D01*
X146892261Y-80077107D01*
X146896470Y-80074584D01*
X146900906Y-80072486D01*
X146905526Y-80070833D01*
X146910285Y-80069641D01*
X146915139Y-80068921D01*
X146920040Y-80068680D01*
X147020040Y-80068680D01*
X147024941Y-80068921D01*
X147024941Y-80068921D01*
G37*
D19*
%TD*%
%TO.P,U1,29*%
%TO.N,Net-(U1-Pad29)*%
X146970040Y-80468680D03*
D12*
%TO.N,ANT*%
%TO.C,U1*%
G36*
X146624941Y-80068921D02*
G01*
X146629795Y-80069641D01*
X146634554Y-80070833D01*
X146639174Y-80072486D01*
X146643610Y-80074584D01*
X146647819Y-80077107D01*
X146651760Y-80080029D01*
X146655395Y-80083325D01*
X146658691Y-80086960D01*
X146661613Y-80090901D01*
X146664136Y-80095110D01*
X146666234Y-80099546D01*
X146667887Y-80104166D01*
X146669079Y-80108925D01*
X146669799Y-80113779D01*
X146670040Y-80118680D01*
X146670040Y-80818680D01*
X146669799Y-80823581D01*
X146669079Y-80828435D01*
X146667887Y-80833194D01*
X146666234Y-80837814D01*
X146664136Y-80842250D01*
X146661613Y-80846459D01*
X146658691Y-80850400D01*
X146655395Y-80854035D01*
X146651760Y-80857331D01*
X146647819Y-80860253D01*
X146643610Y-80862776D01*
X146639174Y-80864874D01*
X146634554Y-80866527D01*
X146629795Y-80867719D01*
X146624941Y-80868439D01*
X146620040Y-80868680D01*
X146520040Y-80868680D01*
X146515139Y-80868439D01*
X146510285Y-80867719D01*
X146505526Y-80866527D01*
X146500906Y-80864874D01*
X146496470Y-80862776D01*
X146492261Y-80860253D01*
X146488320Y-80857331D01*
X146484685Y-80854035D01*
X146481389Y-80850400D01*
X146478467Y-80846459D01*
X146475944Y-80842250D01*
X146473846Y-80837814D01*
X146472193Y-80833194D01*
X146471001Y-80828435D01*
X146470281Y-80823581D01*
X146470040Y-80818680D01*
X146470040Y-80118680D01*
X146470281Y-80113779D01*
X146471001Y-80108925D01*
X146472193Y-80104166D01*
X146473846Y-80099546D01*
X146475944Y-80095110D01*
X146478467Y-80090901D01*
X146481389Y-80086960D01*
X146484685Y-80083325D01*
X146488320Y-80080029D01*
X146492261Y-80077107D01*
X146496470Y-80074584D01*
X146500906Y-80072486D01*
X146505526Y-80070833D01*
X146510285Y-80069641D01*
X146515139Y-80068921D01*
X146520040Y-80068680D01*
X146620040Y-80068680D01*
X146624941Y-80068921D01*
X146624941Y-80068921D01*
G37*
D19*
%TD*%
%TO.P,U1,30*%
%TO.N,ANT*%
X146570040Y-80468680D03*
D12*
%TO.N,VSS*%
%TO.C,U1*%
G36*
X146224941Y-80068921D02*
G01*
X146229795Y-80069641D01*
X146234554Y-80070833D01*
X146239174Y-80072486D01*
X146243610Y-80074584D01*
X146247819Y-80077107D01*
X146251760Y-80080029D01*
X146255395Y-80083325D01*
X146258691Y-80086960D01*
X146261613Y-80090901D01*
X146264136Y-80095110D01*
X146266234Y-80099546D01*
X146267887Y-80104166D01*
X146269079Y-80108925D01*
X146269799Y-80113779D01*
X146270040Y-80118680D01*
X146270040Y-80818680D01*
X146269799Y-80823581D01*
X146269079Y-80828435D01*
X146267887Y-80833194D01*
X146266234Y-80837814D01*
X146264136Y-80842250D01*
X146261613Y-80846459D01*
X146258691Y-80850400D01*
X146255395Y-80854035D01*
X146251760Y-80857331D01*
X146247819Y-80860253D01*
X146243610Y-80862776D01*
X146239174Y-80864874D01*
X146234554Y-80866527D01*
X146229795Y-80867719D01*
X146224941Y-80868439D01*
X146220040Y-80868680D01*
X146120040Y-80868680D01*
X146115139Y-80868439D01*
X146110285Y-80867719D01*
X146105526Y-80866527D01*
X146100906Y-80864874D01*
X146096470Y-80862776D01*
X146092261Y-80860253D01*
X146088320Y-80857331D01*
X146084685Y-80854035D01*
X146081389Y-80850400D01*
X146078467Y-80846459D01*
X146075944Y-80842250D01*
X146073846Y-80837814D01*
X146072193Y-80833194D01*
X146071001Y-80828435D01*
X146070281Y-80823581D01*
X146070040Y-80818680D01*
X146070040Y-80118680D01*
X146070281Y-80113779D01*
X146071001Y-80108925D01*
X146072193Y-80104166D01*
X146073846Y-80099546D01*
X146075944Y-80095110D01*
X146078467Y-80090901D01*
X146081389Y-80086960D01*
X146084685Y-80083325D01*
X146088320Y-80080029D01*
X146092261Y-80077107D01*
X146096470Y-80074584D01*
X146100906Y-80072486D01*
X146105526Y-80070833D01*
X146110285Y-80069641D01*
X146115139Y-80068921D01*
X146120040Y-80068680D01*
X146220040Y-80068680D01*
X146224941Y-80068921D01*
X146224941Y-80068921D01*
G37*
D19*
%TD*%
%TO.P,U1,31*%
%TO.N,VSS*%
X146170040Y-80468680D03*
D12*
%TO.N,Net-(U1-Pad32)*%
%TO.C,U1*%
G36*
X145824941Y-80068921D02*
G01*
X145829795Y-80069641D01*
X145834554Y-80070833D01*
X145839174Y-80072486D01*
X145843610Y-80074584D01*
X145847819Y-80077107D01*
X145851760Y-80080029D01*
X145855395Y-80083325D01*
X145858691Y-80086960D01*
X145861613Y-80090901D01*
X145864136Y-80095110D01*
X145866234Y-80099546D01*
X145867887Y-80104166D01*
X145869079Y-80108925D01*
X145869799Y-80113779D01*
X145870040Y-80118680D01*
X145870040Y-80818680D01*
X145869799Y-80823581D01*
X145869079Y-80828435D01*
X145867887Y-80833194D01*
X145866234Y-80837814D01*
X145864136Y-80842250D01*
X145861613Y-80846459D01*
X145858691Y-80850400D01*
X145855395Y-80854035D01*
X145851760Y-80857331D01*
X145847819Y-80860253D01*
X145843610Y-80862776D01*
X145839174Y-80864874D01*
X145834554Y-80866527D01*
X145829795Y-80867719D01*
X145824941Y-80868439D01*
X145820040Y-80868680D01*
X145720040Y-80868680D01*
X145715139Y-80868439D01*
X145710285Y-80867719D01*
X145705526Y-80866527D01*
X145700906Y-80864874D01*
X145696470Y-80862776D01*
X145692261Y-80860253D01*
X145688320Y-80857331D01*
X145684685Y-80854035D01*
X145681389Y-80850400D01*
X145678467Y-80846459D01*
X145675944Y-80842250D01*
X145673846Y-80837814D01*
X145672193Y-80833194D01*
X145671001Y-80828435D01*
X145670281Y-80823581D01*
X145670040Y-80818680D01*
X145670040Y-80118680D01*
X145670281Y-80113779D01*
X145671001Y-80108925D01*
X145672193Y-80104166D01*
X145673846Y-80099546D01*
X145675944Y-80095110D01*
X145678467Y-80090901D01*
X145681389Y-80086960D01*
X145684685Y-80083325D01*
X145688320Y-80080029D01*
X145692261Y-80077107D01*
X145696470Y-80074584D01*
X145700906Y-80072486D01*
X145705526Y-80070833D01*
X145710285Y-80069641D01*
X145715139Y-80068921D01*
X145720040Y-80068680D01*
X145820040Y-80068680D01*
X145824941Y-80068921D01*
X145824941Y-80068921D01*
G37*
D19*
%TD*%
%TO.P,U1,32*%
%TO.N,Net-(U1-Pad32)*%
X145770040Y-80468680D03*
D12*
%TO.N,D3*%
%TO.C,U1*%
G36*
X145424941Y-80068921D02*
G01*
X145429795Y-80069641D01*
X145434554Y-80070833D01*
X145439174Y-80072486D01*
X145443610Y-80074584D01*
X145447819Y-80077107D01*
X145451760Y-80080029D01*
X145455395Y-80083325D01*
X145458691Y-80086960D01*
X145461613Y-80090901D01*
X145464136Y-80095110D01*
X145466234Y-80099546D01*
X145467887Y-80104166D01*
X145469079Y-80108925D01*
X145469799Y-80113779D01*
X145470040Y-80118680D01*
X145470040Y-80818680D01*
X145469799Y-80823581D01*
X145469079Y-80828435D01*
X145467887Y-80833194D01*
X145466234Y-80837814D01*
X145464136Y-80842250D01*
X145461613Y-80846459D01*
X145458691Y-80850400D01*
X145455395Y-80854035D01*
X145451760Y-80857331D01*
X145447819Y-80860253D01*
X145443610Y-80862776D01*
X145439174Y-80864874D01*
X145434554Y-80866527D01*
X145429795Y-80867719D01*
X145424941Y-80868439D01*
X145420040Y-80868680D01*
X145320040Y-80868680D01*
X145315139Y-80868439D01*
X145310285Y-80867719D01*
X145305526Y-80866527D01*
X145300906Y-80864874D01*
X145296470Y-80862776D01*
X145292261Y-80860253D01*
X145288320Y-80857331D01*
X145284685Y-80854035D01*
X145281389Y-80850400D01*
X145278467Y-80846459D01*
X145275944Y-80842250D01*
X145273846Y-80837814D01*
X145272193Y-80833194D01*
X145271001Y-80828435D01*
X145270281Y-80823581D01*
X145270040Y-80818680D01*
X145270040Y-80118680D01*
X145270281Y-80113779D01*
X145271001Y-80108925D01*
X145272193Y-80104166D01*
X145273846Y-80099546D01*
X145275944Y-80095110D01*
X145278467Y-80090901D01*
X145281389Y-80086960D01*
X145284685Y-80083325D01*
X145288320Y-80080029D01*
X145292261Y-80077107D01*
X145296470Y-80074584D01*
X145300906Y-80072486D01*
X145305526Y-80070833D01*
X145310285Y-80069641D01*
X145315139Y-80068921D01*
X145320040Y-80068680D01*
X145420040Y-80068680D01*
X145424941Y-80068921D01*
X145424941Y-80068921D01*
G37*
D19*
%TD*%
%TO.P,U1,33*%
%TO.N,D3*%
X145370040Y-80468680D03*
D12*
%TO.N,XC1*%
%TO.C,U1*%
G36*
X145024941Y-80068921D02*
G01*
X145029795Y-80069641D01*
X145034554Y-80070833D01*
X145039174Y-80072486D01*
X145043610Y-80074584D01*
X145047819Y-80077107D01*
X145051760Y-80080029D01*
X145055395Y-80083325D01*
X145058691Y-80086960D01*
X145061613Y-80090901D01*
X145064136Y-80095110D01*
X145066234Y-80099546D01*
X145067887Y-80104166D01*
X145069079Y-80108925D01*
X145069799Y-80113779D01*
X145070040Y-80118680D01*
X145070040Y-80818680D01*
X145069799Y-80823581D01*
X145069079Y-80828435D01*
X145067887Y-80833194D01*
X145066234Y-80837814D01*
X145064136Y-80842250D01*
X145061613Y-80846459D01*
X145058691Y-80850400D01*
X145055395Y-80854035D01*
X145051760Y-80857331D01*
X145047819Y-80860253D01*
X145043610Y-80862776D01*
X145039174Y-80864874D01*
X145034554Y-80866527D01*
X145029795Y-80867719D01*
X145024941Y-80868439D01*
X145020040Y-80868680D01*
X144920040Y-80868680D01*
X144915139Y-80868439D01*
X144910285Y-80867719D01*
X144905526Y-80866527D01*
X144900906Y-80864874D01*
X144896470Y-80862776D01*
X144892261Y-80860253D01*
X144888320Y-80857331D01*
X144884685Y-80854035D01*
X144881389Y-80850400D01*
X144878467Y-80846459D01*
X144875944Y-80842250D01*
X144873846Y-80837814D01*
X144872193Y-80833194D01*
X144871001Y-80828435D01*
X144870281Y-80823581D01*
X144870040Y-80818680D01*
X144870040Y-80118680D01*
X144870281Y-80113779D01*
X144871001Y-80108925D01*
X144872193Y-80104166D01*
X144873846Y-80099546D01*
X144875944Y-80095110D01*
X144878467Y-80090901D01*
X144881389Y-80086960D01*
X144884685Y-80083325D01*
X144888320Y-80080029D01*
X144892261Y-80077107D01*
X144896470Y-80074584D01*
X144900906Y-80072486D01*
X144905526Y-80070833D01*
X144910285Y-80069641D01*
X144915139Y-80068921D01*
X144920040Y-80068680D01*
X145020040Y-80068680D01*
X145024941Y-80068921D01*
X145024941Y-80068921D01*
G37*
D19*
%TD*%
%TO.P,U1,34*%
%TO.N,XC1*%
X144970040Y-80468680D03*
D12*
%TO.N,XC2*%
%TO.C,U1*%
G36*
X144624941Y-80068921D02*
G01*
X144629795Y-80069641D01*
X144634554Y-80070833D01*
X144639174Y-80072486D01*
X144643610Y-80074584D01*
X144647819Y-80077107D01*
X144651760Y-80080029D01*
X144655395Y-80083325D01*
X144658691Y-80086960D01*
X144661613Y-80090901D01*
X144664136Y-80095110D01*
X144666234Y-80099546D01*
X144667887Y-80104166D01*
X144669079Y-80108925D01*
X144669799Y-80113779D01*
X144670040Y-80118680D01*
X144670040Y-80818680D01*
X144669799Y-80823581D01*
X144669079Y-80828435D01*
X144667887Y-80833194D01*
X144666234Y-80837814D01*
X144664136Y-80842250D01*
X144661613Y-80846459D01*
X144658691Y-80850400D01*
X144655395Y-80854035D01*
X144651760Y-80857331D01*
X144647819Y-80860253D01*
X144643610Y-80862776D01*
X144639174Y-80864874D01*
X144634554Y-80866527D01*
X144629795Y-80867719D01*
X144624941Y-80868439D01*
X144620040Y-80868680D01*
X144520040Y-80868680D01*
X144515139Y-80868439D01*
X144510285Y-80867719D01*
X144505526Y-80866527D01*
X144500906Y-80864874D01*
X144496470Y-80862776D01*
X144492261Y-80860253D01*
X144488320Y-80857331D01*
X144484685Y-80854035D01*
X144481389Y-80850400D01*
X144478467Y-80846459D01*
X144475944Y-80842250D01*
X144473846Y-80837814D01*
X144472193Y-80833194D01*
X144471001Y-80828435D01*
X144470281Y-80823581D01*
X144470040Y-80818680D01*
X144470040Y-80118680D01*
X144470281Y-80113779D01*
X144471001Y-80108925D01*
X144472193Y-80104166D01*
X144473846Y-80099546D01*
X144475944Y-80095110D01*
X144478467Y-80090901D01*
X144481389Y-80086960D01*
X144484685Y-80083325D01*
X144488320Y-80080029D01*
X144492261Y-80077107D01*
X144496470Y-80074584D01*
X144500906Y-80072486D01*
X144505526Y-80070833D01*
X144510285Y-80069641D01*
X144515139Y-80068921D01*
X144520040Y-80068680D01*
X144620040Y-80068680D01*
X144624941Y-80068921D01*
X144624941Y-80068921D01*
G37*
D19*
%TD*%
%TO.P,U1,35*%
%TO.N,XC2*%
X144570040Y-80468680D03*
D12*
%TO.N,VDD*%
%TO.C,U1*%
G36*
X144224941Y-80068921D02*
G01*
X144229795Y-80069641D01*
X144234554Y-80070833D01*
X144239174Y-80072486D01*
X144243610Y-80074584D01*
X144247819Y-80077107D01*
X144251760Y-80080029D01*
X144255395Y-80083325D01*
X144258691Y-80086960D01*
X144261613Y-80090901D01*
X144264136Y-80095110D01*
X144266234Y-80099546D01*
X144267887Y-80104166D01*
X144269079Y-80108925D01*
X144269799Y-80113779D01*
X144270040Y-80118680D01*
X144270040Y-80818680D01*
X144269799Y-80823581D01*
X144269079Y-80828435D01*
X144267887Y-80833194D01*
X144266234Y-80837814D01*
X144264136Y-80842250D01*
X144261613Y-80846459D01*
X144258691Y-80850400D01*
X144255395Y-80854035D01*
X144251760Y-80857331D01*
X144247819Y-80860253D01*
X144243610Y-80862776D01*
X144239174Y-80864874D01*
X144234554Y-80866527D01*
X144229795Y-80867719D01*
X144224941Y-80868439D01*
X144220040Y-80868680D01*
X144120040Y-80868680D01*
X144115139Y-80868439D01*
X144110285Y-80867719D01*
X144105526Y-80866527D01*
X144100906Y-80864874D01*
X144096470Y-80862776D01*
X144092261Y-80860253D01*
X144088320Y-80857331D01*
X144084685Y-80854035D01*
X144081389Y-80850400D01*
X144078467Y-80846459D01*
X144075944Y-80842250D01*
X144073846Y-80837814D01*
X144072193Y-80833194D01*
X144071001Y-80828435D01*
X144070281Y-80823581D01*
X144070040Y-80818680D01*
X144070040Y-80118680D01*
X144070281Y-80113779D01*
X144071001Y-80108925D01*
X144072193Y-80104166D01*
X144073846Y-80099546D01*
X144075944Y-80095110D01*
X144078467Y-80090901D01*
X144081389Y-80086960D01*
X144084685Y-80083325D01*
X144088320Y-80080029D01*
X144092261Y-80077107D01*
X144096470Y-80074584D01*
X144100906Y-80072486D01*
X144105526Y-80070833D01*
X144110285Y-80069641D01*
X144115139Y-80068921D01*
X144120040Y-80068680D01*
X144220040Y-80068680D01*
X144224941Y-80068921D01*
X144224941Y-80068921D01*
G37*
D19*
%TD*%
%TO.P,U1,36*%
%TO.N,VDD*%
X144170040Y-80468680D03*
D12*
%TO.N,Net-(U1-Pad37)*%
%TO.C,U1*%
G36*
X143774941Y-81118921D02*
G01*
X143779795Y-81119641D01*
X143784554Y-81120833D01*
X143789174Y-81122486D01*
X143793610Y-81124584D01*
X143797819Y-81127107D01*
X143801760Y-81130029D01*
X143805395Y-81133325D01*
X143808691Y-81136960D01*
X143811613Y-81140901D01*
X143814136Y-81145110D01*
X143816234Y-81149546D01*
X143817887Y-81154166D01*
X143819079Y-81158925D01*
X143819799Y-81163779D01*
X143820040Y-81168680D01*
X143820040Y-81268680D01*
X143819799Y-81273581D01*
X143819079Y-81278435D01*
X143817887Y-81283194D01*
X143816234Y-81287814D01*
X143814136Y-81292250D01*
X143811613Y-81296459D01*
X143808691Y-81300400D01*
X143805395Y-81304035D01*
X143801760Y-81307331D01*
X143797819Y-81310253D01*
X143793610Y-81312776D01*
X143789174Y-81314874D01*
X143784554Y-81316527D01*
X143779795Y-81317719D01*
X143774941Y-81318439D01*
X143770040Y-81318680D01*
X143070040Y-81318680D01*
X143065139Y-81318439D01*
X143060285Y-81317719D01*
X143055526Y-81316527D01*
X143050906Y-81314874D01*
X143046470Y-81312776D01*
X143042261Y-81310253D01*
X143038320Y-81307331D01*
X143034685Y-81304035D01*
X143031389Y-81300400D01*
X143028467Y-81296459D01*
X143025944Y-81292250D01*
X143023846Y-81287814D01*
X143022193Y-81283194D01*
X143021001Y-81278435D01*
X143020281Y-81273581D01*
X143020040Y-81268680D01*
X143020040Y-81168680D01*
X143020281Y-81163779D01*
X143021001Y-81158925D01*
X143022193Y-81154166D01*
X143023846Y-81149546D01*
X143025944Y-81145110D01*
X143028467Y-81140901D01*
X143031389Y-81136960D01*
X143034685Y-81133325D01*
X143038320Y-81130029D01*
X143042261Y-81127107D01*
X143046470Y-81124584D01*
X143050906Y-81122486D01*
X143055526Y-81120833D01*
X143060285Y-81119641D01*
X143065139Y-81118921D01*
X143070040Y-81118680D01*
X143770040Y-81118680D01*
X143774941Y-81118921D01*
X143774941Y-81118921D01*
G37*
D19*
%TD*%
%TO.P,U1,37*%
%TO.N,Net-(U1-Pad37)*%
X143420040Y-81218680D03*
D12*
%TO.N,Net-(U1-Pad38)*%
%TO.C,U1*%
G36*
X143774941Y-81518921D02*
G01*
X143779795Y-81519641D01*
X143784554Y-81520833D01*
X143789174Y-81522486D01*
X143793610Y-81524584D01*
X143797819Y-81527107D01*
X143801760Y-81530029D01*
X143805395Y-81533325D01*
X143808691Y-81536960D01*
X143811613Y-81540901D01*
X143814136Y-81545110D01*
X143816234Y-81549546D01*
X143817887Y-81554166D01*
X143819079Y-81558925D01*
X143819799Y-81563779D01*
X143820040Y-81568680D01*
X143820040Y-81668680D01*
X143819799Y-81673581D01*
X143819079Y-81678435D01*
X143817887Y-81683194D01*
X143816234Y-81687814D01*
X143814136Y-81692250D01*
X143811613Y-81696459D01*
X143808691Y-81700400D01*
X143805395Y-81704035D01*
X143801760Y-81707331D01*
X143797819Y-81710253D01*
X143793610Y-81712776D01*
X143789174Y-81714874D01*
X143784554Y-81716527D01*
X143779795Y-81717719D01*
X143774941Y-81718439D01*
X143770040Y-81718680D01*
X143070040Y-81718680D01*
X143065139Y-81718439D01*
X143060285Y-81717719D01*
X143055526Y-81716527D01*
X143050906Y-81714874D01*
X143046470Y-81712776D01*
X143042261Y-81710253D01*
X143038320Y-81707331D01*
X143034685Y-81704035D01*
X143031389Y-81700400D01*
X143028467Y-81696459D01*
X143025944Y-81692250D01*
X143023846Y-81687814D01*
X143022193Y-81683194D01*
X143021001Y-81678435D01*
X143020281Y-81673581D01*
X143020040Y-81668680D01*
X143020040Y-81568680D01*
X143020281Y-81563779D01*
X143021001Y-81558925D01*
X143022193Y-81554166D01*
X143023846Y-81549546D01*
X143025944Y-81545110D01*
X143028467Y-81540901D01*
X143031389Y-81536960D01*
X143034685Y-81533325D01*
X143038320Y-81530029D01*
X143042261Y-81527107D01*
X143046470Y-81524584D01*
X143050906Y-81522486D01*
X143055526Y-81520833D01*
X143060285Y-81519641D01*
X143065139Y-81518921D01*
X143070040Y-81518680D01*
X143770040Y-81518680D01*
X143774941Y-81518921D01*
X143774941Y-81518921D01*
G37*
D19*
%TD*%
%TO.P,U1,38*%
%TO.N,Net-(U1-Pad38)*%
X143420040Y-81618680D03*
D12*
%TO.N,0.27*%
%TO.C,U1*%
G36*
X143774941Y-81918921D02*
G01*
X143779795Y-81919641D01*
X143784554Y-81920833D01*
X143789174Y-81922486D01*
X143793610Y-81924584D01*
X143797819Y-81927107D01*
X143801760Y-81930029D01*
X143805395Y-81933325D01*
X143808691Y-81936960D01*
X143811613Y-81940901D01*
X143814136Y-81945110D01*
X143816234Y-81949546D01*
X143817887Y-81954166D01*
X143819079Y-81958925D01*
X143819799Y-81963779D01*
X143820040Y-81968680D01*
X143820040Y-82068680D01*
X143819799Y-82073581D01*
X143819079Y-82078435D01*
X143817887Y-82083194D01*
X143816234Y-82087814D01*
X143814136Y-82092250D01*
X143811613Y-82096459D01*
X143808691Y-82100400D01*
X143805395Y-82104035D01*
X143801760Y-82107331D01*
X143797819Y-82110253D01*
X143793610Y-82112776D01*
X143789174Y-82114874D01*
X143784554Y-82116527D01*
X143779795Y-82117719D01*
X143774941Y-82118439D01*
X143770040Y-82118680D01*
X143070040Y-82118680D01*
X143065139Y-82118439D01*
X143060285Y-82117719D01*
X143055526Y-82116527D01*
X143050906Y-82114874D01*
X143046470Y-82112776D01*
X143042261Y-82110253D01*
X143038320Y-82107331D01*
X143034685Y-82104035D01*
X143031389Y-82100400D01*
X143028467Y-82096459D01*
X143025944Y-82092250D01*
X143023846Y-82087814D01*
X143022193Y-82083194D01*
X143021001Y-82078435D01*
X143020281Y-82073581D01*
X143020040Y-82068680D01*
X143020040Y-81968680D01*
X143020281Y-81963779D01*
X143021001Y-81958925D01*
X143022193Y-81954166D01*
X143023846Y-81949546D01*
X143025944Y-81945110D01*
X143028467Y-81940901D01*
X143031389Y-81936960D01*
X143034685Y-81933325D01*
X143038320Y-81930029D01*
X143042261Y-81927107D01*
X143046470Y-81924584D01*
X143050906Y-81922486D01*
X143055526Y-81920833D01*
X143060285Y-81919641D01*
X143065139Y-81918921D01*
X143070040Y-81918680D01*
X143770040Y-81918680D01*
X143774941Y-81918921D01*
X143774941Y-81918921D01*
G37*
D19*
%TD*%
%TO.P,U1,39*%
%TO.N,0.27*%
X143420040Y-82018680D03*
D12*
%TO.N,0.28*%
%TO.C,U1*%
G36*
X143774941Y-82318921D02*
G01*
X143779795Y-82319641D01*
X143784554Y-82320833D01*
X143789174Y-82322486D01*
X143793610Y-82324584D01*
X143797819Y-82327107D01*
X143801760Y-82330029D01*
X143805395Y-82333325D01*
X143808691Y-82336960D01*
X143811613Y-82340901D01*
X143814136Y-82345110D01*
X143816234Y-82349546D01*
X143817887Y-82354166D01*
X143819079Y-82358925D01*
X143819799Y-82363779D01*
X143820040Y-82368680D01*
X143820040Y-82468680D01*
X143819799Y-82473581D01*
X143819079Y-82478435D01*
X143817887Y-82483194D01*
X143816234Y-82487814D01*
X143814136Y-82492250D01*
X143811613Y-82496459D01*
X143808691Y-82500400D01*
X143805395Y-82504035D01*
X143801760Y-82507331D01*
X143797819Y-82510253D01*
X143793610Y-82512776D01*
X143789174Y-82514874D01*
X143784554Y-82516527D01*
X143779795Y-82517719D01*
X143774941Y-82518439D01*
X143770040Y-82518680D01*
X143070040Y-82518680D01*
X143065139Y-82518439D01*
X143060285Y-82517719D01*
X143055526Y-82516527D01*
X143050906Y-82514874D01*
X143046470Y-82512776D01*
X143042261Y-82510253D01*
X143038320Y-82507331D01*
X143034685Y-82504035D01*
X143031389Y-82500400D01*
X143028467Y-82496459D01*
X143025944Y-82492250D01*
X143023846Y-82487814D01*
X143022193Y-82483194D01*
X143021001Y-82478435D01*
X143020281Y-82473581D01*
X143020040Y-82468680D01*
X143020040Y-82368680D01*
X143020281Y-82363779D01*
X143021001Y-82358925D01*
X143022193Y-82354166D01*
X143023846Y-82349546D01*
X143025944Y-82345110D01*
X143028467Y-82340901D01*
X143031389Y-82336960D01*
X143034685Y-82333325D01*
X143038320Y-82330029D01*
X143042261Y-82327107D01*
X143046470Y-82324584D01*
X143050906Y-82322486D01*
X143055526Y-82320833D01*
X143060285Y-82319641D01*
X143065139Y-82318921D01*
X143070040Y-82318680D01*
X143770040Y-82318680D01*
X143774941Y-82318921D01*
X143774941Y-82318921D01*
G37*
D19*
%TD*%
%TO.P,U1,40*%
%TO.N,0.28*%
X143420040Y-82418680D03*
D12*
%TO.N,0.29*%
%TO.C,U1*%
G36*
X143774941Y-82718921D02*
G01*
X143779795Y-82719641D01*
X143784554Y-82720833D01*
X143789174Y-82722486D01*
X143793610Y-82724584D01*
X143797819Y-82727107D01*
X143801760Y-82730029D01*
X143805395Y-82733325D01*
X143808691Y-82736960D01*
X143811613Y-82740901D01*
X143814136Y-82745110D01*
X143816234Y-82749546D01*
X143817887Y-82754166D01*
X143819079Y-82758925D01*
X143819799Y-82763779D01*
X143820040Y-82768680D01*
X143820040Y-82868680D01*
X143819799Y-82873581D01*
X143819079Y-82878435D01*
X143817887Y-82883194D01*
X143816234Y-82887814D01*
X143814136Y-82892250D01*
X143811613Y-82896459D01*
X143808691Y-82900400D01*
X143805395Y-82904035D01*
X143801760Y-82907331D01*
X143797819Y-82910253D01*
X143793610Y-82912776D01*
X143789174Y-82914874D01*
X143784554Y-82916527D01*
X143779795Y-82917719D01*
X143774941Y-82918439D01*
X143770040Y-82918680D01*
X143070040Y-82918680D01*
X143065139Y-82918439D01*
X143060285Y-82917719D01*
X143055526Y-82916527D01*
X143050906Y-82914874D01*
X143046470Y-82912776D01*
X143042261Y-82910253D01*
X143038320Y-82907331D01*
X143034685Y-82904035D01*
X143031389Y-82900400D01*
X143028467Y-82896459D01*
X143025944Y-82892250D01*
X143023846Y-82887814D01*
X143022193Y-82883194D01*
X143021001Y-82878435D01*
X143020281Y-82873581D01*
X143020040Y-82868680D01*
X143020040Y-82768680D01*
X143020281Y-82763779D01*
X143021001Y-82758925D01*
X143022193Y-82754166D01*
X143023846Y-82749546D01*
X143025944Y-82745110D01*
X143028467Y-82740901D01*
X143031389Y-82736960D01*
X143034685Y-82733325D01*
X143038320Y-82730029D01*
X143042261Y-82727107D01*
X143046470Y-82724584D01*
X143050906Y-82722486D01*
X143055526Y-82720833D01*
X143060285Y-82719641D01*
X143065139Y-82718921D01*
X143070040Y-82718680D01*
X143770040Y-82718680D01*
X143774941Y-82718921D01*
X143774941Y-82718921D01*
G37*
D19*
%TD*%
%TO.P,U1,41*%
%TO.N,0.29*%
X143420040Y-82818680D03*
D12*
%TO.N,0.30*%
%TO.C,U1*%
G36*
X143774941Y-83118921D02*
G01*
X143779795Y-83119641D01*
X143784554Y-83120833D01*
X143789174Y-83122486D01*
X143793610Y-83124584D01*
X143797819Y-83127107D01*
X143801760Y-83130029D01*
X143805395Y-83133325D01*
X143808691Y-83136960D01*
X143811613Y-83140901D01*
X143814136Y-83145110D01*
X143816234Y-83149546D01*
X143817887Y-83154166D01*
X143819079Y-83158925D01*
X143819799Y-83163779D01*
X143820040Y-83168680D01*
X143820040Y-83268680D01*
X143819799Y-83273581D01*
X143819079Y-83278435D01*
X143817887Y-83283194D01*
X143816234Y-83287814D01*
X143814136Y-83292250D01*
X143811613Y-83296459D01*
X143808691Y-83300400D01*
X143805395Y-83304035D01*
X143801760Y-83307331D01*
X143797819Y-83310253D01*
X143793610Y-83312776D01*
X143789174Y-83314874D01*
X143784554Y-83316527D01*
X143779795Y-83317719D01*
X143774941Y-83318439D01*
X143770040Y-83318680D01*
X143070040Y-83318680D01*
X143065139Y-83318439D01*
X143060285Y-83317719D01*
X143055526Y-83316527D01*
X143050906Y-83314874D01*
X143046470Y-83312776D01*
X143042261Y-83310253D01*
X143038320Y-83307331D01*
X143034685Y-83304035D01*
X143031389Y-83300400D01*
X143028467Y-83296459D01*
X143025944Y-83292250D01*
X143023846Y-83287814D01*
X143022193Y-83283194D01*
X143021001Y-83278435D01*
X143020281Y-83273581D01*
X143020040Y-83268680D01*
X143020040Y-83168680D01*
X143020281Y-83163779D01*
X143021001Y-83158925D01*
X143022193Y-83154166D01*
X143023846Y-83149546D01*
X143025944Y-83145110D01*
X143028467Y-83140901D01*
X143031389Y-83136960D01*
X143034685Y-83133325D01*
X143038320Y-83130029D01*
X143042261Y-83127107D01*
X143046470Y-83124584D01*
X143050906Y-83122486D01*
X143055526Y-83120833D01*
X143060285Y-83119641D01*
X143065139Y-83118921D01*
X143070040Y-83118680D01*
X143770040Y-83118680D01*
X143774941Y-83118921D01*
X143774941Y-83118921D01*
G37*
D19*
%TD*%
%TO.P,U1,42*%
%TO.N,0.30*%
X143420040Y-83218680D03*
D12*
%TO.N,Net-(U1-Pad43)*%
%TO.C,U1*%
G36*
X143774941Y-83518921D02*
G01*
X143779795Y-83519641D01*
X143784554Y-83520833D01*
X143789174Y-83522486D01*
X143793610Y-83524584D01*
X143797819Y-83527107D01*
X143801760Y-83530029D01*
X143805395Y-83533325D01*
X143808691Y-83536960D01*
X143811613Y-83540901D01*
X143814136Y-83545110D01*
X143816234Y-83549546D01*
X143817887Y-83554166D01*
X143819079Y-83558925D01*
X143819799Y-83563779D01*
X143820040Y-83568680D01*
X143820040Y-83668680D01*
X143819799Y-83673581D01*
X143819079Y-83678435D01*
X143817887Y-83683194D01*
X143816234Y-83687814D01*
X143814136Y-83692250D01*
X143811613Y-83696459D01*
X143808691Y-83700400D01*
X143805395Y-83704035D01*
X143801760Y-83707331D01*
X143797819Y-83710253D01*
X143793610Y-83712776D01*
X143789174Y-83714874D01*
X143784554Y-83716527D01*
X143779795Y-83717719D01*
X143774941Y-83718439D01*
X143770040Y-83718680D01*
X143070040Y-83718680D01*
X143065139Y-83718439D01*
X143060285Y-83717719D01*
X143055526Y-83716527D01*
X143050906Y-83714874D01*
X143046470Y-83712776D01*
X143042261Y-83710253D01*
X143038320Y-83707331D01*
X143034685Y-83704035D01*
X143031389Y-83700400D01*
X143028467Y-83696459D01*
X143025944Y-83692250D01*
X143023846Y-83687814D01*
X143022193Y-83683194D01*
X143021001Y-83678435D01*
X143020281Y-83673581D01*
X143020040Y-83668680D01*
X143020040Y-83568680D01*
X143020281Y-83563779D01*
X143021001Y-83558925D01*
X143022193Y-83554166D01*
X143023846Y-83549546D01*
X143025944Y-83545110D01*
X143028467Y-83540901D01*
X143031389Y-83536960D01*
X143034685Y-83533325D01*
X143038320Y-83530029D01*
X143042261Y-83527107D01*
X143046470Y-83524584D01*
X143050906Y-83522486D01*
X143055526Y-83520833D01*
X143060285Y-83519641D01*
X143065139Y-83518921D01*
X143070040Y-83518680D01*
X143770040Y-83518680D01*
X143774941Y-83518921D01*
X143774941Y-83518921D01*
G37*
D19*
%TD*%
%TO.P,U1,43*%
%TO.N,Net-(U1-Pad43)*%
X143420040Y-83618680D03*
D12*
%TO.N,Net-(U1-Pad44)*%
%TO.C,U1*%
G36*
X143774941Y-83918921D02*
G01*
X143779795Y-83919641D01*
X143784554Y-83920833D01*
X143789174Y-83922486D01*
X143793610Y-83924584D01*
X143797819Y-83927107D01*
X143801760Y-83930029D01*
X143805395Y-83933325D01*
X143808691Y-83936960D01*
X143811613Y-83940901D01*
X143814136Y-83945110D01*
X143816234Y-83949546D01*
X143817887Y-83954166D01*
X143819079Y-83958925D01*
X143819799Y-83963779D01*
X143820040Y-83968680D01*
X143820040Y-84068680D01*
X143819799Y-84073581D01*
X143819079Y-84078435D01*
X143817887Y-84083194D01*
X143816234Y-84087814D01*
X143814136Y-84092250D01*
X143811613Y-84096459D01*
X143808691Y-84100400D01*
X143805395Y-84104035D01*
X143801760Y-84107331D01*
X143797819Y-84110253D01*
X143793610Y-84112776D01*
X143789174Y-84114874D01*
X143784554Y-84116527D01*
X143779795Y-84117719D01*
X143774941Y-84118439D01*
X143770040Y-84118680D01*
X143070040Y-84118680D01*
X143065139Y-84118439D01*
X143060285Y-84117719D01*
X143055526Y-84116527D01*
X143050906Y-84114874D01*
X143046470Y-84112776D01*
X143042261Y-84110253D01*
X143038320Y-84107331D01*
X143034685Y-84104035D01*
X143031389Y-84100400D01*
X143028467Y-84096459D01*
X143025944Y-84092250D01*
X143023846Y-84087814D01*
X143022193Y-84083194D01*
X143021001Y-84078435D01*
X143020281Y-84073581D01*
X143020040Y-84068680D01*
X143020040Y-83968680D01*
X143020281Y-83963779D01*
X143021001Y-83958925D01*
X143022193Y-83954166D01*
X143023846Y-83949546D01*
X143025944Y-83945110D01*
X143028467Y-83940901D01*
X143031389Y-83936960D01*
X143034685Y-83933325D01*
X143038320Y-83930029D01*
X143042261Y-83927107D01*
X143046470Y-83924584D01*
X143050906Y-83922486D01*
X143055526Y-83920833D01*
X143060285Y-83919641D01*
X143065139Y-83918921D01*
X143070040Y-83918680D01*
X143770040Y-83918680D01*
X143774941Y-83918921D01*
X143774941Y-83918921D01*
G37*
D19*
%TD*%
%TO.P,U1,44*%
%TO.N,Net-(U1-Pad44)*%
X143420040Y-84018680D03*
D12*
%TO.N,VSS*%
%TO.C,U1*%
G36*
X143774941Y-84318921D02*
G01*
X143779795Y-84319641D01*
X143784554Y-84320833D01*
X143789174Y-84322486D01*
X143793610Y-84324584D01*
X143797819Y-84327107D01*
X143801760Y-84330029D01*
X143805395Y-84333325D01*
X143808691Y-84336960D01*
X143811613Y-84340901D01*
X143814136Y-84345110D01*
X143816234Y-84349546D01*
X143817887Y-84354166D01*
X143819079Y-84358925D01*
X143819799Y-84363779D01*
X143820040Y-84368680D01*
X143820040Y-84468680D01*
X143819799Y-84473581D01*
X143819079Y-84478435D01*
X143817887Y-84483194D01*
X143816234Y-84487814D01*
X143814136Y-84492250D01*
X143811613Y-84496459D01*
X143808691Y-84500400D01*
X143805395Y-84504035D01*
X143801760Y-84507331D01*
X143797819Y-84510253D01*
X143793610Y-84512776D01*
X143789174Y-84514874D01*
X143784554Y-84516527D01*
X143779795Y-84517719D01*
X143774941Y-84518439D01*
X143770040Y-84518680D01*
X143070040Y-84518680D01*
X143065139Y-84518439D01*
X143060285Y-84517719D01*
X143055526Y-84516527D01*
X143050906Y-84514874D01*
X143046470Y-84512776D01*
X143042261Y-84510253D01*
X143038320Y-84507331D01*
X143034685Y-84504035D01*
X143031389Y-84500400D01*
X143028467Y-84496459D01*
X143025944Y-84492250D01*
X143023846Y-84487814D01*
X143022193Y-84483194D01*
X143021001Y-84478435D01*
X143020281Y-84473581D01*
X143020040Y-84468680D01*
X143020040Y-84368680D01*
X143020281Y-84363779D01*
X143021001Y-84358925D01*
X143022193Y-84354166D01*
X143023846Y-84349546D01*
X143025944Y-84345110D01*
X143028467Y-84340901D01*
X143031389Y-84336960D01*
X143034685Y-84333325D01*
X143038320Y-84330029D01*
X143042261Y-84327107D01*
X143046470Y-84324584D01*
X143050906Y-84322486D01*
X143055526Y-84320833D01*
X143060285Y-84319641D01*
X143065139Y-84318921D01*
X143070040Y-84318680D01*
X143770040Y-84318680D01*
X143774941Y-84318921D01*
X143774941Y-84318921D01*
G37*
D19*
%TD*%
%TO.P,U1,45*%
%TO.N,VSS*%
X143420040Y-84418680D03*
D12*
%TO.N,D4*%
%TO.C,U1*%
G36*
X143774941Y-84718921D02*
G01*
X143779795Y-84719641D01*
X143784554Y-84720833D01*
X143789174Y-84722486D01*
X143793610Y-84724584D01*
X143797819Y-84727107D01*
X143801760Y-84730029D01*
X143805395Y-84733325D01*
X143808691Y-84736960D01*
X143811613Y-84740901D01*
X143814136Y-84745110D01*
X143816234Y-84749546D01*
X143817887Y-84754166D01*
X143819079Y-84758925D01*
X143819799Y-84763779D01*
X143820040Y-84768680D01*
X143820040Y-84868680D01*
X143819799Y-84873581D01*
X143819079Y-84878435D01*
X143817887Y-84883194D01*
X143816234Y-84887814D01*
X143814136Y-84892250D01*
X143811613Y-84896459D01*
X143808691Y-84900400D01*
X143805395Y-84904035D01*
X143801760Y-84907331D01*
X143797819Y-84910253D01*
X143793610Y-84912776D01*
X143789174Y-84914874D01*
X143784554Y-84916527D01*
X143779795Y-84917719D01*
X143774941Y-84918439D01*
X143770040Y-84918680D01*
X143070040Y-84918680D01*
X143065139Y-84918439D01*
X143060285Y-84917719D01*
X143055526Y-84916527D01*
X143050906Y-84914874D01*
X143046470Y-84912776D01*
X143042261Y-84910253D01*
X143038320Y-84907331D01*
X143034685Y-84904035D01*
X143031389Y-84900400D01*
X143028467Y-84896459D01*
X143025944Y-84892250D01*
X143023846Y-84887814D01*
X143022193Y-84883194D01*
X143021001Y-84878435D01*
X143020281Y-84873581D01*
X143020040Y-84868680D01*
X143020040Y-84768680D01*
X143020281Y-84763779D01*
X143021001Y-84758925D01*
X143022193Y-84754166D01*
X143023846Y-84749546D01*
X143025944Y-84745110D01*
X143028467Y-84740901D01*
X143031389Y-84736960D01*
X143034685Y-84733325D01*
X143038320Y-84730029D01*
X143042261Y-84727107D01*
X143046470Y-84724584D01*
X143050906Y-84722486D01*
X143055526Y-84720833D01*
X143060285Y-84719641D01*
X143065139Y-84718921D01*
X143070040Y-84718680D01*
X143770040Y-84718680D01*
X143774941Y-84718921D01*
X143774941Y-84718921D01*
G37*
D19*
%TD*%
%TO.P,U1,46*%
%TO.N,D4*%
X143420040Y-84818680D03*
D12*
%TO.N,Net-(U1-Pad47)*%
%TO.C,U1*%
G36*
X143774941Y-85118921D02*
G01*
X143779795Y-85119641D01*
X143784554Y-85120833D01*
X143789174Y-85122486D01*
X143793610Y-85124584D01*
X143797819Y-85127107D01*
X143801760Y-85130029D01*
X143805395Y-85133325D01*
X143808691Y-85136960D01*
X143811613Y-85140901D01*
X143814136Y-85145110D01*
X143816234Y-85149546D01*
X143817887Y-85154166D01*
X143819079Y-85158925D01*
X143819799Y-85163779D01*
X143820040Y-85168680D01*
X143820040Y-85268680D01*
X143819799Y-85273581D01*
X143819079Y-85278435D01*
X143817887Y-85283194D01*
X143816234Y-85287814D01*
X143814136Y-85292250D01*
X143811613Y-85296459D01*
X143808691Y-85300400D01*
X143805395Y-85304035D01*
X143801760Y-85307331D01*
X143797819Y-85310253D01*
X143793610Y-85312776D01*
X143789174Y-85314874D01*
X143784554Y-85316527D01*
X143779795Y-85317719D01*
X143774941Y-85318439D01*
X143770040Y-85318680D01*
X143070040Y-85318680D01*
X143065139Y-85318439D01*
X143060285Y-85317719D01*
X143055526Y-85316527D01*
X143050906Y-85314874D01*
X143046470Y-85312776D01*
X143042261Y-85310253D01*
X143038320Y-85307331D01*
X143034685Y-85304035D01*
X143031389Y-85300400D01*
X143028467Y-85296459D01*
X143025944Y-85292250D01*
X143023846Y-85287814D01*
X143022193Y-85283194D01*
X143021001Y-85278435D01*
X143020281Y-85273581D01*
X143020040Y-85268680D01*
X143020040Y-85168680D01*
X143020281Y-85163779D01*
X143021001Y-85158925D01*
X143022193Y-85154166D01*
X143023846Y-85149546D01*
X143025944Y-85145110D01*
X143028467Y-85140901D01*
X143031389Y-85136960D01*
X143034685Y-85133325D01*
X143038320Y-85130029D01*
X143042261Y-85127107D01*
X143046470Y-85124584D01*
X143050906Y-85122486D01*
X143055526Y-85120833D01*
X143060285Y-85119641D01*
X143065139Y-85118921D01*
X143070040Y-85118680D01*
X143770040Y-85118680D01*
X143774941Y-85118921D01*
X143774941Y-85118921D01*
G37*
D19*
%TD*%
%TO.P,U1,47*%
%TO.N,Net-(U1-Pad47)*%
X143420040Y-85218680D03*
D12*
%TO.N,VDD*%
%TO.C,U1*%
G36*
X143774941Y-85518921D02*
G01*
X143779795Y-85519641D01*
X143784554Y-85520833D01*
X143789174Y-85522486D01*
X143793610Y-85524584D01*
X143797819Y-85527107D01*
X143801760Y-85530029D01*
X143805395Y-85533325D01*
X143808691Y-85536960D01*
X143811613Y-85540901D01*
X143814136Y-85545110D01*
X143816234Y-85549546D01*
X143817887Y-85554166D01*
X143819079Y-85558925D01*
X143819799Y-85563779D01*
X143820040Y-85568680D01*
X143820040Y-85668680D01*
X143819799Y-85673581D01*
X143819079Y-85678435D01*
X143817887Y-85683194D01*
X143816234Y-85687814D01*
X143814136Y-85692250D01*
X143811613Y-85696459D01*
X143808691Y-85700400D01*
X143805395Y-85704035D01*
X143801760Y-85707331D01*
X143797819Y-85710253D01*
X143793610Y-85712776D01*
X143789174Y-85714874D01*
X143784554Y-85716527D01*
X143779795Y-85717719D01*
X143774941Y-85718439D01*
X143770040Y-85718680D01*
X143070040Y-85718680D01*
X143065139Y-85718439D01*
X143060285Y-85717719D01*
X143055526Y-85716527D01*
X143050906Y-85714874D01*
X143046470Y-85712776D01*
X143042261Y-85710253D01*
X143038320Y-85707331D01*
X143034685Y-85704035D01*
X143031389Y-85700400D01*
X143028467Y-85696459D01*
X143025944Y-85692250D01*
X143023846Y-85687814D01*
X143022193Y-85683194D01*
X143021001Y-85678435D01*
X143020281Y-85673581D01*
X143020040Y-85668680D01*
X143020040Y-85568680D01*
X143020281Y-85563779D01*
X143021001Y-85558925D01*
X143022193Y-85554166D01*
X143023846Y-85549546D01*
X143025944Y-85545110D01*
X143028467Y-85540901D01*
X143031389Y-85536960D01*
X143034685Y-85533325D01*
X143038320Y-85530029D01*
X143042261Y-85527107D01*
X143046470Y-85524584D01*
X143050906Y-85522486D01*
X143055526Y-85520833D01*
X143060285Y-85519641D01*
X143065139Y-85518921D01*
X143070040Y-85518680D01*
X143770040Y-85518680D01*
X143774941Y-85518921D01*
X143774941Y-85518921D01*
G37*
D19*
%TD*%
%TO.P,U1,48*%
%TO.N,VDD*%
X143420040Y-85618680D03*
D20*
%TO.N,VSS*%
X146370040Y-83418680D03*
X139496800Y-90545920D03*
D21*
X143037560Y-89372440D03*
X144221200Y-89164160D03*
X140665200Y-86431120D03*
X150266400Y-87320120D03*
X150632160Y-74996040D03*
X140660120Y-83860640D03*
X138653520Y-81097120D03*
X138658600Y-80152240D03*
X140761720Y-73446640D03*
X141752320Y-74863960D03*
X148209000Y-78602840D03*
%TO.N,SWDIO*%
X149235160Y-78999080D03*
D20*
%TO.N,VDD*%
X150555960Y-90505280D03*
D21*
X151384000Y-89468960D03*
X150388320Y-89555320D03*
X140985240Y-87696040D03*
X141823440Y-87701120D03*
X150210520Y-86349840D03*
X150301960Y-85689440D03*
X143393160Y-80421480D03*
%TO.N,0.28*%
X140756640Y-82163920D03*
%TO.N,0.27*%
X141955520Y-81782920D03*
%TO.N,0.08_RX*%
X148244560Y-87701120D03*
%TO.N,0.06_TX*%
X146969480Y-89230200D03*
%TO.N,0.05_RTS*%
X145902680Y-87630000D03*
%TD*%
D22*
%TO.N,D1*%
X144195800Y-86394440D02*
X144170040Y-86368680D01*
X144195800Y-87409160D02*
X144195800Y-86394440D01*
D23*
%TO.N,VSS*%
X146170040Y-80468680D02*
X146170040Y-83218680D01*
X146170040Y-83218680D02*
X146370040Y-83418680D01*
D24*
X137139680Y-90525600D02*
X139476480Y-90525600D01*
X139476480Y-90525600D02*
X139496800Y-90545920D01*
D22*
X138653520Y-80157320D02*
X138653520Y-81097120D01*
X138658600Y-80152240D02*
X138653520Y-80157320D01*
D25*
X140680240Y-86416080D02*
X140665200Y-86431120D01*
X141655800Y-86416080D02*
X140680240Y-86416080D01*
X143042640Y-89367360D02*
X143037560Y-89372440D01*
X143042640Y-88539520D02*
X143042640Y-89367360D01*
X144195800Y-89138760D02*
X144221200Y-89164160D01*
X144195800Y-88379160D02*
X144195800Y-89138760D01*
X149367240Y-87325200D02*
X150261320Y-87325200D01*
X150261320Y-87325200D02*
X150266400Y-87320120D01*
X149429240Y-75016360D02*
X150611840Y-75016360D01*
X150611840Y-75016360D02*
X150632160Y-74996040D01*
D22*
X143420040Y-84418680D02*
X143016480Y-84418680D01*
X143016480Y-84418680D02*
X142458440Y-83860640D01*
X142458440Y-83860640D02*
X140660120Y-83860640D01*
D25*
X139745720Y-81097120D02*
X138653520Y-81097120D01*
X139761240Y-80152240D02*
X138658600Y-80152240D01*
X139474840Y-79865840D02*
X139761240Y-80152240D01*
X139474840Y-78763040D02*
X139474840Y-79865840D01*
X141174840Y-76563040D02*
X142298600Y-76563040D01*
X141174840Y-75627600D02*
X140761720Y-75214480D01*
X141174840Y-76563040D02*
X141174840Y-75627600D01*
X140761720Y-75214480D02*
X140761720Y-73446640D01*
X143779240Y-75016360D02*
X141904720Y-75016360D01*
X141904720Y-75016360D02*
X141752320Y-74863960D01*
X143499840Y-78237080D02*
X142427960Y-77165200D01*
X143931920Y-78237080D02*
X143499840Y-78237080D01*
X142427960Y-76692400D02*
X142298600Y-76563040D01*
X142427960Y-77165200D02*
X142427960Y-76692400D01*
D22*
X147533080Y-79263240D02*
X147548600Y-79263240D01*
X147548600Y-79263240D02*
X148209000Y-78602840D01*
%TO.N,XC1*%
X144970040Y-80468680D02*
X144970040Y-79793640D01*
X144970040Y-79793640D02*
X144515840Y-79339440D01*
X144515840Y-79339440D02*
X143692880Y-79339440D01*
X143692880Y-79339440D02*
X141965680Y-77612240D01*
X140524040Y-77612240D02*
X139474840Y-76563040D01*
X141965680Y-77612240D02*
X140524040Y-77612240D01*
X139474840Y-75531360D02*
X139791720Y-75214480D01*
X139474840Y-76563040D02*
X139474840Y-75531360D01*
D25*
%TO.N,ANT*%
X146570040Y-79270200D02*
X146563080Y-79263240D01*
X146570040Y-80468680D02*
X146570040Y-79270200D01*
X146563080Y-78292960D02*
X146573240Y-78282800D01*
X146563080Y-79263240D02*
X146563080Y-78292960D01*
D22*
%TO.N,D3*%
X145370040Y-78705200D02*
X144901920Y-78237080D01*
X145370040Y-80468680D02*
X145370040Y-78705200D01*
D23*
%TO.N,D4*%
X143397640Y-84841080D02*
X143420040Y-84818680D01*
X141655800Y-84841080D02*
X143397640Y-84841080D01*
D22*
%TO.N,XC2*%
X144570040Y-80468680D02*
X144570040Y-79896560D01*
X144570040Y-79896560D02*
X144444720Y-79771240D01*
X142183040Y-79771240D02*
X141174840Y-78763040D01*
X144444720Y-79771240D02*
X142183040Y-79771240D01*
X141174840Y-79708640D02*
X140731240Y-80152240D01*
X141174840Y-78763040D02*
X141174840Y-79708640D01*
%TO.N,SWDCLK*%
X149736600Y-80468680D02*
X152379680Y-77825600D01*
X148570040Y-80468680D02*
X149736600Y-80468680D01*
%TO.N,SWDIO*%
X148170040Y-80468680D02*
X148170040Y-79774640D01*
X148170040Y-79774640D02*
X148945600Y-78999080D01*
X148945600Y-78999080D02*
X149235160Y-78999080D01*
D24*
%TO.N,VDD*%
X150576280Y-90525600D02*
X150555960Y-90505280D01*
X150474680Y-89468960D02*
X150388320Y-89555320D01*
X151384000Y-89468960D02*
X150474680Y-89468960D01*
D23*
X149367240Y-85665880D02*
X149320040Y-85618680D01*
X149367240Y-86355200D02*
X149367240Y-85665880D01*
D25*
X142560040Y-86964520D02*
X141823440Y-87701120D01*
X143042640Y-86964520D02*
X142560040Y-86964520D01*
X140990320Y-87701120D02*
X140985240Y-87696040D01*
X141823440Y-87701120D02*
X140990320Y-87701120D01*
X143042640Y-85996080D02*
X143420040Y-85618680D01*
X143042640Y-86964520D02*
X143042640Y-85996080D01*
X149367240Y-86355200D02*
X150205160Y-86355200D01*
X150205160Y-86355200D02*
X150210520Y-86349840D01*
X150210520Y-86349840D02*
X150210520Y-85780880D01*
X150210520Y-85780880D02*
X150301960Y-85689440D01*
X149390800Y-85689440D02*
X149320040Y-85618680D01*
X150301960Y-85689440D02*
X149390800Y-85689440D01*
X143440360Y-80468680D02*
X143393160Y-80421480D01*
X144170040Y-80468680D02*
X143440360Y-80468680D01*
X141391360Y-80421480D02*
X140715720Y-81097120D01*
X143393160Y-80421480D02*
X141391360Y-80421480D01*
D23*
X151013160Y-89555320D02*
X151983440Y-90525600D01*
X150388320Y-89555320D02*
X151013160Y-89555320D01*
D24*
X152379680Y-90525600D02*
X151983440Y-90525600D01*
D22*
X150622000Y-89555320D02*
X151592280Y-90525600D01*
X150388320Y-89555320D02*
X150622000Y-89555320D01*
D24*
X151983440Y-90525600D02*
X151592280Y-90525600D01*
X151592280Y-90525600D02*
X150576280Y-90525600D01*
D22*
X151384000Y-89468960D02*
X151272240Y-89468960D01*
X151272240Y-89468960D02*
X150845520Y-89895680D01*
X150845520Y-89895680D02*
X150962360Y-89895680D01*
X151475440Y-90525600D02*
X150845520Y-89895680D01*
X152379680Y-90525600D02*
X151475440Y-90525600D01*
X151531320Y-90525600D02*
X150474680Y-89468960D01*
X152379680Y-90525600D02*
X151531320Y-90525600D01*
D23*
X151592280Y-90525600D02*
X151074120Y-90007440D01*
X152379680Y-90525600D02*
X151592280Y-90525600D01*
D22*
X150962360Y-89895680D02*
X151074120Y-90007440D01*
D23*
X152379680Y-90464640D02*
X151658320Y-89743280D01*
X152379680Y-90525600D02*
X152379680Y-90464640D01*
D25*
X151658320Y-89743280D02*
X151384000Y-89468960D01*
D23*
X152379680Y-90525600D02*
X152237440Y-90525600D01*
X151384000Y-89672160D02*
X151384000Y-89468960D01*
X152237440Y-90525600D02*
X151384000Y-89672160D01*
X152379680Y-90525600D02*
X151790400Y-90525600D01*
X151790400Y-90525600D02*
X151246840Y-89982040D01*
X151246840Y-89982040D02*
X150728680Y-89982040D01*
D22*
%TO.N,RESET_0.21*%
X151526600Y-81218680D02*
X152379680Y-80365600D01*
X149320040Y-81218680D02*
X151526600Y-81218680D01*
%TO.N,SWO*%
X151892760Y-82418680D02*
X152379680Y-82905600D01*
X149320040Y-82418680D02*
X151892760Y-82418680D01*
%TO.N,0.30*%
X137452760Y-83218680D02*
X137139680Y-82905600D01*
X143420040Y-83218680D02*
X137452760Y-83218680D01*
%TO.N,0.29*%
X143420040Y-82818680D02*
X138876480Y-82818680D01*
X137139680Y-81081880D02*
X137139680Y-80365600D01*
X138876480Y-82818680D02*
X137139680Y-81081880D01*
%TO.N,0.28*%
X143420040Y-82418680D02*
X141011400Y-82418680D01*
X141011400Y-82418680D02*
X140756640Y-82163920D01*
%TO.N,0.27*%
X143420040Y-82018680D02*
X142191280Y-82018680D01*
X142191280Y-82018680D02*
X141955520Y-81782920D01*
%TO.N,0.08_RX*%
X147770040Y-86368680D02*
X147770040Y-87226600D01*
X147770040Y-87226600D02*
X148244560Y-87701120D01*
%TO.N,0.07_CTS*%
X147370040Y-86368680D02*
X147370040Y-88452200D01*
X147370040Y-88452200D02*
X147502880Y-88585040D01*
X151780240Y-88585040D02*
X152379680Y-87985600D01*
X147502880Y-88585040D02*
X151780240Y-88585040D01*
%TO.N,0.06_TX*%
X146970040Y-86368680D02*
X146970040Y-89229640D01*
X146970040Y-89229640D02*
X146969480Y-89230200D01*
%TO.N,0.05_RTS*%
X146570040Y-86368680D02*
X146570040Y-86962640D01*
X146570040Y-86962640D02*
X145902680Y-87630000D01*
D25*
%TO.N,Net-(J4-Pad1)*%
X146573240Y-74847360D02*
X146604240Y-74816360D01*
X146573240Y-77312800D02*
X146573240Y-74847360D01*
%TD*%
D26*
%TO.N,VSS*%
G36*
X142469240Y-74730610D02*
G01*
X142627990Y-74889360D01*
X143652240Y-74889360D01*
X143652240Y-74869360D01*
X143906240Y-74869360D01*
X143906240Y-74889360D01*
X143926240Y-74889360D01*
X143926240Y-75143360D01*
X143906240Y-75143360D01*
X143906240Y-75163360D01*
X143652240Y-75163360D01*
X143652240Y-75143360D01*
X142627990Y-75143360D01*
X142469240Y-75302110D01*
X142466243Y-77072214D01*
X142411162Y-77027009D01*
X142409840Y-76848790D01*
X142251090Y-76690040D01*
X142243304Y-76690040D01*
X142247385Y-76436040D01*
X142251090Y-76436040D01*
X142409840Y-76277290D01*
X142412912Y-75863040D01*
X142400652Y-75738558D01*
X142364342Y-75618860D01*
X142305377Y-75508546D01*
X142226025Y-75411855D01*
X142129334Y-75332503D01*
X142019020Y-75273538D01*
X141899322Y-75237228D01*
X141774840Y-75224968D01*
X141460590Y-75228040D01*
X141452657Y-75235973D01*
X141449358Y-75087480D01*
X141532970Y-75087480D01*
X141691720Y-74928730D01*
X141694792Y-74894480D01*
X141682532Y-74769998D01*
X141646222Y-74650300D01*
X141587257Y-74539986D01*
X141507905Y-74443295D01*
X141411214Y-74363943D01*
X141300900Y-74304978D01*
X141181202Y-74268668D01*
X141056720Y-74256408D01*
X141047470Y-74259480D01*
X140888720Y-74418230D01*
X140888720Y-74422000D01*
X140634720Y-74422000D01*
X140634720Y-74418230D01*
X140475970Y-74259480D01*
X140466720Y-74256408D01*
X140342238Y-74268668D01*
X140222540Y-74304978D01*
X140215404Y-74308792D01*
X140092477Y-74271503D01*
X139939220Y-74256408D01*
X139644220Y-74256408D01*
X139490963Y-74271503D01*
X139343595Y-74316206D01*
X139207780Y-74388801D01*
X139167327Y-74422000D01*
X138551920Y-74422000D01*
X138527144Y-74424440D01*
X138503319Y-74431667D01*
X138481363Y-74443403D01*
X138462117Y-74459197D01*
X138446323Y-74478443D01*
X138434587Y-74500399D01*
X138427360Y-74524224D01*
X138425676Y-74541319D01*
X138380386Y-74456586D01*
X138194814Y-74230466D01*
X137968694Y-74044894D01*
X137710714Y-73907001D01*
X137430791Y-73822087D01*
X137212630Y-73800600D01*
X137066730Y-73800600D01*
X136848569Y-73822087D01*
X136568646Y-73907001D01*
X136310666Y-74044894D01*
X136084546Y-74230466D01*
X135898974Y-74456586D01*
X135761081Y-74714566D01*
X135676167Y-74994489D01*
X135647495Y-75285600D01*
X135676167Y-75576711D01*
X135761081Y-75856634D01*
X135898974Y-76114614D01*
X136084546Y-76340734D01*
X136310666Y-76526306D01*
X136365471Y-76555600D01*
X136310666Y-76584894D01*
X136084546Y-76770466D01*
X135898974Y-76996586D01*
X135761081Y-77254566D01*
X135676167Y-77534489D01*
X135647495Y-77825600D01*
X135676167Y-78116711D01*
X135761081Y-78396634D01*
X135898974Y-78654614D01*
X136084546Y-78880734D01*
X136310666Y-79066306D01*
X136365471Y-79095600D01*
X136310666Y-79124894D01*
X136084546Y-79310466D01*
X135898974Y-79536586D01*
X135761081Y-79794566D01*
X135676167Y-80074489D01*
X135647495Y-80365600D01*
X135676167Y-80656711D01*
X135761081Y-80936634D01*
X135898974Y-81194614D01*
X136084546Y-81420734D01*
X136310666Y-81606306D01*
X136365471Y-81635600D01*
X136310666Y-81664894D01*
X136084546Y-81850466D01*
X135931527Y-82036920D01*
X135597808Y-82036920D01*
X135621078Y-74045840D01*
X135632620Y-73916392D01*
X135658896Y-73826505D01*
X135702132Y-73743433D01*
X135760676Y-73670345D01*
X135832305Y-73610018D01*
X135914289Y-73564752D01*
X136003498Y-73536273D01*
X136125639Y-73522346D01*
X142467144Y-73492856D01*
X142469240Y-74730610D01*
X142469240Y-74730610D01*
G37*
X142469240Y-74730610D02*
X142627990Y-74889360D01*
X143652240Y-74889360D01*
X143652240Y-74869360D01*
X143906240Y-74869360D01*
X143906240Y-74889360D01*
X143926240Y-74889360D01*
X143926240Y-75143360D01*
X143906240Y-75143360D01*
X143906240Y-75163360D01*
X143652240Y-75163360D01*
X143652240Y-75143360D01*
X142627990Y-75143360D01*
X142469240Y-75302110D01*
X142466243Y-77072214D01*
X142411162Y-77027009D01*
X142409840Y-76848790D01*
X142251090Y-76690040D01*
X142243304Y-76690040D01*
X142247385Y-76436040D01*
X142251090Y-76436040D01*
X142409840Y-76277290D01*
X142412912Y-75863040D01*
X142400652Y-75738558D01*
X142364342Y-75618860D01*
X142305377Y-75508546D01*
X142226025Y-75411855D01*
X142129334Y-75332503D01*
X142019020Y-75273538D01*
X141899322Y-75237228D01*
X141774840Y-75224968D01*
X141460590Y-75228040D01*
X141452657Y-75235973D01*
X141449358Y-75087480D01*
X141532970Y-75087480D01*
X141691720Y-74928730D01*
X141694792Y-74894480D01*
X141682532Y-74769998D01*
X141646222Y-74650300D01*
X141587257Y-74539986D01*
X141507905Y-74443295D01*
X141411214Y-74363943D01*
X141300900Y-74304978D01*
X141181202Y-74268668D01*
X141056720Y-74256408D01*
X141047470Y-74259480D01*
X140888720Y-74418230D01*
X140888720Y-74422000D01*
X140634720Y-74422000D01*
X140634720Y-74418230D01*
X140475970Y-74259480D01*
X140466720Y-74256408D01*
X140342238Y-74268668D01*
X140222540Y-74304978D01*
X140215404Y-74308792D01*
X140092477Y-74271503D01*
X139939220Y-74256408D01*
X139644220Y-74256408D01*
X139490963Y-74271503D01*
X139343595Y-74316206D01*
X139207780Y-74388801D01*
X139167327Y-74422000D01*
X138551920Y-74422000D01*
X138527144Y-74424440D01*
X138503319Y-74431667D01*
X138481363Y-74443403D01*
X138462117Y-74459197D01*
X138446323Y-74478443D01*
X138434587Y-74500399D01*
X138427360Y-74524224D01*
X138425676Y-74541319D01*
X138380386Y-74456586D01*
X138194814Y-74230466D01*
X137968694Y-74044894D01*
X137710714Y-73907001D01*
X137430791Y-73822087D01*
X137212630Y-73800600D01*
X137066730Y-73800600D01*
X136848569Y-73822087D01*
X136568646Y-73907001D01*
X136310666Y-74044894D01*
X136084546Y-74230466D01*
X135898974Y-74456586D01*
X135761081Y-74714566D01*
X135676167Y-74994489D01*
X135647495Y-75285600D01*
X135676167Y-75576711D01*
X135761081Y-75856634D01*
X135898974Y-76114614D01*
X136084546Y-76340734D01*
X136310666Y-76526306D01*
X136365471Y-76555600D01*
X136310666Y-76584894D01*
X136084546Y-76770466D01*
X135898974Y-76996586D01*
X135761081Y-77254566D01*
X135676167Y-77534489D01*
X135647495Y-77825600D01*
X135676167Y-78116711D01*
X135761081Y-78396634D01*
X135898974Y-78654614D01*
X136084546Y-78880734D01*
X136310666Y-79066306D01*
X136365471Y-79095600D01*
X136310666Y-79124894D01*
X136084546Y-79310466D01*
X135898974Y-79536586D01*
X135761081Y-79794566D01*
X135676167Y-80074489D01*
X135647495Y-80365600D01*
X135676167Y-80656711D01*
X135761081Y-80936634D01*
X135898974Y-81194614D01*
X136084546Y-81420734D01*
X136310666Y-81606306D01*
X136365471Y-81635600D01*
X136310666Y-81664894D01*
X136084546Y-81850466D01*
X135931527Y-82036920D01*
X135597808Y-82036920D01*
X135621078Y-74045840D01*
X135632620Y-73916392D01*
X135658896Y-73826505D01*
X135702132Y-73743433D01*
X135760676Y-73670345D01*
X135832305Y-73610018D01*
X135914289Y-73564752D01*
X136003498Y-73536273D01*
X136125639Y-73522346D01*
X142467144Y-73492856D01*
X142469240Y-74730610D01*
G36*
X138630660Y-80052542D02*
G01*
X138750358Y-80088852D01*
X138874840Y-80101112D01*
X139036042Y-80099536D01*
X139039507Y-80279240D01*
X138989990Y-80279240D01*
X138831240Y-80437990D01*
X138828168Y-80472240D01*
X138840428Y-80596722D01*
X138841149Y-80599099D01*
X138824908Y-80652638D01*
X138812648Y-80777120D01*
X138815720Y-80811370D01*
X138974470Y-80970120D01*
X139052830Y-80970120D01*
X139057728Y-81224120D01*
X138974470Y-81224120D01*
X138815720Y-81382870D01*
X138812648Y-81417120D01*
X138824908Y-81541602D01*
X138861218Y-81661300D01*
X138920183Y-81771614D01*
X138999535Y-81868305D01*
X139096226Y-81947657D01*
X139206540Y-82006622D01*
X139306419Y-82036920D01*
X139134167Y-82036920D01*
X138340483Y-81243236D01*
X138380386Y-81194614D01*
X138518279Y-80936634D01*
X138603193Y-80656711D01*
X138631865Y-80365600D01*
X138603193Y-80074489D01*
X138589931Y-80030772D01*
X138630660Y-80052542D01*
X138630660Y-80052542D01*
G37*
X138630660Y-80052542D02*
X138750358Y-80088852D01*
X138874840Y-80101112D01*
X139036042Y-80099536D01*
X139039507Y-80279240D01*
X138989990Y-80279240D01*
X138831240Y-80437990D01*
X138828168Y-80472240D01*
X138840428Y-80596722D01*
X138841149Y-80599099D01*
X138824908Y-80652638D01*
X138812648Y-80777120D01*
X138815720Y-80811370D01*
X138974470Y-80970120D01*
X139052830Y-80970120D01*
X139057728Y-81224120D01*
X138974470Y-81224120D01*
X138815720Y-81382870D01*
X138812648Y-81417120D01*
X138824908Y-81541602D01*
X138861218Y-81661300D01*
X138920183Y-81771614D01*
X138999535Y-81868305D01*
X139096226Y-81947657D01*
X139206540Y-82006622D01*
X139306419Y-82036920D01*
X139134167Y-82036920D01*
X138340483Y-81243236D01*
X138380386Y-81194614D01*
X138518279Y-80936634D01*
X138603193Y-80656711D01*
X138631865Y-80365600D01*
X138603193Y-80074489D01*
X138589931Y-80030772D01*
X138630660Y-80052542D01*
G36*
X143968848Y-78384080D02*
G01*
X143804920Y-78384080D01*
X143804920Y-78364080D01*
X143784920Y-78364080D01*
X143784920Y-78110080D01*
X143804920Y-78110080D01*
X143804920Y-78090080D01*
X143968848Y-78090080D01*
X143968848Y-78384080D01*
X143968848Y-78384080D01*
G37*
X143968848Y-78384080D02*
X143804920Y-78384080D01*
X143804920Y-78364080D01*
X143784920Y-78364080D01*
X143784920Y-78110080D01*
X143804920Y-78110080D01*
X143804920Y-78090080D01*
X143968848Y-78090080D01*
X143968848Y-78384080D01*
G36*
X135650716Y-82938302D02*
G01*
X135676167Y-83196711D01*
X135761081Y-83476634D01*
X135898974Y-83734614D01*
X136084546Y-83960734D01*
X136310666Y-84146306D01*
X136365471Y-84175600D01*
X136310666Y-84204894D01*
X136084546Y-84390466D01*
X135898974Y-84616586D01*
X135761081Y-84874566D01*
X135676167Y-85154489D01*
X135647495Y-85445600D01*
X135676167Y-85736711D01*
X135761081Y-86016634D01*
X135898974Y-86274614D01*
X136084546Y-86500734D01*
X136310666Y-86686306D01*
X136365471Y-86715600D01*
X136310666Y-86744894D01*
X136084546Y-86930466D01*
X135898974Y-87156586D01*
X135761081Y-87414566D01*
X135676167Y-87694489D01*
X135647495Y-87985600D01*
X135676167Y-88276711D01*
X135761081Y-88556634D01*
X135898974Y-88814614D01*
X136084546Y-89040734D01*
X136114367Y-89065207D01*
X136045500Y-89086098D01*
X135935186Y-89145063D01*
X135838495Y-89224415D01*
X135759143Y-89321106D01*
X135700178Y-89431420D01*
X135663868Y-89551118D01*
X135651608Y-89675600D01*
X135654680Y-90239850D01*
X135813430Y-90398600D01*
X137012680Y-90398600D01*
X137012680Y-90378600D01*
X137266680Y-90378600D01*
X137266680Y-90398600D01*
X138465930Y-90398600D01*
X138624680Y-90239850D01*
X138627752Y-89675600D01*
X138615492Y-89551118D01*
X138579182Y-89431420D01*
X138520217Y-89321106D01*
X138440865Y-89224415D01*
X138344174Y-89145063D01*
X138233860Y-89086098D01*
X138164993Y-89065207D01*
X138194814Y-89040734D01*
X138380386Y-88814614D01*
X138518279Y-88556634D01*
X138603193Y-88276711D01*
X138631865Y-87985600D01*
X138603193Y-87694489D01*
X138518279Y-87414566D01*
X138380386Y-87156586D01*
X138194814Y-86930466D01*
X137968694Y-86744894D01*
X137913889Y-86715600D01*
X137968694Y-86686306D01*
X138194814Y-86500734D01*
X138380386Y-86274614D01*
X138518279Y-86016634D01*
X138603193Y-85736711D01*
X138631865Y-85445600D01*
X138603193Y-85154489D01*
X138518279Y-84874566D01*
X138380386Y-84616586D01*
X138194814Y-84390466D01*
X137968694Y-84204894D01*
X137913889Y-84175600D01*
X137968694Y-84146306D01*
X138194814Y-83960734D01*
X138200603Y-83953680D01*
X140870189Y-83953680D01*
X140793685Y-84016465D01*
X140687129Y-84146305D01*
X140607950Y-84294438D01*
X140559192Y-84455172D01*
X140542728Y-84622330D01*
X140542728Y-85059830D01*
X140559192Y-85226988D01*
X140607950Y-85387722D01*
X140687129Y-85535855D01*
X140704900Y-85557510D01*
X140650263Y-85624086D01*
X140591298Y-85734400D01*
X140554988Y-85854098D01*
X140542728Y-85978580D01*
X140545800Y-86130330D01*
X140704550Y-86289080D01*
X141528800Y-86289080D01*
X141528800Y-86269080D01*
X141782800Y-86269080D01*
X141782800Y-86289080D01*
X141802800Y-86289080D01*
X141802800Y-86543080D01*
X141782800Y-86543080D01*
X141782800Y-86563080D01*
X141528800Y-86563080D01*
X141528800Y-86543080D01*
X140704550Y-86543080D01*
X140545800Y-86701830D01*
X140544658Y-86758259D01*
X140494984Y-86778835D01*
X140325466Y-86892103D01*
X140181303Y-87036266D01*
X140068035Y-87205784D01*
X139990014Y-87394142D01*
X139950240Y-87594101D01*
X139950240Y-87797979D01*
X139990014Y-87997938D01*
X140068035Y-88186296D01*
X140181303Y-88355814D01*
X140325466Y-88499977D01*
X140494984Y-88613245D01*
X140683342Y-88691266D01*
X140883301Y-88731040D01*
X141087179Y-88731040D01*
X141287138Y-88691266D01*
X141398208Y-88645259D01*
X141521542Y-88696346D01*
X141721501Y-88736120D01*
X141925379Y-88736120D01*
X142045729Y-88712181D01*
X141932640Y-88825270D01*
X141929568Y-88977020D01*
X141941828Y-89101502D01*
X141978138Y-89221200D01*
X142020989Y-89301368D01*
X140420831Y-89296724D01*
X140384017Y-89293483D01*
X140323731Y-89300051D01*
X140263386Y-89305818D01*
X140259163Y-89307086D01*
X140254773Y-89307564D01*
X140196898Y-89325777D01*
X140138867Y-89343197D01*
X140134971Y-89345265D01*
X140130760Y-89346590D01*
X140077555Y-89375740D01*
X140024032Y-89404149D01*
X140020615Y-89406936D01*
X140016743Y-89409058D01*
X139970251Y-89448026D01*
X139923295Y-89486334D01*
X139920487Y-89489736D01*
X139917104Y-89492571D01*
X139879124Y-89539839D01*
X139840527Y-89586592D01*
X139838436Y-89590477D01*
X139835672Y-89593917D01*
X139807637Y-89647698D01*
X139778910Y-89701071D01*
X139777618Y-89705287D01*
X139775577Y-89709202D01*
X139758567Y-89767438D01*
X139740809Y-89825371D01*
X139740364Y-89829757D01*
X139739126Y-89833996D01*
X139733806Y-89894418D01*
X139727690Y-89954716D01*
X139731206Y-89991504D01*
X139745772Y-91398895D01*
X139734620Y-91523968D01*
X139708343Y-91613856D01*
X139665109Y-91696926D01*
X139606562Y-91770016D01*
X139534935Y-91830342D01*
X139452950Y-91875609D01*
X139363742Y-91904087D01*
X139241853Y-91917985D01*
X138316512Y-91920923D01*
X138344174Y-91906137D01*
X138440865Y-91826785D01*
X138520217Y-91730094D01*
X138579182Y-91619780D01*
X138615492Y-91500082D01*
X138627752Y-91375600D01*
X138624680Y-90811350D01*
X138465930Y-90652600D01*
X137266680Y-90652600D01*
X137266680Y-90672600D01*
X137012680Y-90672600D01*
X137012680Y-90652600D01*
X135813430Y-90652600D01*
X135654680Y-90811350D01*
X135651608Y-91375600D01*
X135663868Y-91500082D01*
X135700178Y-91619780D01*
X135759143Y-91730094D01*
X135838495Y-91826785D01*
X135935186Y-91906137D01*
X135943272Y-91910459D01*
X135874474Y-91890347D01*
X135791404Y-91847113D01*
X135718314Y-91788566D01*
X135657988Y-91716939D01*
X135612721Y-91634954D01*
X135584243Y-91545746D01*
X135570471Y-91424958D01*
X135595184Y-82938191D01*
X135650716Y-82938302D01*
X135650716Y-82938302D01*
G37*
X135650716Y-82938302D02*
X135676167Y-83196711D01*
X135761081Y-83476634D01*
X135898974Y-83734614D01*
X136084546Y-83960734D01*
X136310666Y-84146306D01*
X136365471Y-84175600D01*
X136310666Y-84204894D01*
X136084546Y-84390466D01*
X135898974Y-84616586D01*
X135761081Y-84874566D01*
X135676167Y-85154489D01*
X135647495Y-85445600D01*
X135676167Y-85736711D01*
X135761081Y-86016634D01*
X135898974Y-86274614D01*
X136084546Y-86500734D01*
X136310666Y-86686306D01*
X136365471Y-86715600D01*
X136310666Y-86744894D01*
X136084546Y-86930466D01*
X135898974Y-87156586D01*
X135761081Y-87414566D01*
X135676167Y-87694489D01*
X135647495Y-87985600D01*
X135676167Y-88276711D01*
X135761081Y-88556634D01*
X135898974Y-88814614D01*
X136084546Y-89040734D01*
X136114367Y-89065207D01*
X136045500Y-89086098D01*
X135935186Y-89145063D01*
X135838495Y-89224415D01*
X135759143Y-89321106D01*
X135700178Y-89431420D01*
X135663868Y-89551118D01*
X135651608Y-89675600D01*
X135654680Y-90239850D01*
X135813430Y-90398600D01*
X137012680Y-90398600D01*
X137012680Y-90378600D01*
X137266680Y-90378600D01*
X137266680Y-90398600D01*
X138465930Y-90398600D01*
X138624680Y-90239850D01*
X138627752Y-89675600D01*
X138615492Y-89551118D01*
X138579182Y-89431420D01*
X138520217Y-89321106D01*
X138440865Y-89224415D01*
X138344174Y-89145063D01*
X138233860Y-89086098D01*
X138164993Y-89065207D01*
X138194814Y-89040734D01*
X138380386Y-88814614D01*
X138518279Y-88556634D01*
X138603193Y-88276711D01*
X138631865Y-87985600D01*
X138603193Y-87694489D01*
X138518279Y-87414566D01*
X138380386Y-87156586D01*
X138194814Y-86930466D01*
X137968694Y-86744894D01*
X137913889Y-86715600D01*
X137968694Y-86686306D01*
X138194814Y-86500734D01*
X138380386Y-86274614D01*
X138518279Y-86016634D01*
X138603193Y-85736711D01*
X138631865Y-85445600D01*
X138603193Y-85154489D01*
X138518279Y-84874566D01*
X138380386Y-84616586D01*
X138194814Y-84390466D01*
X137968694Y-84204894D01*
X137913889Y-84175600D01*
X137968694Y-84146306D01*
X138194814Y-83960734D01*
X138200603Y-83953680D01*
X140870189Y-83953680D01*
X140793685Y-84016465D01*
X140687129Y-84146305D01*
X140607950Y-84294438D01*
X140559192Y-84455172D01*
X140542728Y-84622330D01*
X140542728Y-85059830D01*
X140559192Y-85226988D01*
X140607950Y-85387722D01*
X140687129Y-85535855D01*
X140704900Y-85557510D01*
X140650263Y-85624086D01*
X140591298Y-85734400D01*
X140554988Y-85854098D01*
X140542728Y-85978580D01*
X140545800Y-86130330D01*
X140704550Y-86289080D01*
X141528800Y-86289080D01*
X141528800Y-86269080D01*
X141782800Y-86269080D01*
X141782800Y-86289080D01*
X141802800Y-86289080D01*
X141802800Y-86543080D01*
X141782800Y-86543080D01*
X141782800Y-86563080D01*
X141528800Y-86563080D01*
X141528800Y-86543080D01*
X140704550Y-86543080D01*
X140545800Y-86701830D01*
X140544658Y-86758259D01*
X140494984Y-86778835D01*
X140325466Y-86892103D01*
X140181303Y-87036266D01*
X140068035Y-87205784D01*
X139990014Y-87394142D01*
X139950240Y-87594101D01*
X139950240Y-87797979D01*
X139990014Y-87997938D01*
X140068035Y-88186296D01*
X140181303Y-88355814D01*
X140325466Y-88499977D01*
X140494984Y-88613245D01*
X140683342Y-88691266D01*
X140883301Y-88731040D01*
X141087179Y-88731040D01*
X141287138Y-88691266D01*
X141398208Y-88645259D01*
X141521542Y-88696346D01*
X141721501Y-88736120D01*
X141925379Y-88736120D01*
X142045729Y-88712181D01*
X141932640Y-88825270D01*
X141929568Y-88977020D01*
X141941828Y-89101502D01*
X141978138Y-89221200D01*
X142020989Y-89301368D01*
X140420831Y-89296724D01*
X140384017Y-89293483D01*
X140323731Y-89300051D01*
X140263386Y-89305818D01*
X140259163Y-89307086D01*
X140254773Y-89307564D01*
X140196898Y-89325777D01*
X140138867Y-89343197D01*
X140134971Y-89345265D01*
X140130760Y-89346590D01*
X140077555Y-89375740D01*
X140024032Y-89404149D01*
X140020615Y-89406936D01*
X140016743Y-89409058D01*
X139970251Y-89448026D01*
X139923295Y-89486334D01*
X139920487Y-89489736D01*
X139917104Y-89492571D01*
X139879124Y-89539839D01*
X139840527Y-89586592D01*
X139838436Y-89590477D01*
X139835672Y-89593917D01*
X139807637Y-89647698D01*
X139778910Y-89701071D01*
X139777618Y-89705287D01*
X139775577Y-89709202D01*
X139758567Y-89767438D01*
X139740809Y-89825371D01*
X139740364Y-89829757D01*
X139739126Y-89833996D01*
X139733806Y-89894418D01*
X139727690Y-89954716D01*
X139731206Y-89991504D01*
X139745772Y-91398895D01*
X139734620Y-91523968D01*
X139708343Y-91613856D01*
X139665109Y-91696926D01*
X139606562Y-91770016D01*
X139534935Y-91830342D01*
X139452950Y-91875609D01*
X139363742Y-91904087D01*
X139241853Y-91917985D01*
X138316512Y-91920923D01*
X138344174Y-91906137D01*
X138440865Y-91826785D01*
X138520217Y-91730094D01*
X138579182Y-91619780D01*
X138615492Y-91500082D01*
X138627752Y-91375600D01*
X138624680Y-90811350D01*
X138465930Y-90652600D01*
X137266680Y-90652600D01*
X137266680Y-90672600D01*
X137012680Y-90672600D01*
X137012680Y-90652600D01*
X135813430Y-90652600D01*
X135654680Y-90811350D01*
X135651608Y-91375600D01*
X135663868Y-91500082D01*
X135700178Y-91619780D01*
X135759143Y-91730094D01*
X135838495Y-91826785D01*
X135935186Y-91906137D01*
X135943272Y-91910459D01*
X135874474Y-91890347D01*
X135791404Y-91847113D01*
X135718314Y-91788566D01*
X135657988Y-91716939D01*
X135612721Y-91634954D01*
X135584243Y-91545746D01*
X135570471Y-91424958D01*
X135595184Y-82938191D01*
X135650716Y-82938302D01*
G36*
X145098743Y-88289774D02*
G01*
X145242906Y-88433937D01*
X145412424Y-88547205D01*
X145600782Y-88625226D01*
X145800741Y-88665000D01*
X146004619Y-88665000D01*
X146117331Y-88642580D01*
X146052275Y-88739944D01*
X145974254Y-88928302D01*
X145934480Y-89128261D01*
X145934480Y-89312724D01*
X144551547Y-89308711D01*
X144640282Y-89299972D01*
X144759980Y-89263662D01*
X144870294Y-89204697D01*
X144966985Y-89125345D01*
X145046337Y-89028654D01*
X145105302Y-88918340D01*
X145141612Y-88798642D01*
X145153872Y-88674160D01*
X145150800Y-88664910D01*
X144992050Y-88506160D01*
X144322800Y-88506160D01*
X144322800Y-88526160D01*
X144068800Y-88526160D01*
X144068800Y-88506160D01*
X144048800Y-88506160D01*
X144048800Y-88357610D01*
X144064178Y-88342232D01*
X144368300Y-88342232D01*
X144521557Y-88327137D01*
X144668925Y-88282434D01*
X144725563Y-88252160D01*
X144992050Y-88252160D01*
X145040942Y-88203268D01*
X145098743Y-88289774D01*
X145098743Y-88289774D01*
G37*
X145098743Y-88289774D02*
X145242906Y-88433937D01*
X145412424Y-88547205D01*
X145600782Y-88625226D01*
X145800741Y-88665000D01*
X146004619Y-88665000D01*
X146117331Y-88642580D01*
X146052275Y-88739944D01*
X145974254Y-88928302D01*
X145934480Y-89128261D01*
X145934480Y-89312724D01*
X144551547Y-89308711D01*
X144640282Y-89299972D01*
X144759980Y-89263662D01*
X144870294Y-89204697D01*
X144966985Y-89125345D01*
X145046337Y-89028654D01*
X145105302Y-88918340D01*
X145141612Y-88798642D01*
X145153872Y-88674160D01*
X145150800Y-88664910D01*
X144992050Y-88506160D01*
X144322800Y-88506160D01*
X144322800Y-88526160D01*
X144068800Y-88526160D01*
X144068800Y-88506160D01*
X144048800Y-88506160D01*
X144048800Y-88357610D01*
X144064178Y-88342232D01*
X144368300Y-88342232D01*
X144521557Y-88327137D01*
X144668925Y-88282434D01*
X144725563Y-88252160D01*
X144992050Y-88252160D01*
X145040942Y-88203268D01*
X145098743Y-88289774D01*
G36*
X144480896Y-89308506D02*
G01*
X144322802Y-89308047D01*
X144322802Y-89150412D01*
X144480896Y-89308506D01*
X144480896Y-89308506D01*
G37*
X144480896Y-89308506D02*
X144322802Y-89308047D01*
X144322802Y-89150412D01*
X144480896Y-89308506D01*
G36*
X144068798Y-89307310D02*
G01*
X144061126Y-89307288D01*
X144068798Y-89292935D01*
X144068798Y-89307310D01*
X144068798Y-89307310D01*
G37*
X144068798Y-89307310D02*
X144061126Y-89307288D01*
X144068798Y-89292935D01*
X144068798Y-89307310D01*
G36*
X143169640Y-88412520D02*
G01*
X143240800Y-88412520D01*
X143240800Y-88506162D01*
X143399548Y-88506162D01*
X143240800Y-88664910D01*
X143240265Y-88666520D01*
X143169640Y-88666520D01*
X143169640Y-88686520D01*
X142915640Y-88686520D01*
X142915640Y-88666520D01*
X142895640Y-88666520D01*
X142895640Y-88412520D01*
X142915640Y-88412520D01*
X142915640Y-88392520D01*
X143169640Y-88392520D01*
X143169640Y-88412520D01*
X143169640Y-88412520D01*
G37*
X143169640Y-88412520D02*
X143240800Y-88412520D01*
X143240800Y-88506162D01*
X143399548Y-88506162D01*
X143240800Y-88664910D01*
X143240265Y-88666520D01*
X143169640Y-88666520D01*
X143169640Y-88686520D01*
X142915640Y-88686520D01*
X142915640Y-88666520D01*
X142895640Y-88666520D01*
X142895640Y-88412520D01*
X142915640Y-88412520D01*
X142915640Y-88392520D01*
X143169640Y-88392520D01*
X143169640Y-88412520D01*
G36*
X151324546Y-86500734D02*
G01*
X151550666Y-86686306D01*
X151605471Y-86715600D01*
X151550666Y-86744894D01*
X151324546Y-86930466D01*
X151138974Y-87156586D01*
X151001081Y-87414566D01*
X150916167Y-87694489D01*
X150900847Y-87850040D01*
X150281092Y-87850040D01*
X150313052Y-87744682D01*
X150325312Y-87620200D01*
X150322240Y-87610950D01*
X150163492Y-87452202D01*
X150322240Y-87452202D01*
X150322240Y-87382894D01*
X150512418Y-87345066D01*
X150700776Y-87267045D01*
X150870294Y-87153777D01*
X151014457Y-87009614D01*
X151127725Y-86840096D01*
X151205746Y-86651738D01*
X151245520Y-86451779D01*
X151245520Y-86404441D01*
X151324546Y-86500734D01*
X151324546Y-86500734D01*
G37*
X151324546Y-86500734D02*
X151550666Y-86686306D01*
X151605471Y-86715600D01*
X151550666Y-86744894D01*
X151324546Y-86930466D01*
X151138974Y-87156586D01*
X151001081Y-87414566D01*
X150916167Y-87694489D01*
X150900847Y-87850040D01*
X150281092Y-87850040D01*
X150313052Y-87744682D01*
X150325312Y-87620200D01*
X150322240Y-87610950D01*
X150163492Y-87452202D01*
X150322240Y-87452202D01*
X150322240Y-87382894D01*
X150512418Y-87345066D01*
X150700776Y-87267045D01*
X150870294Y-87153777D01*
X151014457Y-87009614D01*
X151127725Y-86840096D01*
X151205746Y-86651738D01*
X151245520Y-86451779D01*
X151245520Y-86404441D01*
X151324546Y-86500734D01*
G36*
X149514240Y-87452200D02*
G01*
X149494240Y-87452200D01*
X149494240Y-87472200D01*
X149254302Y-87472200D01*
X149239786Y-87399222D01*
X149220240Y-87352034D01*
X149220240Y-87288272D01*
X149514240Y-87288272D01*
X149514240Y-87452200D01*
X149514240Y-87452200D01*
G37*
X149514240Y-87452200D02*
X149494240Y-87452200D01*
X149494240Y-87472200D01*
X149254302Y-87472200D01*
X149239786Y-87399222D01*
X149220240Y-87352034D01*
X149220240Y-87288272D01*
X149514240Y-87288272D01*
X149514240Y-87452200D01*
G36*
X146497040Y-83291680D02*
G01*
X146517040Y-83291680D01*
X146517040Y-83545680D01*
X146497040Y-83545680D01*
X146497040Y-83565680D01*
X146243040Y-83565680D01*
X146243040Y-83545680D01*
X146223040Y-83545680D01*
X146223040Y-83291680D01*
X146243040Y-83291680D01*
X146243040Y-83271680D01*
X146497040Y-83271680D01*
X146497040Y-83291680D01*
X146497040Y-83291680D01*
G37*
X146497040Y-83291680D02*
X146517040Y-83291680D01*
X146517040Y-83545680D01*
X146497040Y-83545680D01*
X146497040Y-83565680D01*
X146243040Y-83565680D01*
X146243040Y-83545680D01*
X146223040Y-83545680D01*
X146223040Y-83291680D01*
X146243040Y-83291680D01*
X146243040Y-83271680D01*
X146497040Y-83271680D01*
X146497040Y-83291680D01*
%TD*%
M02*
