%TF.GenerationSoftware,KiCad,Pcbnew,(5.1.2)-2*%
%TF.CreationDate,2021-02-26T22:53:36+01:00*%
%TF.ProjectId,NRF52_Basic,4e524635-325f-4426-9173-69632e6b6963,V1*%
%TF.SameCoordinates,Original*%
%TF.FileFunction,Soldermask,Top*%
%TF.FilePolarity,Negative*%
%FSLAX46Y46*%
G04 Gerber Fmt 4.6, Leading zero omitted, Abs format (unit mm)*
G04 Created by KiCad (PCBNEW (5.1.2)-2) date 2021-02-26 22:53:36*
%MOMM*%
%LPD*%
G04 APERTURE LIST*
%ADD10C,0.100000*%
G04 APERTURE END LIST*
D10*
G36*
X152490122Y-89631118D02*
G01*
X152556307Y-89637637D01*
X152726146Y-89689157D01*
X152882671Y-89772822D01*
X152918409Y-89802152D01*
X153019866Y-89885414D01*
X153103128Y-89986871D01*
X153132458Y-90022609D01*
X153216123Y-90179134D01*
X153267643Y-90348973D01*
X153285039Y-90525600D01*
X153267643Y-90702227D01*
X153216123Y-90872066D01*
X153132458Y-91028591D01*
X153103128Y-91064329D01*
X153019866Y-91165786D01*
X152918409Y-91249048D01*
X152882671Y-91278378D01*
X152726146Y-91362043D01*
X152556307Y-91413563D01*
X152490123Y-91420081D01*
X152423940Y-91426600D01*
X152335420Y-91426600D01*
X152269238Y-91420082D01*
X152203053Y-91413563D01*
X152033214Y-91362043D01*
X151876689Y-91278378D01*
X151840951Y-91249048D01*
X151739494Y-91165786D01*
X151656232Y-91064329D01*
X151626902Y-91028591D01*
X151543237Y-90872066D01*
X151491717Y-90702227D01*
X151474321Y-90525600D01*
X151491717Y-90348973D01*
X151543237Y-90179134D01*
X151626902Y-90022609D01*
X151656232Y-89986871D01*
X151739494Y-89885414D01*
X151840951Y-89802152D01*
X151876689Y-89772822D01*
X152033214Y-89689157D01*
X152203053Y-89637637D01*
X152269238Y-89631118D01*
X152335420Y-89624600D01*
X152423940Y-89624600D01*
X152490122Y-89631118D01*
X152490122Y-89631118D01*
G37*
G36*
X138040680Y-91426600D02*
G01*
X136238680Y-91426600D01*
X136238680Y-89624600D01*
X138040680Y-89624600D01*
X138040680Y-91426600D01*
X138040680Y-91426600D01*
G37*
G36*
X152490123Y-87091119D02*
G01*
X152556307Y-87097637D01*
X152726146Y-87149157D01*
X152882671Y-87232822D01*
X152918409Y-87262152D01*
X153019866Y-87345414D01*
X153081240Y-87420200D01*
X153132458Y-87482609D01*
X153216123Y-87639134D01*
X153267643Y-87808973D01*
X153285039Y-87985600D01*
X153267643Y-88162227D01*
X153216123Y-88332066D01*
X153132458Y-88488591D01*
X153105709Y-88521184D01*
X153019866Y-88625786D01*
X152918409Y-88709048D01*
X152882671Y-88738378D01*
X152726146Y-88822043D01*
X152556307Y-88873563D01*
X152490122Y-88880082D01*
X152423940Y-88886600D01*
X152335420Y-88886600D01*
X152269238Y-88880082D01*
X152203053Y-88873563D01*
X152033214Y-88822043D01*
X151876689Y-88738378D01*
X151840951Y-88709048D01*
X151739494Y-88625786D01*
X151653651Y-88521184D01*
X151626902Y-88488591D01*
X151543237Y-88332066D01*
X151491717Y-88162227D01*
X151474321Y-87985600D01*
X151491717Y-87808973D01*
X151543237Y-87639134D01*
X151626902Y-87482609D01*
X151678120Y-87420200D01*
X151739494Y-87345414D01*
X151840951Y-87262152D01*
X151876689Y-87232822D01*
X152033214Y-87149157D01*
X152203053Y-87097637D01*
X152269237Y-87091119D01*
X152335420Y-87084600D01*
X152423940Y-87084600D01*
X152490123Y-87091119D01*
X152490123Y-87091119D01*
G37*
G36*
X137250123Y-87091119D02*
G01*
X137316307Y-87097637D01*
X137486146Y-87149157D01*
X137642671Y-87232822D01*
X137678409Y-87262152D01*
X137779866Y-87345414D01*
X137841240Y-87420200D01*
X137892458Y-87482609D01*
X137976123Y-87639134D01*
X138027643Y-87808973D01*
X138045039Y-87985600D01*
X138027643Y-88162227D01*
X137976123Y-88332066D01*
X137892458Y-88488591D01*
X137865709Y-88521184D01*
X137779866Y-88625786D01*
X137678409Y-88709048D01*
X137642671Y-88738378D01*
X137486146Y-88822043D01*
X137316307Y-88873563D01*
X137250122Y-88880082D01*
X137183940Y-88886600D01*
X137095420Y-88886600D01*
X137029238Y-88880082D01*
X136963053Y-88873563D01*
X136793214Y-88822043D01*
X136636689Y-88738378D01*
X136600951Y-88709048D01*
X136499494Y-88625786D01*
X136413651Y-88521184D01*
X136386902Y-88488591D01*
X136303237Y-88332066D01*
X136251717Y-88162227D01*
X136234321Y-87985600D01*
X136251717Y-87808973D01*
X136303237Y-87639134D01*
X136386902Y-87482609D01*
X136438120Y-87420200D01*
X136499494Y-87345414D01*
X136600951Y-87262152D01*
X136636689Y-87232822D01*
X136793214Y-87149157D01*
X136963053Y-87097637D01*
X137029237Y-87091119D01*
X137095420Y-87084600D01*
X137183940Y-87084600D01*
X137250123Y-87091119D01*
X137250123Y-87091119D01*
G37*
G36*
X144672760Y-88667880D02*
G01*
X143970760Y-88667880D01*
X143970760Y-87465880D01*
X144672760Y-87465880D01*
X144672760Y-88667880D01*
X144672760Y-88667880D01*
G37*
G36*
X143272760Y-88667880D02*
G01*
X142570760Y-88667880D01*
X142570760Y-87465880D01*
X143272760Y-87465880D01*
X143272760Y-88667880D01*
X143272760Y-88667880D01*
G37*
G36*
X142120130Y-87442283D02*
G01*
X142131835Y-87445834D01*
X142142625Y-87451601D01*
X142152079Y-87459361D01*
X142159839Y-87468815D01*
X142165606Y-87479605D01*
X142169157Y-87491310D01*
X142170960Y-87509618D01*
X142170960Y-87933342D01*
X142169157Y-87951650D01*
X142165605Y-87963357D01*
X142155343Y-87982557D01*
X142145966Y-88005196D01*
X142141186Y-88029229D01*
X142141186Y-88053733D01*
X142145967Y-88077766D01*
X142155343Y-88100403D01*
X142165605Y-88119603D01*
X142169157Y-88131310D01*
X142170960Y-88149618D01*
X142170960Y-88573342D01*
X142169157Y-88591650D01*
X142165606Y-88603355D01*
X142159839Y-88614145D01*
X142152079Y-88623599D01*
X142142625Y-88631359D01*
X142131835Y-88637126D01*
X142120130Y-88640677D01*
X142101822Y-88642480D01*
X141738098Y-88642480D01*
X141719790Y-88640677D01*
X141708085Y-88637126D01*
X141697295Y-88631359D01*
X141687841Y-88623599D01*
X141680081Y-88614145D01*
X141674314Y-88603355D01*
X141670763Y-88591650D01*
X141668960Y-88573342D01*
X141668960Y-88149618D01*
X141670763Y-88131310D01*
X141674315Y-88119603D01*
X141684577Y-88100403D01*
X141693954Y-88077764D01*
X141698734Y-88053731D01*
X141698734Y-88029227D01*
X141693953Y-88005194D01*
X141684577Y-87982557D01*
X141674315Y-87963357D01*
X141670763Y-87951650D01*
X141668960Y-87933342D01*
X141668960Y-87509618D01*
X141670763Y-87491310D01*
X141674314Y-87479605D01*
X141680081Y-87468815D01*
X141687841Y-87459361D01*
X141697295Y-87451601D01*
X141708085Y-87445834D01*
X141719790Y-87442283D01*
X141738098Y-87440480D01*
X142101822Y-87440480D01*
X142120130Y-87442283D01*
X142120130Y-87442283D01*
G37*
G36*
X145503410Y-87422003D02*
G01*
X145515115Y-87425554D01*
X145525905Y-87431321D01*
X145535359Y-87439081D01*
X145543119Y-87448535D01*
X145548886Y-87459325D01*
X145552437Y-87471030D01*
X145554240Y-87489338D01*
X145554240Y-87913062D01*
X145552437Y-87931370D01*
X145548885Y-87943077D01*
X145538623Y-87962277D01*
X145529246Y-87984916D01*
X145524466Y-88008949D01*
X145524466Y-88033453D01*
X145529247Y-88057486D01*
X145538623Y-88080123D01*
X145548885Y-88099323D01*
X145552437Y-88111030D01*
X145554240Y-88129338D01*
X145554240Y-88553062D01*
X145552437Y-88571370D01*
X145548886Y-88583075D01*
X145543119Y-88593865D01*
X145535359Y-88603319D01*
X145525905Y-88611079D01*
X145515115Y-88616846D01*
X145503410Y-88620397D01*
X145485102Y-88622200D01*
X145121378Y-88622200D01*
X145103070Y-88620397D01*
X145091365Y-88616846D01*
X145080575Y-88611079D01*
X145071121Y-88603319D01*
X145063361Y-88593865D01*
X145057594Y-88583075D01*
X145054043Y-88571370D01*
X145052240Y-88553062D01*
X145052240Y-88129338D01*
X145054043Y-88111030D01*
X145057595Y-88099323D01*
X145067857Y-88080123D01*
X145077234Y-88057484D01*
X145082014Y-88033451D01*
X145082014Y-88008947D01*
X145077233Y-87984914D01*
X145067857Y-87962277D01*
X145057595Y-87943077D01*
X145054043Y-87931370D01*
X145052240Y-87913062D01*
X145052240Y-87489338D01*
X145054043Y-87471030D01*
X145057594Y-87459325D01*
X145063361Y-87448535D01*
X145071121Y-87439081D01*
X145080575Y-87431321D01*
X145091365Y-87425554D01*
X145103070Y-87422003D01*
X145121378Y-87420200D01*
X145485102Y-87420200D01*
X145503410Y-87422003D01*
X145503410Y-87422003D01*
G37*
G36*
X149838271Y-87557265D02*
G01*
X149872249Y-87567573D01*
X149903570Y-87584314D01*
X149931019Y-87606841D01*
X149953546Y-87634290D01*
X149970287Y-87665611D01*
X149980595Y-87699589D01*
X149984680Y-87741070D01*
X149984680Y-88342290D01*
X149980595Y-88383771D01*
X149970287Y-88417749D01*
X149953546Y-88449070D01*
X149931019Y-88476519D01*
X149903570Y-88499046D01*
X149872249Y-88515787D01*
X149838271Y-88526095D01*
X149796790Y-88530180D01*
X149120570Y-88530180D01*
X149079089Y-88526095D01*
X149045111Y-88515787D01*
X149013790Y-88499046D01*
X148986341Y-88476519D01*
X148963814Y-88449070D01*
X148947073Y-88417749D01*
X148936765Y-88383771D01*
X148932680Y-88342290D01*
X148932680Y-87741070D01*
X148936765Y-87699589D01*
X148947073Y-87665611D01*
X148963814Y-87634290D01*
X148986341Y-87606841D01*
X149013790Y-87584314D01*
X149045111Y-87567573D01*
X149079089Y-87557265D01*
X149120570Y-87553180D01*
X149796790Y-87553180D01*
X149838271Y-87557265D01*
X149838271Y-87557265D01*
G37*
G36*
X144310456Y-80018523D02*
G01*
X144314596Y-80019779D01*
X144333756Y-80027715D01*
X144357790Y-80032495D01*
X144382294Y-80032495D01*
X144406327Y-80027714D01*
X144425485Y-80019779D01*
X144429624Y-80018523D01*
X144438183Y-80017680D01*
X144701897Y-80017680D01*
X144710456Y-80018523D01*
X144714596Y-80019779D01*
X144733756Y-80027715D01*
X144757790Y-80032495D01*
X144782294Y-80032495D01*
X144806327Y-80027714D01*
X144825485Y-80019779D01*
X144829624Y-80018523D01*
X144838183Y-80017680D01*
X145101897Y-80017680D01*
X145110456Y-80018523D01*
X145114596Y-80019779D01*
X145133756Y-80027715D01*
X145157790Y-80032495D01*
X145182294Y-80032495D01*
X145206327Y-80027714D01*
X145225485Y-80019779D01*
X145229624Y-80018523D01*
X145238183Y-80017680D01*
X145501897Y-80017680D01*
X145510456Y-80018523D01*
X145514596Y-80019779D01*
X145533756Y-80027715D01*
X145557790Y-80032495D01*
X145582294Y-80032495D01*
X145606327Y-80027714D01*
X145625485Y-80019779D01*
X145629624Y-80018523D01*
X145638183Y-80017680D01*
X145901897Y-80017680D01*
X145910456Y-80018523D01*
X145914596Y-80019779D01*
X145933756Y-80027715D01*
X145957790Y-80032495D01*
X145982294Y-80032495D01*
X146006327Y-80027714D01*
X146025485Y-80019779D01*
X146029624Y-80018523D01*
X146038183Y-80017680D01*
X146301897Y-80017680D01*
X146310456Y-80018523D01*
X146314596Y-80019779D01*
X146333756Y-80027715D01*
X146357790Y-80032495D01*
X146382294Y-80032495D01*
X146406327Y-80027714D01*
X146425485Y-80019779D01*
X146429624Y-80018523D01*
X146438183Y-80017680D01*
X146701897Y-80017680D01*
X146710456Y-80018523D01*
X146714596Y-80019779D01*
X146733756Y-80027715D01*
X146757790Y-80032495D01*
X146782294Y-80032495D01*
X146806327Y-80027714D01*
X146825485Y-80019779D01*
X146829624Y-80018523D01*
X146838183Y-80017680D01*
X147101897Y-80017680D01*
X147110456Y-80018523D01*
X147114596Y-80019779D01*
X147133756Y-80027715D01*
X147157790Y-80032495D01*
X147182294Y-80032495D01*
X147206327Y-80027714D01*
X147225485Y-80019779D01*
X147229624Y-80018523D01*
X147238183Y-80017680D01*
X147501897Y-80017680D01*
X147510456Y-80018523D01*
X147514596Y-80019779D01*
X147533756Y-80027715D01*
X147557790Y-80032495D01*
X147582294Y-80032495D01*
X147606327Y-80027714D01*
X147625485Y-80019779D01*
X147629624Y-80018523D01*
X147638183Y-80017680D01*
X147901897Y-80017680D01*
X147910456Y-80018523D01*
X147914596Y-80019779D01*
X147933756Y-80027715D01*
X147957790Y-80032495D01*
X147982294Y-80032495D01*
X148006327Y-80027714D01*
X148025485Y-80019779D01*
X148029624Y-80018523D01*
X148038183Y-80017680D01*
X148301897Y-80017680D01*
X148310456Y-80018523D01*
X148314596Y-80019779D01*
X148333756Y-80027715D01*
X148357790Y-80032495D01*
X148382294Y-80032495D01*
X148406327Y-80027714D01*
X148425485Y-80019779D01*
X148429624Y-80018523D01*
X148438183Y-80017680D01*
X148701897Y-80017680D01*
X148710456Y-80018523D01*
X148712785Y-80019230D01*
X148714927Y-80020375D01*
X148716805Y-80021915D01*
X148718345Y-80023793D01*
X148719490Y-80025935D01*
X148720197Y-80028264D01*
X148721040Y-80036823D01*
X148721040Y-80900537D01*
X148720197Y-80909096D01*
X148718662Y-80914156D01*
X148713882Y-80938189D01*
X148713882Y-80962693D01*
X148718663Y-80986727D01*
X148728040Y-81009365D01*
X148741654Y-81029740D01*
X148758981Y-81047067D01*
X148779355Y-81060680D01*
X148801994Y-81070058D01*
X148826027Y-81074838D01*
X148850531Y-81074838D01*
X148874564Y-81070058D01*
X148879624Y-81068523D01*
X148888183Y-81067680D01*
X149751897Y-81067680D01*
X149760456Y-81068523D01*
X149762785Y-81069230D01*
X149764927Y-81070375D01*
X149766805Y-81071915D01*
X149768345Y-81073793D01*
X149769490Y-81075935D01*
X149770197Y-81078264D01*
X149771040Y-81086823D01*
X149771040Y-81350537D01*
X149770197Y-81359096D01*
X149768941Y-81363236D01*
X149761005Y-81382396D01*
X149756225Y-81406430D01*
X149756225Y-81430934D01*
X149761006Y-81454967D01*
X149768941Y-81474125D01*
X149770197Y-81478264D01*
X149771040Y-81486823D01*
X149771040Y-81750537D01*
X149770197Y-81759096D01*
X149768941Y-81763236D01*
X149761005Y-81782396D01*
X149756225Y-81806430D01*
X149756225Y-81830934D01*
X149761006Y-81854967D01*
X149768941Y-81874125D01*
X149770197Y-81878264D01*
X149771040Y-81886823D01*
X149771040Y-82150537D01*
X149770197Y-82159096D01*
X149768941Y-82163236D01*
X149761005Y-82182396D01*
X149756225Y-82206430D01*
X149756225Y-82230934D01*
X149761006Y-82254967D01*
X149768941Y-82274125D01*
X149770197Y-82278264D01*
X149771040Y-82286823D01*
X149771040Y-82550537D01*
X149770197Y-82559096D01*
X149768941Y-82563236D01*
X149761005Y-82582396D01*
X149756225Y-82606430D01*
X149756225Y-82630934D01*
X149761006Y-82654967D01*
X149768941Y-82674125D01*
X149770197Y-82678264D01*
X149771040Y-82686823D01*
X149771040Y-82950537D01*
X149770197Y-82959096D01*
X149768941Y-82963236D01*
X149761005Y-82982396D01*
X149756225Y-83006430D01*
X149756225Y-83030934D01*
X149761006Y-83054967D01*
X149768941Y-83074125D01*
X149770197Y-83078264D01*
X149771040Y-83086823D01*
X149771040Y-83350537D01*
X149770197Y-83359096D01*
X149768941Y-83363236D01*
X149761005Y-83382396D01*
X149756225Y-83406430D01*
X149756225Y-83430934D01*
X149761006Y-83454967D01*
X149768941Y-83474125D01*
X149770197Y-83478264D01*
X149771040Y-83486823D01*
X149771040Y-83750537D01*
X149770197Y-83759096D01*
X149768941Y-83763236D01*
X149761005Y-83782396D01*
X149756225Y-83806430D01*
X149756225Y-83830934D01*
X149761006Y-83854967D01*
X149768941Y-83874125D01*
X149770197Y-83878264D01*
X149771040Y-83886823D01*
X149771040Y-84150537D01*
X149770197Y-84159096D01*
X149768941Y-84163236D01*
X149761005Y-84182396D01*
X149756225Y-84206430D01*
X149756225Y-84230934D01*
X149761006Y-84254967D01*
X149768941Y-84274125D01*
X149770197Y-84278264D01*
X149771040Y-84286823D01*
X149771040Y-84550537D01*
X149770197Y-84559096D01*
X149768941Y-84563236D01*
X149761005Y-84582396D01*
X149756225Y-84606430D01*
X149756225Y-84630934D01*
X149761006Y-84654967D01*
X149768941Y-84674125D01*
X149770197Y-84678264D01*
X149771040Y-84686823D01*
X149771040Y-84950537D01*
X149770197Y-84959096D01*
X149768941Y-84963236D01*
X149761005Y-84982396D01*
X149756225Y-85006430D01*
X149756225Y-85030934D01*
X149761006Y-85054967D01*
X149768941Y-85074125D01*
X149770197Y-85078264D01*
X149771040Y-85086823D01*
X149771040Y-85350537D01*
X149770197Y-85359096D01*
X149768941Y-85363236D01*
X149761005Y-85382396D01*
X149756225Y-85406430D01*
X149756225Y-85430934D01*
X149761006Y-85454967D01*
X149768941Y-85474125D01*
X149770197Y-85478264D01*
X149771040Y-85486823D01*
X149771040Y-85750537D01*
X149770197Y-85759096D01*
X149769490Y-85761425D01*
X149768345Y-85763567D01*
X149762667Y-85770487D01*
X149754523Y-85778630D01*
X149740909Y-85799005D01*
X149731532Y-85821643D01*
X149726751Y-85845677D01*
X149726751Y-85870181D01*
X149731531Y-85894214D01*
X149740908Y-85916853D01*
X149754522Y-85937228D01*
X149771848Y-85954555D01*
X149792223Y-85968169D01*
X149814861Y-85977546D01*
X149837669Y-85982083D01*
X149872249Y-85992573D01*
X149903570Y-86009314D01*
X149931019Y-86031841D01*
X149953546Y-86059290D01*
X149970287Y-86090611D01*
X149980595Y-86124589D01*
X149984680Y-86166070D01*
X149984680Y-86767290D01*
X149980595Y-86808771D01*
X149970287Y-86842749D01*
X149953546Y-86874070D01*
X149931019Y-86901519D01*
X149903570Y-86924046D01*
X149872249Y-86940787D01*
X149838271Y-86951095D01*
X149796790Y-86955180D01*
X149120570Y-86955180D01*
X149079089Y-86951095D01*
X149045111Y-86940787D01*
X149013790Y-86924046D01*
X148986341Y-86901519D01*
X148963814Y-86874070D01*
X148947074Y-86842751D01*
X148946216Y-86839923D01*
X148936839Y-86817284D01*
X148923226Y-86796910D01*
X148905899Y-86779582D01*
X148885524Y-86765968D01*
X148862886Y-86756591D01*
X148838853Y-86751810D01*
X148814349Y-86751810D01*
X148790315Y-86756590D01*
X148767676Y-86765967D01*
X148747302Y-86779580D01*
X148729974Y-86796907D01*
X148721018Y-86810310D01*
X148716805Y-86815445D01*
X148714927Y-86816985D01*
X148712785Y-86818130D01*
X148710456Y-86818837D01*
X148701897Y-86819680D01*
X148438183Y-86819680D01*
X148429624Y-86818837D01*
X148425484Y-86817581D01*
X148406324Y-86809645D01*
X148382290Y-86804865D01*
X148357786Y-86804865D01*
X148333753Y-86809646D01*
X148314595Y-86817581D01*
X148310456Y-86818837D01*
X148301897Y-86819680D01*
X148038183Y-86819680D01*
X148029624Y-86818837D01*
X148025484Y-86817581D01*
X148006324Y-86809645D01*
X147982290Y-86804865D01*
X147957786Y-86804865D01*
X147933753Y-86809646D01*
X147914595Y-86817581D01*
X147910456Y-86818837D01*
X147901897Y-86819680D01*
X147638183Y-86819680D01*
X147629624Y-86818837D01*
X147625484Y-86817581D01*
X147606324Y-86809645D01*
X147582290Y-86804865D01*
X147557786Y-86804865D01*
X147533753Y-86809646D01*
X147514595Y-86817581D01*
X147510456Y-86818837D01*
X147501897Y-86819680D01*
X147238183Y-86819680D01*
X147229624Y-86818837D01*
X147225484Y-86817581D01*
X147206324Y-86809645D01*
X147182290Y-86804865D01*
X147157786Y-86804865D01*
X147133753Y-86809646D01*
X147114595Y-86817581D01*
X147110456Y-86818837D01*
X147101897Y-86819680D01*
X146838183Y-86819680D01*
X146829624Y-86818837D01*
X146825484Y-86817581D01*
X146806324Y-86809645D01*
X146782290Y-86804865D01*
X146757786Y-86804865D01*
X146733753Y-86809646D01*
X146714595Y-86817581D01*
X146710456Y-86818837D01*
X146701897Y-86819680D01*
X146438183Y-86819680D01*
X146429624Y-86818837D01*
X146425484Y-86817581D01*
X146406324Y-86809645D01*
X146382290Y-86804865D01*
X146357786Y-86804865D01*
X146333753Y-86809646D01*
X146314595Y-86817581D01*
X146310456Y-86818837D01*
X146301897Y-86819680D01*
X146038183Y-86819680D01*
X146029624Y-86818837D01*
X146025484Y-86817581D01*
X146006324Y-86809645D01*
X145982290Y-86804865D01*
X145957786Y-86804865D01*
X145933753Y-86809646D01*
X145914595Y-86817581D01*
X145910456Y-86818837D01*
X145901897Y-86819680D01*
X145638183Y-86819680D01*
X145629624Y-86818837D01*
X145625484Y-86817581D01*
X145606324Y-86809645D01*
X145582290Y-86804865D01*
X145557786Y-86804865D01*
X145533753Y-86809646D01*
X145514595Y-86817581D01*
X145510456Y-86818837D01*
X145501897Y-86819680D01*
X145238183Y-86819680D01*
X145229624Y-86818837D01*
X145225484Y-86817581D01*
X145206324Y-86809645D01*
X145182290Y-86804865D01*
X145157786Y-86804865D01*
X145133753Y-86809646D01*
X145114595Y-86817581D01*
X145110456Y-86818837D01*
X145101897Y-86819680D01*
X144838183Y-86819680D01*
X144829624Y-86818837D01*
X144825484Y-86817581D01*
X144806324Y-86809645D01*
X144782290Y-86804865D01*
X144757786Y-86804865D01*
X144733753Y-86809646D01*
X144714595Y-86817581D01*
X144710456Y-86818837D01*
X144701897Y-86819680D01*
X144438183Y-86819680D01*
X144429624Y-86818837D01*
X144425484Y-86817581D01*
X144406324Y-86809645D01*
X144382290Y-86804865D01*
X144357786Y-86804865D01*
X144333753Y-86809646D01*
X144314595Y-86817581D01*
X144310456Y-86818837D01*
X144301897Y-86819680D01*
X144038183Y-86819680D01*
X144029624Y-86818837D01*
X144027295Y-86818130D01*
X144025153Y-86816985D01*
X144023275Y-86815445D01*
X144021735Y-86813567D01*
X144020590Y-86811425D01*
X144019883Y-86809096D01*
X144019040Y-86800537D01*
X144019040Y-86732505D01*
X144016638Y-86708119D01*
X144009525Y-86684670D01*
X143997974Y-86663059D01*
X143982429Y-86644117D01*
X143963487Y-86628572D01*
X143941876Y-86617021D01*
X143918427Y-86609908D01*
X143894041Y-86607506D01*
X143869655Y-86609908D01*
X143846206Y-86617021D01*
X143824595Y-86628572D01*
X143805653Y-86644117D01*
X143797567Y-86653041D01*
X143788065Y-86660839D01*
X143777275Y-86666606D01*
X143765570Y-86670157D01*
X143747262Y-86671960D01*
X143323538Y-86671960D01*
X143305230Y-86670157D01*
X143293523Y-86666605D01*
X143274323Y-86656343D01*
X143251684Y-86646966D01*
X143227651Y-86642186D01*
X143203147Y-86642186D01*
X143179114Y-86646967D01*
X143156477Y-86656343D01*
X143137277Y-86666605D01*
X143125570Y-86670157D01*
X143107262Y-86671960D01*
X142683538Y-86671960D01*
X142665230Y-86670157D01*
X142653525Y-86666606D01*
X142642735Y-86660839D01*
X142633281Y-86653079D01*
X142625521Y-86643625D01*
X142619754Y-86632835D01*
X142616203Y-86621130D01*
X142614400Y-86602822D01*
X142614400Y-86239098D01*
X142616203Y-86220790D01*
X142619754Y-86209085D01*
X142625521Y-86198295D01*
X142633281Y-86188841D01*
X142642735Y-86181081D01*
X142653525Y-86175314D01*
X142665230Y-86171763D01*
X142683538Y-86169960D01*
X143107262Y-86169960D01*
X143125570Y-86171763D01*
X143137277Y-86175315D01*
X143156477Y-86185577D01*
X143179116Y-86194954D01*
X143203149Y-86199734D01*
X143227653Y-86199734D01*
X143251686Y-86194953D01*
X143274323Y-86185577D01*
X143293523Y-86175315D01*
X143305230Y-86171763D01*
X143323538Y-86169960D01*
X143747262Y-86169960D01*
X143765570Y-86171763D01*
X143777275Y-86175314D01*
X143788065Y-86181081D01*
X143797654Y-86188951D01*
X143814741Y-86206040D01*
X143835116Y-86219654D01*
X143857754Y-86229031D01*
X143881788Y-86233812D01*
X143906292Y-86233812D01*
X143930325Y-86229032D01*
X143952964Y-86219655D01*
X143973338Y-86206041D01*
X143990666Y-86188715D01*
X144004280Y-86168340D01*
X144013657Y-86145702D01*
X144018438Y-86121668D01*
X144019040Y-86109415D01*
X144019040Y-85936823D01*
X144019883Y-85928264D01*
X144021418Y-85923204D01*
X144026198Y-85899171D01*
X144026198Y-85874667D01*
X148713882Y-85874667D01*
X148713882Y-85899171D01*
X148718662Y-85923204D01*
X148720197Y-85928264D01*
X148721040Y-85936823D01*
X148721040Y-86014464D01*
X148723442Y-86038850D01*
X148730555Y-86062299D01*
X148742106Y-86083910D01*
X148757651Y-86102852D01*
X148776593Y-86118397D01*
X148798204Y-86129948D01*
X148821653Y-86137061D01*
X148846039Y-86139463D01*
X148870425Y-86137061D01*
X148893874Y-86129948D01*
X148915485Y-86118397D01*
X148934427Y-86102852D01*
X148956278Y-86073389D01*
X148963814Y-86059290D01*
X148986341Y-86031841D01*
X149013792Y-86009313D01*
X149022014Y-86004918D01*
X149042388Y-85991305D01*
X149059716Y-85973978D01*
X149073329Y-85953603D01*
X149082707Y-85930964D01*
X149087487Y-85906931D01*
X149087487Y-85882427D01*
X149082707Y-85858394D01*
X149073329Y-85835755D01*
X149059716Y-85815381D01*
X149042389Y-85798053D01*
X149022014Y-85784440D01*
X148999375Y-85775062D01*
X148975342Y-85770282D01*
X148963090Y-85769680D01*
X148888183Y-85769680D01*
X148879624Y-85768837D01*
X148874564Y-85767302D01*
X148850531Y-85762522D01*
X148826027Y-85762522D01*
X148801993Y-85767303D01*
X148779355Y-85776680D01*
X148758980Y-85790294D01*
X148741653Y-85807621D01*
X148728040Y-85827995D01*
X148718662Y-85850634D01*
X148713882Y-85874667D01*
X144026198Y-85874667D01*
X144021417Y-85850633D01*
X144012040Y-85827995D01*
X143998426Y-85807620D01*
X143981099Y-85790293D01*
X143960725Y-85776680D01*
X143938086Y-85767302D01*
X143914053Y-85762522D01*
X143889549Y-85762522D01*
X143865516Y-85767302D01*
X143860456Y-85768837D01*
X143851897Y-85769680D01*
X142988183Y-85769680D01*
X142979624Y-85768837D01*
X142977295Y-85768130D01*
X142975153Y-85766985D01*
X142973275Y-85765445D01*
X142971735Y-85763567D01*
X142970590Y-85761425D01*
X142969883Y-85759096D01*
X142969040Y-85750537D01*
X142969040Y-85486823D01*
X142969883Y-85478264D01*
X142971139Y-85474124D01*
X142979075Y-85454964D01*
X142983855Y-85430930D01*
X142983855Y-85406426D01*
X142979074Y-85382393D01*
X142971139Y-85363235D01*
X142969883Y-85359096D01*
X142969040Y-85350537D01*
X142969040Y-85086823D01*
X142969883Y-85078264D01*
X142971139Y-85074124D01*
X142979075Y-85054964D01*
X142983855Y-85030930D01*
X142983855Y-85006426D01*
X142979074Y-84982393D01*
X142971139Y-84963235D01*
X142969883Y-84959096D01*
X142969040Y-84950537D01*
X142969040Y-84686823D01*
X142969883Y-84678264D01*
X142971139Y-84674124D01*
X142979075Y-84654964D01*
X142983855Y-84630930D01*
X142983855Y-84606426D01*
X142979074Y-84582393D01*
X142971139Y-84563235D01*
X142969883Y-84559096D01*
X142969040Y-84550537D01*
X142969040Y-84286823D01*
X142969883Y-84278264D01*
X142971139Y-84274124D01*
X142979075Y-84254964D01*
X142983855Y-84230930D01*
X142983855Y-84206426D01*
X142979074Y-84182393D01*
X142971139Y-84163235D01*
X142969883Y-84159096D01*
X142969040Y-84150537D01*
X142969040Y-83886823D01*
X142969883Y-83878264D01*
X142971139Y-83874124D01*
X142979075Y-83854964D01*
X142983855Y-83830930D01*
X142983855Y-83806426D01*
X142979074Y-83782393D01*
X142971139Y-83763235D01*
X142969883Y-83759096D01*
X142969040Y-83750537D01*
X142969040Y-83486823D01*
X142969883Y-83478264D01*
X142971139Y-83474124D01*
X142979075Y-83454964D01*
X142983855Y-83430930D01*
X142983855Y-83406426D01*
X142979074Y-83382393D01*
X142971139Y-83363235D01*
X142969883Y-83359096D01*
X142969040Y-83350537D01*
X142969040Y-83086823D01*
X142969883Y-83078264D01*
X142971139Y-83074124D01*
X142979075Y-83054964D01*
X142983855Y-83030930D01*
X142983855Y-83006426D01*
X142979074Y-82982393D01*
X142971139Y-82963235D01*
X142969883Y-82959096D01*
X142969040Y-82950537D01*
X142969040Y-82686823D01*
X142969883Y-82678264D01*
X142971139Y-82674124D01*
X142979075Y-82654964D01*
X142983855Y-82630930D01*
X142983855Y-82606426D01*
X142979074Y-82582393D01*
X142971139Y-82563235D01*
X142969883Y-82559096D01*
X142969040Y-82550537D01*
X142969040Y-82286823D01*
X142969883Y-82278264D01*
X142971139Y-82274124D01*
X142979075Y-82254964D01*
X142983855Y-82230930D01*
X142983855Y-82206426D01*
X142979074Y-82182393D01*
X142971139Y-82163235D01*
X142969883Y-82159096D01*
X142969040Y-82150537D01*
X142969040Y-81886823D01*
X142969883Y-81878264D01*
X142971139Y-81874124D01*
X142979075Y-81854964D01*
X142983855Y-81830930D01*
X142983855Y-81806426D01*
X142979074Y-81782393D01*
X142971139Y-81763235D01*
X142969883Y-81759096D01*
X142969040Y-81750537D01*
X142969040Y-81486823D01*
X142969883Y-81478264D01*
X142971139Y-81474124D01*
X142979075Y-81454964D01*
X142983855Y-81430930D01*
X142983855Y-81406426D01*
X142979074Y-81382393D01*
X142971139Y-81363235D01*
X142969883Y-81359096D01*
X142969040Y-81350537D01*
X142969040Y-81086823D01*
X142969883Y-81078264D01*
X142970590Y-81075935D01*
X142971735Y-81073793D01*
X142973275Y-81071915D01*
X142975153Y-81070375D01*
X142977295Y-81069230D01*
X142979624Y-81068523D01*
X142988183Y-81067680D01*
X143851897Y-81067680D01*
X143860456Y-81068523D01*
X143865516Y-81070058D01*
X143889549Y-81074838D01*
X143914053Y-81074838D01*
X143938087Y-81070057D01*
X143960725Y-81060680D01*
X143981100Y-81047066D01*
X143998427Y-81029739D01*
X144012040Y-81009365D01*
X144021418Y-80986726D01*
X144026198Y-80962693D01*
X144026198Y-80938189D01*
X144021418Y-80914156D01*
X144019883Y-80909096D01*
X144019040Y-80900537D01*
X144019040Y-80036823D01*
X144019883Y-80028264D01*
X144020590Y-80025935D01*
X144021735Y-80023793D01*
X144023275Y-80021915D01*
X144025153Y-80020375D01*
X144027295Y-80019230D01*
X144029624Y-80018523D01*
X144038183Y-80017680D01*
X144301897Y-80017680D01*
X144310456Y-80018523D01*
X144310456Y-80018523D01*
G37*
G36*
X137250122Y-84551118D02*
G01*
X137316307Y-84557637D01*
X137486146Y-84609157D01*
X137642671Y-84692822D01*
X137678409Y-84722152D01*
X137779866Y-84805414D01*
X137852713Y-84894180D01*
X137892458Y-84942609D01*
X137976123Y-85099134D01*
X138027643Y-85268973D01*
X138045039Y-85445600D01*
X138027643Y-85622227D01*
X137976123Y-85792066D01*
X137892458Y-85948591D01*
X137871623Y-85973978D01*
X137779866Y-86085786D01*
X137682038Y-86166070D01*
X137642671Y-86198378D01*
X137486146Y-86282043D01*
X137316307Y-86333563D01*
X137250123Y-86340081D01*
X137183940Y-86346600D01*
X137095420Y-86346600D01*
X137029237Y-86340081D01*
X136963053Y-86333563D01*
X136793214Y-86282043D01*
X136636689Y-86198378D01*
X136597322Y-86166070D01*
X136499494Y-86085786D01*
X136407737Y-85973978D01*
X136386902Y-85948591D01*
X136303237Y-85792066D01*
X136251717Y-85622227D01*
X136234321Y-85445600D01*
X136251717Y-85268973D01*
X136303237Y-85099134D01*
X136386902Y-84942609D01*
X136426647Y-84894180D01*
X136499494Y-84805414D01*
X136600951Y-84722152D01*
X136636689Y-84692822D01*
X136793214Y-84609157D01*
X136963053Y-84557637D01*
X137029238Y-84551118D01*
X137095420Y-84544600D01*
X137183940Y-84544600D01*
X137250122Y-84551118D01*
X137250122Y-84551118D01*
G37*
G36*
X152490122Y-84551118D02*
G01*
X152556307Y-84557637D01*
X152726146Y-84609157D01*
X152882671Y-84692822D01*
X152918409Y-84722152D01*
X153019866Y-84805414D01*
X153092713Y-84894180D01*
X153132458Y-84942609D01*
X153216123Y-85099134D01*
X153267643Y-85268973D01*
X153285039Y-85445600D01*
X153267643Y-85622227D01*
X153216123Y-85792066D01*
X153132458Y-85948591D01*
X153111623Y-85973978D01*
X153019866Y-86085786D01*
X152922038Y-86166070D01*
X152882671Y-86198378D01*
X152726146Y-86282043D01*
X152556307Y-86333563D01*
X152490123Y-86340081D01*
X152423940Y-86346600D01*
X152335420Y-86346600D01*
X152269237Y-86340081D01*
X152203053Y-86333563D01*
X152033214Y-86282043D01*
X151876689Y-86198378D01*
X151837322Y-86166070D01*
X151739494Y-86085786D01*
X151647737Y-85973978D01*
X151626902Y-85948591D01*
X151543237Y-85792066D01*
X151491717Y-85622227D01*
X151474321Y-85445600D01*
X151491717Y-85268973D01*
X151543237Y-85099134D01*
X151626902Y-84942609D01*
X151666647Y-84894180D01*
X151739494Y-84805414D01*
X151840951Y-84722152D01*
X151876689Y-84692822D01*
X152033214Y-84609157D01*
X152203053Y-84557637D01*
X152269238Y-84551118D01*
X152335420Y-84544600D01*
X152423940Y-84544600D01*
X152490122Y-84551118D01*
X152490122Y-84551118D01*
G37*
G36*
X141825978Y-84685756D02*
G01*
X141846597Y-84692011D01*
X141865593Y-84702164D01*
X141882248Y-84715832D01*
X141895916Y-84732487D01*
X141906069Y-84751483D01*
X141912324Y-84772102D01*
X141915040Y-84799680D01*
X141915040Y-85258400D01*
X141912324Y-85285978D01*
X141906069Y-85306597D01*
X141895916Y-85325593D01*
X141882248Y-85342248D01*
X141865593Y-85355916D01*
X141846597Y-85366069D01*
X141825978Y-85372324D01*
X141798400Y-85375040D01*
X141289680Y-85375040D01*
X141262102Y-85372324D01*
X141241483Y-85366069D01*
X141222487Y-85355916D01*
X141205832Y-85342248D01*
X141192164Y-85325593D01*
X141182011Y-85306597D01*
X141175756Y-85285978D01*
X141173040Y-85258400D01*
X141173040Y-84799680D01*
X141175756Y-84772102D01*
X141182011Y-84751483D01*
X141192164Y-84732487D01*
X141205832Y-84715832D01*
X141222487Y-84702164D01*
X141241483Y-84692011D01*
X141262102Y-84685756D01*
X141289680Y-84683040D01*
X141798400Y-84683040D01*
X141825978Y-84685756D01*
X141825978Y-84685756D01*
G37*
G36*
X141825978Y-83715756D02*
G01*
X141846597Y-83722011D01*
X141865593Y-83732164D01*
X141882248Y-83745832D01*
X141895916Y-83762487D01*
X141906069Y-83781483D01*
X141912324Y-83802102D01*
X141915040Y-83829680D01*
X141915040Y-84288400D01*
X141912324Y-84315978D01*
X141906069Y-84336597D01*
X141895916Y-84355593D01*
X141882248Y-84372248D01*
X141865593Y-84385916D01*
X141846597Y-84396069D01*
X141825978Y-84402324D01*
X141798400Y-84405040D01*
X141289680Y-84405040D01*
X141262102Y-84402324D01*
X141241483Y-84396069D01*
X141222487Y-84385916D01*
X141205832Y-84372248D01*
X141192164Y-84355593D01*
X141182011Y-84336597D01*
X141175756Y-84315978D01*
X141173040Y-84288400D01*
X141173040Y-83829680D01*
X141175756Y-83802102D01*
X141182011Y-83781483D01*
X141192164Y-83762487D01*
X141205832Y-83745832D01*
X141222487Y-83732164D01*
X141241483Y-83722011D01*
X141262102Y-83715756D01*
X141289680Y-83713040D01*
X141798400Y-83713040D01*
X141825978Y-83715756D01*
X141825978Y-83715756D01*
G37*
G36*
X137250123Y-82011119D02*
G01*
X137316307Y-82017637D01*
X137486146Y-82069157D01*
X137642671Y-82152822D01*
X137661444Y-82168229D01*
X137779866Y-82265414D01*
X137831598Y-82328451D01*
X137892458Y-82402609D01*
X137976123Y-82559134D01*
X138027643Y-82728973D01*
X138045039Y-82905600D01*
X138027643Y-83082227D01*
X137976123Y-83252066D01*
X137892458Y-83408591D01*
X137874121Y-83430934D01*
X137779866Y-83545786D01*
X137678409Y-83629048D01*
X137642671Y-83658378D01*
X137486146Y-83742043D01*
X137316307Y-83793563D01*
X137250123Y-83800081D01*
X137183940Y-83806600D01*
X137095420Y-83806600D01*
X137029237Y-83800081D01*
X136963053Y-83793563D01*
X136793214Y-83742043D01*
X136636689Y-83658378D01*
X136600951Y-83629048D01*
X136499494Y-83545786D01*
X136405239Y-83430934D01*
X136386902Y-83408591D01*
X136303237Y-83252066D01*
X136251717Y-83082227D01*
X136234321Y-82905600D01*
X136251717Y-82728973D01*
X136303237Y-82559134D01*
X136386902Y-82402609D01*
X136447762Y-82328451D01*
X136499494Y-82265414D01*
X136617916Y-82168229D01*
X136636689Y-82152822D01*
X136793214Y-82069157D01*
X136963053Y-82017637D01*
X137029237Y-82011119D01*
X137095420Y-82004600D01*
X137183940Y-82004600D01*
X137250123Y-82011119D01*
X137250123Y-82011119D01*
G37*
G36*
X152490123Y-82011119D02*
G01*
X152556307Y-82017637D01*
X152726146Y-82069157D01*
X152882671Y-82152822D01*
X152901444Y-82168229D01*
X153019866Y-82265414D01*
X153071598Y-82328451D01*
X153132458Y-82402609D01*
X153216123Y-82559134D01*
X153267643Y-82728973D01*
X153285039Y-82905600D01*
X153267643Y-83082227D01*
X153216123Y-83252066D01*
X153132458Y-83408591D01*
X153114121Y-83430934D01*
X153019866Y-83545786D01*
X152918409Y-83629048D01*
X152882671Y-83658378D01*
X152726146Y-83742043D01*
X152556307Y-83793563D01*
X152490123Y-83800081D01*
X152423940Y-83806600D01*
X152335420Y-83806600D01*
X152269237Y-83800081D01*
X152203053Y-83793563D01*
X152033214Y-83742043D01*
X151876689Y-83658378D01*
X151840951Y-83629048D01*
X151739494Y-83545786D01*
X151645239Y-83430934D01*
X151626902Y-83408591D01*
X151543237Y-83252066D01*
X151491717Y-83082227D01*
X151474321Y-82905600D01*
X151491717Y-82728973D01*
X151543237Y-82559134D01*
X151626902Y-82402609D01*
X151687762Y-82328451D01*
X151739494Y-82265414D01*
X151857916Y-82168229D01*
X151876689Y-82152822D01*
X152033214Y-82069157D01*
X152203053Y-82017637D01*
X152269237Y-82011119D01*
X152335420Y-82004600D01*
X152423940Y-82004600D01*
X152490123Y-82011119D01*
X152490123Y-82011119D01*
G37*
G36*
X137250122Y-79471118D02*
G01*
X137316307Y-79477637D01*
X137486146Y-79529157D01*
X137642671Y-79612822D01*
X137678409Y-79642152D01*
X137779866Y-79725414D01*
X137863128Y-79826871D01*
X137892458Y-79862609D01*
X137976123Y-80019134D01*
X138027643Y-80188973D01*
X138045039Y-80365600D01*
X138027643Y-80542227D01*
X137976123Y-80712066D01*
X137892458Y-80868591D01*
X137878067Y-80886126D01*
X137779866Y-81005786D01*
X137694388Y-81075935D01*
X137642671Y-81118378D01*
X137486146Y-81202043D01*
X137316307Y-81253563D01*
X137250122Y-81260082D01*
X137183940Y-81266600D01*
X137095420Y-81266600D01*
X137029238Y-81260082D01*
X136963053Y-81253563D01*
X136793214Y-81202043D01*
X136636689Y-81118378D01*
X136584972Y-81075935D01*
X136499494Y-81005786D01*
X136401293Y-80886126D01*
X136386902Y-80868591D01*
X136303237Y-80712066D01*
X136251717Y-80542227D01*
X136234321Y-80365600D01*
X136251717Y-80188973D01*
X136303237Y-80019134D01*
X136386902Y-79862609D01*
X136416232Y-79826871D01*
X136499494Y-79725414D01*
X136600951Y-79642152D01*
X136636689Y-79612822D01*
X136793214Y-79529157D01*
X136963053Y-79477637D01*
X137029238Y-79471118D01*
X137095420Y-79464600D01*
X137183940Y-79464600D01*
X137250122Y-79471118D01*
X137250122Y-79471118D01*
G37*
G36*
X152490122Y-79471118D02*
G01*
X152556307Y-79477637D01*
X152726146Y-79529157D01*
X152882671Y-79612822D01*
X152918409Y-79642152D01*
X153019866Y-79725414D01*
X153103128Y-79826871D01*
X153132458Y-79862609D01*
X153216123Y-80019134D01*
X153267643Y-80188973D01*
X153285039Y-80365600D01*
X153267643Y-80542227D01*
X153216123Y-80712066D01*
X153132458Y-80868591D01*
X153118067Y-80886126D01*
X153019866Y-81005786D01*
X152934388Y-81075935D01*
X152882671Y-81118378D01*
X152726146Y-81202043D01*
X152556307Y-81253563D01*
X152490122Y-81260082D01*
X152423940Y-81266600D01*
X152335420Y-81266600D01*
X152269238Y-81260082D01*
X152203053Y-81253563D01*
X152033214Y-81202043D01*
X151876689Y-81118378D01*
X151824972Y-81075935D01*
X151739494Y-81005786D01*
X151641293Y-80886126D01*
X151626902Y-80868591D01*
X151543237Y-80712066D01*
X151491717Y-80542227D01*
X151474321Y-80365600D01*
X151491717Y-80188973D01*
X151543237Y-80019134D01*
X151626902Y-79862609D01*
X151656232Y-79826871D01*
X151739494Y-79725414D01*
X151840951Y-79642152D01*
X151876689Y-79612822D01*
X152033214Y-79529157D01*
X152203053Y-79477637D01*
X152269238Y-79471118D01*
X152335420Y-79464600D01*
X152423940Y-79464600D01*
X152490122Y-79471118D01*
X152490122Y-79471118D01*
G37*
G36*
X140123290Y-79481403D02*
G01*
X140134997Y-79484955D01*
X140154197Y-79495217D01*
X140176836Y-79504594D01*
X140200869Y-79509374D01*
X140225373Y-79509374D01*
X140249406Y-79504593D01*
X140272043Y-79495217D01*
X140291243Y-79484955D01*
X140302950Y-79481403D01*
X140321258Y-79479600D01*
X140744982Y-79479600D01*
X140763290Y-79481403D01*
X140774995Y-79484954D01*
X140785785Y-79490721D01*
X140795239Y-79498481D01*
X140802999Y-79507935D01*
X140808766Y-79518725D01*
X140812317Y-79530430D01*
X140814120Y-79548738D01*
X140814120Y-79912462D01*
X140812317Y-79930770D01*
X140808766Y-79942475D01*
X140802999Y-79953265D01*
X140795239Y-79962719D01*
X140785785Y-79970479D01*
X140774995Y-79976246D01*
X140763290Y-79979797D01*
X140744982Y-79981600D01*
X140321258Y-79981600D01*
X140302950Y-79979797D01*
X140291243Y-79976245D01*
X140272043Y-79965983D01*
X140249404Y-79956606D01*
X140225371Y-79951826D01*
X140200867Y-79951826D01*
X140176834Y-79956607D01*
X140154197Y-79965983D01*
X140134997Y-79976245D01*
X140123290Y-79979797D01*
X140104982Y-79981600D01*
X139681258Y-79981600D01*
X139662950Y-79979797D01*
X139651245Y-79976246D01*
X139640455Y-79970479D01*
X139631001Y-79962719D01*
X139623241Y-79953265D01*
X139617474Y-79942475D01*
X139613923Y-79930770D01*
X139612120Y-79912462D01*
X139612120Y-79548738D01*
X139613923Y-79530430D01*
X139617474Y-79518725D01*
X139623241Y-79507935D01*
X139631001Y-79498481D01*
X139640455Y-79490721D01*
X139651245Y-79484954D01*
X139662950Y-79481403D01*
X139681258Y-79479600D01*
X140104982Y-79479600D01*
X140123290Y-79481403D01*
X140123290Y-79481403D01*
G37*
G36*
X146737850Y-77374163D02*
G01*
X146749555Y-77377714D01*
X146760345Y-77383481D01*
X146769799Y-77391241D01*
X146777559Y-77400695D01*
X146783326Y-77411485D01*
X146786877Y-77423190D01*
X146788680Y-77441498D01*
X146788680Y-77865222D01*
X146786877Y-77883530D01*
X146783325Y-77895237D01*
X146773063Y-77914437D01*
X146763686Y-77937076D01*
X146758906Y-77961109D01*
X146758906Y-77985613D01*
X146763687Y-78009646D01*
X146773063Y-78032283D01*
X146783325Y-78051483D01*
X146786877Y-78063190D01*
X146788680Y-78081498D01*
X146788680Y-78505222D01*
X146786877Y-78523530D01*
X146783326Y-78535235D01*
X146777559Y-78546025D01*
X146772705Y-78551939D01*
X146759091Y-78572314D01*
X146749714Y-78594952D01*
X146744933Y-78618986D01*
X146744933Y-78643490D01*
X146749713Y-78667523D01*
X146759090Y-78690162D01*
X146772704Y-78710536D01*
X146790030Y-78727864D01*
X146801281Y-78735382D01*
X146814999Y-78746641D01*
X146822759Y-78756095D01*
X146828526Y-78766885D01*
X146832077Y-78778590D01*
X146833880Y-78796898D01*
X146833880Y-79160622D01*
X146832077Y-79178930D01*
X146828526Y-79190635D01*
X146822759Y-79201425D01*
X146814999Y-79210879D01*
X146805545Y-79218639D01*
X146794755Y-79224406D01*
X146783050Y-79227957D01*
X146764742Y-79229760D01*
X146341018Y-79229760D01*
X146322710Y-79227957D01*
X146311003Y-79224405D01*
X146291803Y-79214143D01*
X146269164Y-79204766D01*
X146245131Y-79199986D01*
X146220627Y-79199986D01*
X146196594Y-79204767D01*
X146173957Y-79214143D01*
X146154757Y-79224405D01*
X146143050Y-79227957D01*
X146124742Y-79229760D01*
X145701018Y-79229760D01*
X145682710Y-79227957D01*
X145671005Y-79224406D01*
X145660215Y-79218639D01*
X145650761Y-79210879D01*
X145643001Y-79201425D01*
X145637234Y-79190635D01*
X145633683Y-79178930D01*
X145631880Y-79160622D01*
X145631880Y-78796898D01*
X145633683Y-78778590D01*
X145637234Y-78766885D01*
X145643001Y-78756095D01*
X145650761Y-78746641D01*
X145660215Y-78738881D01*
X145671005Y-78733114D01*
X145682710Y-78729563D01*
X145701018Y-78727760D01*
X146124742Y-78727760D01*
X146143053Y-78729563D01*
X146156052Y-78733507D01*
X146180085Y-78738289D01*
X146204589Y-78738289D01*
X146228623Y-78733510D01*
X146251262Y-78724133D01*
X146271636Y-78710520D01*
X146288964Y-78693194D01*
X146302578Y-78672820D01*
X146311956Y-78650181D01*
X146316738Y-78626148D01*
X146316738Y-78601644D01*
X146311959Y-78577610D01*
X146302581Y-78554970D01*
X146292035Y-78535240D01*
X146288483Y-78523530D01*
X146286680Y-78505222D01*
X146286680Y-78081498D01*
X146288483Y-78063190D01*
X146292035Y-78051483D01*
X146302297Y-78032283D01*
X146311674Y-78009644D01*
X146316454Y-77985611D01*
X146316454Y-77961107D01*
X146311673Y-77937074D01*
X146302297Y-77914437D01*
X146292035Y-77895237D01*
X146288483Y-77883530D01*
X146286680Y-77865222D01*
X146286680Y-77441498D01*
X146288483Y-77423190D01*
X146292034Y-77411485D01*
X146297801Y-77400695D01*
X146305561Y-77391241D01*
X146315015Y-77383481D01*
X146325805Y-77377714D01*
X146337510Y-77374163D01*
X146355818Y-77372360D01*
X146719542Y-77372360D01*
X146737850Y-77374163D01*
X146737850Y-77374163D01*
G37*
G36*
X142175840Y-79164040D02*
G01*
X140673840Y-79164040D01*
X140673840Y-77862040D01*
X142175840Y-77862040D01*
X142175840Y-79164040D01*
X142175840Y-79164040D01*
G37*
G36*
X139975840Y-79164040D02*
G01*
X138473840Y-79164040D01*
X138473840Y-77862040D01*
X139975840Y-77862040D01*
X139975840Y-79164040D01*
X139975840Y-79164040D01*
G37*
G36*
X137250122Y-76931118D02*
G01*
X137316307Y-76937637D01*
X137486146Y-76989157D01*
X137642671Y-77072822D01*
X137678409Y-77102152D01*
X137779866Y-77185414D01*
X137847619Y-77267973D01*
X137892458Y-77322609D01*
X137976123Y-77479134D01*
X138027643Y-77648973D01*
X138045039Y-77825600D01*
X138027643Y-78002227D01*
X137981744Y-78153536D01*
X137976122Y-78172068D01*
X137934291Y-78250328D01*
X137892458Y-78328591D01*
X137863128Y-78364329D01*
X137779866Y-78465786D01*
X137682093Y-78546025D01*
X137642671Y-78578378D01*
X137486146Y-78662043D01*
X137316307Y-78713563D01*
X137250122Y-78720082D01*
X137183940Y-78726600D01*
X137095420Y-78726600D01*
X137029238Y-78720082D01*
X136963053Y-78713563D01*
X136793214Y-78662043D01*
X136636689Y-78578378D01*
X136597267Y-78546025D01*
X136499494Y-78465786D01*
X136416232Y-78364329D01*
X136386902Y-78328591D01*
X136345069Y-78250328D01*
X136303238Y-78172068D01*
X136297616Y-78153536D01*
X136251717Y-78002227D01*
X136234321Y-77825600D01*
X136251717Y-77648973D01*
X136303237Y-77479134D01*
X136386902Y-77322609D01*
X136431741Y-77267973D01*
X136499494Y-77185414D01*
X136600951Y-77102152D01*
X136636689Y-77072822D01*
X136793214Y-76989157D01*
X136963053Y-76937637D01*
X137029238Y-76931118D01*
X137095420Y-76924600D01*
X137183940Y-76924600D01*
X137250122Y-76931118D01*
X137250122Y-76931118D01*
G37*
G36*
X152490122Y-76931118D02*
G01*
X152556307Y-76937637D01*
X152726146Y-76989157D01*
X152882671Y-77072822D01*
X152918409Y-77102152D01*
X153019866Y-77185414D01*
X153087619Y-77267973D01*
X153132458Y-77322609D01*
X153216123Y-77479134D01*
X153267643Y-77648973D01*
X153285039Y-77825600D01*
X153267643Y-78002227D01*
X153221744Y-78153536D01*
X153216122Y-78172068D01*
X153174291Y-78250328D01*
X153132458Y-78328591D01*
X153103128Y-78364329D01*
X153019866Y-78465786D01*
X152922093Y-78546025D01*
X152882671Y-78578378D01*
X152726146Y-78662043D01*
X152556307Y-78713563D01*
X152490122Y-78720082D01*
X152423940Y-78726600D01*
X152335420Y-78726600D01*
X152269238Y-78720082D01*
X152203053Y-78713563D01*
X152033214Y-78662043D01*
X151876689Y-78578378D01*
X151837267Y-78546025D01*
X151739494Y-78465786D01*
X151656232Y-78364329D01*
X151626902Y-78328591D01*
X151585069Y-78250328D01*
X151543238Y-78172068D01*
X151537616Y-78153536D01*
X151491717Y-78002227D01*
X151474321Y-77825600D01*
X151491717Y-77648973D01*
X151543237Y-77479134D01*
X151626902Y-77322609D01*
X151671741Y-77267973D01*
X151739494Y-77185414D01*
X151840951Y-77102152D01*
X151876689Y-77072822D01*
X152033214Y-76989157D01*
X152203053Y-76937637D01*
X152269238Y-76931118D01*
X152335420Y-76924600D01*
X152423940Y-76924600D01*
X152490122Y-76931118D01*
X152490122Y-76931118D01*
G37*
G36*
X145102090Y-77414323D02*
G01*
X145113795Y-77417874D01*
X145124585Y-77423641D01*
X145134039Y-77431401D01*
X145141799Y-77440855D01*
X145147566Y-77451645D01*
X145151117Y-77463350D01*
X145152920Y-77481658D01*
X145152920Y-77905382D01*
X145151117Y-77923690D01*
X145147565Y-77935397D01*
X145137303Y-77954597D01*
X145127926Y-77977236D01*
X145123146Y-78001269D01*
X145123146Y-78025773D01*
X145127927Y-78049806D01*
X145137303Y-78072443D01*
X145147565Y-78091643D01*
X145151117Y-78103350D01*
X145152920Y-78121658D01*
X145152920Y-78545382D01*
X145151117Y-78563690D01*
X145147566Y-78575395D01*
X145141799Y-78586185D01*
X145134039Y-78595639D01*
X145124585Y-78603399D01*
X145113795Y-78609166D01*
X145102090Y-78612717D01*
X145083782Y-78614520D01*
X144720058Y-78614520D01*
X144701750Y-78612717D01*
X144690045Y-78609166D01*
X144679255Y-78603399D01*
X144669801Y-78595639D01*
X144662041Y-78586185D01*
X144656274Y-78575395D01*
X144652723Y-78563690D01*
X144650920Y-78545382D01*
X144650920Y-78121658D01*
X144652723Y-78103350D01*
X144656275Y-78091643D01*
X144666537Y-78072443D01*
X144675914Y-78049804D01*
X144680694Y-78025771D01*
X144680694Y-78001267D01*
X144675913Y-77977234D01*
X144666537Y-77954597D01*
X144656275Y-77935397D01*
X144652723Y-77923690D01*
X144650920Y-77905382D01*
X144650920Y-77481658D01*
X144652723Y-77463350D01*
X144656274Y-77451645D01*
X144662041Y-77440855D01*
X144669801Y-77431401D01*
X144679255Y-77423641D01*
X144690045Y-77417874D01*
X144701750Y-77414323D01*
X144720058Y-77412520D01*
X145083782Y-77412520D01*
X145102090Y-77414323D01*
X145102090Y-77414323D01*
G37*
G36*
X144505240Y-77167360D02*
G01*
X144364932Y-77167360D01*
X144340546Y-77169762D01*
X144317097Y-77176875D01*
X144295486Y-77188426D01*
X144276544Y-77203971D01*
X144260999Y-77222913D01*
X144249448Y-77244524D01*
X144242335Y-77267973D01*
X144239933Y-77292359D01*
X144242335Y-77316745D01*
X144249448Y-77340194D01*
X144260999Y-77361805D01*
X144276544Y-77380747D01*
X144295486Y-77396292D01*
X144328643Y-77411974D01*
X144331471Y-77412832D01*
X144342265Y-77418601D01*
X144351719Y-77426361D01*
X144359479Y-77435815D01*
X144365246Y-77446605D01*
X144368797Y-77458310D01*
X144370600Y-77476618D01*
X144370600Y-77900342D01*
X144368797Y-77918650D01*
X144365245Y-77930357D01*
X144354983Y-77949557D01*
X144345606Y-77972196D01*
X144340826Y-77996229D01*
X144340826Y-78020733D01*
X144345607Y-78044766D01*
X144354983Y-78067403D01*
X144365245Y-78086603D01*
X144368797Y-78098310D01*
X144370600Y-78116618D01*
X144370600Y-78540342D01*
X144368797Y-78558650D01*
X144365246Y-78570355D01*
X144359479Y-78581145D01*
X144351719Y-78590599D01*
X144342265Y-78598359D01*
X144331475Y-78604126D01*
X144319770Y-78607677D01*
X144301462Y-78609480D01*
X143937738Y-78609480D01*
X143919430Y-78607677D01*
X143907725Y-78604126D01*
X143896935Y-78598359D01*
X143887481Y-78590599D01*
X143879721Y-78581145D01*
X143873954Y-78570355D01*
X143870403Y-78558650D01*
X143868600Y-78540342D01*
X143868600Y-78116618D01*
X143870403Y-78098310D01*
X143873955Y-78086603D01*
X143884217Y-78067403D01*
X143893594Y-78044764D01*
X143898374Y-78020731D01*
X143898374Y-77996227D01*
X143893593Y-77972194D01*
X143884217Y-77949557D01*
X143873955Y-77930357D01*
X143870403Y-77918650D01*
X143868600Y-77900342D01*
X143868600Y-77476618D01*
X143870403Y-77458310D01*
X143873954Y-77446605D01*
X143879721Y-77435815D01*
X143887481Y-77426361D01*
X143896935Y-77418601D01*
X143907729Y-77412832D01*
X143910557Y-77411974D01*
X143933196Y-77402596D01*
X143953570Y-77388982D01*
X143970896Y-77371655D01*
X143984509Y-77351280D01*
X143993886Y-77328641D01*
X143998665Y-77304607D01*
X143998665Y-77280103D01*
X143993883Y-77256070D01*
X143984505Y-77233431D01*
X143970891Y-77213057D01*
X143953564Y-77195731D01*
X143933189Y-77182118D01*
X143910550Y-77172741D01*
X143874268Y-77167360D01*
X143053240Y-77167360D01*
X143053240Y-72865360D01*
X144505240Y-72865360D01*
X144505240Y-77167360D01*
X144505240Y-77167360D01*
G37*
G36*
X140123290Y-75488523D02*
G01*
X140134997Y-75492075D01*
X140154197Y-75502337D01*
X140176836Y-75511714D01*
X140200869Y-75516494D01*
X140225373Y-75516494D01*
X140249406Y-75511713D01*
X140272043Y-75502337D01*
X140291243Y-75492075D01*
X140302950Y-75488523D01*
X140321258Y-75486720D01*
X140744982Y-75486720D01*
X140763290Y-75488523D01*
X140774995Y-75492074D01*
X140785785Y-75497841D01*
X140795239Y-75505601D01*
X140802999Y-75515055D01*
X140808766Y-75525845D01*
X140812317Y-75537550D01*
X140814120Y-75555858D01*
X140814120Y-75919582D01*
X140812317Y-75937890D01*
X140808766Y-75949595D01*
X140801385Y-75963405D01*
X140791553Y-75978120D01*
X140782176Y-76000759D01*
X140777397Y-76024793D01*
X140777397Y-76049297D01*
X140782179Y-76073330D01*
X140791556Y-76095968D01*
X140805171Y-76116342D01*
X140822498Y-76133669D01*
X140842873Y-76147282D01*
X140865512Y-76156659D01*
X140901794Y-76162040D01*
X142175840Y-76162040D01*
X142175840Y-77464040D01*
X140673840Y-77464040D01*
X140673840Y-76113719D01*
X140671438Y-76089333D01*
X140664325Y-76065884D01*
X140652774Y-76044273D01*
X140637229Y-76025331D01*
X140618287Y-76009786D01*
X140596676Y-75998235D01*
X140573227Y-75991122D01*
X140548841Y-75988720D01*
X140321258Y-75988720D01*
X140302950Y-75986917D01*
X140291243Y-75983365D01*
X140272043Y-75973103D01*
X140249404Y-75963726D01*
X140225371Y-75958946D01*
X140200867Y-75958946D01*
X140176834Y-75963727D01*
X140154197Y-75973103D01*
X140134997Y-75983365D01*
X140123290Y-75986917D01*
X140104982Y-75988720D01*
X140100839Y-75988720D01*
X140076453Y-75991122D01*
X140053004Y-75998235D01*
X140031393Y-76009786D01*
X140012451Y-76025331D01*
X139996906Y-76044273D01*
X139985355Y-76065884D01*
X139978242Y-76089333D01*
X139975840Y-76113719D01*
X139975840Y-77464040D01*
X138473840Y-77464040D01*
X138473840Y-76162040D01*
X139524446Y-76162040D01*
X139548832Y-76159638D01*
X139572281Y-76152525D01*
X139593892Y-76140974D01*
X139612834Y-76125429D01*
X139628379Y-76106487D01*
X139639930Y-76084876D01*
X139647043Y-76061427D01*
X139649445Y-76037041D01*
X139647043Y-76012655D01*
X139639930Y-75989206D01*
X139628064Y-75969408D01*
X139617474Y-75949595D01*
X139613923Y-75937890D01*
X139612120Y-75919582D01*
X139612120Y-75555858D01*
X139613923Y-75537550D01*
X139617474Y-75525845D01*
X139623241Y-75515055D01*
X139631001Y-75505601D01*
X139640455Y-75497841D01*
X139651245Y-75492074D01*
X139662950Y-75488523D01*
X139681258Y-75486720D01*
X140104982Y-75486720D01*
X140123290Y-75488523D01*
X140123290Y-75488523D01*
G37*
G36*
X150155240Y-77167360D02*
G01*
X148703240Y-77167360D01*
X148703240Y-72865360D01*
X150155240Y-72865360D01*
X150155240Y-77167360D01*
X150155240Y-77167360D01*
G37*
G36*
X147290240Y-76667360D02*
G01*
X145918240Y-76667360D01*
X145918240Y-72965360D01*
X147290240Y-72965360D01*
X147290240Y-76667360D01*
X147290240Y-76667360D01*
G37*
G36*
X137250122Y-74391118D02*
G01*
X137316307Y-74397637D01*
X137486146Y-74449157D01*
X137642671Y-74532822D01*
X137678409Y-74562152D01*
X137779866Y-74645414D01*
X137863128Y-74746871D01*
X137892458Y-74782609D01*
X137976123Y-74939134D01*
X138027643Y-75108973D01*
X138045039Y-75285600D01*
X138027643Y-75462227D01*
X137976123Y-75632066D01*
X137892458Y-75788591D01*
X137863128Y-75824329D01*
X137779866Y-75925786D01*
X137691585Y-75998235D01*
X137642671Y-76038378D01*
X137486146Y-76122043D01*
X137316307Y-76173563D01*
X137250123Y-76180081D01*
X137183940Y-76186600D01*
X137095420Y-76186600D01*
X137029237Y-76180081D01*
X136963053Y-76173563D01*
X136793214Y-76122043D01*
X136636689Y-76038378D01*
X136587775Y-75998235D01*
X136499494Y-75925786D01*
X136416232Y-75824329D01*
X136386902Y-75788591D01*
X136303237Y-75632066D01*
X136251717Y-75462227D01*
X136234321Y-75285600D01*
X136251717Y-75108973D01*
X136303237Y-74939134D01*
X136386902Y-74782609D01*
X136416232Y-74746871D01*
X136499494Y-74645414D01*
X136600951Y-74562152D01*
X136636689Y-74532822D01*
X136793214Y-74449157D01*
X136963053Y-74397637D01*
X137029238Y-74391118D01*
X137095420Y-74384600D01*
X137183940Y-74384600D01*
X137250122Y-74391118D01*
X137250122Y-74391118D01*
G37*
G36*
X153280680Y-76186600D02*
G01*
X151478680Y-76186600D01*
X151478680Y-74384600D01*
X153280680Y-74384600D01*
X153280680Y-76186600D01*
X153280680Y-76186600D01*
G37*
M02*
